<svg width="80" height="80" viewBox="0 0 80 80" fill="none" xmlns="http://www.w3.org/2000/svg">
<g clip-path="url(#clip0_5673_1654)">
<path d="M71.0461 22.4544C72.2994 22.4544 73.326 21.4278 73.326 20.1745V18.8678C73.326 17.6145 72.2994 16.5878 71.0461 16.5878H59.6929V14.3279C59.6929 13.3545 58.9062 12.5679 57.9329 12.5679H48.2264C47.0331 9.0346 43.7464 6.66797 39.9998 6.66797C36.2532 6.66797 32.9666 9.0346 31.7733 12.5679H22.0534C21.0801 12.5679 20.2934 13.3545 20.2934 14.3279V16.5878H8.94025C7.68026 16.5878 6.66028 17.6078 6.66028 18.8678V20.1745C6.66028 21.4278 7.68693 22.4544 8.94025 22.4544H10.5669V54.874C10.5669 55.414 11.0069 55.8473 11.5402 55.8473C12.0735 55.8473 12.5135 55.4073 12.5135 54.874V22.7878C12.5135 22.6011 12.6602 22.4544 12.8469 22.4544H20.2934V24.7144C20.2934 25.6877 21.0801 26.4744 22.0534 26.4744H41.6798C42.2198 26.4744 42.6531 26.0344 42.6531 25.5011C42.6531 24.9677 42.2131 24.5277 41.6798 24.5277H22.5867C22.4001 24.5277 22.2534 24.3811 22.2534 24.1944V14.8545C22.2534 14.6679 22.4001 14.5212 22.5867 14.5212H31.9066C32.6666 14.5212 33.3466 14.0345 33.5799 13.3079C34.8066 9.46126 39.2132 7.34129 43.3798 9.46126C44.9064 10.2346 45.8797 11.7079 46.4197 13.3279C46.6597 14.0412 47.3264 14.5212 48.0864 14.5212H57.4063C57.5929 14.5212 57.7396 14.6679 57.7396 14.8545V24.1811C57.7396 24.3677 57.5929 24.5144 57.4063 24.5144H46.2397C45.6998 24.5144 45.2664 24.9544 45.2664 25.4877C45.2664 26.021 45.7064 26.461 46.2397 26.461H57.9329C58.9062 26.461 59.6929 25.6744 59.6929 24.7011V22.4411H67.1395C67.3261 22.4411 67.4728 22.5878 67.4728 22.7744V67.4538H50.5264V50.0741C51.5863 50.1007 52.4797 49.2541 52.4797 48.1874V46.1074C52.4797 45.0675 51.633 44.2208 50.593 44.2208H29.4C28.36 44.2208 27.5133 45.0675 27.5133 46.1074V48.1874C27.5133 49.2407 28.4 50.1141 29.4666 50.0741V67.4538H12.5202V59.4139C12.5202 58.8739 12.0802 58.4406 11.5469 58.4406C11.0069 58.4406 10.5736 58.8806 10.5736 59.4139V67.4538H8.94691C7.68693 67.4538 6.66694 68.4738 6.66694 69.7338V71.0471C6.66694 72.3004 7.6936 73.3271 8.94691 73.3271H71.0527C72.3127 73.3271 73.3327 72.3071 73.3327 71.0471V69.7405C73.3327 68.4871 72.3061 67.4605 71.0527 67.4605H69.4261V22.4544H71.0461ZM20.3001 20.5011H8.94025C8.76025 20.5011 8.61358 20.3545 8.61358 20.1745V18.8678C8.61358 18.6878 8.76025 18.5411 8.94025 18.5411H20.3001V20.5011ZM29.4666 46.1874H50.5264V48.1408H29.4666V46.1874ZM48.5664 50.0941V67.4738H40.9665V50.0941H48.5664ZM39.0132 50.0941V67.4738H31.4133V50.0941H39.0132ZM71.0461 69.4205C71.2261 69.4205 71.3727 69.5671 71.3727 69.7471V71.0538C71.3727 71.2338 71.2261 71.3804 71.0461 71.3804H8.94025C8.76025 71.3804 8.61358 71.2338 8.61358 71.0538V69.7471C8.61358 69.5671 8.76025 69.4205 8.94025 69.4205H71.0461ZM59.6862 20.5011V18.5411H71.0461C71.2261 18.5411 71.3727 18.6878 71.3727 18.8678V20.1745C71.3727 20.3545 71.2261 20.5011 71.0461 20.5011H59.6862ZM21.7667 33.2876C22.1801 33.2876 22.5801 33.4076 22.9201 33.6409C23.3667 33.9409 23.9734 33.8276 24.2734 33.3809C24.5734 32.9343 24.46 32.3276 24.0134 32.0276C23.3467 31.581 22.5734 31.341 21.7667 31.341C19.5534 31.341 17.7468 33.141 17.7468 35.3609C17.7468 37.5742 19.5468 39.3809 21.7667 39.3809C22.6601 39.3809 23.46 39.0875 24.0867 38.5275C24.2067 38.4209 24.3267 38.3009 24.4334 38.1742C24.78 37.7609 24.7267 37.1476 24.3134 36.8009C23.9 36.4542 23.2867 36.5076 22.9401 36.9209C22.8934 36.9742 22.8467 37.0276 22.7934 37.0742C22.5267 37.3076 22.1867 37.4276 21.7734 37.4276C20.6334 37.4276 19.7068 36.5009 19.7068 35.3609C19.7001 34.2143 20.6268 33.2876 21.7667 33.2876ZM39.6998 31.3876C39.1598 31.3876 38.7265 31.8276 38.7265 32.361V38.3875C38.7265 38.9275 39.1665 39.3609 39.6998 39.3609H42.2398C42.7798 39.3609 43.2131 38.9209 43.2131 38.3875C43.2131 37.8542 42.7731 37.4142 42.2398 37.4142H40.6798V36.3542H42.0531C42.5931 36.3542 43.0265 35.9142 43.0265 35.3809C43.0265 34.8409 42.5865 34.4076 42.0531 34.4076H40.6798V33.3476H42.2398C42.7798 33.3476 43.2131 32.9076 43.2131 32.3743C43.2131 31.841 42.7731 31.401 42.2398 31.401L39.6998 31.3876ZM57.3729 38.7409L57.6996 37.8742H60.0196L60.3462 38.7342C60.5396 39.2409 61.0995 39.4942 61.6062 39.3009C62.1129 39.1075 62.3662 38.5475 62.1729 38.0409L59.9129 32.0476C59.7462 31.6143 59.3329 31.3343 58.8729 31.3343C58.4129 31.3343 57.9996 31.6143 57.8329 32.0476L55.5463 38.0409C55.353 38.5475 55.6063 39.1075 56.1129 39.3009C56.6063 39.4942 57.1796 39.2475 57.3729 38.7409ZM58.8662 34.8143L59.2862 35.9209H58.4462L58.8662 34.8143ZM28.6 38.3942V32.3143C28.6 31.7743 28.16 31.341 27.6267 31.341C27.0867 31.341 26.6533 31.781 26.6533 32.3143V38.3942C26.6533 38.9342 27.0933 39.3675 27.6267 39.3675C28.16 39.3675 28.6 38.9275 28.6 38.3942ZM24.8 19.5211C24.8 21.4411 26.36 22.9944 28.28 22.9944C30.2 22.9944 31.7599 21.4344 31.7599 19.5211C31.7599 17.6012 30.2 16.0412 28.28 16.0412C26.36 16.0412 24.8 17.6012 24.8 19.5211ZM29.8 19.5211C29.8 20.3611 29.1133 21.0478 28.2733 21.0478C27.4333 21.0478 26.7467 20.3611 26.7467 19.5211C26.7467 18.6811 27.4333 17.9945 28.2733 17.9945C29.1133 17.9945 29.8 18.6811 29.8 19.5211ZM55.1863 19.5211C55.1863 17.6012 53.6263 16.0412 51.7063 16.0412C49.7864 16.0412 48.2264 17.6012 48.2264 19.5211C48.2264 21.4411 49.7864 22.9944 51.7063 22.9944C53.6263 22.9944 55.1863 21.4344 55.1863 19.5211ZM50.1864 19.5211C50.1864 18.6811 50.873 17.9945 51.713 17.9945C52.553 17.9945 53.2396 18.6811 53.2396 19.5211C53.2396 20.3611 52.553 21.0478 51.713 21.0478C50.873 21.0411 50.1864 20.3611 50.1864 19.5211ZM45.9664 39.3075C46.4931 39.4009 47.0064 39.0475 47.0997 38.5209L47.5397 36.0809L48.2731 38.5742C48.4131 39.0475 48.8464 39.3675 49.3397 39.3675H49.3464C49.8397 39.3675 50.273 39.0409 50.413 38.5609L51.1197 36.0676L51.5863 38.5209C51.6863 39.0475 52.1997 39.4009 52.7263 39.2942C53.253 39.1942 53.6063 38.6809 53.4996 38.1542L52.3663 32.221C52.2663 31.7276 51.8397 31.361 51.3397 31.3343C50.8397 31.3076 50.373 31.621 50.2197 32.101C50.213 32.1343 49.333 35.2076 49.3264 35.2409C49.313 35.2076 48.4064 32.121 48.3997 32.0943C48.2397 31.6143 47.7731 31.3076 47.2664 31.341C46.7597 31.3743 46.3397 31.7476 46.2464 32.2543L45.1798 38.1742C45.0864 38.7009 45.4398 39.2075 45.9664 39.3075ZM31.2399 31.3876C30.8333 31.5143 30.5533 31.8943 30.5533 32.321V38.3942C30.5533 38.9342 30.9933 39.3675 31.5266 39.3675C32.0599 39.3675 32.4999 38.9275 32.4999 38.3942V35.4543L34.8266 38.8209C35.1066 39.2209 35.5732 39.3942 36.0199 39.2542C36.4732 39.1142 36.7665 38.6942 36.7665 38.1809L36.7065 32.301C36.6999 31.761 36.2665 31.3276 35.7199 31.3343C35.1799 31.341 34.7466 31.781 34.7532 32.321L34.7799 35.3209L32.3266 31.7676C32.0866 31.4143 31.6466 31.261 31.2399 31.3876ZM36.5532 22.7078C37.0599 23.0744 37.7199 23.1211 38.2732 22.8344L39.9932 21.9278L41.7131 22.8344C42.2665 23.1278 42.9265 23.0811 43.4331 22.7078C43.9398 22.3411 44.1864 21.7278 44.0864 21.1078L43.7598 19.1878L45.1531 17.8278C45.5998 17.3878 45.7598 16.7478 45.5664 16.1545C45.3731 15.5612 44.8664 15.1345 44.2464 15.0412L42.3198 14.7612L41.4598 13.0146C41.1798 12.4546 40.6198 12.1012 39.9932 12.1012C39.3665 12.1012 38.8065 12.4479 38.5265 13.0146L37.6665 14.7612L35.7399 15.0412C35.1199 15.1345 34.6132 15.5545 34.4199 16.1545C34.2266 16.7478 34.3866 17.3945 34.8332 17.8278L36.2265 19.1878L35.8999 21.1078C35.7932 21.7278 36.0399 22.3411 36.5532 22.7078ZM38.1132 16.6745C38.6465 16.5945 39.1065 16.2612 39.3465 15.7812L39.9932 14.4679L40.6398 15.7812C40.8798 16.2612 41.3398 16.5945 41.8731 16.6745L43.3265 16.8878L42.2731 17.9145C41.8865 18.2878 41.7131 18.8278 41.7998 19.3611L42.0465 20.8078L40.7465 20.1278C40.5065 20.0011 40.2465 19.9411 39.9865 19.9411C39.7265 19.9411 39.4665 20.0011 39.2265 20.1278L37.9332 20.8011L38.1798 19.3545C38.2732 18.8211 38.0932 18.2811 37.7132 17.9078L36.6599 16.8812L38.1132 16.6745Z" fill="#FE8258"/>
</g>
<defs>
<clipPath id="clip0_5673_1654">
<rect width="80" height="80" fill="white"/>
</clipPath>
</defs>
</svg>
