<svg width="80" height="80" viewBox="0 0 80 80" fill="none" xmlns="http://www.w3.org/2000/svg">
<g clip-path="url(#clip0_5673_501)">
<path d="M71.4944 34.7032L60.7196 25.6447V13.8403C60.7196 13.1 60.1196 12.4943 59.3861 12.4943H53.1053C52.3652 12.4943 51.7718 13.1 51.7718 13.8403L51.7785 18.1273L43.6974 11.33C41.5904 9.56003 38.4167 9.5533 36.3164 11.33L8.51275 34.7032C7.3926 35.6454 6.73918 36.9443 6.6725 38.3711C6.60583 39.7911 7.13256 41.1438 8.16603 42.2004C9.21951 43.2503 10.693 43.8493 12.2132 43.8493C13.5934 43.8493 14.9069 43.3782 15.9137 42.5168L16.5671 41.9649V69.7732C16.5871 71.025 17.3139 72.1421 18.5007 72.7546C19.2275 73.1382 20.0343 73.3333 20.9144 73.3333H59.1061C59.9862 73.3333 60.793 73.1382 61.5131 72.7613C62.6866 72.1556 63.4133 71.0451 63.46 69.7463V62.0337C63.46 61.2799 62.9266 60.6002 62.1865 60.5262C61.333 60.4387 60.6196 61.1117 60.6196 61.9529V69.6924C60.6063 69.9683 60.3396 70.1433 60.2129 70.2039C59.8929 70.3722 59.5395 70.4529 59.1194 70.4529H20.9077C20.4877 70.4529 20.1276 70.3721 19.8009 70.1972C19.6809 70.1366 19.4075 69.9683 19.4075 69.7395V39.8786C19.4075 39.6767 19.4942 39.4883 19.6476 39.3604L39.1435 22.946C39.6369 22.5287 40.3569 22.5287 40.8503 22.946L60.3596 39.3604C60.5129 39.4883 60.5996 39.6767 60.5996 39.8786V53.6078C60.5996 54.3615 61.133 55.0412 61.8731 55.122C62.7266 55.2095 63.44 54.5365 63.44 53.6953V41.9649L64.0934 42.5168C66.3337 44.3944 69.8075 44.2464 71.8278 42.187C72.8612 41.1506 73.3946 39.7911 73.328 38.3711C73.268 36.9511 72.6145 35.6522 71.4944 34.7032ZM54.7722 15.1863H57.7192C57.9059 15.1863 58.0526 15.3344 58.0526 15.5228V23.4036L54.4455 20.3684L54.4388 15.5228C54.4388 15.3344 54.5855 15.1863 54.7722 15.1863ZM69.8142 40.1613C68.814 41.1775 67.0338 41.2448 65.9203 40.3093L40.8503 19.2176C40.3569 18.8003 39.6369 18.8003 39.1435 19.2176L14.0801 40.316C13.5801 40.74 12.92 40.9756 12.2132 40.9756C11.4398 40.9756 10.693 40.6727 10.173 40.1613C9.71957 39.6969 9.48621 39.1114 9.51288 38.5057C9.53955 37.9 9.83292 37.3347 10.333 36.9107L38.1367 13.5307C38.6567 13.0865 39.3301 12.8712 40.0036 12.8712C40.677 12.8712 41.3504 13.0933 41.8705 13.5374L69.6741 36.9107C70.1742 37.3279 70.4676 37.8933 70.4943 38.5057C70.5143 39.1114 70.2809 39.6969 69.8142 40.1613ZM30.8357 63.9114H49.1048C49.8382 63.9114 50.4383 63.3057 50.4383 62.5654V43.9974C50.4383 43.2571 49.8382 42.6514 49.1048 42.6514H30.8357C30.1023 42.6514 29.5022 43.2571 29.5022 43.9974V62.5654C29.5022 63.3124 30.1023 63.9114 30.8357 63.9114ZM47.2579 61.0377H41.6705C41.4838 61.0377 41.3371 60.8896 41.3371 60.7012L41.3237 54.9605C41.3237 54.772 41.4704 54.624 41.6571 54.624L47.2579 54.6105C47.4445 54.6105 47.5912 54.7586 47.5912 54.947V60.7012C47.5912 60.8896 47.4445 61.0377 47.2579 61.0377ZM47.5912 45.8616V51.5888C47.5912 51.7772 47.4445 51.9253 47.2579 51.9253L41.6505 51.9387C41.4638 51.9387 41.3171 51.7907 41.3171 51.6022L41.3037 45.8683C41.3037 45.6798 41.4504 45.5318 41.6371 45.5318H47.2512C47.4445 45.5251 47.5912 45.6731 47.5912 45.8616ZM32.6826 45.5251H38.31C38.4967 45.5251 38.6434 45.6731 38.6434 45.8616L38.6567 51.6022C38.6567 51.7907 38.51 51.9387 38.3233 51.9387L32.6893 51.9522C32.5026 51.9522 32.3559 51.8041 32.3559 51.6157V45.8616C32.3492 45.6731 32.4959 45.5251 32.6826 45.5251ZM32.6826 54.6442L38.3233 54.6307C38.51 54.6307 38.6567 54.7788 38.6567 54.9672L38.6701 60.7012C38.6701 60.8896 38.5234 61.0377 38.3367 61.0377H32.6826C32.4959 61.0377 32.3492 60.8896 32.3492 60.7012V54.9739C32.3492 54.7922 32.4959 54.6442 32.6826 54.6442ZM63.64 57.8342C63.64 58.736 62.9133 59.4696 62.0198 59.4696C61.1264 59.4696 60.3996 58.736 60.3996 57.8342C60.3996 56.9324 61.1264 56.1988 62.0198 56.1988C62.9133 56.2055 63.64 56.9324 63.64 57.8342Z" fill="#FFF2EE"/>
</g>
<defs>
<clipPath id="clip0_5673_501">
<rect width="80" height="80" fill="white"/>
</clipPath>
</defs>
</svg>
