<svg width="80" height="80" viewBox="0 0 80 80" fill="none" xmlns="http://www.w3.org/2000/svg">
<g clip-path="url(#clip0_5673_1609)">
<path d="M62.9997 68.4655H51.2909V53.9135C51.2909 53.7455 51.4229 53.6136 51.5908 53.6136H62.6998C62.8678 53.6136 62.9997 53.7455 62.9997 53.9135V68.4655ZM49.5754 51.1123C49.0835 51.2862 48.7176 51.7481 48.7176 52.2879V68.4595H45.2925V44.766C45.2925 44.598 45.4245 44.4661 45.5925 44.4661H51.8488C52.0167 44.4661 52.1487 44.598 52.1487 44.766V51.0343H50.0073C49.8573 51.0403 49.7073 51.0643 49.5754 51.1123ZM43.0072 43.1224V68.4595H38.7243V30.6278C38.7243 29.914 38.1365 29.3262 37.4227 29.3262H36.151V19.6328C36.151 19.4648 36.283 19.3329 36.4509 19.3329H46.7082C46.8761 19.3329 47.0081 19.4648 47.0081 19.6328V41.8988H44.1768C43.481 41.8988 43.0072 42.4386 43.0072 43.1224ZM36.151 68.4655H27.8673V32.1994C27.8673 32.0314 27.9992 31.8995 28.1672 31.8995H35.8511C36.0191 31.8995 36.151 32.0314 36.151 32.1994V68.4655ZM25.294 68.4655H18.7257V45.6297C18.7257 45.4618 18.8577 45.3298 19.0257 45.3298H24.994C25.162 45.3298 25.294 45.4618 25.294 45.6297V68.4655ZM68.7462 68.4655H65.2851V52.2939C65.2851 51.6041 64.8532 51.0403 64.1634 51.0403H54.716V43.1224C54.716 42.4326 54.0262 41.8988 53.3364 41.8988H49.5754V18.1332C49.5754 17.4434 49.0295 16.7596 48.3337 16.7596H43.0012V5.90253C43.0012 5.29069 42.4073 4.79883 41.7175 4.79883C41.0277 4.79883 40.4339 5.29069 40.4339 5.90253V16.7596H35.0053C34.3155 16.7596 33.8656 17.4374 33.8656 18.1332V29.3322H26.6736C25.9838 29.3322 25.294 29.938 25.294 30.6338V42.7625H17.5081C16.8183 42.7625 16.1524 43.2724 16.1524 43.9622V68.4655H11.2638C10.574 68.4655 10.0161 69.0594 10.0161 69.7492C10.0161 70.439 10.574 71.0328 11.2638 71.0328H68.7522C69.442 71.0328 69.9998 70.439 69.9998 69.7492C69.9938 69.0594 69.436 68.4655 68.7462 68.4655Z" fill="#FE8258"/>
</g>
<defs>
<clipPath id="clip0_5673_1609">
<rect width="80" height="80" fill="white"/>
</clipPath>
</defs>
</svg>
