<svg width="69" height="80" viewBox="0 0 69 80" fill="none" xmlns="http://www.w3.org/2000/svg">
<g clip-path="url(#clip0_5673_1545)">
<path d="M54.6492 68.023H25.5866C24.8797 68.023 24.3062 67.4362 24.3062 66.7293C24.3062 66.0224 24.8797 65.4355 25.5866 65.4355H54.6559C55.3628 65.4355 55.9363 66.0224 55.9363 66.7293C55.9296 67.4295 55.3561 68.023 54.6492 68.023Z" fill="#FE8258"/>
<path d="M59.7787 73.1988H20.4528C19.7459 73.1988 19.1724 72.612 19.1724 71.9051C19.1724 71.1982 19.7459 70.6113 20.4528 70.6113H59.7787C60.4856 70.6113 61.0591 71.1982 61.0591 71.9051C61.0658 72.612 60.4856 73.1988 59.7787 73.1988Z" fill="#FE8258"/>
<path d="M65.6452 60.526H63.0777V40.0061H65.6452V60.526ZM60.5169 60.526H57.0958V40.0061H60.5169V60.526ZM54.5283 60.526H51.1072V40.0061H54.5283V60.526ZM48.5464 60.526H46.5458V50.0694C46.5458 46.735 43.9583 44.0341 40.7639 44.0341H40.6772C37.4895 44.0341 34.8954 46.735 34.8954 50.0694V60.526H31.4409V40.0061H48.5397V60.526H48.5464ZM43.9783 60.526H37.4695V50.0694C37.4695 48.1554 38.9033 46.6016 40.6839 46.6016H40.7706C42.5378 46.6016 43.9849 48.1554 43.9849 50.0694V60.526H43.9783ZM28.8868 60.526H25.4657V40.0061H28.8868V60.526ZM22.8982 60.526H19.4771V40.0061H22.8982V60.526ZM16.9163 60.526H14.3488V40.0061H16.9163V60.526ZM70.0133 60.526H68.206V40.0061H69.9132C70.6201 40.0061 71.1937 39.4326 71.1937 38.7257C71.1937 38.0188 70.6201 37.4453 69.9132 37.4453H10.0741C9.3672 37.4453 8.79368 38.0188 8.79368 38.7257C8.79368 39.4326 9.3672 40.0061 10.0741 40.0061H11.7813V60.526H10.3675L6.65967 66.1945V72.4965C6.65967 73.2034 7.23318 73.7769 7.94008 73.7769C8.64697 73.7769 9.22049 73.2034 9.22049 72.4965V66.9548L11.7613 63.0935H68.4394L70.7735 67.6483V72.4965C70.7735 73.2034 71.347 73.7769 72.0539 73.7769C72.7608 73.7769 73.3343 73.2034 73.3343 72.4965V67.0281L70.0133 60.526Z" fill="#FE8258"/>
<path d="M69.585 33.7508H10.5995C9.89261 33.7508 9.31909 33.304 9.31909 32.5971C9.31909 31.8902 9.89261 31.4434 10.5995 31.4434H69.585C70.2919 31.4434 70.8654 31.8902 70.8654 32.5971C70.8654 33.304 70.2919 33.7508 69.585 33.7508Z" fill="#FE8258"/>
<path d="M41.2773 10.9466H47.2592V13.5141H41.2773V10.9466ZM66.9589 27.1184L41.264 18.7091V16.0749H49.8267V8.25238H41.2773C41.2773 7.41211 40.7038 6.67188 39.9969 6.67188C39.29 6.67188 38.7498 7.41211 38.7498 8.25238V18.7091L13.5885 27.1184C12.9216 27.3385 12.5548 28.0654 12.7749 28.7323C12.9949 29.4058 13.7152 29.7726 14.3887 29.5525L40.277 20.9965L66.152 29.5525C66.8322 29.7659 67.5524 29.4058 67.7791 28.7323C68.0059 28.0721 67.6391 27.3452 66.9589 27.1184Z" fill="#FE8258"/>
</g>
<defs>
<clipPath id="clip0_5673_1545">
<rect width="80" height="80" fill="white"/>
</clipPath>
</defs>
</svg>
