<svg width="80" height="80" viewBox="0 0 80 80" fill="none" xmlns="http://www.w3.org/2000/svg">
<g clip-path="url(#clip0_5673_1632)">
<path d="M69.0108 52.2799C68.4712 52.2799 68.0316 52.7013 68.0316 53.2183V67.8175C68.0316 67.9962 67.8851 68.1367 67.6986 68.1367H47.9098V50.4287C47.9098 49.2222 46.8907 48.2456 45.6318 48.2456H34.3553C33.0964 48.2456 32.0773 49.2222 32.0773 50.4287V68.1367H12.2885C12.102 68.1367 11.9554 67.9962 11.9554 67.8175V53.2119C11.9554 52.6949 11.5158 52.2736 10.9763 52.2736C10.4368 52.2736 9.99721 52.6949 9.99721 53.2119V68.5644C9.99721 69.3559 10.6699 70.0007 11.4959 70.0007H68.4912C69.3172 70.0007 69.9899 69.3559 69.9899 68.5644V53.2119C69.9899 52.7013 69.5503 52.2799 69.0108 52.2799ZM34.0289 68.1303V50.4287C34.0289 50.2564 34.1754 50.1095 34.3619 50.1095H45.6251C45.8116 50.1095 45.9582 50.25 45.9582 50.4287V68.1303H34.0289ZM64.3749 64.4342C65.5206 64.4342 66.4531 63.5405 66.4531 62.4425V52.2289C66.4531 51.1309 65.5206 50.2372 64.3749 50.2372H52.2925C51.1468 50.2372 50.2144 51.1309 50.2144 52.2289V62.4425C50.2144 63.5405 51.1468 64.4342 52.2925 64.4342H64.3749ZM52.1659 62.2447V52.4332C52.1659 52.2544 52.3125 52.114 52.499 52.114H64.1685C64.3483 52.114 64.5015 52.2544 64.5015 52.4332V62.2447C64.5015 62.4234 64.355 62.5638 64.1685 62.5638H52.499C52.3125 62.5638 52.1659 62.4234 52.1659 62.2447ZM27.6946 64.4342C28.8402 64.4342 29.7727 63.5405 29.7727 62.4425V52.2289C29.7727 51.1309 28.8402 50.2372 27.6946 50.2372H15.6122C14.4665 50.2372 13.534 51.1309 13.534 52.2289V62.4425C13.534 63.5405 14.4665 64.4342 15.6122 64.4342H27.6946ZM15.4856 62.2447V52.4332C15.4856 52.2544 15.6321 52.114 15.8186 52.114H27.4881C27.6746 52.114 27.8212 52.2544 27.8212 52.4332V62.2447C27.8212 62.4234 27.6746 62.5638 27.4881 62.5638H15.8186C15.6388 62.5638 15.4856 62.4234 15.4856 62.2447ZM70.4495 27.1224C70.4495 26.133 71.2821 25.3223 72.3145 25.3095C72.8673 25.3031 73.3202 24.901 73.3202 24.3775V22.3412C73.3202 21.5687 72.8806 21.1474 72.3411 21.1474H56.2223C55.6828 21.1474 55.2432 21.5687 55.2432 22.0858C55.2432 22.6029 55.6828 23.0242 56.2223 23.0242H71.362V23.5604C70.0232 23.8987 68.9708 24.9073 68.6178 26.1904H53.2583V17.8854C53.2583 15.3703 51.1335 13.334 48.5092 13.334H31.4779C28.8536 13.334 26.7288 15.3703 26.7288 17.8854V21.1538H7.64599C7.10647 21.1538 6.66687 21.5751 6.66687 22.0922V24.3839C6.66687 24.9137 7.11979 25.3095 7.67263 25.3223C8.70503 25.335 9.53762 26.1457 9.53762 27.1352C9.53762 27.4735 9.72412 27.7672 10.0039 27.9331V34.3167H8.24545C7.41953 34.3167 6.7468 34.9614 6.7468 35.753V40.847C6.7468 41.6386 7.41953 42.2833 8.24545 42.2833H10.0039V49.484C10.0039 50.001 10.4435 50.4223 10.983 50.4223C11.5225 50.4223 11.9621 50.001 11.9621 49.484V42.6025C11.9621 42.4238 12.1086 42.2833 12.2951 42.2833H67.7852C67.9717 42.2833 68.1182 42.4238 68.1182 42.6025V49.484C68.1182 50.001 68.5578 50.4223 69.0974 50.4223C69.6369 50.4223 70.0765 50.001 70.0765 49.484V42.2833H71.8349C72.6608 42.2833 73.3335 41.6386 73.3335 40.847V35.753C73.3335 34.9614 72.6608 34.3167 71.8349 34.3167H70.0765V27.8693C70.2963 27.6969 70.4495 27.4288 70.4495 27.1224ZM28.6804 17.8854C28.6804 16.4045 29.9326 15.2044 31.4779 15.2044H48.5159C50.0612 15.2044 51.3134 16.4045 51.3134 17.8854V28.0927C51.3134 29.5737 50.0612 30.7738 48.5159 30.7738H31.4779C29.9326 30.7738 28.6804 29.5737 28.6804 28.0927V17.8854ZM71.0356 40.4066H9.03807C8.85157 40.4066 8.70503 40.2661 8.70503 40.0874V36.5062C8.70503 36.3275 8.85157 36.187 9.03807 36.187H71.0356C71.2221 36.187 71.3686 36.3275 71.3686 36.5062V40.0874C71.3686 40.2661 71.2155 40.4066 71.0356 40.4066ZM11.9554 34.3167V28.38C11.9554 28.2012 12.102 28.0608 12.2885 28.0608H23.7981C24.3376 28.0608 24.7772 27.6395 24.7772 27.1224C24.7772 26.6054 24.3376 26.184 23.7981 26.184H11.6091C11.4626 26.184 11.3427 26.0947 11.296 25.9606C10.8897 24.7861 9.87731 23.8732 8.62511 23.554V23.0178H26.7288V28.0863C26.7288 30.6015 28.8536 32.6378 31.4779 32.6378H48.5159C51.1402 32.6378 53.2649 30.6015 53.2649 28.0863V28.0608H67.7785C67.965 28.0608 68.1116 28.2012 68.1116 28.38V34.3167H11.9554ZM36.2203 58.1847H35.441C34.9015 58.1847 34.4619 58.606 34.4619 59.1231C34.4619 59.6402 34.9015 60.0615 35.441 60.0615H36.2203C36.7598 60.0615 37.1994 59.6402 37.1994 59.1231C37.1927 58.606 36.7598 58.1847 36.2203 58.1847ZM33.0032 18.9323H34.2021L35.4277 24.5562C35.6674 25.6478 36.6799 26.4394 37.8455 26.4394H43.6403C44.6593 26.4394 45.5918 25.8266 45.9515 24.9073L47.8631 20.0495C48.043 19.5899 47.9764 19.0664 47.6833 18.6642C47.3902 18.2557 46.904 18.0131 46.3911 18.0131H38.1918C37.6523 18.0131 37.2127 18.4344 37.2127 18.9515C37.2127 19.4686 37.6523 19.8899 38.1918 19.8899H45.8383L44.1198 24.2498C44.0466 24.4413 43.8534 24.569 43.6403 24.569H37.8455C37.6057 24.569 37.3926 24.403 37.3393 24.1732L36.107 18.5302C35.9205 17.6812 35.1279 17.062 34.2221 17.062H33.0032C32.4637 17.062 32.024 17.4833 32.024 18.0004C32.024 18.5174 32.4637 18.9323 33.0032 18.9323ZM38.012 27.2246H37.7522C37.2127 27.2246 36.7731 27.6459 36.7731 28.1629C36.7731 28.68 37.2127 29.1013 37.7522 29.1013H38.012C38.5515 29.1013 38.9911 28.68 38.9911 28.1629C38.9845 27.6459 38.5515 27.2246 38.012 27.2246ZM42.2415 27.2246H41.9818C41.4422 27.2246 41.0026 27.6459 41.0026 28.1629C41.0026 28.68 41.4422 29.1013 41.9818 29.1013H42.2415C42.781 29.1013 43.2206 28.68 43.2206 28.1629C43.214 27.6459 42.781 27.2246 42.2415 27.2246Z" fill="#FE8258"/>
</g>
<defs>
<clipPath id="clip0_5673_1632">
<rect width="80" height="80" fill="white"/>
</clipPath>
</defs>
</svg>
