<svg width="57" height="40" viewBox="0 0 57 40" fill="none" xmlns="http://www.w3.org/2000/svg">
<path d="M53.6385 5.92896C53.1618 5.9348 52.6943 6.06164 52.2787 6.29782C51.8632 6.53399 51.5129 6.87194 51.26 7.28066H20.9768C19.4836 7.28066 18.0516 7.88064 16.9957 8.94862C15.9399 10.0166 15.3467 11.4651 15.3467 12.9754C15.3467 14.4858 15.9399 15.9343 16.9957 17.0022C18.0516 18.0702 19.4836 18.6702 20.9768 18.6702H35.9616C38.1272 18.723 40.1864 19.6303 41.6995 21.1981C43.2126 22.7659 44.0597 24.8701 44.0597 27.0611C44.0597 29.2521 43.2126 31.3562 41.6995 32.9241C40.1864 34.4919 38.1272 35.3991 35.9616 35.4519H18.4102C18.1563 35.0505 17.8079 34.7191 17.3961 34.4874C16.9843 34.2558 16.5222 34.1311 16.0511 34.1246C15.2833 34.1246 14.5471 34.4331 14.0042 34.9822C13.4613 35.5313 13.1564 36.276 13.1564 37.0525C13.1564 37.8291 13.4613 38.5738 14.0042 39.1229C14.5471 39.672 15.2833 39.9804 16.0511 39.9804C16.4667 39.9765 16.8765 39.8805 17.2515 39.6993C17.6266 39.518 17.9579 39.2559 18.2221 38.9313H35.9616C39.0342 38.8683 41.9598 37.5895 44.1107 35.3693C46.2617 33.1492 47.4664 30.1646 47.4664 27.0562C47.4664 23.9478 46.2617 20.9632 44.1107 18.7431C41.9598 16.5229 39.0342 15.2441 35.9616 15.1811H20.9768C20.3972 15.1811 19.8413 14.9482 19.4315 14.5337C19.0216 14.1191 18.7914 13.5568 18.7914 12.9706C18.7914 12.3843 19.0216 11.822 19.4315 11.4074C19.8413 10.9929 20.3972 10.76 20.9768 10.76H51.482C51.7473 11.0778 52.0773 11.3338 52.4495 11.5107C52.8217 11.6876 53.2273 11.781 53.6385 11.7848C54.4062 11.7848 55.1425 11.4763 55.6853 10.9272C56.2282 10.3781 56.5332 9.63338 56.5332 8.85685C56.5332 8.08033 56.2282 7.3356 55.6853 6.78651C55.1425 6.23743 54.4062 5.92896 53.6385 5.92896ZM16.0511 38.0822C15.8497 38.0822 15.6529 38.0218 15.4855 37.9086C15.3181 37.7955 15.1876 37.6347 15.1106 37.4466C15.0335 37.2584 15.0134 37.0514 15.0527 36.8517C15.0919 36.6519 15.1889 36.4685 15.3312 36.3245C15.4736 36.1805 15.655 36.0824 15.8525 36.0427C16.0499 36.0029 16.2546 36.0233 16.4406 36.1013C16.6266 36.1792 16.7856 36.3112 16.8975 36.4805C17.0093 36.6498 17.069 36.8489 17.069 37.0525C17.0716 37.1891 17.0471 37.3249 16.9971 37.4518C16.947 37.5787 16.8723 37.6942 16.7775 37.7915C16.6827 37.8889 16.5695 37.966 16.4448 38.0184C16.32 38.0708 16.1861 38.0975 16.0511 38.0968V38.0822ZM53.6385 9.88649C53.4372 9.88649 53.2403 9.82611 53.0729 9.71297C52.9055 9.59983 52.7751 9.43903 52.698 9.25088C52.621 9.06274 52.6008 8.85571 52.6401 8.65598C52.6794 8.45624 52.7763 8.27278 52.9187 8.12878C53.0611 7.98478 53.2424 7.88672 53.4399 7.84699C53.6374 7.80726 53.842 7.82766 54.028 7.90559C54.2141 7.98353 54.3731 8.1155 54.4849 8.28482C54.5968 8.45414 54.6565 8.65321 54.6565 8.85685C54.6584 8.9933 54.6335 9.12876 54.5832 9.25538C54.5329 9.382 54.4582 9.49723 54.3635 9.5944C54.2688 9.69157 54.1559 9.76873 54.0314 9.82138C53.907 9.87404 53.7734 9.90116 53.6385 9.90115V9.88649Z" fill="#1A7DD8"/>
<path d="M35.5563 32.7049C37.0496 32.7049 38.4816 32.1049 39.5375 31.0369C40.5933 29.969 41.1865 28.5205 41.1865 27.0101C41.1865 25.4998 40.5933 24.0513 39.5375 22.9833C38.4816 21.9153 37.0496 21.3154 35.5563 21.3154H20.5522C18.3867 21.2625 16.3275 20.3553 14.8144 18.7875C13.3013 17.2196 12.4542 15.1155 12.4542 12.9245C12.4542 10.7335 13.3013 8.62935 14.8144 7.06151C16.3275 5.49367 18.3867 4.58645 20.5522 4.53363H38.1037C38.3576 4.93508 38.706 5.2665 39.1178 5.49816C39.5295 5.72982 39.9917 5.85446 40.4628 5.86093C41.2305 5.86093 41.9668 5.55246 42.5097 5.00337C43.0525 4.45428 43.3575 3.70955 43.3575 2.93303C43.3575 2.1565 43.0525 1.41179 42.5097 0.862702C41.9668 0.313614 41.2305 0.00512695 40.4628 0.00512695C40.0502 0.0118815 39.6439 0.108692 39.2717 0.288925C38.8996 0.469158 38.5702 0.728569 38.3063 1.04942H20.5522C17.4797 1.11242 14.5541 2.39123 12.4031 4.61138C10.2522 6.83153 9.04749 9.81607 9.04749 12.9245C9.04749 16.0329 10.2522 19.0175 12.4031 21.2376C14.5541 23.4578 17.4797 24.7366 20.5522 24.7996H35.5563C36.136 24.7996 36.6919 25.0325 37.1017 25.447C37.5116 25.8616 37.7418 26.4239 37.7418 27.0101C37.7418 27.5964 37.5116 28.1587 37.1017 28.5732C36.6919 28.9878 36.136 29.2207 35.5563 29.2207H5.05122C4.78589 28.9029 4.45584 28.6469 4.08365 28.47C3.71145 28.2931 3.30589 28.1996 2.89468 28.1959C2.12696 28.1959 1.3907 28.5044 0.847838 29.0535C0.30498 29.6026 0 30.3473 0 31.1238C0 31.9004 0.30498 32.6451 0.847838 33.1942C1.3907 33.7433 2.12696 34.0517 2.89468 34.0517C3.37159 34.0445 3.83912 33.9165 4.25458 33.6796C4.67005 33.4426 5.02022 33.1042 5.27315 32.6951L35.5563 32.7049ZM40.4821 1.90339C40.6835 1.90339 40.8803 1.96377 41.0477 2.07691C41.2151 2.19005 41.3456 2.35087 41.4226 2.53901C41.4996 2.72716 41.5198 2.93418 41.4805 3.13391C41.4413 3.33364 41.3443 3.5171 41.2019 3.6611C41.0596 3.8051 40.8782 3.90316 40.6807 3.94289C40.4833 3.98262 40.2786 3.96223 40.0926 3.8843C39.9066 3.80637 39.7476 3.6744 39.6357 3.50508C39.5239 3.33575 39.4642 3.13667 39.4642 2.93303C39.4642 2.65995 39.5714 2.39806 39.7623 2.20497C39.9532 2.01187 40.2121 1.90339 40.4821 1.90339ZM2.89468 32.1584C2.69335 32.1584 2.49654 32.098 2.32914 31.9848C2.16173 31.8717 2.03125 31.7109 1.95421 31.5227C1.87716 31.3346 1.857 31.1276 1.89628 30.9278C1.93556 30.7281 2.03251 30.5446 2.17488 30.4007C2.31724 30.2567 2.49862 30.1586 2.69609 30.1189C2.89355 30.0791 3.09823 30.0995 3.28424 30.1774C3.47025 30.2554 3.62924 30.3874 3.74109 30.5567C3.85295 30.726 3.91265 30.9251 3.91265 31.1287C3.91138 31.4014 3.80372 31.6625 3.61309 31.8554C3.42246 32.0482 3.16427 32.1571 2.89468 32.1584Z" fill="#1A7DD8"/>
</svg>
