<svg width="101" height="100" viewBox="0 0 101 100" fill="none" xmlns="http://www.w3.org/2000/svg">
<g clip-path="url(#clip0_22109_10713)">
<path d="M62.8118 77.7324H38.2801C35.5585 77.7324 33.3333 75.5219 33.3333 72.8182V27.9142C33.3333 25.2105 35.5585 23 38.2801 23H62.8118C65.5519 23 67.7586 25.2105 67.7586 27.9142V72.8182C67.777 75.5219 65.5519 77.7324 62.8118 77.7324ZM38.2801 26.4162C37.4526 26.4162 36.7722 27.0921 36.7722 27.9142V72.8182C36.7722 73.6403 37.4526 74.3162 38.2801 74.3162H62.8118C63.6393 74.3162 64.3198 73.6403 64.3198 72.8182V27.9142C64.3198 27.0921 63.6393 26.4162 62.8118 26.4162H38.2801Z" fill="url(#paint0_linear_22109_10713)"/>
<path d="M59.6855 49.1373C59.2442 49.1373 58.8028 48.9729 58.4718 48.6441C56.357 46.5432 53.5434 45.3923 50.5643 45.3923C47.5668 45.3923 44.7716 46.5432 42.6568 48.6441C41.9764 49.3017 40.8914 49.3017 40.2294 48.6441C39.549 47.9681 39.549 46.8903 40.2294 46.2326C42.9878 43.4924 46.6657 41.9761 50.5827 41.9761C54.4997 41.9761 58.1592 43.4924 60.936 46.2326C61.6164 46.9086 61.6164 47.9864 60.936 48.6441C60.5682 48.9729 60.1269 49.1373 59.6855 49.1373Z" fill="url(#paint1_linear_22109_10713)"/>
<path d="M55.4189 53.3757C54.9776 53.3757 54.5362 53.2113 54.2052 52.8825C53.2306 51.9143 51.9249 51.3845 50.5457 51.3845C49.1665 51.3845 47.8608 51.9143 46.8862 52.8825C46.2242 53.5402 45.1208 53.5402 44.4588 52.8825C43.7967 52.2066 43.7967 51.1287 44.4588 50.471C46.077 48.8634 48.247 47.9683 50.5457 47.9683C52.8444 47.9683 55.0144 48.8634 56.6326 50.471C57.3131 51.147 57.3131 52.2248 56.6326 52.8825C56.3016 53.2113 55.8603 53.3757 55.4189 53.3757Z" fill="url(#paint2_linear_22109_10713)"/>
<path d="M50.5461 59.7744C49.1302 59.7744 47.9716 58.6234 47.9716 57.2168C47.9716 55.8101 49.1302 54.6592 50.5461 54.6592C51.9621 54.6592 53.1207 55.8101 53.1207 57.2168C53.1391 58.6234 51.9805 59.7744 50.5461 59.7744Z" fill="url(#paint3_linear_22109_10713)"/>
<path d="M54.0031 32.4081H47.107C46.1507 32.4081 45.3784 31.6408 45.3784 30.6909C45.3784 29.7409 46.1507 28.9736 47.107 28.9736H54.0031C54.9593 28.9736 55.7317 29.7409 55.7317 30.6909C55.7317 31.6408 54.941 32.4081 54.0031 32.4081Z" fill="url(#paint4_linear_22109_10713)"/>
</g>
<defs>
<linearGradient id="paint0_linear_22109_10713" x1="33.3333" y1="50.3662" x2="69.9147" y2="51.1115" gradientUnits="userSpaceOnUse">
<stop stop-color="#0091EF"/>
<stop offset="1" stop-color="#32D7D4"/>
</linearGradient>
<linearGradient id="paint1_linear_22109_10713" x1="39.7191" y1="45.5567" x2="62.5958" y2="47.8048" gradientUnits="userSpaceOnUse">
<stop stop-color="#0091EF"/>
<stop offset="1" stop-color="#32D7D4"/>
</linearGradient>
<linearGradient id="paint2_linear_22109_10713" x1="43.9622" y1="50.672" x2="57.8875" y2="51.7714" gradientUnits="userSpaceOnUse">
<stop stop-color="#0091EF"/>
<stop offset="1" stop-color="#32D7D4"/>
</linearGradient>
<linearGradient id="paint3_linear_22109_10713" x1="47.9716" y1="57.2168" x2="53.4399" y2="57.3951" gradientUnits="userSpaceOnUse">
<stop stop-color="#0091EF"/>
<stop offset="1" stop-color="#32D7D4"/>
</linearGradient>
<linearGradient id="paint4_linear_22109_10713" x1="45.3784" y1="30.6909" x2="56.2808" y2="31.7554" gradientUnits="userSpaceOnUse">
<stop stop-color="#0091EF"/>
<stop offset="1" stop-color="#32D7D4"/>
</linearGradient>
<clipPath id="clip0_22109_10713">
<rect width="34.4437" height="54.7324" fill="white" transform="translate(33.3333 23)"/>
</clipPath>
</defs>
</svg>
