<svg width="56" height="56" viewBox="0 0 56 56" fill="none" xmlns="http://www.w3.org/2000/svg">
<g clip-path="url(#clip0_21297_6423)">
<path d="M38.3778 36.159V29.2163H41.2706C40.9652 31.8198 39.9367 34.2144 38.3778 36.159ZM26.1637 41.3017V29.2163H29.0404V41.3017C28.5744 41.3499 28.0923 41.3821 27.6101 41.3821C27.1119 41.3821 26.6298 41.3499 26.1637 41.3017ZM13.9175 29.2163H16.8103V36.159C15.2675 34.2144 14.2229 31.8198 13.9175 29.2163ZM20.0567 29.2163H22.9334V40.5625C21.9209 40.1928 20.9567 39.7107 20.0567 39.1161V29.2163ZM35.1475 39.1161C34.2475 39.7107 33.2832 40.1928 32.2707 40.5625V29.2163H35.1475V39.1161ZM27.594 13.8201C34.6493 13.8201 40.467 19.1397 41.2706 25.986H13.9175C14.7211 19.1397 20.5549 13.8201 27.594 13.8201ZM27.594 10.5898C18.2085 10.5898 10.5908 18.2236 10.5908 27.5931C10.5908 36.9625 18.2246 44.5963 27.594 44.5963C36.9796 44.5963 44.5973 36.9625 44.5973 27.5931C44.5973 18.2236 36.9796 10.5898 27.594 10.5898Z" fill="url(#paint0_linear_21297_6423)"/>
<path d="M29.2176 0H25.9873V6.04273H29.2176V0Z" fill="url(#paint1_linear_21297_6423)"/>
<path d="M45.972 6.93421L41.6992 11.207L43.9834 13.4912L48.2562 9.21835L45.972 6.93421Z" fill="url(#paint2_linear_21297_6423)"/>
<path d="M55.2043 25.9863H49.1616V29.2166H55.2043V25.9863Z" fill="url(#paint3_linear_21297_6423)"/>
<path d="M43.9829 41.7081L41.6987 43.9922L45.9715 48.265L48.2557 45.9809L43.9829 41.7081Z" fill="url(#paint4_linear_21297_6423)"/>
<path d="M29.2176 49.1621H25.9873V55.2048H29.2176V49.1621Z" fill="url(#paint5_linear_21297_6423)"/>
<path d="M11.2093 41.6959L6.93652 45.9688L9.22066 48.2529L13.4935 43.9801L11.2093 41.6959Z" fill="url(#paint6_linear_21297_6423)"/>
<path d="M6.04273 25.9863H0V29.2166H6.04273V25.9863Z" fill="url(#paint7_linear_21297_6423)"/>
<path d="M9.22213 6.94438L6.93799 9.22852L11.2108 13.5013L13.4949 11.2172L9.22213 6.94438Z" fill="url(#paint8_linear_21297_6423)"/>
</g>
<defs>
<linearGradient id="paint0_linear_21297_6423" x1="10.5908" y1="27.5931" x2="46.7042" y2="28.7628" gradientUnits="userSpaceOnUse">
<stop stop-color="#0091EF"/>
<stop offset="1" stop-color="#32D7D4"/>
</linearGradient>
<linearGradient id="paint1_linear_21297_6423" x1="25.9873" y1="3.02137" x2="29.4203" y2="3.08081" gradientUnits="userSpaceOnUse">
<stop stop-color="#0091EF"/>
<stop offset="1" stop-color="#32D7D4"/>
</linearGradient>
<linearGradient id="paint2_linear_21297_6423" x1="42.8413" y1="12.3491" x2="47.6412" y2="8.09763" gradientUnits="userSpaceOnUse">
<stop stop-color="#0091EF"/>
<stop offset="1" stop-color="#32D7D4"/>
</linearGradient>
<linearGradient id="paint3_linear_21297_6423" x1="49.1616" y1="27.6015" x2="55.562" y2="27.9893" gradientUnits="userSpaceOnUse">
<stop stop-color="#0091EF"/>
<stop offset="1" stop-color="#32D7D4"/>
</linearGradient>
<linearGradient id="paint4_linear_21297_6423" x1="43.8351" y1="46.1286" x2="46.3046" y2="43.7432" gradientUnits="userSpaceOnUse">
<stop stop-color="#0091EF"/>
<stop offset="1" stop-color="#32D7D4"/>
</linearGradient>
<linearGradient id="paint5_linear_21297_6423" x1="25.9873" y1="52.1835" x2="29.4203" y2="52.2429" gradientUnits="userSpaceOnUse">
<stop stop-color="#0091EF"/>
<stop offset="1" stop-color="#32D7D4"/>
</linearGradient>
<linearGradient id="paint6_linear_21297_6423" x1="8.07859" y1="47.1108" x2="12.8785" y2="42.8593" gradientUnits="userSpaceOnUse">
<stop stop-color="#0091EF"/>
<stop offset="1" stop-color="#32D7D4"/>
</linearGradient>
<linearGradient id="paint7_linear_21297_6423" x1="-5.89153e-09" y1="27.6015" x2="6.40035" y2="27.9893" gradientUnits="userSpaceOnUse">
<stop stop-color="#0091EF"/>
<stop offset="1" stop-color="#32D7D4"/>
</linearGradient>
<linearGradient id="paint8_linear_21297_6423" x1="9.0744" y1="11.3649" x2="11.5439" y2="8.97948" gradientUnits="userSpaceOnUse">
<stop stop-color="#0091EF"/>
<stop offset="1" stop-color="#32D7D4"/>
</linearGradient>
<clipPath id="clip0_21297_6423">
<rect width="55.2042" height="55.2042" fill="white"/>
</clipPath>
</defs>
</svg>
