<svg width="35" height="55" viewBox="0 0 35 55" fill="none" xmlns="http://www.w3.org/2000/svg">
<path d="M29.4785 54.7324H4.94679C2.22514 54.7324 0 52.5219 0 49.8182V4.91422C0 2.21049 2.22514 0 4.94679 0H29.4785C32.2185 0 34.4253 2.21049 34.4253 4.91422V49.8182C34.4437 52.5219 32.2185 54.7324 29.4785 54.7324ZM4.94679 3.41621C4.11926 3.41621 3.43885 4.09214 3.43885 4.91422V49.8182C3.43885 50.6403 4.11926 51.3162 4.94679 51.3162H29.4785C30.306 51.3162 30.9864 50.6403 30.9864 49.8182V4.91422C30.9864 4.09214 30.306 3.41621 29.4785 3.41621H4.94679Z" fill="url(#paint0_linear_21297_6414)"/>
<path d="M26.3522 26.1378C25.9109 26.1378 25.4695 25.9734 25.1385 25.6446C23.0237 23.5437 20.2101 22.3928 17.231 22.3928C14.2335 22.3928 11.4383 23.5437 9.32348 25.6446C8.64306 26.3022 7.55808 26.3022 6.89605 25.6446C6.21564 24.9686 6.21564 23.8908 6.89605 23.2331C9.65449 20.4928 13.3324 18.9766 17.2494 18.9766C21.1664 18.9766 24.8259 20.4928 27.6027 23.2331C28.2831 23.9091 28.2831 24.9869 27.6027 25.6446C27.2349 25.9734 26.7936 26.1378 26.3522 26.1378Z" fill="url(#paint1_linear_21297_6414)"/>
<path d="M22.0856 30.3762C21.6443 30.3762 21.2029 30.2118 20.8719 29.883C19.8972 28.9147 18.5916 28.385 17.2124 28.385C15.8332 28.385 14.5275 28.9147 13.5528 29.883C12.8908 30.5406 11.7874 30.5406 11.1254 29.883C10.4634 29.207 10.4634 28.1292 11.1254 27.4715C12.7437 25.8639 14.9137 24.9688 17.2124 24.9688C19.5111 24.9688 21.681 25.8639 23.2993 27.4715C23.9797 28.1475 23.9797 29.2253 23.2993 29.883C22.9683 30.2118 22.527 30.3762 22.0856 30.3762Z" fill="url(#paint2_linear_21297_6414)"/>
<path d="M17.2127 36.7753C15.7967 36.7753 14.6382 35.6244 14.6382 34.2177C14.6382 32.8111 15.7967 31.6602 17.2127 31.6602C18.6287 31.6602 19.7873 32.8111 19.7873 34.2177C19.8057 35.6244 18.6471 36.7753 17.2127 36.7753Z" fill="url(#paint3_linear_21297_6414)"/>
<path d="M20.6696 9.40909H13.7735C12.8173 9.40909 12.0449 8.64181 12.0449 7.69185C12.0449 6.74189 12.8173 5.97461 13.7735 5.97461H20.6696C21.6259 5.97461 22.3982 6.74189 22.3982 7.69185C22.3982 8.64181 21.6075 9.40909 20.6696 9.40909Z" fill="url(#paint4_linear_21297_6414)"/>
<defs>
<linearGradient id="paint0_linear_21297_6414" x1="-3.3564e-08" y1="27.3662" x2="36.5814" y2="28.1115" gradientUnits="userSpaceOnUse">
<stop stop-color="#0091EF"/>
<stop offset="1" stop-color="#32D7D4"/>
</linearGradient>
<linearGradient id="paint1_linear_21297_6414" x1="6.38574" y1="22.5572" x2="29.2624" y2="24.8053" gradientUnits="userSpaceOnUse">
<stop stop-color="#0091EF"/>
<stop offset="1" stop-color="#32D7D4"/>
</linearGradient>
<linearGradient id="paint2_linear_21297_6414" x1="10.6289" y1="27.6725" x2="24.5541" y2="28.7719" gradientUnits="userSpaceOnUse">
<stop stop-color="#0091EF"/>
<stop offset="1" stop-color="#32D7D4"/>
</linearGradient>
<linearGradient id="paint3_linear_21297_6414" x1="14.6382" y1="34.2177" x2="20.1064" y2="34.396" gradientUnits="userSpaceOnUse">
<stop stop-color="#0091EF"/>
<stop offset="1" stop-color="#32D7D4"/>
</linearGradient>
<linearGradient id="paint4_linear_21297_6414" x1="12.0449" y1="7.69185" x2="22.9473" y2="8.75637" gradientUnits="userSpaceOnUse">
<stop stop-color="#0091EF"/>
<stop offset="1" stop-color="#32D7D4"/>
</linearGradient>
</defs>
</svg>
