<svg width="101" height="101" viewBox="0 0 101 101" fill="none" xmlns="http://www.w3.org/2000/svg">
<circle cx="50.5" cy="50.543" r="50" fill="#F3F9FF"/>
<path d="M23.5 37.5427H28.5C29.6046 37.5427 30.5 38.4382 30.5 39.5427V42.0427M23.5 57.5427H28.5002C29.6047 57.5427 30.5 56.6474 30.5 55.543V55.543M30.5 42.0427C33.3333 40.3761 39.7 37.1427 42.5 37.5427C45.3 37.9427 46 38.7096 46 39.043M30.5 42.0427V55.543M76 37.543L71.0001 37.5428C69.8955 37.5428 69 38.4384 69 39.543V39.543M76.5 57.543H71C69.8954 57.543 69 56.6475 69 55.543V39.543M69 39.543C66.3333 37.8763 59.9 34.543 55.5 34.543C50 34.543 42.5 40.043 44 43.543C44.8895 45.6185 48.7645 44.5254 52 43.0741M55 41.543C54.1807 42.0173 53.1293 42.5675 52 43.0741M52 43.0741L58.8115 51.8015C58.9365 51.9615 59.0364 52.1384 59.0974 52.332C59.3596 53.1643 59.9956 55.5975 59 57.0245M51.5 54.043L54.5 57.5427M54.5 57.5427C54.5 57.5427 56.5 59.043 58.5 57.543C58.7 57.393 58.865 57.218 59 57.0245M54.5 57.5427C54.5 57.5427 55.5 59.543 54 61.543C52.5 63.543 49.5 62.043 49.5 62.043M46.5 58.543L49.5 62.043M49.5 62.043C49.5 62.043 50 64.543 48.5 65.543C47.3758 66.2925 45.9706 65.9185 45.3372 65.6841C45.1104 65.6001 44.917 65.4532 44.7533 65.2753C42.6738 63.0159 38.7684 58.6956 38 57.543C37.2838 56.4686 35.9797 55.8485 35.2361 55.6108C35.0803 55.561 34.9173 55.543 34.7538 55.543H30.5M68.5 55.543C68 55.7096 66.4 56.143 64 56.543C61.6 56.943 59.6667 57.0306 59 57.0245" stroke="url(#paint0_linear_5314_78692)" stroke-width="1.6" stroke-linecap="round"/>
<defs>
<linearGradient id="paint0_linear_5314_78692" x1="88.4504" y1="-66.3132" x2="-13.4326" y2="-48.7837" gradientUnits="userSpaceOnUse">
<stop stop-color="#18D8F6"/>
<stop offset="1" stop-color="#1C45DF"/>
</linearGradient>
</defs>
</svg>
