<svg width="40" height="40" viewBox="0 0 40 40" fill="none" xmlns="http://www.w3.org/2000/svg">
<path fill-rule="evenodd" clip-rule="evenodd" d="M23.1659 8.99893C23.654 8.51077 24.4455 8.51077 24.9336 8.99893L35.0503 19.1156C35.2847 19.35 35.4164 19.668 35.4164 19.9995C35.4164 20.331 35.2847 20.6489 35.0503 20.8834L24.9336 31C24.4455 31.4882 23.654 31.4882 23.1659 31C22.6777 30.5119 22.6777 29.7204 23.1659 29.2323L32.3986 19.9995L23.1659 10.7667C22.6777 10.2785 22.6777 9.48708 23.1659 8.99893Z" fill="#0A3256"/>
<path fill-rule="evenodd" clip-rule="evenodd" d="M4.58331 20C4.58331 19.3096 5.14296 18.75 5.83331 18.75H33.8833C34.5737 18.75 35.1333 19.3096 35.1333 20C35.1333 20.6904 34.5737 21.25 33.8833 21.25H5.83331C5.14296 21.25 4.58331 20.6904 4.58331 20Z" fill="#0A3256"/>
</svg>
