<svg width="38" height="38" viewBox="0 0 38 38" fill="none" xmlns="http://www.w3.org/2000/svg">
<path d="M18.9998 37.3332C29.1251 37.3332 37.3332 29.1251 37.3332 18.9998C37.3332 8.87462 29.1251 0.666504 18.9998 0.666504C8.87462 0.666504 0.666504 8.87462 0.666504 18.9998C0.666504 29.1251 8.87462 37.3332 18.9998 37.3332Z" fill="#0979FD"/>
<path fill-rule="evenodd" clip-rule="evenodd" d="M12.2038 12.2037C12.5476 11.86 13.0138 11.667 13.4999 11.667C13.9861 11.667 14.4523 11.86 14.7961 12.2037L18.9999 16.4076L23.2038 12.2037C23.3729 12.0286 23.5752 11.889 23.7989 11.7929C24.0225 11.6968 24.2631 11.6462 24.5065 11.6441C24.75 11.642 24.9914 11.6884 25.2167 11.7806C25.442 11.8727 25.6467 12.0089 25.8188 12.181C25.991 12.3532 26.1271 12.5578 26.2193 12.7832C26.3115 13.0085 26.3578 13.2499 26.3557 13.4933C26.3536 13.7367 26.303 13.9773 26.207 14.201C26.1109 14.4247 25.9712 14.627 25.7961 14.7961L21.5923 18.9999L25.7961 23.2037C26.1301 23.5495 26.3148 24.0126 26.3107 24.4933C26.3065 24.974 26.1137 25.4338 25.7738 25.7737C25.4339 26.1137 24.974 26.3065 24.4933 26.3106C24.0126 26.3148 23.5495 26.13 23.2038 25.7961L18.9999 21.5922L14.7961 25.7961C14.4503 26.13 13.9872 26.3148 13.5065 26.3106C13.0258 26.3065 12.566 26.1137 12.2261 25.7737C11.8862 25.4338 11.6934 24.974 11.6892 24.4933C11.685 24.0126 11.8698 23.5495 12.2038 23.2037L16.4076 18.9999L12.2038 14.7961C11.8601 14.4523 11.667 13.986 11.667 13.4999C11.667 13.0138 11.8601 12.5475 12.2038 12.2037Z" fill="#FEFEFE"/>
</svg>
