<svg width="24" height="24" viewBox="0 0 24 24" fill="none" xmlns="http://www.w3.org/2000/svg">
<path d="M8.02789 17.8438C6.84662 17.8438 5.88897 18.7742 5.88897 19.9219C5.88897 21.0696 6.84662 22 8.02789 22C9.20917 22 10.1668 21.0696 10.1668 19.9219C10.1668 18.7742 9.20921 17.8438 8.02789 17.8438ZM8.02789 20.8125C7.52243 20.8125 7.11123 20.4129 7.11123 19.9219C7.11123 19.4308 7.52243 19.0312 8.02789 19.0312C8.53336 19.0312 8.9446 19.4308 8.9446 19.9219C8.9446 20.4129 8.5334 20.8125 8.02789 20.8125ZM22.7653 5.84699C22.5361 5.55127 22.1673 5.375 21.7782 5.375H5.09868L4.6512 3.46272C4.62077 3.33133 4.54521 3.21393 4.43696 3.12982C4.3287 3.04572 4.1942 2.99994 4.05559 3H1.61111C1.27332 3 1 3.26555 1 3.59375C1 3.92195 1.27332 4.1875 1.61111 4.1875H3.56743L6.51562 16.7873C6.54605 16.9187 6.62161 17.0361 6.72986 17.1202C6.83812 17.2043 6.97262 17.2501 7.11123 17.25H19.9448C20.2826 17.25 20.5559 16.9844 20.5559 16.6562C20.5559 16.3281 20.2826 16.0625 19.9448 16.0625H7.59939L7.32153 14.875H19.1892C20.0128 14.875 20.7409 14.3601 20.9582 13.6226L22.955 6.82924C23.0553 6.48943 22.9861 6.13225 22.7653 5.84699ZM19.7836 13.2956C19.7156 13.5263 19.4709 13.6875 19.1892 13.6875H7.11123C7.08831 13.6875 7.06887 13.6977 7.0466 13.7001L5.37594 6.56005L21.7805 6.5022L19.7836 13.2956ZM18.417 17.8438C17.2357 17.8438 16.278 18.7742 16.278 19.9219C16.278 21.0696 17.2357 22 18.417 22C19.5983 22 20.5559 21.0696 20.5559 19.9219C20.5559 18.7742 19.5983 17.8438 18.417 17.8438ZM18.417 20.8125C17.9115 20.8125 17.5003 20.4129 17.5003 19.9219C17.5003 19.4308 17.9115 19.0312 18.417 19.0312C18.9225 19.0312 19.3337 19.4308 19.3337 19.9219C19.3337 20.4129 18.9225 20.8125 18.417 20.8125Z" fill="white"/>
</svg>
