<svg width="48" height="48" viewBox="0 0 48 48" fill="none" xmlns="http://www.w3.org/2000/svg">
<g clip-path="url(#clip0_23422_6060)">
<path fill-rule="evenodd" clip-rule="evenodd" d="M37.0796 10.7907C37.6564 12.1911 38.0064 13.6731 38.1186 15.1803C37.4287 15.1225 36.7309 15.0767 36.1029 15.043C34.9999 14.9837 34.1054 15.8684 34.1054 16.9729V25.1351V33.2972C34.1054 34.4018 34.9999 35.2864 36.1029 35.2272C38.1366 35.118 40.9023 34.8817 41.7619 34.5237C42.9879 34.013 44.1019 33.2644 45.0403 32.3208C45.9786 31.3772 46.723 30.2569 47.2308 29.024C47.7386 27.791 48 26.4696 48 25.1351C48 23.8006 47.7386 22.4791 47.2308 21.2462C46.723 20.0133 45.9786 18.893 45.0403 17.9494C44.1019 17.0057 42.9879 16.2572 41.7619 15.7465C41.4405 15.6126 40.8526 15.4958 40.1361 15.3962C40.0403 13.5533 39.6328 11.738 38.9289 10.029C38.1173 8.05872 36.9276 6.26809 35.4275 4.75951C33.9274 3.25093 32.1462 2.05395 30.1854 1.2372C28.2246 0.420451 26.1229 0 24.0002 0C21.8776 0 19.7759 0.420448 17.8151 1.2372C15.8543 2.05395 14.0731 3.25093 12.573 4.75951C11.0729 6.26809 9.88319 8.05872 9.07163 10.029C8.36772 11.738 7.96016 13.5533 7.86443 15.3961C7.14771 15.4957 6.5596 15.6126 6.2381 15.7465C5.01208 16.2572 3.8981 17.0057 2.95974 17.9494C2.02139 18.893 1.27704 20.0133 0.769211 21.2462C0.261377 22.4791 0 23.8006 0 25.1351C0 26.4696 0.261377 27.791 0.76921 29.024C1.27704 30.2569 2.02139 31.3772 2.95974 32.3208C3.8981 33.2644 5.01208 34.013 6.2381 34.5237C6.56321 34.6591 7.16098 34.7771 7.88868 34.8774C8.02385 36.1156 8.45255 37.3199 9.14543 38.4414C9.99389 39.8147 11.2189 41.0334 12.7251 42.0432C14.1675 43.0103 15.8523 43.7756 17.6861 44.3091C17.7493 46.3579 19.4209 47.9992 21.4737 47.9992C23.5666 47.9992 25.2632 46.2932 25.2632 44.1888C25.2632 42.0844 23.5666 40.3785 21.4737 40.3785C20.0398 40.3785 18.7919 41.1793 18.1483 42.3604C16.527 41.8792 15.0672 41.2056 13.8388 40.382C12.53 39.5045 11.5219 38.4828 10.8469 37.3902C10.3853 36.6431 10.0843 35.8714 9.94075 35.0948C10.6113 35.1502 11.2871 35.1944 11.8971 35.2272C13.0001 35.2864 13.8946 34.4018 13.8946 33.2972L13.8946 25.1351V16.9729C13.8946 15.8684 13.0001 14.9837 11.8971 15.043C11.2693 15.0767 10.5717 15.1225 9.88193 15.1803C9.99404 13.673 10.3441 12.1911 10.9209 10.7907C11.6329 9.06226 12.6762 7.4921 13.9912 6.16975C15.3061 4.84741 16.8668 3.79877 18.5841 3.08343C20.3014 2.3681 22.1418 2 24.0002 2C25.8587 2 27.6991 2.3681 29.4164 3.08344C31.1337 3.79877 32.6944 4.84741 34.0093 6.16975C35.3243 7.4921 36.3676 9.06226 37.0796 10.7907ZM11.8946 25.1351L11.8946 33.2241C10.9255 33.1705 9.81448 33.0888 8.84902 32.9811C8.34684 32.9251 7.9052 32.8643 7.55354 32.801C7.37817 32.7694 7.23931 32.7396 7.13507 32.7133C7.0547 32.693 7.01468 32.6795 7.00496 32.6763L7.00259 32.6755L7.00715 32.6774C6.02458 32.2682 5.13107 31.668 4.37792 30.9106C3.62475 30.1531 3.0267 29.2533 2.61848 28.2623C2.21025 27.2712 2 26.2085 2 25.1351C2 24.0617 2.21025 22.999 2.61848 22.0079C3.0267 21.0168 3.62475 20.117 4.37792 19.3596C5.13107 18.6022 6.02459 18.002 7.00715 17.5927L7.00259 17.5946L7.00497 17.5939C7.01468 17.5906 7.05471 17.5772 7.13507 17.5569C7.23931 17.5305 7.37817 17.5008 7.55354 17.4692C7.9052 17.4058 8.34684 17.3451 8.84902 17.2891C9.81448 17.1814 10.9255 17.0997 11.8946 17.0461L11.8946 25.1351ZM36.1054 33.2241V25.1351V17.0461C37.0745 17.0997 38.1855 17.1814 39.151 17.2891C39.6532 17.3451 40.0948 17.4058 40.4465 17.4692C40.6218 17.5008 40.7607 17.5305 40.8649 17.5569C40.9453 17.5772 40.9853 17.5906 40.995 17.5939L40.9974 17.5946L40.9929 17.5927C41.9754 18.002 42.8689 18.6022 43.6221 19.3596C44.3753 20.117 44.9733 21.0168 45.3815 22.0079C45.7897 22.999 46 24.0617 46 25.1351C46 26.2085 45.7897 27.2712 45.3815 28.2623C44.9733 29.2533 44.3753 30.1531 43.6221 30.9106C42.8689 31.668 41.9754 32.2682 40.9929 32.6774L40.9974 32.6755L40.995 32.6763C40.9853 32.6795 40.9453 32.693 40.8649 32.7133C40.7607 32.7396 40.6218 32.7694 40.4465 32.801C40.0948 32.8643 39.6532 32.9251 39.151 32.9811C38.1855 33.0888 37.0745 33.1705 36.1054 33.2241ZM23.2632 44.1888C23.2632 45.1991 22.4516 45.9992 21.4737 45.9992C20.4958 45.9992 19.6843 45.1991 19.6843 44.1888C19.6843 43.1786 20.4958 42.3785 21.4737 42.3785C22.4516 42.3785 23.2632 43.1786 23.2632 44.1888Z" fill="white"/>
</g>
<defs>
<clipPath id="clip0_23422_6060">
<rect width="48" height="48" fill="white"/>
</clipPath>
</defs>
</svg>
