<svg width="48" height="48" viewBox="0 0 48 48" fill="none" xmlns="http://www.w3.org/2000/svg">
<path d="M24 32C28.4183 32 32 28.4183 32 24C32 19.5817 28.4183 16 24 16C19.5817 16 16 19.5817 16 24C16 28.4183 19.5817 32 24 32Z" stroke="white" stroke-width="2" stroke-linecap="round" stroke-linejoin="round"/>
<path d="M38.2027 15.6524L39.0686 15.1522L39.0686 15.1522L38.2027 15.6524ZM38.3342 15.8801L37.4683 16.3803L37.4683 16.3803L38.3342 15.8801ZM39.8533 17.3748L40.3394 16.5009V16.5009L39.8533 17.3748ZM42.9555 19.1006L42.4694 19.9745L42.9555 19.1006ZM43.9833 20.8439L42.9833 20.8461V20.8461L43.9833 20.8439ZM43.9976 27.1475L42.9976 27.1498L43.9976 27.1475ZM42.967 28.9014L42.4823 28.0267L42.967 28.9014ZM39.8572 30.6247L40.3419 31.4994L39.8572 30.6247ZM38.3324 32.1227L37.4665 31.6225L37.4665 31.6225L38.3324 32.1227ZM38.2027 32.3473L39.0686 32.8475L39.0686 32.8475L38.2027 32.3473ZM37.6669 34.4154L36.667 34.4322V34.4322L37.6669 34.4154ZM37.7268 37.9772L36.727 37.994L37.7268 37.9772ZM36.731 39.7406L36.2291 38.8757L36.2291 38.8757L36.731 39.7406ZM31.2751 42.9072L31.777 43.7721L31.2751 42.9072ZM29.2417 42.8921L29.7564 42.0348H29.7564L29.2417 42.8921ZM26.1896 41.0598L25.6749 41.9172L26.1896 41.0598ZM21.8124 41.0574L22.3261 41.9154L21.8124 41.0574ZM18.7743 42.8766L18.2605 42.0186L18.7743 42.8766ZM16.7482 42.8935L17.2475 42.0271H17.2475L16.7482 42.8935ZM11.275 39.7396L11.7743 38.8731L11.275 39.7396ZM10.2738 37.9729L11.2737 37.9898L10.2738 37.9729ZM10.3337 34.4267L9.33384 34.4098L10.3337 34.4267ZM9.80579 32.3721L10.6737 31.8753L9.80579 32.3721ZM9.66675 32.1292L8.79887 32.6259L8.79887 32.6259L9.66675 32.1292ZM8.1398 30.6207L7.65366 31.4946L8.1398 30.6207ZM5.04496 28.899L4.55881 29.7729H4.55881L5.04496 28.899ZM4.01725 27.1558L3.01726 27.1581L4.01725 27.1558ZM4.00293 20.8522L5.00293 20.8499L4.00293 20.8522ZM5.0335 19.0983L5.51821 19.973H5.51821L5.0335 19.0983ZM8.14327 17.375L7.65856 16.5003H7.65856L8.14327 17.375ZM9.66807 15.877L8.80216 15.3768L8.80215 15.3768L9.66807 15.877ZM9.79784 15.6524L10.6638 16.1526L10.6638 16.1526L9.79784 15.6524ZM10.3336 13.5843L11.3335 13.5675L10.3336 13.5843ZM10.2737 10.0225L9.27383 10.0393L10.2737 10.0225ZM11.2695 8.25908L11.7714 9.12396L11.2695 8.25908ZM16.7254 5.0925L17.2274 5.95738V5.95738L16.7254 5.0925ZM18.7588 5.10754L18.2441 5.9649V5.9649L18.7588 5.10754ZM21.8109 6.93988L21.2962 7.79725L21.8109 6.93988ZM26.1881 6.94227L25.6744 6.08431V6.08431L26.1881 6.94227ZM29.2263 5.1231L28.7125 4.26514V4.26514L29.2263 5.1231ZM31.2523 5.10614L31.7515 4.2397V4.2397L31.2523 5.10614ZM36.7256 8.26015L37.2249 7.39371L36.7256 8.26015ZM37.7267 10.0267L36.7269 10.0098V10.0098L37.7267 10.0267ZM37.6669 13.5843L36.667 13.5675V13.5675L37.6669 13.5843ZM37.3367 16.1526L37.4683 16.3803L39.2001 15.3799L39.0686 15.1522L37.3367 16.1526ZM39.3671 18.2487L42.4694 19.9745L43.4417 18.2268L40.3394 16.5009L39.3671 18.2487ZM42.9833 20.8461L42.9976 27.1498L44.9976 27.1452L44.9832 20.8416L42.9833 20.8461ZM42.4823 28.0267L39.3725 29.7501L40.3419 31.4994L43.4517 29.7761L42.4823 28.0267ZM37.4665 31.6225L37.3367 31.8471L39.0686 32.8475L39.1983 32.6228L37.4665 31.6225ZM36.667 34.4322L36.727 37.994L38.7267 37.9604L38.6667 34.3985L36.667 34.4322ZM36.2291 38.8757L30.7731 42.0423L31.777 43.7721L37.233 40.6055L36.2291 38.8757ZM29.7564 42.0348L26.7043 40.2024L25.6749 41.9172L28.727 43.7495L29.7564 42.0348ZM24.1307 39.4892H23.8673V41.4892H24.1307V39.4892ZM21.2987 40.1995L18.2605 42.0186L19.288 43.7345L22.3261 41.9154L21.2987 40.1995ZM17.2475 42.0271L11.7743 38.8731L10.7757 40.606L16.249 43.76L17.2475 42.0271ZM11.2737 37.9898L11.3336 34.4436L9.33384 34.4098L9.27397 37.9561L11.2737 37.9898ZM10.6737 31.8753L10.5346 31.6324L8.79887 32.6259L8.93791 32.8688L10.6737 31.8753ZM8.62595 29.7468L5.5311 28.0252L4.55881 29.7729L7.65366 31.4946L8.62595 29.7468ZM5.01725 27.1536L5.00293 20.8499L3.00294 20.8545L3.01726 27.1581L5.01725 27.1536ZM5.51821 19.973L8.62799 18.2496L7.65856 16.5003L4.54878 18.2236L5.51821 19.973ZM10.534 16.3772L10.6638 16.1526L8.93193 15.1522L8.80216 15.3768L10.534 16.3772ZM11.3335 13.5675L11.2736 10.0057L9.27383 10.0393L9.33376 13.6011L11.3335 13.5675ZM11.7714 9.12396L17.2274 5.95738L16.2235 4.22761L10.7675 7.39419L11.7714 9.12396ZM18.2441 5.9649L21.2962 7.79725L22.3257 6.08252L19.2735 4.25018L18.2441 5.9649ZM23.8698 8.51044H24.1332V6.51044H23.8698V8.51044ZM26.7018 7.80023L29.74 5.98106L28.7125 4.26514L25.6744 6.08431L26.7018 7.80023ZM30.753 5.97258L36.2263 9.12659L37.2249 7.39371L31.7515 4.2397L30.753 5.97258ZM36.7269 10.0098L36.667 13.5675L38.6667 13.6011L38.7266 10.0435L36.7269 10.0098ZM36.2263 9.12659C36.5413 9.30811 36.733 9.64632 36.7269 10.0098L38.7266 10.0435C38.7449 8.95291 38.1699 7.9383 37.2249 7.39371L36.2263 9.12659ZM29.74 5.98106C30.0511 5.79475 30.4388 5.7915 30.753 5.97258L31.7515 4.2397C30.8089 3.69648 29.646 3.70622 28.7125 4.26514L29.74 5.98106ZM24.1332 8.51044C25.0379 8.51044 25.9256 8.26498 26.7018 7.80023L25.6744 6.08431C25.2087 6.36317 24.676 6.51044 24.1332 6.51044V8.51044ZM21.2962 7.79725C22.0736 8.26391 22.9631 8.51044 23.8698 8.51044V6.51044C23.3258 6.51044 22.7921 6.36252 22.3257 6.08252L21.2962 7.79725ZM17.2274 5.95738C17.5424 5.77457 17.9319 5.77745 18.2441 5.9649L19.2735 4.25018C18.3368 3.68782 17.1684 3.67917 16.2235 4.22761L17.2274 5.95738ZM11.2736 10.0057C11.2675 9.64326 11.4579 9.30591 11.7714 9.12396L10.7675 7.39419C9.82702 7.94004 9.25554 8.95207 9.27383 10.0393L11.2736 10.0057ZM10.6638 16.1526C11.1172 15.3675 11.3487 14.474 11.3335 13.5675L9.33376 13.6011C9.34291 14.145 9.20401 14.6812 8.93193 15.1522L10.6638 16.1526ZM8.62799 18.2496C9.4214 17.8099 10.0803 17.1627 10.534 16.3772L8.80215 15.3768C8.52992 15.8481 8.13461 16.2365 7.65856 16.5003L8.62799 18.2496ZM5.00293 20.8499C5.0021 20.4855 5.19952 20.1496 5.51821 19.973L4.54878 18.2236C3.59269 18.7535 3.00045 19.7614 3.00294 20.8545L5.00293 20.8499ZM5.53111 28.0252C5.21463 27.8491 5.01807 27.5157 5.01725 27.1536L3.01726 27.1581C3.01972 28.2445 3.6094 29.2448 4.55881 29.7729L5.53111 28.0252ZM10.5346 31.6324C10.0821 30.8417 9.42207 30.1897 8.62595 29.7468L7.65366 31.4946C8.13133 31.7603 8.52732 32.1515 8.79887 32.6259L10.5346 31.6324ZM11.3336 34.4436C11.3487 33.5437 11.1208 32.6564 10.6737 31.8753L8.93791 32.8688C9.20617 33.3375 9.34296 33.8699 9.33384 34.4098L11.3336 34.4436ZM11.7743 38.8731C11.4592 38.6916 11.2676 38.3534 11.2737 37.9898L9.27397 37.9561C9.25556 39.0467 9.83058 40.0614 10.7757 40.606L11.7743 38.8731ZM18.2605 42.0186C17.9494 42.2049 17.5618 42.2082 17.2475 42.0271L16.249 43.76C17.1916 44.3032 18.3545 44.2935 19.288 43.7345L18.2605 42.0186ZM23.8673 39.4892C22.9626 39.4892 22.0749 39.7347 21.2987 40.1995L22.3261 41.9154C22.7919 41.6365 23.3245 41.4892 23.8673 41.4892V39.4892ZM26.7043 40.2024C25.9269 39.7358 25.0374 39.4892 24.1307 39.4892V41.4892C24.6747 41.4892 25.2085 41.6372 25.6749 41.9172L26.7043 40.2024ZM30.7731 42.0423C30.4581 42.2251 30.0687 42.2222 29.7564 42.0348L28.727 43.7495C29.6637 44.3119 30.8321 44.3205 31.777 43.7721L30.7731 42.0423ZM36.727 37.994C36.7331 38.3564 36.5426 38.6938 36.2291 38.8757L37.233 40.6055C38.1735 40.0596 38.745 39.0476 38.7267 37.9604L36.727 37.994ZM37.3367 31.8471C36.8833 32.6322 36.6518 33.5257 36.667 34.4322L38.6667 34.3986C38.6576 33.8547 38.7965 33.3185 39.0686 32.8475L37.3367 31.8471ZM39.3725 29.7501C38.5791 30.1897 37.9202 30.837 37.4665 31.6225L39.1983 32.6228C39.4706 32.1516 39.8659 31.7632 40.3419 31.4994L39.3725 29.7501ZM42.9976 27.1498C42.9984 27.5141 42.801 27.8501 42.4823 28.0267L43.4517 29.7761C44.4078 29.2462 45 28.2383 44.9976 27.1452L42.9976 27.1498ZM42.4694 19.9745C42.7859 20.1506 42.9824 20.484 42.9833 20.8461L44.9832 20.8416C44.9808 19.7551 44.3911 18.7549 43.4417 18.2268L42.4694 19.9745ZM37.4683 16.3803C37.9206 17.1633 38.5769 17.8091 39.3671 18.2487L40.3394 16.5009C39.8653 16.2372 39.4715 15.8497 39.2001 15.3799L37.4683 16.3803ZM39.0686 15.1522C38.7965 14.6812 38.6576 14.145 38.6667 13.6011L36.667 13.5675C36.6518 14.474 36.8833 15.3675 37.3367 16.1526L39.0686 15.1522Z" fill="white"/>
</svg>
