<svg width="32" height="32" viewBox="0 0 32 32" fill="none" xmlns="http://www.w3.org/2000/svg">
<path d="M24.4841 24.4861C25.0048 23.9654 25.0048 23.1212 24.4841 22.6005L17.8854 16.0017L24.486 9.40115C25.0066 8.88045 25.0066 8.03623 24.4859 7.51553C23.9653 6.99483 23.121 6.99483 22.6003 7.51553L15.9998 14.1161L9.39919 7.51552C8.87849 6.99483 8.03427 6.99483 7.51357 7.51552C6.99287 8.03622 6.99287 8.88044 7.51357 9.40114L14.1141 16.0017L7.51538 22.6005C6.99468 23.1212 6.99468 23.9654 7.51538 24.4861C8.03608 25.0068 8.8803 25.0068 9.401 24.4861L15.9998 17.8873L22.5985 24.4861C23.1192 25.0068 23.9634 25.0068 24.4841 24.4861Z" fill="#0979FD"/>
</svg>
