<svg width="49" height="48" viewBox="0 0 49 48" fill="none" xmlns="http://www.w3.org/2000/svg">
<path fill-rule="evenodd" clip-rule="evenodd" d="M37.2113 0H11.5C9.29086 0 7.5 1.79086 7.5 4V43.9512C7.5 46.1603 9.29086 47.9512 11.5 47.9512H37.2113C39.4205 47.9512 41.2113 46.1603 41.2113 43.9512V4C41.2113 1.79086 39.4205 0 37.2113 0ZM9.5 4C9.5 2.89543 10.3954 2 11.5 2H37.2113C38.3159 2 39.2113 2.89543 39.2113 4V43.9512C39.2113 45.0558 38.3159 45.9512 37.2113 45.9512H11.5C10.3954 45.9512 9.5 45.0558 9.5 43.9512V4ZM14.1421 4.57837C13.0375 4.57837 12.1421 5.4738 12.1421 6.57837V26.7227C12.1421 27.8272 13.0375 28.7227 14.1421 28.7227H34.5686C35.6732 28.7227 36.5686 27.8272 36.5686 26.7227V6.57837C36.5686 5.4738 35.6732 4.57837 34.5686 4.57837H14.1421ZM14.1421 6.57837H16.1421H32.5686H34.5686V8.57837V24.7227V26.7227H32.5686H16.1421H14.1421V24.7227V8.57837V6.57837ZM23.127 9.92997C23.8495 9.36744 24.8617 9.36744 25.5843 9.92997L30.4646 13.7297C30.9513 14.1086 31.236 14.6909 31.236 15.3078V21.4494C31.236 22.554 30.3405 23.4494 29.236 23.4494H27.2126C26.108 23.4494 25.2126 22.554 25.2126 21.4494V19.7868H23.4987V21.4494C23.4987 22.554 22.6032 23.4494 21.4987 23.4494H19.4752C18.3707 23.4494 17.4752 22.554 17.4752 21.4494V15.3078C17.4752 14.6909 17.7599 14.1086 18.2466 13.7297L23.127 9.92997ZM24.3556 11.5081L19.4752 15.3078V21.4494H21.4987V19.7868C21.4987 18.6822 22.3941 17.7868 23.4987 17.7868H25.2126C26.3171 17.7868 27.2126 18.6822 27.2126 19.7868V21.4494H29.236V15.3078L24.3556 11.5081ZM15.0577 32.2166C14.552 32.2166 14.1421 32.6265 14.1421 33.1322C14.1421 33.6379 14.552 34.0479 15.0577 34.0479H16.9403C17.446 34.0479 17.856 33.6379 17.856 33.1322C17.856 32.6265 17.446 32.2166 16.9403 32.2166H15.0577ZM14.1421 37.7103C14.1421 37.2046 14.552 36.7947 15.0577 36.7947H16.9403C17.446 36.7947 17.856 37.2046 17.856 37.7103C17.856 38.216 17.446 38.626 16.9403 38.626H15.0577C14.552 38.626 14.1421 38.216 14.1421 37.7103ZM15.0577 41.373C14.552 41.373 14.1421 41.783 14.1421 42.2887C14.1421 42.7944 14.552 43.2043 15.0577 43.2043H16.9403C17.446 43.2043 17.856 42.7944 17.856 42.2887C17.856 41.783 17.446 41.373 16.9403 41.373H15.0577ZM22.4985 33.1322C22.4985 32.6265 22.9085 32.2166 23.4142 32.2166H25.2968C25.8025 32.2166 26.2124 32.6265 26.2124 33.1322C26.2124 33.6379 25.8025 34.0479 25.2968 34.0479H23.4142C22.9085 34.0479 22.4985 33.6379 22.4985 33.1322ZM23.4142 36.7947C22.9085 36.7947 22.4985 37.2046 22.4985 37.7103C22.4985 38.216 22.9085 38.626 23.4142 38.626H25.2968C25.8025 38.626 26.2124 38.216 26.2124 37.7103C26.2124 37.2046 25.8025 36.7947 25.2968 36.7947H23.4142ZM22.4985 42.2887C22.4985 41.783 22.9085 41.373 23.4142 41.373H25.2968C25.8025 41.373 26.2124 41.783 26.2124 42.2887C26.2124 42.7944 25.8025 43.2043 25.2968 43.2043H23.4142C22.9085 43.2043 22.4985 42.7944 22.4985 42.2887ZM31.7706 32.2166C31.2649 32.2166 30.855 32.6265 30.855 33.1322C30.855 33.6379 31.2649 34.0479 31.7706 34.0479H33.6532C34.1589 34.0479 34.5689 33.6379 34.5689 33.1322C34.5689 32.6265 34.1589 32.2166 33.6532 32.2166H31.7706ZM30.855 37.7103C30.855 37.2046 31.2649 36.7947 31.7706 36.7947H33.6532C34.1589 36.7947 34.5689 37.2046 34.5689 37.7103C34.5689 38.216 34.1589 38.626 33.6532 38.626H31.7706C31.2649 38.626 30.855 38.216 30.855 37.7103ZM31.7706 41.373C31.2649 41.373 30.855 41.783 30.855 42.2887C30.855 42.7944 31.2649 43.2043 31.7706 43.2043H33.6532C34.1589 43.2043 34.5689 42.7944 34.5689 42.2887C34.5689 41.783 34.1589 41.373 33.6532 41.373H31.7706Z" fill="url(#paint0_linear_21458_6413)"/>
<defs>
<linearGradient id="paint0_linear_21458_6413" x1="7.5" y1="23.9756" x2="43.3189" y2="24.7912" gradientUnits="userSpaceOnUse">
<stop stop-color="#0091EF"/>
<stop offset="1" stop-color="#32D7D4"/>
</linearGradient>
</defs>
</svg>
