<svg width="49" height="50" viewBox="0 0 49 50" fill="none" xmlns="http://www.w3.org/2000/svg">
<path fill-rule="evenodd" clip-rule="evenodd" d="M3.29293 37.184C3.43715 37.4496 3.58644 37.7129 3.74078 37.9738L4.1711 37.7192L4.61954 37.4539C4.55659 37.6958 4.52306 37.9496 4.52306 38.2114V40.6705C4.52306 42.3273 5.86621 43.6705 7.52306 43.6705H10.8128C11.9613 43.6705 13.009 43.0148 13.511 41.9817L14.7061 39.5226C15.6744 37.5301 14.2232 35.2114 12.0078 35.2114H11.3119L11.4739 33.4276C11.5838 32.2176 10.6311 31.1745 9.41618 31.1745C8.55407 31.1745 7.7407 31.7185 7.47583 32.5986C7.38381 32.9043 7.30147 33.2043 7.22548 33.4811L7.22545 33.4813L7.22409 33.4862C7.01263 34.2566 6.86251 34.7788 6.66746 35.1263C6.57938 35.2833 6.51342 35.3437 6.48265 35.3654C6.46609 35.377 6.43993 35.3945 6.35819 35.3952C5.9219 35.3988 5.55298 35.6814 5.4197 36.0725C5.31882 36.1717 5.22491 36.278 5.13877 36.3906C5.10914 36.3371 5.07973 36.2834 5.05055 36.2297L4.61115 36.4683L3.73234 36.9455L3.29293 37.184ZM1.2417 32.1497C1.40672 32.7314 1.59326 33.3075 1.80107 33.8767L2.27074 33.7052L3.21009 33.3623L3.67977 33.1908C3.48883 32.6678 3.31742 32.1385 3.16578 31.6039L2.68476 31.7403L1.72272 32.0132L1.2417 32.1497ZM0.34375 26.7882C0.37735 27.3932 0.433205 27.9961 0.511074 28.5958L1.00691 28.5314L1.99858 28.4027L2.49442 28.3383C2.42287 27.7872 2.37154 27.2332 2.34067 26.6773L1.84144 26.705L0.842979 26.7605L0.34375 26.7882ZM0.509583 22.2582C0.470699 22.5588 0.437416 22.8597 0.409702 23.1606L0.907597 23.2064L1.90338 23.2981L2.40128 23.344C2.42674 23.0675 2.45732 22.791 2.49306 22.5148C2.52879 22.2386 2.56954 21.9635 2.61527 21.6896L2.1221 21.6073L1.13575 21.4426L0.642582 21.3602C0.592815 21.6583 0.548462 21.9577 0.509583 22.2582ZM2.12343 16.1303C1.89556 16.6904 1.68814 17.2592 1.50172 17.8357L1.97747 17.9895L2.92896 18.2972L3.40471 18.451C3.57599 17.9213 3.76658 17.3987 3.97596 16.8841L3.51283 16.6956L2.58656 16.3188L2.12343 16.1303ZM4.7146 11.3521C4.36881 11.8496 4.04183 12.3592 3.7342 12.8798L4.16466 13.1341L5.02557 13.6429L5.45603 13.8973C5.73869 13.4189 6.03913 12.9507 6.35685 12.4936L5.94628 12.2083L5.12516 11.6375L4.7146 11.3521ZM7.63311 7.88413C7.41745 8.09708 7.20606 8.31367 6.99901 8.53378L7.36319 8.87638L8.09156 9.56156L8.45574 9.90416C8.64599 9.70192 8.84021 9.50291 9.03837 9.30725C9.23643 9.11167 9.43777 8.92006 9.64228 8.73248L9.30431 8.364L8.62836 7.62705L8.29039 7.25858C8.0678 7.46274 7.84867 7.67128 7.63311 7.88413ZM12.6752 4.05035C12.151 4.35122 11.6376 4.67159 11.136 5.01094L11.4162 5.42507L11.9765 6.25333L12.2567 6.66746C12.7175 6.35569 13.1892 6.06135 13.6708 5.78493L13.4219 5.35129L12.9241 4.484L12.6752 4.05035ZM37.7491 4.39441C37.4906 4.23647 37.2296 4.08355 36.9663 3.93568L36.7215 4.37165L36.2319 5.24359L35.987 5.67956C36.229 5.81541 36.4688 5.95591 36.7062 6.10102L36.9669 5.67437L37.4884 4.82107L37.7491 4.39441ZM17.6571 1.88236C17.0786 2.06122 16.5074 2.26121 15.9446 2.4818L16.1271 2.94731L16.4921 3.87833L16.6745 4.34385C17.1915 4.14119 17.7163 3.95745 18.2478 3.79314L18.1002 3.31544L17.8048 2.36005L17.6571 1.88236ZM33.6825 2.39817C33.1167 2.1825 32.5437 1.98802 31.9646 1.81499L31.8215 2.29406L31.5352 3.25219L31.392 3.73126C31.924 3.89022 32.4504 4.06889 32.9702 4.26702L33.1483 3.79981L33.5045 2.86538L33.6825 2.39817ZM22.0905 0.948612C21.7896 0.983482 21.4898 1.02385 21.1912 1.06966L21.267 1.56388L21.4187 2.55231L21.4945 3.04653C21.7688 3.00444 22.0443 2.96735 22.3207 2.93531C22.5972 2.90328 22.8738 2.8764 23.1504 2.85464L23.1112 2.35619L23.0328 1.35926L22.9936 0.860802C22.6925 0.884483 22.3914 0.913742 22.0905 0.948612ZM28.4235 1.03566C27.8253 0.949615 27.2236 0.885555 26.6195 0.84375L26.585 1.34256L26.5159 2.34017L26.4814 2.83898C27.0364 2.87738 27.5892 2.93623 28.1387 3.01529L28.2099 2.52038L28.3523 1.53057L28.4235 1.03566ZM34.3143 8.55968C33.6342 9.24039 33.6342 10.344 34.3143 11.0247L37.9825 14.6961L41.6508 11.0247C42.331 10.344 42.331 9.24035 41.6508 8.55965C40.9707 7.87894 39.868 7.87894 39.1879 8.55964L38.6893 9.05863C38.5019 9.24625 38.2476 9.35165 37.9825 9.35165C37.7174 9.35165 37.4632 9.24625 37.2757 9.05863L36.7772 8.55968C36.0971 7.87898 34.9944 7.87898 34.3143 8.55968ZM38.669 16.8382C38.2773 17.2089 37.6594 17.2023 37.2757 16.8183L32.9007 12.4395C31.4398 10.9775 31.4398 8.60695 32.9007 7.14487C34.294 5.75039 36.5129 5.6859 37.9825 6.95143C39.4522 5.68586 41.6711 5.75033 43.0644 7.14483C44.5253 8.60691 44.5253 10.9774 43.0644 12.4395L38.6894 16.8183C38.6827 16.825 38.6759 16.8316 38.669 16.8382ZM14.9573 21.2006C14.9573 16.1575 19.0418 12.0708 24.0784 12.0708C29.115 12.0708 33.1995 16.1575 33.1995 21.2006C33.1995 23.3204 32.4789 25.269 31.269 26.8182C29.7927 28.7085 28.1389 31.0809 28.1389 33.8703V34.7072C28.1389 35.0882 27.8306 35.3955 27.4521 35.3955H20.7047C20.3262 35.3955 20.0178 35.0882 20.0178 34.7072V33.8703C20.0178 31.0809 18.3641 28.7085 16.8878 26.8182C15.6779 25.269 14.9573 23.3204 14.9573 21.2006ZM24.0784 10.0708C17.9356 10.0708 12.9573 15.0546 12.9573 21.2006C12.9573 23.782 13.8367 26.1608 15.3115 28.0492C16.8019 29.9574 18.0178 31.8384 18.0178 33.8703V34.7072C18.0178 36.1911 19.22 37.3955 20.7047 37.3955H27.4521C28.9368 37.3955 30.1389 36.1911 30.1389 34.7072V33.8703C30.1389 31.8384 31.3549 29.9574 32.8452 28.0492C34.3201 26.1608 35.1995 23.782 35.1995 21.2006C35.1995 15.0546 30.2212 10.0708 24.0784 10.0708ZM19.0178 40.4601C18.4656 40.4601 18.0178 40.9078 18.0178 41.4601C18.0178 42.0124 18.4656 42.4601 19.0178 42.4601H29.1389C29.6912 42.4601 30.1389 42.0124 30.1389 41.4601C30.1389 40.9078 29.6912 40.4601 29.1389 40.4601H19.0178ZM9.15275 34.0156C9.22952 33.7359 9.30551 33.4593 9.38925 33.1807C9.39365 33.1781 9.40259 33.1745 9.41618 33.1745C9.4551 33.1745 9.48562 33.2079 9.4821 33.2466L9.22103 36.1209C9.19561 36.4007 9.28907 36.6783 9.47853 36.8858C9.66799 37.0932 9.93598 37.2114 10.2169 37.2114H12.0078C12.7463 37.2114 13.23 37.9843 12.9072 38.6485L11.7122 41.1076C11.5449 41.4519 11.1956 41.6705 10.8128 41.6705H7.52306C6.97078 41.6705 6.52306 41.2228 6.52306 40.6705V38.2114C6.52306 37.8104 6.75913 37.4624 7.10421 37.3028C7.16141 37.2763 7.2151 37.245 7.26495 37.2095C7.39383 37.1527 7.51712 37.083 7.6342 37.0006C7.98557 36.7531 8.23149 36.4261 8.41159 36.1051C8.74068 35.5187 8.94913 34.7583 9.13239 34.0898L9.15275 34.0156ZM45.2594 12.0246C45.4138 12.2855 45.5631 12.5488 45.7073 12.8144L45.2679 13.053L44.3891 13.5301L43.9497 13.7687C43.8171 13.5247 43.68 13.2827 43.5381 13.043L43.9685 12.7884L44.8291 12.2792L45.2594 12.0246ZM47.1991 16.1217C47.4069 16.6909 47.5935 17.267 47.7585 17.8488L47.2775 17.9852L46.3154 18.2581L45.8344 18.3946C45.6828 17.86 45.5114 17.3306 45.3204 16.8076L45.7901 16.6362L46.7295 16.2932L47.1991 16.1217ZM48.4891 21.4026C48.567 22.0023 48.6229 22.6052 48.6565 23.2102L48.1572 23.238L47.1588 23.2934L46.6595 23.3211C46.6287 22.7652 46.5773 22.2112 46.5058 21.6601L47.0016 21.5958L47.9933 21.467L48.4891 21.4026ZM48.5905 26.8378C48.5628 27.1388 48.5295 27.4396 48.4906 27.7402C48.4517 28.0408 48.4074 28.3401 48.3576 28.6382L47.8644 28.5558L46.8781 28.3911L46.3849 28.3088C46.4307 28.0349 46.4714 27.7598 46.5071 27.4836C46.5429 27.2074 46.5735 26.931 46.5989 26.6544L47.0968 26.7003L48.0926 26.792L48.5905 26.8378ZM47.4985 32.1627C47.3121 32.7392 47.1046 33.308 46.8768 33.8681L46.4136 33.6797L45.4874 33.3028L45.0242 33.1144C45.2336 32.5997 45.4242 32.0771 45.5955 31.5474L46.0712 31.7012L47.0227 32.0089L47.4985 32.1627ZM45.266 37.1187C44.9584 37.6392 44.6314 38.1488 44.2856 38.6463L43.875 38.3609L43.0539 37.7902L42.6434 37.5048C42.9611 37.0477 43.2615 36.5795 43.5442 36.1012L43.9746 36.3555L44.8355 36.8643L45.266 37.1187ZM42.0012 41.4646C41.7941 41.6847 41.5827 41.9013 41.3671 42.1143C41.1515 42.3271 40.9324 42.5357 40.7098 42.7398L40.3718 42.3714L39.6959 41.6344L39.3579 41.2659C39.5624 41.0784 39.7638 40.8868 39.9618 40.6912C40.16 40.4955 40.3542 40.2965 40.5445 40.0943L40.9086 40.4369L41.637 41.122L42.0012 41.4646ZM37.8642 44.9875C37.3626 45.3268 36.8492 45.6472 36.325 45.9481L36.0761 45.5144L35.5783 44.6471L35.3294 44.2135C35.811 43.9371 36.2827 43.6427 36.7435 43.331L37.0237 43.7451L37.584 44.5734L37.8642 44.9875ZM12.0339 46.0627C11.7706 45.9149 11.5096 45.7619 11.2511 45.604L11.5118 45.1774L12.0333 44.324L12.294 43.8974C12.5314 44.0425 12.7712 44.183 13.0132 44.3189L12.7684 44.7548L12.2787 45.6268L12.0339 46.0627ZM33.0556 47.5166C32.4929 47.7372 31.9216 47.9372 31.3431 48.1161L31.1954 47.6384L30.9 46.683L30.7524 46.2053C31.2839 46.041 31.8087 45.8572 32.3257 45.6546L32.5081 46.1201L32.8731 47.0511L33.0556 47.5166ZM17.0356 48.1834C16.4565 48.0104 15.8835 47.8159 15.3177 47.6003L15.4957 47.133L15.8519 46.1986L16.03 45.7314C16.5498 45.9295 17.0763 46.1082 17.6082 46.2672L17.465 46.7462L17.1787 47.7044L17.0356 48.1834ZM27.809 48.9288C27.5104 48.9746 27.2106 49.0149 26.9097 49.0498C26.6088 49.0847 26.3077 49.1139 26.0066 49.1376L25.9674 48.6392L25.889 47.6422L25.8498 47.1438C26.1264 47.122 26.403 47.0951 26.6795 47.0631C26.9559 47.0311 27.2314 46.994 27.5057 46.9519L27.5815 47.4461L27.7332 48.4345L27.809 48.9288ZM22.3807 49.1547C21.7766 49.1129 21.1749 49.0488 20.5767 48.9628L20.6479 48.4679L20.7903 47.478L20.8615 46.9831C21.411 47.0622 21.9638 47.121 22.5188 47.1594L22.4843 47.6582L22.4152 48.6559L22.3807 49.1547Z" fill="url(#paint0_linear_21458_6360)"/>
<defs>
<linearGradient id="paint0_linear_21458_6360" x1="0.34375" y1="24.9992" x2="51.6497" y2="26.6611" gradientUnits="userSpaceOnUse">
<stop stop-color="#0091EF"/>
<stop offset="1" stop-color="#32D7D4"/>
</linearGradient>
</defs>
</svg>
