<svg width="64" height="64" viewBox="0 0 64 64" fill="none" xmlns="http://www.w3.org/2000/svg">
<path d="M24.4569 26.0149C22.5026 24.0606 20.8006 22.3586 20.0955 21.6535C18.0955 19.6535 15.3824 19.8666 14.5954 20.6535C13.8085 21.4405 12.5955 23.1535 14.5955 25.1535C16.1955 26.7535 26.2621 37.8202 31.0955 43.1535C21.0955 42.6535 16.5955 47.1535 16.5955 48.6535C16.5955 50.1535 18.5955 50.6535 19.0955 50.6535C24.2621 50.6535 36.1955 50.6535 42.5955 50.6535C50.5955 50.6535 59.5955 38.1535 54.0955 30.6535C48.5955 23.1535 46.0955 20.6535 42.5955 17.6535C42.0955 17.1532 40.2955 16.9535 39.0955 18.1535C37.5955 19.6535 37.8533 21.5939 38.9744 22.6535M24.4569 26.0149L25.5955 27.1535M24.4569 26.0149C24.829 26.387 25.2102 26.7683 25.5955 27.1535M35.5955 28.1535L32.2018 25.0427M25.5955 27.1535L31.5955 33.1535C30.09 31.6481 27.7784 29.3364 25.5955 27.1535ZM25.5955 27.1535C25.0955 26.6535 24.0955 24.6535 25.5955 23.1535C26.7955 21.9535 29.0955 22.1535 29.5955 22.6535L32.2018 25.0427M40.5955 24.1535C40.1117 23.7504 39.628 23.2693 38.9744 22.6535M32.2018 25.0427C30.1846 23.1936 31.0955 21.1535 32.0955 20.1535C33.0955 19.1535 34.439 18.8284 36.0955 20.1535C37.3861 21.186 38.2769 21.9964 38.9744 22.6535M13.5955 32.6532C9.76214 30.1532 4.59543 22.6531 11.0955 16.6532C17.5955 10.6532 24.0955 16.1534 26.0955 20.1535" stroke="url(#paint0_linear_21268_3955)" stroke-width="1.8" stroke-linecap="round"/>
<defs>
<linearGradient id="paint0_linear_21268_3955" x1="8" y1="32.3268" x2="58.7097" y2="34.4681" gradientUnits="userSpaceOnUse">
<stop stop-color="#0091EF"/>
<stop offset="1" stop-color="#32D7D4"/>
</linearGradient>
</defs>
</svg>
