<svg width="16" height="16" viewBox="0 0 16 16" fill="none" xmlns="http://www.w3.org/2000/svg">
<path d="M1.33301 12.4998V4.16812C1.33301 3.70792 1.70608 3.33482 2.16632 3.33482C2.62658 3.33482 2.99967 3.70794 2.99967 4.1682V7.60169L7.46582 3.52685C8.00293 3.08096 8.83301 3.45526 8.83301 4.16802V7.60169L13.2992 3.52685C13.8363 3.08096 14.6663 3.45526 14.6663 4.16802V12.4999C14.6663 13.2127 13.8363 13.587 13.2992 13.1411L8.83301 9.09557V12.4999C8.83301 13.2127 8.00293 13.587 7.46582 13.1411L2.99967 9.09557V12.4998C2.99967 12.96 2.6266 13.3331 2.16637 13.3331C1.70611 13.3331 1.33301 12.96 1.33301 12.4998Z" fill="#E1E3E6"/>
</svg>
