<svg width="48" height="48" viewBox="0 0 48 48" fill="none" xmlns="http://www.w3.org/2000/svg">
<path d="M37.93 33.22L35.584 30.874C35.0215 30.3116 34.2585 29.9957 33.4631 29.9957C32.6676 29.9957 31.9046 30.3116 31.342 30.874L29.498 32.718C29.2987 32.9221 29.0425 33.0614 28.7628 33.1178C28.4831 33.1742 28.1929 33.145 27.93 33.034C25.258 31.864 22.618 30.09 20.264 27.736C18.0467 25.5392 16.2552 22.9509 14.98 20.102C14.8645 19.8305 14.8336 19.5303 14.8915 19.241C14.9493 18.9516 15.0931 18.6863 15.304 18.48L16.956 16.828C18.298 15.486 18.298 13.588 17.126 12.416L14.78 10.07C14.0299 9.32013 13.0127 8.89886 11.952 8.89886C10.8914 8.89886 9.87416 9.32013 9.12405 10.07L7.82005 11.372C6.33805 12.854 5.72005 14.992 6.12005 17.112C7.10805 22.338 10.144 28.06 15.042 32.958C19.94 37.856 25.6621 40.892 30.8881 41.88C33.008 42.28 35.146 41.662 36.628 40.18L37.93 38.878C38.3017 38.5066 38.5964 38.0655 38.7976 37.5801C38.9987 37.0947 39.1022 36.5744 39.1022 36.049C39.1022 35.5236 38.9987 35.0033 38.7976 34.5179C38.5964 34.0325 38.3017 33.5915 37.93 33.22V33.22Z" stroke="#E1E3E6" stroke-width="3" stroke-linecap="round" stroke-linejoin="round"/>
<path d="M26 13.982C27.0577 13.9646 28.1081 14.1601 29.0887 14.557C30.0693 14.9538 30.9601 15.5438 31.708 16.292" stroke="#E1E3E6" stroke-width="3" stroke-linecap="round" stroke-linejoin="round"/>
<path d="M37.364 10.636C35.8733 9.1414 34.1019 7.95608 32.1517 7.14814C30.2015 6.34019 28.1109 5.92553 26 5.92799" stroke="#E1E3E6" stroke-width="3" stroke-linecap="round" stroke-linejoin="round"/>
<path d="M34.018 22C34.0354 20.9423 33.8398 19.8919 33.443 18.9113C33.0462 17.9307 32.4561 17.0399 31.708 16.292" stroke="#E1E3E6" stroke-width="3" stroke-linecap="round" stroke-linejoin="round"/>
<path d="M37.3643 10.636C38.8588 12.1267 40.0442 13.898 40.8521 15.8482C41.6601 17.7984 42.0747 19.8891 42.0723 22" stroke="#E1E3E6" stroke-width="3" stroke-linecap="round" stroke-linejoin="round"/>
</svg>
