<svg width="48" height="49" viewBox="0 0 48 49" fill="none" xmlns="http://www.w3.org/2000/svg">
<path d="M24 3.90039C12.4031 3.90039 3 13.3035 3 24.9004C3 36.4973 12.4031 45.9004 24 45.9004C35.5969 45.9004 45 36.4973 45 24.9004C45 13.3035 35.5969 3.90039 24 3.90039ZM24 42.3379C14.3719 42.3379 6.5625 34.5285 6.5625 24.9004C6.5625 15.2723 14.3719 7.46289 24 7.46289C33.6281 7.46289 41.4375 15.2723 41.4375 24.9004C41.4375 34.5285 33.6281 42.3379 24 42.3379Z" fill="#1890FF"/>
<path opacity="0.1" d="M24 7.46289C14.3719 7.46289 6.5625 15.2723 6.5625 24.9004C6.5625 34.5285 14.3719 42.3379 24 42.3379C33.6281 42.3379 41.4375 34.5285 41.4375 24.9004C41.4375 15.2723 33.6281 7.46289 24 7.46289ZM24 37.0879C22.9641 37.0879 22.125 36.2488 22.125 35.2129C22.125 34.177 22.9641 33.3379 24 33.3379C25.0359 33.3379 25.875 34.177 25.875 35.2129C25.875 36.2488 25.0359 37.0879 24 37.0879ZM26.9484 26.7988C26.5239 26.9628 26.1587 27.2508 25.9003 27.6254C25.6419 28 25.5024 28.4438 25.5 28.8988V29.9629C25.5 30.1691 25.3312 30.3379 25.125 30.3379H22.875C22.6688 30.3379 22.5 30.1691 22.5 29.9629V28.9551C22.5 27.8723 22.8141 26.8035 23.4328 25.9129C24.0375 25.041 24.8813 24.3754 25.875 23.9957C27.4688 23.3816 28.5 22.0457 28.5 20.5879C28.5 18.5207 26.4797 16.8379 24 16.8379C21.5203 16.8379 19.5 18.5207 19.5 20.5879V20.9441C19.5 21.1504 19.3313 21.3191 19.125 21.3191H16.875C16.6687 21.3191 16.5 21.1504 16.5 20.9441V20.5879C16.5 18.7457 17.3062 17.0254 18.7687 15.7457C20.175 14.5129 22.0312 13.8379 24 13.8379C25.9688 13.8379 27.825 14.5176 29.2312 15.7457C30.6937 17.0254 31.5 18.7457 31.5 20.5879C31.5 23.2973 29.7141 25.7348 26.9484 26.7988Z" fill="#1890FF"/>
<path d="M22.125 35.2129C22.125 35.7102 22.3225 36.1871 22.6742 36.5387C23.0258 36.8903 23.5027 37.0879 24 37.0879C24.4973 37.0879 24.9742 36.8903 25.3258 36.5387C25.6775 36.1871 25.875 35.7102 25.875 35.2129C25.875 34.7156 25.6775 34.2387 25.3258 33.8871C24.9742 33.5354 24.4973 33.3379 24 33.3379C23.5027 33.3379 23.0258 33.5354 22.6742 33.8871C22.3225 34.2387 22.125 34.7156 22.125 35.2129ZM29.2312 15.7457C27.825 14.5176 25.9688 13.8379 24 13.8379C22.0312 13.8379 20.175 14.5129 18.7687 15.7457C17.3062 17.0254 16.5 18.7457 16.5 20.5879V20.9441C16.5 21.1504 16.6687 21.3191 16.875 21.3191H19.125C19.3312 21.3191 19.5 21.1504 19.5 20.9441V20.5879C19.5 18.5207 21.5203 16.8379 24 16.8379C26.4797 16.8379 28.5 18.5207 28.5 20.5879C28.5 22.0457 27.4688 23.3816 25.875 23.9957C24.8813 24.3754 24.0375 25.041 23.4328 25.9129C22.8141 26.8035 22.5 27.8723 22.5 28.9551V29.9629C22.5 30.1691 22.6687 30.3379 22.875 30.3379H25.125C25.3313 30.3379 25.5 30.1691 25.5 29.9629V28.8988C25.5024 28.4438 25.6419 28 25.9003 27.6254C26.1587 27.2508 26.5239 26.9628 26.9484 26.7988C29.7141 25.7348 31.5 23.2973 31.5 20.5879C31.5 18.7457 30.6937 17.0254 29.2312 15.7457Z" fill="#1890FF"/>
</svg>
