<svg width="49" height="48" viewBox="0 0 49 48" fill="none" xmlns="http://www.w3.org/2000/svg">
<g clip-path="url(#clip0_23050_15926)">
<path fill-rule="evenodd" clip-rule="evenodd" d="M44.332 2H4.33203C3.22746 2 2.33203 2.89543 2.33203 4V44C2.33203 45.1046 3.22746 46 4.33203 46H44.332C45.4366 46 46.332 45.1046 46.332 44V4C46.332 2.89543 45.4366 2 44.332 2ZM48.332 4C48.332 1.79086 46.5412 0 44.332 0H4.33203C2.12289 0 0.332031 1.79086 0.332031 4V44C0.332031 46.2091 2.12289 48 4.33203 48H44.332C46.5412 48 48.332 46.2091 48.332 44V4ZM12.892 9.12C12.892 10.9718 11.6079 12.5238 9.88159 12.9339L9.88159 41.0078C9.88159 41.5601 9.43388 42.0078 8.88159 42.0078C8.32931 42.0078 7.88159 41.5601 7.88159 41.0078L7.88159 12.8863C6.24719 12.414 5.05203 10.9066 5.05203 9.12C5.05203 6.95504 6.80707 5.2 8.97203 5.2C11.137 5.2 12.892 6.95504 12.892 9.12ZM10.892 9.12C10.892 10.1804 10.0324 11.04 8.97203 11.04C7.91164 11.04 7.05203 10.1804 7.05203 9.12C7.05203 8.05961 7.91164 7.2 8.97203 7.2C10.0324 7.2 10.892 8.05961 10.892 9.12ZM28.252 19.68C28.252 21.5142 26.9923 23.0542 25.2908 23.4819V42C25.2908 42.5523 24.8431 43 24.2908 43C23.7385 43 23.2908 42.5523 23.2908 42V23.4602C21.6312 23.0041 20.412 21.4844 20.412 19.68C20.412 17.8756 21.6312 16.3559 23.2908 15.8998V7.02647C23.2908 6.47419 23.7385 6.02647 24.2908 6.02647C24.8431 6.02647 25.2908 6.47419 25.2908 7.02647V15.8781C26.9923 16.3058 28.252 17.8458 28.252 19.68ZM24.1985 17.7646C24.2289 17.7673 24.2597 17.7688 24.2908 17.7688C24.3315 17.7688 24.3717 17.7663 24.4111 17.7616C25.4348 17.8031 26.252 18.6461 26.252 19.68C26.252 20.7404 25.3924 21.6 24.332 21.6C23.2716 21.6 22.412 20.7404 22.412 19.68C22.412 18.6645 23.2004 17.8331 24.1985 17.7646ZM40.8926 35.1473C42.4703 35.6543 43.612 37.1338 43.612 38.88C43.612 41.045 41.857 42.8 39.692 42.8C37.5271 42.8 35.772 41.045 35.772 38.88C35.772 36.989 37.111 35.4107 38.8926 35.0416V7.02647C38.8926 6.47419 39.3403 6.02647 39.8926 6.02647C40.4449 6.02647 40.8926 6.47419 40.8926 7.02647V35.1473ZM41.612 38.88C41.612 37.8196 40.7524 36.96 39.692 36.96C38.6316 36.96 37.772 37.8196 37.772 38.88C37.772 39.9404 38.6316 40.8 39.692 40.8C40.7524 40.8 41.612 39.9404 41.612 38.88Z" fill="#0979FD"/>
</g>
<defs>
<clipPath id="clip0_23050_15926">
<rect width="48" height="48" fill="white" transform="translate(0.332031)"/>
</clipPath>
</defs>
</svg>
