<svg width="22" height="22" viewBox="0 0 22 22" fill="none" xmlns="http://www.w3.org/2000/svg">
<g clip-path="url(#clip0_2899_12312)">
<path d="M20.1456 4.10742H1.76641C1.04175 4.10742 0.453613 4.69586 0.453613 5.42091V6.16828L10.956 10.6184L21.4584 6.16696V5.42091C21.4584 4.69586 20.8703 4.10742 20.1456 4.10742Z" fill="white"/>
<path d="M11.212 11.9358C11.1306 11.9713 11.0427 11.9883 10.956 11.9883C10.8694 11.9883 10.7814 11.9713 10.7 11.9358L0.453613 7.59473V17.2423C0.453613 17.9673 1.04175 18.5558 1.76641 18.5558H20.1456C20.8703 18.5558 21.4584 17.9673 21.4584 17.2423V7.59473L11.212 11.9358Z" fill="white"/>
</g>
<defs>
<clipPath id="clip0_2899_12312">
<rect width="21.0048" height="21.0157" fill="white" transform="translate(0.453613 0.82373)"/>
</clipPath>
</defs>
</svg>
