<svg width="48" height="49" viewBox="0 0 48 49" fill="none" xmlns="http://www.w3.org/2000/svg">
<circle opacity="0.6" cx="24" cy="24.9375" r="24" fill="#0979FD"/>
<circle cx="23.9999" cy="24.9374" r="19.5556" fill="#2391FD"/>
<path d="M31 29.42V32.956C31.0001 33.2092 30.9042 33.453 30.7316 33.6382C30.559 33.8234 30.3226 33.9363 30.07 33.954C29.633 33.984 29.276 34 29 34C20.163 34 13 26.837 13 18C13 17.724 13.015 17.367 13.046 16.93C13.0637 16.6774 13.1766 16.441 13.3618 16.2684C13.547 16.0958 13.7908 15.9999 14.044 16H17.58C17.704 15.9999 17.8237 16.0459 17.9157 16.129C18.0078 16.2122 18.0656 16.3266 18.078 16.45C18.101 16.68 18.122 16.863 18.142 17.002C18.3407 18.3889 18.748 19.7378 19.35 21.003C19.445 21.203 19.383 21.442 19.203 21.57L17.045 23.112C18.3645 26.1865 20.8145 28.6365 23.889 29.956L25.429 27.802C25.4919 27.714 25.5838 27.6509 25.6885 27.6237C25.7932 27.5964 25.9042 27.6068 26.002 27.653C27.267 28.2539 28.6156 28.6601 30.002 28.858C30.141 28.878 30.324 28.9 30.552 28.922C30.6752 28.9346 30.7894 28.9926 30.8724 29.0846C30.9553 29.1766 31.0012 29.2961 31.001 29.42H31Z" fill="white"/>
</svg>
