<svg width="24" height="24" viewBox="0 0 24 24" fill="none" xmlns="http://www.w3.org/2000/svg">
<path d="M15.7071 10.7071C16.0976 10.3166 16.0976 9.68342 15.7071 9.29289C15.3166 8.90237 14.6834 8.90237 14.2929 9.29289L15.7071 10.7071ZM12 13L11.2929 13.7071C11.4804 13.8946 11.7348 14 12 14C12.2652 14 12.5196 13.8946 12.7071 13.7071L12 13ZM9.70711 9.29289C9.31658 8.90237 8.68342 8.90237 8.29289 9.29289C7.90237 9.68342 7.90237 10.3166 8.29289 10.7071L9.70711 9.29289ZM14.2929 9.29289L11.2929 12.2929L12.7071 13.7071L15.7071 10.7071L14.2929 9.29289ZM12.7071 12.2929L9.70711 9.29289L8.29289 10.7071L11.2929 13.7071L12.7071 12.2929Z" fill="#0979FD"/>
</svg>
