<svg width="80" height="81" viewBox="0 0 80 81" fill="none" xmlns="http://www.w3.org/2000/svg">
<path d="M0 40.418C0 18.3266 17.9086 0.417969 40 0.417969C62.0914 0.417969 80 18.3266 80 40.418C80 62.5094 62.0914 80.418 40 80.418C17.9086 80.418 0 62.5094 0 40.418Z" fill="#F3F9FF"/>
<path fill-rule="evenodd" clip-rule="evenodd" d="M20 27.418H56H60C61.1046 27.418 62 28.3134 62 29.418V52.418C62 53.5225 61.1046 54.418 60 54.418H20C18.8954 54.418 18 53.5225 18 52.418V29.418C18 28.3134 18.8954 27.418 20 27.418ZM55 25.418V12.418C55 11.8657 55.4477 11.418 56 11.418C56.5523 11.418 57 11.8657 57 12.418V25.418H60C62.2091 25.418 64 27.2088 64 29.418V52.418C64 54.6271 62.2091 56.418 60 56.418H20C17.7909 56.418 16 54.6271 16 52.418V29.418C16 27.2088 17.7909 25.418 20 25.418H55ZM30.5011 37.7097C33.0161 35.3776 36.2448 34.098 39.5801 34.098C42.9153 34.098 46.144 35.3776 48.659 37.7097C49.0003 38.0261 49.5349 38.0076 49.8531 37.6683C50.1713 37.3291 50.1527 36.7975 49.8114 36.4811C46.9925 33.8672 43.3551 32.418 39.5801 32.418C35.805 32.418 32.1676 33.8672 29.3487 36.4811C29.0075 36.7975 28.9888 37.3291 29.3071 37.6683C29.6253 38.0076 30.1599 38.0261 30.5011 37.7097ZM33.7506 41.1332C35.4042 39.6843 37.4802 38.897 39.6166 38.897C41.7531 38.897 43.8291 39.6843 45.4827 41.1332C45.8327 41.4399 46.3666 41.4064 46.6751 41.0584C46.9836 40.7103 46.9499 40.1795 46.5998 39.8728C44.6458 38.1607 42.1752 37.217 39.6166 37.217C37.058 37.217 34.5875 38.1607 32.6335 39.8728C32.2834 40.1795 32.2497 40.7103 32.5582 41.0584C32.8667 41.4064 33.4005 41.4399 33.7506 41.1332ZM36.9215 44.592C37.7047 44.0066 38.6357 43.6961 39.5851 43.6961C40.5346 43.6961 41.4656 44.0066 42.2488 44.592C42.6217 44.8707 43.1514 44.796 43.4317 44.4252C43.7121 44.0544 43.637 43.5278 43.264 43.249C42.1943 42.4496 40.9086 42.0161 39.5851 42.0161C38.2617 42.0161 36.976 42.4496 35.9063 43.249C35.5333 43.5278 35.4582 44.0544 35.7386 44.4252C36.0189 44.796 36.5485 44.8707 36.9215 44.592ZM38.0111 47.658C38.0111 46.7964 38.7136 46.098 39.5801 46.098C40.4466 46.098 41.149 46.7964 41.149 47.658C41.149 48.5195 40.4466 49.218 39.5801 49.218C38.7136 49.218 38.0111 48.5195 38.0111 47.658Z" fill="#0979FD"/>
</svg>
