<svg width="80" height="81" viewBox="0 0 80 81" fill="none" xmlns="http://www.w3.org/2000/svg">
<path d="M0 40.418C0 18.3266 17.9086 0.417969 40 0.417969C62.0914 0.417969 80 18.3266 80 40.418C80 62.5094 62.0914 80.418 40 80.418C17.9086 80.418 0 62.5094 0 40.418Z" fill="#F3F9FF"/>
<g clip-path="url(#clip0_22786_15679)">
<path fill-rule="evenodd" clip-rule="evenodd" d="M60 18.418H20C18.8954 18.418 18 19.3134 18 20.418V60.418C18 61.5225 18.8954 62.418 20 62.418H60C61.1046 62.418 62 61.5225 62 60.418V20.418C62 19.3134 61.1046 18.418 60 18.418ZM20 16.418C17.7909 16.418 16 18.2088 16 20.418V60.418C16 62.6271 17.7909 64.418 20 64.418H60C62.2091 64.418 64 62.6271 64 60.418V20.418C64 18.2088 62.2091 16.418 60 16.418H20ZM27.7071 35.7109C28.0976 36.1014 28.0976 36.7346 27.7071 37.1251L24.4142 40.418L27.7071 43.7109C28.0976 44.1014 28.0976 44.7346 27.7071 45.1251C27.3166 45.5156 26.6834 45.5156 26.2929 45.1251L22.2929 41.1251C21.9024 40.7346 21.9024 40.1014 22.2929 39.7109L26.2929 35.7109C26.6834 35.3203 27.3166 35.3203 27.7071 35.7109ZM36.7071 28.1251C36.3166 28.5156 35.6834 28.5156 35.2929 28.1251C34.9024 27.7346 34.9024 27.1014 35.2929 26.7109L39.2929 22.7109C39.6834 22.3203 40.3166 22.3203 40.7071 22.7109L44.7071 26.7109C45.0976 27.1014 45.0976 27.7346 44.7071 28.1251C44.3166 28.5156 43.6834 28.5156 43.2929 28.1251L40 24.8322L36.7071 28.1251ZM35.2929 52.7109C35.6834 52.3203 36.3166 52.3203 36.7071 52.7109L40 56.0038L43.2929 52.7109C43.6834 52.3203 44.3166 52.3203 44.7071 52.7109C45.0976 53.1014 45.0976 53.7346 44.7071 54.1251L40.7071 58.1251C40.3166 58.5156 39.6834 58.5156 39.2929 58.1251L35.2929 54.1251C34.9024 53.7346 34.9024 53.1014 35.2929 52.7109ZM52.2929 37.1251C51.9024 36.7346 51.9024 36.1014 52.2929 35.7109C52.6834 35.3203 53.3166 35.3203 53.7071 35.7109L57.7071 39.7109C58.0976 40.1014 58.0976 40.7346 57.7071 41.1251L53.7071 45.1251C53.3166 45.5156 52.6834 45.5156 52.2929 45.1251C51.9024 44.7346 51.9024 44.1014 52.2929 43.7109L55.5858 40.418L52.2929 37.1251Z" fill="#0979FD"/>
</g>
<defs>
<clipPath id="clip0_22786_15679">
<rect width="48" height="48" fill="white" transform="translate(16 16.418)"/>
</clipPath>
</defs>
</svg>
