<svg width="80" height="81" viewBox="0 0 80 81" fill="none" xmlns="http://www.w3.org/2000/svg">
<path d="M0 40.8359C0 18.7445 17.9086 0.835938 40 0.835938C62.0914 0.835938 80 18.7445 80 40.8359C80 62.9273 62.0914 80.8359 40 80.8359C17.9086 80.8359 0 62.9273 0 40.8359Z" fill="#F3F9FF"/>
<path fill-rule="evenodd" clip-rule="evenodd" d="M30.5 24.3818C30.9783 24.1057 31.1422 23.4941 30.866 23.0158C30.5899 22.5375 29.9783 22.3736 29.5 22.6498C26.3076 24.4929 23.6566 27.1439 21.8135 30.3363C19.9703 33.5287 19 37.15 19 40.8363C19 44.5226 19.9703 48.1439 21.8135 51.3363C23.6566 54.5287 26.3076 57.1797 29.5 59.0228C29.9783 59.299 30.5899 59.1351 30.866 58.6568C31.1422 58.1785 30.9783 57.5669 30.5 57.2908C27.6116 55.6232 25.2131 53.2247 23.5455 50.3363C21.8779 47.4479 21 44.1715 21 40.8363C21 37.5011 21.8779 34.2247 23.5455 31.3363C25.2131 28.4479 27.6116 26.0494 30.5 24.3818ZM44 40.8361C44 43.0452 42.2091 44.8361 40 44.8361C37.7909 44.8361 36 43.0452 36 40.8361C36 38.627 37.7909 36.8361 40 36.8361C42.2091 36.8361 44 38.627 44 40.8361ZM46 40.8361C46 44.1498 43.3137 46.8361 40 46.8361C36.6863 46.8361 34 44.1498 34 40.8361C34 37.5224 36.6863 34.8361 40 34.8361C43.3137 34.8361 46 37.5224 46 40.8361ZM49.134 23.0158C48.8578 23.4941 49.0217 24.1057 49.5 24.3818C52.3884 26.0494 54.7869 28.4479 56.4545 31.3363C58.1221 34.2247 59 37.5011 59 40.8363C59 44.1715 58.1221 47.4479 56.4545 50.3363C54.7869 53.2247 52.3884 55.6232 49.5 57.2908C49.0217 57.5669 48.8578 58.1785 49.134 58.6568C49.4101 59.1351 50.0217 59.299 50.5 59.0228C53.6924 57.1797 56.3434 54.5287 58.1865 51.3363C60.0297 48.1439 61 44.5226 61 40.8363C61 37.15 60.0297 33.5287 58.1865 30.3363C56.3434 27.1439 53.6924 24.4929 50.5 22.6498C50.0217 22.3736 49.4101 22.5375 49.134 23.0158ZM34.6197 31.2415C35.1015 30.9714 35.273 30.3619 35.0028 29.8802C34.7327 29.3985 34.1232 29.227 33.6415 29.4971C31.6511 30.6132 29.9896 32.2336 28.824 34.1955C27.6583 36.1573 27.0296 38.3913 27.001 40.6731C26.9724 42.9549 27.545 45.2041 28.6612 47.1944C29.7773 49.1848 31.3977 50.8463 33.3595 52.012C33.8343 52.2941 34.4479 52.1379 34.73 51.6631C35.0121 51.1883 34.8559 50.5747 34.3811 50.2926C32.7211 49.3063 31.35 47.9004 30.4056 46.2162C29.4612 44.532 28.9767 42.6289 29.0009 40.6982C29.025 38.7674 29.557 36.8771 30.5433 35.2171C31.5297 33.5571 32.9356 32.186 34.6197 31.2415ZM45.5111 31.2415C45.0294 30.9714 44.8579 30.3619 45.128 29.8802C45.3981 29.3985 46.0076 29.227 46.4894 29.4971C48.4797 30.6132 50.1413 32.2336 51.3069 34.1955C52.4726 36.1573 53.1013 38.3913 53.1298 40.6731C53.1584 42.9549 52.5859 45.2041 51.4697 47.1944C50.3536 49.1848 48.7331 50.8463 46.7713 52.012C46.2965 52.2941 45.6829 52.1379 45.4008 51.6631C45.1187 51.1883 45.2749 50.5747 45.7497 50.2926C47.4097 49.3063 48.7808 47.9004 49.7253 46.2162C50.6697 44.532 51.1542 42.6289 51.13 40.6982C51.1058 38.7674 50.5738 36.8771 49.5875 35.2171C48.6012 33.5571 47.1953 32.186 45.5111 31.2415Z" fill="#0979FD"/>
</svg>
