<svg width="48" height="48" viewBox="0 0 48 48" fill="none" xmlns="http://www.w3.org/2000/svg">
<path fill-rule="evenodd" clip-rule="evenodd" d="M44 2H4C2.89543 2 2 2.89543 2 4V44C2 45.1046 2.89543 46 4 46H44C45.1046 46 46 45.1046 46 44V4C46 2.89543 45.1046 2 44 2ZM48 4C48 1.79086 46.2091 0 44 0H4C1.79086 0 0 1.79086 0 4V44C0 46.2091 1.79086 48 4 48H44C46.2091 48 48 46.2091 48 44V4ZM12.56 9.12C12.56 10.9718 11.2759 12.5238 9.54956 12.9339L9.54956 41.0078C9.54956 41.5601 9.10185 42.0078 8.54956 42.0078C7.99728 42.0078 7.54956 41.5601 7.54956 41.0078L7.54956 12.8863C5.91516 12.414 4.72 10.9066 4.72 9.12C4.72 6.95504 6.47504 5.2 8.64 5.2C10.805 5.2 12.56 6.95504 12.56 9.12ZM10.56 9.12C10.56 10.1804 9.70039 11.04 8.64 11.04C7.57961 11.04 6.72 10.1804 6.72 9.12C6.72 8.05961 7.57961 7.2 8.64 7.2C9.70039 7.2 10.56 8.05961 10.56 9.12ZM27.92 19.68C27.92 21.5142 26.6602 23.0542 24.9587 23.4819V42C24.9587 42.5523 24.511 43 23.9587 43C23.4065 43 22.9587 42.5523 22.9587 42V23.4602C21.2992 23.0041 20.08 21.4844 20.08 19.68C20.08 17.8756 21.2992 16.3559 22.9587 15.8998V7.02647C22.9587 6.47419 23.4065 6.02647 23.9587 6.02647C24.511 6.02647 24.9587 6.47419 24.9587 7.02647V15.8781C26.6602 16.3058 27.92 17.8458 27.92 19.68ZM23.8665 17.7646C23.8969 17.7673 23.9276 17.7688 23.9587 17.7688C23.9995 17.7688 24.0396 17.7663 24.0791 17.7616C25.1028 17.8031 25.92 18.6461 25.92 19.68C25.92 20.7404 25.0604 21.6 24 21.6C22.9396 21.6 22.08 20.7404 22.08 19.68C22.08 18.6645 22.8684 17.8331 23.8665 17.7646ZM40.5605 35.1473C42.1382 35.6543 43.28 37.1338 43.28 38.88C43.28 41.045 41.525 42.8 39.36 42.8C37.195 42.8 35.44 41.045 35.44 38.88C35.44 36.989 36.779 35.4107 38.5605 35.0416V7.02647C38.5605 6.47419 39.0083 6.02647 39.5605 6.02647C40.1128 6.02647 40.5605 6.47419 40.5605 7.02647V35.1473ZM41.28 38.88C41.28 37.8196 40.4204 36.96 39.36 36.96C38.2996 36.96 37.44 37.8196 37.44 38.88C37.44 39.9404 38.2996 40.8 39.36 40.8C40.4204 40.8 41.28 39.9404 41.28 38.88Z" fill="url(#paint0_linear_21824_9167)"/>
<defs>
<linearGradient id="paint0_linear_21824_9167" x1="-4.6799e-08" y1="24" x2="50.9739" y2="25.6511" gradientUnits="userSpaceOnUse">
<stop stop-color="#0091EF"/>
<stop offset="1" stop-color="#32D7D4"/>
</linearGradient>
</defs>
</svg>
