<svg width="32" height="32" viewBox="0 0 32 32" fill="none" xmlns="http://www.w3.org/2000/svg">
<circle cx="16" cy="16" r="16" fill="#1A7DD8"/>
<path d="M21.81 8.47C21.73 8.47 21.65 8.45 21.58 8.41C19.66 7.42 18 7 16.01 7C14.03 7 12.15 7.47 10.44 8.41C10.2 8.54 9.89999 8.45 9.75999 8.21C9.62999 7.97 9.71999 7.66 9.95999 7.53C11.82 6.52 13.86 6 16.01 6C18.14 6 20 6.47 22.04 7.52C22.29 7.65 22.38 7.95 22.25 8.19C22.16 8.37 21.99 8.47 21.81 8.47ZM7.49998 13.72C7.39998 13.72 7.29999 13.69 7.20999 13.63C6.97999 13.47 6.92998 13.16 7.08998 12.93C8.07998 11.53 9.33999 10.43 10.84 9.66C13.98 8.04 18 8.03 21.15 9.65C22.65 10.42 23.91 11.51 24.9 12.9C25.06 13.12 25.01 13.44 24.78 13.6C24.55 13.76 24.24 13.71 24.08 13.48C23.18 12.22 22.04 11.23 20.69 10.54C17.82 9.07 14.15 9.07 11.29 10.55C9.92999 11.25 8.78999 12.25 7.88999 13.51C7.80999 13.65 7.65998 13.72 7.49998 13.72ZM13.75 25.79C13.62 25.79 13.49 25.74 13.4 25.64C12.53 24.77 12.06 24.21 11.39 23C10.7 21.77 10.34 20.27 10.34 18.66C10.34 15.69 12.88 13.27 16 13.27C19.12 13.27 21.66 15.69 21.66 18.66C21.66 18.94 21.44 19.16 21.16 19.16C20.88 19.16 20.66 18.94 20.66 18.66C20.66 16.24 18.57 14.27 16 14.27C13.43 14.27 11.34 16.24 11.34 18.66C11.34 20.1 11.66 21.43 12.27 22.51C12.91 23.66 13.35 24.15 14.12 24.93C14.31 25.13 14.31 25.44 14.12 25.64C14.01 25.74 13.88 25.79 13.75 25.79ZM20.92 23.94C19.73 23.94 18.68 23.64 17.82 23.05C16.33 22.04 15.44 20.4 15.44 18.66C15.44 18.38 15.66 18.16 15.94 18.16C16.22 18.16 16.44 18.38 16.44 18.66C16.44 20.07 17.16 21.4 18.38 22.22C19.09 22.7 19.92 22.93 20.92 22.93C21.16 22.93 21.56 22.9 21.96 22.83C22.23 22.78 22.49 22.96 22.54 23.24C22.59 23.51 22.41 23.77 22.13 23.82C21.56 23.93 21.06 23.94 20.92 23.94ZM18.91 26C18.87 26 18.82 25.99 18.78 25.98C17.19 25.54 16.15 24.95 15.06 23.88C13.66 22.49 12.89 20.64 12.89 18.66C12.89 17.04 14.27 15.72 15.97 15.72C17.67 15.72 19.05 17.04 19.05 18.66C19.05 19.73 19.98 20.6 21.13 20.6C22.28 20.6 23.21 19.73 23.21 18.66C23.21 14.89 19.96 11.83 15.96 11.83C13.12 11.83 10.52 13.41 9.34998 15.86C8.95998 16.67 8.75999 17.62 8.75999 18.66C8.75999 19.44 8.82998 20.67 9.42998 22.27C9.52998 22.53 9.39998 22.82 9.13998 22.91C8.87998 23.01 8.58999 22.87 8.49998 22.62C8.00998 21.31 7.76998 20.01 7.76998 18.66C7.76998 17.46 7.99998 16.37 8.44998 15.42C9.77998 12.63 12.73 10.82 15.96 10.82C20.51 10.82 24.21 14.33 24.21 18.65C24.21 20.27 22.83 21.59 21.13 21.59C19.43 21.59 18.05 20.27 18.05 18.65C18.05 17.58 17.12 16.71 15.97 16.71C14.82 16.71 13.89 17.58 13.89 18.65C13.89 20.36 14.55 21.96 15.76 23.16C16.71 24.1 17.62 24.62 19.03 25.01C19.3 25.08 19.45 25.36 19.38 25.62C19.33 25.85 19.12 26 18.91 26Z" fill="#F6ECD8"/>
</svg>
