<svg width="290" height="196" viewBox="0 0 290 196" fill="none" xmlns="http://www.w3.org/2000/svg">
<g filter="url(#filter0_bd_4943_11856)">
<rect x="14" y="3" width="254.38" height="160.834" rx="19.6939" fill="white" fill-opacity="0.7" shape-rendering="crispEdges"/>
<path d="M36.7952 28.1379C35.9352 28.1379 35.259 27.8129 34.7667 27.163C34.2809 26.5 34.038 25.6302 34.038 24.5536C34.038 23.477 34.2809 22.6104 34.7667 21.954C35.259 21.2975 35.9352 20.9693 36.7952 20.9693C37.6683 20.9693 38.3444 21.2975 38.8236 21.954C39.3094 22.6104 39.5523 23.477 39.5523 24.5536C39.5523 25.6302 39.3094 26.5 38.8236 27.163C38.3378 27.8129 37.6617 28.1379 36.7952 28.1379ZM38.2033 24.5536C38.2033 23.8183 38.0818 23.257 37.8389 22.8697C37.6026 22.4824 37.2547 22.2888 36.7952 22.2888C36.3356 22.2888 35.9877 22.4824 35.7514 22.8697C35.515 23.257 35.3969 23.8183 35.3969 24.5536C35.3969 25.2888 35.515 25.8501 35.7514 26.2374C35.9877 26.6181 36.3356 26.8085 36.7952 26.8085C37.2547 26.8085 37.6026 26.6181 37.8389 26.2374C38.0818 25.8501 38.2033 25.2888 38.2033 24.5536ZM44.2088 24.4157C44.8455 24.7965 45.1639 25.3512 45.1639 26.0798C45.1639 26.3949 45.1048 26.6805 44.9867 26.9365C44.8751 27.1925 44.711 27.4092 44.4943 27.5864C44.2843 27.7637 44.025 27.9015 43.7164 28C43.4145 28.0919 43.0731 28.1379 42.6923 28.1379C42.305 28.1379 41.9571 28.0919 41.6486 28C41.3466 27.9015 41.0906 27.7637 40.8805 27.5864C40.6704 27.4092 40.5063 27.1925 40.3881 26.9365C40.2765 26.6805 40.2207 26.3949 40.2207 26.0798C40.2207 25.3577 40.5359 24.803 41.1661 24.4157C40.6868 24.0743 40.4472 23.5984 40.4472 22.9879C40.4472 22.3511 40.6606 21.8555 41.0873 21.501C41.5205 21.1465 42.0556 20.9693 42.6923 20.9693C43.3291 20.9693 43.8608 21.1465 44.2875 21.501C44.7143 21.8555 44.9276 22.3511 44.9276 22.9879C44.9276 23.5984 44.688 24.0743 44.2088 24.4157ZM43.3324 22.466C43.1683 22.3216 42.9549 22.2494 42.6923 22.2494C42.4298 22.2494 42.2164 22.3216 42.0523 22.466C41.8882 22.6104 41.8061 22.8074 41.8061 23.0568C41.8061 23.3128 41.8882 23.5131 42.0523 23.6575C42.2164 23.8019 42.4298 23.8741 42.6923 23.8741C42.9549 23.8741 43.1683 23.8019 43.3324 23.6575C43.4965 23.5131 43.5786 23.3128 43.5786 23.0568C43.5786 22.8074 43.4965 22.6104 43.3324 22.466ZM43.8149 25.9026C43.8149 25.6072 43.7099 25.3774 43.4998 25.2133C43.2963 25.0426 43.0271 24.9573 42.6923 24.9573C42.3575 24.9573 42.0851 25.0426 41.875 25.2133C41.6715 25.3774 41.5698 25.6072 41.5698 25.9026C41.5698 26.2046 41.6715 26.4409 41.875 26.6116C42.0851 26.7757 42.3575 26.8578 42.6923 26.8578C43.0271 26.8578 43.2963 26.7757 43.4998 26.6116C43.7099 26.4409 43.8149 26.2046 43.8149 25.9026ZM47.4027 24.3566C47.2386 24.5207 47.0417 24.6028 46.8119 24.6028C46.5822 24.6028 46.3852 24.5207 46.2211 24.3566C46.057 24.1925 45.9749 23.9956 45.9749 23.7658C45.9749 23.536 46.057 23.3391 46.2211 23.175C46.3852 23.0109 46.5822 22.9288 46.8119 22.9288C47.0417 22.9288 47.2386 23.0109 47.4027 23.175C47.5668 23.3391 47.6489 23.536 47.6489 23.7658C47.6489 23.9956 47.5668 24.1925 47.4027 24.3566ZM47.4027 27.8818C47.2386 28.046 47.0417 28.128 46.8119 28.128C46.5822 28.128 46.3852 28.046 46.2211 27.8818C46.057 27.7177 45.9749 27.5208 45.9749 27.291C45.9749 27.0613 46.057 26.8643 46.2211 26.7002C46.3852 26.5361 46.5822 26.454 46.8119 26.454C47.0417 26.454 47.2386 26.5361 47.4027 26.7002C47.5668 26.8643 47.6489 27.0613 47.6489 27.291C47.6489 27.5208 47.5668 27.7177 47.4027 27.8818ZM53.7006 25.5678V26.8282H52.9621V28H51.5934V26.8282H48.334V25.5678L50.6284 21.1071H52.0857L49.8012 25.5678H51.5934V23.9332H52.9621V25.5678H53.7006ZM56.5964 23.6181C57.266 23.6181 57.824 23.8183 58.2704 24.2188C58.7234 24.6126 58.9498 25.1641 58.9498 25.8731C58.9498 26.582 58.7102 27.1367 58.231 27.5372C57.7649 27.9376 57.184 28.1379 56.4881 28.1379C55.9301 28.1379 55.4378 28.0164 55.0111 27.7735C54.5844 27.5241 54.2758 27.1532 54.0854 26.6608L55.2474 25.9814C55.4115 26.5328 55.8251 26.8085 56.4881 26.8085C56.8426 26.8085 57.115 26.7265 57.3054 26.5623C57.4958 26.3982 57.591 26.1685 57.591 25.8731C57.591 25.5908 57.4958 25.3643 57.3054 25.1936C57.1216 25.0229 56.8623 24.9376 56.5275 24.9376H54.4399L54.7156 21.1071H58.6249V22.3774H55.9761L55.8874 23.6181H56.5964Z" fill="#4897E0"/>
<rect x="63.2344" y="19" width="0.820581" height="13.1293" fill="#E8F2FB"/>
<path d="M71.1339 27.0055C70.7843 27.4929 70.2944 27.7366 69.6642 27.7366C69.0291 27.7366 68.5392 27.4929 68.1946 27.0055C67.845 26.5131 67.6702 25.8632 67.6702 25.0558C67.6702 24.2483 67.845 23.5984 68.1946 23.1061C68.5392 22.6187 69.0291 22.375 69.6642 22.375C70.2944 22.375 70.7843 22.6187 71.1339 23.1061C71.4835 23.5984 71.6583 24.2483 71.6583 25.0558C71.6583 25.8632 71.4835 26.5131 71.1339 27.0055ZM68.3571 25.0558C68.3571 25.7008 68.4703 26.198 68.6968 26.5476C68.9233 26.8923 69.2457 27.0646 69.6642 27.0646C70.0827 27.0646 70.4052 26.8923 70.6317 26.5476C70.8631 26.198 70.9788 25.7008 70.9788 25.0558C70.9788 24.4108 70.8631 23.9135 70.6317 23.564C70.4052 23.2144 70.0827 23.0396 69.6642 23.0396C69.2457 23.0396 68.9233 23.2144 68.6968 23.564C68.4703 23.9086 68.3571 24.4059 68.3571 25.0558ZM75.0029 24.9672C75.254 25.0952 75.4509 25.2675 75.5937 25.4841C75.7365 25.6958 75.8079 25.942 75.8079 26.2227C75.8079 26.6953 75.6429 27.067 75.3131 27.3378C74.9783 27.6037 74.5524 27.7366 74.0354 27.7366C73.5185 27.7366 73.095 27.6037 72.7652 27.3378C72.4353 27.067 72.2704 26.6953 72.2704 26.2227C72.2704 25.942 72.3417 25.6958 72.4845 25.4841C72.6273 25.2675 72.8243 25.0952 73.0753 24.9672C72.6519 24.7013 72.4402 24.3247 72.4402 23.8372C72.4402 23.3695 72.5953 23.0101 72.9055 22.759C73.2206 22.503 73.5972 22.375 74.0354 22.375C74.4835 22.375 74.8601 22.503 75.1654 22.759C75.4805 23.0101 75.638 23.3695 75.638 23.8372C75.638 24.3247 75.4263 24.7013 75.0029 24.9672ZM74.0354 23.0322C73.7696 23.0322 73.5505 23.1012 73.3781 23.239C73.2058 23.3769 73.1197 23.5812 73.1197 23.852C73.1197 24.1179 73.2083 24.3222 73.3855 24.465C73.5628 24.6078 73.7794 24.6791 74.0354 24.6791C74.2915 24.6791 74.5081 24.6078 74.6853 24.465C74.8626 24.3222 74.9512 24.1179 74.9512 23.852C74.9512 23.5812 74.865 23.3769 74.6927 23.239C74.5204 23.1012 74.3013 23.0322 74.0354 23.0322ZM74.0354 27.0793C74.3653 27.0793 74.6287 27.003 74.8256 26.8504C75.0275 26.6978 75.1284 26.4738 75.1284 26.1783C75.1284 25.8928 75.0275 25.6737 74.8256 25.5211C74.6287 25.3635 74.3653 25.2847 74.0354 25.2847C73.7105 25.2847 73.4471 25.3635 73.2452 25.5211C73.0483 25.6737 72.9498 25.8928 72.9498 26.1783C72.9498 26.4738 73.0483 26.6978 73.2452 26.8504C73.4471 27.003 73.7105 27.0793 74.0354 27.0793ZM78.5972 28.3791H78.2132L81.1673 21.7324H81.5513L78.5972 28.3791ZM87.4766 27.0055C87.127 27.4929 86.6372 27.7366 86.0069 27.7366C85.3718 27.7366 84.8819 27.4929 84.5373 27.0055C84.1877 26.5131 84.0129 25.8632 84.0129 25.0558C84.0129 24.2483 84.1877 23.5984 84.5373 23.1061C84.8819 22.6187 85.3718 22.375 86.0069 22.375C86.6372 22.375 87.127 22.6187 87.4766 23.1061C87.8262 23.5984 88.001 24.2483 88.001 25.0558C88.001 25.8632 87.8262 26.5131 87.4766 27.0055ZM84.6998 25.0558C84.6998 25.7008 84.813 26.198 85.0395 26.5476C85.266 26.8923 85.5884 27.0646 86.0069 27.0646C86.4254 27.0646 86.7479 26.8923 86.9744 26.5476C87.2058 26.198 87.3215 25.7008 87.3215 25.0558C87.3215 24.4108 87.2058 23.9135 86.9744 23.564C86.7479 23.2144 86.4254 23.0396 86.0069 23.0396C85.5884 23.0396 85.266 23.2144 85.0395 23.564C84.813 23.9086 84.6998 24.4059 84.6998 25.0558ZM91.3456 24.9672C91.5967 25.0952 91.7936 25.2675 91.9364 25.4841C92.0792 25.6958 92.1506 25.942 92.1506 26.2227C92.1506 26.6953 91.9857 27.067 91.6558 27.3378C91.321 27.6037 90.8951 27.7366 90.3781 27.7366C89.8612 27.7366 89.4377 27.6037 89.1079 27.3378C88.778 27.067 88.6131 26.6953 88.6131 26.2227C88.6131 25.942 88.6845 25.6958 88.8272 25.4841C88.97 25.2675 89.167 25.0952 89.4181 24.9672C88.9946 24.7013 88.7829 24.3247 88.7829 23.8372C88.7829 23.3695 88.938 23.0101 89.2482 22.759C89.5633 22.503 89.9399 22.375 90.3781 22.375C90.8262 22.375 91.2028 22.503 91.5081 22.759C91.8232 23.0101 91.9807 23.3695 91.9807 23.8372C91.9807 24.3247 91.769 24.7013 91.3456 24.9672ZM90.3781 23.0322C90.1123 23.0322 89.8932 23.1012 89.7208 23.239C89.5485 23.3769 89.4624 23.5812 89.4624 23.852C89.4624 24.1179 89.551 24.3222 89.7282 24.465C89.9055 24.6078 90.1221 24.6791 90.3781 24.6791C90.6342 24.6791 90.8508 24.6078 91.028 24.465C91.2053 24.3222 91.2939 24.1179 91.2939 23.852C91.2939 23.5812 91.2077 23.3769 91.0354 23.239C90.8631 23.1012 90.644 23.0322 90.3781 23.0322ZM90.3781 27.0793C90.708 27.0793 90.9714 27.003 91.1684 26.8504C91.3702 26.6978 91.4711 26.4738 91.4711 26.1783C91.4711 25.8928 91.3702 25.6737 91.1684 25.5211C90.9714 25.3635 90.708 25.2847 90.3781 25.2847C90.0532 25.2847 89.7898 25.3635 89.5879 25.5211C89.391 25.6737 89.2925 25.8928 89.2925 26.1783C89.2925 26.4738 89.391 26.6978 89.5879 26.8504C89.7898 27.003 90.0532 27.0793 90.3781 27.0793ZM94.9399 28.3791H94.5559L97.51 21.7324H97.894L94.9399 28.3791ZM100.289 27.6406V27.0793L102.113 25.2183C102.601 24.7308 102.844 24.3123 102.844 23.9628C102.844 23.6674 102.756 23.4409 102.579 23.2833C102.401 23.1209 102.185 23.0396 101.929 23.0396C101.441 23.0396 101.087 23.271 100.865 23.7338L100.289 23.3941C100.452 23.0544 100.676 22.8008 100.961 22.6334C101.247 22.4611 101.567 22.375 101.921 22.375C102.359 22.375 102.736 22.5177 103.051 22.8033C103.371 23.0938 103.531 23.4778 103.531 23.9554C103.531 24.4773 103.224 25.0459 102.608 25.6614L101.286 26.976H103.627V27.6406H100.289ZM107.642 27.0055C107.292 27.4929 106.802 27.7366 106.172 27.7366C105.537 27.7366 105.047 27.4929 104.702 27.0055C104.353 26.5131 104.178 25.8632 104.178 25.0558C104.178 24.2483 104.353 23.5984 104.702 23.1061C105.047 22.6187 105.537 22.375 106.172 22.375C106.802 22.375 107.292 22.6187 107.642 23.1061C107.991 23.5984 108.166 24.2483 108.166 25.0558C108.166 25.8632 107.991 26.5131 107.642 27.0055ZM104.865 25.0558C104.865 25.7008 104.978 26.198 105.205 26.5476C105.431 26.8923 105.754 27.0646 106.172 27.0646C106.591 27.0646 106.913 26.8923 107.14 26.5476C107.371 26.198 107.487 25.7008 107.487 25.0558C107.487 24.4108 107.371 23.9135 107.14 23.564C106.913 23.2144 106.591 23.0396 106.172 23.0396C105.754 23.0396 105.431 23.2144 105.205 23.564C104.978 23.9086 104.865 24.4059 104.865 25.0558ZM108.67 27.6406V27.0793L110.494 25.2183C110.981 24.7308 111.225 24.3123 111.225 23.9628C111.225 23.6674 111.136 23.4409 110.959 23.2833C110.782 23.1209 110.565 23.0396 110.309 23.0396C109.822 23.0396 109.467 23.271 109.246 23.7338L108.67 23.3941C108.832 23.0544 109.056 22.8008 109.342 22.6334C109.627 22.4611 109.947 22.375 110.302 22.375C110.74 22.375 111.117 22.5177 111.432 22.8033C111.752 23.0938 111.912 23.4778 111.912 23.9554C111.912 24.4773 111.604 25.0459 110.989 25.6614L109.667 26.976H112.008V27.6406H108.67ZM113.725 22.471H114.315V27.6406H113.636V23.2095L112.536 23.5344L112.366 22.9436L113.725 22.471Z" fill="#4897E0"/>
<path d="M34.166 47.4121V46.4143L37.409 43.1057C38.2755 42.2392 38.7088 41.4952 38.7088 40.8737C38.7088 40.3485 38.5512 39.9459 38.2361 39.6658C37.921 39.377 37.5359 39.2326 37.0807 39.2326C36.2142 39.2326 35.584 39.6439 35.1901 40.4667L34.166 39.8628C34.4549 39.2588 34.8531 38.808 35.3608 38.5104C35.8684 38.2041 36.4374 38.0509 37.0676 38.0509C37.8466 38.0509 38.5162 38.3048 39.0764 38.8124C39.6453 39.3288 39.9298 40.0116 39.9298 40.8606C39.9298 41.7884 39.3827 42.7993 38.2886 43.8935L35.9385 46.2305H40.1005V47.4121H34.166ZM43.1525 38.2216H44.2029V47.4121H42.995V39.5345L41.0387 40.1122L40.7367 39.0619L43.1525 38.2216ZM48.7777 41.8059C49.6442 41.8059 50.3751 42.0641 50.9703 42.5805C51.5742 43.0969 51.8762 43.8016 51.8762 44.6943C51.8762 45.5959 51.5699 46.3005 50.9572 46.8082C50.3357 47.3246 49.5917 47.5828 48.7252 47.5828C48.0162 47.5828 47.386 47.4165 46.8346 47.0839C46.2919 46.7425 45.9111 46.2524 45.6923 45.6134L46.7295 45.0226C46.8521 45.469 47.0884 45.8103 47.4385 46.0467C47.7886 46.2742 48.2175 46.388 48.7252 46.388C49.3029 46.388 49.7711 46.2392 50.13 45.9416C50.4889 45.644 50.6683 45.2283 50.6683 44.6943C50.6683 44.1604 50.4889 43.7447 50.13 43.4471C49.7711 43.1407 49.3116 42.9875 48.7514 42.9875H46.1518L46.4932 38.2216H51.5217V39.3638H47.5961L47.4385 41.8059H48.7777ZM62.0641 47.4121H60.6462L57.6527 44.3005V47.4121H56.5104V38.2216H57.6527V43.749L60.4886 40.8475H61.9591L58.8212 44.0247L62.0641 47.4121ZM65.2271 47.4121L62.5881 38.2216H63.8747L65.9754 45.7841L68.2074 38.2216H69.4416L71.6735 45.7841L73.7742 38.2216H75.0609L72.4219 47.4121H71.004L68.8245 40.0728L66.645 47.4121H65.2271ZM79.5249 40.6768C79.91 40.6768 80.2557 40.7424 80.5621 40.8737C80.8772 40.9963 81.1442 41.1757 81.363 41.412C81.5905 41.6396 81.7656 41.9197 81.8881 42.2523C82.0107 42.5849 82.072 42.9613 82.072 43.3814V47.4121H80.9297V43.4471C80.9297 42.9131 80.7853 42.5018 80.4964 42.2129C80.2076 41.9153 79.8093 41.7665 79.3017 41.7665C78.7327 41.7665 78.2732 41.9459 77.9231 42.3048C77.573 42.6549 77.3979 43.1976 77.3979 43.9328V47.4121H76.2557V38.2216H77.3979V41.7928C77.8531 41.0488 78.5621 40.6768 79.5249 40.6768Z" fill="#F37403"/>
<rect x="164.576" y="16.5392" width="83.6993" height="38.5673" rx="6.15436" fill="#EDF5FD"/>
<path d="M172.385 30.8268H175.585V31.6934H171.469V24.8005H175.536V25.667H172.385V27.7841H175.29V28.6408H172.385V30.8268ZM176.602 31.6934V24.5051H177.459V31.6934H176.602ZM179.366 29.6255C179.452 30.0653 179.652 30.4067 179.967 30.6496C180.282 30.8925 180.676 31.0139 181.149 31.0139C181.798 31.0139 182.271 30.7743 182.567 30.2951L183.295 30.7087C182.809 31.4505 182.087 31.8214 181.129 31.8214C180.354 31.8214 179.717 31.5785 179.219 31.0927C178.733 30.5938 178.49 29.9734 178.49 29.2316C178.49 28.4832 178.729 27.8662 179.209 27.3804C179.688 26.888 180.308 26.6419 181.07 26.6419C181.792 26.6419 182.379 26.8979 182.832 27.4099C183.292 27.9088 183.522 28.5194 183.522 29.2415C183.522 29.3728 183.512 29.5008 183.492 29.6255H179.366ZM181.07 27.4493C180.61 27.4493 180.23 27.5806 179.928 27.8432C179.626 28.0992 179.438 28.4439 179.366 28.8771H182.655C182.583 28.4045 182.399 28.05 182.104 27.8137C181.808 27.5708 181.464 27.4493 181.07 27.4493ZM186.821 31.8214C186.079 31.8214 185.462 31.5752 184.969 31.0828C184.477 30.5839 184.231 29.9669 184.231 29.2316C184.231 28.4964 184.477 27.8826 184.969 27.3902C185.462 26.8913 186.079 26.6419 186.821 26.6419C187.306 26.6419 187.743 26.76 188.13 26.9964C188.517 27.2261 188.806 27.5379 188.997 27.9318L188.278 28.3454C188.153 28.0828 187.963 27.8727 187.707 27.7152C187.451 27.5576 187.155 27.4789 186.821 27.4789C186.328 27.4789 185.915 27.6463 185.58 27.9811C185.252 28.3224 185.087 28.7393 185.087 29.2316C185.087 29.7174 185.252 30.131 185.58 30.4723C185.915 30.8071 186.328 30.9745 186.821 30.9745C187.155 30.9745 187.451 30.899 187.707 30.748C187.969 30.5905 188.17 30.3804 188.307 30.1178L189.036 30.5413C188.826 30.9351 188.524 31.247 188.13 31.4767C187.736 31.7065 187.3 31.8214 186.821 31.8214ZM192.56 27.597H191.251V30.2655C191.251 30.4559 191.277 30.6003 191.329 30.6988C191.388 30.7907 191.471 30.8564 191.576 30.8958C191.687 30.9351 191.825 30.9548 191.989 30.9548C192.153 30.9483 192.344 30.9384 192.56 30.9253V31.6934C191.812 31.7918 191.264 31.7327 190.916 31.5161C190.568 31.2929 190.394 30.8761 190.394 30.2655V27.597H189.419V26.7699H190.394V25.6473L191.251 25.3913V26.7699H192.56V27.597ZM194.46 27.597C194.742 26.9865 195.254 26.6812 195.996 26.6812V27.5773C195.576 27.5576 195.215 27.6692 194.913 27.9121C194.611 28.155 194.46 28.5456 194.46 29.0839V31.6934H193.603V26.7699H194.46V27.597ZM197.268 26.1594C197.104 26.1594 196.966 26.1036 196.854 25.992C196.743 25.8804 196.687 25.7458 196.687 25.5882C196.687 25.4307 196.743 25.2961 196.854 25.1845C196.966 25.0663 197.104 25.0073 197.268 25.0073C197.425 25.0073 197.56 25.0663 197.671 25.1845C197.783 25.2961 197.839 25.4307 197.839 25.5882C197.839 25.7458 197.783 25.8804 197.671 25.992C197.56 26.1036 197.425 26.1594 197.268 26.1594ZM196.834 31.6934V26.7699H197.691V31.6934H196.834ZM201.312 31.8214C200.57 31.8214 199.953 31.5752 199.461 31.0828C198.969 30.5839 198.722 29.9669 198.722 29.2316C198.722 28.4964 198.969 27.8826 199.461 27.3902C199.953 26.8913 200.57 26.6419 201.312 26.6419C201.798 26.6419 202.234 26.76 202.622 26.9964C203.009 27.2261 203.298 27.5379 203.488 27.9318L202.769 28.3454C202.645 28.0828 202.454 27.8727 202.198 27.7152C201.942 27.5576 201.647 27.4789 201.312 27.4789C200.82 27.4789 200.406 27.6463 200.071 27.9811C199.743 28.3224 199.579 28.7393 199.579 29.2316C199.579 29.7174 199.743 30.131 200.071 30.4723C200.406 30.8071 200.82 30.9745 201.312 30.9745C201.647 30.9745 201.942 30.899 202.198 30.748C202.461 30.5905 202.661 30.3804 202.799 30.1178L203.528 30.5413C203.318 30.9351 203.016 31.247 202.622 31.4767C202.228 31.7065 201.791 31.8214 201.312 31.8214ZM204.816 26.1594C204.652 26.1594 204.514 26.1036 204.403 25.992C204.291 25.8804 204.235 25.7458 204.235 25.5882C204.235 25.4307 204.291 25.2961 204.403 25.1845C204.514 25.0663 204.652 25.0073 204.816 25.0073C204.974 25.0073 205.109 25.0663 205.22 25.1845C205.332 25.2961 205.388 25.4307 205.388 25.5882C205.388 25.7458 205.332 25.8804 205.22 25.992C205.109 26.1036 204.974 26.1594 204.816 26.1594ZM204.383 31.6934V26.7699H205.24V31.6934H204.383ZM209.225 27.597H207.915V30.2655C207.915 30.4559 207.942 30.6003 207.994 30.6988C208.053 30.7907 208.135 30.8564 208.24 30.8958C208.352 30.9351 208.49 30.9548 208.654 30.9548C208.818 30.9483 209.009 30.9384 209.225 30.9253V31.6934C208.477 31.7918 207.929 31.7327 207.581 31.5161C207.233 31.2929 207.059 30.8761 207.059 30.2655V27.597H206.084V26.7699H207.059V25.6473L207.915 25.3913V26.7699H209.225V27.597ZM213.782 26.7699H214.698L212.689 31.9986C212.479 32.5566 212.183 32.98 211.803 33.2689C211.428 33.5643 210.995 33.6956 210.503 33.6628V32.8651C211.1 32.9177 211.543 32.5829 211.832 31.8608L211.921 31.6737L209.774 26.7699H210.69L212.364 30.6299L213.782 26.7699ZM171.814 39.1594C171.65 39.1594 171.512 39.1036 171.4 38.992C171.288 38.8804 171.233 38.7458 171.233 38.5882C171.233 38.4307 171.288 38.2961 171.4 38.1845C171.512 38.0663 171.65 38.0073 171.814 38.0073C171.971 38.0073 172.106 38.0663 172.217 38.1845C172.329 38.2961 172.385 38.4307 172.385 38.5882C172.385 38.7458 172.329 38.8804 172.217 38.992C172.106 39.1036 171.971 39.1594 171.814 39.1594ZM171.38 44.6934V39.7699H172.237V44.6934H171.38ZM175.996 39.6419C176.285 39.6419 176.544 39.6911 176.774 39.7896C177.01 39.8815 177.21 40.016 177.374 40.1933C177.545 40.364 177.676 40.574 177.768 40.8235C177.86 41.073 177.906 41.3552 177.906 41.6703V44.6934H177.05V41.7196C177.05 41.3191 176.941 41.0106 176.725 40.794C176.508 40.5708 176.209 40.4592 175.829 40.4592C175.402 40.4592 175.057 40.5937 174.795 40.8629C174.532 41.1255 174.401 41.5325 174.401 42.0839V44.6934H173.544V39.7699H174.401V40.4789C174.742 39.9209 175.274 39.6419 175.996 39.6419ZM183.179 37.8005H184.035V44.6934H183.179V43.8465C182.752 44.4964 182.132 44.8214 181.318 44.8214C180.622 44.8214 180.034 44.5719 179.555 44.073C179.069 43.5675 178.826 42.9537 178.826 42.2316C178.826 41.5161 179.069 40.9056 179.555 40.4001C180.041 39.8946 180.628 39.6419 181.318 39.6419C182.132 39.6419 182.752 39.9668 183.179 40.6167V37.8005ZM181.426 43.9942C181.925 43.9942 182.342 43.8268 182.677 43.492C183.011 43.1507 183.179 42.7305 183.179 42.2316C183.179 41.7327 183.011 41.3158 182.677 40.9811C182.342 40.6397 181.925 40.469 181.426 40.469C180.934 40.469 180.52 40.6397 180.185 40.9811C179.851 41.3158 179.683 41.7327 179.683 42.2316C179.683 42.7305 179.851 43.1507 180.185 43.492C180.52 43.8268 180.934 43.9942 181.426 43.9942ZM185.767 39.1594C185.603 39.1594 185.465 39.1036 185.353 38.992C185.242 38.8804 185.186 38.7458 185.186 38.5882C185.186 38.4307 185.242 38.2961 185.353 38.1845C185.465 38.0663 185.603 38.0073 185.767 38.0073C185.924 38.0073 186.059 38.0663 186.17 38.1845C186.282 38.2961 186.338 38.4307 186.338 38.5882C186.338 38.7458 186.282 38.8804 186.17 38.992C186.059 39.1036 185.924 39.1594 185.767 39.1594ZM185.333 44.6934V39.7699H186.19V44.6934H185.333ZM189.811 44.8214C189.069 44.8214 188.452 44.5752 187.96 44.0828C187.468 43.5839 187.221 42.9669 187.221 42.2316C187.221 41.4964 187.468 40.8826 187.96 40.3902C188.452 39.8913 189.069 39.6419 189.811 39.6419C190.297 39.6419 190.733 39.76 191.121 39.9964C191.508 40.2261 191.797 40.5379 191.987 40.9318L191.268 41.3454C191.144 41.0828 190.953 40.8727 190.697 40.7152C190.441 40.5576 190.146 40.4789 189.811 40.4789C189.319 40.4789 188.905 40.6463 188.57 40.9811C188.242 41.3224 188.078 41.7393 188.078 42.2316C188.078 42.7174 188.242 43.131 188.57 43.4723C188.905 43.8071 189.319 43.9745 189.811 43.9745C190.146 43.9745 190.441 43.899 190.697 43.748C190.96 43.5905 191.16 43.3804 191.298 43.1178L192.027 43.5413C191.817 43.9351 191.515 44.247 191.121 44.4767C190.727 44.7065 190.29 44.8214 189.811 44.8214ZM196.882 39.7699H197.739V44.6934H196.882V43.8465C196.455 44.4964 195.835 44.8214 195.021 44.8214C194.325 44.8214 193.737 44.5719 193.258 44.073C192.772 43.5675 192.53 42.9537 192.53 42.2316C192.53 41.5161 192.772 40.9056 193.258 40.4001C193.744 39.8946 194.332 39.6419 195.021 39.6419C195.835 39.6419 196.455 39.9668 196.882 40.6167V39.7699ZM195.129 43.9942C195.628 43.9942 196.045 43.8268 196.38 43.492C196.714 43.1507 196.882 42.7305 196.882 42.2316C196.882 41.7327 196.714 41.3158 196.38 40.9811C196.045 40.6397 195.628 40.469 195.129 40.469C194.637 40.469 194.223 40.6397 193.888 40.9811C193.554 41.3158 193.386 41.7327 193.386 42.2316C193.386 42.7305 193.554 43.1507 193.888 43.492C194.223 43.8268 194.637 43.9942 195.129 43.9942ZM201.715 40.597H200.405V43.2655C200.405 43.4559 200.432 43.6003 200.484 43.6988C200.543 43.7907 200.625 43.8564 200.73 43.8958C200.842 43.9351 200.98 43.9548 201.144 43.9548C201.308 43.9483 201.498 43.9384 201.715 43.9253V44.6934C200.967 44.7918 200.418 44.7327 200.07 44.5161C199.723 44.2929 199.549 43.8761 199.549 43.2655V40.597H198.574V39.7699H199.549V38.6473L200.405 38.3913V39.7699H201.715V40.597ZM206.913 44.073C206.414 44.5719 205.801 44.8214 205.072 44.8214C204.343 44.8214 203.73 44.5719 203.231 44.073C202.732 43.5741 202.482 42.9603 202.482 42.2316C202.482 41.5029 202.732 40.8891 203.231 40.3902C203.73 39.8913 204.343 39.6419 205.072 39.6419C205.801 39.6419 206.414 39.8913 206.913 40.3902C207.419 40.8957 207.672 41.5095 207.672 42.2316C207.672 42.9537 207.419 43.5675 206.913 44.073ZM205.072 43.9844C205.564 43.9844 205.978 43.817 206.313 43.4822C206.648 43.1474 206.815 42.7305 206.815 42.2316C206.815 41.7327 206.648 41.3158 206.313 40.9811C205.978 40.6463 205.564 40.4789 205.072 40.4789C204.586 40.4789 204.176 40.6463 203.841 40.9811C203.506 41.3158 203.339 41.7327 203.339 42.2316C203.339 42.7305 203.506 43.1474 203.841 43.4822C204.176 43.817 204.586 43.9844 205.072 43.9844ZM209.538 40.597C209.821 39.9865 210.333 39.6812 211.074 39.6812V40.5773C210.654 40.5576 210.293 40.6692 209.991 40.9121C209.689 41.155 209.538 41.5456 209.538 42.0839V44.6934H208.682V39.7699H209.538V40.597Z" fill="#4897E0"/>
<path d="M239.89 34.1543L236.323 37.7211C235.902 38.1423 235.213 38.1423 234.791 37.7211L231.225 34.1543" stroke="#4897E0" stroke-width="1.23087" stroke-miterlimit="10" stroke-linecap="round" stroke-linejoin="round"/>
<rect x="164.576" y="16.5392" width="83.6993" height="38.5673" rx="6.15436" stroke="#4897E0" stroke-width="0.820581"/>
<path d="M33.6934 110.496C33.6934 106.871 36.6325 103.932 40.258 103.932H53.3873C57.0129 103.932 59.952 106.871 59.952 110.496V133.422H33.6934V110.496Z" fill="#FEB49B"/>
<path d="M44.1061 146.705H44.9715V140.546H47.2073V139.767H41.8703V140.546H44.1061V146.705ZM50.1306 146.705H50.9961V139.767H50.1354L48.2891 141.094V142.008L50.0537 140.729H50.1306V146.705Z" fill="#FE9B79"/>
<path d="M71.4395 103.93C71.4395 100.304 74.3785 97.3652 78.0041 97.3652H91.1334C94.759 97.3652 97.6981 100.304 97.6981 103.93V133.421H71.4395V103.93Z" fill="#FEB49B"/>
<path d="M81.1646 146.703H82.0301V140.544H84.2658V139.765H78.9289V140.544H81.1646V146.703ZM85.4919 146.703H89.9827V145.924H86.6939V145.847L88.271 144.217C89.5259 142.924 89.8673 142.347 89.8673 141.554V141.544C89.8673 140.424 88.9393 139.602 87.7277 139.602C86.4006 139.602 85.4486 140.486 85.4438 141.717L85.4534 141.722L86.2804 141.727L86.2852 141.717C86.2852 140.9 86.8382 140.356 87.67 140.356C88.4873 140.356 88.9826 140.905 88.9826 141.635V141.645C88.9826 142.251 88.7229 142.611 87.8383 143.568L85.4919 146.107V146.703Z" fill="#FE9B79"/>
<path d="M109.188 81.7756C109.188 78.15 112.127 75.2109 115.752 75.2109H128.881C132.507 75.2109 135.446 78.15 135.446 81.7756V133.422H109.188V81.7756Z" fill="#FEB49B"/>
<path d="M118.845 146.705H119.711V140.546H121.947V139.767H116.61V140.546H118.845V146.705ZM125.437 146.82C126.827 146.82 127.846 145.965 127.846 144.806V144.796C127.846 143.811 127.159 143.181 126.149 143.094V143.075C127.014 142.892 127.62 142.306 127.62 141.45V141.44C127.62 140.387 126.75 139.652 125.428 139.652C124.129 139.652 123.235 140.406 123.125 141.536L123.12 141.584H123.952L123.956 141.536C124.028 140.834 124.61 140.402 125.428 140.402C126.274 140.402 126.75 140.82 126.75 141.546V141.556C126.75 142.248 126.173 142.758 125.346 142.758H124.514V143.488H125.384C126.356 143.488 126.966 143.964 126.966 144.815V144.825C126.966 145.561 126.346 146.07 125.437 146.07C124.514 146.07 123.884 145.599 123.817 144.916L123.812 144.868H122.98L122.985 144.926C123.076 146.022 124.004 146.82 125.437 146.82Z" fill="#FE9B79"/>
<path d="M146.934 93.2639C146.934 89.6383 149.873 86.6992 153.498 86.6992H166.628C170.253 86.6992 173.192 89.6383 173.192 93.2639V133.422H146.934V93.2639Z" fill="#FEB49B"/>
<path d="M156.798 146.705H157.664V140.546H159.899V139.767H154.562V140.546H156.798V146.705ZM163.621 146.705H164.467V145.267H165.453V144.493H164.467V139.767H163.212C162.241 141.214 161.178 142.907 160.241 144.479V145.267H163.621V146.705ZM161.125 144.498V144.44C161.88 143.166 162.789 141.734 163.568 140.57H163.626V144.498H161.125Z" fill="#FE9B79"/>
<path d="M184.68 85.0568C184.68 81.4313 187.619 78.4922 191.244 78.4922H204.374C207.999 78.4922 210.938 81.4313 210.938 85.0568V133.421H184.68V85.0568Z" fill="#FEB49B"/>
<path d="M194.333 146.703H195.198V140.544H197.434V139.765H192.097V140.544H194.333V146.703ZM200.939 146.867C202.348 146.867 203.353 145.891 203.353 144.491V144.482C203.353 143.14 202.415 142.164 201.112 142.164C200.482 142.164 199.939 142.419 199.631 142.885H199.554L199.79 140.539H202.968V139.765H199.107L198.742 143.751H199.492C199.578 143.587 199.689 143.453 199.809 143.337C200.107 143.054 200.502 142.914 200.963 142.914C201.862 142.914 202.506 143.573 202.506 144.496V144.506C202.506 145.443 201.872 146.102 200.949 146.102C200.136 146.102 199.535 145.573 199.453 144.91L199.449 144.871H198.617L198.622 144.924C198.723 146.035 199.646 146.867 200.939 146.867Z" fill="#FE9B79"/>
<path d="M222.428 93.2639C222.428 89.6383 225.367 86.6992 228.992 86.6992H242.122C245.747 86.6992 248.686 89.6383 248.686 93.2639V133.422H222.428V93.2639Z" fill="#FE9B79"/>
<path d="M232.134 146.705H232.999V140.546H235.235V139.767H229.898V140.546H232.134V146.705ZM238.625 146.869C240.024 146.869 241.053 145.864 241.053 144.479V144.469C241.053 143.137 240.081 142.147 238.778 142.147C237.841 142.147 237.187 142.652 236.932 143.219H236.841C236.841 143.166 236.841 143.109 236.846 143.056C236.898 141.608 237.413 140.378 238.673 140.378C239.375 140.378 239.86 140.738 240.072 141.32L240.091 141.373H240.961L240.947 141.31C240.711 140.286 239.846 139.604 238.682 139.604C236.999 139.604 236.014 140.988 236.014 143.354V143.363C236.014 145.974 237.355 146.869 238.625 146.869ZM237.048 144.469V144.465C237.048 143.561 237.73 142.902 238.629 142.902C239.529 142.902 240.182 143.565 240.182 144.489V144.498C240.182 145.397 239.485 146.104 238.615 146.104C237.735 146.104 237.048 145.383 237.048 144.469Z" fill="#CB6846"/>
<rect x="15" y="4" width="252.38" height="158.834" rx="18.6939" stroke="url(#paint0_linear_4943_11856)" stroke-width="2" shape-rendering="crispEdges"/>
</g>
<defs>
<filter id="filter0_bd_4943_11856" x="-9" y="-20" width="300.381" height="215.837" filterUnits="userSpaceOnUse" color-interpolation-filters="sRGB">
<feFlood flood-opacity="0" result="BackgroundImageFix"/>
<feGaussianBlur in="BackgroundImage" stdDeviation="11.5"/>
<feComposite in2="SourceAlpha" operator="in" result="effect1_backgroundBlur_4943_11856"/>
<feColorMatrix in="SourceAlpha" type="matrix" values="0 0 0 0 0 0 0 0 0 0 0 0 0 0 0 0 0 0 127 0" result="hardAlpha"/>
<feOffset dx="4.10291" dy="14.7705"/>
<feGaussianBlur stdDeviation="8.6161"/>
<feComposite in2="hardAlpha" operator="out"/>
<feColorMatrix type="matrix" values="0 0 0 0 0.0618333 0 0 0 0 0 0 0 0 0 0.441667 0 0 0 0.05 0"/>
<feBlend mode="normal" in2="effect1_backgroundBlur_4943_11856" result="effect2_dropShadow_4943_11856"/>
<feBlend mode="normal" in="SourceGraphic" in2="effect2_dropShadow_4943_11856" result="shape"/>
</filter>
<linearGradient id="paint0_linear_4943_11856" x1="21.7955" y1="8.74407" x2="255.251" y2="163.834" gradientUnits="userSpaceOnUse">
<stop stop-color="#FAFAFA"/>
<stop offset="1" stop-color="white" stop-opacity="0"/>
</linearGradient>
</defs>
</svg>
