<svg width="48" height="48" viewBox="0 0 48 48" fill="none" xmlns="http://www.w3.org/2000/svg">
<path fill-rule="evenodd" clip-rule="evenodd" d="M6 7C5.44772 7 5 6.55228 5 6C5 5.44772 5.44772 5 6 5C6.55228 5 7 5.44772 7 6C7 6.55228 6.55228 7 6 7ZM9 6C9 7.30622 8.16519 8.41746 7 8.82929V21H10V16C10 14.3431 11.3431 13 13 13H35C36.6569 13 38 14.3431 38 16V21H41V12.8293C39.8348 12.4175 39 11.3062 39 10C39 8.34315 40.3431 7 42 7C43.6569 7 45 8.34315 45 10C45 11.3062 44.1652 12.4175 43 12.8293V22C43 22.5523 42.5523 23 42 23H38V24H42C42.5523 24 43 24.4477 43 25V38.1707C44.1652 38.5825 45 39.6938 45 41C45 42.6569 43.6569 44 42 44C40.3431 44 39 42.6569 39 41C39 39.6938 39.8348 38.5825 41 38.1707V26H38V30C38 31.6569 36.6569 33 35 33H13C11.3431 33 10 31.6569 10 30V26H7V34.1707C8.16519 34.5825 9 35.6938 9 37C9 38.6569 7.65685 40 6 40C4.34315 40 3 38.6569 3 37C3 35.6938 3.83481 34.5825 5 34.1707V25C5 24.4477 5.44772 24 6 24H10V23H6C5.44772 23 5 22.5523 5 22V8.82929C3.83481 8.41746 3 7.30622 3 6C3 4.34315 4.34315 3 6 3C7.65685 3 9 4.34315 9 6ZM42 11C42.5523 11 43 10.5523 43 10C43 9.44772 42.5523 9 42 9C41.4477 9 41 9.44772 41 10C41 10.5523 41.4477 11 42 11ZM42 40C41.4477 40 41 40.4477 41 41C41 41.5523 41.4477 42 42 42C42.5523 42 43 41.5523 43 41C43 40.4477 42.5523 40 42 40ZM5 37C5 36.4477 5.44772 36 6 36C6.55228 36 7 36.4477 7 37C7 37.5523 6.55228 38 6 38C5.44772 38 5 37.5523 5 37ZM36 22V16C36 15.4477 35.5523 15 35 15H13C12.4477 15 12 15.4477 12 16V22V25V30C12 30.5523 12.4477 31 13 31H35C35.5523 31 36 30.5523 36 30V25V22ZM19 34C18.4477 34 18 34.4477 18 35C18 35.5523 18.4477 36 19 36H29C29.5523 36 30 35.5523 30 35C30 34.4477 29.5523 34 29 34H19Z" fill="url(#paint0_linear_22611_12847)"/>
<defs>
<linearGradient id="paint0_linear_22611_12847" x1="3" y1="23.5" x2="47.5998" y2="24.9798" gradientUnits="userSpaceOnUse">
<stop stop-color="#0091EF"/>
<stop offset="1" stop-color="#32D7D4"/>
</linearGradient>
</defs>
</svg>
