<svg width="209" height="186" viewBox="0 0 209 186" fill="none" xmlns="http://www.w3.org/2000/svg">
<path fill-rule="evenodd" clip-rule="evenodd" d="M119.911 15.7281C132.198 6.0425 149.334 5.40146 162.31 14.142L184.103 28.8219C197.891 38.109 203.679 55.6244 197.643 70.9279C191.817 85.6995 187.263 94.8029 179.706 105.536L139.866 65.6958C138.304 64.1337 135.772 64.1337 134.21 65.6958C132.647 67.2579 132.647 69.7906 134.21 71.3527L181.394 118.537C184.579 121.722 184.579 126.887 181.394 130.072C178.208 133.258 173.044 133.258 169.858 130.072L149.06 109.274C148.699 108.913 148.287 108.636 147.847 108.442L137.984 98.5786C136.422 97.0165 133.889 97.0165 132.327 98.5786C130.765 100.141 130.765 102.673 132.327 104.235L163.01 134.919C166.918 138.827 166.918 145.163 163.01 149.071C159.313 152.769 153.441 152.968 149.509 149.668C148.947 148.875 148.31 148.118 147.599 147.407L121.038 120.846C119.476 119.284 116.944 119.284 115.381 120.846C113.819 122.408 113.819 124.941 115.381 126.503L122.861 133.982C123.056 134.438 123.339 134.866 123.711 135.238L143.201 154.728C143.26 154.786 143.318 154.844 143.377 154.901C145.556 158.54 145.077 163.326 141.942 166.461C138.242 170.161 132.244 170.161 128.544 166.461L111.255 149.172C111.191 149.109 111.126 149.048 111.059 148.989C110.585 145.961 109.181 143.051 106.848 140.718C104.824 138.693 102.365 137.369 99.7716 136.743C103.662 130.915 103.035 122.965 97.8907 117.821C95.9831 115.913 93.6897 114.627 91.2616 113.962C95.7101 108.084 95.2545 99.677 89.8946 94.3171C84.0367 88.4593 74.5393 88.4593 68.6814 94.3171L67.3196 95.6789C66.6871 93.113 65.3684 90.6815 63.3634 88.6765C57.5055 82.8186 48.008 82.8186 42.1502 88.6765L29.3987 101.428L13.333 75.2862C3.41534 59.1484 7.69941 38.0857 23.133 27.1043L40.1609 14.9886C55.6086 3.99711 76.9336 6.87024 88.9216 21.5581L92.9982 26.5529C93.0321 26.5944 93.0666 26.635 93.1018 26.6748L69.3703 45.3822L69.3353 45.4102L69.3143 45.4273C64.7941 49.1241 62.25 53.4746 62.1191 58.0563C61.988 62.6443 64.3051 66.5513 67.6129 69.2525C74.0762 74.5303 85.0068 75.9633 94.973 70.6901C100.762 68.5827 104.729 64.8047 107.801 61.2747C108.796 60.1314 109.786 58.9049 110.685 57.792L110.685 57.7918L110.685 57.7913C111.14 57.2275 111.572 56.6928 111.969 56.2129C112.513 55.5544 113.021 54.9608 113.508 54.4291C115.407 55.3218 117.801 56.2413 120.488 57.0595C124.899 58.4028 130.385 59.561 136.289 59.8682C148.061 60.4807 162.047 57.7009 171.948 45.5503C173.343 43.8377 173.086 41.3181 171.373 39.9226C169.661 38.5272 167.141 38.7843 165.746 40.4969C158.046 49.9462 147.032 52.4164 136.704 51.879C131.558 51.6112 126.719 50.5944 122.818 49.4064C118.834 48.1934 116.103 46.8868 115.065 46.1954C113.603 45.2201 111.674 45.3144 110.314 46.4277C108.623 47.8112 107.138 49.5002 105.803 51.1155C105.279 51.7495 104.79 52.3562 104.309 52.9519L104.309 52.9524C103.48 53.9808 102.677 54.9763 101.767 56.0225C99.018 59.1808 96.0703 61.8324 92.0252 63.2481C91.8229 63.3189 91.6266 63.4059 91.4382 63.5081C83.9795 67.5571 76.451 66.1412 72.6729 63.056C70.8295 61.5507 70.071 59.8545 70.1158 58.2848C70.1607 56.7131 71.0395 54.3598 74.3524 51.6417L119.911 15.7281ZM173.868 140.366C174.331 145.501 172.598 150.797 168.667 154.728C164.329 159.066 158.329 160.728 152.717 159.714C152.729 164.202 151.023 168.694 147.599 172.118C140.775 178.942 129.711 178.942 122.887 172.118L109.365 158.596C108.702 159.792 107.863 160.916 106.848 161.931L87.3528 181.426C81.4949 187.284 71.9974 187.284 66.1395 181.426C62.9504 178.237 61.4975 173.969 61.7808 169.797C57.6504 170.041 53.4381 168.585 50.2822 165.43C47.2514 162.399 45.7887 158.394 45.8941 154.422C41.6821 154.744 37.3602 153.294 34.139 150.073C30.9097 146.843 29.4607 142.508 29.7918 138.286C25.6025 138.586 21.3115 137.134 18.1085 133.931C12.2507 128.073 12.2507 118.576 18.1085 112.718L23.7331 107.094C23.4097 106.823 23.1238 106.497 22.8909 106.118L6.51725 79.4749C-5.60435 59.7509 -0.368266 34.0077 18.4951 20.5859L35.5229 8.47022C54.4035 -4.9638 80.4674 -1.45221 95.1193 16.4997L99.1959 21.4944C99.2588 21.5714 99.3183 21.65 99.3745 21.7301L114.958 9.44543C129.975 -2.39252 150.919 -3.17601 166.779 7.50683L188.573 22.1868C205.33 33.474 212.562 54.9078 205.085 73.8632C199.074 89.1038 194.225 98.8422 186.115 110.33C185.888 110.651 185.623 110.928 185.331 111.16L187.051 112.88C193.36 119.19 193.36 129.419 187.051 135.729C183.448 139.332 178.567 140.877 173.868 140.366ZM47.807 94.3333C50.5407 91.5997 54.9728 91.5997 57.7065 94.3333C60.4402 97.067 60.4402 101.499 57.7065 104.233L33.6649 128.274C30.9312 131.008 26.499 131.008 23.7654 128.274C21.0317 125.541 21.0317 121.109 23.7654 118.375L47.807 94.3333ZM84.2377 99.974C81.5041 97.2403 77.0719 97.2403 74.3383 99.974L39.7958 134.516C37.0622 137.25 37.0622 141.682 39.7958 144.416C42.5295 147.15 46.9617 147.15 49.6953 144.416L84.2377 109.873C86.9714 107.14 86.9714 102.708 84.2377 99.974ZM82.3344 123.478C85.068 120.744 89.5002 120.744 92.2338 123.478C94.9675 126.212 94.9675 130.644 92.2338 133.377L65.8385 159.773C63.1049 162.506 58.6727 162.506 55.939 159.773C53.2054 157.039 53.2054 152.607 55.939 149.873L82.3344 123.478ZM101.191 146.374C98.4573 143.641 94.0251 143.641 91.2915 146.374L71.7964 165.869C69.0627 168.603 69.0627 173.035 71.7964 175.769C74.5301 178.503 78.9622 178.503 81.6959 175.769L101.191 156.274C103.925 153.54 103.925 149.108 101.191 146.374Z" fill="#0979FD" fill-opacity="0.1"/>
</svg>
