<svg width="208" height="168" viewBox="0 0 208 168" fill="none" xmlns="http://www.w3.org/2000/svg">
<path fill-rule="evenodd" clip-rule="evenodd" d="M63.424 8.6181C62.0709 7.8058 60.3833 7.79331 59.0183 8.5855L36.2851 21.7796C34.9267 22.568 34.1012 24.0299 34.1276 25.6003L34.3773 40.4412C34.4404 44.188 33.4835 47.8814 31.6091 51.1262L28.1455 49.1255L31.6091 51.1262L31.0684 52.0623C29.193 55.3089 26.4697 57.9842 23.1903 59.8016L10.2329 66.9821C8.85189 67.7474 7.99642 69.2033 8.00001 70.7822L8.05967 97.0474C8.06324 98.6167 8.91498 100.061 10.2864 100.824L23.1815 107.998C26.4722 109.829 29.2001 112.524 31.0708 115.792L31.6501 116.804C33.4981 120.032 34.4404 123.7 34.3776 127.419L34.1282 142.195C34.1016 143.771 34.9322 145.236 36.2973 146.023L59.1026 159.165C60.4643 159.949 62.144 159.935 63.4923 159.128L76.1513 151.548C79.3596 149.627 83.0289 148.612 86.7682 148.612H87.8657C91.6132 148.612 95.2902 149.631 98.5032 151.56L111.22 159.195C112.573 160.007 114.261 160.02 115.626 159.228L138.359 146.034C140.27 144.925 142.718 145.575 143.827 147.485C144.936 149.396 144.286 151.844 142.375 152.953L119.642 166.147C115.757 168.401 110.954 168.366 107.103 166.054L94.3855 158.419C92.4162 157.237 90.1626 156.612 87.8657 156.612H86.7682C84.4764 156.612 82.2274 157.234 80.2611 158.412L67.6021 165.992C63.7646 168.289 58.9838 168.329 55.1083 166.096L32.3031 152.955C28.4176 150.716 26.0536 146.544 26.1293 142.06L26.3788 127.284C26.4173 125.005 25.8397 122.757 24.7071 120.778L24.1277 119.766C22.9812 117.763 21.3092 116.111 19.2924 114.989L6.39721 107.815C2.49404 105.644 0.0698364 101.532 0.0596912 97.0656L3.1968e-05 70.8004C-0.0101752 66.3066 2.42459 62.163 6.35518 59.9847L19.3126 52.8042C21.3226 51.6903 22.9917 50.0506 24.1411 48.0608L24.6818 47.1247C25.8306 45.1359 26.4171 42.8722 26.3784 40.5758L26.1287 25.7349C26.0535 21.2651 28.403 17.1045 32.2694 14.8605L55.0026 1.66642C58.8873 -0.588262 63.6907 -0.552713 67.5417 1.75921L80.2589 9.39397C82.2281 10.5762 84.4818 11.2007 86.7786 11.2007H87.8761C90.168 11.2007 92.4169 10.5789 94.3833 9.40152L107.042 1.82164C110.88 -0.476151 115.661 -0.516172 119.536 1.71705L142.342 14.8588C144.256 15.9618 144.913 18.4076 143.81 20.3217C142.707 22.2357 140.261 22.8933 138.347 21.7903L115.542 8.64855C114.18 7.86391 112.5 7.87797 111.152 8.6853L98.493 16.2652C95.2848 18.1862 91.6155 19.2007 87.8761 19.2007H86.7786C83.0311 19.2007 79.3541 18.1818 76.1412 16.2529L63.424 8.6181ZM90.5472 37.9062C65.6252 37.9062 45.3164 58.4425 45.3164 83.9062C45.3164 109.37 65.6252 129.906 90.5472 129.906C101.231 129.906 111.045 126.144 118.791 119.838C120.504 118.443 123.024 118.701 124.418 120.414C125.813 122.128 125.555 124.647 123.842 126.042C114.731 133.46 103.149 137.906 90.5472 137.906C61.0904 137.906 37.3164 113.671 37.3164 83.9062C37.3164 54.1416 61.0904 29.9062 90.5472 29.9062C103.149 29.9062 114.731 34.3529 123.842 41.7707C125.555 43.1655 125.813 45.685 124.418 47.3981C123.024 49.1113 120.504 49.3694 118.791 47.9746C111.045 41.6685 101.231 37.9062 90.5472 37.9062ZM83.3164 83.9062C83.3164 80.5925 86.0027 77.9062 89.3164 77.9062C92.6301 77.9062 95.3164 80.5925 95.3164 83.9062C95.3164 87.2199 92.6301 89.9062 89.3164 89.9062C86.0027 89.9062 83.3164 87.2199 83.3164 83.9062ZM89.3164 69.9062C81.5844 69.9062 75.3164 76.1743 75.3164 83.9062C75.3164 91.6382 81.5844 97.9062 89.3164 97.9062C91.9236 97.9062 94.3644 97.1935 96.4545 95.9523C96.5858 96.4375 96.8113 96.9059 97.1347 97.3304L106.278 109.33C107.034 110.323 108.211 110.906 109.459 110.906H129.896C131.617 116.689 136.974 120.906 143.316 120.906C145.393 120.906 147.363 120.454 149.135 119.644L157.278 130.33C158.034 131.323 159.211 131.906 160.459 131.906H179.896C181.617 137.689 186.974 141.906 193.316 141.906C201.048 141.906 207.316 135.638 207.316 127.906C207.316 120.174 201.048 113.906 193.316 113.906C186.974 113.906 181.617 118.123 179.896 123.906H162.44L155.168 114.362C156.529 112.203 157.316 109.647 157.316 106.906C157.316 99.1743 151.048 92.9062 143.316 92.9062C136.974 92.9062 131.617 97.1233 129.896 102.906H111.44L103.498 92.4821C102.942 91.7523 102.184 91.2671 101.362 91.0451C101.942 90.0691 102.406 89.0165 102.737 87.9062H179.896C181.617 93.6892 186.974 97.9062 193.316 97.9062C201.048 97.9062 207.316 91.6382 207.316 83.9062C207.316 76.1743 201.048 69.9062 193.316 69.9062C186.974 69.9062 181.617 74.1233 179.896 79.9062H102.737C102.303 78.4503 101.64 77.0936 100.788 75.8784C101.826 75.7552 102.815 75.2276 103.498 74.3304L111.44 63.9062H129.896C131.617 69.6892 136.974 73.9062 143.316 73.9062C151.048 73.9062 157.316 67.6382 157.316 59.9062C157.316 57.0937 156.487 54.4749 155.06 52.281L161.44 43.9062H179.896C181.617 49.6892 186.974 53.9062 193.316 53.9062C201.048 53.9062 207.316 47.6382 207.316 39.9062C207.316 32.1743 201.048 25.9062 193.316 25.9062C186.974 25.9062 181.617 30.1233 179.896 35.9062H159.459C158.211 35.9062 157.034 36.4891 156.278 37.4821L148.958 47.0893C147.232 46.3286 145.324 45.9062 143.316 45.9062C136.974 45.9062 131.617 50.1233 129.896 55.9062H109.459C108.211 55.9062 107.034 56.4891 106.278 57.4821L97.1347 69.4821C96.6097 70.1711 96.3428 70.9757 96.3181 71.7802C94.2585 70.5884 91.8671 69.9062 89.3164 69.9062ZM193.316 77.9062C190.003 77.9062 187.316 80.5925 187.316 83.9062C187.316 87.2199 190.003 89.9062 193.316 89.9062C196.63 89.9062 199.316 87.2199 199.316 83.9062C199.316 80.5925 196.63 77.9062 193.316 77.9062ZM187.316 127.906C187.316 124.593 190.003 121.906 193.316 121.906C196.63 121.906 199.316 124.593 199.316 127.906C199.316 131.22 196.63 133.906 193.316 133.906C190.003 133.906 187.316 131.22 187.316 127.906ZM193.316 33.9062C190.003 33.9062 187.316 36.5925 187.316 39.9062C187.316 43.2199 190.003 45.9062 193.316 45.9062C196.63 45.9062 199.316 43.2199 199.316 39.9062C199.316 36.5925 196.63 33.9062 193.316 33.9062ZM137.316 59.9062C137.316 56.5925 140.003 53.9062 143.316 53.9062C146.63 53.9062 149.316 56.5925 149.316 59.9062C149.316 63.2199 146.63 65.9062 143.316 65.9062C140.003 65.9062 137.316 63.2199 137.316 59.9062ZM143.316 100.906C140.003 100.906 137.316 103.593 137.316 106.906C137.316 110.22 140.003 112.906 143.316 112.906C146.63 112.906 149.316 110.22 149.316 106.906C149.316 103.593 146.63 100.906 143.316 100.906Z" fill="#0979FD" fill-opacity="0.1"/>
</svg>
