<svg width="82" height="97" viewBox="0 0 82 97" fill="none" xmlns="http://www.w3.org/2000/svg">
<path fill-rule="evenodd" clip-rule="evenodd" d="M3.5 29.037C3.5 14.9333 14.9333 3.5 29.037 3.5C43.1408 3.5 54.5741 14.9333 54.5741 29.037C54.5741 33.749 53.2993 38.1586 51.0768 41.9449C50.6574 42.6593 50.8966 43.5784 51.611 43.9978C52.3255 44.4172 53.2446 44.178 53.664 43.4636C56.1494 39.2294 57.5741 34.2973 57.5741 29.037C57.5741 13.2765 44.7976 0.5 29.037 0.5C13.2765 0.5 0.5 13.2765 0.5 29.037C0.5 44.7976 13.2765 57.5741 29.037 57.5741C29.8655 57.5741 30.537 56.9025 30.537 56.0741C30.537 55.2456 29.8655 54.5741 29.037 54.5741C14.9333 54.5741 3.5 43.1408 3.5 29.037ZM38.3931 40.0149C37.9188 39.6956 37.3042 39.6738 36.8085 39.9585C36.3127 40.2433 36.0219 40.7852 36.0587 41.3557L39.0073 87.1182C39.2696 91.1892 44.3791 92.8385 46.972 89.6891L53.3971 81.8852L61.4532 95.3622C61.6639 95.7147 62.0099 95.9654 62.4105 96.0558C62.811 96.1462 63.2311 96.0684 63.5728 95.8407L72.4617 89.9147C73.138 89.4639 73.3321 88.5564 72.8995 87.8683L65.0111 75.3201L74.6532 73.8275C78.7001 73.201 79.8747 67.9338 76.4774 65.6472L38.3931 40.0149ZM42.0011 86.9254L39.2486 44.2068L74.8023 68.136C75.9348 68.8982 75.5432 70.654 74.1943 70.8628L62.2974 72.7045C61.7984 72.7817 61.3718 73.1048 61.1622 73.5642C60.9526 74.0236 60.9883 74.5576 61.257 74.9851L69.5825 88.2286L63.2198 92.4705L54.8797 78.5186C54.6294 78.0999 54.1911 77.829 53.7046 77.7925C53.2181 77.7559 52.7443 77.9582 52.4342 78.3348L44.656 87.7823C43.7917 88.8321 42.0885 88.2824 42.0011 86.9254ZM29.037 12.3889C19.8425 12.3889 12.3889 19.8425 12.3889 29.037C12.3889 38.2316 19.8425 45.6852 29.037 45.6852C29.8655 45.6852 30.537 46.3568 30.537 47.1852C30.537 48.0136 29.8655 48.6852 29.037 48.6852C18.1857 48.6852 9.38889 39.8884 9.38889 29.037C9.38889 18.1857 18.1857 9.38889 29.037 9.38889C39.8884 9.38889 48.6852 18.1857 48.6852 29.037C48.6852 32.0478 48.007 34.9043 46.7936 37.4585C46.4382 38.2067 45.5434 38.5252 44.7951 38.1697C44.0468 37.8142 43.7284 36.9195 44.0838 36.1712C45.1102 34.0107 45.6852 31.5931 45.6852 29.037C45.6852 19.8425 38.2316 12.3889 29.037 12.3889ZM21.2778 29.037C21.2778 24.7517 24.7517 21.2778 29.037 21.2778C33.3224 21.2778 36.7963 24.7517 36.7963 29.037C36.7963 30.1211 36.5749 31.1495 36.1762 32.0826C35.8507 32.8444 36.2044 33.7259 36.9662 34.0513C37.728 34.3768 38.6094 34.0231 38.9349 33.2613C39.4899 31.9625 39.7963 30.5336 39.7963 29.037C39.7963 23.0949 34.9792 18.2778 29.037 18.2778C23.0949 18.2778 18.2778 23.0949 18.2778 29.037C18.2778 34.9792 23.0949 39.7963 29.037 39.7963C29.8655 39.7963 30.537 39.1247 30.537 38.2963C30.537 37.4679 29.8655 36.7963 29.037 36.7963C24.7517 36.7963 21.2778 33.3224 21.2778 29.037Z" fill="#6FC0FE"/>
</svg>
