<svg width="111" height="20" viewBox="0 0 111 20" fill="none" xmlns="http://www.w3.org/2000/svg">
<path d="M43.6064 12.1474C43.6064 7.96087 46.2126 4.56641 50.7735 4.56641C52.8367 4.56641 55.1171 5.4716 56.5288 7.28198L53.9226 9.54495C53.2711 8.86606 52.2938 8.18717 50.7735 8.18717C49.036 8.18717 47.5157 9.54495 47.5157 12.0342C47.5157 14.0709 48.7102 15.8813 50.8821 15.8813C51.6422 15.8813 52.1852 15.7681 52.9453 15.4287V14.0709H50.5563V11.129H56.4202V17.918C55.1171 18.9363 52.9453 19.7283 50.7735 19.7283C46.8642 19.6152 43.6064 17.0128 43.6064 12.1474Z" fill="black"/>
<path d="M58.375 4.90625H63.9132C67.3881 4.90625 69.017 7.05608 69.017 10.1111C69.017 12.1478 68.1482 13.6187 66.628 14.4107L69.7771 19.5024H65.4334L62.8273 15.0896H61.9585V19.5024H58.375V4.90625ZM63.2616 11.582C64.4561 11.582 65.1077 11.0163 65.1077 9.8848C65.1077 8.9796 64.5647 8.18756 63.2616 8.18756H61.9585V11.4689H63.2616V11.582Z" fill="black"/>
<path d="M70.1045 12.1475C70.1045 7.7347 73.0365 4.67969 77.3801 4.67969C81.6152 4.67969 84.6557 7.7347 84.6557 12.1475C84.6557 16.5603 81.6152 19.6153 77.3801 19.6153C73.1451 19.6153 70.1045 16.5603 70.1045 12.1475ZM80.7465 12.1475C80.7465 9.99768 79.3348 8.30045 77.3801 8.30045C75.4255 8.30045 74.0138 9.99768 74.0138 12.1475C74.0138 14.2973 75.4255 15.9946 77.3801 15.9946C79.3348 15.9946 80.7465 14.2973 80.7465 12.1475Z" fill="black"/>
<path d="M86.1748 13.2793V4.90625H89.9755V13.1661C89.9755 14.7502 90.6271 16.108 92.0387 16.108C93.2333 16.108 94.2106 15.0896 94.2106 13.1661V4.90625H98.0113V13.3924C98.0113 17.2395 95.948 19.7287 92.0387 19.7287C88.4552 19.6156 86.1748 17.4658 86.1748 13.2793Z" fill="black"/>
<path d="M99.8564 4.90625H105.286C108.761 4.90625 110.39 7.05608 110.39 10.1111C110.39 13.3924 108.327 15.0896 105.069 15.0896H103.549V19.5024H99.965V4.90625H99.8564ZM104.634 11.582C105.829 11.582 106.481 11.0163 106.481 9.8848C106.481 8.9796 105.938 8.18756 104.634 8.18756H103.549V11.4689H104.634V11.582Z" fill="black"/>
<path d="M31.2254 7.96322C31.0082 7.51062 30.6824 7.17118 30.3566 6.83173C29.0535 5.47395 27.2075 4.9082 24.8185 4.9082H21.8865C20.8006 4.9082 19.8232 5.81339 19.8232 7.05803V7.96322C20.4748 9.09471 20.8006 10.4525 20.8006 11.8103C20.8006 13.1681 20.4748 14.5258 19.8232 15.6573V19.3912H24.7099C27.0989 19.3912 28.9449 18.7123 30.248 17.4677C30.5738 17.1283 30.8996 16.7888 31.1168 16.3362C31.7683 15.2047 32.2027 13.847 32.2027 12.1497C32.3113 10.4525 31.8769 9.09471 31.2254 7.96322ZM24.8185 16.1099H24.1669C23.7325 16.1099 23.4068 15.7705 23.4068 15.3179V8.18952H24.927C27.5332 8.18952 28.9449 9.5473 28.9449 12.1497C28.7277 14.7521 27.4247 16.1099 24.8185 16.1099Z" fill="url(#paint0_linear_21856_4678)"/>
<path fill-rule="evenodd" clip-rule="evenodd" d="M7.44341 6.49245C7.44341 6.6056 7.552 6.71874 7.66059 6.71874H8.52932C8.63791 6.71874 8.74651 6.6056 8.74651 6.49245V5.58726C8.74651 5.47411 8.63791 5.36096 8.52932 5.36096H7.66059C7.552 5.36096 7.44341 5.47411 7.44341 5.58726V6.49245ZM18.5197 6.71874C19.7142 8.07653 20.4744 10.0001 20.4744 12.0367C20.4744 15.2049 18.7369 17.9205 16.1307 19.1651C15.1534 19.7308 13.9589 19.9571 12.7644 19.9571C10.5926 19.9571 8.52932 18.9388 7.22622 17.4679C7.11763 17.3547 6.68327 16.789 5.81453 16.789H4.40284C4.18566 16.789 3.96848 16.5627 3.96848 16.3364V14.1866C3.96848 13.9603 4.18566 13.734 4.40284 13.734H6.14031C7.66059 13.734 7.552 11.3578 6.2489 11.3578H4.07707C3.85989 11.3578 3.7513 11.2447 3.7513 11.0184V9.54746C3.7513 9.32117 3.7513 9.09487 3.53411 8.86857V8.52912C3.31693 8.41598 3.20834 8.41598 3.09975 8.41598H2.23101C2.12242 8.41598 2.01383 8.30283 2.01383 8.18968V7.05819C2.01383 6.94504 2.01383 6.94504 2.12242 6.94504L2.23101 6.83189H3.20834C3.31693 6.83189 3.42552 6.94504 3.42552 7.05819V7.96338C3.42552 8.18968 3.42552 8.30283 3.6427 8.41598L3.7513 8.52912C3.96848 8.75542 4.07707 8.75542 4.40284 8.75542H6.68327C6.90045 8.75542 7.00904 8.86857 7.00904 8.98172V9.20802C7.00904 9.32117 7.11763 9.43431 7.22622 9.43431H7.87777C7.98637 9.43431 8.09496 9.32117 8.09496 9.20802V8.30283C8.09496 8.18968 7.98637 8.07653 7.87777 8.07653H7.552C7.44341 8.18968 7.33482 8.07653 7.33482 7.96338V7.17134C7.33482 6.94504 7.22622 6.83189 7.11763 6.83189H6.35749C6.2489 6.83189 5.92313 6.71874 5.92313 6.49245V5.47411C5.92313 5.13466 5.92313 4.90836 5.70594 4.68207L4.29425 3.21113C4.07707 2.98484 3.96848 2.87169 3.7513 2.87169H2.66538C2.4482 2.87169 2.33961 2.75854 2.33961 2.64539V1.17446C2.33961 1.06131 2.33961 1.06131 2.4482 0.948159C2.4482 0.948159 2.55679 0.83501 2.66538 0.83501H4.07707C4.18566 0.83501 4.40284 0.948159 4.40284 1.17446V2.30594C4.40284 2.53224 4.51144 2.64539 4.62003 2.87169L6.03172 4.34262C6.2489 4.56892 6.46608 4.56892 6.79186 4.56892H10.2668C10.9183 4.56892 11.4613 4.34262 11.4613 3.55058V3.21113C11.4613 2.98484 11.4613 2.87169 11.3527 2.64539H11.0269C10.9183 2.53224 10.8097 2.41909 10.7012 2.41909H10.0496C9.94101 2.41909 9.83242 2.41909 9.83242 2.30594V1.40075V1.2876H9.94101H10.8097C10.9183 1.2876 11.0269 1.40075 11.0269 1.5139V2.19279C11.0269 2.30594 11.0269 2.41909 11.1355 2.53224L11.4613 2.87169C11.5699 2.98484 11.7871 2.98484 12.0043 2.98484H13.0902C13.1988 2.98484 13.3074 3.09798 13.3074 3.21113V3.43743C13.3074 3.77688 13.7417 4.00317 13.9589 4.11632C15.6964 4.34262 17.3252 5.36096 18.5197 6.71874ZM12.873 7.51079C10.5926 7.51079 8.63791 9.43431 8.63791 11.9236C8.63791 14.2997 10.484 16.3364 12.873 16.3364C15.1534 16.3364 17.1081 14.4129 17.1081 11.9236C17.1081 9.54746 15.1534 7.51079 12.873 7.51079ZM8.8551 7.51079C8.8551 7.62393 8.8551 7.62393 8.96369 7.62393H9.50665C9.61524 7.62393 9.61524 7.62393 9.61524 7.51079V6.94504C9.61524 6.83189 9.61524 6.83189 9.50665 6.83189H8.96369C8.8551 6.83189 8.8551 6.83189 8.8551 6.94504V7.51079ZM6.46608 15.2049C6.46608 15.318 6.57468 15.4312 6.68327 15.4312H7.76918C7.87777 15.4312 7.98636 15.318 7.98636 15.2049V14.0734C7.98636 13.9603 7.87777 13.8471 7.76918 13.8471H6.68327C6.57468 13.8471 6.46608 13.9603 6.46608 14.0734V15.2049ZM11.5699 5.70041C11.5699 5.81355 11.6785 5.81355 11.6785 5.81355H12.4386C12.5472 5.81355 12.5472 5.70041 12.5472 5.70041V4.90836C12.5472 4.79522 12.4386 4.79522 12.4386 4.79522H11.6785C11.5699 4.79522 11.5699 4.90836 11.5699 4.90836V5.70041ZM3.7513 6.26615C3.7513 6.3793 3.85989 6.49245 3.96848 6.49245H4.9458C5.05439 6.49245 5.16299 6.3793 5.16299 6.26615V5.36096C5.16299 5.24781 5.05439 5.13466 4.9458 5.13466H3.96848C3.85989 5.13466 3.7513 5.24781 3.7513 5.36096V6.26615ZM0.819325 6.153V5.47411C0.819325 5.36096 0.927916 5.36096 0.927916 5.36096H1.57947C1.68806 5.36096 1.68806 5.47411 1.68806 5.47411V6.153C1.68806 6.26615 1.57947 6.26615 1.57947 6.26615H0.927916C0.819325 6.26615 0.819325 6.26615 0.819325 6.153ZM3.6427 13.2814L3.7513 13.1682V12.1499C3.7513 12.0367 3.6427 11.9236 3.53411 11.9236H2.66538C2.55679 11.9236 2.4482 11.9236 2.33961 11.8104L2.12242 11.5841C2.12242 11.471 2.01383 11.3578 2.01383 11.2447V10.6789C2.01383 10.5658 1.90524 10.5658 1.90524 10.5658H1.25369H1.1451V10.6789V11.3578C1.1451 11.471 1.25369 11.471 1.25369 11.471H1.79665C1.90524 11.471 2.01383 11.471 2.01383 11.5841L2.23101 11.8104C2.33961 11.9236 2.33961 12.0367 2.33961 12.1499V13.0551C2.33961 13.1682 2.4482 13.2814 2.55679 13.2814H3.53411C3.6427 13.2814 3.6427 13.2814 3.6427 13.2814ZM6.35749 3.55058C6.35749 3.77688 6.46608 3.89003 6.68327 3.89003H8.20355C8.42073 3.89003 8.52932 3.77688 8.52932 3.55058V1.9665C8.52932 1.7402 8.42073 1.62705 8.20355 1.62705H6.68327C6.46608 1.62705 6.35749 1.7402 6.35749 1.9665V3.55058ZM8.63791 0.83501C8.63791 0.948159 8.74651 0.948159 8.74651 0.948159H9.39805C9.50665 0.948159 9.50665 0.83501 9.50665 0.83501V0.156117C9.50665 0.156117 9.50665 0.0429688 9.39805 0.0429688H8.74651L8.63791 0.156117V0.83501ZM0.276367 10.2264V9.77376C0.276367 9.77376 0.276367 9.66061 0.384959 9.66061H0.819325C0.819325 9.66061 0.927916 9.66061 0.927916 9.77376V10.2264C0.927916 10.2264 0.927916 10.3395 0.819325 10.3395L0.276367 10.2264C0.276367 10.3395 0.276367 10.2264 0.276367 10.2264Z" fill="url(#paint1_linear_21856_4678)"/>
<path d="M41.1059 8.3028C41.5402 8.3028 41.866 7.96335 41.866 7.51076V5.02148H33.613C32.5271 5.02148 31.5498 5.92667 31.5498 7.17131V8.18965C32.2014 9.32114 32.6357 10.6789 32.6357 12.3762C32.6357 14.0734 32.3099 15.4312 31.5498 16.5627V19.6177H41.1059C41.5402 19.6177 41.866 19.2782 41.866 18.8256V16.3364H35.0247V13.6208H39.8028C40.2371 13.6208 40.5629 13.2813 40.5629 12.8287V10.6789H35.0247V8.3028H41.1059Z" fill="url(#paint2_linear_21856_4678)"/>
<defs>
<linearGradient id="paint0_linear_21856_4678" x1="26.6822" y1="14.7527" x2="7.71437" y2="-3.45117" gradientUnits="userSpaceOnUse">
<stop stop-color="#AC2D28"/>
<stop offset="1" stop-color="#C24D2E"/>
</linearGradient>
<linearGradient id="paint1_linear_21856_4678" x1="20.5298" y1="21.1631" x2="1.56193" y2="2.9592" gradientUnits="userSpaceOnUse">
<stop stop-color="#AC2D28"/>
<stop offset="1" stop-color="#C24D2E"/>
</linearGradient>
<linearGradient id="paint2_linear_21856_4678" x1="32.8872" y1="8.28594" x2="13.9194" y2="-9.91795" gradientUnits="userSpaceOnUse">
<stop stop-color="#AC2D28"/>
<stop offset="1" stop-color="#C24D2E"/>
</linearGradient>
</defs>
</svg>
