<svg width="97" height="29" viewBox="0 0 97 29" fill="none" xmlns="http://www.w3.org/2000/svg">
<path d="M79.3584 11.3608C79.3584 16.641 79.3584 21.9211 79.3584 27.3612C77.368 27.3612 75.5307 27.3612 73.6934 27.3612C73.6934 18.401 73.6934 9.60081 73.6934 0.640625C75.5307 0.640625 77.368 0.640625 79.2053 0.640625C79.5115 0.640625 79.6646 0.960632 79.8178 1.28064C83.1862 5.92073 86.4015 10.4008 89.7699 15.0409C89.923 15.3609 90.2292 15.5209 90.5354 16.0009C90.5354 10.7208 90.5354 5.76073 90.5354 0.800628C92.5259 0.800628 94.3632 0.800628 96.2005 0.800628C96.2005 9.60081 96.2005 18.561 96.2005 27.5212C94.5163 27.5212 92.9852 27.5212 91.4541 27.5212C91.1479 27.5212 90.8417 27.0412 90.6886 26.8812C87.167 22.0811 83.6455 17.121 80.124 12.3209C79.9709 12.0009 79.6646 11.8409 79.5115 11.5208C79.5115 11.3608 79.3584 11.3608 79.3584 11.3608Z" fill="#0054A5"/>
<path d="M57.6162 28.1606C51.1856 28.4806 44.1426 22.7205 44.1426 14.0803C44.1426 6.24013 50.267 0 57.7694 0C65.2717 0 71.243 6.40013 71.243 14.2403C71.243 22.2405 64.6593 28.4806 57.6162 28.1606ZM57.7694 5.92012C53.4823 5.92012 49.9608 9.6002 49.9608 14.0803C49.9608 18.7204 53.3292 22.4005 57.7694 22.4005C62.0564 22.4005 65.7311 18.7204 65.7311 14.2403C65.578 9.60019 62.0564 5.92012 57.7694 5.92012Z" fill="#0054A5"/>
<path d="M23.7773 0.798828C24.0836 0.798828 24.3898 0.798828 24.696 0.798828C30.208 0.798828 35.7199 0.798828 41.385 0.798828C42.3036 0.798828 42.4568 1.11883 42.4568 1.91885C42.4568 3.03887 42.4568 3.99889 42.4568 5.11892C42.4568 5.91893 42.3036 6.23894 41.5381 6.23894C37.8635 6.23894 34.1888 6.23894 30.6673 6.23894C30.3611 6.23894 29.9017 6.23894 29.5955 6.23894C29.5955 7.99898 29.5955 9.59901 29.5955 11.199C33.5764 11.199 37.5572 11.199 41.6912 11.199C41.6912 12.9591 41.6912 14.5591 41.6912 16.3191C37.7103 16.3191 33.7295 16.3191 29.5955 16.3191C29.5955 18.3992 29.5955 20.3192 29.5955 22.3993C29.9017 22.3993 30.208 22.3993 30.6673 22.3993C34.3419 22.3993 38.0166 22.3993 41.6912 22.3993C42.4568 22.3993 42.6099 22.5593 42.6099 23.3593C42.6099 24.4793 42.6099 25.7593 42.6099 26.8794C42.6099 27.5194 42.4568 27.8394 41.6912 27.8394C36.0261 27.8394 30.3611 27.8394 24.5429 27.8394C23.9305 27.8394 23.7773 27.6794 23.7773 27.0394C23.7773 18.5592 23.7773 10.079 23.7773 1.59884C23.7773 1.27884 23.7773 0.958831 23.7773 0.798828Z" fill="#0054A5"/>
<path d="M0.200195 27.5194C0.200195 26.2394 0.200195 24.9593 0.200195 23.8393C0.200195 23.5193 0.506415 23.1993 0.659525 23.0393C4.33416 17.5992 7.85569 12.3191 11.5303 7.19896C11.6834 6.87895 11.8365 6.71895 12.1428 6.23894C8.16191 6.23894 4.48727 6.23894 0.506415 6.23894C0.506415 4.4789 0.506415 2.71887 0.506415 0.798828C0.812635 0.798828 1.11885 0.798828 1.42507 0.798828C7.39636 0.798828 13.3676 0.798828 19.3389 0.798828C20.2576 0.798828 20.4107 1.11883 20.4107 1.91885C20.5638 3.83889 19.9514 5.43892 18.8796 7.03896C15.5112 11.6791 12.2959 16.4791 9.08057 21.2792C8.92746 21.5993 8.77435 21.7593 8.46813 22.2393C12.6021 22.2393 16.7361 22.2393 20.87 22.2393C20.87 23.9993 20.87 25.5993 20.87 27.1994C20.87 27.3594 20.7169 27.5194 20.5638 27.5194C20.4107 27.5194 20.1045 27.5194 19.9514 27.5194C13.6739 27.5194 7.39636 27.5194 1.11885 27.5194C0.965745 27.5194 0.659525 27.5194 0.200195 27.5194Z" fill="#0054A5"/>
</svg>
