<svg width="401" height="136" viewBox="0 0 401 136" fill="none" xmlns="http://www.w3.org/2000/svg">
<path fill-rule="evenodd" clip-rule="evenodd" d="M242.728 121.587C273.672 112.672 301.921 94.0215 325.379 68C301.921 41.9786 273.672 23.328 242.728 14.413C259.454 26.7508 270.238 46.1646 270.238 68C270.238 89.8354 259.454 109.249 242.728 121.587ZM200.42 135.499C200.613 135.5 200.807 135.5 201 135.5C253.111 135.5 300.54 109.897 336 68C300.54 26.1035 253.111 0.5 201 0.5C200.808 0.5 200.617 0.500346 200.425 0.501038C200.294 0.500346 200.163 0.5 200.032 0.5C199.329 0.5 198.629 0.509925 197.931 0.529636C147.028 1.51334 100.763 26.9274 66 68C100.764 109.074 147.032 134.488 197.936 135.47C198.632 135.49 199.331 135.5 200.032 135.5C200.161 135.5 200.291 135.5 200.42 135.499ZM200.414 127.499C199.645 127.496 198.877 127.487 198.11 127.472C164.364 126.498 137.825 99.963 137.825 68C137.825 36.0384 164.361 9.50404 198.105 8.52783C198.875 8.51301 199.646 8.5041 200.419 8.50112C234.892 8.70079 262.238 35.5539 262.238 68C262.238 100.448 234.889 127.302 200.414 127.499ZM156.06 15.3763C140.063 27.7483 129.825 46.7247 129.825 68C129.825 89.2753 140.063 108.252 156.06 120.624C126.373 111.369 99.2648 93.1183 76.6206 68C99.2648 42.8817 126.373 24.6315 156.06 15.3763ZM188.29 66.7729C188.29 60.0914 193.969 54.4092 201.309 54.4092C208.65 54.4092 214.329 60.0914 214.329 66.7729C214.329 73.4544 208.65 79.1365 201.309 79.1365C193.969 79.1365 188.29 73.4544 188.29 66.7729ZM201.309 46.4092C189.85 46.4092 180.29 55.3796 180.29 66.7729C180.29 78.1661 189.85 87.1365 201.309 87.1365C212.768 87.1365 222.329 78.1661 222.329 66.7729C222.329 55.3796 212.768 46.4092 201.309 46.4092ZM187.972 31.5457C187.896 31.5452 187.831 31.5641 187.782 31.5914L176.175 38.0685C176.131 38.0929 176.113 38.1165 176.107 38.1259L176.234 45.3981C176.273 47.6389 175.677 49.838 174.523 51.7582L174.247 52.2177C173.094 54.1375 171.432 55.6989 169.456 56.7518L162.84 60.2768C162.792 60.3023 162.772 60.3278 162.766 60.3374L162.797 73.206C162.803 73.2155 162.822 73.241 162.87 73.2665L169.454 76.7881C171.437 77.8488 173.102 79.4217 174.253 81.3545L174.549 81.8513C175.686 83.7621 176.273 85.9459 176.234 88.1704L176.107 95.4107C176.113 95.4202 176.131 95.444 176.176 95.4686L187.82 101.92C187.869 101.947 187.934 101.966 188.009 101.965C188.085 101.965 188.149 101.945 188.196 101.917L194.66 98.1964C196.594 97.0827 198.794 96.5008 201.027 96.5008H201.587C203.825 96.5008 206.03 97.0853 207.967 98.2036L214.46 101.952C214.508 101.979 214.572 101.999 214.648 101.999C214.723 102 214.789 101.981 214.838 101.954L226.445 95.4766C226.489 95.4522 226.507 95.4286 226.513 95.4191L226.386 88.147C226.347 85.9062 226.943 83.7071 228.096 81.7869L228.372 81.3274L231.801 83.3874L228.372 81.3273C229.526 79.4076 231.188 77.8462 233.164 76.7933L239.78 73.2682C239.828 73.2428 239.847 73.2173 239.853 73.2077L239.823 60.3391C239.817 60.3296 239.798 60.3041 239.75 60.2786L233.15 56.7486C231.182 55.6957 229.526 54.1378 228.376 52.224L228.096 51.7582C226.943 49.838 226.347 47.6389 226.386 45.3981L226.513 38.1345C226.507 38.1249 226.488 38.1011 226.444 38.0766L214.8 31.6252C214.751 31.5981 214.686 31.5794 214.61 31.58C214.535 31.5806 214.471 31.6003 214.424 31.6276L207.96 35.3486C206.026 36.4623 203.825 37.0442 201.593 37.0442H201.032C198.795 37.0442 196.59 36.4598 194.653 35.3415L188.159 31.5935C188.112 31.5661 188.047 31.5462 187.972 31.5457ZM183.884 24.6055C186.453 23.1719 189.61 23.1937 192.158 24.6649L198.652 28.4129C199.36 28.8218 200.184 29.0442 201.032 29.0442H201.593C202.439 29.0442 203.261 28.8228 203.969 28.4155L210.432 24.6944C212.972 23.2323 216.114 23.2077 218.677 24.6275L230.321 31.0788C232.906 32.5112 234.565 35.2394 234.512 38.261L234.385 45.538C234.372 46.2639 234.564 46.9891 234.954 47.6382L235.234 48.1039C235.623 48.7528 236.202 49.3083 236.923 49.6942L243.523 53.2243C246.118 54.6121 247.816 57.2982 247.823 60.3077L247.853 73.2015C247.861 76.2297 246.155 78.9366 243.542 80.3286L236.926 83.8536C236.201 84.2396 235.621 84.7965 235.23 85.4474L234.954 85.9069C234.564 86.5559 234.372 87.2812 234.385 88.007L234.512 95.2926C234.565 98.3049 232.917 101.027 230.343 102.463L218.736 108.94C216.167 110.373 213.01 110.351 210.461 108.88L203.968 105.132C203.259 104.723 202.436 104.501 201.587 104.501H201.027C200.18 104.501 199.359 104.722 198.651 105.13L192.187 108.851C189.647 110.313 186.505 110.337 183.943 108.918L172.299 102.466C169.713 101.034 168.055 98.3054 168.108 95.2836L168.235 88.0299C168.248 87.3093 168.059 86.5893 167.675 85.9438L167.379 85.4469C166.989 84.792 166.408 84.2312 165.681 83.8424L159.097 80.3208C156.502 78.933 154.804 76.2469 154.797 73.2374L154.766 60.3436C154.759 57.3154 156.465 54.6085 159.078 53.2165L165.694 49.6914C166.418 49.3054 166.999 48.7486 167.39 48.0977L170.819 50.1577L167.39 48.0977L167.666 47.6382C168.056 46.9891 168.248 46.2639 168.235 45.538L168.108 38.2525C168.055 35.2402 169.703 32.5185 172.276 31.0826L183.884 24.6055Z" fill="#0979FD" fill-opacity="0.1"/>
<path d="M119.468 52.3V57.052H126.236V77.5H131.204V57.052H138.008V52.3H119.468ZM160.553 77.5L151.697 52.3H145.541L136.721 77.5H142.085L143.597 72.964H153.641L155.153 77.5H160.553ZM148.637 58.024L152.093 68.32H145.181L148.637 58.024ZM149.969 50.32H154.253L150.689 45.46H146.297L142.769 50.32H147.053L148.529 48.124L149.969 50.32ZM157.205 46.72L154.505 42.148H149.321L153.029 46.72H157.205ZM182.548 52.3L175.348 64.216L168.112 52.3H163V77.5H167.968V61.192L175.06 72.856H175.636L182.728 61.156V77.5H187.66V52.3H182.548ZM215.936 67.672L205.136 52.3H201.356V77.5H206.324V62.092L217.124 77.5H220.904V52.3H215.936V67.672ZM239.906 62.308H230.546V52.3H225.578V77.5H230.546V67.06H239.906V77.5H244.838V52.3H239.906V62.308ZM254.956 50.032L252.076 45.1H246.496L250.492 50.032H254.956ZM249.52 52.3H254.488V77.5H249.52V52.3ZM273.733 67.672L262.933 52.3H259.153V77.5H264.121V62.092L274.921 77.5H278.701V52.3H273.733V67.672Z" fill="#0979FD"/>
</svg>
