<svg width="401" height="200" viewBox="0 0 401 200" fill="none" xmlns="http://www.w3.org/2000/svg">
<path fill-rule="evenodd" clip-rule="evenodd" d="M236.61 164.233C240.38 157.486 243.588 149.721 246.063 141.173C240.955 144.993 235.481 148.61 229.676 151.962C223.821 155.342 217.9 158.296 211.987 160.823C220.595 162.967 228.898 164.094 236.61 164.233ZM241.189 172.202C230.411 189.42 215.785 200 199.676 200C183.523 200 168.861 189.361 158.074 172.058C137.696 171.368 121.151 163.989 113.074 150C104.988 135.995 106.884 117.953 116.503 99.9401C107.003 82.0125 105.163 64.0753 113.211 50.137C121.257 36.1997 137.71 28.8241 157.984 28.0873C168.779 10.6985 183.478 0 199.676 0C215.83 0 230.492 10.6391 241.279 27.9423C261.657 28.6322 278.202 36.0108 286.279 50.0001C294.347 63.974 292.477 81.9673 282.913 99.9406C292.596 117.999 294.522 136.097 286.416 150.137C278.309 164.178 261.671 171.56 241.189 172.202ZM231.684 172.033C221.505 171.376 210.624 169.211 199.538 165.529C188.513 169.155 177.699 171.279 167.582 171.911C177.056 185.218 188.433 192 199.676 192C210.886 192 222.227 185.26 231.684 172.033ZM187.097 160.787C178.556 162.885 170.319 163.98 162.668 164.1C158.937 157.396 155.76 149.691 153.303 141.217C158.446 145.071 163.961 148.72 169.813 152.099C175.535 155.402 181.319 158.298 187.097 160.787ZM199.55 157.078C191.041 154.075 182.377 150.115 173.813 145.17C165.106 140.143 157.227 134.517 150.289 128.54C148.599 119.584 147.676 109.999 147.676 100C147.676 90.0095 148.598 80.4322 150.284 71.4835C157.191 65.5486 165.024 59.962 173.676 54.9668C182.286 49.9962 190.997 46.0202 199.549 43.0116C208.227 46.0361 217.073 50.0573 225.813 55.1037C234.41 60.0671 242.199 65.6143 249.073 71.5069C250.757 80.4489 251.676 90.0182 251.676 100C251.676 109.991 250.755 119.568 249.069 128.517C242.162 134.452 234.328 140.038 225.676 145.033C216.982 150.053 208.184 154.059 199.55 157.078ZM258.526 80.409C259.281 86.7443 259.676 93.2951 259.676 100C259.676 106.703 259.281 113.252 258.526 119.585C264.665 113.196 269.769 106.565 273.72 99.9546C269.758 93.3708 264.655 86.7688 258.526 80.409ZM278.019 91.799C272.378 83.3361 265.089 75.0191 256.39 67.2771C254.018 55.8539 250.438 45.3702 245.906 36.2499C262.167 37.8009 273.729 44.2626 279.351 54.0001C284.968 63.7287 284.788 76.9574 278.019 91.799ZM278.044 108.095C272.409 116.598 265.109 124.959 256.387 132.742C254.001 144.223 250.395 154.755 245.827 163.907C262.202 162.393 273.841 155.917 279.488 146.137C285.135 136.355 284.923 123.035 278.044 108.095ZM246.076 58.8718C241.003 55.0857 235.571 51.4999 229.813 48.1755C223.925 44.7759 217.97 41.808 212.024 39.2708C220.648 37.1352 228.965 36.0217 236.685 35.9002C240.429 42.6279 243.616 50.3629 246.076 58.8718ZM199.537 34.563C210.658 30.8815 221.569 28.7264 231.771 28.0895C222.298 14.7822 210.92 8 199.676 8C188.398 8 176.985 14.8241 167.494 28.2127C177.633 28.8242 188.478 30.9382 199.537 34.563ZM153.369 36.4077C137.221 37.9949 125.736 44.4425 120.139 54.1371C114.543 63.8301 114.7 76.9976 121.397 91.7732C127.02 83.3151 134.289 75.0008 142.966 67.2585C145.325 55.9084 148.876 45.4861 153.369 36.4077ZM121.371 108.119C114.566 122.994 114.375 136.254 120.002 146C125.624 155.738 137.186 162.199 153.448 163.75C148.92 154.64 145.343 144.169 142.97 132.76C134.268 124.977 126.988 116.619 121.371 108.119ZM140.826 119.579C134.706 113.19 129.621 106.56 125.688 99.9541C129.631 93.3744 134.716 86.7746 140.827 80.4148C140.072 86.7483 139.676 93.2971 139.676 100C139.676 106.701 140.072 113.247 140.826 119.579ZM162.594 36.034C170.252 36.1368 178.502 37.2183 187.06 39.3079C181.248 41.8065 175.431 44.7163 169.676 48.0386C163.872 51.39 158.398 55.0072 153.29 58.8274C155.732 50.3923 158.888 42.7187 162.594 36.034ZM200.386 80.6665C204.444 80.6665 207.733 83.9561 207.733 88.014C207.733 92.0719 204.444 95.3615 200.386 95.3615C196.328 95.3615 193.038 92.0719 193.038 88.014C193.038 83.9561 196.328 80.6665 200.386 80.6665ZM215.733 88.014C215.733 79.5378 208.862 72.6665 200.386 72.6665C191.909 72.6665 185.038 79.5378 185.038 88.014C185.038 95.6431 190.605 101.972 197.898 103.161C194.523 103.388 191.172 104.079 187.941 105.233L181.837 107.413C178.653 108.55 176.528 111.566 176.528 114.947V124.006C176.528 127.658 179.761 130.462 183.376 129.946L197.133 127.981C199.291 127.672 201.481 127.672 203.638 127.981L217.395 129.946C221.01 130.462 224.244 127.658 224.244 124.006V114.947C224.244 111.566 222.118 108.55 218.935 107.413L212.83 105.233C209.599 104.079 206.248 103.388 202.874 103.161C210.167 101.972 215.733 95.6431 215.733 88.014ZM190.632 112.767C196.939 110.514 203.832 110.514 210.139 112.767L216.244 114.947V121.7L204.77 120.061C201.862 119.646 198.91 119.646 196.002 120.061L184.528 121.7V114.947L190.632 112.767Z" fill="#0979FD" fill-opacity="0.1"/>
<path d="M153.966 96.464V100.856H161.598C160.698 103.844 158.106 105.644 154.254 105.644C151.662 105.644 149.574 104.888 147.99 103.34C146.442 101.792 145.65 99.812 145.65 97.436C145.65 95.024 146.406 93.044 147.954 91.496C149.502 89.912 151.482 89.12 153.894 89.12C156.882 89.12 159.474 90.56 160.662 92.612L164.91 90.164C162.75 86.6 158.646 84.296 153.93 84.296C150.186 84.296 147.054 85.556 144.498 88.112C141.978 90.668 140.718 93.764 140.718 97.436C140.718 101.072 141.978 104.168 144.534 106.724C147.09 109.244 150.33 110.504 154.218 110.504C157.854 110.504 160.842 109.388 163.146 107.156C165.45 104.924 166.602 102.008 166.602 98.408V96.464H153.966ZM170.136 110H175.104V84.8H170.136V110ZM189.453 77.6L186.573 82.532H191.037L195.033 77.6H189.453ZM201.369 110L192.513 84.8H186.357L177.537 110H182.901L184.413 105.464H194.457L195.969 110H201.369ZM189.453 90.524L192.909 100.82H185.997L189.453 90.524ZM210.944 84.8V89.552H217.712V110H222.68V89.552H229.484V84.8H210.944ZM251.445 110L245.865 100.496C248.781 99.164 250.725 96.284 250.725 93.152C250.725 90.848 249.897 88.868 248.277 87.248C246.657 85.628 244.677 84.8 242.337 84.8H232.257V110H237.225V101.252H241.005L246.081 110H251.445ZM242.337 89.444C244.209 89.444 245.757 91.1 245.757 93.152C245.757 95.204 244.209 96.896 242.337 96.896H237.225V89.444H242.337ZM256.89 118.208C258.474 118.208 259.77 116.948 259.77 115.436C259.77 113.924 258.474 112.628 256.89 112.628C255.342 112.628 254.046 113.924 254.046 115.436C254.046 116.948 255.342 118.208 256.89 118.208ZM254.37 110H259.338V84.8H254.37V110Z" fill="#0979FD"/>
</svg>
