<svg width="401" height="200" viewBox="0 0 401 200" fill="none" xmlns="http://www.w3.org/2000/svg">
<path fill-rule="evenodd" clip-rule="evenodd" d="M291 100C291 150.81 249.81 192 199 192C148.19 192 107 150.81 107 100C107 49.1898 148.19 8 199 8C231.942 8 260.84 25.3133 277.091 51.3368L263.223 59.3436C249.746 38.1001 226.02 24 199 24C157.026 24 123 58.0264 123 100C123 141.974 157.026 176 199 176C240.974 176 275 141.974 275 100C275 87.9038 272.174 76.4677 267.146 66.3158L281.029 58.3006C287.405 70.8181 291 84.9892 291 100ZM199 0C234.903 0 266.386 18.9203 284.024 47.334L295.423 40.7529L300.993 19.9647C301.267 18.94 301.938 18.0663 302.857 17.5358L330.569 1.53585C331.97 0.726925 333.721 0.841654 335.004 1.82654C336.288 2.81142 336.852 4.47251 336.433 6.03523L331.612 24.0279L349.605 28.8491C351.167 29.2678 352.324 30.5867 352.535 32.1907C352.746 33.7947 351.97 35.3679 350.569 36.1769L322.857 52.1769C321.938 52.7073 320.846 52.851 319.821 52.5765L300.097 47.2915L287.968 54.2947C295.019 67.9936 299 83.5319 299 100C299 131.948 284.019 160.396 260.698 178.703C260.742 178.744 260.786 178.786 260.828 178.828L272.142 190.142C273.704 191.704 273.704 194.237 272.142 195.799C270.58 197.361 268.047 197.361 266.485 195.799L255.172 184.485C254.818 184.132 254.544 183.728 254.351 183.297C238.501 193.85 219.469 200 199 200C178.521 200 159.48 193.844 143.627 183.282C143.433 183.719 143.157 184.127 142.799 184.485L131.485 195.799C129.923 197.361 127.391 197.361 125.829 195.799C124.266 194.237 124.266 191.704 125.829 190.142L137.142 178.828C137.189 178.781 137.238 178.735 137.286 178.691C113.975 160.383 99 131.94 99 100C99 44.7715 143.772 0 199 0ZM199 32C223.059 32 244.199 44.4942 256.287 63.348L242.409 71.3602C233.104 57.2847 217.136 48 199 48C170.281 48 147 71.2812 147 100C147 128.719 170.281 152 199 152C227.719 152 251 128.719 251 100C251 92.2758 249.316 84.9449 246.295 78.3545L260.201 70.3258C264.557 79.2929 267 89.3611 267 100C267 137.555 236.555 168 199 168C161.445 168 131 137.555 131 100C131 62.4446 161.445 32 199 32ZM199 56C214.175 56 227.556 63.682 235.465 75.3693L207.491 91.5203C205.319 89.3455 202.317 88 199 88C192.373 88 187 93.3726 187 100C187 106.627 192.373 112 199 112C205.627 112 211 106.627 211 100C211 99.5841 210.979 99.173 210.938 98.768L239.329 82.3765C241.69 87.7723 243 93.7332 243 100C243 124.301 223.301 144 199 144C174.699 144 155 124.301 155 100C155 75.6995 174.699 56 199 56ZM308.291 23.6356L326.206 13.2925L322.849 25.8211C322.277 27.9549 323.544 30.1483 325.678 30.7201L338.206 34.0771L320.291 44.4202L303.899 40.0279L308.291 23.6356Z" fill="#0979FD" fill-opacity="0.1"/>
<path d="M136.459 110.504C139.159 110.504 141.355 109.82 143.047 108.452C144.739 107.084 145.603 105.248 145.603 102.908C145.603 101.468 145.207 100.208 144.667 99.344C144.199 98.48 143.047 97.58 142.291 97.112C141.931 96.86 141.391 96.608 140.707 96.356C140.023 96.068 139.483 95.852 139.087 95.744L137.359 95.168C135.487 94.592 134.227 94.052 133.543 93.584C132.895 93.08 132.571 92.432 132.571 91.64C132.571 90.164 133.831 89.12 135.883 89.12C138.079 89.12 139.699 90.2 140.707 92.36L144.883 89.948C143.155 86.384 139.951 84.296 135.883 84.296C133.615 84.296 131.635 84.98 130.015 86.348C128.395 87.68 127.603 89.516 127.603 91.784C127.603 94.088 128.431 95.816 129.979 96.968C131.563 98.084 132.931 98.624 135.199 99.308C137.251 99.884 138.655 100.424 139.447 100.928C140.239 101.396 140.635 102.08 140.635 102.98C140.635 104.528 139.375 105.644 136.603 105.644C133.723 105.644 131.779 104.348 130.807 101.792L126.559 104.276C127.963 108.128 131.455 110.504 136.459 110.504ZM156.151 82.532H160.615L164.611 77.6H159.031L156.151 82.532ZM158.239 110.504C161.083 110.504 163.387 109.712 165.187 108.128C166.987 106.544 167.887 104.42 167.887 101.756V87.86C170.335 87.428 171.163 85.916 171.163 82.856V82.244H167.419V82.856C167.419 84.152 167.239 84.764 166.051 84.8H162.919V101.36C162.919 103.988 161.443 105.644 158.239 105.644C155.035 105.644 153.559 103.988 153.559 101.36V84.8H148.627V101.756C148.627 104.42 149.527 106.544 151.327 108.128C153.127 109.712 155.431 110.504 158.239 110.504ZM200.91 84.8L193.71 96.716L186.474 84.8H181.362V110H186.33V93.692L193.422 105.356H193.998L201.09 93.656V110H206.022V84.8H200.91ZM219.754 82.82H224.038L220.474 77.96H216.082L212.554 82.82H216.838L218.314 80.624L219.754 82.82ZM215.686 99.596H225.226V94.916H215.686V89.552H226.126V84.8H210.718V110H226.306V105.248H215.686V99.596ZM218.458 118.208C220.042 118.208 221.338 116.948 221.338 115.436C221.338 113.924 220.042 112.628 218.458 112.628C216.91 112.628 215.614 113.924 215.614 115.436C215.614 116.948 216.91 118.208 218.458 118.208ZM244.388 100.172L233.588 84.8H229.808V110H234.776V94.592L245.576 110H249.356V84.8H244.388V100.172ZM268.358 94.808H258.998V84.8H254.03V110H258.998V99.56H268.358V110H273.29V84.8H268.358V94.808Z" fill="#0979FD"/>
</svg>
