<svg width="88" height="18" viewBox="0 0 88 18" fill="none" xmlns="http://www.w3.org/2000/svg">
<path d="M49.7045 0.332031C53.4391 0.332031 57.1736 0.332031 60.8252 0.332031C63.3979 0.332031 65.5557 1.19458 67.1325 3.35094C68.0454 4.64475 68.5434 6.11108 68.6263 7.66366C68.7923 9.82002 68.4604 11.8039 67.5475 13.7015C66.3026 16.0303 64.3938 17.1516 61.8211 17.4104C58.5845 17.6692 55.4308 17.4967 52.1942 17.5829C51.7793 17.5829 51.6963 17.4104 51.6963 17.0654C51.6963 13.874 51.6963 10.5963 51.6963 7.40489C51.6963 7.05987 51.7793 6.80111 52.1942 6.80111C53.771 6.80111 55.4308 6.80111 57.0077 6.71486C57.5886 6.71486 57.7546 6.97362 57.7546 7.5774C57.7546 9.30249 57.8376 11.1138 57.6716 12.8389C57.6716 13.1839 57.9206 13.4427 58.2525 13.4427C60.4103 13.4427 61.9871 12.9252 62.2361 10.4238C62.3191 9.12998 62.3191 7.92242 62.0701 6.71486C61.7381 5.5073 60.9912 4.81726 59.8293 4.64475C59.0824 4.5585 58.3355 4.47224 57.5886 4.47224C52.1942 4.47224 46.8828 4.47224 41.4884 4.47224C40.9905 4.47224 40.5755 4.5585 40.0776 4.5585C39.4137 4.5585 39.1647 4.90351 39.1647 5.5073C39.1647 6.11108 39.2477 6.6286 39.9946 6.71486C41.8204 6.97362 43.6462 6.71486 45.472 6.88737C46.7998 7.05988 48.1277 7.40489 49.0406 8.5262C50.5344 10.3375 50.5344 14.4778 48.9576 16.0303C47.8787 17.0654 46.7168 17.5829 45.306 17.5829C42.0694 17.5829 38.7497 17.6692 35.5131 17.6692C33.3553 17.6692 31.1976 17.5829 29.0398 17.6692C28.4589 17.6692 28.2929 17.4104 28.2099 16.9791C27.795 14.9953 27.214 13.0114 26.7161 11.1138C26.3011 9.56125 25.9692 7.92242 25.5542 6.36984C25.4712 6.11108 25.4712 5.59355 25.1393 5.6798C24.8073 5.6798 24.6413 6.02482 24.5583 6.45609C24.3094 8.61245 23.8114 10.6826 23.2305 12.7527C23.0645 13.3564 23.3135 13.6152 23.8114 13.6152C23.9774 13.6152 24.2264 13.6152 24.3924 13.6152C25.0563 13.6152 25.4712 13.874 25.5542 14.6503C25.6372 15.5128 25.8862 16.2891 26.1352 17.0654C26.3011 17.4967 26.2181 17.7554 25.6372 17.7554C22.4006 17.7554 19.081 17.7554 15.8443 17.7554C15.3464 17.7554 15.3464 17.4967 15.5124 17.0654C16.2593 14.9953 17.0892 12.9252 17.8361 10.8551C18.998 7.5774 20.2428 4.21348 21.4047 0.935812C21.5707 0.590794 21.7367 0.332031 22.0686 0.332031C24.1434 0.332031 26.1352 0.332031 28.2099 0.332031C28.5419 0.332031 28.7909 0.50454 28.8738 0.849558C29.2058 2.14337 29.6208 3.35094 30.1187 4.5585C30.8656 6.45609 31.4466 8.43995 32.2765 10.3375C32.6084 11.0276 32.8574 11.7176 33.0234 12.4939C33.1894 13.0977 33.4383 13.529 34.1852 13.529C37.0069 13.4427 39.9116 13.4427 42.7333 13.4427C43.8122 13.4427 44.1441 12.8389 43.8122 11.8901C43.6462 11.4588 43.3972 11.2001 42.8163 11.2001C41.4884 11.2001 40.0776 11.2001 38.7497 11.2001C36.7579 11.1138 35.0151 10.5963 33.6873 8.87122C33.1894 8.26744 33.1894 7.66366 33.0234 6.97362C32.6914 5.07602 33.1064 3.35094 34.4342 1.88461C35.4301 0.849558 36.675 0.418286 38.0028 0.418286C41.9034 0.332031 45.8039 0.332031 49.7045 0.332031Z" fill="#0277C7"/>
<path d="M73.1094 17.6695C71.5326 17.6695 69.9558 17.6695 68.2959 17.6695C67.798 17.6695 67.632 17.3245 67.881 16.6344C68.2129 15.8581 68.4619 15.0819 68.7939 14.3056C70.2047 10.5104 71.6156 6.71517 72.9434 2.91998C73.1924 2.22995 73.3584 1.62616 73.6073 0.936129C73.7733 0.504857 74.1053 0.246094 74.5202 0.246094C76.429 0.246094 78.4208 0.246094 80.3296 0.246094C80.7445 0.246094 80.9935 0.418603 81.0765 0.849875C82.4873 5.42136 84.3961 9.90659 85.9729 14.4781C86.3049 15.3406 86.5539 16.1169 86.9688 16.9795C87.2178 17.5832 87.0518 17.6695 86.4709 17.6695C84.7281 17.6695 82.9023 17.6695 81.1595 17.6695C80.7445 17.6695 80.4956 17.5832 80.3296 17.0657C79.4997 13.6155 78.5868 10.1654 77.7569 6.80143C77.7569 6.2839 77.7569 5.59387 77.2589 5.59387C76.761 5.59387 76.761 6.37016 76.678 6.80143C76.512 8.69903 76.0141 10.5104 75.4331 12.3217C75.1842 13.1843 75.3501 13.443 76.263 13.5293C77.4249 13.6155 77.4249 13.6155 77.7569 14.8231C77.9229 15.5131 78.1718 16.2894 78.4208 16.9795C78.6698 17.5832 78.4208 17.6695 77.9229 17.6695C76.346 17.5832 74.6862 17.5832 73.1094 17.6695Z" fill="#0277C7"/>
<path d="M19.2478 0.504857C18.5838 1.97118 17.7539 3.17874 17.007 4.55881C15.8451 6.62892 14.6833 8.61277 13.6044 10.6829C13.2724 11.2004 13.1065 11.8042 13.1065 12.4942C13.1065 13.9605 13.1065 15.5131 13.1894 16.9795C13.1894 17.5832 13.0235 17.7557 12.4425 17.7557C10.7827 17.7557 9.03991 17.6695 7.3801 17.7557C6.88216 17.7557 6.96515 17.497 6.96515 17.152C6.96515 15.8581 6.96515 14.5643 6.96515 13.2705C6.96515 12.0629 6.71618 11.0279 6.05225 9.99284C4.39244 7.31896 2.89861 4.55881 1.40478 1.79867C0.657863 0.418603 0.657863 0.418603 2.23468 0.332348C3.81151 0.246094 5.30534 0.246094 6.88216 0.246094C7.29711 0.246094 7.54608 0.418603 7.71206 0.849875C8.293 2.3162 8.87393 3.69627 9.45487 5.1626C9.53786 5.42136 9.70384 5.85263 10.1188 5.76638C10.5337 5.76638 10.5337 5.3351 10.6997 5.07634C11.1977 3.52376 11.9446 2.14369 12.4425 0.677366C12.5255 0.332348 12.7745 0.332348 13.0235 0.332348C14.8493 0.332348 16.675 0.332348 18.5008 0.332348C18.6668 0.246094 18.9158 0.418603 19.2478 0.504857Z" fill="#0277C7"/>
</svg>
