<svg width="80" height="80" viewBox="0 0 80 80" fill="none" xmlns="http://www.w3.org/2000/svg">
<path fill-rule="evenodd" clip-rule="evenodd" d="M37.8641 75.8329L23.731 66.9068C17.8181 63.1723 14.033 56.8491 13.5347 49.8734L11.0717 15.3904C10.9201 13.2684 12.8997 11.7881 14.8056 12.2279C16.473 12.6127 18.2115 12.8165 20 12.8165C27.0833 12.8165 33.4174 9.61694 37.6396 4.57702C38.8666 3.11235 41.1335 3.11235 42.3605 4.57702C46.5827 9.61694 52.9168 12.8165 60 12.8165C61.7886 12.8165 63.5271 12.6127 65.1945 12.2279C67.1004 11.7881 69.08 13.2684 68.9284 15.3904L66.4654 49.8734C65.9671 56.8491 62.182 63.1723 56.2691 66.9068L42.136 75.8329C40.8313 76.657 39.1688 76.657 37.8641 75.8329ZM41.068 74.1419L55.2011 65.2158C60.5765 61.8208 64.0175 56.0724 64.4704 49.7309L66.9335 15.2479C66.9832 14.5526 66.3234 14.02 65.6442 14.1767C63.8304 14.5953 61.941 14.8165 60 14.8165C52.3002 14.8165 45.4134 11.3355 40.8274 5.86139C40.3997 5.35089 39.6004 5.35089 39.1727 5.86139C34.5867 11.3355 27.6999 14.8165 20 14.8165C18.0591 14.8165 16.1697 14.5953 14.3559 14.1767C13.6767 14.02 13.0169 14.5526 13.0666 15.2479L15.5297 49.7309C15.9826 56.0724 19.4236 61.8208 24.799 65.2158L38.9321 74.1419C39.5844 74.554 40.4157 74.554 41.068 74.1419ZM27.1059 56.9866C26.7154 56.5961 26.7154 55.9629 27.1059 55.5724L32.8753 49.803C32.8072 49.6762 32.7427 49.5472 32.6818 49.4162C30.7968 45.7856 31.705 42.3061 32.3864 39.6951L32.4338 39.5137C32.9606 37.4906 33.299 36.0579 33.0551 34.7297C32.8867 33.813 33.3739 32.9014 34.2297 32.5321C34.7602 32.3032 35.345 32.3202 35.8443 32.5451C35.8291 30.8697 35.4949 29.1178 34.667 27.3036C34.3845 26.6845 34.4362 25.9642 34.8042 25.3918C35.1722 24.8193 35.806 24.4733 36.4865 24.4733C37.8195 24.4733 38.9039 25.2933 39.6132 25.9634C40.402 26.7086 41.1717 27.7006 41.8933 28.7786C42.0757 29.0511 42.2581 29.3336 42.4399 29.6249C42.477 28.9859 42.8203 28.3869 43.3879 28.0373C44.1479 27.5692 45.1261 27.6614 45.7853 28.2632C47.1914 29.547 48.4049 31.3345 49.304 33.3743L55.1274 27.5509C55.518 27.1603 56.1511 27.1603 56.5416 27.5509C56.9322 27.9414 56.9322 28.5746 56.5416 28.9651L50.0758 35.4309C50.3525 36.3139 50.571 37.2249 50.7231 38.1472C51.3718 42.0796 50.864 46.5392 48.1537 50.1599C46.6478 52.6269 43.7772 54.1806 40.6171 54.1806C38.0547 54.1806 35.6719 53.1554 34.0615 51.4452L28.5201 56.9866C28.1296 57.3771 27.4965 57.3771 27.1059 56.9866ZM35.4776 50.0292C36.689 51.3415 38.5413 52.1806 40.6171 52.1806C43.1764 52.1806 45.3959 50.9051 46.4936 49.0396C49.1533 45.5485 49.4436 41.007 48.4553 37.0515L35.4776 50.0292ZM47.7738 34.9045C47.5282 34.272 47.2509 33.6659 46.9474 33.0944C46.232 31.7474 45.3709 30.5931 44.4368 29.7402C44.8428 31.1892 44.9784 32.4681 44.9428 33.603C44.9372 33.7828 44.9272 33.9589 44.9134 34.1316C44.8163 35.3429 44.5272 36.3816 44.1823 37.2833C43.7651 36.3507 43.3213 35.4116 42.8618 34.4972C41.7387 32.2621 40.5216 30.1741 39.3689 28.6887C38.3134 27.3283 37.312 26.4733 36.4865 26.4733C36.9687 27.5298 37.3045 28.5675 37.5216 29.5813C37.9113 31.401 37.9185 33.1439 37.7028 34.7819C37.5641 35.8342 37.3335 36.8432 37.0532 37.8013C37.0241 37.7391 36.9946 37.6766 36.9645 37.6139C36.5947 36.8421 36.1503 36.036 35.6125 35.2179C35.4271 34.9359 35.2306 34.6524 35.0222 34.3684C35.2362 35.5336 35.1191 36.7134 34.8772 37.9109C34.7366 38.607 34.5538 39.3091 34.3692 40.0177C33.6759 42.6802 32.9585 45.4351 34.3653 48.313L47.7738 34.9045Z" fill="url(#paint0_linear_21487_6461)"/>
<defs>
<linearGradient id="paint0_linear_21487_6461" x1="11.0635" y1="39.9647" x2="72.5461" y2="41.5441" gradientUnits="userSpaceOnUse">
<stop stop-color="#0091EF"/>
<stop offset="1" stop-color="#32D7D4"/>
</linearGradient>
</defs>
</svg>
