<svg width="553" height="472" viewBox="0 0 553 472" fill="none" xmlns="http://www.w3.org/2000/svg">
<path opacity="0.6" d="M522.139 259.934C522.139 287.624 507.101 314.665 482.414 339.68C457.733 364.69 423.456 387.622 385.103 407.084C308.391 446.012 215.49 470.999 150.724 470.999C118.384 470.999 92.8527 462.511 72.7355 448.064C52.6138 433.614 37.8766 413.18 27.1701 389.24C5.75038 341.344 0.499985 279.499 0.499985 223.762C0.499985 168.043 8.68339 114.106 33.0132 74.113C57.3175 34.1617 97.7668 8.07031 162.468 8.07031C227.193 8.07031 317.138 43.2289 390.925 92.3555C427.809 116.913 460.627 144.942 484.218 173.779C507.817 202.625 522.139 232.225 522.139 259.934Z" fill="url(#paint0_linear_22160_12239)" stroke="white"/>
<path d="M551.99 252.364C551.99 280.053 536.953 307.094 512.266 332.109C487.584 357.119 453.307 380.052 414.955 399.514C338.242 438.442 245.341 463.429 180.575 463.429C148.236 463.429 122.704 454.94 102.587 440.494C82.4654 426.044 67.7281 405.61 57.0217 381.669C35.6019 333.774 30.3515 271.928 30.3515 216.192C30.3515 160.473 38.535 106.536 62.8647 66.5427C87.1691 26.5914 127.618 0.5 192.32 0.5C257.045 0.5 346.99 35.6586 420.776 84.7851C457.661 109.343 490.479 137.372 514.07 166.209C537.668 195.055 551.99 224.655 551.99 252.364Z" stroke="white"/>
<defs>
<linearGradient id="paint0_linear_22160_12239" x1="-95.9825" y1="199.058" x2="525.814" y2="461.223" gradientUnits="userSpaceOnUse">
<stop stop-color="#CEE0F4"/>
<stop offset="1" stop-color="#EDF4F9"/>
</linearGradient>
</defs>
</svg>
