<svg width="107" height="24" viewBox="0 0 107 24" fill="none" xmlns="http://www.w3.org/2000/svg">
<rect y="2" width="107" height="20" rx="2" fill="#54545400" />
<rect y="2" width="28" height="20" rx="2" fill="#54545400" />
<mask id="mask0" mask-type="alpha" maskUnits="userSpaceOnUse" x="0" y="2" width="28" height="20">
<path d="M0 4C0 2.89543 0.895431 2 2 2H28V22H2C0.895431 22 0 21.1046 0 20V4Z" fill="white"/>
</mask>
<g mask="url(#mask0)">
<rect y="2" width="28" height="20" fill="#EA403F"/>
<path fill-rule="evenodd" clip-rule="evenodd" d="M14 14.34L10.4733 16.8541L11.7745 12.7231L8.29366 10.1459L12.6246 10.1069L14 6L15.3754 10.1069L19.7063 10.1459L16.2255 12.7231L17.5267 16.8541L14 14.34Z" fill="#FFFE4E"/>
</g>
<path d="M38.5664 14.5322L40.8223 7.04688H43.1055L39.6396 17H37.5L34.0479 7.04688H36.3242L38.5664 14.5322ZM46.4295 17H44.3787V7.04688H46.4295V17ZM54.525 12.6865H50.5875V15.3525H55.2086V17H48.5367V7.04688H55.1949V8.70801H50.5875V11.0801H54.525V12.6865ZM54.6139 6.27441V6.35645H53.0416L51.9889 5.36523L50.9361 6.35645H49.3912V6.24707L51.4146 4.36035H52.5631L54.6139 6.27441ZM50.8951 18.5312C50.8951 18.2578 50.9977 18.0322 51.2027 17.8545C51.4078 17.6768 51.6721 17.5879 51.9957 17.5879C52.3238 17.5879 52.5904 17.6768 52.7955 17.8545C53.0006 18.0322 53.1031 18.2578 53.1031 18.5312C53.1031 18.8001 53.0006 19.0257 52.7955 19.208C52.595 19.3903 52.3284 19.4814 51.9957 19.4814C51.663 19.4814 51.3964 19.3903 51.1959 19.208C50.9954 19.0257 50.8951 18.8001 50.8951 18.5312ZM64.2406 8.70801H61.1918V17H59.141V8.70801H56.1332V7.04688H64.2406V8.70801ZM76.9863 17H74.9355L70.9434 10.4512V17H68.8926V7.04688H70.9434L74.9424 13.6094V7.04688H76.9863V17ZM84.7195 14.9492H81.1238L80.4402 17H78.2596L81.9646 7.04688H83.865L87.5906 17H85.41L84.7195 14.9492ZM81.6775 13.2881H84.1658L82.9148 9.5625L81.6775 13.2881ZM91.4 7.04688L93.9566 14.2656L96.4996 7.04688H99.193V17H97.1354V14.2793L97.3404 9.58301L94.6539 17H93.2457L90.566 9.58984L90.7711 14.2793V17H88.7203V7.04688H91.4Z" fill="black"/>
</svg>
