<svg width="32" height="32" viewBox="0 0 32 32" fill="none" xmlns="http://www.w3.org/2000/svg">
<rect width="32" height="32" rx="16" fill="#0979FD"/>
<path d="M12.585 11.4697C12.2921 11.1768 11.8173 11.1768 11.5244 11.4697C11.2315 11.7626 11.2315 12.2374 11.5244 12.5303L12.585 11.4697ZM19.5244 20.5303C19.8173 20.8232 20.2921 20.8232 20.585 20.5303C20.8779 20.2374 20.8779 19.7626 20.585 19.4697L19.5244 20.5303ZM11.5244 19.4697C11.2315 19.7626 11.2315 20.2374 11.5244 20.5303C11.8173 20.8232 12.2921 20.8232 12.585 20.5303L11.5244 19.4697ZM20.585 12.5303C20.8779 12.2374 20.8779 11.7626 20.585 11.4697C20.2921 11.1768 19.8173 11.1768 19.5244 11.4697L20.585 12.5303ZM11.5244 12.5303L19.5244 20.5303L20.585 19.4697L12.585 11.4697L11.5244 12.5303ZM12.585 20.5303L20.585 12.5303L19.5244 11.4697L11.5244 19.4697L12.585 20.5303Z" fill="white"/>
</svg>
