<svg width="49" height="48" viewBox="0 0 49 48" fill="none" xmlns="http://www.w3.org/2000/svg">
<path fill-rule="evenodd" clip-rule="evenodd" d="M23.0673 5.39806C23.7773 4.86731 24.7521 4.86731 25.4621 5.39806L42.2268 17.9293C42.732 18.3069 43.0294 18.9006 43.0294 19.5312V40.6359C43.0294 41.7405 42.134 42.6359 41.0294 42.6359H7.5C6.39543 42.6359 5.5 41.7405 5.5 40.6359V19.5312C5.5 18.9006 5.79745 18.3069 6.30259 17.9293L23.0673 5.39806ZM26.6595 3.79613C25.2394 2.73463 23.29 2.73462 21.8699 3.79612L5.10518 16.3274C4.09491 17.0825 3.5 18.2699 3.5 19.5312V40.6359C3.5 42.8451 5.29086 44.6359 7.5 44.6359H41.0294C43.2385 44.6359 45.0294 42.8451 45.0294 40.6359V19.5312C45.0294 18.2699 44.4345 17.0825 43.4242 16.3274L26.6595 3.79613ZM29.9706 24.7071V25.2416C32.0424 25.3922 33.6765 27.1208 33.6765 29.231V35.3263C33.6765 37.5355 31.8856 39.3263 29.6765 39.3263H18.8529C16.6438 39.3263 14.8529 37.5355 14.8529 35.3263V29.231C14.8529 27.1208 16.487 25.3922 18.5588 25.2416V24.7071C18.5588 23.9532 18.7041 23.2057 18.9875 22.5069C19.2709 21.808 19.6873 21.1703 20.215 20.6312C20.7429 20.0919 21.3718 19.6619 22.0671 19.3677C22.7625 19.0734 23.5094 18.9214 24.2647 18.9214C25.02 18.9214 25.7669 19.0734 26.4623 19.3677C27.1576 19.6619 27.7865 20.0919 28.3144 20.6311C28.8421 21.1703 29.2586 21.808 29.5419 22.5069C29.8253 23.2057 29.9706 23.9532 29.9706 24.7071ZM16.8529 29.231C16.8529 28.1264 17.7484 27.231 18.8529 27.231H29.6765C30.781 27.231 31.6765 28.1264 31.6765 29.231V35.3263C31.6765 36.4309 30.781 37.3263 29.6765 37.3263H18.8529C17.7484 37.3263 16.8529 36.4309 16.8529 35.3263V29.231ZM20.5588 24.7071H22.5588H24.2647H25.9706H27.9706C27.9706 24.21 27.8747 23.7177 27.6885 23.2584C27.6108 23.0668 27.518 22.8824 27.4112 22.7071C27.2621 22.4623 27.0857 22.2351 26.8852 22.0302C26.541 21.6787 26.1325 21.3998 25.6829 21.2096C25.2333 21.0193 24.7514 20.9214 24.2647 20.9214C23.778 20.9214 23.2961 21.0193 22.8465 21.2096C22.3969 21.3998 21.9884 21.6787 21.6443 22.0302C21.4437 22.2351 21.2673 22.4623 21.1182 22.7071C21.0114 22.8824 20.9186 23.0668 20.8409 23.2584C20.6547 23.7177 20.5588 24.21 20.5588 24.7071ZM25.0294 30.7548C25.0294 30.2025 24.5817 29.7548 24.0294 29.7548C23.4771 29.7548 23.0294 30.2025 23.0294 30.7548V33.8025C23.0294 34.3548 23.4771 34.8025 24.0294 34.8025C24.5817 34.8025 25.0294 34.3548 25.0294 33.8025V30.7548Z" fill="url(#paint0_linear_21458_6384)"/>
<defs>
<linearGradient id="paint0_linear_21458_6384" x1="3.5" y1="23.818" x2="47.6026" y2="25.2428" gradientUnits="userSpaceOnUse">
<stop stop-color="#0091EF"/>
<stop offset="1" stop-color="#32D7D4"/>
</linearGradient>
</defs>
</svg>
