<svg width="16" height="16" viewBox="0 0 16 16" fill="none" xmlns="http://www.w3.org/2000/svg">
<path d="M14.6663 4.1682V12.4998C14.6663 12.96 14.2933 13.3331 13.833 13.3331C13.3728 13.3331 12.9997 12.96 12.9997 12.4998V9.06627L8.53353 13.1411C7.99642 13.587 7.16634 13.2127 7.16634 12.4999V9.06627L2.7002 13.1411C2.16309 13.587 1.33301 13.2127 1.33301 12.4999V4.16802C1.33301 3.45526 2.16309 3.08096 2.7002 3.52685L7.16634 7.57239V4.16802C7.16634 3.45526 7.99642 3.08096 8.53353 3.52685L12.9997 7.57239V4.16812C12.9997 3.70792 13.3727 3.33482 13.833 3.33482C14.2932 3.33482 14.6663 3.70794 14.6663 4.1682Z" fill="#E1E3E6"/>
</svg>
