<svg width="64" height="64" viewBox="0 0 64 64" fill="none" xmlns="http://www.w3.org/2000/svg">
<path d="M30 29H26.9C26.6791 29 26.5 28.8209 26.5 28.6V21.9C26.5 21.6791 26.3209 21.5 26.1 21.5H25.4C25.1791 21.5 25 21.3209 25 21.1V20.1738C25 20.0629 25.046 19.957 25.1271 19.8814L32.2271 13.2547C32.3808 13.1113 32.6192 13.1113 32.7729 13.2547L39.8729 19.8814C39.954 19.957 40 20.0629 40 20.1738V21.1C40 21.3209 39.8209 21.5 39.6 21.5H38.9C38.6791 21.5 38.5 21.6791 38.5 21.9V28.6C38.5 28.8209 38.3209 29 38.1 29H35M30 29V22.4C30 22.1791 30.1791 22 30.4 22H34.6C34.8209 22 35 22.1791 35 22.4V29M30 29H35M39.4 50H43.6C44.3732 50 45 49.3732 45 48.6V46.4C45 45.6268 44.3732 45 43.6 45H39.4C38.6268 45 38 45.6268 38 46.4V48.6C38 49.3732 38.6268 50 39.4 50ZM36 46.4V48.6C36 49.3732 35.3732 50 34.6 50H30.4C29.6268 50 29 49.3732 29 48.6V46.4C29 45.6268 29.6268 45 30.4 45H34.6C35.3732 45 36 45.6268 36 46.4ZM21.4 50H25.6C26.3732 50 27 49.3732 27 48.6V46.4C27 45.6268 26.3732 45 25.6 45H21.4C20.6268 45 20 45.6268 20 46.4V48.6C20 49.3732 20.6268 50 21.4 50ZM39.4 41H43.6C44.3732 41 45 40.3732 45 39.6V37.4C45 36.6268 44.3732 36 43.6 36H39.4C38.6268 36 38 36.6268 38 37.4V39.6C38 40.3732 38.6268 41 39.4 41ZM30.4 41H34.6C35.3732 41 36 40.3732 36 39.6V37.4C36 36.6268 35.3732 36 34.6 36H30.4C29.6268 36 29 36.6268 29 37.4V39.6C29 40.3732 29.6268 41 30.4 41ZM20 39.6V37.4C20 36.6268 20.6268 36 21.4 36H25.6C26.3732 36 27 36.6268 27 37.4V39.6C27 40.3732 26.3732 41 25.6 41H21.4C20.6268 41 20 40.3732 20 39.6ZM21.4 32H43.6C43.8209 32 44 31.8209 44 31.6V10.4C44 10.1791 43.8209 10 43.6 10H21.4C21.1791 10 21 10.1791 21 10.4V31.6C21 31.8209 21.1791 32 21.4 32ZM48 54V9C48 7.89543 47.1046 7 46 7H19C17.8954 7 17 7.89543 17 9V54C17 55.1046 17.8954 56 19 56H46C47.1046 56 48 55.1046 48 54Z" stroke="url(#paint0_linear_21268_3971)" stroke-width="1.8" stroke-linecap="round"/>
<defs>
<linearGradient id="paint0_linear_21268_3971" x1="17" y1="31.5" x2="49.9413" y2="32.175" gradientUnits="userSpaceOnUse">
<stop stop-color="#0091EF"/>
<stop offset="1" stop-color="#32D7D4"/>
</linearGradient>
</defs>
</svg>
