<svg width="50" height="50" viewBox="0 0 50 50" fill="none" xmlns="http://www.w3.org/2000/svg">
<path d="M19.9062 19.375C20.7352 19.375 21.5451 19.6228 22.2321 20.0866C22.9191 20.5504 23.4517 21.209 23.7615 21.9779C24.0713 22.7467 24.1441 23.5906 23.9707 24.4012C23.7972 25.2117 23.3853 25.9519 22.7879 26.5265L20.1418 29.0729H24.0625V31.8438H15.75V29.4553L20.8663 24.5301C21.0314 24.3714 21.1546 24.1743 21.2249 23.9564C21.2951 23.7384 21.3102 23.5065 21.2689 23.2812C21.2276 23.056 21.131 22.8445 20.988 22.6658C20.8449 22.487 20.6598 22.3464 20.4491 22.2567C20.2384 22.167 20.0088 22.1309 19.7807 22.1516C19.5527 22.1724 19.3333 22.2493 19.1423 22.3756C18.9513 22.5018 18.7945 22.6735 18.6861 22.8752C18.5776 23.0768 18.5208 23.3023 18.5208 23.5312H15.75C15.75 22.4289 16.1879 21.3718 16.9673 20.5923C17.7468 19.8129 18.8039 19.375 19.9062 19.375ZM28.2188 19.375V24.9167H30.9896V19.375H33.7604V31.8438H30.9896V27.6875H25.4479V19.375H28.2188Z" fill="white"/>
<path d="M24.5 8.00001C19.8603 8.00503 15.412 9.85039 12.1312 13.1312C8.85037 16.412 7.00502 20.8603 7 25.5C7 25.8868 7.15365 26.2577 7.42714 26.5312C7.70063 26.8047 8.07156 26.9583 8.45833 26.9583C8.84511 26.9583 9.21604 26.8047 9.48953 26.5312C9.76302 26.2577 9.91667 25.8868 9.91667 25.5C9.90921 22.2343 10.9956 19.0601 13.0026 16.4838C15.0096 13.9075 17.8215 12.0776 20.9898 11.2858C24.1582 10.4941 27.5004 10.7862 30.4833 12.1155C33.4663 13.4448 35.9181 15.7348 37.4478 18.6202C38.9775 21.5056 39.4968 24.8201 38.923 28.035C38.3491 31.25 36.7152 34.1801 34.2818 36.3581C31.8484 38.5361 28.7557 39.8365 25.497 40.0517C22.2384 40.267 19.0015 39.3848 16.3027 37.5458L18.935 34.25C19.0169 34.1468 19.0694 34.0232 19.0867 33.8925C19.104 33.7619 19.0856 33.6289 19.0334 33.5079C18.9811 33.3869 18.8971 33.2822 18.7902 33.2052C18.6832 33.1281 18.5574 33.0815 18.426 33.0702L8.69604 32.2419C8.5765 32.2317 8.45628 32.2511 8.34604 32.2985C8.2358 32.3458 8.13896 32.4197 8.0641 32.5134C7.98923 32.6072 7.93866 32.718 7.91687 32.836C7.89508 32.9539 7.90274 33.0755 7.93917 33.1898L10.9171 42.4896C10.9573 42.615 11.0307 42.7272 11.1296 42.8143C11.2284 42.9013 11.349 42.96 11.4785 42.984C11.5223 42.9926 11.5667 42.997 11.6112 42.9971C11.7209 42.997 11.8291 42.9721 11.9278 42.9244C12.0266 42.8767 12.1133 42.8073 12.1815 42.7215L14.4827 39.834C16.735 41.4115 19.3274 42.436 22.0496 42.8245C24.7718 43.213 27.5473 42.9545 30.1509 42.07C32.7546 41.1855 35.1132 39.6999 37.0355 37.7337C38.9578 35.7674 40.3896 33.3758 41.215 30.7528C42.0404 28.1299 42.2361 25.3493 41.7861 22.6365C41.3362 19.9238 40.2533 17.3553 38.6253 15.1392C36.9973 12.9231 34.87 11.1219 32.4158 9.88152C29.9617 8.64115 27.2498 7.99656 24.5 8.00001Z" fill="white"/>
</svg>
