<svg width="64" height="64" viewBox="0 0 64 64" fill="none" xmlns="http://www.w3.org/2000/svg">
<path d="M16 14.5V22.3267C16 22.4373 15.9542 22.5429 15.8736 22.6185L8.73794 29.3082C8.47339 29.5562 8.6489 30 9.01151 30H13.6C13.8209 30 14 30.1791 14 30.4V38M16 14.5H14.4C14.1791 14.5 14 14.3209 14 14.1V10.9C14 10.6791 14.1791 10.5 14.4 10.5H22.6C22.8209 10.5 23 10.6791 23 10.9V14.1C23 14.3209 22.8209 14.5 22.6 14.5H22M16 14.5H22M22 14.5V17.0667C22 17.4183 22.4212 17.5989 22.6759 17.3563L32.2318 8.25541C32.3832 8.11128 32.6199 8.10794 32.7753 8.24774L42.5 17M44.5 19L56.2042 29.2997C56.4811 29.5433 56.3088 30 55.94 30H50.9C50.6791 30 50.5 30.1791 50.5 30.4V54.6C50.5 54.8209 50.3209 55 50.1 55H14.4C14.1791 55 14 54.8209 14 54.6V41M25 34H23.4C23.1791 34 23 34.1791 23 34.4V47.6C23 47.8209 23.1791 48 23.4 48H41.6C41.8209 48 42 47.8209 42 47.6V34.4C42 34.1791 41.8209 34 41.6 34H40M25 34C25 32.1667 25 28.2 25 27C25 25.5 27 22 32.5 22C38 22 40 25.5 40 27C40 28.2 40 32.1667 40 34M25 34H27M40 34H38M27 34C27 32.6667 27 29.6 27 28C27 26 29.5 24 32.5 24C36 24 38 25.5 38 28C38 30 38 32.8333 38 34M27 34H38M30 39H30.6C30.8209 39 30.9985 38.8203 31.0304 38.6018C31.1317 37.9095 31.5089 37 32.5 37C33.4911 37 33.8683 37.9095 33.9696 38.6018C34.0015 38.8203 34.1791 39 34.4 39H35M30.5 40V43.2528C30.5 43.4043 30.5856 43.5428 30.7211 43.6106L32.3211 44.4106C32.4337 44.4669 32.5663 44.4669 32.6789 44.4106L34.2789 43.6106C34.4144 43.5428 34.5 43.4043 34.5 43.2528V40" stroke="url(#paint0_linear_21268_3967)" stroke-width="1.8" stroke-linecap="round"/>
<defs>
<linearGradient id="paint0_linear_21268_3967" x1="8" y1="31.5" x2="60.0311" y2="33.257" gradientUnits="userSpaceOnUse">
<stop stop-color="#0091EF"/>
<stop offset="1" stop-color="#32D7D4"/>
</linearGradient>
</defs>
</svg>
