<svg width="48" height="49" viewBox="0 0 48 49" fill="none" xmlns="http://www.w3.org/2000/svg">
<path fill-rule="evenodd" clip-rule="evenodd" d="M25 1C25 0.447715 24.5523 0 24 0C23.4477 0 23 0.447715 23 1V8C23 8.55229 23.4477 9 24 9C24.5523 9 25 8.55229 25 8V1ZM24 13C17.9249 13 13 17.9249 13 24C13 26.5537 13.8689 28.9016 15.3279 30.7681C17.0795 33.009 19 35.7742 19 39.0089V40.0004C19 40.5527 19.4477 41.0004 20 41.0004H28C28.5523 41.0004 29 40.5527 29 40.0004V39.0089C29 35.7742 30.9205 33.009 32.6721 30.7681C34.1311 28.9016 35 26.5537 35 24C35 17.9249 30.0751 13 24 13ZM11 24C11 16.8203 16.8203 11 24 11C31.1797 11 37 16.8203 37 24C37 27.0157 35.9719 29.794 34.2478 31.9998C32.482 34.2588 31 36.5322 31 39.0089V40.0004C31 41.6572 29.6569 43.0004 28 43.0004H20C18.3431 43.0004 17 41.6572 17 40.0004V39.0089C17 36.5322 15.518 34.2588 13.7522 31.9998C12.0281 29.794 11 27.0157 11 24ZM17 48C17 47.4477 17.4477 47 18 47H30C30.5523 47 31 47.4477 31 48C31 48.5523 30.5523 49 30 49H18C17.4477 49 17 48.5523 17 48ZM1 25C0.447715 25 0 25.4477 0 26C0 26.5523 0.447715 27 1 27H8C8.55229 27 9 26.5523 9 26C9 25.4477 8.55229 25 8 25H1ZM39 26C39 25.4477 39.4477 25 40 25H47C47.5523 25 48 25.4477 48 26C48 26.5523 47.5523 27 47 27H40C39.4477 27 39 26.5523 39 26ZM4.70711 7.29289C5.09763 6.90237 5.7308 6.90237 6.12132 7.29289L11.0711 12.2426C11.4616 12.6332 11.4616 13.2663 11.0711 13.6569C10.6805 14.0474 10.0474 14.0474 9.65685 13.6569L4.70711 8.70711C4.31658 8.31658 4.31658 7.68342 4.70711 7.29289ZM41.2425 7.29289C41.633 6.90237 42.2661 6.90237 42.6567 7.29289C43.0472 7.68342 43.0472 8.31658 42.6567 8.70711L37.7069 13.6569C37.3164 14.0474 36.6832 14.0474 36.2927 13.6569C35.9022 13.2663 35.9022 12.6332 36.2927 12.2426L41.2425 7.29289Z" fill="url(#paint0_linear_21458_6301)"/>
<defs>
<linearGradient id="paint0_linear_21458_6301" x1="-4.6799e-08" y1="24.5" x2="50.976" y2="26.1174" gradientUnits="userSpaceOnUse">
<stop stop-color="#0091EF"/>
<stop offset="1" stop-color="#32D7D4"/>
</linearGradient>
</defs>
</svg>
