<svg width="48" height="49" viewBox="0 0 48 49" fill="none" xmlns="http://www.w3.org/2000/svg">
<circle opacity="0.6" cx="24" cy="24.9375" r="24" fill="#0979FD"/>
<circle cx="23.9999" cy="24.9374" r="19.5556" fill="#2391FD"/>
<path d="M33.3261 16H14.3551C13.6071 16 13 16.6916 13 17.5437V18.4221L23.8406 23.6522L34.6812 18.4205V17.5437C34.6812 16.6916 34.0741 16 33.3261 16Z" fill="white"/>
<path d="M24.4237 24.3721C24.3397 24.4092 24.2489 24.4271 24.1594 24.4271C24.07 24.4271 23.9792 24.4092 23.8952 24.3721L13.3188 19.8262V29.929C13.3188 30.6882 13.9259 31.3044 14.6739 31.3044H33.6449C34.3929 31.3044 35 30.6882 35 29.929V19.8262L24.4237 24.3721Z" fill="white"/>
</svg>
