<svg width="64" height="64" viewBox="0 0 64 64" fill="none" xmlns="http://www.w3.org/2000/svg">
<path fill-rule="evenodd" clip-rule="evenodd" d="M26.4286 8.42857C27.3754 8.42857 28.1429 7.66099 28.1429 6.71429C28.1429 5.76758 27.3754 5 26.4286 5C25.4818 5 24.7143 5.76758 24.7143 6.71429C24.7143 7.66099 25.4818 8.42857 26.4286 8.42857ZM31.5714 8.42857C32.5182 8.42857 33.2857 7.66099 33.2857 6.71429C33.2857 5.76758 32.5182 5 31.5714 5C30.6246 5 29.8571 5.76758 29.8571 6.71429C29.8571 7.66099 30.6246 8.42857 31.5714 8.42857ZM23 8.42857C23 9.37528 22.2325 10.1429 21.2857 10.1429C20.3389 10.1429 19.5714 9.37528 19.5714 8.42857C19.5714 7.48186 20.3389 6.71429 21.2857 6.71429C22.2325 6.71429 23 7.48186 23 8.42857ZM17 12.7143C17.9468 12.7143 18.7143 11.9467 18.7143 11C18.7143 10.0533 17.9468 9.28571 17 9.28571C16.0532 9.28571 15.2857 10.0533 15.2857 11C15.2857 11.9467 16.0532 12.7143 17 12.7143ZM14.4286 15.2857C14.4286 16.2324 13.6611 17 12.7143 17C11.7675 17 11 16.2324 11 15.2857C11 14.339 11.7675 13.5714 12.7143 13.5714C13.6611 13.5714 14.4286 14.339 14.4286 15.2857ZM10.1429 20.4286C11.0897 20.4286 11.8571 19.661 11.8571 18.7143C11.8571 17.7676 11.0897 17 10.1429 17C9.19604 17 8.42857 17.7676 8.42857 18.7143C8.42857 19.661 9.19604 20.4286 10.1429 20.4286ZM9.28571 23.8571C9.28571 24.8039 8.51824 25.5714 7.57143 25.5714C6.62462 25.5714 5.85714 24.8039 5.85714 23.8571C5.85714 22.9104 6.62462 22.1429 7.57143 22.1429C8.51824 22.1429 9.28571 22.9104 9.28571 23.8571ZM6.71429 30.7143C7.6611 30.7143 8.42857 29.9467 8.42857 29C8.42857 28.0533 7.6611 27.2857 6.71429 27.2857C5.76747 27.2857 5 28.0533 5 29C5 29.9467 5.76747 30.7143 6.71429 30.7143ZM11.8571 44.4286C11.8571 45.3753 11.0897 46.1429 10.1429 46.1429C9.19604 46.1429 8.42857 45.3753 8.42857 44.4286C8.42857 43.4819 9.19604 42.7143 10.1429 42.7143C11.0897 42.7143 11.8571 43.4819 11.8571 44.4286ZM12.7143 49.5714C13.6611 49.5714 14.4286 48.8039 14.4286 47.8571C14.4286 46.9104 13.6611 46.1429 12.7143 46.1429C11.7675 46.1429 11 46.9104 11 47.8571C11 48.8039 11.7675 49.5714 12.7143 49.5714ZM18.7143 51.2857C18.7143 52.2324 17.9468 53 17 53C16.0532 53 15.2857 52.2324 15.2857 51.2857C15.2857 50.339 16.0532 49.5714 17 49.5714C17.9468 49.5714 18.7143 50.339 18.7143 51.2857ZM21.2857 56.4286C22.2325 56.4286 23 55.661 23 54.7143C23 53.7676 22.2325 53 21.2857 53C20.3389 53 19.5714 53.7676 19.5714 54.7143C19.5714 55.661 20.3389 56.4286 21.2857 56.4286ZM28.1429 56.4286C28.1429 57.3753 27.3754 58.1429 26.4286 58.1429C25.4818 58.1429 24.7143 57.3753 24.7143 56.4286C24.7143 55.4819 25.4818 54.7143 26.4286 54.7143C27.3754 54.7143 28.1429 55.4819 28.1429 56.4286ZM31.5714 59C32.5182 59 33.2857 58.2324 33.2857 57.2857C33.2857 56.339 32.5182 55.5714 31.5714 55.5714C30.6246 55.5714 29.8571 56.339 29.8571 57.2857C29.8571 58.2324 30.6246 59 31.5714 59ZM38.4286 56.4286C38.4286 57.3753 37.6611 58.1429 36.7143 58.1429C35.7675 58.1429 35 57.3753 35 56.4286C35 55.4819 35.7675 54.7143 36.7143 54.7143C37.6611 54.7143 38.4286 55.4819 38.4286 56.4286ZM41.8571 55.5714C42.804 55.5714 43.5714 54.8039 43.5714 53.8571C43.5714 52.9104 42.804 52.1429 41.8571 52.1429C40.9103 52.1429 40.1429 52.9104 40.1429 53.8571C40.1429 54.8039 40.9103 55.5714 41.8571 55.5714ZM47.8571 51.2857C47.8571 52.2324 47.0897 53 46.1429 53C45.196 53 44.4286 52.2324 44.4286 51.2857C44.4286 50.339 45.196 49.5714 46.1429 49.5714C47.0897 49.5714 47.8571 50.339 47.8571 51.2857ZM55.5714 41C56.5182 41 57.2857 40.2324 57.2857 39.2857C57.2857 38.339 56.5182 37.5714 55.5714 37.5714C54.6246 37.5714 53.8571 38.339 53.8571 39.2857C53.8571 40.2324 54.6246 41 55.5714 41ZM58.1429 33.2857C58.1429 34.2324 57.3754 35 56.4286 35C55.4818 35 54.7143 34.2324 54.7143 33.2857C54.7143 32.339 55.4818 31.5714 56.4286 31.5714C57.3754 31.5714 58.1429 32.339 58.1429 33.2857ZM56.4286 29.8571C57.3754 29.8571 58.1429 29.0896 58.1429 28.1429C58.1429 27.1961 57.3754 26.4286 56.4286 26.4286C55.4818 26.4286 54.7143 27.1961 54.7143 28.1429C54.7143 29.0896 55.4818 29.8571 56.4286 29.8571ZM57.2857 23C57.2857 23.9467 56.5182 24.7143 55.5714 24.7143C54.6246 24.7143 53.8571 23.9467 53.8571 23C53.8571 22.0533 54.6246 21.2857 55.5714 21.2857C56.5182 21.2857 57.2857 22.0533 57.2857 23ZM36.7143 8.42857C37.6611 8.42857 38.4286 7.66099 38.4286 6.71429C38.4286 5.76758 37.6611 5 36.7143 5C35.7675 5 35 5.76758 35 6.71429C35 7.66099 35.7675 8.42857 36.7143 8.42857ZM43.5714 8.42857C43.5714 9.37528 42.804 10.1429 41.8571 10.1429C40.9103 10.1429 40.1429 9.37528 40.1429 8.42857C40.1429 7.48186 40.9103 6.71429 41.8571 6.71429C42.804 6.71429 43.5714 7.48186 43.5714 8.42857ZM46.1429 12.7143C47.0897 12.7143 47.8571 11.9467 47.8571 11C47.8571 10.0533 47.0897 9.28571 46.1429 9.28571C45.196 9.28571 44.4286 10.0533 44.4286 11C44.4286 11.9467 45.196 12.7143 46.1429 12.7143Z" fill="url(#paint0_linear_21268_3959)"/>
<path d="M6.28564 34.0571V39.3714C6.28564 39.5608 6.43778 39.7143 6.62713 39.7143H14.8571C16.8221 39.7143 17.1186 35.5432 17.0168 33.1774C17.009 32.9965 16.8589 32.8571 16.6778 32.8571H13.1428V29.8571C13.1428 28.4297 11.9542 27.6956 11.0616 27.4074C10.8095 27.3261 10.5622 27.5254 10.536 27.789C10.4072 29.0857 9.9573 32.1342 9.71422 33.7143H6.6285C6.43915 33.7143 6.28564 33.8678 6.28564 34.0571Z" stroke="url(#paint1_linear_21268_3959)" stroke-width="1.54286" stroke-linecap="round"/>
<path d="M47.4288 40.1429L48.4335 38.8033C48.5726 38.6178 48.852 38.621 48.9867 38.8097L50.8016 41.3505C50.8381 41.4016 50.8879 41.4417 50.9455 41.4664L53.2245 42.4431C53.4847 42.5546 53.5053 42.9155 53.2596 43.0559L51.0939 44.2934C50.9554 44.3725 50.8898 44.5368 50.9357 44.6896L51.8816 47.8428C51.9725 48.1457 51.6397 48.3997 51.3715 48.2321L48.9089 46.693C48.7912 46.6194 48.6408 46.6241 48.5279 46.7047L46.42 48.2104C46.1671 48.391 45.8236 48.1689 45.8845 47.8641L46.5203 44.6854C46.5506 44.5338 46.4757 44.3806 46.3374 44.3115L43.7564 43.021C43.5037 42.8946 43.5037 42.534 43.7564 42.4076L44.8574 41.8572" stroke="url(#paint2_linear_21268_3959)" stroke-width="1.54286" stroke-linecap="round"/>
<path d="M25.143 33.7142C24.7144 33.2856 20.4287 30.7142 20.4287 24.2856C20.4287 16.1428 27.2859 13.1428 32.0001 13.1428C35.7716 13.1428 38.143 14.8571 38.8573 15.7142M40.143 17.4285C41.0001 18.1428 42.7532 20.5142 42.9081 24.2856C43.0606 28.0003 38.9695 33.1287 36.8119 35.3297C36.7485 35.3944 36.7144 35.4786 36.7144 35.5691C36.7144 36.6193 36.7144 38.6305 36.7144 39.2856V47.0856C36.7144 47.275 36.5609 47.4285 36.3716 47.4285H34.143M26.4287 35.8571V47.0856C26.4287 47.275 26.5822 47.4285 26.7716 47.4285H29.0001M24.2859 43.1428H38.8573M38.8573 39.7142H31.5716M24.2859 39.7142H31.5716M29.0001 47.4285V50.3247C29.0001 50.3924 29.0195 50.459 29.0605 50.5129C29.401 50.9601 30.2852 51.7142 31.5716 51.7142C32.8579 51.7142 33.7421 50.9601 34.0826 50.5129C34.1236 50.459 34.143 50.3924 34.143 50.3247V47.4285M29.0001 47.4285H34.143M31.5716 39.7142V28.9999M31.5716 28.9999L27.7144 25.1428M31.5716 28.9999L34.143 26.8571M47.8573 13.9999C48.6729 12.7764 50.2647 12.7172 51.8941 14.1915C52.0345 14.3185 52.2517 14.3185 52.3907 14.1899C53.9816 12.7173 55.1848 12.7768 56.0001 13.9999C56.8481 15.272 57.6961 17.3829 52.3192 20.7478C52.2129 20.8143 52.0716 20.8165 51.9631 20.7536C46.1603 17.3854 47.0088 15.2726 47.8573 13.9999Z" stroke="url(#paint3_linear_21268_3959)" stroke-width="1.54286" stroke-linecap="round"/>
<defs>
<linearGradient id="paint0_linear_21268_3959" x1="5" y1="32" x2="61.4372" y2="33.799" gradientUnits="userSpaceOnUse">
<stop stop-color="#0091EF"/>
<stop offset="1" stop-color="#32D7D4"/>
</linearGradient>
<linearGradient id="paint1_linear_21268_3959" x1="6.28564" y1="33.5" x2="17.7032" y2="33.8198" gradientUnits="userSpaceOnUse">
<stop stop-color="#0091EF"/>
<stop offset="1" stop-color="#32D7D4"/>
</linearGradient>
<linearGradient id="paint2_linear_21268_3959" x1="43.1431" y1="43.5714" x2="54.5202" y2="43.9553" gradientUnits="userSpaceOnUse">
<stop stop-color="#0091EF"/>
<stop offset="1" stop-color="#32D7D4"/>
</linearGradient>
<linearGradient id="paint3_linear_21268_3959" x1="20.4287" y1="32.3988" x2="58.8737" y2="33.5656" gradientUnits="userSpaceOnUse">
<stop stop-color="#0091EF"/>
<stop offset="1" stop-color="#32D7D4"/>
</linearGradient>
</defs>
</svg>
