<svg width="64" height="64" viewBox="0 0 64 64" fill="none" xmlns="http://www.w3.org/2000/svg">
<path d="M53.5 52H56.6C56.8209 52 57 52.1791 57 52.4V55.6C57 55.8209 56.8209 56 56.6 56H8.4C8.17909 56 8 55.8209 8 55.6V52.4C8 52.1791 8.17909 52 8.4 52H11.5M53.5 52V16M53.5 52H50.5M11.5 52V44M11.5 52H14.5M11.5 40V7.4C11.5 7.17909 11.6791 7 11.9 7H53.1C53.3209 7 53.5 7.17909 53.5 7.4V13M14.5 52H50.5M14.5 52V33M50.5 52V33M14.5 15V10.4C14.5 10.1791 14.6791 10 14.9 10H44M14.5 15H44M14.5 15V19.5M14.5 19.5H44M14.5 19.5V24M14.5 24C15.3 24 34.5 24 44 24M14.5 24V28.5M14.5 28.5H44M14.5 28.5V33M14.5 33C14.5839 33 15.506 33 17 33M44 33C41.1148 33 37.3595 33 33.5 33M17 33V49.6C17 49.8209 17.1791 50 17.4 50H30.6C30.8209 50 31 49.8209 31 49.6V33M17 33C20.0432 33 25.4595 33 31 33M31 33C31.8331 33 32.669 33 33.5 33M33.5 33V49.6C33.5 49.8209 33.6791 50 33.9 50H47.6C47.8209 50 48 49.8209 48 49.6V35.5M44 10V40.6C44 40.8209 44.1791 41 44.4 41H45.6C45.8209 41 46 40.8209 46 40.6V33.5M44 10H46.5M50.5 33H47.5M50.5 33V28.5M50.5 28.5C50.1414 28.5 48.1487 28.5 46.8994 28.5C46.6785 28.5 46.5 28.3209 46.5 28.1V24M50.5 28.5V24M50.5 24H46.5M50.5 24V19.5M46.5 24V10M50.5 19.5H46.5M50.5 19.5V14.75M50.5 14.75V10.4C50.5 10.1791 50.3209 10 50.1 10H46.5M50.5 14.75H46.9C46.6791 14.75 46.5 14.5709 46.5 14.35V10" stroke="url(#paint0_linear_21268_3975)" stroke-width="1.8" stroke-linecap="round"/>
<defs>
<linearGradient id="paint0_linear_21268_3975" x1="8" y1="31.5" x2="60.0358" y2="33.1854" gradientUnits="userSpaceOnUse">
<stop stop-color="#0091EF"/>
<stop offset="1" stop-color="#32D7D4"/>
</linearGradient>
</defs>
</svg>
