<svg width="50" height="50" viewBox="0 0 50 50" fill="none" xmlns="http://www.w3.org/2000/svg">
<path d="M7.63675 15.5897L6.87781 15.3368L7.63675 15.5897ZM8.23779 12.7378L7.67211 13.3035L8.23779 12.7378ZM6.4756 10.0772L7.00709 10.6752L6.4756 10.0772ZM10.8966 6.97588L11.5111 6.46373L10.8966 6.97588ZM20.8317 8.66584L20.4739 9.38138L20.8317 8.66584ZM22.8058 9.19421L23.3715 9.75989L22.8058 9.19421ZM22.1132 9.3066L21.7554 10.0221L22.1132 9.3066ZM24.9224 7.86964L24.3956 8.4717L24.9224 7.86964ZM28.0465 11.4535L28.6122 12.0192L28.0465 11.4535ZM28.0173 10.5777L28.5442 9.97562L28.0173 10.5777ZM24.6228 16.1509L24.9199 16.8936L24.6228 16.1509ZM22.2252 16.771L22.7373 16.1564L22.2252 16.771ZM22.8321 16.8671L22.535 16.1244L22.8321 16.8671ZM19.1135 14.8513L18.5754 14.2594L19.1135 14.8513ZM19.9012 14.8344L19.3891 15.4489L19.9012 14.8344ZM14.3679 19.9415L14.9825 19.4293L14.3679 19.9415ZM14.4252 19.1134L14.9634 19.7054L14.4252 19.1134ZM16.2807 22.8654L16.9667 23.277L16.2807 22.8654ZM16.2272 22.1726L16.8418 21.6605L16.2272 22.1726ZM16.1187 35.2542L15.6749 34.5886L16.1187 35.2542ZM14.0641 37.5171L13.5235 38.1068L14.0641 37.5171ZM14.1367 36.5755L13.6929 35.9099L14.1367 36.5755ZM19.8884 41.9173L20.5541 42.3611L19.8884 41.9173ZM18.9838 42.0268L18.4432 42.6165L18.9838 42.0268ZM21.972 39.7391L21.607 40.451L21.972 39.7391ZM21.2062 39.9407L20.5406 39.497L21.2062 39.9407ZM25.1207 43.7785L24.3283 43.6688L25.1207 43.7785ZM34.829 39.8948L34.2144 40.4069L34.829 39.8948ZM34.0593 39.7644L34.4709 40.4504L34.0593 39.7644ZM37.4614 42.0824L36.923 41.4907L37.4614 42.0824ZM36.601 42.0212L35.9864 42.5333L36.601 42.0212ZM39.7169 34.5662L40.4325 34.9239L39.7169 34.5662ZM39.8755 35.3063L39.3645 35.9219L39.8755 35.3063ZM40.8342 32.3317L40.1186 31.9739L40.8342 32.3317ZM40.8342 24.6683L40.1186 25.0261L40.8342 24.6683ZM39.8058 21.6942L40.3715 22.2599L39.8058 21.6942ZM41.6192 19.0769L42.2138 18.5417L41.6192 19.0769ZM41.5975 19.9025L41.0318 19.3368L41.5975 19.9025ZM37.8864 14.9293L38.481 14.3941L37.8864 14.9293ZM34.1679 16.8671L33.8708 17.6099L34.1679 16.8671ZM34.7748 16.771L34.2627 16.1564L34.7748 16.771ZM7.4806 26.0194L6.91491 25.4537L7.4806 26.0194ZM7.5365 26.9173L7.04535 27.5488L7.5365 26.9173ZM32.3772 16.1509L32.0801 16.8936L32.3772 16.1509ZM8.83998 24.1266L8.10467 24.4418L8.83998 24.1266ZM15.6368 32.4103L16.3957 32.1573L15.6368 32.4103ZM7.65585 21.3636L8.39117 21.0485L7.65585 21.3636ZM25.5995 13.3C25.6019 13.3 25.6043 13.3 25.6067 13.3C25.6091 13.3 25.6115 13.3 25.614 13.3C25.6164 13.3 25.6188 13.3 25.6212 13.3C25.6236 13.3 25.6261 13.3 25.6285 13.3C25.631 13.3 25.6334 13.3 25.6359 13.3C25.6383 13.3 25.6408 13.3 25.6432 13.3C25.6457 13.3 25.6482 13.3 25.6506 13.3C25.6531 13.3 25.6556 13.3 25.6581 13.3C25.6606 13.3 25.663 13.3 25.6655 13.3C25.668 13.3 25.6705 13.3 25.673 13.3C25.6756 13.3 25.6781 13.3 25.6806 13.3C25.6831 13.3 25.6856 13.3 25.6882 13.3C25.6907 13.3 25.6932 13.3 25.6958 13.3C25.6983 13.3 25.7009 13.3 25.7034 13.3C25.706 13.3 25.7085 13.3 25.7111 13.3C25.7136 13.3 25.7162 13.3 25.7188 13.3C25.7214 13.3 25.7239 13.3 25.7265 13.3C25.7291 13.3 25.7317 13.3 25.7343 13.3C25.7369 13.3 25.7395 13.3 25.7421 13.3C25.7447 13.3 25.7473 13.3 25.7499 13.3C25.7526 13.3 25.7552 13.3 25.7578 13.3C25.7604 13.3 25.7631 13.3 25.7657 13.3C25.7684 13.3 25.771 13.3 25.7737 13.3C25.7763 13.3 25.779 13.3 25.7816 13.3C25.7843 13.3 25.787 13.3 25.7896 13.3C25.7923 13.3 25.795 13.3 25.7977 13.3C25.8003 13.3 25.803 13.3 25.8057 13.3C25.8084 13.3 25.8111 13.3 25.8138 13.3C25.8165 13.3 25.8192 13.3 25.822 13.3C25.8247 13.3 25.8274 13.3 25.8301 13.3C25.8328 13.3 25.8356 13.3 25.8383 13.3C25.841 13.3 25.8438 13.3 25.8465 13.3C25.8493 13.3 25.852 13.3 25.8548 13.3C25.8575 13.3 25.8603 13.3 25.8631 13.3C25.8658 13.3 25.8686 13.3 25.8714 13.3C25.8742 13.3 25.8769 13.3 25.8797 13.3C25.8825 13.3 25.8853 13.3 25.8881 13.3C25.8909 13.3 25.8937 13.3 25.8965 13.3C25.8993 13.3 25.9021 13.3 25.905 13.3C25.9078 13.3 25.9106 13.3 25.9134 13.3C25.9163 13.3 25.9191 13.3 25.9219 13.3C25.9248 13.3 25.9276 13.3 25.9305 13.3C25.9333 13.3 25.9362 13.3 25.939 13.3C25.9419 13.3 25.9448 13.3 25.9476 13.3C25.9505 13.3 25.9534 13.3 25.9562 13.3C25.9591 13.3 25.962 13.3 25.9649 13.3C25.9678 13.3 25.9707 13.3 25.9736 13.3C25.9765 13.3 25.9794 13.3 25.9823 13.3C25.9852 13.3 25.9881 13.3 25.991 13.3C25.994 13.3 25.9969 13.3 25.9998 13.3C26.0027 13.3 26.0057 13.3 26.0086 13.3C26.0115 13.3 26.0145 13.3 26.0174 13.3C26.0204 13.3 26.0233 13.3 26.0263 13.3C26.0293 13.3 26.0322 13.3 26.0352 13.3C26.0382 13.3 26.0411 13.3 26.0441 13.3C26.0471 13.3 26.0501 13.3 26.053 13.3C26.056 13.3 26.059 13.3 26.062 13.3C26.065 13.3 26.068 13.3 26.071 13.3C26.074 13.3 26.077 13.3 26.0801 13.3C26.0831 13.3 26.0861 13.3 26.0891 13.3C26.0921 13.3 26.0952 13.3 26.0982 13.3C26.1012 13.3 26.1043 13.3 26.1073 13.3C26.1104 13.3 26.1134 13.3 26.1165 13.3C26.1195 13.3 26.1226 13.3 26.1256 13.3C26.1287 13.3 26.1318 13.3 26.1348 13.3C26.1379 13.3 26.141 13.3 26.1441 13.3C26.1472 13.3 26.1502 13.3 26.1533 13.3C26.1564 13.3 26.1595 13.3 26.1626 13.3C26.1657 13.3 26.1688 13.3 26.1719 13.3C26.175 13.3 26.1781 13.3 26.1813 13.3C26.1844 13.3 26.1875 13.3 26.1906 13.3C26.1938 13.3 26.1969 13.3 26.2 13.3C26.2032 13.3 26.2063 13.3 26.2094 13.3C26.2126 13.3 26.2157 13.3 26.2189 13.3C26.222 13.3 26.2252 13.3 26.2284 13.3C26.2315 13.3 26.2347 13.3 26.2379 13.3C26.241 13.3 26.2442 13.3 26.2474 13.3C26.2506 13.3 26.2537 13.3 26.2569 13.3C26.2601 13.3 26.2633 13.3 26.2665 13.3C26.2697 13.3 26.2729 13.3 26.2761 13.3C26.2793 13.3 26.2825 13.3 26.2858 13.3C26.289 13.3 26.2922 13.3 26.2954 13.3C26.2986 13.3 26.3019 13.3 26.3051 13.3C26.3083 13.3 26.3116 13.3 26.3148 13.3C26.318 13.3 26.3213 13.3 26.3245 13.3C26.3278 13.3 26.331 13.3 26.3343 13.3C26.3376 13.3 26.3408 13.3 26.3441 13.3C26.3474 13.3 26.3506 13.3 26.3539 13.3C26.3572 13.3 26.3604 13.3 26.3637 13.3C26.367 13.3 26.3703 13.3 26.3736 13.3C26.3769 13.3 26.3802 13.3 26.3835 13.3C26.3868 13.3 26.3901 13.3 26.3934 13.3C26.3967 13.3 26.4 13.3 26.4033 13.3C26.4066 13.3 26.41 13.3 26.4133 13.3C26.4166 13.3 26.4199 13.3 26.4233 13.3C26.4266 13.3 26.4299 13.3 26.4333 13.3C26.4366 13.3 26.44 13.3 26.4433 13.3C26.4467 13.3 26.45 13.3 26.4534 13.3C26.4567 13.3 26.4601 13.3 26.4635 13.3C26.4668 13.3 26.4702 13.3 26.4736 13.3C26.4769 13.3 26.4803 13.3 26.4837 13.3C26.4871 13.3 26.4905 13.3 26.4939 13.3C26.4972 13.3 26.5006 13.3 26.504 13.3C26.5074 13.3 26.5108 13.3 26.5142 13.3C26.5176 13.3 26.521 13.3 26.5245 13.3C26.5279 13.3 26.5313 13.3 26.5347 13.3C26.5381 13.3 26.5416 13.3 26.545 13.3C26.5484 13.3 26.5518 13.3 26.5553 13.3C26.5587 13.3 26.5622 13.3 26.5656 13.3C26.569 13.3 26.5725 13.3 26.5759 13.3C26.5794 13.3 26.5828 13.3 26.5863 13.3C26.5898 13.3 26.5932 13.3 26.5967 13.3C26.6002 13.3 26.6036 13.3 26.6071 13.3C26.6106 13.3 26.6141 13.3 26.6175 13.3C26.621 13.3 26.6245 13.3 26.628 13.3C26.6315 13.3 26.635 13.3 26.6385 13.3C26.642 13.3 26.6455 13.3 26.649 13.3C26.6525 13.3 26.656 13.3 26.6595 13.3C26.663 13.3 26.6665 13.3 26.67 13.3C26.6735 13.3 26.6771 13.3 26.6806 13.3C26.6841 13.3 26.6876 13.3 26.6912 13.3C26.6947 13.3 26.6982 13.3 26.7018 13.3C26.7053 13.3 26.7089 13.3 26.7124 13.3C26.716 13.3 26.7195 13.3 26.7231 13.3C26.7266 13.3 26.7302 13.3 26.7337 13.3C26.7373 13.3 26.7409 13.3 26.7444 13.3C26.748 13.3 26.7516 13.3 26.7551 13.3C26.7587 13.3 26.7623 13.3 26.7659 13.3C26.7695 13.3 26.7731 13.3 26.7766 13.3C26.7802 13.3 26.7838 13.3 26.7874 13.3C26.791 13.3 26.7946 13.3 26.7982 13.3C26.8018 13.3 26.8054 13.3 26.809 13.3C26.8126 13.3 26.8163 13.3 26.8199 13.3C26.8235 13.3 26.8271 13.3 26.8307 13.3C26.8344 13.3 26.838 13.3 26.8416 13.3C26.8452 13.3 26.8489 13.3 26.8525 13.3C26.8562 13.3 26.8598 13.3 26.8634 13.3C26.8671 13.3 26.8707 13.3 26.8744 13.3C26.878 13.3 26.8817 13.3 26.8853 13.3C26.889 13.3 26.8926 13.3 26.8963 13.3C26.9 13.3 26.9036 13.3 26.9073 13.3C26.911 13.3 26.9147 13.3 26.9183 13.3C26.922 13.3 26.9257 13.3 26.9294 13.3C26.9331 13.3 26.9367 13.3 26.9404 13.3C26.9441 13.3 26.9478 13.3 26.9515 13.3C26.9552 13.3 26.9589 13.3 26.9626 13.3C26.9663 13.3 26.97 13.3 26.9737 13.3C26.9774 13.3 26.9811 13.3 26.9848 13.3C26.9886 13.3 26.9923 13.3 26.996 13.3C26.9997 13.3 27.0034 13.3 27.0072 13.3C27.0109 13.3 27.0146 13.3 27.0184 13.3C27.0221 13.3 27.0258 13.3 27.0296 13.3C27.0333 13.3 27.037 13.3 27.0408 13.3C27.0445 13.3 27.0483 13.3 27.052 13.3C27.0558 13.3 27.0595 13.3 27.0633 13.3C27.067 13.3 27.0708 13.3 27.0746 13.3C27.0783 13.3 27.0821 13.3 27.0859 13.3C27.0896 13.3 27.0934 13.3 27.0972 13.3C27.101 13.3 27.1047 13.3 27.1085 13.3C27.1123 13.3 27.1161 13.3 27.1199 13.3C27.1236 13.3 27.1274 13.3 27.1312 13.3C27.135 13.3 27.1388 13.3 27.1426 13.3C27.1464 13.3 27.1502 13.3 27.154 13.3C27.1578 13.3 27.1616 13.3 27.1654 13.3C27.1692 13.3 27.1731 13.3 27.1769 13.3C27.1807 13.3 27.1845 13.3 27.1883 13.3C27.1921 13.3 27.196 13.3 27.1998 13.3C27.2036 13.3 27.2074 13.3 27.2113 13.3C27.2151 13.3 27.2189 13.3 27.2228 13.3C27.2266 13.3 27.2305 13.3 27.2343 13.3C27.2381 13.3 27.242 13.3 27.2458 13.3C27.2497 13.3 27.2535 13.3 27.2574 13.3C27.2612 13.3 27.2651 13.3 27.2689 13.3C27.2728 13.3 27.2767 13.3 27.2805 13.3C27.2844 13.3 27.2883 13.3 27.2921 13.3C27.296 13.3 27.2999 13.3 27.3037 13.3C27.3076 13.3 27.3115 13.3 27.3154 13.3C27.3193 13.3 27.3231 13.3 27.327 13.3C27.3309 13.3 27.3348 13.3 27.3387 13.3C27.3426 13.3 27.3465 13.3 27.3504 13.3C27.3543 13.3 27.3581 13.3 27.362 13.3C27.3659 13.3 27.3699 13.3 27.3738 13.3C27.3777 13.3 27.3816 13.3 27.3855 13.3C27.3894 13.3 27.3933 13.3 27.3972 13.3C27.4011 13.3 27.405 13.3 27.409 13.3C27.4129 13.3 27.4168 13.3 27.4207 13.3C27.4247 13.3 27.4286 13.3 27.4325 13.3C27.4364 13.3 27.4404 13.3 27.4443 13.3C27.4482 13.3 27.4522 13.3 27.4561 13.3C27.4601 13.3 27.464 13.3 27.4679 13.3C27.4719 13.3 27.4758 13.3 27.4798 13.3C27.4837 13.3 27.4877 13.3 27.4916 13.3C27.4956 13.3 27.4995 13.3 27.5035 13.3C27.5075 13.3 27.5114 13.3 27.5154 13.3C27.5193 13.3 27.5233 13.3 27.5273 13.3C27.5312 13.3 27.5352 13.3 27.5392 13.3C27.5431 13.3 27.5471 13.3 27.5511 13.3C27.5551 13.3 27.559 13.3 27.563 13.3C27.567 13.3 27.571 13.3 27.575 13.3C27.579 13.3 27.5829 13.3 27.5869 13.3C27.5909 13.3 27.5949 13.3 27.5989 13.3C27.6029 13.3 27.6069 13.3 27.6109 13.3C27.6149 13.3 27.6189 13.3 27.6229 13.3C27.6269 13.3 27.6309 13.3 27.6349 13.3C27.6389 13.3 27.6429 13.3 27.6469 13.3C27.6509 13.3 27.6549 13.3 27.659 13.3C27.663 13.3 27.667 13.3 27.671 13.3C27.675 13.3 27.679 13.3 27.6831 13.3C27.6871 13.3 27.6911 13.3 27.6951 13.3C27.6992 13.3 27.7032 13.3 27.7072 13.3C27.7113 13.3 27.7153 13.3 27.7193 13.3C27.7234 13.3 27.7274 13.3 27.7314 13.3C27.7355 13.3 27.7395 13.3 27.7436 13.3C27.7476 13.3 27.7516 13.3 27.7557 13.3C27.7597 13.3 27.7638 13.3 27.7678 13.3C27.7719 13.3 27.7759 13.3 27.78 13.3C27.784 13.3 27.7881 13.3 27.7922 13.3C27.7962 13.3 27.8003 13.3 27.8043 13.3C27.8084 13.3 27.8125 13.3 27.8165 13.3C27.8206 13.3 27.8246 13.3 27.8287 13.3C27.8328 13.3 27.8369 13.3 27.8409 13.3C27.845 13.3 27.8491 13.3 27.8531 13.3C27.8572 13.3 27.8613 13.3 27.8654 13.3C27.8695 13.3 27.8735 13.3 27.8776 13.3C27.8817 13.3 27.8858 13.3 27.8899 13.3C27.894 13.3 27.898 13.3 27.9021 13.3C27.9062 13.3 27.9103 13.3 27.9144 13.3C27.9185 13.3 27.9226 13.3 27.9267 13.3C27.9308 13.3 27.9349 13.3 27.939 13.3C27.9431 13.3 27.9472 13.3 27.9513 13.3C27.9554 13.3 27.9595 13.3 27.9636 13.3C27.9677 13.3 27.9718 13.3 27.9759 13.3C27.98 13.3 27.9841 13.3 27.9883 13.3C27.9924 13.3 27.9965 13.3 28.0006 13.3C28.0047 13.3 28.0088 13.3 28.0129 13.3C28.0171 13.3 28.0212 13.3 28.0253 13.3C28.0294 13.3 28.0335 13.3 28.0377 13.3C28.0418 13.3 28.0459 13.3 28.05 13.3C28.0542 13.3 28.0583 13.3 28.0624 13.3C28.0666 13.3 28.0707 13.3 28.0748 13.3C28.079 13.3 28.0831 13.3 28.0872 13.3C28.0914 13.3 28.0955 13.3 28.0996 13.3C28.1038 13.3 28.1079 13.3 28.1121 13.3C28.1162 13.3 28.1204 13.3 28.1245 13.3C28.1286 13.3 28.1328 13.3 28.1369 13.3C28.1411 13.3 28.1452 13.3 28.1494 13.3C28.1535 13.3 28.1577 13.3 28.1618 13.3C28.166 13.3 28.1701 13.3 28.1743 13.3C28.1784 13.3 28.1826 13.3 28.1868 13.3C28.1909 13.3 28.1951 13.3 28.1992 13.3C28.2034 13.3 28.2076 13.3 28.2117 13.3C28.2159 13.3 28.22 13.3 28.2242 13.3C28.2284 13.3 28.2325 13.3 28.2367 13.3C28.2409 13.3 28.245 13.3 28.2492 13.3C28.2534 13.3 28.2576 13.3 28.2617 13.3C28.2659 13.3 28.2701 13.3 28.2743 13.3C28.2784 13.3 28.2826 13.3 28.2868 13.3C28.291 13.3 28.2951 13.3 28.2993 13.3C28.3035 13.3 28.3077 13.3 28.3119 13.3C28.316 13.3 28.3202 13.3 28.3244 13.3C28.3286 13.3 28.3328 13.3 28.337 13.3C28.3411 13.3 28.3453 13.3 28.3495 13.3C28.3537 13.3 28.3579 13.3 28.3621 13.3C28.3663 13.3 28.3705 13.3 28.3747 13.3C28.3788 13.3 28.383 13.3 28.3872 13.3C28.3914 13.3 28.3956 13.3 28.3998 13.3C28.404 13.3 28.4082 13.3 28.4124 13.3C28.4166 13.3 28.4208 13.3 28.425 13.3C28.4292 13.3 28.4334 13.3 28.4376 13.3C28.4418 13.3 28.446 13.3 28.4502 13.3C28.4544 13.3 28.4586 13.3 28.4628 13.3C28.467 13.3 28.4712 13.3 28.4754 13.3C28.4796 13.3 28.4839 13.3 28.4881 13.3C28.4923 13.3 28.4965 13.3 28.5007 13.3C28.5049 13.3 28.5091 13.3 28.5133 13.3C28.5175 13.3 28.5217 13.3 28.526 13.3C28.5302 13.3 28.5344 13.3 28.5386 13.3C28.5428 13.3 28.547 13.3 28.5513 13.3C28.5555 13.3 28.5597 13.3 28.5639 13.3C28.5681 13.3 28.5723 13.3 28.5766 13.3C28.5808 13.3 28.585 13.3 28.5892 13.3C28.5934 13.3 28.5977 13.3 28.6019 13.3C28.6061 13.3 28.6103 13.3 28.6145 13.3C28.6188 13.3 28.623 13.3 28.6272 13.3C28.6314 13.3 28.6357 13.3 28.6399 13.3C28.6441 13.3 28.6483 13.3 28.6526 13.3C28.6568 13.3 28.661 13.3 28.6653 13.3C28.6695 13.3 28.6737 13.3 28.6779 13.3C28.6822 13.3 28.6864 13.3 28.6906 13.3C28.6949 13.3 28.6991 13.3 28.7033 13.3C28.7076 13.3 28.7118 13.3 28.716 13.3C28.7203 13.3 28.7245 13.3 28.7287 13.3C28.733 13.3 28.7372 13.3 28.7414 13.3C28.7457 13.3 28.7499 13.3 28.7541 13.3C28.7584 13.3 28.7626 13.3 28.7668 13.3C28.7711 13.3 28.7753 13.3 28.7796 13.3C28.7838 13.3 28.788 13.3 28.7923 13.3C28.7965 13.3 28.8007 13.3 28.805 13.3C28.8092 13.3 28.8135 13.3 28.8177 13.3C28.8219 13.3 28.8262 13.3 28.8304 13.3C28.8347 13.3 28.8389 13.3 28.8431 13.3C28.8474 13.3 28.8516 13.3 28.8559 13.3C28.8601 13.3 28.8644 13.3 28.8686 13.3C28.8728 13.3 28.8771 13.3 28.8813 13.3C28.8856 13.3 28.8898 13.3 28.8941 13.3C28.8983 13.3 28.9025 13.3 28.9068 13.3C28.911 13.3 28.9153 13.3 28.9195 13.3C28.9238 13.3 28.928 13.3 28.9323 13.3C28.9365 13.3 28.9407 13.3 28.945 13.3C28.9492 13.3 28.9535 13.3 28.9577 13.3C28.962 13.3 28.9662 13.3 28.9705 13.3C28.9747 13.3 28.979 13.3 28.9832 13.3C28.9874 13.3 28.9917 13.3 28.9959 13.3C29.0002 13.3 29.0044 13.3 29.0087 13.3C29.0129 13.3 29.0172 13.3 29.0214 13.3C29.0257 13.3 29.0299 13.3 29.0342 13.3C29.0384 13.3 29.0427 13.3 29.0469 13.3C29.0511 13.3 29.0554 13.3 29.0596 13.3C29.0639 13.3 29.0681 13.3 29.0724 13.3C29.0766 13.3 29.0809 13.3 29.0851 13.3C29.0894 13.3 29.0936 13.3 29.0979 13.3C29.1021 13.3 29.1064 13.3 29.1106 13.3C29.1149 13.3 29.1191 13.3 29.1234 13.3C29.1276 13.3 29.1318 13.3 29.1361 13.3C29.1403 13.3 29.1446 13.3 29.1488 13.3C29.1531 13.3 29.1573 13.3 29.1616 13.3C29.1658 13.3 29.1701 13.3 29.1743 13.3C29.1786 13.3 29.1828 13.3 29.187 13.3C29.1913 13.3 29.1955 13.3 29.1998 13.3C29.204 13.3 29.2083 13.3 29.2125 13.3C29.2168 13.3 29.221 13.3 29.2253 13.3C29.2295 13.3 29.2337 13.3 29.238 13.3C29.2422 13.3 29.2465 13.3 29.2507 13.3C29.255 13.3 29.2592 13.3 29.2635 13.3C29.2677 13.3 29.2719 13.3 29.2762 13.3C29.2804 13.3 29.2847 13.3 29.2889 13.3C29.2931 13.3 29.2974 13.3 29.3016 13.3C29.3059 13.3 29.3101 13.3 29.3144 13.3C29.3186 13.3 29.3228 13.3 29.3271 13.3C29.3313 13.3 29.3356 13.3 29.3398 13.3C29.344 13.3 29.3483 13.3 29.3525 13.3C29.3568 13.3 29.361 13.3 29.3652 13.3C29.3695 13.3 29.3737 13.3 29.3779 13.3C29.3822 13.3 29.3864 13.3 29.3906 13.3C29.3949 13.3 29.3991 13.3 29.4034 13.3C29.4076 13.3 29.4118 13.3 29.4161 13.3C29.4203 13.3 29.4245 13.3 29.4288 13.3C29.433 13.3 29.4372 13.3 29.4415 13.3C29.4457 13.3 29.4499 13.3 29.4542 13.3C29.4584 13.3 29.4626 13.3 29.4668 13.3C29.4711 13.3 29.4753 13.3 29.4795 13.3C29.4838 13.3 29.488 13.3 29.4922 13.3C29.4964 13.3 29.5007 13.3 29.5049 13.3C29.5091 13.3 29.5133 13.3 29.5176 13.3C29.5218 13.3 29.526 13.3 29.5302 13.3C29.5345 13.3 29.5387 13.3 29.5429 13.3C29.5471 13.3 29.5514 13.3 29.5556 13.3C29.5598 13.3 29.564 13.3 29.5682 13.3C29.5725 13.3 29.5767 13.3 29.5809 13.3C29.5851 13.3 29.5893 13.3 29.5936 13.3C29.5978 13.3 29.602 13.3 29.6062 13.3C29.6104 13.3 29.6146 13.3 29.6188 13.3C29.6231 13.3 29.6273 13.3 29.6315 13.3C29.6357 13.3 29.6399 13.3 29.6441 13.3C29.6483 13.3 29.6525 13.3 29.6567 13.3C29.661 13.3 29.6652 13.3 29.6694 13.3C29.6736 13.3 29.6778 13.3 29.682 13.3C29.6862 13.3 29.6904 13.3 29.6946 13.3C29.6988 13.3 29.703 13.3 29.7072 13.3C29.7114 13.3 29.7156 13.3 29.7198 13.3C29.724 13.3 29.7282 13.3 29.7324 13.3C29.7366 13.3 29.7408 13.3 29.745 13.3C29.7492 13.3 29.7534 13.3 29.7576 13.3C29.7618 13.3 29.766 13.3 29.7702 13.3C29.7744 13.3 29.7786 13.3 29.7827 13.3C29.7869 13.3 29.7911 13.3 29.7953 13.3C29.7995 13.3 29.8037 13.3 29.8079 13.3C29.8121 13.3 29.8163 13.3 29.8204 13.3C29.8246 13.3 29.8288 13.3 29.833 13.3C29.8372 13.3 29.8413 13.3 29.8455 13.3C29.8497 13.3 29.8539 13.3 29.8581 13.3C29.8622 13.3 29.8664 13.3 29.8706 13.3C29.8748 13.3 29.8789 13.3 29.8831 13.3C29.8873 13.3 29.8915 13.3 29.8956 13.3C29.8998 13.3 29.904 13.3 29.9081 13.3C29.9123 13.3 29.9165 13.3 29.9206 13.3C29.9248 13.3 29.929 13.3 29.9331 13.3C29.9373 13.3 29.9415 13.3 29.9456 13.3C29.9498 13.3 29.9539 13.3 29.9581 13.3C29.9623 13.3 29.9664 13.3 29.9706 13.3C29.9747 13.3 29.9789 13.3 29.983 13.3C29.9872 13.3 29.9913 13.3 29.9955 13.3C29.9996 13.3 30.0038 13.3 30.0079 13.3C30.0121 13.3 30.0162 13.3 30.0204 13.3C30.0245 13.3 30.0287 13.3 30.0328 13.3C30.037 13.3 30.0411 13.3 30.0452 13.3C30.0494 13.3 30.0535 13.3 30.0577 13.3C30.0618 13.3 30.0659 13.3 30.0701 13.3C30.0742 13.3 30.0783 13.3 30.0825 13.3C30.0866 13.3 30.0907 13.3 30.0948 13.3C30.099 13.3 30.1031 13.3 30.1072 13.3C30.1114 13.3 30.1155 13.3 30.1196 13.3C30.1237 13.3 30.1278 13.3 30.132 13.3C30.1361 13.3 30.1402 13.3 30.1443 13.3C30.1484 13.3 30.1525 13.3 30.1567 13.3C30.1608 13.3 30.1649 13.3 30.169 13.3C30.1731 13.3 30.1772 13.3 30.1813 13.3C30.1854 13.3 30.1895 13.3 30.1936 13.3C30.1977 13.3 30.2018 13.3 30.2059 13.3C30.21 13.3 30.2141 13.3 30.2182 13.3C30.2223 13.3 30.2264 13.3 30.2305 13.3C30.2346 13.3 30.2387 13.3 30.2428 13.3C30.2469 13.3 30.251 13.3 30.2551 13.3C30.2591 13.3 30.2632 13.3 30.2673 13.3C30.2714 13.3 30.2755 13.3 30.2796 13.3C30.2836 13.3 30.2877 13.3 30.2918 13.3C30.2959 13.3 30.2999 13.3 30.304 13.3C30.3081 13.3 30.3122 13.3 30.3162 13.3C30.3203 13.3 30.3244 13.3 30.3284 13.3C30.3325 13.3 30.3366 13.3 30.3406 13.3C30.3447 13.3 30.3488 13.3 30.3528 13.3C30.3569 13.3 30.3609 13.3 30.365 13.3C30.369 13.3 30.3731 13.3 30.3771 13.3C30.3812 13.3 30.3852 13.3 30.3893 13.3C30.3933 13.3 30.3974 13.3 30.4014 13.3C30.4055 13.3 30.4095 13.3 30.4135 13.3C30.4176 13.3 30.4216 13.3 30.4257 13.3C30.4297 13.3 30.4337 13.3 30.4378 13.3C30.4418 13.3 30.4458 13.3 30.4499 13.3C30.4539 13.3 30.4579 13.3 30.4619 13.3C30.466 13.3 30.47 13.3 30.474 13.3C30.478 13.3 30.482 13.3 30.486 13.3C30.4901 13.3 30.4941 13.3 30.4981 13.3C30.5021 13.3 30.5061 13.3 30.5101 13.3C30.5141 13.3 30.5181 13.3 30.5221 13.3C30.5261 13.3 30.5301 13.3 30.5341 13.3C30.5381 13.3 30.5421 13.3 30.5461 13.3C30.5501 13.3 30.5541 13.3 30.5581 13.3C30.5621 13.3 30.5661 13.3 30.5701 13.3C30.5741 13.3 30.578 13.3 30.582 13.3C30.586 13.3 30.59 13.3 30.594 13.3C30.5979 13.3 30.6019 13.3 30.6059 13.3C30.6098 13.3 30.6138 13.3 30.6178 13.3C30.6218 13.3 30.6257 13.3 30.6297 13.3C30.6336 13.3 30.6376 13.3 30.6416 13.3C30.6455 13.3 30.6495 13.3 30.6534 13.3C30.6574 13.3 30.6613 13.3 30.6653 13.3C30.6692 13.3 30.6732 13.3 30.6771 13.3C30.6811 13.3 30.685 13.3 30.689 13.3C30.6929 13.3 30.6968 13.3 30.7008 13.3C30.7047 13.3 30.7087 13.3 30.7126 13.3C30.7165 13.3 30.7204 13.3 30.7244 13.3C30.7283 13.3 30.7322 13.3 30.7361 13.3C30.7401 13.3 30.744 13.3 30.7479 13.3C30.7518 13.3 30.7557 13.3 30.7596 13.3C30.7635 13.3 30.7675 13.3 30.7714 13.3C30.7753 13.3 30.7792 13.3 30.7831 13.3C30.787 13.3 30.7909 13.3 30.7948 13.3C30.7987 13.3 30.8026 13.3 30.8065 13.3C30.8103 13.3 30.8142 13.3 30.8181 13.3C30.822 13.3 30.8259 13.3 30.8298 13.3C30.8337 13.3 30.8375 13.3 30.8414 13.3C30.8453 13.3 30.8492 13.3 30.853 13.3C30.8569 13.3 30.8608 13.3 30.8646 13.3C30.8685 13.3 30.8724 13.3 30.8762 13.3C30.8801 13.3 30.8839 13.3 30.8878 13.3C30.8916 13.3 30.8955 13.3 30.8993 13.3C30.9032 13.3 30.907 13.3 30.9109 13.3C30.9147 13.3 30.9186 13.3 30.9224 13.3C30.9263 13.3 30.9301 13.3 30.9339 13.3C30.9378 13.3 30.9416 13.3 30.9454 13.3C30.9492 13.3 30.9531 13.3 30.9569 13.3C30.9607 13.3 30.9645 13.3 30.9683 13.3C30.9722 13.3 30.976 13.3 30.9798 13.3C30.9836 13.3 30.9874 13.3 30.9912 13.3C30.995 13.3 30.9988 13.3 31.0026 13.3C31.0064 13.3 31.0102 13.3 31.014 13.3C31.0178 13.3 31.0216 13.3 31.0254 13.3C31.0292 13.3 31.033 13.3 31.0367 13.3C31.0405 13.3 31.0443 13.3 31.0481 13.3C31.0519 13.3 31.0556 13.3 31.0594 13.3C31.0632 13.3 31.0669 13.3 31.0707 13.3C31.0745 13.3 31.0782 13.3 31.082 13.3C31.0857 13.3 31.0895 13.3 31.0933 13.3C31.097 13.3 31.1008 13.3 31.1045 13.3C31.1082 13.3 31.112 13.3 31.1157 13.3C31.1195 13.3 31.1232 13.3 31.1269 13.3C31.1307 13.3 31.1344 13.3 31.1381 13.3C31.1419 13.3 31.1456 13.3 31.1493 13.3C31.153 13.3 31.1568 13.3 31.1605 13.3C31.1642 13.3 31.1679 13.3 31.1716 13.3C31.1753 13.3 31.179 13.3 31.1827 13.3C31.1864 13.3 31.1901 13.3 31.1938 13.3C31.1975 13.3 31.2012 13.3 31.2049 13.3C31.2086 13.3 31.2123 13.3 31.216 13.3C31.2197 13.3 31.2233 13.3 31.227 13.3C31.2307 13.3 31.2344 13.3 31.238 13.3C31.2417 13.3 31.2454 13.3 31.2491 13.3C31.2527 13.3 31.2564 13.3 31.26 13.3C31.2637 13.3 31.2674 13.3 31.271 13.3C31.2747 13.3 31.2783 13.3 31.282 13.3C31.2856 13.3 31.2892 13.3 31.2929 13.3C31.2965 13.3 31.3002 13.3 31.3038 13.3C31.3074 13.3 31.311 13.3 31.3147 13.3C31.3183 13.3 31.3219 13.3 31.3255 13.3C31.3292 13.3 31.3328 13.3 31.3364 13.3C31.34 13.3 31.3436 13.3 31.3472 13.3C31.3508 13.3 31.3544 13.3 31.358 13.3C31.3616 13.3 31.3652 13.3 31.3688 13.3C31.3724 13.3 31.376 13.3 31.3796 13.3C31.3831 13.3 31.3867 13.3 31.3903 13.3C31.3939 13.3 31.3975 13.3 31.401 13.3V11.7C31.3975 11.7 31.3939 11.7 31.3903 11.7C31.3867 11.7 31.3831 11.7 31.3796 11.7C31.376 11.7 31.3724 11.7 31.3688 11.7C31.3652 11.7 31.3616 11.7 31.358 11.7C31.3544 11.7 31.3508 11.7 31.3472 11.7C31.3436 11.7 31.34 11.7 31.3364 11.7C31.3328 11.7 31.3292 11.7 31.3255 11.7C31.3219 11.7 31.3183 11.7 31.3147 11.7C31.311 11.7 31.3074 11.7 31.3038 11.7C31.3002 11.7 31.2965 11.7 31.2929 11.7C31.2892 11.7 31.2856 11.7 31.282 11.7C31.2783 11.7 31.2747 11.7 31.271 11.7C31.2674 11.7 31.2637 11.7 31.26 11.7C31.2564 11.7 31.2527 11.7 31.2491 11.7C31.2454 11.7 31.2417 11.7 31.238 11.7C31.2344 11.7 31.2307 11.7 31.227 11.7C31.2233 11.7 31.2197 11.7 31.216 11.7C31.2123 11.7 31.2086 11.7 31.2049 11.7C31.2012 11.7 31.1975 11.7 31.1938 11.7C31.1901 11.7 31.1864 11.7 31.1827 11.7C31.179 11.7 31.1753 11.7 31.1716 11.7C31.1679 11.7 31.1642 11.7 31.1605 11.7C31.1568 11.7 31.153 11.7 31.1493 11.7C31.1456 11.7 31.1419 11.7 31.1381 11.7C31.1344 11.7 31.1307 11.7 31.1269 11.7C31.1232 11.7 31.1195 11.7 31.1157 11.7C31.112 11.7 31.1082 11.7 31.1045 11.7C31.1008 11.7 31.097 11.7 31.0933 11.7C31.0895 11.7 31.0857 11.7 31.082 11.7C31.0782 11.7 31.0745 11.7 31.0707 11.7C31.0669 11.7 31.0632 11.7 31.0594 11.7C31.0556 11.7 31.0519 11.7 31.0481 11.7C31.0443 11.7 31.0405 11.7 31.0367 11.7C31.033 11.7 31.0292 11.7 31.0254 11.7C31.0216 11.7 31.0178 11.7 31.014 11.7C31.0102 11.7 31.0064 11.7 31.0026 11.7C30.9988 11.7 30.995 11.7 30.9912 11.7C30.9874 11.7 30.9836 11.7 30.9798 11.7C30.976 11.7 30.9722 11.7 30.9683 11.7C30.9645 11.7 30.9607 11.7 30.9569 11.7C30.9531 11.7 30.9492 11.7 30.9454 11.7C30.9416 11.7 30.9378 11.7 30.9339 11.7C30.9301 11.7 30.9263 11.7 30.9224 11.7C30.9186 11.7 30.9147 11.7 30.9109 11.7C30.907 11.7 30.9032 11.7 30.8993 11.7C30.8955 11.7 30.8916 11.7 30.8878 11.7C30.8839 11.7 30.8801 11.7 30.8762 11.7C30.8724 11.7 30.8685 11.7 30.8646 11.7C30.8608 11.7 30.8569 11.7 30.853 11.7C30.8492 11.7 30.8453 11.7 30.8414 11.7C30.8375 11.7 30.8337 11.7 30.8298 11.7C30.8259 11.7 30.822 11.7 30.8181 11.7C30.8142 11.7 30.8103 11.7 30.8065 11.7C30.8026 11.7 30.7987 11.7 30.7948 11.7C30.7909 11.7 30.787 11.7 30.7831 11.7C30.7792 11.7 30.7753 11.7 30.7714 11.7C30.7675 11.7 30.7635 11.7 30.7596 11.7C30.7557 11.7 30.7518 11.7 30.7479 11.7C30.744 11.7 30.7401 11.7 30.7361 11.7C30.7322 11.7 30.7283 11.7 30.7244 11.7C30.7204 11.7 30.7165 11.7 30.7126 11.7C30.7087 11.7 30.7047 11.7 30.7008 11.7C30.6968 11.7 30.6929 11.7 30.689 11.7C30.685 11.7 30.6811 11.7 30.6771 11.7C30.6732 11.7 30.6692 11.7 30.6653 11.7C30.6613 11.7 30.6574 11.7 30.6534 11.7C30.6495 11.7 30.6455 11.7 30.6416 11.7C30.6376 11.7 30.6336 11.7 30.6297 11.7C30.6257 11.7 30.6218 11.7 30.6178 11.7C30.6138 11.7 30.6098 11.7 30.6059 11.7C30.6019 11.7 30.5979 11.7 30.594 11.7C30.59 11.7 30.586 11.7 30.582 11.7C30.578 11.7 30.5741 11.7 30.5701 11.7C30.5661 11.7 30.5621 11.7 30.5581 11.7C30.5541 11.7 30.5501 11.7 30.5461 11.7C30.5421 11.7 30.5381 11.7 30.5341 11.7C30.5301 11.7 30.5261 11.7 30.5221 11.7C30.5181 11.7 30.5141 11.7 30.5101 11.7C30.5061 11.7 30.5021 11.7 30.4981 11.7C30.4941 11.7 30.4901 11.7 30.486 11.7C30.482 11.7 30.478 11.7 30.474 11.7C30.47 11.7 30.466 11.7 30.4619 11.7C30.4579 11.7 30.4539 11.7 30.4499 11.7C30.4458 11.7 30.4418 11.7 30.4378 11.7C30.4337 11.7 30.4297 11.7 30.4257 11.7C30.4216 11.7 30.4176 11.7 30.4135 11.7C30.4095 11.7 30.4055 11.7 30.4014 11.7C30.3974 11.7 30.3933 11.7 30.3893 11.7C30.3852 11.7 30.3812 11.7 30.3771 11.7C30.3731 11.7 30.369 11.7 30.365 11.7C30.3609 11.7 30.3569 11.7 30.3528 11.7C30.3488 11.7 30.3447 11.7 30.3406 11.7C30.3366 11.7 30.3325 11.7 30.3284 11.7C30.3244 11.7 30.3203 11.7 30.3162 11.7C30.3122 11.7 30.3081 11.7 30.304 11.7C30.2999 11.7 30.2959 11.7 30.2918 11.7C30.2877 11.7 30.2836 11.7 30.2796 11.7C30.2755 11.7 30.2714 11.7 30.2673 11.7C30.2632 11.7 30.2591 11.7 30.2551 11.7C30.251 11.7 30.2469 11.7 30.2428 11.7C30.2387 11.7 30.2346 11.7 30.2305 11.7C30.2264 11.7 30.2223 11.7 30.2182 11.7C30.2141 11.7 30.21 11.7 30.2059 11.7C30.2018 11.7 30.1977 11.7 30.1936 11.7C30.1895 11.7 30.1854 11.7 30.1813 11.7C30.1772 11.7 30.1731 11.7 30.169 11.7C30.1649 11.7 30.1608 11.7 30.1567 11.7C30.1525 11.7 30.1484 11.7 30.1443 11.7C30.1402 11.7 30.1361 11.7 30.132 11.7C30.1278 11.7 30.1237 11.7 30.1196 11.7C30.1155 11.7 30.1114 11.7 30.1072 11.7C30.1031 11.7 30.099 11.7 30.0948 11.7C30.0907 11.7 30.0866 11.7 30.0825 11.7C30.0783 11.7 30.0742 11.7 30.0701 11.7C30.0659 11.7 30.0618 11.7 30.0577 11.7C30.0535 11.7 30.0494 11.7 30.0452 11.7C30.0411 11.7 30.037 11.7 30.0328 11.7C30.0287 11.7 30.0245 11.7 30.0204 11.7C30.0162 11.7 30.0121 11.7 30.0079 11.7C30.0038 11.7 29.9996 11.7 29.9955 11.7C29.9913 11.7 29.9872 11.7 29.983 11.7C29.9789 11.7 29.9747 11.7 29.9706 11.7C29.9664 11.7 29.9623 11.7 29.9581 11.7C29.9539 11.7 29.9498 11.7 29.9456 11.7C29.9415 11.7 29.9373 11.7 29.9331 11.7C29.929 11.7 29.9248 11.7 29.9206 11.7C29.9165 11.7 29.9123 11.7 29.9081 11.7C29.904 11.7 29.8998 11.7 29.8956 11.7C29.8915 11.7 29.8873 11.7 29.8831 11.7C29.8789 11.7 29.8748 11.7 29.8706 11.7C29.8664 11.7 29.8622 11.7 29.8581 11.7C29.8539 11.7 29.8497 11.7 29.8455 11.7C29.8413 11.7 29.8372 11.7 29.833 11.7C29.8288 11.7 29.8246 11.7 29.8204 11.7C29.8163 11.7 29.8121 11.7 29.8079 11.7C29.8037 11.7 29.7995 11.7 29.7953 11.7C29.7911 11.7 29.7869 11.7 29.7827 11.7C29.7786 11.7 29.7744 11.7 29.7702 11.7C29.766 11.7 29.7618 11.7 29.7576 11.7C29.7534 11.7 29.7492 11.7 29.745 11.7C29.7408 11.7 29.7366 11.7 29.7324 11.7C29.7282 11.7 29.724 11.7 29.7198 11.7C29.7156 11.7 29.7114 11.7 29.7072 11.7C29.703 11.7 29.6988 11.7 29.6946 11.7C29.6904 11.7 29.6862 11.7 29.682 11.7C29.6778 11.7 29.6736 11.7 29.6694 11.7C29.6652 11.7 29.661 11.7 29.6567 11.7C29.6525 11.7 29.6483 11.7 29.6441 11.7C29.6399 11.7 29.6357 11.7 29.6315 11.7C29.6273 11.7 29.6231 11.7 29.6188 11.7C29.6146 11.7 29.6104 11.7 29.6062 11.7C29.602 11.7 29.5978 11.7 29.5936 11.7C29.5893 11.7 29.5851 11.7 29.5809 11.7C29.5767 11.7 29.5725 11.7 29.5682 11.7C29.564 11.7 29.5598 11.7 29.5556 11.7C29.5514 11.7 29.5471 11.7 29.5429 11.7C29.5387 11.7 29.5345 11.7 29.5302 11.7C29.526 11.7 29.5218 11.7 29.5176 11.7C29.5133 11.7 29.5091 11.7 29.5049 11.7C29.5007 11.7 29.4964 11.7 29.4922 11.7C29.488 11.7 29.4838 11.7 29.4795 11.7C29.4753 11.7 29.4711 11.7 29.4668 11.7C29.4626 11.7 29.4584 11.7 29.4542 11.7C29.4499 11.7 29.4457 11.7 29.4415 11.7C29.4372 11.7 29.433 11.7 29.4288 11.7C29.4245 11.7 29.4203 11.7 29.4161 11.7C29.4118 11.7 29.4076 11.7 29.4034 11.7C29.3991 11.7 29.3949 11.7 29.3906 11.7C29.3864 11.7 29.3822 11.7 29.3779 11.7C29.3737 11.7 29.3695 11.7 29.3652 11.7C29.361 11.7 29.3568 11.7 29.3525 11.7C29.3483 11.7 29.344 11.7 29.3398 11.7C29.3356 11.7 29.3313 11.7 29.3271 11.7C29.3228 11.7 29.3186 11.7 29.3144 11.7C29.3101 11.7 29.3059 11.7 29.3016 11.7C29.2974 11.7 29.2931 11.7 29.2889 11.7C29.2847 11.7 29.2804 11.7 29.2762 11.7C29.2719 11.7 29.2677 11.7 29.2635 11.7C29.2592 11.7 29.255 11.7 29.2507 11.7C29.2465 11.7 29.2422 11.7 29.238 11.7C29.2337 11.7 29.2295 11.7 29.2253 11.7C29.221 11.7 29.2168 11.7 29.2125 11.7C29.2083 11.7 29.204 11.7 29.1998 11.7C29.1955 11.7 29.1913 11.7 29.187 11.7C29.1828 11.7 29.1786 11.7 29.1743 11.7C29.1701 11.7 29.1658 11.7 29.1616 11.7C29.1573 11.7 29.1531 11.7 29.1488 11.7C29.1446 11.7 29.1403 11.7 29.1361 11.7C29.1318 11.7 29.1276 11.7 29.1234 11.7C29.1191 11.7 29.1149 11.7 29.1106 11.7C29.1064 11.7 29.1021 11.7 29.0979 11.7C29.0936 11.7 29.0894 11.7 29.0851 11.7C29.0809 11.7 29.0766 11.7 29.0724 11.7C29.0681 11.7 29.0639 11.7 29.0596 11.7C29.0554 11.7 29.0511 11.7 29.0469 11.7C29.0427 11.7 29.0384 11.7 29.0342 11.7C29.0299 11.7 29.0257 11.7 29.0214 11.7C29.0172 11.7 29.0129 11.7 29.0087 11.7C29.0044 11.7 29.0002 11.7 28.9959 11.7C28.9917 11.7 28.9874 11.7 28.9832 11.7C28.979 11.7 28.9747 11.7 28.9705 11.7C28.9662 11.7 28.962 11.7 28.9577 11.7C28.9535 11.7 28.9492 11.7 28.945 11.7C28.9407 11.7 28.9365 11.7 28.9323 11.7C28.928 11.7 28.9238 11.7 28.9195 11.7C28.9153 11.7 28.911 11.7 28.9068 11.7C28.9025 11.7 28.8983 11.7 28.8941 11.7C28.8898 11.7 28.8856 11.7 28.8813 11.7C28.8771 11.7 28.8728 11.7 28.8686 11.7C28.8644 11.7 28.8601 11.7 28.8559 11.7C28.8516 11.7 28.8474 11.7 28.8431 11.7C28.8389 11.7 28.8347 11.7 28.8304 11.7C28.8262 11.7 28.8219 11.7 28.8177 11.7C28.8135 11.7 28.8092 11.7 28.805 11.7C28.8007 11.7 28.7965 11.7 28.7923 11.7C28.788 11.7 28.7838 11.7 28.7796 11.7C28.7753 11.7 28.7711 11.7 28.7668 11.7C28.7626 11.7 28.7584 11.7 28.7541 11.7C28.7499 11.7 28.7457 11.7 28.7414 11.7C28.7372 11.7 28.733 11.7 28.7287 11.7C28.7245 11.7 28.7203 11.7 28.716 11.7C28.7118 11.7 28.7076 11.7 28.7033 11.7C28.6991 11.7 28.6949 11.7 28.6906 11.7C28.6864 11.7 28.6822 11.7 28.6779 11.7C28.6737 11.7 28.6695 11.7 28.6653 11.7C28.661 11.7 28.6568 11.7 28.6526 11.7C28.6483 11.7 28.6441 11.7 28.6399 11.7C28.6357 11.7 28.6314 11.7 28.6272 11.7C28.623 11.7 28.6188 11.7 28.6145 11.7C28.6103 11.7 28.6061 11.7 28.6019 11.7C28.5977 11.7 28.5934 11.7 28.5892 11.7C28.585 11.7 28.5808 11.7 28.5766 11.7C28.5723 11.7 28.5681 11.7 28.5639 11.7C28.5597 11.7 28.5555 11.7 28.5513 11.7C28.547 11.7 28.5428 11.7 28.5386 11.7C28.5344 11.7 28.5302 11.7 28.526 11.7C28.5217 11.7 28.5175 11.7 28.5133 11.7C28.5091 11.7 28.5049 11.7 28.5007 11.7C28.4965 11.7 28.4923 11.7 28.4881 11.7C28.4839 11.7 28.4796 11.7 28.4754 11.7C28.4712 11.7 28.467 11.7 28.4628 11.7C28.4586 11.7 28.4544 11.7 28.4502 11.7C28.446 11.7 28.4418 11.7 28.4376 11.7C28.4334 11.7 28.4292 11.7 28.425 11.7C28.4208 11.7 28.4166 11.7 28.4124 11.7C28.4082 11.7 28.404 11.7 28.3998 11.7C28.3956 11.7 28.3914 11.7 28.3872 11.7C28.383 11.7 28.3788 11.7 28.3747 11.7C28.3705 11.7 28.3663 11.7 28.3621 11.7C28.3579 11.7 28.3537 11.7 28.3495 11.7C28.3453 11.7 28.3411 11.7 28.337 11.7C28.3328 11.7 28.3286 11.7 28.3244 11.7C28.3202 11.7 28.316 11.7 28.3119 11.7C28.3077 11.7 28.3035 11.7 28.2993 11.7C28.2951 11.7 28.291 11.7 28.2868 11.7C28.2826 11.7 28.2784 11.7 28.2743 11.7C28.2701 11.7 28.2659 11.7 28.2617 11.7C28.2576 11.7 28.2534 11.7 28.2492 11.7C28.245 11.7 28.2409 11.7 28.2367 11.7C28.2325 11.7 28.2284 11.7 28.2242 11.7C28.22 11.7 28.2159 11.7 28.2117 11.7C28.2076 11.7 28.2034 11.7 28.1992 11.7C28.1951 11.7 28.1909 11.7 28.1868 11.7C28.1826 11.7 28.1784 11.7 28.1743 11.7C28.1701 11.7 28.166 11.7 28.1618 11.7C28.1577 11.7 28.1535 11.7 28.1494 11.7C28.1452 11.7 28.1411 11.7 28.1369 11.7C28.1328 11.7 28.1286 11.7 28.1245 11.7C28.1204 11.7 28.1162 11.7 28.1121 11.7C28.1079 11.7 28.1038 11.7 28.0996 11.7C28.0955 11.7 28.0914 11.7 28.0872 11.7C28.0831 11.7 28.079 11.7 28.0748 11.7C28.0707 11.7 28.0666 11.7 28.0624 11.7C28.0583 11.7 28.0542 11.7 28.05 11.7C28.0459 11.7 28.0418 11.7 28.0377 11.7C28.0335 11.7 28.0294 11.7 28.0253 11.7C28.0212 11.7 28.0171 11.7 28.0129 11.7C28.0088 11.7 28.0047 11.7 28.0006 11.7C27.9965 11.7 27.9924 11.7 27.9883 11.7C27.9841 11.7 27.98 11.7 27.9759 11.7C27.9718 11.7 27.9677 11.7 27.9636 11.7C27.9595 11.7 27.9554 11.7 27.9513 11.7C27.9472 11.7 27.9431 11.7 27.939 11.7C27.9349 11.7 27.9308 11.7 27.9267 11.7C27.9226 11.7 27.9185 11.7 27.9144 11.7C27.9103 11.7 27.9062 11.7 27.9021 11.7C27.898 11.7 27.894 11.7 27.8899 11.7C27.8858 11.7 27.8817 11.7 27.8776 11.7C27.8735 11.7 27.8695 11.7 27.8654 11.7C27.8613 11.7 27.8572 11.7 27.8531 11.7C27.8491 11.7 27.845 11.7 27.8409 11.7C27.8369 11.7 27.8328 11.7 27.8287 11.7C27.8246 11.7 27.8206 11.7 27.8165 11.7C27.8125 11.7 27.8084 11.7 27.8043 11.7C27.8003 11.7 27.7962 11.7 27.7922 11.7C27.7881 11.7 27.784 11.7 27.78 11.7C27.7759 11.7 27.7719 11.7 27.7678 11.7C27.7638 11.7 27.7597 11.7 27.7557 11.7C27.7516 11.7 27.7476 11.7 27.7436 11.7C27.7395 11.7 27.7355 11.7 27.7314 11.7C27.7274 11.7 27.7234 11.7 27.7193 11.7C27.7153 11.7 27.7113 11.7 27.7072 11.7C27.7032 11.7 27.6992 11.7 27.6951 11.7C27.6911 11.7 27.6871 11.7 27.6831 11.7C27.679 11.7 27.675 11.7 27.671 11.7C27.667 11.7 27.663 11.7 27.659 11.7C27.6549 11.7 27.6509 11.7 27.6469 11.7C27.6429 11.7 27.6389 11.7 27.6349 11.7C27.6309 11.7 27.6269 11.7 27.6229 11.7C27.6189 11.7 27.6149 11.7 27.6109 11.7C27.6069 11.7 27.6029 11.7 27.5989 11.7C27.5949 11.7 27.5909 11.7 27.5869 11.7C27.5829 11.7 27.579 11.7 27.575 11.7C27.571 11.7 27.567 11.7 27.563 11.7C27.559 11.7 27.5551 11.7 27.5511 11.7C27.5471 11.7 27.5431 11.7 27.5392 11.7C27.5352 11.7 27.5312 11.7 27.5273 11.7C27.5233 11.7 27.5193 11.7 27.5154 11.7C27.5114 11.7 27.5075 11.7 27.5035 11.7C27.4995 11.7 27.4956 11.7 27.4916 11.7C27.4877 11.7 27.4837 11.7 27.4798 11.7C27.4758 11.7 27.4719 11.7 27.4679 11.7C27.464 11.7 27.4601 11.7 27.4561 11.7C27.4522 11.7 27.4482 11.7 27.4443 11.7C27.4404 11.7 27.4364 11.7 27.4325 11.7C27.4286 11.7 27.4247 11.7 27.4207 11.7C27.4168 11.7 27.4129 11.7 27.409 11.7C27.405 11.7 27.4011 11.7 27.3972 11.7C27.3933 11.7 27.3894 11.7 27.3855 11.7C27.3816 11.7 27.3777 11.7 27.3738 11.7C27.3699 11.7 27.3659 11.7 27.362 11.7C27.3581 11.7 27.3543 11.7 27.3504 11.7C27.3465 11.7 27.3426 11.7 27.3387 11.7C27.3348 11.7 27.3309 11.7 27.327 11.7C27.3231 11.7 27.3193 11.7 27.3154 11.7C27.3115 11.7 27.3076 11.7 27.3037 11.7C27.2999 11.7 27.296 11.7 27.2921 11.7C27.2883 11.7 27.2844 11.7 27.2805 11.7C27.2767 11.7 27.2728 11.7 27.2689 11.7C27.2651 11.7 27.2612 11.7 27.2574 11.7C27.2535 11.7 27.2497 11.7 27.2458 11.7C27.242 11.7 27.2381 11.7 27.2343 11.7C27.2305 11.7 27.2266 11.7 27.2228 11.7C27.2189 11.7 27.2151 11.7 27.2113 11.7C27.2074 11.7 27.2036 11.7 27.1998 11.7C27.196 11.7 27.1921 11.7 27.1883 11.7C27.1845 11.7 27.1807 11.7 27.1769 11.7C27.1731 11.7 27.1692 11.7 27.1654 11.7C27.1616 11.7 27.1578 11.7 27.154 11.7C27.1502 11.7 27.1464 11.7 27.1426 11.7C27.1388 11.7 27.135 11.7 27.1312 11.7C27.1274 11.7 27.1236 11.7 27.1199 11.7C27.1161 11.7 27.1123 11.7 27.1085 11.7C27.1047 11.7 27.101 11.7 27.0972 11.7C27.0934 11.7 27.0896 11.7 27.0859 11.7C27.0821 11.7 27.0783 11.7 27.0746 11.7C27.0708 11.7 27.067 11.7 27.0633 11.7C27.0595 11.7 27.0558 11.7 27.052 11.7C27.0483 11.7 27.0445 11.7 27.0408 11.7C27.037 11.7 27.0333 11.7 27.0296 11.7C27.0258 11.7 27.0221 11.7 27.0184 11.7C27.0146 11.7 27.0109 11.7 27.0072 11.7C27.0034 11.7 26.9997 11.7 26.996 11.7C26.9923 11.7 26.9886 11.7 26.9848 11.7C26.9811 11.7 26.9774 11.7 26.9737 11.7C26.97 11.7 26.9663 11.7 26.9626 11.7C26.9589 11.7 26.9552 11.7 26.9515 11.7C26.9478 11.7 26.9441 11.7 26.9404 11.7C26.9367 11.7 26.9331 11.7 26.9294 11.7C26.9257 11.7 26.922 11.7 26.9183 11.7C26.9147 11.7 26.911 11.7 26.9073 11.7C26.9036 11.7 26.9 11.7 26.8963 11.7C26.8926 11.7 26.889 11.7 26.8853 11.7C26.8817 11.7 26.878 11.7 26.8744 11.7C26.8707 11.7 26.8671 11.7 26.8634 11.7C26.8598 11.7 26.8562 11.7 26.8525 11.7C26.8489 11.7 26.8452 11.7 26.8416 11.7C26.838 11.7 26.8344 11.7 26.8307 11.7C26.8271 11.7 26.8235 11.7 26.8199 11.7C26.8163 11.7 26.8126 11.7 26.809 11.7C26.8054 11.7 26.8018 11.7 26.7982 11.7C26.7946 11.7 26.791 11.7 26.7874 11.7C26.7838 11.7 26.7802 11.7 26.7766 11.7C26.7731 11.7 26.7695 11.7 26.7659 11.7C26.7623 11.7 26.7587 11.7 26.7551 11.7C26.7516 11.7 26.748 11.7 26.7444 11.7C26.7409 11.7 26.7373 11.7 26.7337 11.7C26.7302 11.7 26.7266 11.7 26.7231 11.7C26.7195 11.7 26.716 11.7 26.7124 11.7C26.7089 11.7 26.7053 11.7 26.7018 11.7C26.6982 11.7 26.6947 11.7 26.6912 11.7C26.6876 11.7 26.6841 11.7 26.6806 11.7C26.6771 11.7 26.6735 11.7 26.67 11.7C26.6665 11.7 26.663 11.7 26.6595 11.7C26.656 11.7 26.6525 11.7 26.649 11.7C26.6455 11.7 26.642 11.7 26.6385 11.7C26.635 11.7 26.6315 11.7 26.628 11.7C26.6245 11.7 26.621 11.7 26.6175 11.7C26.6141 11.7 26.6106 11.7 26.6071 11.7C26.6036 11.7 26.6002 11.7 26.5967 11.7C26.5932 11.7 26.5898 11.7 26.5863 11.7C26.5828 11.7 26.5794 11.7 26.5759 11.7C26.5725 11.7 26.569 11.7 26.5656 11.7C26.5622 11.7 26.5587 11.7 26.5553 11.7C26.5518 11.7 26.5484 11.7 26.545 11.7C26.5416 11.7 26.5381 11.7 26.5347 11.7C26.5313 11.7 26.5279 11.7 26.5245 11.7C26.521 11.7 26.5176 11.7 26.5142 11.7C26.5108 11.7 26.5074 11.7 26.504 11.7C26.5006 11.7 26.4972 11.7 26.4939 11.7C26.4905 11.7 26.4871 11.7 26.4837 11.7C26.4803 11.7 26.4769 11.7 26.4736 11.7C26.4702 11.7 26.4668 11.7 26.4635 11.7C26.4601 11.7 26.4567 11.7 26.4534 11.7C26.45 11.7 26.4467 11.7 26.4433 11.7C26.44 11.7 26.4366 11.7 26.4333 11.7C26.4299 11.7 26.4266 11.7 26.4233 11.7C26.4199 11.7 26.4166 11.7 26.4133 11.7C26.41 11.7 26.4066 11.7 26.4033 11.7C26.4 11.7 26.3967 11.7 26.3934 11.7C26.3901 11.7 26.3868 11.7 26.3835 11.7C26.3802 11.7 26.3769 11.7 26.3736 11.7C26.3703 11.7 26.367 11.7 26.3637 11.7C26.3604 11.7 26.3572 11.7 26.3539 11.7C26.3506 11.7 26.3474 11.7 26.3441 11.7C26.3408 11.7 26.3376 11.7 26.3343 11.7C26.331 11.7 26.3278 11.7 26.3245 11.7C26.3213 11.7 26.318 11.7 26.3148 11.7C26.3116 11.7 26.3083 11.7 26.3051 11.7C26.3019 11.7 26.2986 11.7 26.2954 11.7C26.2922 11.7 26.289 11.7 26.2858 11.7C26.2825 11.7 26.2793 11.7 26.2761 11.7C26.2729 11.7 26.2697 11.7 26.2665 11.7C26.2633 11.7 26.2601 11.7 26.2569 11.7C26.2537 11.7 26.2506 11.7 26.2474 11.7C26.2442 11.7 26.241 11.7 26.2379 11.7C26.2347 11.7 26.2315 11.7 26.2284 11.7C26.2252 11.7 26.222 11.7 26.2189 11.7C26.2157 11.7 26.2126 11.7 26.2094 11.7C26.2063 11.7 26.2032 11.7 26.2 11.7C26.1969 11.7 26.1938 11.7 26.1906 11.7C26.1875 11.7 26.1844 11.7 26.1813 11.7C26.1781 11.7 26.175 11.7 26.1719 11.7C26.1688 11.7 26.1657 11.7 26.1626 11.7C26.1595 11.7 26.1564 11.7 26.1533 11.7C26.1502 11.7 26.1472 11.7 26.1441 11.7C26.141 11.7 26.1379 11.7 26.1348 11.7C26.1318 11.7 26.1287 11.7 26.1256 11.7C26.1226 11.7 26.1195 11.7 26.1165 11.7C26.1134 11.7 26.1104 11.7 26.1073 11.7C26.1043 11.7 26.1012 11.7 26.0982 11.7C26.0952 11.7 26.0921 11.7 26.0891 11.7C26.0861 11.7 26.0831 11.7 26.0801 11.7C26.077 11.7 26.074 11.7 26.071 11.7C26.068 11.7 26.065 11.7 26.062 11.7C26.059 11.7 26.056 11.7 26.053 11.7C26.0501 11.7 26.0471 11.7 26.0441 11.7C26.0411 11.7 26.0382 11.7 26.0352 11.7C26.0322 11.7 26.0293 11.7 26.0263 11.7C26.0233 11.7 26.0204 11.7 26.0174 11.7C26.0145 11.7 26.0115 11.7 26.0086 11.7C26.0057 11.7 26.0027 11.7 25.9998 11.7C25.9969 11.7 25.994 11.7 25.991 11.7C25.9881 11.7 25.9852 11.7 25.9823 11.7C25.9794 11.7 25.9765 11.7 25.9736 11.7C25.9707 11.7 25.9678 11.7 25.9649 11.7C25.962 11.7 25.9591 11.7 25.9562 11.7C25.9534 11.7 25.9505 11.7 25.9476 11.7C25.9448 11.7 25.9419 11.7 25.939 11.7C25.9362 11.7 25.9333 11.7 25.9305 11.7C25.9276 11.7 25.9248 11.7 25.9219 11.7C25.9191 11.7 25.9163 11.7 25.9134 11.7C25.9106 11.7 25.9078 11.7 25.905 11.7C25.9021 11.7 25.8993 11.7 25.8965 11.7C25.8937 11.7 25.8909 11.7 25.8881 11.7C25.8853 11.7 25.8825 11.7 25.8797 11.7C25.8769 11.7 25.8742 11.7 25.8714 11.7C25.8686 11.7 25.8658 11.7 25.8631 11.7C25.8603 11.7 25.8575 11.7 25.8548 11.7C25.852 11.7 25.8493 11.7 25.8465 11.7C25.8438 11.7 25.841 11.7 25.8383 11.7C25.8356 11.7 25.8328 11.7 25.8301 11.7C25.8274 11.7 25.8247 11.7 25.822 11.7C25.8192 11.7 25.8165 11.7 25.8138 11.7C25.8111 11.7 25.8084 11.7 25.8057 11.7C25.803 11.7 25.8003 11.7 25.7977 11.7C25.795 11.7 25.7923 11.7 25.7896 11.7C25.787 11.7 25.7843 11.7 25.7816 11.7C25.779 11.7 25.7763 11.7 25.7737 11.7C25.771 11.7 25.7684 11.7 25.7657 11.7C25.7631 11.7 25.7604 11.7 25.7578 11.7C25.7552 11.7 25.7526 11.7 25.7499 11.7C25.7473 11.7 25.7447 11.7 25.7421 11.7C25.7395 11.7 25.7369 11.7 25.7343 11.7C25.7317 11.7 25.7291 11.7 25.7265 11.7C25.7239 11.7 25.7214 11.7 25.7188 11.7C25.7162 11.7 25.7136 11.7 25.7111 11.7C25.7085 11.7 25.706 11.7 25.7034 11.7C25.7009 11.7 25.6983 11.7 25.6958 11.7C25.6932 11.7 25.6907 11.7 25.6882 11.7C25.6856 11.7 25.6831 11.7 25.6806 11.7C25.6781 11.7 25.6756 11.7 25.673 11.7C25.6705 11.7 25.668 11.7 25.6655 11.7C25.663 11.7 25.6606 11.7 25.6581 11.7C25.6556 11.7 25.6531 11.7 25.6506 11.7C25.6482 11.7 25.6457 11.7 25.6432 11.7C25.6408 11.7 25.6383 11.7 25.6359 11.7C25.6334 11.7 25.631 11.7 25.6285 11.7C25.6261 11.7 25.6236 11.7 25.6212 11.7C25.6188 11.7 25.6164 11.7 25.614 11.7C25.6115 11.7 25.6091 11.7 25.6067 11.7C25.6043 11.7 25.6019 11.7 25.5995 11.7V13.3ZM31.2 13.1V15.5938H32.8V13.1H31.2ZM32.0801 16.8936L33.8708 17.6099L34.465 16.1244L32.6743 15.4081L32.0801 16.8936ZM35.287 17.3856L37.5684 15.4843L36.5441 14.2552L34.2627 16.1564L35.287 17.3856ZM37.2917 15.4645L41.0246 19.6121L42.2138 18.5417L38.481 14.3941L37.2917 15.4645ZM41.0318 19.3368L39.2401 21.1285L40.3715 22.2599L42.1632 20.4682L41.0318 19.3368ZM38.9779 22.7446L40.1186 25.0261L41.5497 24.3106L40.4089 22.029L38.9779 22.7446ZM41.3708 25.8H44.4V24.2H41.3708V25.8ZM44.2 25.6V31.4H45.8V25.6H44.2ZM44.4 31.2H41.3708V32.8H44.4V31.2ZM40.1186 31.9739L39.0014 34.2084L40.4325 34.9239L41.5497 32.6894L40.1186 31.9739ZM39.3645 35.9219C39.7946 36.2789 40.3067 36.7248 40.7056 37.1167C40.907 37.3146 41.0635 37.4831 41.1641 37.6101C41.2151 37.6745 41.2376 37.7107 41.2437 37.7217C41.262 37.755 41.2 37.6641 41.2 37.5H42.8C42.8 37.2494 42.699 37.0477 42.6456 36.9507C42.58 36.8313 42.4981 36.7175 42.4184 36.6168C42.2576 36.4137 42.0472 36.1918 41.827 35.9754C41.3827 35.5389 40.8325 35.061 40.3865 34.6908L39.3645 35.9219ZM41.2 37.5C41.2 37.3929 41.2238 37.3151 41.2342 37.2843C41.2463 37.2487 41.2576 37.2268 41.26 37.2223C41.2641 37.2144 41.2578 37.2275 41.2291 37.267C41.1733 37.344 41.0787 37.459 40.9412 37.6125C40.6695 37.9158 40.2806 38.3139 39.8265 38.7606C38.9213 39.6509 37.7952 40.6973 36.923 41.4907L37.9997 42.6742C38.879 41.8743 40.0222 40.8123 40.9485 39.9012C41.4101 39.4472 41.8274 39.0212 42.133 38.68C42.2843 38.5112 42.4211 38.3488 42.5245 38.2061C42.5755 38.1358 42.6307 38.0534 42.6766 37.9661C42.7071 37.908 42.8 37.7293 42.8 37.5H41.2ZM37.2156 41.509L35.4436 39.3826L34.2144 40.4069L35.9864 42.5333L37.2156 41.509ZM33.6478 39.0784L31.8797 40.1392L32.7029 41.5112L34.4709 40.4504L33.6478 39.0784ZM31.2 41.3397V43.9H32.8V41.3397H31.2ZM31.4 43.7H25.7319V45.3H31.4V43.7ZM25.9132 43.8882C25.9764 43.4319 26.0282 42.8928 26.02 42.412C26.0159 42.173 25.9967 41.9214 25.9459 41.69C25.8999 41.4809 25.8046 41.1732 25.5657 40.9343L24.4343 42.0657C24.3478 41.9792 24.359 41.9233 24.3832 42.0334C24.4025 42.1212 24.4171 42.2562 24.4202 42.4393C24.4264 42.803 24.3862 43.2507 24.3283 43.6688L25.9132 43.8882ZM25.5657 40.9343C25.411 40.7796 25.1776 40.6198 24.9642 40.4833C24.7314 40.3344 24.4509 40.169 24.1552 40.0014C23.5627 39.6658 22.881 39.3062 22.3369 39.0272L21.607 40.451C22.1406 40.7246 22.8007 41.0731 23.3666 41.3936C23.6501 41.5542 23.9031 41.7039 24.102 41.8311C24.2014 41.8947 24.282 41.9493 24.3434 41.9942C24.3739 42.0164 24.397 42.0343 24.4137 42.048C24.4312 42.0624 24.4367 42.0681 24.4343 42.0657L25.5657 40.9343ZM20.5406 39.497L19.2228 41.4736L20.5541 42.3611L21.8718 40.3845L20.5406 39.497ZM19.5244 41.4371L14.6047 36.9273L13.5235 38.1068L18.4432 42.6165L19.5244 41.4371ZM14.5804 37.2412L16.5625 35.9198L15.6749 34.5886L13.6929 35.9099L14.5804 37.2412ZM17.114 34.3123L16.3957 32.1573L14.8778 32.6632L15.5961 34.8182L17.114 34.3123ZM15.0675 31.2H12.1V32.8H15.0675V31.2ZM12.1 25.8H14.6603V24.2H12.1V25.8ZM15.8608 25.1203L16.9667 23.277L15.5948 22.4538L14.4888 24.2971L15.8608 25.1203ZM16.8418 21.6605L14.9825 19.4293L13.7533 20.4536L15.6126 22.6848L16.8418 21.6605ZM14.9634 19.7054L19.6517 15.4433L18.5754 14.2594L13.8871 18.5215L14.9634 19.7054ZM19.3891 15.4489L21.713 17.3856L22.7373 16.1564L20.4134 14.2198L19.3891 15.4489ZM23.1292 17.6099L24.9199 16.8936L24.3257 15.4081L22.535 16.1244L23.1292 17.6099ZM25.8 15.5938V13.1H24.2V15.5938H25.8ZM28.0657 12.5657L28.6122 12.0192L27.4808 10.8878L26.9343 11.4343L28.0657 12.5657ZM28.5442 9.97562L25.4492 7.26758L24.3956 8.4717L27.4905 11.1797L28.5442 9.97562ZM23.5374 7.33124L22.2401 8.62852L23.3715 9.75989L24.6688 8.46261L23.5374 7.33124ZM22.471 8.59106L21.1894 7.95029L20.4739 9.38138L21.7554 10.0221L22.471 8.59106ZM21.3 8.12918V5.6H19.7V8.12918H21.3ZM19.9 4.2H15.6V5.8H19.9V4.2ZM14.2 5.6V8.12918H15.8V5.6H14.2ZM14.3106 7.95029L13.0673 8.57194L13.7828 10.003L15.0261 9.38138L14.3106 7.95029ZM13.3104 8.62279L11.5111 6.46373L10.282 7.48802L12.0812 9.64708L13.3104 8.62279ZM9.50552 6.31362L5.94411 9.47932L7.00709 10.6752L10.5685 7.50947L9.50552 6.31362ZM5.88427 11.5156L7.67211 13.3035L8.80348 12.1721L7.01564 10.3843L5.88427 11.5156ZM7.62379 13.0988L6.87781 15.3368L8.3957 15.8427L9.14168 13.6048L7.62379 13.0988ZM7.06754 15.2H4.6V16.8H7.06754V15.2ZM3.2 16.6V20.4H4.8V16.6H3.2ZM4.6 21.8H7.10436V20.2H4.6V21.8ZM6.92053 21.6788L8.10467 24.4418L9.5753 23.8115L8.39117 21.0485L6.92053 21.6788ZM8.14707 24.2216L6.91491 25.4537L8.04628 26.5851L9.27844 25.3529L8.14707 24.2216ZM12.3 31.4V30H10.7V31.4H12.3ZM12.3 30V25.6H10.7V30H12.3ZM7.04535 27.5488L11.0088 30.6315L11.9912 29.3685L8.02765 26.2858L7.04535 27.5488ZM3.2 20.4C3.2 21.1732 3.8268 21.8 4.6 21.8V20.2C4.71046 20.2 4.8 20.2895 4.8 20.4H3.2ZM4.6 15.2C3.8268 15.2 3.2 15.8268 3.2 16.6H4.8C4.8 16.7105 4.71046 16.8 4.6 16.8V15.2ZM6.87781 15.3368C6.90503 15.2551 6.98146 15.2 7.06754 15.2V16.8C7.67015 16.8 8.20514 16.4144 8.3957 15.8427L6.87781 15.3368ZM7.67211 13.3035C7.61854 13.2499 7.59983 13.1707 7.62379 13.0988L9.14168 13.6048C9.30937 13.1017 9.17844 12.5471 8.80348 12.1721L7.67211 13.3035ZM5.94411 9.47932C5.34205 10.0145 5.31468 10.9461 5.88427 11.5156L7.01564 10.3843C7.09701 10.4656 7.0931 10.5987 7.00709 10.6752L5.94411 9.47932ZM11.5111 6.46373C11.0049 5.8563 10.0965 5.7883 9.50552 6.31362L10.5685 7.50947C10.4841 7.58451 10.3543 7.5748 10.282 7.48802L11.5111 6.46373ZM13.0673 8.57194C13.1503 8.53043 13.2509 8.55149 13.3104 8.62279L12.0812 9.64708C12.4971 10.1462 13.2017 10.2936 13.7828 10.003L13.0673 8.57194ZM14.2 8.12918C14.2 8.05343 14.2428 7.98417 14.3106 7.95029L15.0261 9.38138C15.5004 9.14423 15.8 8.65946 15.8 8.12918H14.2ZM15.6 4.2C14.8268 4.2 14.2 4.8268 14.2 5.6H15.8C15.8 5.71046 15.7105 5.8 15.6 5.8V4.2ZM21.3 5.6C21.3 4.8268 20.6732 4.2 19.9 4.2V5.8C19.7895 5.8 19.7 5.71046 19.7 5.6H21.3ZM21.1894 7.95029C21.2572 7.98417 21.3 8.05343 21.3 8.12918H19.7C19.7 8.65946 19.9996 9.14423 20.4739 9.38138L21.1894 7.95029ZM22.2401 8.62852C22.301 8.56765 22.394 8.55256 22.471 8.59106L21.7554 10.0221C22.2944 10.2916 22.9454 10.186 23.3715 9.75989L22.2401 8.62852ZM25.4492 7.26758C24.8946 6.78223 24.0586 6.81006 23.5374 7.33124L24.6688 8.46261C24.5943 8.53706 24.4749 8.54104 24.3956 8.4717L25.4492 7.26758ZM28.6122 12.0192C29.1848 11.4465 29.1536 10.5089 28.5442 9.97562L27.4905 11.1797C27.4035 11.1036 27.399 10.9696 27.4808 10.8878L28.6122 12.0192ZM24.9199 16.8936C25.4515 16.681 25.8 16.1662 25.8 15.5938H24.2C24.2 15.512 24.2498 15.4385 24.3257 15.4081L24.9199 16.8936ZM21.713 17.3856C22.1081 17.7148 22.6518 17.8009 23.1292 17.6099L22.535 16.1244C22.6032 16.0971 22.6809 16.1094 22.7373 16.1564L21.713 17.3856ZM19.6517 15.4433C19.5778 15.5104 19.4658 15.5128 19.3891 15.4489L20.4134 14.2198C19.8767 13.7725 19.0924 13.7894 18.5754 14.2594L19.6517 15.4433ZM14.9825 19.4293C15.0511 19.5116 15.0426 19.6333 14.9634 19.7054L13.8871 18.5215C13.3323 19.0258 13.2734 19.8777 13.7533 20.4536L14.9825 19.4293ZM16.9667 23.277C17.2731 22.7664 17.223 22.1179 16.8418 21.6605L15.6126 22.6848C15.5581 22.6194 15.551 22.5268 15.5948 22.4538L16.9667 23.277ZM14.6603 25.8C15.1521 25.8 15.6078 25.542 15.8608 25.1203L14.4888 24.2971C14.5249 24.2369 14.59 24.2 14.6603 24.2V25.8ZM12.1 24.2C11.3268 24.2 10.7 24.8268 10.7 25.6H12.3C12.3 25.7105 12.2105 25.8 12.1 25.8V24.2ZM16.5625 35.9198C17.0878 35.5696 17.3137 34.9112 17.114 34.3123L15.5961 34.8182C15.5676 34.7327 15.5999 34.6386 15.6749 34.5886L16.5625 35.9198ZM14.6047 36.9273C14.7003 37.015 14.6884 37.1692 14.5804 37.2412L13.6929 35.9099C12.9371 36.4138 12.8539 37.493 13.5235 38.1068L14.6047 36.9273ZM19.2228 41.4736C19.2909 41.3715 19.4339 41.3542 19.5244 41.4371L18.4432 42.6165C19.0763 43.1968 20.0777 43.0756 20.5541 42.3611L19.2228 41.4736ZM22.3369 39.0272C21.7008 38.7011 20.9307 38.9117 20.5406 39.497L21.8718 40.3845C21.8174 40.4662 21.7046 40.501 21.607 40.451L22.3369 39.0272ZM25.7319 43.7C25.7963 43.7 25.8492 43.7317 25.8778 43.7658C25.9049 43.7981 25.9195 43.8424 25.9132 43.8882L24.3283 43.6688C24.214 44.4943 24.8376 45.3 25.7319 45.3V43.7ZM31.2 43.9C31.2 43.7895 31.2895 43.7 31.4 43.7V45.3C32.1732 45.3 32.8 44.6732 32.8 43.9H31.2ZM31.8797 40.1392C31.458 40.3922 31.2 40.8479 31.2 41.3397H32.8C32.8 41.41 32.7631 41.4751 32.7029 41.5112L31.8797 40.1392ZM35.4436 39.3826C35.0018 38.8525 34.2395 38.7233 33.6478 39.0784L34.4709 40.4504C34.3864 40.5011 34.2775 40.4827 34.2144 40.4069L35.4436 39.3826ZM36.923 41.4907C37.0115 41.4102 37.1447 41.424 37.2156 41.509L35.9864 42.5333C36.493 43.1412 37.4077 43.2127 37.9997 42.6742L36.923 41.4907ZM39.0014 34.2084C38.7052 34.8007 38.8666 35.5085 39.3645 35.9219L40.3865 34.6908C40.4491 34.7427 40.4756 34.8377 40.4325 34.9239L39.0014 34.2084ZM41.3708 31.2C40.8405 31.2 40.3558 31.4996 40.1186 31.9739L41.5497 32.6894C41.5158 32.7572 41.4466 32.8 41.3708 32.8V31.2ZM44.2 31.4C44.2 31.2895 44.2895 31.2 44.4 31.2V32.8C45.1732 32.8 45.8 32.1732 45.8 31.4H44.2ZM44.4 25.8C44.2895 25.8 44.2 25.7105 44.2 25.6H45.8C45.8 24.8268 45.1732 24.2 44.4 24.2V25.8ZM40.1186 25.0261C40.3558 25.5004 40.8405 25.8 41.3708 25.8V24.2C41.4466 24.2 41.5158 24.2428 41.5497 24.3106L40.1186 25.0261ZM39.2401 21.1285C38.814 21.5546 38.7084 22.2056 38.9779 22.7446L40.4089 22.029C40.4474 22.106 40.4324 22.199 40.3715 22.2599L39.2401 21.1285ZM41.0246 19.6121C40.9534 19.533 40.9566 19.4121 41.0318 19.3368L42.1632 20.4682C42.6897 19.9417 42.7119 19.0952 42.2138 18.5417L41.0246 19.6121ZM37.5684 15.4843C37.4859 15.5532 37.3637 15.5444 37.2917 15.4645L38.481 14.3941C37.9776 13.8348 37.1222 13.7735 36.5441 14.2552L37.5684 15.4843ZM33.8708 17.6099C34.3482 17.8009 34.8919 17.7148 35.287 17.3856L34.2627 16.1564C34.3191 16.1094 34.3968 16.0971 34.465 16.1244L33.8708 17.6099ZM6.91491 25.4537C6.31946 26.0492 6.38064 27.0318 7.04535 27.5488L8.02765 26.2858C8.12261 26.3597 8.13135 26.5 8.04628 26.5851L6.91491 25.4537ZM31.2 15.5938C31.2 16.1662 31.5485 16.681 32.0801 16.8936L32.6743 15.4081C32.7502 15.4385 32.8 15.512 32.8 15.5938H31.2ZM12.1 31.2C12.2105 31.2 12.3 31.2895 12.3 31.4H10.7C10.7 32.1732 11.3268 32.8 12.1 32.8V31.2ZM8.10467 24.4418C8.07245 24.3666 8.08925 24.2794 8.14707 24.2216L9.27844 25.3529C9.68324 24.9481 9.8008 24.3377 9.5753 23.8115L8.10467 24.4418ZM31.401 13.3C31.2888 13.3 31.2 13.2087 31.2 13.1H32.8C32.8 12.3286 32.176 11.7 31.401 11.7V13.3ZM16.3957 32.1573C16.2051 31.5856 15.6701 31.2 15.0675 31.2V32.8C14.9815 32.8 14.905 32.7449 14.8778 32.6632L16.3957 32.1573ZM7.10436 21.8C7.02436 21.8 6.95205 21.7523 6.92053 21.6788L8.39117 21.0485C8.17056 20.5338 7.6644 20.2 7.10436 20.2V21.8ZM25.5995 11.7C24.8255 11.7 24.2 12.3276 24.2 13.1H25.8C25.8 13.2096 25.7108 13.3 25.5995 13.3V11.7Z" fill="white"/>
<circle cx="28" cy="29" r="8.2" stroke="white" stroke-width="1.6"/>
<circle cx="28" cy="29" r="3.2" stroke="white" stroke-width="1.6"/>
<path fill-rule="evenodd" clip-rule="evenodd" d="M18 13C20.5463 13 22.7751 14.3596 24 16.3924L24.8483 15.8624C23.4466 13.5473 20.904 12 18 12C13.5817 12 10 15.5817 10 20C10 21.9764 10.7167 23.7854 11.9043 25.1813L12.9074 24.8027C11.7249 23.5492 11 21.8592 11 20C11 16.134 14.134 13 18 13Z" fill="white"/>
</svg>
