<svg width="49" height="49" viewBox="0 0 49 49" fill="none" xmlns="http://www.w3.org/2000/svg">
<path fill-rule="evenodd" clip-rule="evenodd" d="M41.8847 2L7.11542 2L7.11542 5.38462H41.8847V2ZM43.8847 5.38462V7.38462V10.9231V12.9231V16.4615V18.4615V22V24V42.3077L46.6539 42.3077C47.7585 42.3077 48.6539 43.2031 48.6539 44.3077V46.1538C48.6539 47.2584 47.7585 48.1538 46.6539 48.1538H2.34619C1.24162 48.1538 0.346191 47.2584 0.346191 46.1538V44.3077C0.346191 43.2031 1.24162 42.3077 2.34619 42.3077H5.11542V2C5.11542 0.895428 6.01085 0 7.11542 0H41.8847C42.9892 0 43.8847 0.895431 43.8847 2V5.38462ZM41.8847 18.4615V22H7.11542V18.4615H41.8847ZM7.11542 42.3077L7.11542 24H24.5V42.3077L7.11542 42.3077ZM26.5 42.3077H41.8847L41.8847 24H26.5V42.3077ZM41.8847 16.4615V12.9231H7.11542V16.4615H41.8847ZM41.8847 7.38462V10.9231H7.11542L7.11542 7.38462H41.8847ZM4.34619 44.3077H7.11542H41.8847H44.6539H46.6539V46.1538H44.6539H4.34619H2.34619V44.3077H4.34619Z" fill="url(#paint0_linear_21460_6310)"/>
<defs>
<linearGradient id="paint0_linear_21460_6310" x1="0.346191" y1="24.0769" x2="51.6465" y2="25.7439" gradientUnits="userSpaceOnUse">
<stop stop-color="#0091EF"/>
<stop offset="1" stop-color="#32D7D4"/>
</linearGradient>
</defs>
</svg>
