<svg width="48" height="48" viewBox="0 0 48 48" fill="none" xmlns="http://www.w3.org/2000/svg">
<path d="M34.5558 11.2021L34.0003 12.0335L34.5558 11.2021ZM41.5537 19.729L42.4776 19.3463L41.5537 19.729ZM42.6349 30.7067L41.6541 30.5116L41.6541 30.5116L42.6349 30.7067ZM37.435 40.435L36.7279 39.7279L36.7279 39.7279L37.435 40.435ZM27.7067 45.6349L27.5116 44.6541L27.7067 45.6349ZM16.729 44.5537L17.1117 43.6298L16.729 44.5537ZM8.20208 37.5558L7.37061 38.1114H7.37061L8.20208 37.5558ZM6 27C6 26.4477 5.55229 26 5 26C4.44772 26 4 26.4477 4 27L6 27ZM17.6667 8L16.9596 7.29289C16.569 7.68341 16.569 8.31658 16.9596 8.7071L17.6667 8ZM24.7071 2.37377C25.0976 1.98325 25.0976 1.35008 24.7071 0.959557C24.3166 0.569035 23.6834 0.569035 23.2929 0.959557L24.7071 2.37377ZM23.2929 15.0404C23.6834 15.431 24.3166 15.431 24.7071 15.0404C25.0976 14.6499 25.0976 14.0167 24.7071 13.6262L23.2929 15.0404ZM24 9C27.5601 9 31.0402 10.0557 34.0003 12.0335L35.1114 10.3706C31.8224 8.17297 27.9556 7 24 7L24 9ZM34.0003 12.0335C36.9603 14.0114 39.2674 16.8226 40.6298 20.1117L42.4776 19.3463C40.9638 15.6918 38.4004 12.5682 35.1114 10.3706L34.0003 12.0335ZM40.6298 20.1117C41.9922 23.4008 42.3487 27.02 41.6541 30.5116L43.6157 30.9018C44.3874 27.0222 43.9913 23.0008 42.4776 19.3463L40.6298 20.1117ZM41.6541 30.5116C40.9596 34.0033 39.2453 37.2106 36.7279 39.7279L38.1421 41.1421C40.9392 38.3451 42.844 34.7814 43.6157 30.9018L41.6541 30.5116ZM36.7279 39.7279C34.2106 42.2453 31.0033 43.9596 27.5116 44.6541L27.9018 46.6157C31.7814 45.844 35.3451 43.9392 38.1421 41.1421L36.7279 39.7279ZM27.5116 44.6541C24.02 45.3487 20.4008 44.9922 17.1117 43.6298L16.3463 45.4776C20.0009 46.9913 24.0222 47.3874 27.9018 46.6157L27.5116 44.6541ZM17.1117 43.6298C13.8226 42.2674 11.0114 39.9603 9.03355 37.0003L7.37061 38.1114C9.56823 41.4004 12.6918 43.9638 16.3463 45.4776L17.1117 43.6298ZM9.03355 37.0003C7.05568 34.0402 6 30.5601 6 27L4 27C4 30.9556 5.17298 34.8224 7.37061 38.1114L9.03355 37.0003ZM24 7L17.6667 7L17.6667 9L24 9L24 7ZM18.3738 8.7071L24.7071 2.37377L23.2929 0.959557L16.9596 7.29289L18.3738 8.7071ZM16.9596 8.7071L23.2929 15.0404L24.7071 13.6262L18.3738 7.29289L16.9596 8.7071Z" fill="white"/>
<path d="M22.8082 32.9998V31.5598H17.7362L20.6002 28.7118C21.9282 27.3838 22.6002 26.1518 22.6002 25.0158C22.6002 23.9758 22.2482 23.1438 21.5602 22.5198C20.8722 21.8958 20.0562 21.5918 19.1122 21.5918C17.5922 21.5918 16.2802 22.3438 15.5762 23.7998L16.8242 24.5358C17.3042 23.5278 18.0722 23.0318 19.1282 23.0318C20.2322 23.0318 21.1122 23.7678 21.1122 25.0318C21.1122 25.7838 20.5842 26.6958 19.5282 27.7518L15.5762 31.7838V32.9998H22.8082Z" fill="white"/>
<path d="M30.7404 29.4798V26.3118H29.2524V29.4798H25.1404L29.1564 21.7998H27.5564L23.5404 29.4798V30.8718H29.2524V32.9998H30.7404V30.8718H32.1004V29.4798H30.7404Z" fill="white"/>
</svg>
