<svg width="50" height="50" viewBox="0 0 50 50" fill="none" xmlns="http://www.w3.org/2000/svg">
<path d="M11 20.6896L11.1392 21.4774L11 20.6896ZM37.7005 21.2175C37.6854 21.659 38.0312 22.0292 38.4728 22.0442C38.9144 22.0593 39.2845 21.7135 39.2995 21.2719L37.7005 21.2175ZM16.2 14C16.2 14.4418 16.5582 14.8 17 14.8C17.4418 14.8 17.8 14.4418 17.8 14H16.2ZM26.8324 11.2822C27.2644 11.3748 27.6897 11.0996 27.7822 10.6676C27.8748 10.2356 27.5996 9.81033 27.1676 9.71776L26.8324 11.2822ZM29 10.2C28.5582 10.2 28.2 10.5582 28.2 11C28.2 11.4418 28.5582 11.8 29 11.8V10.2ZM30.86 13.48C31.1251 13.8335 31.6265 13.9051 31.98 13.64C32.3335 13.3749 32.4051 12.8735 32.14 12.52L30.86 13.48ZM35.5672 20.9393L35.5623 20.1394L35.5672 20.9393ZM38 21.146L38.1392 20.3582L38 21.146ZM37.5 32.8453L37.6091 33.6378L37.5 32.8453ZM36.5 32.9459L36.5512 33.7442H36.5512L36.5 32.9459ZM35.5673 32.9735L35.5722 32.1735H35.5722L35.5673 32.9735ZM13.4328 20.4829L13.4279 21.2829L13.4328 20.4829ZM13.4327 32.517L13.4376 33.317L13.4327 32.517ZM14.8 31.9324V21.0676H13.2V31.9324H14.8ZM13.4377 19.6829C12.6684 19.6782 11.778 19.7398 10.8608 19.9018L11.1392 21.4774C11.9536 21.3335 12.7472 21.2787 13.4279 21.2829L13.4377 19.6829ZM10.8608 19.9018C9.35373 20.168 7.7077 20.7174 6.42207 21.7533C5.10604 22.8138 4.2 24.3627 4.2 26.5H5.8C5.8 24.881 6.45934 23.7781 7.42599 22.9992C8.42305 22.1957 9.77702 21.718 11.1392 21.4774L10.8608 19.9018ZM11.7982 20.6353C11.6399 18.3099 12.0975 14.8206 13.948 11.9411C15.7654 9.11308 18.9683 6.8 24.5 6.8V5.2C18.4317 5.2 14.7179 7.78346 12.602 11.0761C10.5191 14.3173 10.0268 18.1727 10.2018 20.7439L11.7982 20.6353ZM24.5 6.8C30.0139 6.8 33.3093 9.23687 35.2409 12.2209C37.2031 15.2521 37.7796 18.892 37.7005 21.2175L39.2995 21.2719C39.3871 18.7008 38.7636 14.7184 36.5841 11.3514C34.374 7.93721 30.5861 5.2 24.5 5.2V6.8ZM4.2 26.5C4.2 28.7668 5.21843 30.3654 6.65264 31.4244C8.05234 32.458 9.82414 32.9657 11.3909 33.1813L11.6091 31.5963C10.1835 31.4001 8.70528 30.9512 7.60308 30.1373C6.53538 29.3489 5.8 28.209 5.8 26.5H4.2ZM11.3909 33.1813C11.753 33.2312 12.1077 33.2659 12.4488 33.2878L12.5512 31.6911C12.2471 31.6716 11.9311 31.6406 11.6091 31.5963L11.3909 33.1813ZM12.4488 33.2878C12.7935 33.3099 13.1252 33.3189 13.4376 33.317L13.4278 31.7171C13.1528 31.7187 12.8585 31.7108 12.5512 31.6911L12.4488 33.2878ZM11.4199 33.1848L12.4199 33.2854L12.5801 31.6935L11.5801 31.5928L11.4199 33.1848ZM11.7055 32.5828C11.8892 34.1468 12.6748 36.4381 14.4366 38.3506C16.2215 40.2881 18.9765 41.8 23 41.8V40.2C19.4235 40.2 17.0952 38.8751 15.6134 37.2665C14.1085 35.6329 13.4441 33.6689 13.2945 32.3961L11.7055 32.5828ZM23.8 41C23.8 40.1233 24.0186 39.7377 24.1907 39.5657C24.3627 39.3936 24.6233 39.3 25 39.3V37.7C24.3767 37.7 23.6373 37.8564 23.0593 38.4343C22.4814 39.0123 22.2 39.8767 22.2 41H23.8ZM25 39.3C25.3884 39.3 25.8257 39.4005 26.145 39.64C26.4256 39.8504 26.7 40.2284 26.7 41H28.3C28.3 39.7716 27.8244 38.8996 27.105 38.36C26.4243 37.8495 25.6116 37.7 25 37.7V39.3ZM26.7 41C26.7 41.8796 26.4812 42.2303 26.2919 42.3926C26.076 42.5777 25.6927 42.7 25 42.7V44.3C25.8073 44.3 26.674 44.1723 27.3331 43.6074C28.0188 43.0197 28.3 42.1204 28.3 41H26.7ZM25 42.7C24.4473 42.7 24.2185 42.5295 24.0885 42.3475C23.92 42.1117 23.8 41.6886 23.8 41H22.2C22.2 41.8114 22.33 42.6383 22.7865 43.2775C23.2815 43.9705 24.0527 44.3 25 44.3V42.7ZM17.8 14C17.8 14.1252 17.7643 14.194 17.7796 14.1553C17.7857 14.1399 17.8028 14.1017 17.8377 14.0406C17.9065 13.9198 18.0226 13.7475 18.1927 13.5434C18.5316 13.1367 19.0605 12.6329 19.7943 12.1813C21.2448 11.2887 23.5347 10.5756 26.8324 11.2822L27.1676 9.71776C23.4653 8.92441 20.7552 9.71128 18.9557 10.8187C18.0645 11.3671 17.4059 11.9883 16.9635 12.5191C16.743 12.7838 16.5701 13.0333 16.4475 13.2485C16.3866 13.3553 16.3325 13.4636 16.2912 13.5684C16.2591 13.6497 16.2 13.8123 16.2 14H17.8ZM29 11.8C28.928 11.8 29.0899 11.7948 29.4696 12.0578C29.8195 12.3 30.3014 12.7352 30.86 13.48L32.14 12.52C31.4986 11.6648 30.8971 11.1 30.3804 10.7422C29.8935 10.4052 29.4054 10.2 29 10.2V11.8ZM35.8 32.3888V21.524H34.2V32.3888H35.8ZM35.5721 21.7393C36.2528 21.7352 37.0464 21.79 37.8608 21.9338L38.1392 20.3582C37.222 20.1962 36.3316 20.1346 35.5623 20.1394L35.5721 21.7393ZM37.8608 21.9338C39.223 22.1745 40.5769 22.6522 41.574 23.4556C42.5407 24.2346 43.2 25.3375 43.2 26.9564H44.8C44.8 24.8191 43.894 23.2703 42.5779 22.2098C41.2923 21.1738 39.6463 20.6245 38.1392 20.3582L37.8608 21.9338ZM43.2 26.9564C43.2 28.6654 42.4646 29.8054 41.3969 30.5938C40.2947 31.4077 38.8165 31.8565 37.3909 32.0527L37.6091 33.6378C39.1759 33.4221 40.9477 32.9145 42.3474 31.8809C43.7816 30.8218 44.8 29.2233 44.8 26.9564H43.2ZM37.3909 32.0527C37.0689 32.0971 36.7529 32.128 36.4488 32.1475L36.5512 33.7442C36.8923 33.7224 37.247 33.6876 37.6091 33.6378L37.3909 32.0527ZM36.4488 32.1475C36.1415 32.1672 35.8472 32.1752 35.5722 32.1735L35.5624 33.7735C35.8748 33.7754 36.2065 33.7663 36.5512 33.7442L36.4488 32.1475ZM37.4199 32.0493L36.4199 32.1499L36.5801 33.7419L37.5801 33.6412L37.4199 32.0493ZM35.8 21.524C35.8 21.6201 35.7185 21.7384 35.5721 21.7393L35.5623 20.1394C34.7791 20.1441 34.2 20.791 34.2 21.524H35.8ZM34.2 32.3888C34.2 33.1219 34.7792 33.7687 35.5624 33.7735L35.5722 32.1735C35.7185 32.1744 35.8 32.2926 35.8 32.3888H34.2ZM14.8 21.0676C14.8 20.3346 14.2209 19.6877 13.4377 19.6829L13.4279 21.2829C13.2815 21.282 13.2 21.1637 13.2 21.0676H14.8ZM13.2 31.9324C13.2 31.8362 13.2815 31.718 13.4278 31.7171L13.4376 33.317C14.2208 33.3122 14.8 32.6655 14.8 31.9324H13.2Z" fill="white"/>
</svg>
