<svg width="40" height="41" viewBox="0 0 40 41" fill="none" xmlns="http://www.w3.org/2000/svg">
<path d="M16.4142 7.41977C15.6332 6.63872 14.3668 6.63872 13.5858 7.41977C12.8047 8.20082 12.8047 9.46715 13.5858 10.2482L16.4142 7.41977ZM26.6667 20.5007L28.0809 21.9149C28.8619 21.1338 28.8619 19.8675 28.0809 19.0864L26.6667 20.5007ZM13.5858 30.7531C12.8047 31.5342 12.8047 32.8005 13.5858 33.5815C14.3668 34.3626 15.6332 34.3626 16.4142 33.5815L13.5858 30.7531ZM13.5858 10.2482L25.2525 21.9149L28.0809 19.0864L16.4142 7.41977L13.5858 10.2482ZM25.2525 19.0864L13.5858 30.7531L16.4142 33.5815L28.0809 21.9149L25.2525 19.0864Z" fill="#0979FD"/>
</svg>
