<svg width="40" height="41" viewBox="0 0 40 41" fill="none" xmlns="http://www.w3.org/2000/svg">
<path d="M23.5855 33.4878C24.3665 34.2688 25.6328 34.2688 26.4139 33.4878C27.1949 32.7067 27.1949 31.4404 26.4139 30.6594L23.5855 33.4878ZM13.333 20.4069L11.9188 18.9927C11.1377 19.7737 11.1377 21.0401 11.9188 21.8211L13.333 20.4069ZM26.4139 10.1544C27.1949 9.3734 27.1949 8.10707 26.4139 7.32602C25.6328 6.54497 24.3665 6.54497 23.5855 7.32602L26.4139 10.1544ZM26.4139 30.6594L14.7472 18.9927L11.9188 21.8211L23.5855 33.4878L26.4139 30.6594ZM14.7472 21.8211L26.4139 10.1544L23.5855 7.32602L11.9188 18.9927L14.7472 21.8211Z" fill="white"/>
</svg>
