<svg width="18" height="18" viewBox="0 0 18 18" fill="none" xmlns="http://www.w3.org/2000/svg">
<path fill-rule="evenodd" clip-rule="evenodd" d="M2 8.059C2 4.71271 4.71271 2 8.059 2C11.4053 2 14.118 4.71271 14.118 8.059C14.118 9.71903 13.4504 11.2231 12.3691 12.3175C12.3602 12.3258 12.3514 12.3343 12.3427 12.3429C12.3341 12.3516 12.3256 12.3603 12.3174 12.3692C11.223 13.4505 9.71896 14.118 8.059 14.118C4.71271 14.118 2 11.4053 2 8.059ZM13.0066 14.421C11.6409 15.4845 9.92395 16.118 8.059 16.118C3.60814 16.118 0 12.5099 0 8.059C0 3.60814 3.60814 0 8.059 0C12.5099 0 16.118 3.60814 16.118 8.059C16.118 9.92408 15.4844 11.6412 14.4208 13.0068L17.7069 16.2929C18.0974 16.6835 18.0974 17.3166 17.7069 17.7072C17.3164 18.0977 16.6832 18.0977 16.2927 17.7072L13.0066 14.421Z" fill="#59637E"/>
</svg>
