<svg width="264" height="371" viewBox="0 0 264 371" fill="none" xmlns="http://www.w3.org/2000/svg">
<g filter="url(#filter0_bd_4943_11831)">
<rect x="2" y="0.126953" width="249.669" height="357.027" rx="19.9736" fill="white" fill-opacity="0.6" shape-rendering="crispEdges"/>
<circle cx="126.835" cy="129.954" r="109.855" fill="#BCAEFF"/>
<path d="M133.859 27.2053C134.118 23.4222 137.4 20.543 141.159 21.0373C167.012 24.4364 190.899 36.9405 208.452 56.4236C227.541 77.6122 237.642 105.394 236.619 133.895C235.596 162.397 223.528 189.383 202.969 209.148C184.064 227.322 159.342 238.081 133.312 239.618C129.527 239.841 126.46 236.734 126.473 232.942L126.507 223.296C126.521 219.504 129.61 216.469 133.392 216.182C153.345 214.665 172.238 206.261 186.767 192.295C202.951 176.736 212.45 155.492 213.256 133.057C214.061 110.621 206.11 88.7512 191.083 72.0718C177.593 57.0991 159.352 47.3623 139.558 44.4188C135.807 43.8611 132.943 40.6125 133.201 36.8294L133.859 27.2053Z" fill="#846AFF"/>
<g filter="url(#filter1_f_4943_11831)">
<circle cx="127.146" cy="130.271" r="85.8239" fill="white"/>
</g>
<rect x="41.3223" y="44.4473" width="171.648" height="171.648" rx="85.8239" fill="white"/>
<path d="M102.519 116.07C105.881 116.07 108.717 117.072 111.026 119.076C113.37 121.08 114.541 123.813 114.541 127.277C114.541 130.775 113.353 133.509 110.975 135.479C108.564 137.483 105.677 138.485 102.315 138.485C99.5645 138.485 97.1193 137.839 94.9797 136.549C92.8742 135.224 91.3969 133.322 90.5478 130.843L94.5722 128.551C95.0477 130.283 95.9646 131.607 97.323 132.524C98.6815 133.407 100.346 133.849 102.315 133.849C104.557 133.849 106.374 133.272 107.766 132.117C109.158 130.962 109.855 129.349 109.855 127.277C109.855 125.206 109.158 123.593 107.766 122.438C106.374 121.249 104.591 120.655 102.417 120.655H92.3308L93.6553 102.163H113.166V106.595H97.9343L97.323 116.07H102.519ZM142.161 133.441C139.749 136.803 136.37 138.485 132.023 138.485C127.642 138.485 124.263 136.803 121.886 133.441C119.475 130.045 118.269 125.562 118.269 119.993C118.269 114.423 119.475 109.94 121.886 106.544C124.263 103.182 127.642 101.501 132.023 101.501C136.37 101.501 139.749 103.182 142.161 106.544C144.572 109.94 145.777 114.423 145.777 119.993C145.777 125.562 144.572 130.045 142.161 133.441ZM123.007 119.993C123.007 124.442 123.788 127.872 125.35 130.283C126.912 132.66 129.137 133.849 132.023 133.849C134.91 133.849 137.134 132.66 138.697 130.283C140.293 127.872 141.091 124.442 141.091 119.993C141.091 115.544 140.293 112.114 138.697 109.703C137.134 107.291 134.91 106.086 132.023 106.086C129.137 106.086 126.912 107.291 125.35 109.703C123.788 112.08 123.007 115.51 123.007 119.993ZM157.919 117.293C155.61 117.293 153.691 116.529 152.163 115.001C150.635 113.472 149.871 111.604 149.871 109.397C149.871 107.223 150.635 105.373 152.163 103.844C153.725 102.282 155.644 101.501 157.919 101.501C160.229 101.501 162.148 102.265 163.676 103.793C165.204 105.322 165.968 107.19 165.968 109.397C165.968 111.604 165.204 113.472 163.676 115.001C162.182 116.529 160.263 117.293 157.919 117.293ZM153.844 109.397C153.844 110.586 154.218 111.587 154.965 112.403C155.746 113.184 156.731 113.574 157.919 113.574C159.108 113.574 160.076 113.167 160.823 112.352C161.604 111.537 161.995 110.552 161.995 109.397C161.995 108.242 161.604 107.274 160.823 106.493C160.076 105.678 159.108 105.271 157.919 105.271C156.731 105.271 155.746 105.678 154.965 106.493C154.218 107.274 153.844 108.242 153.844 109.397ZM152.265 132.779L175.953 106.29L178.449 107.665L154.71 134.205L152.265 132.779ZM179.06 136.141C177.532 137.669 175.613 138.434 173.304 138.434C170.994 138.434 169.076 137.669 167.547 136.141C166.019 134.613 165.255 132.745 165.255 130.538C165.255 128.33 166.019 126.462 167.547 124.934C169.076 123.406 170.994 122.642 173.304 122.642C175.613 122.642 177.532 123.406 179.06 124.934C180.588 126.462 181.352 128.33 181.352 130.538C181.352 132.745 180.588 134.613 179.06 136.141ZM170.349 133.492C171.13 134.273 172.115 134.664 173.304 134.664C174.458 134.664 175.426 134.273 176.207 133.492C176.615 133.085 176.904 132.626 177.073 132.117C177.277 131.607 177.379 131.081 177.379 130.538C177.379 129.994 177.277 129.485 177.073 129.009C176.904 128.5 176.615 128.042 176.207 127.634C175.426 126.819 174.458 126.411 173.304 126.411C172.081 126.411 171.096 126.819 170.349 127.634C169.976 128.042 169.687 128.5 169.483 129.009C169.313 129.485 169.228 129.994 169.228 130.538C169.228 131.081 169.313 131.607 169.483 132.117C169.687 132.626 169.976 133.085 170.349 133.492Z" fill="#6A4CEE"/>
<path d="M97.9599 152.114C98.5134 152.379 98.9516 152.759 99.2745 153.255C99.6089 153.74 99.7761 154.31 99.7761 154.968C99.7761 155.936 99.4359 156.749 98.7555 157.407C98.0752 158.064 97.2449 158.393 96.2647 158.393H91.0408V146.284H95.8842C96.8413 146.284 97.6427 146.601 98.2885 147.236C98.9458 147.881 99.2745 148.666 99.2745 149.588C99.2745 150.672 98.8363 151.514 97.9599 152.114ZM92.6495 147.789V151.491H95.8842C96.1379 151.491 96.3743 151.445 96.5934 151.352C96.8125 151.249 97.0027 151.116 97.1642 150.955C97.3256 150.793 97.4525 150.603 97.5447 150.384C97.637 150.153 97.6831 149.905 97.6831 149.64C97.6831 149.133 97.5044 148.7 97.1469 148.343C96.8009 147.974 96.38 147.789 95.8842 147.789H92.6495ZM96.2647 156.888C96.5415 156.888 96.7952 156.836 97.0258 156.732C97.2564 156.628 97.4582 156.49 97.6312 156.317C97.8042 156.144 97.9368 155.936 98.0291 155.694C98.1328 155.452 98.1847 155.193 98.1847 154.916C98.1847 154.374 97.9945 153.913 97.6139 153.532C97.2449 153.151 96.7952 152.961 96.2647 152.961H92.6495V156.888H96.2647ZM103.032 151.197C103.528 150.124 104.427 149.588 105.731 149.588V151.162C104.992 151.128 104.358 151.324 103.828 151.75C103.297 152.177 103.032 152.863 103.032 153.809V158.393H101.527V149.744H103.032V151.197ZM107.964 148.671C107.676 148.671 107.434 148.573 107.238 148.377C107.042 148.181 106.944 147.945 106.944 147.668C106.944 147.391 107.042 147.155 107.238 146.959C107.434 146.751 107.676 146.648 107.964 146.648C108.241 146.648 108.477 146.751 108.673 146.959C108.869 147.155 108.967 147.391 108.967 147.668C108.967 147.945 108.869 148.181 108.673 148.377C108.477 148.573 108.241 148.671 107.964 148.671ZM107.203 158.393V149.744H108.708V158.393H107.203ZM118.182 149.744H119.67V158.029C119.67 159.309 119.237 160.301 118.372 161.005C117.496 161.719 116.458 162.077 115.259 162.077C114.279 162.077 113.437 161.898 112.733 161.541C112.042 161.183 111.517 160.659 111.159 159.967L112.474 159.223C112.935 160.192 113.875 160.676 115.293 160.676C116.193 160.676 116.896 160.439 117.404 159.967C117.923 159.505 118.182 158.86 118.182 158.029V156.801C117.421 157.954 116.337 158.531 114.93 158.531C113.685 158.531 112.641 158.093 111.799 157.216C110.946 156.328 110.519 155.262 110.519 154.016C110.519 152.771 110.946 151.71 111.799 150.834C112.641 149.957 113.685 149.519 114.93 149.519C116.349 149.519 117.433 150.09 118.182 151.231V149.744ZM118.182 154.016C118.182 153.151 117.888 152.425 117.3 151.837C116.712 151.249 115.98 150.955 115.103 150.955C114.227 150.955 113.495 151.249 112.906 151.837C112.318 152.425 112.024 153.151 112.024 154.016C112.024 154.893 112.318 155.625 112.906 156.213C113.495 156.801 114.227 157.095 115.103 157.095C115.98 157.095 116.712 156.801 117.3 156.213C117.888 155.625 118.182 154.893 118.182 154.016ZM126.257 149.519C126.764 149.519 127.22 149.605 127.623 149.778C128.039 149.94 128.39 150.176 128.679 150.488C128.978 150.787 129.209 151.156 129.37 151.595C129.532 152.033 129.613 152.529 129.613 153.082V158.393H128.108V153.169C128.108 152.465 127.917 151.923 127.537 151.543C127.156 151.151 126.632 150.955 125.963 150.955C125.213 150.955 124.608 151.191 124.147 151.664C123.685 152.125 123.455 152.84 123.455 153.809V158.393H121.95V146.284H123.455V150.989C124.054 150.009 124.988 149.519 126.257 149.519ZM136.418 151.197H134.118V155.884C134.118 156.219 134.164 156.473 134.256 156.646C134.36 156.807 134.504 156.922 134.689 156.991C134.885 157.061 135.127 157.095 135.415 157.095C135.703 157.084 136.038 157.066 136.418 157.043V158.393C135.104 158.566 134.141 158.462 133.53 158.081C132.919 157.689 132.613 156.957 132.613 155.884V151.197H130.9V149.744H132.613V147.772L134.118 147.322V149.744H136.418V151.197ZM142.558 149.519C143.065 149.519 143.521 149.605 143.924 149.778C144.339 149.94 144.691 150.176 144.979 150.488C145.279 150.787 145.51 151.156 145.671 151.595C145.833 152.033 145.914 152.529 145.914 153.082V158.393H144.409V153.169C144.409 152.465 144.218 151.923 143.838 151.543C143.457 151.151 142.933 150.955 142.264 150.955C141.514 150.955 140.909 151.191 140.448 151.664C139.986 152.125 139.756 152.84 139.756 153.809V158.393H138.251V149.744H139.756V150.989C140.355 150.009 141.289 149.519 142.558 149.519ZM149.07 154.76C149.219 155.533 149.571 156.132 150.125 156.559C150.678 156.986 151.37 157.199 152.2 157.199C153.342 157.199 154.172 156.778 154.691 155.936L155.971 156.663C155.118 157.966 153.849 158.617 152.166 158.617C150.805 158.617 149.686 158.191 148.81 157.337C147.957 156.461 147.53 155.371 147.53 154.068C147.53 152.754 147.951 151.67 148.793 150.816C149.635 149.951 150.724 149.519 152.062 149.519C153.331 149.519 154.363 149.969 155.158 150.868C155.966 151.745 156.369 152.817 156.369 154.085C156.369 154.316 156.352 154.541 156.317 154.76H149.07ZM152.062 150.937C151.255 150.937 150.586 151.168 150.056 151.629C149.525 152.079 149.196 152.684 149.07 153.445H154.847C154.72 152.615 154.397 151.992 153.878 151.577C153.359 151.151 152.754 150.937 152.062 150.937ZM159.058 152.079C159.058 152.413 159.22 152.684 159.543 152.892C159.877 153.088 160.287 153.249 160.771 153.376C161.105 153.445 161.457 153.538 161.826 153.653C162.195 153.768 162.535 153.924 162.847 154.12C163.158 154.316 163.412 154.57 163.608 154.881C163.804 155.181 163.902 155.562 163.902 156.023C163.902 156.807 163.596 157.435 162.985 157.908C162.374 158.381 161.601 158.617 160.667 158.617C159.825 158.617 159.105 158.439 158.505 158.081C157.905 157.712 157.479 157.216 157.225 156.594L158.522 155.85C158.661 156.265 158.92 156.594 159.301 156.836C159.681 157.078 160.137 157.199 160.667 157.199C161.163 157.199 161.572 157.107 161.895 156.922C162.218 156.726 162.38 156.426 162.38 156.023C162.38 155.688 162.212 155.423 161.878 155.227C161.555 155.02 161.151 154.858 160.667 154.743C160.321 154.651 159.964 154.547 159.595 154.431C159.226 154.316 158.886 154.166 158.574 153.982C158.274 153.786 158.026 153.538 157.83 153.238C157.634 152.938 157.536 152.558 157.536 152.096C157.536 151.347 157.825 150.73 158.401 150.245C158.989 149.761 159.722 149.519 160.598 149.519C161.301 149.519 161.924 149.68 162.466 150.003C163.02 150.315 163.435 150.753 163.712 151.318L162.449 152.027C162.137 151.289 161.52 150.92 160.598 150.92C160.171 150.92 159.808 151.024 159.508 151.231C159.208 151.427 159.058 151.71 159.058 152.079ZM166.44 152.079C166.44 152.413 166.602 152.684 166.925 152.892C167.259 153.088 167.668 153.249 168.153 153.376C168.487 153.445 168.839 153.538 169.208 153.653C169.577 153.768 169.917 153.924 170.229 154.12C170.54 154.316 170.794 154.57 170.99 154.881C171.186 155.181 171.284 155.562 171.284 156.023C171.284 156.807 170.978 157.435 170.367 157.908C169.756 158.381 168.983 158.617 168.049 158.617C167.207 158.617 166.486 158.439 165.887 158.081C165.287 157.712 164.861 157.216 164.607 156.594L165.904 155.85C166.043 156.265 166.302 156.594 166.683 156.836C167.063 157.078 167.519 157.199 168.049 157.199C168.545 157.199 168.954 157.107 169.277 156.922C169.6 156.726 169.761 156.426 169.761 156.023C169.761 155.688 169.594 155.423 169.26 155.227C168.937 155.02 168.533 154.858 168.049 154.743C167.703 154.651 167.346 154.547 166.977 154.431C166.608 154.316 166.267 154.166 165.956 153.982C165.656 153.786 165.408 153.538 165.212 153.238C165.016 152.938 164.918 152.558 164.918 152.096C164.918 151.347 165.206 150.73 165.783 150.245C166.371 149.761 167.103 149.519 167.98 149.519C168.683 149.519 169.306 149.68 169.848 150.003C170.401 150.315 170.817 150.753 171.093 151.318L169.831 152.027C169.519 151.289 168.902 150.92 167.98 150.92C167.553 150.92 167.19 151.024 166.89 151.231C166.59 151.427 166.44 151.71 166.44 152.079Z" fill="#AAAEB3"/>
<path d="M16.9805 269.147C16.9805 267.768 18.0983 266.65 19.4772 266.65H233.517C234.896 266.65 236.013 267.768 236.013 269.147C236.013 270.526 234.896 271.644 233.517 271.644H19.4772C18.0983 271.644 16.9805 270.526 16.9805 269.147Z" fill="url(#paint0_linear_4943_11831)"/>
<g filter="url(#filter2_d_4943_11831)">
<ellipse cx="126.523" cy="269.146" rx="4.52228" ry="4.36921" transform="rotate(-180 126.523 269.146)" fill="#151515"/>
<path d="M122.625 269.146C122.625 267.098 124.349 265.401 126.523 265.401C128.696 265.401 130.421 267.098 130.421 269.146C130.421 271.195 128.696 272.891 126.523 272.891C124.349 272.891 122.625 271.195 122.625 269.146Z" stroke="white" stroke-width="1.24835"/>
</g>
<path d="M17.2305 292.868C17.2305 291.627 18.2363 290.621 19.4772 290.621H233.517C234.758 290.621 235.763 291.627 235.763 292.868C235.763 294.109 234.758 295.114 233.517 295.114H19.4772C18.2363 295.114 17.2305 294.109 17.2305 292.868Z" fill="url(#paint1_linear_4943_11831)" stroke="#F2F3F5" stroke-width="0.5"/>
<rect x="16.5703" y="290.621" width="61.6777" height="4.49338" rx="2.24669" fill="white" stroke="#F2F3F5" stroke-width="0.5"/>
<g filter="url(#filter3_d_4943_11831)">
<ellipse cx="74.5226" cy="292.867" rx="4.52228" ry="4.36921" transform="rotate(-180 74.5226 292.867)" fill="#151515"/>
<path d="M70.6245 292.867C70.6245 290.819 72.3494 289.122 74.5226 289.122C76.6959 289.122 78.4207 290.819 78.4207 292.867C78.4207 294.915 76.6959 296.612 74.5226 296.612C72.3494 296.612 70.6245 294.915 70.6245 292.867Z" stroke="white" stroke-width="1.24835"/>
</g>
<rect x="16.9805" y="312.215" width="24.9669" height="24.9669" rx="1.87252" fill="#6091FF"/>
<rect x="17.2926" y="312.527" width="24.3428" height="24.3428" rx="1.56043" stroke="white" stroke-opacity="0.2" stroke-width="0.624174"/>
<rect x="49.4375" y="312.215" width="24.9669" height="24.9669" rx="1.87252" fill="#69FEFF"/>
<rect x="49.7496" y="312.527" width="24.3428" height="24.3428" rx="1.56043" stroke="white" stroke-opacity="0.2" stroke-width="0.624174"/>
<rect x="81.8945" y="312.215" width="24.9669" height="24.9669" rx="1.87252" fill="#7FFF6F"/>
<rect x="82.2066" y="312.527" width="24.3428" height="24.3428" rx="1.56043" stroke="white" stroke-opacity="0.2" stroke-width="0.624174"/>
<rect x="114.352" y="312.215" width="24.9669" height="24.9669" rx="1.87252" fill="#BF4B26"/>
<rect x="114.664" y="312.527" width="24.3428" height="24.3428" rx="1.56043" stroke="white" stroke-opacity="0.2" stroke-width="0.624174"/>
<rect x="146.809" y="312.215" width="24.9669" height="24.9669" rx="1.87252" fill="#F43135"/>
<rect x="147.121" y="312.527" width="24.3428" height="24.3428" rx="1.56043" stroke="white" stroke-opacity="0.2" stroke-width="0.624174"/>
<rect x="179.266" y="312.215" width="24.9669" height="24.9669" rx="1.87252" fill="#C73760"/>
<rect x="179.578" y="312.527" width="24.3428" height="24.3428" rx="1.56043" stroke="white" stroke-opacity="0.2" stroke-width="0.624174"/>
<rect x="212.347" y="312.839" width="23.7186" height="23.7186" rx="1.24835" fill="#6240FF" stroke="url(#paint2_linear_4943_11831)" stroke-width="1.24835"/>
<rect x="3" y="1.12695" width="247.669" height="355.027" rx="18.9736" stroke="url(#paint3_linear_4943_11831)" stroke-width="2" shape-rendering="crispEdges"/>
</g>
<defs>
<filter id="filter0_bd_4943_11831" x="-21" y="-22.873" width="295.67" height="403.027" filterUnits="userSpaceOnUse" color-interpolation-filters="sRGB">
<feFlood flood-opacity="0" result="BackgroundImageFix"/>
<feGaussianBlur in="BackgroundImage" stdDeviation="11.5"/>
<feComposite in2="SourceAlpha" operator="in" result="effect1_backgroundBlur_4943_11831"/>
<feColorMatrix in="SourceAlpha" type="matrix" values="0 0 0 0 0 0 0 0 0 0 0 0 0 0 0 0 0 0 127 0" result="hardAlpha"/>
<feOffset dx="4.99339" dy="6.86591"/>
<feGaussianBlur stdDeviation="3.43295"/>
<feComposite in2="hardAlpha" operator="out"/>
<feColorMatrix type="matrix" values="0 0 0 0 0 0 0 0 0 0 0 0 0 0 0 0 0 0 0.05 0"/>
<feBlend mode="normal" in2="effect1_backgroundBlur_4943_11831" result="effect2_dropShadow_4943_11831"/>
<feBlend mode="normal" in="SourceGraphic" in2="effect2_dropShadow_4943_11831" result="shape"/>
</filter>
<filter id="filter1_f_4943_11831" x="31.3223" y="34.4473" width="191.648" height="191.648" filterUnits="userSpaceOnUse" color-interpolation-filters="sRGB">
<feFlood flood-opacity="0" result="BackgroundImageFix"/>
<feBlend mode="normal" in="SourceGraphic" in2="BackgroundImageFix" result="shape"/>
<feGaussianBlur stdDeviation="5" result="effect1_foregroundBlur_4943_11831"/>
</filter>
<filter id="filter2_d_4943_11831" x="120.752" y="264.153" width="11.5416" height="11.235" filterUnits="userSpaceOnUse" color-interpolation-filters="sRGB">
<feFlood flood-opacity="0" result="BackgroundImageFix"/>
<feColorMatrix in="SourceAlpha" type="matrix" values="0 0 0 0 0 0 0 0 0 0 0 0 0 0 0 0 0 0 127 0" result="hardAlpha"/>
<feOffset dy="0.624174"/>
<feGaussianBlur stdDeviation="0.624174"/>
<feColorMatrix type="matrix" values="0 0 0 0 0 0 0 0 0 0 0 0 0 0 0 0 0 0 0.15 0"/>
<feBlend mode="normal" in2="BackgroundImageFix" result="effect1_dropShadow_4943_11831"/>
<feBlend mode="normal" in="SourceGraphic" in2="effect1_dropShadow_4943_11831" result="shape"/>
</filter>
<filter id="filter3_d_4943_11831" x="68.7517" y="287.874" width="11.5416" height="11.235" filterUnits="userSpaceOnUse" color-interpolation-filters="sRGB">
<feFlood flood-opacity="0" result="BackgroundImageFix"/>
<feColorMatrix in="SourceAlpha" type="matrix" values="0 0 0 0 0 0 0 0 0 0 0 0 0 0 0 0 0 0 127 0" result="hardAlpha"/>
<feOffset dy="0.624174"/>
<feGaussianBlur stdDeviation="0.624174"/>
<feColorMatrix type="matrix" values="0 0 0 0 0 0 0 0 0 0 0 0 0 0 0 0 0 0 0.15 0"/>
<feBlend mode="normal" in2="BackgroundImageFix" result="effect1_dropShadow_4943_11831"/>
<feBlend mode="normal" in="SourceGraphic" in2="effect1_dropShadow_4943_11831" result="shape"/>
</filter>
<linearGradient id="paint0_linear_4943_11831" x1="236.065" y1="269.147" x2="16.9805" y2="269.147" gradientUnits="userSpaceOnUse">
<stop stop-color="#5F3CFF"/>
<stop offset="1" stop-color="#FEFEFE"/>
</linearGradient>
<linearGradient id="paint1_linear_4943_11831" x1="236" y1="293" x2="15" y2="293" gradientUnits="userSpaceOnUse">
<stop stop-color="#2F2F36"/>
<stop offset="1" stop-color="#2F2F36" stop-opacity="0"/>
</linearGradient>
<linearGradient id="paint2_linear_4943_11831" x1="211.723" y1="337.182" x2="236.69" y2="337.182" gradientUnits="userSpaceOnUse">
<stop stop-color="#5A20FF"/>
<stop offset="1" stop-color="#00E0C5"/>
</linearGradient>
<linearGradient id="paint3_linear_4943_11831" x1="2" y1="0.126953" x2="257.194" y2="341.825" gradientUnits="userSpaceOnUse">
<stop stop-color="white"/>
<stop offset="1" stop-color="white" stop-opacity="0"/>
</linearGradient>
</defs>
</svg>
