<svg width="154" height="141" viewBox="0 0 154 141" fill="none" xmlns="http://www.w3.org/2000/svg">
<g filter="url(#filter0_bd_4943_11811)">
<rect x="8.83398" y="3.62305" width="125.306" height="112.038" rx="22.1128" fill="white" fill-opacity="0.6" shape-rendering="crispEdges"/>
<g filter="url(#filter1_dd_4943_11811)">
<path d="M43.8457 44.715C43.8457 35.4268 43.8457 30.7827 45.6533 27.235C47.2433 24.1144 49.7805 21.5773 52.901 19.9873C56.4487 18.1797 61.0928 18.1797 70.381 18.1797H72.5923C81.8806 18.1797 86.5247 18.1797 90.0723 19.9873C93.1929 21.5773 95.73 24.1144 97.3201 27.235C99.1277 30.7827 99.1277 35.4268 99.1277 44.715V46.9263C99.1277 56.2146 99.1277 60.8587 97.3201 64.4063C95.73 67.5269 93.1929 70.064 90.0723 71.654C86.5247 73.4617 81.8806 73.4617 72.5923 73.4617H70.381C61.0928 73.4617 56.4487 73.4617 52.901 71.654C49.7805 70.064 47.2433 67.5269 45.6533 64.4063C43.8457 60.8587 43.8457 56.2146 43.8457 46.9263V44.715Z" fill="url(#paint0_linear_4943_11811)"/>
<path d="M82.014 65.3536H60.9626C58.5702 65.3485 56.2774 64.3951 54.5868 62.7024C52.8961 61.0097 51.9455 58.7157 51.9434 56.3233V42.8483C51.9434 40.3828 53.4774 37.2566 55.4344 35.7363L65.2304 28.0991C68.1686 25.8104 72.8814 25.6971 75.9413 27.8531L87.1801 35.7253C89.3388 37.2317 91.0305 40.4768 91.0305 43.1137V56.3482C91.0253 58.7369 90.0734 61.0262 88.3833 62.7143C86.6931 64.4023 84.4027 65.3514 82.014 65.3536ZM66.9054 30.2496L57.1122 37.8868C55.8131 38.8985 54.6743 41.2037 54.6743 42.8622V56.3233C54.6736 57.9938 55.3355 59.5964 56.5149 60.7795C57.6943 61.9625 59.2949 62.6294 60.9654 62.6338H82.0167C83.6846 62.6316 85.2835 61.9681 86.4628 60.7887C87.6421 59.6094 88.3056 58.0105 88.3078 56.3427V43.1026C88.3078 41.353 87.0502 38.9565 85.6184 37.9504L74.3768 30.0644C72.3148 28.616 68.89 28.6962 66.9137 30.2413L66.9054 30.2496ZM74.2137 39.009H68.7601C66.954 39.0112 65.2223 39.7293 63.9447 41.0059C62.667 42.2825 61.9475 44.0136 61.9439 45.8198V51.2733C61.9461 53.0807 62.6648 54.8134 63.9426 56.0917C65.2203 57.37 66.9528 58.0894 68.7601 58.0924H74.2137C76.0215 58.0902 77.7547 57.371 79.0331 56.0927C80.3114 54.8143 81.0305 53.0812 81.0327 51.2733V45.8198C81.0283 44.0136 80.3081 42.2828 79.03 41.0067C77.7518 39.7306 76.0199 39.0132 74.2137 39.0118V39.009ZM78.3046 45.8198V47.2018H72.851V41.7372H74.2137C75.2968 41.7386 76.3352 42.169 77.1018 42.934C77.8685 43.6991 78.3009 44.7367 78.3046 45.8198ZM68.7601 41.7372H70.1256V47.2018H64.6693V45.8198C64.6729 44.7367 65.1054 43.6991 65.872 42.934C66.6386 42.169 67.677 41.7386 68.7601 41.7372ZM64.6693 51.2816V49.9189H70.1256V55.3725H68.7601C67.6756 55.371 66.6359 54.9395 65.8691 54.1727C65.1022 53.4058 64.6707 52.3661 64.6693 51.2816ZM74.2137 55.3725H72.851V49.9189H78.3046V51.2816C78.3031 52.3661 77.8716 53.4058 77.1048 54.1727C76.3379 54.9395 75.2982 55.371 74.2137 55.3725Z" fill="white"/>
</g>
<path d="M57.4567 83.381H58.9825V94.9902H57.4567V89.7661H51.818V94.9902H50.2756V83.381H51.818V88.3066H57.4567V83.381ZM68.3164 93.9454C67.4761 94.7857 66.4424 95.2058 65.2151 95.2058C63.9878 95.2058 62.9541 94.7857 62.1138 93.9454C61.2735 93.1051 60.8533 92.0713 60.8533 90.8441C60.8533 89.6168 61.2735 88.5831 62.1138 87.7428C62.9541 86.9025 63.9878 86.4823 65.2151 86.4823C66.4424 86.4823 67.4761 86.9025 68.3164 87.7428C69.1678 88.5941 69.5934 89.6279 69.5934 90.8441C69.5934 92.0603 69.1678 93.0941 68.3164 93.9454ZM65.2151 93.7961C66.0443 93.7961 66.7409 93.5142 67.3048 92.9503C67.8686 92.3865 68.1506 91.6844 68.1506 90.8441C68.1506 90.0038 67.8686 89.3017 67.3048 88.7378C66.7409 88.174 66.0443 87.892 65.2151 87.892C64.3969 87.892 63.7059 88.174 63.142 88.7378C62.5781 89.3017 62.2962 90.0038 62.2962 90.8441C62.2962 91.6844 62.5781 92.3865 63.142 92.9503C63.7059 93.5142 64.3969 93.7961 65.2151 93.7961ZM80.2501 86.4823C80.7144 86.4823 81.1346 86.5597 81.5105 86.7145C81.8975 86.8693 82.2292 87.096 82.5056 87.3945C82.782 87.682 82.992 88.0358 83.1358 88.4559C83.2906 88.865 83.368 89.3238 83.368 89.8324V94.9902H81.9251V89.8822C81.9251 89.2409 81.7593 88.7434 81.4276 88.3896C81.1069 88.0358 80.6647 87.8589 80.1008 87.8589C79.4706 87.8589 78.973 88.0634 78.6082 88.4725C78.2433 88.8816 78.0609 89.5173 78.0609 90.3797V94.9902H76.618V89.8822C76.618 89.2409 76.4577 88.7434 76.1371 88.3896C75.8275 88.0358 75.4018 87.8589 74.8601 87.8589C74.252 87.8589 73.7434 88.0689 73.3343 88.4891C72.9363 88.9092 72.7372 89.5394 72.7372 90.3797V94.9902H71.2944V86.6979H72.7372V87.8091C73.3011 86.9246 74.1248 86.4823 75.2083 86.4823C76.325 86.4823 77.1377 86.9522 77.6463 87.892C78.2212 86.9522 79.0891 86.4823 80.2501 86.4823ZM86.3803 91.5075C86.524 92.2482 86.8612 92.8232 87.3919 93.2323C87.9226 93.6414 88.586 93.8459 89.3821 93.8459C90.4767 93.8459 91.2727 93.4423 91.7703 92.6352L92.9975 93.3318C92.1793 94.5811 90.9631 95.2058 89.3489 95.2058C88.0443 95.2058 86.9718 94.7967 86.1315 93.9786C85.3133 93.1383 84.9042 92.0935 84.9042 90.8441C84.9042 89.5837 85.3078 88.5444 86.1149 87.7262C86.922 86.897 87.9669 86.4823 89.2494 86.4823C90.4656 86.4823 91.4552 86.9135 92.218 87.7759C92.992 88.6162 93.379 89.6445 93.379 90.8607C93.379 91.0818 93.3624 91.2974 93.3292 91.5075H86.3803ZM89.2494 87.8423C88.4755 87.8423 87.8342 88.0634 87.3256 88.5057C86.817 88.9369 86.5019 89.5173 86.3803 90.247H91.9195C91.7979 89.451 91.4883 88.8539 90.9908 88.4559C90.4932 88.0468 89.9128 87.8423 89.2494 87.8423Z" fill="#4897E0"/>
<rect x="9.83398" y="4.62305" width="123.306" height="110.038" rx="21.1128" stroke="url(#paint1_linear_4943_11811)" stroke-width="2" shape-rendering="crispEdges"/>
</g>
<defs>
<filter id="filter0_bd_4943_11811" x="-14.166" y="-19.377" width="171.307" height="159.916" filterUnits="userSpaceOnUse" color-interpolation-filters="sRGB">
<feFlood flood-opacity="0" result="BackgroundImageFix"/>
<feGaussianBlur in="BackgroundImage" stdDeviation="11.5"/>
<feComposite in2="SourceAlpha" operator="in" result="effect1_backgroundBlur_4943_11811"/>
<feColorMatrix in="SourceAlpha" type="matrix" values="0 0 0 0 0 0 0 0 0 0 0 0 0 0 0 0 0 0 127 0" result="hardAlpha"/>
<feOffset dx="5.5282" dy="11.0564"/>
<feGaussianBlur stdDeviation="6.91024"/>
<feComposite in2="hardAlpha" operator="out"/>
<feColorMatrix type="matrix" values="0 0 0 0 0 0 0 0 0 0 0 0 0 0 0 0 0 0 0.05 0"/>
<feBlend mode="normal" in2="effect1_backgroundBlur_4943_11811" result="effect2_dropShadow_4943_11811"/>
<feBlend mode="normal" in="SourceGraphic" in2="effect2_dropShadow_4943_11811" result="shape"/>
</filter>
<filter id="filter1_dd_4943_11811" x="33.8457" y="16.1797" width="75.2812" height="75.2812" filterUnits="userSpaceOnUse" color-interpolation-filters="sRGB">
<feFlood flood-opacity="0" result="BackgroundImageFix"/>
<feColorMatrix in="SourceAlpha" type="matrix" values="0 0 0 0 0 0 0 0 0 0 0 0 0 0 0 0 0 0 127 0" result="hardAlpha"/>
<feMorphology radius="6" operator="erode" in="SourceAlpha" result="effect1_dropShadow_4943_11811"/>
<feOffset dy="8"/>
<feGaussianBlur stdDeviation="8"/>
<feColorMatrix type="matrix" values="0 0 0 0 0.0941176 0 0 0 0 0.152941 0 0 0 0 0.294118 0 0 0 0.08 0"/>
<feBlend mode="normal" in2="BackgroundImageFix" result="effect1_dropShadow_4943_11811"/>
<feColorMatrix in="SourceAlpha" type="matrix" values="0 0 0 0 0 0 0 0 0 0 0 0 0 0 0 0 0 0 127 0" result="hardAlpha"/>
<feMorphology radius="6" operator="erode" in="SourceAlpha" result="effect2_dropShadow_4943_11811"/>
<feOffset dy="6"/>
<feGaussianBlur stdDeviation="4"/>
<feColorMatrix type="matrix" values="0 0 0 0 0.0941176 0 0 0 0 0.152941 0 0 0 0 0.294118 0 0 0 0.12 0"/>
<feBlend mode="normal" in2="effect1_dropShadow_4943_11811" result="effect2_dropShadow_4943_11811"/>
<feBlend mode="normal" in="SourceGraphic" in2="effect2_dropShadow_4943_11811" result="shape"/>
</filter>
<linearGradient id="paint0_linear_4943_11811" x1="102.723" y1="45.8207" x2="43.9324" y2="48.0779" gradientUnits="userSpaceOnUse">
<stop stop-color="#EC9F05"/>
<stop offset="1" stop-color="#FF4E00"/>
</linearGradient>
<linearGradient id="paint1_linear_4943_11811" x1="8.83398" y1="3.62305" x2="129.618" y2="115.669" gradientUnits="userSpaceOnUse">
<stop stop-color="white"/>
<stop offset="1" stop-color="white" stop-opacity="0"/>
</linearGradient>
</defs>
</svg>
