<svg width="191" height="174" viewBox="0 0 191 174" fill="none" xmlns="http://www.w3.org/2000/svg">
<g filter="url(#filter0_bd_4943_11814)">
<rect x="5.57031" y="4.5" width="160.165" height="143.334" rx="17.3739" fill="url(#paint0_linear_4943_11814)" fill-opacity="0.6" shape-rendering="crispEdges"/>
<rect x="22.9453" y="21.875" width="43.4347" height="43.4347" rx="17.3739" fill="white"/>
<path d="M51.278 55.8656H38.046C36.5432 55.8624 35.1028 55.2638 34.0403 54.201C32.9778 53.1381 32.3797 51.6976 32.377 50.1947V41.718C32.377 40.1683 33.3412 38.2033 34.5713 37.2477L40.7303 32.4473C42.5771 31.0105 45.5307 30.9375 47.4627 32.2858L54.5251 37.2338C55.882 38.1807 56.9471 40.2204 56.9471 41.8779V50.1947C56.9457 51.698 56.348 53.1393 55.2852 54.2025C54.2224 55.2656 52.7812 55.8637 51.278 55.8656ZM41.7814 33.8008L35.6276 38.5994C34.811 39.2353 34.0952 40.6843 34.0952 41.718V50.1947C34.0952 51.2444 34.5115 52.2513 35.2528 52.9945C35.9941 53.7378 36.9998 54.1567 38.0495 54.1595H51.2814C52.331 54.1572 53.3366 53.7383 54.0775 52.9948C54.8183 52.2514 55.2336 51.2443 55.2323 50.1947V41.8779C55.2323 40.7798 54.4417 39.2718 53.5418 38.6394L46.4776 33.6896C45.1815 32.7809 43.0289 32.8313 41.7866 33.8008H41.7814ZM38.4995 47.1005C38.5004 48.2397 38.9534 49.332 39.7589 50.1376C40.5645 50.9431 41.6568 51.3961 42.7961 51.397H48.3105C48.4219 51.397 48.5321 51.3751 48.635 51.3325C48.7378 51.2899 48.8313 51.2274 48.91 51.1487C48.9888 51.07 49.0512 50.9765 49.0938 50.8736C49.1364 50.7708 49.1584 50.6605 49.1584 50.5492C49.1584 50.4378 49.1364 50.3276 49.0938 50.2247C49.0512 50.1218 48.9888 50.0284 48.91 49.9497C48.8313 49.8709 48.7378 49.8085 48.635 49.7659C48.5321 49.7233 48.4219 49.7013 48.3105 49.7013H42.7961C42.4407 49.7238 42.0844 49.6733 41.7493 49.5527C41.4142 49.4322 41.1074 49.2443 40.8477 49.0006C40.5881 48.7569 40.3811 48.4625 40.2397 48.1357C40.0982 47.8089 40.0252 47.4566 40.0252 47.1005C40.0252 46.7443 40.0982 46.392 40.2397 46.0652C40.3811 45.7384 40.5881 45.4441 40.8477 45.2003C41.1074 44.9566 41.4142 44.7687 41.7493 44.6482C42.0844 44.5276 42.4407 44.4771 42.7961 44.4996H48.4721L48.1958 44.7776C48.1145 44.8557 48.0497 44.9493 48.005 45.0528C47.9603 45.1563 47.9367 45.2677 47.9355 45.3805C47.9344 45.4932 47.9558 45.6051 47.9984 45.7094C48.0411 45.8138 48.1041 45.9087 48.1838 45.9884C48.2636 46.0681 48.3584 46.1312 48.4628 46.1738C48.5672 46.2164 48.679 46.2378 48.7918 46.2367C48.9045 46.2356 49.0159 46.212 49.1194 46.1673C49.2229 46.1226 49.3165 46.0577 49.3946 45.9764L51.1598 44.2112C51.3189 44.0519 51.4082 43.836 51.4082 43.6109C51.4082 43.3858 51.3189 43.1699 51.1598 43.0107L49.3946 41.2455C49.3165 41.1642 49.2229 41.0993 49.1194 41.0546C49.0159 41.0099 48.9045 40.9863 48.7918 40.9852C48.679 40.984 48.5672 41.0054 48.4628 41.048C48.3584 41.0907 48.2636 41.1537 48.1838 41.2334C48.1041 41.3132 48.0411 41.408 47.9984 41.5124C47.9558 41.6168 47.9344 41.7286 47.9355 41.8414C47.9367 41.9541 47.9603 42.0655 48.005 42.169C48.0497 42.2726 48.1145 42.3661 48.1958 42.4443L48.5555 42.8039H42.7961C41.657 42.8053 40.5649 43.2584 39.7595 44.0639C38.954 44.8693 38.5009 45.9614 38.4995 47.1005Z" fill="#1A7DD8"/>
<path fill-rule="evenodd" clip-rule="evenodd" d="M146.048 27.3935L145.597 26.6116C145.414 26.294 145.113 26.0619 144.759 25.9662C144.405 25.8706 144.027 25.9191 143.709 26.1013C143.553 26.1934 143.38 26.2538 143.201 26.2789C143.021 26.3041 142.838 26.2936 142.663 26.248C142.487 26.2024 142.322 26.1226 142.178 26.0132C142.033 25.9038 141.911 25.767 141.82 25.6105C141.701 25.4098 141.637 25.1813 141.635 24.9481C141.641 24.7629 141.609 24.5784 141.541 24.4057C141.474 24.233 141.373 24.0756 141.244 23.9428C141.114 23.8099 140.96 23.7043 140.789 23.6323C140.618 23.5603 140.435 23.5233 140.25 23.5234H139.342C139.16 23.5235 138.981 23.5595 138.813 23.6292C138.646 23.6989 138.493 23.801 138.365 23.9297C138.237 24.0584 138.136 24.2111 138.067 24.379C137.998 24.5469 137.963 24.7268 137.964 24.9083C137.959 25.2722 137.811 25.6194 137.552 25.8749C137.293 26.1304 136.943 26.2736 136.579 26.2736C136.346 26.2711 136.117 26.2069 135.916 26.0875C135.598 25.9054 135.221 25.8568 134.867 25.9525C134.513 26.0481 134.211 26.2802 134.028 26.5979L133.544 27.3935C133.361 27.7108 133.312 28.0876 133.406 28.4415C133.501 28.7953 133.731 29.0973 134.048 29.2814C134.259 29.4029 134.433 29.5778 134.555 29.7883C134.677 29.9989 134.741 30.2378 134.741 30.4809C134.741 30.7241 134.677 30.963 134.555 31.1736C134.433 31.3841 134.259 31.5589 134.048 31.6805C133.732 31.8634 133.501 32.1643 133.406 32.5173C133.312 32.8702 133.361 33.2462 133.544 33.5626L134.002 34.351C134.09 34.5105 134.209 34.6511 134.352 34.7645C134.495 34.8779 134.659 34.9619 134.834 35.0117C135.01 35.0616 135.194 35.0763 135.375 35.0549C135.556 35.0336 135.731 34.9766 135.89 34.8874C136.047 34.7961 136.22 34.7367 136.399 34.7126C136.579 34.6885 136.761 34.7003 136.936 34.7471C137.111 34.794 137.275 34.875 137.419 34.9855C137.562 35.0961 137.682 35.234 137.772 35.3912C137.891 35.5918 137.955 35.8205 137.957 36.0536C137.957 36.8188 138.577 37.4385 139.342 37.4385H140.25C141.012 37.4385 141.631 36.8231 141.635 36.0601C141.634 35.878 141.67 35.6976 141.739 35.5292C141.808 35.3607 141.91 35.2077 142.039 35.079C142.168 34.9502 142.321 34.8482 142.489 34.7789C142.657 34.7097 142.838 34.6744 143.02 34.6753C143.252 34.6818 143.48 34.7455 143.682 34.8606C144 35.0436 144.377 35.0934 144.731 34.9991C145.085 34.9048 145.387 34.6741 145.571 34.3575L146.048 33.5619C146.139 33.405 146.199 33.2315 146.223 33.0516C146.247 32.8716 146.235 32.6887 146.189 32.5132C146.142 32.3378 146.061 32.1733 145.95 32.0293C145.84 31.8853 145.702 31.7645 145.544 31.674C145.387 31.5834 145.249 31.4626 145.138 31.3184C145.027 31.1743 144.946 31.0097 144.899 30.8341C144.852 30.6585 144.841 30.4753 144.865 30.2952C144.889 30.1151 144.949 29.9415 145.04 29.7845C145.161 29.5753 145.334 29.4016 145.544 29.2814C145.859 29.0973 146.089 28.7964 146.183 28.4439C146.278 28.0915 146.229 27.7161 146.048 27.3993V27.3935V27.3935Z" stroke="white" stroke-width="1.08587" stroke-linecap="round" stroke-linejoin="round"/>
<path d="M139.801 32.3907C140.855 32.3907 141.709 31.5363 141.709 30.4824C141.709 29.4286 140.855 28.5742 139.801 28.5742C138.747 28.5742 137.893 29.4286 137.893 30.4824C137.893 31.5363 138.747 32.3907 139.801 32.3907Z" stroke="white" stroke-width="1.08587" stroke-linecap="round" stroke-linejoin="round"/>
<path d="M24.9292 90.3916H27.5385V91.6816H23.5805V84.8407H24.9292V90.3916ZM29.3113 89.7564C29.4742 90.3688 29.9335 90.675 30.6893 90.675C31.1714 90.675 31.5362 90.5122 31.7838 90.1864L32.8002 90.7728C32.3181 91.4699 31.6079 91.8185 30.6697 91.8185C29.8618 91.8185 29.2136 91.5741 28.7249 91.0855C28.2363 90.5969 27.992 89.9812 27.992 89.2384C27.992 88.5087 28.233 87.8963 28.7152 87.4012C29.1908 86.906 29.8097 86.6584 30.572 86.6584C31.2952 86.6584 31.8848 86.906 32.3409 87.4012C32.81 87.9028 33.0445 88.5153 33.0445 89.2384C33.0445 89.3231 33.038 89.4078 33.025 89.4925C33.0184 89.5772 33.0087 89.6652 32.9956 89.7564H29.3113ZM31.7838 88.7791C31.7121 88.4468 31.5656 88.1993 31.344 88.0364C31.1225 87.8735 30.8652 87.7921 30.572 87.7921C30.2332 87.7921 29.953 87.88 29.7315 88.0559C29.51 88.2253 29.3634 88.4664 29.2918 88.7791H31.7838ZM37.6001 86.7952H38.8608V91.6816H37.6001V91.105C37.2222 91.5807 36.6912 91.8185 36.0071 91.8185C35.3556 91.8185 34.7953 91.5709 34.3262 91.0757C33.8636 90.5741 33.6323 89.9616 33.6323 89.2384C33.6323 88.5218 33.8636 87.9126 34.3262 87.4109C34.7953 86.9093 35.3556 86.6584 36.0071 86.6584C36.6912 86.6584 37.2222 86.8962 37.6001 87.3718V86.7952ZM35.2742 90.2353C35.5282 90.4894 35.8507 90.6164 36.2417 90.6164C36.6326 90.6164 36.9551 90.4894 37.2092 90.2353C37.4698 89.9747 37.6001 89.6424 37.6001 89.2384C37.6001 88.8345 37.4698 88.5055 37.2092 88.2514C36.9551 87.9908 36.6326 87.8605 36.2417 87.8605C35.8507 87.8605 35.5282 87.9908 35.2742 88.2514C35.0201 88.5055 34.893 88.8345 34.893 89.2384C34.893 89.6424 35.0201 89.9747 35.2742 90.2353ZM43.2192 86.7952H44.6069L42.7501 91.6816H41.3135L39.4567 86.7952H40.8444L42.0269 90.2157L43.2192 86.7952ZM45.8403 86.3652C45.7361 86.3652 45.6351 86.3457 45.5373 86.3066C45.4461 86.2675 45.3647 86.2154 45.293 86.1502C45.2279 86.0786 45.1725 85.9971 45.1269 85.9059C45.0878 85.8147 45.0683 85.717 45.0683 85.6127C45.0683 85.5085 45.0878 85.4108 45.1269 85.3195C45.1725 85.2283 45.2279 85.1502 45.293 85.085C45.3647 85.0133 45.4461 84.958 45.5373 84.9189C45.6351 84.8733 45.7361 84.8505 45.8403 84.8505C46.0553 84.8505 46.2377 84.9254 46.3876 85.0752C46.5439 85.2251 46.6221 85.4042 46.6221 85.6127C46.6221 85.8212 46.5439 86.0004 46.3876 86.1502C46.2377 86.2936 46.0553 86.3652 45.8403 86.3652ZM45.2148 91.6816V86.7952H46.4755V91.6816H45.2148ZM50.3462 86.6584C50.887 86.6584 51.3268 86.8376 51.6656 87.1959C52.0174 87.5608 52.1933 88.0559 52.1933 88.6814V91.6816H50.9326V88.8378C50.9326 88.5055 50.8447 88.2546 50.6688 88.0853C50.4928 87.9159 50.2583 87.8312 49.9651 87.8312C49.6328 87.8312 49.369 87.9321 49.1735 88.1341C48.9846 88.3296 48.8901 88.6325 48.8901 89.043V91.6816H47.6294V86.7952H48.8901V87.3425C49.1898 86.8865 49.6752 86.6584 50.3462 86.6584ZM57.0127 86.7952H58.2441V91.4471C58.2441 92.1963 57.9933 92.7729 57.4916 93.1769C56.9965 93.5743 56.3971 93.773 55.6934 93.773C55.1657 93.773 54.6999 93.672 54.2959 93.4701C53.8985 93.2681 53.5923 92.9716 53.3773 92.5807L54.4523 91.9651C54.6933 92.4211 55.1201 92.6491 55.7325 92.6491C56.1299 92.6491 56.4427 92.5449 56.6707 92.3364C56.8987 92.1344 57.0127 91.838 57.0127 91.4471V90.9194C56.6414 91.4145 56.1202 91.6621 55.4491 91.6621C54.7585 91.6621 54.1786 91.421 53.7095 90.9389C53.247 90.4438 53.0157 89.8509 53.0157 89.1603C53.0157 88.4696 53.2502 87.88 53.7193 87.3914C54.1884 86.9027 54.765 86.6584 55.4491 86.6584C56.1202 86.6584 56.6414 86.906 57.0127 87.4012V86.7952ZM57.0127 89.1603C57.0127 88.7693 56.8824 88.4534 56.6218 88.2123C56.3677 87.9582 56.042 87.8312 55.6446 87.8312C55.2471 87.8312 54.9181 87.9582 54.6575 88.2123C54.4034 88.4599 54.2764 88.7759 54.2764 89.1603C54.2764 89.3557 54.3089 89.5349 54.3741 89.6978C54.4458 89.8606 54.5402 90.004 54.6575 90.1278C54.7813 90.245 54.9279 90.3363 55.0973 90.4014C55.2667 90.4666 55.4491 90.4991 55.6446 90.4991C55.84 90.4991 56.0224 90.4666 56.1918 90.4014C56.3612 90.3363 56.5046 90.245 56.6218 90.1278C56.7456 90.004 56.8401 89.8606 56.9052 89.6978C56.9769 89.5349 57.0127 89.3557 57.0127 89.1603ZM64.5473 86.6584C65.0881 86.6584 65.5279 86.8376 65.8667 87.1959C66.2185 87.5608 66.3944 88.0559 66.3944 88.6814V91.6816H65.1337V88.8378C65.1337 88.5055 65.0458 88.2546 64.8698 88.0853C64.6939 87.9159 64.4594 87.8312 64.1662 87.8312C63.8339 87.8312 63.5701 87.9321 63.3746 88.1341C63.1857 88.3296 63.0912 88.6325 63.0912 89.043V91.6816H61.8305V84.8407H63.0912V87.3425C63.3909 86.8865 63.8763 86.6584 64.5473 86.6584ZM71.6341 91.0757C71.1389 91.5709 70.5265 91.8185 69.7968 91.8185C69.0671 91.8185 68.4547 91.5709 67.9595 91.0757C67.4643 90.5806 67.2168 89.9681 67.2168 89.2384C67.2168 88.5153 67.4643 87.9061 67.9595 87.4109C68.4612 86.9093 69.0736 86.6584 69.7968 86.6584C70.52 86.6584 71.1324 86.9093 71.6341 87.4109C72.1357 87.9126 72.3866 88.5218 72.3866 89.2384C72.3866 89.9616 72.1357 90.5741 71.6341 91.0757ZM68.8488 90.2059C69.1029 90.46 69.4189 90.5871 69.7968 90.5871C70.1747 90.5871 70.4907 90.46 70.7447 90.2059C70.9988 89.9519 71.1259 89.6294 71.1259 89.2384C71.1259 88.8475 70.9988 88.525 70.7447 88.2709C70.4907 88.0168 70.1747 87.8898 69.7968 87.8898C69.4189 87.8898 69.1029 88.0168 68.8488 88.2709C68.6012 88.5315 68.4775 88.854 68.4775 89.2384C68.4775 89.6228 68.6012 89.9453 68.8488 90.2059ZM78.6778 86.6584C78.958 86.6584 79.2121 86.7073 79.4401 86.805C79.6681 86.8962 79.8603 87.0298 80.0167 87.2057C80.1796 87.3816 80.3034 87.5934 80.3881 87.8409C80.4793 88.0885 80.5249 88.3654 80.5249 88.6716V91.6816H79.2642V88.7596C79.2642 88.4664 79.1925 88.2384 79.0492 88.0755C78.9058 87.9126 78.7039 87.8312 78.4433 87.8312C78.1501 87.8312 77.9253 87.9256 77.7689 88.1146C77.6126 88.3035 77.5344 88.5771 77.5344 88.9355V91.6816H76.2737V88.7596C76.2737 88.4664 76.202 88.2384 76.0587 88.0755C75.9154 87.9126 75.7134 87.8312 75.4528 87.8312C75.1726 87.8312 74.9479 87.9256 74.7785 88.1146C74.6156 88.3035 74.5342 88.5771 74.5342 88.9355V91.6816H73.2735V86.7952H74.5342V87.3132C74.8273 86.8767 75.2801 86.6584 75.8926 86.6584C76.492 86.6584 76.935 86.893 77.2217 87.3621C77.5409 86.893 78.0263 86.6584 78.6778 86.6584ZM82.6608 89.7564C82.8237 90.3688 83.283 90.675 84.0388 90.675C84.5209 90.675 84.8858 90.5122 85.1334 90.1864L86.1497 90.7728C85.6676 91.4699 84.9574 91.8185 84.0193 91.8185C83.2114 91.8185 82.5631 91.5741 82.0745 91.0855C81.5858 90.5969 81.3415 89.9812 81.3415 89.2384C81.3415 88.5087 81.5826 87.8963 82.0647 87.4012C82.5403 86.906 83.1593 86.6584 83.9215 86.6584C84.6447 86.6584 85.2343 86.906 85.6904 87.4012C86.1595 87.9028 86.3941 88.5153 86.3941 89.2384C86.3941 89.3231 86.3875 89.4078 86.3745 89.4925C86.368 89.5772 86.3582 89.6652 86.3452 89.7564H82.6608ZM85.1334 88.7791C85.0617 88.4468 84.9151 88.1993 84.6936 88.0364C84.4721 87.8735 84.2147 87.7921 83.9215 87.7921C83.5827 87.7921 83.3026 87.88 83.0811 88.0559C82.8596 88.2253 82.713 88.4664 82.6413 88.7791H85.1334ZM90.3428 86.3652C90.2386 86.3652 90.1376 86.3457 90.0398 86.3066C89.9486 86.2675 89.8672 86.2154 89.7955 86.1502C89.7304 86.0786 89.675 85.9971 89.6294 85.9059C89.5903 85.8147 89.5707 85.717 89.5707 85.6127C89.5707 85.5085 89.5903 85.4108 89.6294 85.3195C89.675 85.2283 89.7304 85.1502 89.7955 85.085C89.8672 85.0133 89.9486 84.958 90.0398 84.9189C90.1376 84.8733 90.2386 84.8505 90.3428 84.8505C90.5578 84.8505 90.7402 84.9254 90.8901 85.0752C91.0464 85.2251 91.1246 85.4042 91.1246 85.6127C91.1246 85.8212 91.0464 86.0004 90.8901 86.1502C90.7402 86.2936 90.5578 86.3652 90.3428 86.3652ZM89.7173 91.6816V86.7952H90.978V91.6816H89.7173ZM94.8487 86.6584C95.3895 86.6584 95.8293 86.8376 96.1681 87.1959C96.5199 87.5608 96.6958 88.0559 96.6958 88.6814V91.6816H95.4351V88.8378C95.4351 88.5055 95.3472 88.2546 95.1712 88.0853C94.9953 87.9159 94.7608 87.8312 94.4676 87.8312C94.1353 87.8312 93.8715 87.9321 93.676 88.1341C93.4871 88.3296 93.3926 88.6325 93.3926 89.043V91.6816H92.1319V86.7952H93.3926V87.3425C93.6923 86.8865 94.1777 86.6584 94.8487 86.6584ZM101.545 84.8407H102.717V91.6816H101.369V86.2675L100.079 86.6291L99.7464 85.4759L101.545 84.8407ZM106.497 91.8185C105.643 91.8185 104.972 91.496 104.483 90.851C104.001 90.1929 103.76 89.3297 103.76 88.2612C103.76 87.1927 104.001 86.3327 104.483 85.6811C104.972 85.0296 105.643 84.7039 106.497 84.7039C107.363 84.7039 108.034 85.0296 108.51 85.6811C108.992 86.3327 109.233 87.1927 109.233 88.2612C109.233 89.3297 108.992 90.1929 108.51 90.851C108.028 91.496 107.357 91.8185 106.497 91.8185ZM107.894 88.2612C107.894 87.5315 107.774 86.9744 107.533 86.59C107.298 86.2056 106.953 86.0134 106.497 86.0134C106.041 86.0134 105.695 86.2056 105.461 86.59C105.226 86.9744 105.109 87.5315 105.109 88.2612C105.109 88.9909 105.226 89.5479 105.461 89.9323C105.695 90.3102 106.041 90.4991 106.497 90.4991C106.953 90.4991 107.298 90.3102 107.533 89.9323C107.774 89.5479 107.894 88.9909 107.894 88.2612ZM115.555 86.6584C115.835 86.6584 116.089 86.7073 116.317 86.805C116.545 86.8962 116.737 87.0298 116.894 87.2057C117.057 87.3816 117.18 87.5934 117.265 87.8409C117.356 88.0885 117.402 88.3654 117.402 88.6716V91.6816H116.141V88.7596C116.141 88.4664 116.07 88.2384 115.926 88.0755C115.783 87.9126 115.581 87.8312 115.32 87.8312C115.027 87.8312 114.802 87.9256 114.646 88.1146C114.49 88.3035 114.411 88.5771 114.411 88.9355V91.6816H113.151V88.7596C113.151 88.4664 113.079 88.2384 112.936 88.0755C112.792 87.9126 112.59 87.8312 112.33 87.8312C112.05 87.8312 111.825 87.9256 111.656 88.1146C111.493 88.3035 111.411 88.5771 111.411 88.9355V91.6816H110.15V86.7952H111.411V87.3132C111.704 86.8767 112.157 86.6584 112.77 86.6584C113.369 86.6584 113.812 86.893 114.099 87.3621C114.418 86.893 114.903 86.6584 115.555 86.6584ZM119.792 91.5644C119.629 91.7272 119.434 91.8087 119.206 91.8087C118.978 91.8087 118.782 91.7272 118.619 91.5644C118.456 91.4015 118.375 91.206 118.375 90.978C118.375 90.75 118.456 90.5545 118.619 90.3916C118.782 90.2288 118.978 90.1473 119.206 90.1473C119.434 90.1473 119.629 90.2288 119.792 90.3916C119.955 90.5545 120.036 90.75 120.036 90.978C120.036 91.206 119.955 91.4015 119.792 91.5644ZM122.407 91.5644C122.244 91.7272 122.049 91.8087 121.821 91.8087C121.593 91.8087 121.397 91.7272 121.234 91.5644C121.071 91.4015 120.99 91.206 120.99 90.978C120.99 90.75 121.071 90.5545 121.234 90.3916C121.397 90.2288 121.593 90.1473 121.821 90.1473C122.049 90.1473 122.244 90.2288 122.407 90.3916C122.57 90.5545 122.651 90.75 122.651 90.978C122.651 91.206 122.57 91.4015 122.407 91.5644ZM125.022 91.5644C124.859 91.7272 124.664 91.8087 124.436 91.8087C124.208 91.8087 124.012 91.7272 123.849 91.5644C123.686 91.4015 123.605 91.206 123.605 90.978C123.605 90.75 123.686 90.5545 123.849 90.3916C124.012 90.2288 124.208 90.1473 124.436 90.1473C124.664 90.1473 124.859 90.2288 125.022 90.3916C125.185 90.5545 125.266 90.75 125.266 90.978C125.266 91.206 125.185 91.4015 125.022 91.5644Z" fill="white"/>
<path d="M34.3078 120.446C33.0685 121.662 31.5743 122.271 29.8254 122.271C28.0648 122.271 26.5707 121.662 25.3429 120.446C24.1267 119.219 23.5186 117.719 23.5186 115.946C23.5186 114.174 24.1267 112.68 25.3429 111.464C26.5707 110.236 28.0648 109.622 29.8254 109.622C31.5859 109.622 33.0801 110.236 34.3078 111.464C35.5356 112.68 36.1494 114.174 36.1494 115.946C36.1494 117.719 35.5356 119.219 34.3078 120.446ZM27.0282 118.813C27.7695 119.554 28.7019 119.925 29.8254 119.925C30.9489 119.925 31.8813 119.554 32.6226 118.813C33.3754 118.06 33.7519 117.105 33.7519 115.946C33.7519 114.788 33.3754 113.833 32.6226 113.08C31.8697 112.327 30.9373 111.951 29.8254 111.951C28.7134 111.951 27.781 112.327 27.0282 113.08C26.2753 113.833 25.8989 114.788 25.8989 115.946C25.8989 117.105 26.2753 118.06 27.0282 118.813ZM42.5603 113.097C43.5216 113.097 44.3034 113.416 44.9057 114.053C45.5312 114.701 45.8439 115.582 45.8439 116.694V122.027H43.6027V116.972C43.6027 116.381 43.4463 115.935 43.1336 115.634C42.8209 115.333 42.4039 115.182 41.8827 115.182C41.292 115.182 40.8229 115.362 40.4754 115.721C40.1395 116.068 39.9716 116.607 39.9716 117.336V122.027H37.7303V113.34H39.9716V114.313C40.5044 113.503 41.3673 113.097 42.5603 113.097Z" fill="white"/>
<g clip-path="url(#clip0_4943_11814)">
<path d="M62.5773 109.287H72.3501C74.5101 109.287 76.5815 110.145 78.1088 111.672C79.6361 113.2 80.4941 115.271 80.4941 117.431C80.4941 119.591 79.6361 121.662 78.1088 123.19C76.5815 124.717 74.5101 125.575 72.3501 125.575H62.5773C60.4174 125.575 58.346 124.717 56.8187 123.19C55.2914 121.662 54.4333 119.591 54.4333 117.431C54.4333 115.271 55.2914 113.2 56.8187 111.672C58.346 110.145 60.4174 109.287 62.5773 109.287ZM72.3501 124.489C73.7461 124.489 75.1107 124.075 76.2714 123.3C77.4321 122.524 78.3368 121.422 78.871 120.132C79.4052 118.842 79.545 117.423 79.2727 116.054C79.0003 114.685 78.3281 113.427 77.341 112.44C76.3539 111.453 75.0963 110.781 73.7271 110.509C72.358 110.236 70.9388 110.376 69.6491 110.91C68.3594 111.444 67.2571 112.349 66.4815 113.51C65.706 114.671 65.292 116.035 65.292 117.431C65.292 118.358 65.4746 119.276 65.8293 120.132C66.184 120.988 66.7039 121.767 67.3593 122.422C68.0147 123.077 68.7928 123.597 69.6491 123.952C70.5054 124.307 71.4233 124.489 72.3501 124.489Z" fill="#50EEAC"/>
</g>
<rect x="6.57031" y="5.5" width="158.165" height="141.334" rx="16.3739" stroke="url(#paint1_linear_4943_11814)" stroke-width="2" shape-rendering="crispEdges"/>
</g>
<defs>
<filter id="filter0_bd_4943_11814" x="-17.4297" y="-18.5" width="208.141" height="192.395" filterUnits="userSpaceOnUse" color-interpolation-filters="sRGB">
<feFlood flood-opacity="0" result="BackgroundImageFix"/>
<feGaussianBlur in="BackgroundImage" stdDeviation="11.5"/>
<feComposite in2="SourceAlpha" operator="in" result="effect1_backgroundBlur_4943_11814"/>
<feColorMatrix in="SourceAlpha" type="matrix" values="0 0 0 0 0 0 0 0 0 0 0 0 0 0 0 0 0 0 127 0" result="hardAlpha"/>
<feOffset dx="9.7728" dy="10.8587"/>
<feGaussianBlur stdDeviation="7.60106"/>
<feComposite in2="hardAlpha" operator="out"/>
<feColorMatrix type="matrix" values="0 0 0 0 0 0 0 0 0 0 0 0 0 0 0 0 0 0 0.05 0"/>
<feBlend mode="normal" in2="effect1_backgroundBlur_4943_11814" result="effect2_dropShadow_4943_11814"/>
<feBlend mode="normal" in="SourceGraphic" in2="effect2_dropShadow_4943_11814" result="shape"/>
</filter>
<linearGradient id="paint0_linear_4943_11814" x1="5.57031" y1="76.1672" x2="165.736" y2="76.1672" gradientUnits="userSpaceOnUse">
<stop stop-color="#00C6FF"/>
<stop offset="1" stop-color="#0072FF"/>
</linearGradient>
<linearGradient id="paint1_linear_4943_11814" x1="5.57031" y1="4.5" x2="160.083" y2="147.707" gradientUnits="userSpaceOnUse">
<stop stop-color="white"/>
<stop offset="1" stop-color="white" stop-opacity="0"/>
</linearGradient>
<clipPath id="clip0_4943_11814">
<rect width="26.0608" height="26.0608" fill="white" transform="translate(54.4355 104.398)"/>
</clipPath>
</defs>
</svg>
