<svg width="332" height="126" viewBox="0 0 332 126" fill="none" xmlns="http://www.w3.org/2000/svg">
<path d="M1.56037 99.0056C1.09536 97.2782 0.922991 95.493 1.03122 93.7222C1.13946 91.9514 1.52028 90.1987 2.09352 88.5037C3.25603 85.1172 5.13609 81.9616 7.37693 79.0656C11.8666 73.2521 17.579 68.3076 23.624 63.8284C29.6891 59.3492 36.1671 55.3389 42.8415 51.6351C49.52 47.9312 56.4148 44.552 63.43 41.3928C77.4603 35.0743 91.9877 29.6646 106.776 24.9438C121.572 20.241 136.64 16.2306 151.873 12.8298C167.118 9.46497 182.531 6.71325 198.073 4.68283C213.61 2.66322 229.28 1.35048 244.998 1.05475C252.855 0.917707 260.728 1.0259 268.581 1.51638C276.43 2.01046 284.275 2.84355 292.008 4.29694C299.72 5.76476 307.401 7.77355 314.488 11.1275C318.02 12.8009 321.387 14.8638 324.249 17.4713C325.672 18.7768 326.959 20.2302 328.009 21.8278C329.06 23.4219 329.861 25.1638 330.354 26.9742C330.852 28.7847 331.036 30.6636 330.932 32.5173C330.828 34.371 330.439 36.1995 329.845 37.9522C328.655 41.4649 326.731 44.7071 324.462 47.668C319.904 53.6114 314.127 58.6063 308.038 63.136C301.929 67.6621 295.399 71.6796 288.693 75.4051C281.978 79.1233 275.051 82.5134 268.012 85.6798C253.905 91.9731 239.33 97.3647 224.49 102.039C209.638 106.687 194.525 110.636 179.252 113.976C171.608 115.61 163.927 117.114 156.202 118.426C148.482 119.75 140.721 120.868 132.936 121.827C117.362 123.71 101.669 124.849 85.9546 124.99C78.0977 125.048 70.2367 124.86 62.4078 124.298C54.5789 123.731 46.77 122.808 39.0894 121.304C31.4289 119.793 23.8245 117.727 16.8694 114.387C13.4019 112.725 10.1229 110.683 7.3649 108.144C5.98993 106.871 4.76329 105.468 3.76914 103.932C2.779 102.396 2.02136 100.733 1.56037 99.0056ZM1.83296 98.9443C2.29796 100.643 3.0556 102.277 4.04574 103.781C5.03587 105.288 6.25851 106.666 7.62547 107.914C10.3674 110.406 13.6264 112.407 17.0779 114.037C24.0048 117.305 31.5972 119.256 39.2377 120.688C43.066 121.402 46.9304 121.935 50.8107 122.361C54.6911 122.786 58.5875 123.097 62.488 123.317C70.2928 123.757 78.1177 123.818 85.9306 123.638C101.564 123.252 117.15 121.842 132.607 119.75C140.34 118.711 148.037 117.489 155.701 116.111C163.37 114.751 170.994 113.201 178.587 111.52C193.768 108.17 208.784 104.21 223.528 99.561C238.276 94.9268 252.779 89.6433 266.781 83.4402C273.78 80.3387 280.655 77.0172 287.314 73.3783C293.964 69.7322 300.426 65.8011 306.447 61.3905C312.444 56.9798 318.108 52.1219 322.502 46.4562C324.69 43.6324 326.514 40.5813 327.629 37.35C328.747 34.1294 329.048 30.6889 328.17 27.4539C327.316 24.2117 325.308 21.2652 322.674 18.8489C320.036 16.4254 316.865 14.4455 313.478 12.8262C306.683 9.57316 299.167 7.56077 291.583 6.08934C283.974 4.62513 276.218 3.7704 268.441 3.24747C260.656 2.73175 252.839 2.5911 245.03 2.69568C229.4 2.92649 213.791 4.16711 198.297 6.11819C182.804 8.07649 167.423 10.7597 152.202 14.0524C136.981 17.3414 121.92 21.24 107.12 25.831C92.3204 30.4184 77.765 35.6802 63.6906 41.8616C56.6674 44.9704 49.7565 48.2991 43.062 51.956C39.7148 53.7845 36.4197 55.6887 33.2007 57.6903C29.9818 59.6918 26.8269 61.7836 23.8004 64.016C17.7634 68.4771 12.035 73.3891 7.57335 79.181C5.35256 82.0698 3.48853 85.2074 2.34206 88.565C1.77283 90.242 1.40002 91.9767 1.2998 93.7258C1.19959 95.4821 1.37196 97.2457 1.83296 98.9443Z" fill="white" stroke="white" stroke-width="2"/>
</svg>
