<svg width="96" height="96" viewBox="0 0 96 96" fill="none" xmlns="http://www.w3.org/2000/svg">
<rect width="96" height="96" rx="48" fill="#F3F9FF"/>
<path fill-rule="evenodd" clip-rule="evenodd" d="M27 27C25.3431 27 24 28.3431 24 30V68C24 68.5523 24.4477 69 25 69H33H63H71C71.5501 69 71.9965 68.5558 72 68.0065L72 68V30C72 28.3431 70.6569 27 69 27H65C63.3431 27 62 28.3431 62 30V67L34 67V46H36C36.5085 46 36.9875 45.8735 37.4072 45.6502L47.6943 55.9372C48.8659 57.1088 50.7654 57.1088 51.9369 55.9372C53.1085 54.7657 53.1085 52.8662 51.9369 51.6946L42.2423 42H57C58.6569 42 60 40.6569 60 39C60 37.3431 58.6569 36 57 36H39V35C39 33.3431 37.6569 32 36 32H34V30C34 28.3431 32.6569 27 31 27H27ZM39.4139 42H39V43C39 43.4172 38.9148 43.8145 38.761 44.1755L49.1085 54.523C49.499 54.9135 50.1322 54.9135 50.5227 54.523C50.9132 54.1325 50.9132 53.4993 50.5227 53.1088L39.4139 42ZM57 40H39V38H57C57.5523 38 58 38.4477 58 39C58 39.5523 57.5523 40 57 40ZM34 34V44H36C36.5523 44 37 43.5523 37 43V35C37 34.4477 36.5523 34 36 34H34ZM32 67H26V46H32V67ZM32 44V34H26V44H32ZM32 32H26V30C26 29.4477 26.4477 29 27 29H31C31.5523 29 32 29.4477 32 30V32ZM70 30V32H64V30C64 29.4477 64.4477 29 65 29H69C69.5523 29 70 29.4477 70 30ZM64 34V44H70V34H64ZM64 46H70V67H64V46Z" fill="#0979FD"/>
</svg>
