<svg width="96" height="96" viewBox="0 0 96 96" fill="none" xmlns="http://www.w3.org/2000/svg">
<rect width="96" height="96" rx="48" fill="#F3F9FF"/>
<path fill-rule="evenodd" clip-rule="evenodd" d="M31 27C31 25.3431 32.3431 24 34 24H62C63.6569 24 65 25.3431 65 27V71C65 71.5523 64.5523 72 64 72C63.4477 72 63 71.5523 63 71V27C63 26.4477 62.5523 26 62 26H34C33.4477 26 33 26.4477 33 27V71C33 71.5523 32.5523 72 32 72C31.4477 72 31 71.5523 31 71V27ZM35 30C35 28.8954 35.8954 28 37 28H59C60.1046 28 61 28.8954 61 30V70C61 71.1046 60.1046 72 59 72H37C35.8954 72 35 71.1046 35 70V30ZM39 30H37V32V68V70H39H47V30H39ZM49 30V70H57H59V68V32V30H57H49ZM39.3598 47.2318C39.7841 46.8782 40.4147 46.9355 40.7682 47.3598L42 48.8379L43.2318 47.3598C43.5853 46.9355 44.2159 46.8782 44.6402 47.2318C45.0645 47.5853 45.1218 48.2159 44.7682 48.6402L42.7682 51.0402C42.5782 51.2682 42.2968 51.4 42 51.4C41.7032 51.4 41.4218 51.2682 41.2318 51.0402L39.2318 48.6402C38.8782 48.2159 38.9355 47.5853 39.3598 47.2318ZM52.7682 51.0406C52.4147 51.4649 51.7841 51.5222 51.3598 51.1686C50.9355 50.815 50.8782 50.1845 51.2318 49.7602L53.2318 47.3602C53.4218 47.1322 53.7032 47.0004 54 47.0004C54.2968 47.0004 54.5782 47.1322 54.7682 47.3602L56.7682 49.7602C57.1218 50.1845 57.0645 50.815 56.6402 51.1686C56.2159 51.5222 55.5853 51.4649 55.2318 51.0406L54 49.5624L52.7682 51.0406Z" fill="#0979FD"/>
</svg>
