<svg width="24" height="24" viewBox="0 0 24 24" fill="none" xmlns="http://www.w3.org/2000/svg">
<path d="M18.9511 15.0357C18.2771 14.0721 15.8773 13.281 14.8065 13.4033C14.4371 13.4474 14.0872 13.5999 13.7978 13.8352L13.0721 14.4476C11.642 13.3794 10.4705 11.986 9.67277 10.3841L10.3985 9.77175C10.6792 9.52593 10.8884 9.21557 10.9958 8.85729C11.3645 7.75307 10.8814 5.27914 10.1439 4.4909C9.26129 3.59952 7.01223 3.44241 5.90988 3.79934C5.65175 3.89227 5.41901 4.02621 5.21959 4.22126C5.02098 4.4067 4.86769 4.62528 4.75971 4.87698C4.65173 5.12869 4.60024 5.39518 4.5957 5.67558C4.64593 8.03309 5.25505 10.3829 6.35912 12.4578C7.35998 14.3878 8.79277 16.105 10.5098 17.4217C12.3507 18.8658 14.546 19.8771 16.8451 20.3458C16.9024 20.351 16.9589 20.3658 17.0162 20.3709C17.2264 20.3899 17.4493 20.3713 17.6461 20.3212C17.9113 20.258 18.152 20.1441 18.3688 19.97C18.5849 19.8055 18.7669 19.5895 18.8923 19.3587C19.4679 18.263 19.6494 16.0341 18.9511 15.0357Z" fill="#2391FD"/>
</svg>
