<svg width="107" height="24" viewBox="0 0 107 24" fill="none" xmlns="http://www.w3.org/2000/svg">
<rect y="2" width="107" height="20" rx="2" fill="#white"/>
<rect y="2" width="28" height="20" rx="2" fill="#white"/>
<mask id="mask0" mask-type="alpha" maskUnits="userSpaceOnUse" x="0" y="2" width="28" height="20">
<path d="M0 4C0 2.89543 0.895431 2 2 2H28V22H2C0.895431 22 0 21.1046 0 20V4Z" fill="white"/>
</mask>
<g mask="url(#mask0)">
<rect y="2" width="28" height="20" fill="#000000"/>
<path fill-rule="evenodd" clip-rule="evenodd" d="M-1.28244 0.0834961L10.6667 8.14329V0.666609H17.3334V8.14329L29.2825 0.0834961L30.7737 2.29426L21.3263 8.66661H28V15.3333H21.3263L30.7737 21.7056L29.2825 23.9164L17.3334 15.8566V23.3333H10.6667V15.8566L-1.28244 23.9164L-2.77362 21.7056L6.67377 15.3333H2.95639e-05V8.66661H6.67377L-2.77362 2.29426L-1.28244 0.0834961Z" fill="white"/>
<path d="M18.668 8.33219L31.3333 0" stroke="#f1f3f4" stroke-width="0.666667" stroke-linecap="round"/>
<path d="M20.0128 15.6975L31.3666 23.3503" stroke="#f1f3f4" stroke-width="0.666667" stroke-linecap="round"/>
<path d="M8.00555 8.31055L-3.83746 0.329102" stroke="#f1f3f4" stroke-width="0.666667" stroke-linecap="round"/>
<path d="M9.29006 15.605L-3.83746 24.3105" stroke="#f1f3f4" stroke-width="0.666667" stroke-linecap="round"/>
<path fill-rule="evenodd" clip-rule="evenodd" d="M0 14H12V22H16V14H28V10H16V2H12V10H0V14Z" fill="#000000"/>
</g>
<path d="M40.877 12.6865H36.9395V15.3525H41.5605V17H34.8887V7.04688H41.5469V8.70801H36.9395V11.0801H40.877V12.6865ZM51.0574 17H49.0066L45.0145 10.4512V17H42.9637V7.04688H45.0145L49.0135 13.6094V7.04688H51.0574V17ZM60.9234 15.7422C60.5543 16.1842 60.0325 16.5283 59.358 16.7744C58.6835 17.016 57.9361 17.1367 57.1158 17.1367C56.2545 17.1367 55.498 16.9499 54.8463 16.5762C54.1992 16.1979 53.6979 15.651 53.3424 14.9355C52.9915 14.2201 52.8115 13.3792 52.8023 12.4131V11.7363C52.8023 10.7428 52.9687 9.88379 53.3014 9.15918C53.6386 8.43001 54.1217 7.87402 54.7506 7.49121C55.384 7.10384 56.1246 6.91016 56.9723 6.91016C58.1526 6.91016 59.0755 7.19271 59.7408 7.75781C60.4062 8.31836 60.8004 9.13639 60.9234 10.2119H58.9273C58.8362 9.64225 58.6334 9.22526 58.3189 8.96094C58.009 8.69661 57.5807 8.56445 57.0338 8.56445C56.3365 8.56445 55.8056 8.8265 55.441 9.35059C55.0764 9.87467 54.8919 10.654 54.8873 11.6885V12.3242C54.8873 13.3678 55.0855 14.1562 55.482 14.6895C55.8785 15.2227 56.4596 15.4893 57.2252 15.4893C57.9954 15.4893 58.5445 15.3252 58.8727 14.9971V13.2812H57.0064V11.7705H60.9234V15.7422ZM64.8422 15.3525H69.1967V17H62.7914V7.04688H64.8422V15.3525ZM72.76 17H70.7092V7.04688H72.76V17ZM80.0283 14.3887C80.0283 14.0013 79.8916 13.7051 79.6182 13.5C79.3447 13.2904 78.8525 13.0716 78.1416 12.8438C77.4307 12.6113 76.8678 12.3835 76.4531 12.1602C75.3229 11.5495 74.7578 10.7269 74.7578 9.69238C74.7578 9.15462 74.9082 8.67611 75.209 8.25684C75.5143 7.83301 75.9495 7.5026 76.5146 7.26562C77.0843 7.02865 77.7223 6.91016 78.4287 6.91016C79.1396 6.91016 79.7731 7.04004 80.3291 7.2998C80.8851 7.55501 81.3158 7.91732 81.6211 8.38672C81.931 8.85612 82.0859 9.38932 82.0859 9.98633H80.0352C80.0352 9.5306 79.8916 9.17741 79.6045 8.92676C79.3174 8.67155 78.9141 8.54395 78.3945 8.54395C77.8932 8.54395 77.5036 8.65104 77.2256 8.86523C76.9476 9.07487 76.8086 9.35286 76.8086 9.69922C76.8086 10.0228 76.9704 10.2939 77.2939 10.5127C77.6221 10.7314 78.1029 10.9365 78.7363 11.1279C79.903 11.4788 80.7529 11.9141 81.2861 12.4336C81.8193 12.9531 82.0859 13.6003 82.0859 14.375C82.0859 15.2363 81.7601 15.9131 81.1084 16.4053C80.4567 16.8929 79.5794 17.1367 78.4766 17.1367C77.7109 17.1367 77.0137 16.9977 76.3848 16.7197C75.7559 16.4372 75.2751 16.0521 74.9424 15.5645C74.6143 15.0768 74.4502 14.5117 74.4502 13.8691H76.5078C76.5078 14.9674 77.1641 15.5166 78.4766 15.5166C78.9642 15.5166 79.3447 15.4186 79.6182 15.2227C79.8916 15.0221 80.0283 14.7441 80.0283 14.3887ZM91.7811 17H89.7303V12.7344H85.7313V17H83.6805V7.04688H85.7313V11.0801H89.7303V7.04688H91.7811V17Z" fill="black"/>
</svg>
