<svg width="40" height="40" viewBox="0 0 40 40" fill="none" xmlns="http://www.w3.org/2000/svg">
<path d="M15.9515 31.3678C15.6348 31.3678 15.3181 31.2512 15.0681 31.0012L4.95146 20.8845C4.71899 20.6493 4.58862 20.3319 4.58862 20.0012C4.58862 19.6705 4.71899 19.3531 4.95146 19.1178L15.0681 9.00117C15.5515 8.51784 16.3515 8.51784 16.8348 9.00117C17.3181 9.48451 17.3181 10.2845 16.8348 10.7678L7.60146 20.0012L16.8348 29.2345C17.3181 29.7178 17.3181 30.5178 16.8348 31.0012C16.6015 31.2512 16.2681 31.3678 15.9515 31.3678Z" fill="#0A3256"/>
<path d="M34.17 21.25H6.12C5.43666 21.25 4.87 20.6833 4.87 20C4.87 19.3167 5.43666 18.75 6.12 18.75H34.17C34.8533 18.75 35.42 19.3167 35.42 20C35.42 20.6833 34.8533 21.25 34.17 21.25Z" fill="#0A3256"/>
</svg>
