<svg width="96" height="96" viewBox="0 0 96 96" fill="none" xmlns="http://www.w3.org/2000/svg">
<rect width="96" height="96" rx="48" fill="#F3F9FF"/>
<path fill-rule="evenodd" clip-rule="evenodd" d="M47 26C44.4588 26 41.9989 26.9971 40.0827 28.8144C39.8823 29.0044 39.5944 28.629 39.3619 28.3258C39.2928 28.2356 39.2285 28.1518 39.1729 28.0912C38.9305 27.8268 38.9447 27.4126 39.2047 27.1661C41.3524 25.1293 44.1238 24 47 24C49.8762 24 52.6476 25.1293 54.7953 27.1661C55.0553 27.4126 55.0695 27.8268 54.8271 28.0912C54.7715 28.1518 54.7072 28.2356 54.6381 28.3258L54.6381 28.3258C54.4056 28.629 54.1177 29.0044 53.9173 28.8144C52.0011 26.9971 49.5412 26 47 26ZM47.0306 29.7575C45.4028 29.7575 43.8211 30.371 42.5613 31.5C42.3543 31.6854 42.0615 31.2846 41.8308 30.9689L41.8308 30.9689L41.8308 30.9689L41.8308 30.9689C41.7641 30.8777 41.7027 30.7936 41.65 30.7328C41.415 30.4616 41.4406 30.0479 41.7073 29.8089C43.1961 28.4749 45.0785 27.7395 47.0279 27.7395C48.9773 27.7395 50.8596 28.4749 52.3484 29.8089C52.6151 30.0479 52.6407 30.4616 52.4057 30.7328C52.3523 30.7945 52.2901 30.8801 52.2227 30.9729C51.994 31.2879 51.706 31.6846 51.5 31.5C50.2401 30.371 48.6584 29.7575 47.0306 29.7575ZM47 33.5C46.2766 33.5 45.5673 33.742 44.9706 34.1981C44.7418 34.373 44.4381 33.9078 44.2169 33.5691C44.1634 33.4871 44.1148 33.4126 44.0731 33.3563C43.8595 33.0673 43.9168 32.657 44.2009 32.4398C45.0159 31.8168 45.9955 31.4791 47.0039 31.4791C48.0122 31.4791 48.9918 31.8168 49.8068 32.4398C50.091 32.657 50.1482 33.0673 49.9346 33.3563C49.8942 33.4109 49.8468 33.4828 49.7947 33.562L49.7946 33.5621L49.7946 33.5621C49.5712 33.9014 49.2598 34.3742 49.0294 34.1981C48.4327 33.742 47.7234 33.5 47 33.5ZM41 37C39.3431 37 38 38.3431 38 40V68C38 69.6569 39.3431 71 41 71H53C54.6569 71 56 69.6569 56 68V53H66.5C68.433 53 70 51.433 70 49.5C70 47.567 68.433 46 66.5 46H56V40C56 38.3431 54.6569 37 53 37H41ZM54 46V40C54 39.4477 53.5523 39 53 39H41C40.4477 39 40 39.4477 40 40V68C40 68.5523 40.4477 69 41 69H53C53.5523 69 54 68.5523 54 68V53H47.5C45.567 53 44 51.433 44 49.5C44 47.567 45.567 46 47.5 46H54ZM47.5 48C46.6716 48 46 48.6716 46 49.5C46 50.3284 46.6716 51 47.5 51H66.5C67.3284 51 68 50.3284 68 49.5C68 48.6716 67.3284 48 66.5 48H47.5ZM49 61C49 61.7403 48.5978 62.3866 48 62.7324V65C48 65.5523 47.5523 66 47 66C46.4477 66 46 65.5523 46 65V62.7324C45.4022 62.3866 45 61.7403 45 61C45 59.8954 45.8954 59 47 59C48.1046 59 49 59.8954 49 61Z" fill="#0979FD"/>
</svg>
