<svg width="224" height="224" viewBox="0 0 224 224" fill="none" xmlns="http://www.w3.org/2000/svg">
<path fill-rule="evenodd" clip-rule="evenodd" d="M71.424 36.6181C70.0709 35.8058 68.3833 35.7933 67.0183 36.5855L44.2851 49.7796C42.9267 50.568 42.1012 52.0299 42.1276 53.6003L42.3773 68.4412C42.4404 72.188 41.4835 75.8814 39.6091 79.1262L36.1455 77.1255L39.6091 79.1262L39.0684 80.0623C37.193 83.3089 34.4697 85.9842 31.1903 87.8016L18.2329 94.9821C16.8519 95.7474 15.9964 97.2033 16 98.7822L16.0597 125.047C16.0632 126.617 16.915 128.061 18.2864 128.824L31.1815 135.998C34.4722 137.829 37.2001 140.524 39.0708 143.792L39.6501 144.804C41.4981 148.032 42.4404 151.7 42.3776 155.419L42.1282 170.195C42.1016 171.771 42.9322 173.236 44.2973 174.023L67.1026 187.165C68.4643 187.949 70.144 187.935 71.4923 187.128L84.1513 179.548C87.3596 177.627 91.0289 176.612 94.7682 176.612H95.8657C99.6132 176.612 103.29 177.631 106.503 179.56L119.22 187.195C120.573 188.007 122.261 188.02 123.626 187.228L146.359 174.034C148.27 172.925 150.718 173.575 151.827 175.485C152.936 177.396 152.286 179.844 150.375 180.953L127.642 194.147C123.757 196.401 118.954 196.366 115.103 194.054L102.385 186.419C100.416 185.237 98.1626 184.612 95.8657 184.612H94.7682C92.4764 184.612 90.2274 185.234 88.2611 186.412L75.6021 193.992C71.7646 196.289 66.9838 196.329 63.1083 194.096L40.3031 180.955C36.4176 178.716 34.0536 174.544 34.1293 170.06L34.3788 155.284C34.4173 153.005 33.8397 150.757 32.7071 148.778L32.1277 147.766C30.9812 145.763 29.3092 144.111 27.2924 142.989L14.3972 135.815C10.494 133.644 8.06984 129.532 8.05969 125.066L8.00003 98.8004C7.98982 94.3066 10.4246 90.163 14.3552 87.9847L27.3126 80.8042C29.3226 79.6903 30.9917 78.0506 32.1411 76.0608L32.6818 75.1247C33.8306 73.1359 34.4171 70.8722 34.3784 68.5758L34.1287 53.7349C34.0535 49.2651 36.403 45.1045 40.2694 42.8605L63.0026 29.6664C66.8873 27.4117 71.6907 27.4473 75.5417 29.7592L88.2589 37.394C90.2281 38.5762 92.4818 39.2007 94.7786 39.2007H95.8761C98.168 39.2007 100.417 38.5789 102.383 37.4015L115.042 29.8216C118.88 27.5238 123.661 27.4838 127.536 29.7171L150.342 42.8588C152.256 43.9618 152.913 46.4076 151.81 48.3217C150.707 50.2357 148.261 50.8933 146.347 49.7903L123.542 36.6486C122.18 35.8639 120.5 35.878 119.152 36.6853L106.493 44.2652C103.285 46.1862 99.6155 47.2007 95.8761 47.2007H94.7786C91.0311 47.2007 87.3541 46.1818 84.1412 44.2529L71.424 36.6181ZM98.5472 65.9062C73.6252 65.9062 53.3164 86.4425 53.3164 111.906C53.3164 137.37 73.6252 157.906 98.5472 157.906C109.231 157.906 119.045 154.144 126.791 147.838C128.504 146.443 131.024 146.701 132.418 148.414C133.813 150.128 133.555 152.647 131.842 154.042C122.731 161.46 111.149 165.906 98.5472 165.906C69.0904 165.906 45.3164 141.671 45.3164 111.906C45.3164 82.1416 69.0904 57.9062 98.5472 57.9062C111.149 57.9062 122.731 62.3529 131.842 69.7707C133.555 71.1655 133.813 73.685 132.418 75.3981C131.024 77.1113 128.504 77.3694 126.791 75.9746C119.045 69.6685 109.231 65.9062 98.5472 65.9062ZM91.3164 111.906C91.3164 108.593 94.0027 105.906 97.3164 105.906C100.63 105.906 103.316 108.593 103.316 111.906C103.316 115.22 100.63 117.906 97.3164 117.906C94.0027 117.906 91.3164 115.22 91.3164 111.906ZM97.3164 97.9062C89.5844 97.9062 83.3164 104.174 83.3164 111.906C83.3164 119.638 89.5844 125.906 97.3164 125.906C99.9236 125.906 102.364 125.194 104.455 123.952C104.586 124.438 104.811 124.906 105.135 125.33L114.278 137.33C115.034 138.323 116.211 138.906 117.459 138.906H137.896C139.617 144.689 144.974 148.906 151.316 148.906C153.393 148.906 155.363 148.454 157.135 147.644L165.278 158.33C166.034 159.323 167.211 159.906 168.459 159.906H187.896C189.617 165.689 194.974 169.906 201.316 169.906C209.048 169.906 215.316 163.638 215.316 155.906C215.316 148.174 209.048 141.906 201.316 141.906C194.974 141.906 189.617 146.123 187.896 151.906H170.44L163.168 142.362C164.529 140.203 165.316 137.647 165.316 134.906C165.316 127.174 159.048 120.906 151.316 120.906C144.974 120.906 139.617 125.123 137.896 130.906H119.44L111.498 120.482C110.942 119.752 110.184 119.267 109.362 119.045C109.942 118.069 110.406 117.017 110.737 115.906H187.896C189.617 121.689 194.974 125.906 201.316 125.906C209.048 125.906 215.316 119.638 215.316 111.906C215.316 104.174 209.048 97.9062 201.316 97.9062C194.974 97.9062 189.617 102.123 187.896 107.906H110.737C110.303 106.45 109.64 105.094 108.788 103.878C109.826 103.755 110.815 103.228 111.498 102.33L119.44 91.9062H137.896C139.617 97.6892 144.974 101.906 151.316 101.906C159.048 101.906 165.316 95.6382 165.316 87.9062C165.316 85.0937 164.487 82.4749 163.06 80.281L169.44 71.9062H187.896C189.617 77.6892 194.974 81.9062 201.316 81.9062C209.048 81.9062 215.316 75.6382 215.316 67.9062C215.316 60.1743 209.048 53.9062 201.316 53.9062C194.974 53.9062 189.617 58.1233 187.896 63.9062H167.459C166.211 63.9062 165.034 64.4891 164.278 65.4821L156.958 75.0893C155.232 74.3286 153.324 73.9062 151.316 73.9062C144.974 73.9062 139.617 78.1233 137.896 83.9062H117.459C116.211 83.9062 115.034 84.4891 114.278 85.4821L105.135 97.4821C104.61 98.1711 104.343 98.9757 104.318 99.7802C102.258 98.5884 99.8671 97.9062 97.3164 97.9062ZM201.316 105.906C198.003 105.906 195.316 108.593 195.316 111.906C195.316 115.22 198.003 117.906 201.316 117.906C204.63 117.906 207.316 115.22 207.316 111.906C207.316 108.593 204.63 105.906 201.316 105.906ZM195.316 155.906C195.316 152.593 198.003 149.906 201.316 149.906C204.63 149.906 207.316 152.593 207.316 155.906C207.316 159.22 204.63 161.906 201.316 161.906C198.003 161.906 195.316 159.22 195.316 155.906ZM201.316 61.9062C198.003 61.9062 195.316 64.5925 195.316 67.9062C195.316 71.2199 198.003 73.9062 201.316 73.9062C204.63 73.9062 207.316 71.2199 207.316 67.9062C207.316 64.5925 204.63 61.9062 201.316 61.9062ZM145.316 87.9062C145.316 84.5925 148.003 81.9062 151.316 81.9062C154.63 81.9062 157.316 84.5925 157.316 87.9062C157.316 91.2199 154.63 93.9062 151.316 93.9062C148.003 93.9062 145.316 91.2199 145.316 87.9062ZM151.316 128.906C148.003 128.906 145.316 131.593 145.316 134.906C145.316 138.22 148.003 140.906 151.316 140.906C154.63 140.906 157.316 138.22 157.316 134.906C157.316 131.593 154.63 128.906 151.316 128.906Z" fill="#0979FD" fill-opacity="0.1"/>
</svg>
