<svg width="96" height="96" viewBox="0 0 96 96" fill="none" xmlns="http://www.w3.org/2000/svg">
<rect width="96" height="96" rx="48" fill="#F3F9FF"/>
<path fill-rule="evenodd" clip-rule="evenodd" d="M30 26C27.7909 26 26 27.7909 26 30V37C26 37.5523 25.5523 38 25 38C24.4477 38 24 37.5523 24 37V30C24 26.6863 26.6863 24 30 24H36C36.5523 24 37 24.4477 37 25C37 25.5523 36.5523 26 36 26H30ZM40 39C40 38.4477 39.5523 38 39 38C38.4477 38 38 38.4477 38 39V43C38 43.5523 38.4477 44 39 44C39.5523 44 40 43.5523 40 43V39ZM60 39C60 38.4477 59.5523 38 59 38C58.4477 38 58 38.4477 58 39V43C58 43.5523 58.4477 44 59 44C59.5523 44 60 43.5523 60 43V39ZM50 43C50.5523 43 51 43.4477 51 44V49.0723C51 51.3591 49.4694 53.3631 47.2631 53.9648C46.7303 54.1101 46.1806 53.7959 46.0352 53.2631C45.8899 52.7303 46.2041 52.1806 46.7369 52.0352C48.073 51.6708 49 50.4572 49 49.0723V44C49 43.4477 49.4477 43 50 43ZM55.6433 58.9027C55.9877 58.4709 55.9168 57.8417 55.485 57.4974C55.0533 57.153 54.4241 57.2239 54.0797 57.6557C53.4102 58.4951 52.5566 59.1693 51.5849 59.626C50.6132 60.0828 49.5494 60.3099 48.4759 60.2898C47.4024 60.2697 46.3479 60.0029 45.3939 59.51C44.44 59.0172 43.6123 58.3115 42.9747 57.4476C42.6468 57.0032 42.0207 56.9088 41.5763 57.2367C41.1319 57.5647 41.0375 58.1908 41.3655 58.6351C42.1852 59.7459 43.2495 60.6532 44.4759 61.2869C45.7024 61.9205 47.0582 62.2636 48.4384 62.2894C49.8187 62.3153 51.1864 62.0233 52.4357 61.4361C53.6851 60.8488 54.7826 59.982 55.6433 58.9027ZM70 30C70 27.7909 68.2091 26 66 26H60C59.4477 26 59 25.5523 59 25C59 24.4477 59.4477 24 60 24H66C69.3137 24 72 26.6863 72 30V37C72 37.5523 71.5523 38 71 38C70.4477 38 70 37.5523 70 37V30ZM66 70C68.2091 70 70 68.2091 70 66V59C70 58.4477 70.4477 58 71 58C71.5523 58 72 58.4477 72 59V66C72 69.3137 69.3137 72 66 72H60C59.4477 72 59 71.5523 59 71C59 70.4477 59.4477 70 60 70H66ZM26 66C26 68.2091 27.7909 70 30 70H36C36.5523 70 37 70.4477 37 71C37 71.5523 36.5523 72 36 72H30C26.6863 72 24 69.3137 24 66V59C24 58.4477 24.4477 58 25 58C25.5523 58 26 58.4477 26 59V66Z" fill="#0979FD"/>
</svg>
