<svg width="48" height="76" viewBox="0 0 48 76" fill="none" xmlns="http://www.w3.org/2000/svg">
<g clip-path="url(#clip0_21296_6110)">
<path d="M40.6714 74.9203H7.24766C5.45943 74.915 3.74594 74.2083 2.48147 72.9544C1.21699 71.7005 0.504291 70.0013 0.499023 68.228V7.18636C0.499023 5.41148 1.21003 3.7093 2.47565 2.45427C3.74126 1.19923 5.45781 0.494141 7.24766 0.494141H40.6714C42.4613 0.494141 44.1778 1.19923 45.4434 2.45427C46.7091 3.7093 47.4201 5.41148 47.4201 7.18636V68.228C47.4148 70.0013 46.7021 71.7005 45.4376 72.9544C44.1731 74.2083 42.4597 74.915 40.6714 74.9203ZM7.24766 5.14702C6.71812 5.14702 6.21027 5.35559 5.83582 5.7269C5.46138 6.09821 5.25102 6.60185 5.25102 7.12697V68.1686C5.25102 68.6937 5.46138 69.1974 5.83582 69.5687C6.21027 69.94 6.71812 70.1486 7.24766 70.1486H40.6714C41.201 70.1486 41.7088 69.94 42.0833 69.5687C42.4577 69.1974 42.6681 68.6937 42.6681 68.1686V7.18636C42.6681 6.66125 42.4577 6.15761 42.0833 5.7863C41.7088 5.41499 41.201 5.20642 40.6714 5.20642L7.24766 5.14702Z" fill="url(#paint0_linear_21296_6110)"/>
<path d="M40.6716 75.4161H7.2478C5.32718 75.4109 3.48674 74.652 2.12865 73.3053C0.770565 71.9585 0.00526921 70.1334 0 68.2289V7.18721C0.00526921 5.28265 0.770565 3.45761 2.12865 2.11088C3.48674 0.764151 5.32718 0.00522515 7.2478 0H40.6716C42.5922 0.00522515 44.4326 0.764151 45.7907 2.11088C47.1488 3.45761 47.9141 5.28265 47.9194 7.18721V68.2289C47.9141 70.1334 47.1488 71.9585 45.7907 73.3053C44.4326 74.652 42.5922 75.4109 40.6716 75.4161V75.4161ZM7.2478 0.989972C5.59033 0.989972 4.00076 1.64288 2.82875 2.80508C1.65675 3.96729 0.99832 5.5436 0.99832 7.18721V68.2289C0.99832 69.8725 1.65675 71.4488 2.82875 72.611C4.00076 73.7732 5.59033 74.4261 7.2478 74.4261H40.6716C42.329 74.4261 43.9186 73.7732 45.0906 72.611C46.2626 71.4488 46.9211 69.8725 46.9211 68.2289V7.18721C46.9211 5.5436 46.2626 3.96729 45.0906 2.80508C43.9186 1.64288 42.329 0.989972 40.6716 0.989972H7.2478ZM40.6716 70.783H7.2478C6.90549 70.791 6.56505 70.7306 6.24671 70.6056C5.92836 70.4806 5.6386 70.2934 5.39463 70.0552C5.15065 69.8169 4.95745 69.5325 4.82647 69.2188C4.6955 68.9051 4.62944 68.5684 4.63221 68.2289V7.18721C4.63221 6.51506 4.90146 5.87046 5.38075 5.39518C5.86004 4.9199 6.51009 4.65288 7.1879 4.65288H40.6117C41.2895 4.65288 41.9395 4.9199 42.4188 5.39518C42.8981 5.87046 43.1674 6.51506 43.1674 7.18721V68.2289C43.1674 68.901 42.8981 69.5456 42.4188 70.0209C41.9395 70.4962 41.2895 70.7632 40.6117 70.7632L40.6716 70.783ZM7.2478 5.64285C6.83476 5.64285 6.43863 5.80556 6.14656 6.09518C5.8545 6.3848 5.69042 6.77762 5.69042 7.18721V68.2289C5.69042 68.6385 5.8545 69.0313 6.14656 69.3209C6.43863 69.6105 6.83476 69.7732 7.2478 69.7732H40.6716C41.0846 69.7732 41.4807 69.6105 41.7728 69.3209C42.0649 69.0313 42.229 68.6385 42.229 68.2289V7.18721C42.229 6.77762 42.0649 6.3848 41.7728 6.09518C41.4807 5.80556 41.0846 5.64285 40.6716 5.64285H7.2478Z" fill="white"/>
<path d="M36.3986 36.6688C36.0911 36.6713 35.7862 36.613 35.5017 36.4974C35.2172 36.3818 34.9587 36.2113 34.7414 35.9956C33.3264 34.5899 31.6457 33.4748 29.7957 32.7139C27.9456 31.953 25.9624 31.5614 23.9595 31.5614C21.9566 31.5614 19.9734 31.953 18.1233 32.7139C16.2732 33.4748 14.5926 34.5899 13.1776 35.9956C12.96 36.2114 12.7016 36.3825 12.4173 36.4993C12.1329 36.6161 11.8282 36.6763 11.5204 36.6763C11.2126 36.6763 10.9079 36.6161 10.6235 36.4993C10.3392 36.3825 10.0808 36.2114 9.86321 35.9956C9.64558 35.7798 9.47295 35.5235 9.35517 35.2416C9.23739 34.9596 9.17676 34.6574 9.17676 34.3522C9.17676 34.047 9.23739 33.7448 9.35517 33.4628C9.47295 33.1809 9.64558 32.9247 9.86321 32.7089C13.6058 29.0091 18.6749 26.9316 23.9595 26.9316C29.2441 26.9316 34.3131 29.0091 38.0558 32.7089C38.3846 33.0329 38.6089 33.4466 38.6999 33.8973C38.7909 34.3481 38.7447 34.8156 38.567 35.2402C38.3893 35.6648 38.0882 36.0274 37.702 36.2818C37.3159 36.5362 36.8622 36.6709 36.3986 36.6688" fill="url(#paint1_linear_21296_6110)"/>
<path d="M11.5206 37.1445C10.9581 37.1453 10.4081 36.98 9.94054 36.6699C9.47299 36.3598 9.10904 35.9188 8.89498 35.403C8.68091 34.8871 8.62641 34.3199 8.73841 33.7732C8.85041 33.2266 9.12384 32.7254 9.52392 32.3333C13.3581 28.532 18.5579 26.3965 23.9796 26.3965C29.4014 26.3965 34.6011 28.532 38.4353 32.3333C38.9526 32.8648 39.2416 33.5746 39.2416 34.3132C39.2416 35.0519 38.9526 35.7617 38.4353 36.2932C37.8903 36.7885 37.1779 37.0633 36.4386 37.0633C35.6994 37.0633 34.987 36.7885 34.442 36.2932C33.0763 34.9307 31.4524 33.8494 29.6637 33.1115C27.875 32.3737 25.9568 31.9938 24.0195 31.9938C22.0823 31.9938 20.1641 32.3737 18.3754 33.1115C16.5867 33.8494 14.9628 34.9307 13.5971 36.2932C13.0607 36.8071 12.3462 37.0976 11.6004 37.105L11.5206 37.1445ZM24.0395 27.3438C21.4875 27.3385 18.9597 27.8344 16.602 28.8029C14.2442 29.7714 12.1033 31.1933 10.3026 32.9867C10.1309 33.1557 9.99438 33.3566 9.90093 33.5779C9.80748 33.7992 9.75891 34.0366 9.75798 34.2765C9.75705 34.5164 9.8038 34.7542 9.89554 34.9763C9.98727 35.1983 10.1222 35.4002 10.2926 35.5705C10.4631 35.7408 10.6657 35.8762 10.8888 35.9688C11.112 36.0615 11.3514 36.1097 11.5934 36.1106C11.8353 36.1115 12.0751 36.0651 12.299 35.9741C12.5229 35.8832 12.7265 35.7494 12.8983 35.5804C14.3612 34.1292 16.098 32.9781 18.0097 32.1927C19.9213 31.4073 21.9703 31.003 24.0395 31.003C26.1087 31.003 28.1577 31.4073 30.0693 32.1927C31.981 32.9781 33.7179 34.1292 35.1808 35.5804C35.3525 35.7494 35.5561 35.8832 35.78 35.9741C36.0039 36.0651 36.2437 36.1115 36.4856 36.1106C36.7276 36.1097 36.967 36.0615 37.1902 35.9688C37.4134 35.8762 37.616 35.7408 37.7864 35.5705C37.9568 35.4002 38.0918 35.1983 38.1835 34.9763C38.2752 34.7542 38.322 34.5164 38.321 34.2765C38.3201 34.0366 38.2715 33.7992 38.1781 33.5779C38.0846 33.3566 37.9481 33.1557 37.7764 32.9867C35.9758 31.1933 33.8348 29.7714 31.4771 28.8029C29.1193 27.8344 26.5915 27.3385 24.0395 27.3438" fill="white"/>
<path d="M30.5884 42.4292C29.9694 42.4237 29.3762 42.1826 28.9311 41.756C28.2805 41.0975 27.5038 40.5744 26.6467 40.2172C25.7896 39.8601 24.8693 39.6761 23.9395 39.6761C23.0098 39.6761 22.0895 39.8601 21.2324 40.2172C20.3752 40.5744 19.5986 41.0975 18.9479 41.756C18.4969 42.1446 17.9138 42.3487 17.3167 42.327C16.7196 42.3053 16.1532 42.0595 15.7319 41.6393C15.3107 41.2191 15.0663 40.6559 15.048 40.0637C15.0297 39.4715 15.239 38.8945 15.6335 38.4495C17.8314 36.2708 20.8119 35.0469 23.9196 35.0469C27.0273 35.0469 30.0078 36.2708 32.2056 38.4495C32.4248 38.6665 32.5986 38.9242 32.7173 39.2079C32.8359 39.4916 32.8969 39.7957 32.8969 40.1028C32.8969 40.4099 32.8359 40.714 32.7173 40.9976C32.5986 41.2813 32.4248 41.539 32.2056 41.756C31.7606 42.1826 31.1674 42.4237 30.5484 42.4292" fill="url(#paint2_linear_21296_6110)"/>
<path d="M30.5888 42.926C30.2166 42.9283 29.8478 42.8558 29.5046 42.7128C29.1615 42.5699 28.8511 42.3595 28.5921 42.0944C27.984 41.4909 27.2618 41.0122 26.467 40.6856C25.6722 40.359 24.8203 40.1909 23.9599 40.1909C23.0996 40.1909 22.2477 40.359 21.4528 40.6856C20.658 41.0122 19.9359 41.4909 19.3277 42.0944C18.7894 42.6028 18.0745 42.8864 17.3311 42.8864C16.5877 42.8864 15.8728 42.6028 15.3344 42.0944C15.0712 41.8349 14.8624 41.5265 14.7198 41.1867C14.5773 40.8469 14.5039 40.4825 14.5039 40.1145C14.5039 39.7464 14.5773 39.382 14.7198 39.0422C14.8624 38.7025 15.0712 38.394 15.3344 38.1345C16.468 37.0055 17.8152 36.1096 19.2989 35.4982C20.7825 34.8869 22.3733 34.5723 23.9799 34.5723C25.5865 34.5723 27.1773 34.8869 28.6609 35.4982C30.1446 36.1096 31.4918 37.0055 32.6254 38.1345C32.8886 38.394 33.0974 38.7025 33.24 39.0422C33.3825 39.382 33.4559 39.7464 33.4559 40.1145C33.4559 40.4825 33.3825 40.8469 33.24 41.1867C33.0974 41.5265 32.8886 41.8349 32.6254 42.0944C32.097 42.6227 31.379 42.9217 30.6287 42.926H30.5888ZM23.9599 39.1245C24.9508 39.1238 25.932 39.3177 26.847 39.6949C27.762 40.0721 28.5926 40.6251 29.291 41.3222C29.6469 41.6172 30.1012 41.7695 30.5646 41.749C31.028 41.7285 31.4669 41.5368 31.7949 41.2115C32.1229 40.8862 32.3163 40.451 32.337 39.9915C32.3576 39.532 32.2041 39.0814 31.9066 38.7285C30.8614 37.6821 29.6174 36.8514 28.2466 36.2845C26.8758 35.7177 25.4053 35.4258 23.92 35.4258C22.4348 35.4258 20.9642 35.7177 19.5934 36.2845C18.2226 36.8514 16.9786 37.6821 15.9334 38.7285C15.7565 38.9027 15.6158 39.1098 15.5195 39.3379C15.4232 39.566 15.3732 39.8107 15.3723 40.058C15.3713 40.3052 15.4195 40.5503 15.5141 40.7791C15.6087 41.0079 15.7478 41.216 15.9235 41.3915C16.0991 41.567 16.3079 41.7065 16.538 41.802C16.768 41.8975 17.0148 41.9471 17.2641 41.948C17.5135 41.9489 17.7606 41.9011 17.9914 41.8073C18.2221 41.7135 18.432 41.5756 18.6089 41.4014C19.303 40.6876 20.1339 40.1186 21.0528 39.7276C21.9717 39.3366 22.96 39.1315 23.9599 39.1245" fill="white"/>
<path d="M23.9599 50.4889C23.2649 50.4889 22.5855 50.2846 22.0076 49.9017C21.4297 49.5188 20.9793 48.9745 20.7133 48.3377C20.4473 47.701 20.3777 47.0003 20.5133 46.3244C20.6489 45.6484 20.9836 45.0275 21.4751 44.5401C21.9665 44.0528 22.5927 43.7209 23.2743 43.5865C23.956 43.452 24.6626 43.521 25.3047 43.7848C25.9468 44.0485 26.4956 44.4952 26.8817 45.0682C27.2679 45.6413 27.474 46.315 27.474 47.0042C27.474 47.9284 27.1037 48.8147 26.4447 49.4683C25.7857 50.1218 24.8919 50.4889 23.9599 50.4889" fill="url(#paint3_linear_21296_6110)"/>
<path d="M23.9596 50.9842C23.1698 50.9842 22.3977 50.752 21.7411 50.3169C21.0844 49.8818 20.5725 49.2633 20.2703 48.5398C19.968 47.8162 19.889 47.02 20.043 46.2518C20.1971 45.4837 20.5774 44.7781 21.1359 44.2243C21.6944 43.6705 22.4059 43.2933 23.1805 43.1405C23.9552 42.9877 24.7581 43.0662 25.4878 43.3659C26.2174 43.6656 26.8411 44.1731 27.2799 44.8243C27.7187 45.4755 27.9529 46.2412 27.9529 47.0244C27.9529 48.0746 27.5322 49.0818 26.7833 49.8244C26.0344 50.567 25.0187 50.9842 23.9596 50.9842ZM23.9596 44.0149C23.3633 44.0149 22.7804 44.1902 22.2846 44.5187C21.7888 44.8472 21.4024 45.3141 21.1742 45.8604C20.946 46.4067 20.8863 47.0079 21.0026 47.5878C21.1189 48.1677 21.4061 48.7005 21.8277 49.1186C22.2494 49.5367 22.7866 49.8215 23.3714 49.9368C23.9563 50.0522 24.5624 49.993 25.1134 49.7667C25.6643 49.5404 26.1351 49.1572 26.4664 48.6656C26.7977 48.1739 26.9745 47.5958 26.9745 47.0045C26.9693 46.2132 26.65 45.4558 26.0857 44.8962C25.5214 44.3367 24.7576 44.02 23.9596 44.0149" fill="white"/>
<path d="M28.5919 13.3638H19.2077C18.6229 13.3103 18.0793 13.042 17.6835 12.6116C17.2877 12.1812 17.0684 11.6198 17.0684 11.0374C17.0684 10.455 17.2877 9.89351 17.6835 9.46314C18.0793 9.03278 18.6229 8.7645 19.2077 8.71094H28.5919C29.1768 8.7645 29.7204 9.03278 30.1162 9.46314C30.5119 9.89351 30.7313 10.455 30.7313 11.0374C30.7313 11.6198 30.5119 12.1812 30.1162 12.6116C29.7204 13.042 29.1768 13.3103 28.5919 13.3638" fill="url(#paint4_linear_21296_6110)"/>
<path d="M28.5917 13.7796H19.2075C18.494 13.7203 17.8291 13.3973 17.3444 12.8747C16.8598 12.3522 16.5908 11.6681 16.5908 10.9582C16.5908 10.2482 16.8598 9.56413 17.3444 9.04156C17.8291 8.51898 18.494 8.19604 19.2075 8.13672H28.5917C29.3051 8.19604 29.9701 8.51898 30.4547 9.04156C30.9393 9.56413 31.2083 10.2482 31.2083 10.9582C31.2083 11.6681 30.9393 12.3522 30.4547 12.8747C29.9701 13.3973 29.3051 13.7203 28.5917 13.7796ZM19.2075 9.12669C18.7508 9.17384 18.3279 9.38719 18.0204 9.72542C17.713 10.0637 17.5429 10.5028 17.5429 10.9582C17.5429 11.4135 17.713 11.8527 18.0204 12.1909C18.3279 12.5292 18.7508 12.7424 19.2075 12.7896H28.5917C29.0484 12.7424 29.4713 12.5292 29.7787 12.1909C30.0861 11.8527 30.2563 11.4135 30.2563 10.9582C30.2563 10.5028 30.0861 10.0637 29.7787 9.72542C29.4713 9.38719 29.0484 9.17384 28.5917 9.12669H19.2075Z" fill="white"/>
</g>
<defs>
<linearGradient id="paint0_linear_21296_6110" x1="0.499023" y1="37.7072" x2="50.3586" y2="38.7253" gradientUnits="userSpaceOnUse">
<stop stop-color="#0091EF"/>
<stop offset="1" stop-color="#32D7D4"/>
</linearGradient>
<linearGradient id="paint1_linear_21296_6110" x1="9.17676" y1="31.804" x2="40.3096" y2="34.8638" gradientUnits="userSpaceOnUse">
<stop stop-color="#0091EF"/>
<stop offset="1" stop-color="#32D7D4"/>
</linearGradient>
<linearGradient id="paint2_linear_21296_6110" x1="15.0469" y1="38.7381" x2="33.9071" y2="40.2151" gradientUnits="userSpaceOnUse">
<stop stop-color="#0091EF"/>
<stop offset="1" stop-color="#32D7D4"/>
</linearGradient>
<linearGradient id="paint3_linear_21296_6110" x1="20.4458" y1="47.0042" x2="27.9093" y2="47.248" gradientUnits="userSpaceOnUse">
<stop stop-color="#0091EF"/>
<stop offset="1" stop-color="#32D7D4"/>
</linearGradient>
<linearGradient id="paint4_linear_21296_6110" x1="17.0684" y1="11.0374" x2="31.4628" y2="12.4065" gradientUnits="userSpaceOnUse">
<stop stop-color="#0091EF"/>
<stop offset="1" stop-color="#32D7D4"/>
</linearGradient>
<clipPath id="clip0_21296_6110">
<rect width="47.8994" height="75.4161" fill="white"/>
</clipPath>
</defs>
</svg>
