<svg width="74" height="73" viewBox="0 0 74 73" fill="none" xmlns="http://www.w3.org/2000/svg">
<g clip-path="url(#clip0_21296_6096)">
<path d="M40.8764 3.8009V0H32.5001V3.8009H20.2854L18.0254 6.02842V38.5041L20.2854 40.6432H53.1628L55.4228 38.4157V6.02842L53.1628 3.8009H40.8764ZM34.6345 2.12146H38.7061V3.7832H34.6345V2.12146ZM53.2166 37.4787L52.2122 38.4687H21.1463L20.1419 37.4787V6.89466L21.1463 5.90466H52.2301L53.2346 6.89466L53.2166 37.4787Z" fill="url(#paint0_linear_21296_6096)"/>
<path d="M38.3118 14.5312H31.1372V22.2038H38.3118C39.344 22.2038 40.334 21.7996 41.064 21.0801C41.7939 20.3607 42.204 19.3849 42.204 18.3675C42.204 17.35 41.7939 16.3743 41.064 15.6549C40.334 14.9354 39.344 14.5313 38.3118 14.5312V14.5312ZM38.3118 20.0823H33.3254V16.6527H38.3118C38.6996 16.7485 39.0438 16.9693 39.2898 17.2799C39.5358 17.5906 39.6694 17.9734 39.6694 18.3675C39.6694 18.7616 39.5358 19.1444 39.2898 19.4551C39.0438 19.7658 38.6996 19.9865 38.3118 20.0823Z" fill="url(#paint1_linear_21296_6096)"/>
<path d="M38.3122 10.2188H26.8149V34.2087H33.3258V26.5008H38.3122C40.4362 26.4032 42.4404 25.5029 43.9086 23.9868C45.3767 22.4708 46.1959 20.4556 46.1959 18.3598C46.1959 16.264 45.3767 14.2487 43.9086 12.7327C42.4404 11.2167 40.4362 10.3163 38.3122 10.2188ZM38.3122 24.3617H31.1376V32.0519H28.9673V12.3402H38.3122C39.9343 12.3402 41.49 12.9753 42.6371 14.1059C43.7841 15.2364 44.4285 16.7697 44.4285 18.3686C44.4285 19.9674 43.7841 21.5008 42.6371 22.6313C41.49 23.7619 39.9343 24.397 38.3122 24.397" fill="url(#paint2_linear_21296_6096)"/>
<path d="M38.7244 70.2383H34.6529V42.4121H32.5005V72.3597H40.8768V42.4121H38.7244V70.2383Z" fill="url(#paint3_linear_21296_6096)"/>
<path d="M10.4568 13.0473L11.2281 12.3225L6.94125 7.81445L6.15206 8.53923C2.40085 12.0672 0.209383 16.9087 0.0516253 22.0168C-0.106133 27.1248 1.7825 32.0888 5.30905 35.8351L6.04443 36.6129L10.6182 32.3878L9.88282 31.6099C7.46235 29.0729 6.16313 25.6924 6.27076 22.2115C6.37839 18.7306 7.88407 15.4343 10.4568 13.0473ZM6.16999 33.5899C3.45776 30.363 2.03249 26.272 2.16127 22.0835C2.29004 17.895 3.96402 13.8966 6.8695 10.8375L8.21473 12.2518C5.68205 14.9544 4.22553 18.4681 4.11347 22.1455C4.0014 25.8229 5.24135 29.4164 7.6049 32.264L6.16999 33.5899Z" fill="url(#paint4_linear_21296_6096)"/>
<path d="M16.0887 18.7757L16.8779 18.0509L12.5911 13.5605L11.8019 14.2853C10.7145 15.2915 9.83889 16.4991 9.22512 17.8389C8.61135 19.1787 8.27143 20.6246 8.22479 22.094C8.17815 23.5633 8.4257 25.0273 8.95329 26.4024C9.48089 27.7774 10.2782 29.0365 11.2996 30.1077L12.035 30.8856L16.6088 26.6427L15.8734 25.8825C14.9551 24.9144 14.4624 23.6278 14.5027 22.3031C14.5431 20.9784 15.1132 19.7231 16.0887 18.8111V18.7757ZM13.6314 26.5367L12.1785 27.8802C10.9487 26.2386 10.3154 24.2367 10.3805 22.1971C10.4455 20.1575 11.2053 18.1988 12.5373 16.6366L13.8825 18.0509C12.9278 19.254 12.3885 20.7264 12.3433 22.2531C12.2981 23.7798 12.7495 25.2808 13.6314 26.5367Z" fill="url(#paint5_linear_21296_6096)"/>
<path d="M67.2078 8.53923L66.4366 7.81445L62.1318 12.3225L62.921 13.0473C65.4937 15.4343 66.9994 18.7306 67.1071 22.2115C67.2147 25.6924 65.9155 29.0729 63.495 31.6099L62.7596 32.3878L67.3334 36.6129L68.0688 35.8351C71.6195 32.0992 73.5227 27.1283 73.3613 22.0118C73.1999 16.8953 70.9871 12.0505 67.2078 8.53923V8.53923ZM67.2078 33.5899L65.7729 32.264C68.1365 29.4164 69.3764 25.8229 69.2644 22.1455C69.1523 18.4681 67.6958 14.9544 65.1631 12.2518L66.5083 10.8375C69.4138 13.8966 71.0878 17.895 71.2165 22.0835C71.3453 26.272 69.9201 30.363 67.2078 33.5899" fill="url(#paint6_linear_21296_6096)"/>
<path d="M61.5394 14.2853L60.7502 13.5605L56.4634 18.0509L57.2526 18.7757C58.2239 19.6902 58.7909 20.9447 58.8312 22.268C58.8715 23.5912 58.3817 24.877 57.4678 25.8472L56.7324 26.6073L61.2883 30.8503L62.0416 30.0724C63.0631 29.0012 63.8604 27.7421 64.388 26.367C64.9156 24.992 65.1631 23.528 65.1165 22.0586C65.0698 20.5893 64.7299 19.1434 64.1161 17.8035C63.5024 16.4637 62.6268 15.2562 61.5394 14.25V14.2853ZM61.1627 27.8095L59.7099 26.4659C60.5918 25.2101 61.0431 23.7091 60.9979 22.1824C60.9528 20.6557 60.4134 19.1833 59.4588 17.9802L60.804 16.5659C62.136 18.1281 62.8957 20.0868 62.9608 22.1264C63.0259 24.166 62.3925 26.1679 61.1627 27.8095" fill="url(#paint7_linear_21296_6096)"/>
<path d="M51.8003 36.0471H49.6479V27.2078H51.8003V36.0471ZM51.8003 25.8642H49.6479V23.7428H51.8003V25.8642ZM51.8003 22.3285H49.6479V20.207H51.8003V22.3285Z" fill="url(#paint8_linear_21296_6096)"/>
<path d="M37.756 68.4159H35.6216V59.5765H37.756V68.4159ZM37.756 58.2153H35.6216V56.1822H37.756V58.2153ZM37.756 54.6795H35.6216V52.6465H37.756V54.6795Z" fill="url(#paint9_linear_21296_6096)"/>
</g>
<defs>
<linearGradient id="paint0_linear_21296_6096" x1="18.0254" y1="20.3216" x2="57.7462" y2="21.5054" gradientUnits="userSpaceOnUse">
<stop stop-color="#0091EF"/>
<stop offset="1" stop-color="#32D7D4"/>
</linearGradient>
<linearGradient id="paint1_linear_21296_6096" x1="31.1372" y1="18.3675" x2="42.8763" y2="18.916" gradientUnits="userSpaceOnUse">
<stop stop-color="#0091EF"/>
<stop offset="1" stop-color="#32D7D4"/>
</linearGradient>
<linearGradient id="paint2_linear_21296_6096" x1="26.8149" y1="22.2137" x2="47.4041" y2="22.7525" gradientUnits="userSpaceOnUse">
<stop stop-color="#0091EF"/>
<stop offset="1" stop-color="#32D7D4"/>
</linearGradient>
<linearGradient id="paint3_linear_21296_6096" x1="32.5005" y1="57.3859" x2="41.4043" y2="57.4666" gradientUnits="userSpaceOnUse">
<stop stop-color="#0091EF"/>
<stop offset="1" stop-color="#32D7D4"/>
</linearGradient>
<linearGradient id="paint4_linear_21296_6096" x1="0.0424805" y1="22.2137" x2="11.9316" y2="22.3633" gradientUnits="userSpaceOnUse">
<stop stop-color="#0091EF"/>
<stop offset="1" stop-color="#32D7D4"/>
</linearGradient>
<linearGradient id="paint5_linear_21296_6096" x1="8.21924" y1="22.2231" x2="17.4216" y2="22.372" gradientUnits="userSpaceOnUse">
<stop stop-color="#0091EF"/>
<stop offset="1" stop-color="#32D7D4"/>
</linearGradient>
<linearGradient id="paint6_linear_21296_6096" x1="62.1318" y1="22.2137" x2="74.0777" y2="22.3647" gradientUnits="userSpaceOnUse">
<stop stop-color="#0091EF"/>
<stop offset="1" stop-color="#32D7D4"/>
</linearGradient>
<linearGradient id="paint7_linear_21296_6096" x1="56.4634" y1="22.2054" x2="65.6657" y2="22.3547" gradientUnits="userSpaceOnUse">
<stop stop-color="#0091EF"/>
<stop offset="1" stop-color="#32D7D4"/>
</linearGradient>
<linearGradient id="paint8_linear_21296_6096" x1="49.6479" y1="28.1271" x2="51.936" y2="28.1371" gradientUnits="userSpaceOnUse">
<stop stop-color="#0091EF"/>
<stop offset="1" stop-color="#32D7D4"/>
</linearGradient>
<linearGradient id="paint9_linear_21296_6096" x1="35.6216" y1="60.5312" x2="37.8906" y2="60.5411" gradientUnits="userSpaceOnUse">
<stop stop-color="#0091EF"/>
<stop offset="1" stop-color="#32D7D4"/>
</linearGradient>
<clipPath id="clip0_21296_6096">
<rect width="73.3778" height="72.3587" fill="white"/>
</clipPath>
</defs>
</svg>
