<svg width="100" height="100" viewBox="0 0 100 100" fill="none" xmlns="http://www.w3.org/2000/svg">
<g clip-path="url(#clip0_22109_10723)">
<path d="M60.378 58.1599V51.2172H63.2708C62.9654 53.8207 61.9369 56.2153 60.378 58.1599ZM48.1639 63.3027V51.2172H51.0406V63.3027C50.5746 63.3509 50.0925 63.3831 49.6103 63.3831C49.1121 63.3831 48.63 63.3509 48.1639 63.3027ZM35.9177 51.2172H38.8105V58.1599C37.2677 56.2153 36.2231 53.8207 35.9177 51.2172ZM42.0569 51.2172H44.9336V62.5634C43.9211 62.1938 42.9569 61.7117 42.0569 61.117V51.2172ZM57.1477 61.117C56.2477 61.7117 55.2834 62.1938 54.2709 62.5634V51.2172H57.1477V61.117ZM49.5942 35.8211C56.6495 35.8211 62.4672 41.1406 63.2708 47.9869H35.9177C36.7213 41.1406 42.5551 35.8211 49.5942 35.8211ZM49.5942 32.5908C40.2087 32.5908 32.591 40.2246 32.591 49.594C32.591 58.9635 40.2248 66.5973 49.5942 66.5973C58.9798 66.5973 66.5975 58.9635 66.5975 49.594C66.5975 40.2246 58.9798 32.5908 49.5942 32.5908Z" fill="url(#paint0_linear_22109_10723)"/>
<path d="M51.2176 22H47.9873V28.0427H51.2176V22Z" fill="url(#paint1_linear_22109_10723)"/>
<path d="M67.972 28.9347L63.6992 33.2075L65.9833 35.4917L70.2561 31.2188L67.972 28.9347Z" fill="url(#paint2_linear_22109_10723)"/>
<path d="M77.2045 47.9868H71.1618V51.2171H77.2045V47.9868Z" fill="url(#paint3_linear_22109_10723)"/>
<path d="M65.9828 63.7081L63.6987 65.9922L67.9715 70.265L70.2557 67.9809L65.9828 63.7081Z" fill="url(#paint4_linear_22109_10723)"/>
<path d="M51.2176 71.1616H47.9873V77.2043H51.2176V71.1616Z" fill="url(#paint5_linear_22109_10723)"/>
<path d="M33.2094 63.6954L28.9366 67.9683L31.2208 70.2524L35.4936 65.9796L33.2094 63.6954Z" fill="url(#paint6_linear_22109_10723)"/>
<path d="M28.0429 47.9868H22.0002V51.2171H28.0429V47.9868Z" fill="url(#paint7_linear_22109_10723)"/>
<path d="M31.2222 28.9449L28.938 31.229L33.2108 35.5018L35.495 33.2177L31.2222 28.9449Z" fill="url(#paint8_linear_22109_10723)"/>
</g>
<defs>
<linearGradient id="paint0_linear_22109_10723" x1="32.591" y1="49.594" x2="68.7044" y2="50.7638" gradientUnits="userSpaceOnUse">
<stop stop-color="#0091EF"/>
<stop offset="1" stop-color="#32D7D4"/>
</linearGradient>
<linearGradient id="paint1_linear_22109_10723" x1="47.9873" y1="25.0214" x2="51.4203" y2="25.0808" gradientUnits="userSpaceOnUse">
<stop stop-color="#0091EF"/>
<stop offset="1" stop-color="#32D7D4"/>
</linearGradient>
<linearGradient id="paint2_linear_22109_10723" x1="64.8412" y1="34.3496" x2="69.6411" y2="30.0981" gradientUnits="userSpaceOnUse">
<stop stop-color="#0091EF"/>
<stop offset="1" stop-color="#32D7D4"/>
</linearGradient>
<linearGradient id="paint3_linear_22109_10723" x1="71.1618" y1="49.602" x2="77.5622" y2="49.9898" gradientUnits="userSpaceOnUse">
<stop stop-color="#0091EF"/>
<stop offset="1" stop-color="#32D7D4"/>
</linearGradient>
<linearGradient id="paint4_linear_22109_10723" x1="65.8351" y1="68.1286" x2="68.3046" y2="65.7432" gradientUnits="userSpaceOnUse">
<stop stop-color="#0091EF"/>
<stop offset="1" stop-color="#32D7D4"/>
</linearGradient>
<linearGradient id="paint5_linear_22109_10723" x1="47.9873" y1="74.183" x2="51.4203" y2="74.2424" gradientUnits="userSpaceOnUse">
<stop stop-color="#0091EF"/>
<stop offset="1" stop-color="#32D7D4"/>
</linearGradient>
<linearGradient id="paint6_linear_22109_10723" x1="30.0787" y1="69.1103" x2="34.8786" y2="64.8589" gradientUnits="userSpaceOnUse">
<stop stop-color="#0091EF"/>
<stop offset="1" stop-color="#32D7D4"/>
</linearGradient>
<linearGradient id="paint7_linear_22109_10723" x1="22.0002" y1="49.602" x2="28.4005" y2="49.9898" gradientUnits="userSpaceOnUse">
<stop stop-color="#0091EF"/>
<stop offset="1" stop-color="#32D7D4"/>
</linearGradient>
<linearGradient id="paint8_linear_22109_10723" x1="31.0744" y1="33.3654" x2="33.5439" y2="30.98" gradientUnits="userSpaceOnUse">
<stop stop-color="#0091EF"/>
<stop offset="1" stop-color="#32D7D4"/>
</linearGradient>
<clipPath id="clip0_22109_10723">
<rect width="55.2042" height="55.2042" fill="white" transform="translate(22 22)"/>
</clipPath>
</defs>
</svg>
