<svg width="101" height="101" viewBox="0 0 101 101" fill="none" xmlns="http://www.w3.org/2000/svg">
<circle cx="50.5" cy="50.543" r="50" fill="#F3F9FF"/>
<path d="M37 62.543V62.043M34.5 45.043H35C36.1046 45.043 37 45.9384 37 47.043V62.043M34.5 45.043H31.2801C31.0943 45.043 30.91 45.0674 30.7427 45.1485C29.9346 45.5402 27.5 47.2048 27.5 53.043C27.5 58.5178 29.641 60.9341 30.574 61.7271C30.8392 61.9525 31.1831 62.043 31.5311 62.043H37M34.5 45.043V44.043C35 38.8763 38.9 28.543 50.5 28.543C62.1 28.543 66.3333 38.8763 67 44.043V45.043M64 62.043V47.043C64 45.9384 64.8954 45.043 66 45.043H66.5H67M64 62.043V62.543M64 62.043H69.4689C69.8169 62.043 70.1608 61.9525 70.426 61.7271C71.359 60.9341 73.5 58.5178 73.5 53.043C73.5 47.2048 71.0654 45.5402 70.2573 45.1485C70.09 45.0674 69.9057 45.043 69.7199 45.043H67M66.5 62.543C66.5 62.2096 66.5 62.343 66.5 65.543C66.5 68.743 62.5 69.543 60.5 69.543H56M56 69.543C56 68.543 55.3 66.543 52.5 66.543C49.7 66.543 49.6667 66.543 50 66.543C49.1667 66.543 47.5 67.143 47.5 69.543C47.5 71.543 48 73.043 50 73.043C52 73.043 51 73.043 53 73.043C55 73.043 56 72.043 56 69.543Z" stroke="url(#paint0_linear_5314_78702)" stroke-width="1.6" stroke-linecap="round"/>
<defs>
<linearGradient id="paint0_linear_5314_78702" x1="83.8721" y1="-114.188" x2="-6.16985" y2="-104.687" gradientUnits="userSpaceOnUse">
<stop stop-color="#18D8F6"/>
<stop offset="1" stop-color="#1C45DF"/>
</linearGradient>
</defs>
</svg>
