<svg width="24" height="24" viewBox="0 0 24 24" fill="none" xmlns="http://www.w3.org/2000/svg">
<path fill-rule="evenodd" clip-rule="evenodd" d="M14.054 22.2992C18.2054 21.4759 21.4759 18.2054 22.2992 14.054C20.8381 14.8663 18.5368 15.4913 15.7958 15.7958C15.4913 18.5368 14.8663 20.8381 14.054 22.2992ZM12 24C18.6274 24 24 18.6274 24 12C24 5.37258 18.6274 0 12 0C5.37258 0 0 5.37258 0 12C0 18.6274 5.37258 24 12 24ZM9.946 1.70081C5.79465 2.52409 2.52409 5.79465 1.70081 9.946C3.16186 9.13375 5.46318 8.50866 8.20424 8.20424C8.50866 5.46318 9.13375 3.16186 9.946 1.70081ZM8.07148 9.72975C6.49766 9.92096 5.10768 10.2217 3.98906 10.5946C2.99063 10.9274 2.29084 11.2906 1.87148 11.6211C1.62647 11.8142 1.53949 11.9428 1.51032 12C1.53949 12.0572 1.62647 12.1858 1.87148 12.3789C2.29084 12.7094 2.99063 13.0726 3.98906 13.4054C5.10768 13.7783 6.49766 14.079 8.07148 14.2703C8.02456 13.5351 8 12.7762 8 12C8 11.2238 8.02456 10.4649 8.07148 9.72975ZM9.58468 14.4153C9.52945 13.6407 9.5 12.8327 9.5 12C9.5 11.1673 9.52945 10.3593 9.58468 9.58468C10.3593 9.52945 11.1673 9.5 12 9.5C12.8327 9.5 13.6407 9.52945 14.4153 9.58468C14.4705 10.3593 14.5 11.1673 14.5 12C14.5 12.8327 14.4705 13.6407 14.4153 14.4153C13.6407 14.4705 12.8327 14.5 12 14.5C11.1673 14.5 10.3593 14.4705 9.58468 14.4153ZM9.72975 15.9285C9.92096 17.5023 10.2217 18.8923 10.5946 20.0109C10.9274 21.0094 11.2906 21.7092 11.6211 22.1285C11.8142 22.3735 11.9428 22.4605 12 22.4897C12.0572 22.4605 12.1858 22.3735 12.3789 22.1285C12.7094 21.7092 13.0726 21.0094 13.4054 20.0109C13.7783 18.8923 14.079 17.5023 14.2703 15.9285C13.5351 15.9754 12.7762 16 12 16C11.2238 16 10.4649 15.9754 9.72975 15.9285ZM8.20424 15.7958C8.50866 18.5368 9.13375 20.8381 9.946 22.2992C5.79465 21.4759 2.52409 18.2054 1.70081 14.054C3.16186 14.8663 5.46318 15.4913 8.20424 15.7958ZM15.9285 14.2703C17.5023 14.079 18.8923 13.7783 20.0109 13.4054C21.0094 13.0726 21.7092 12.7094 22.1285 12.3789C22.3735 12.1858 22.4605 12.0572 22.4897 12C22.4605 11.9428 22.3735 11.8142 22.1285 11.6211C21.7092 11.2906 21.0094 10.9274 20.0109 10.5946C18.8923 10.2217 17.5023 9.92096 15.9285 9.72975C15.9754 10.4649 16 11.2238 16 12C16 12.7762 15.9754 13.5351 15.9285 14.2703ZM15.7958 8.20424C18.5368 8.50866 20.8381 9.13375 22.2992 9.946C21.4759 5.79465 18.2054 2.52409 14.054 1.70081C14.8663 3.16186 15.4913 5.46318 15.7958 8.20424ZM14.2703 8.07148C14.079 6.49766 13.7783 5.10768 13.4054 3.98906C13.0726 2.99063 12.7094 2.29084 12.3789 1.87148C12.1858 1.62647 12.0572 1.53949 12 1.51032C11.9428 1.53949 11.8142 1.62647 11.6211 1.87148C11.2906 2.29084 10.9274 2.99063 10.5946 3.98906C10.2217 5.10768 9.92096 6.49766 9.72975 8.07148C10.4649 8.02456 11.2238 8 12 8C12.7762 8 13.5351 8.02456 14.2703 8.07148Z" fill="white"/>
</svg>
