<svg width="74" height="54" viewBox="0 0 74 54" fill="none" xmlns="http://www.w3.org/2000/svg">
<path fill-rule="evenodd" clip-rule="evenodd" d="M34 0.5H40C42.7614 0.5 45 2.73858 45 5.5V17.5H46C46.5523 17.5 47 17.9477 47 18.5C47 19.0523 46.5523 19.5 46 19.5H45V22.5C45 25.8137 42.3137 28.5 39 28.5H35C31.6863 28.5 29 25.8137 29 22.5V19.5H28C27.4477 19.5 27 19.0523 27 18.5C27 17.9477 27.4477 17.5 28 17.5H29V5.5C29 2.73858 31.2386 0.5 34 0.5ZM31.2924 4.20658C31.105 4.59822 31 5.03685 31 5.5V17.485C31.0015 17.3846 31.0182 17.2831 31.0513 17.1838L32 14.3377V4.91421L31.2924 4.20658ZM32.7066 2.79237L33.4142 3.5H40.5858L41.2934 2.79237C40.9018 2.60495 40.4631 2.5 40 2.5H34C33.5369 2.5 33.0982 2.60495 32.7066 2.79237ZM42.7076 4.20658L42 4.91421V14.3377L42.9487 17.1838C42.9817 17.2829 42.9984 17.3842 43 17.4843V5.5C43 5.03685 42.8951 4.59822 42.7076 4.20658ZM43 17.5154C42.9946 17.8614 42.8092 18.1901 42.4945 18.3692C40.4936 19.5077 38.789 20.1908 37.0076 20.2054C35.2176 20.22 33.5063 19.5594 31.4888 18.3595C31.1836 18.1779 31.0051 17.8544 31 17.5147V22.5C31 24.7091 32.7909 26.5 35 26.5H39C41.2091 26.5 43 24.7091 43 22.5V17.5154ZM1 21.5C1.55228 21.5 2 21.9477 2 22.5L2 51.5H24L24 22.5C24 21.9477 24.4477 21.5 25 21.5C25.5523 21.5 26 21.9477 26 22.5L26 51.5H48V22.5C48 21.9477 48.4477 21.5 49 21.5C49.5523 21.5 50 21.9477 50 22.5V51.5H72V22.5C72 21.9477 72.4477 21.5 73 21.5C73.5523 21.5 74 21.9477 74 22.5V52.5C74 53.0523 73.5523 53.5 73 53.5H49H25H0.999999C0.447714 53.5 0 53.0523 0 52.5V22.5C0 21.9477 0.447715 21.5 1 21.5ZM10 21.5H16C18.7614 21.5 21 23.7386 21 26.5V38.5H22C22.5523 38.5 23 38.9477 23 39.5C23 40.0523 22.5523 40.5 22 40.5H21V43.5C21 46.8137 18.3137 49.5 15 49.5H11C7.68629 49.5 5 46.8137 5 43.5V40.5H4C3.44772 40.5 3 40.0523 3 39.5C3 38.9477 3.44772 38.5 4 38.5H5V26.5C5 23.7386 7.23858 21.5 10 21.5ZM7.29237 25.2066C7.10495 25.5982 7 26.0369 7 26.5V38.485C7.0015 38.3846 7.0182 38.2831 7.05132 38.1838L8 35.3377V25.9142L7.29237 25.2066ZM8.70658 23.7924L9.41421 24.5H16.5858L17.2934 23.7924C16.9018 23.605 16.4631 23.5 16 23.5H10C9.53685 23.5 9.09822 23.605 8.70658 23.7924ZM18.7076 25.2066L18 25.9142V35.3377L18.9487 38.1838C18.9817 38.2829 18.9984 38.3842 19 38.4843V26.5C19 26.0369 18.895 25.5982 18.7076 25.2066ZM19 38.5154C18.9946 38.8614 18.8092 39.1901 18.4945 39.3691C16.4936 40.5077 14.789 41.1908 13.0076 41.2054C11.2176 41.22 9.50629 40.5594 7.4888 39.3595C7.18362 39.1779 7.00506 38.8544 7 38.5147V43.5C7 45.7091 8.79086 47.5 11 47.5H15C17.2091 47.5 19 45.7091 19 43.5V38.5154ZM10 34.5V26.5H16V34.5H10ZM9.72076 36.5H16.2792L16.7874 38.0246C15.2495 38.8331 14.0912 39.1964 12.9912 39.2054C11.8953 39.2144 10.7397 38.8719 9.20804 38.0382L9.72076 36.5ZM34 13.5V5.5H40V13.5H34ZM33.7208 15.5H40.2792L40.7874 17.0246C39.2495 17.8331 38.0912 18.1964 36.9912 18.2054C35.8953 18.2144 34.7397 17.8719 33.208 17.0382L33.7208 15.5ZM58 21.5H64C66.7614 21.5 69 23.7386 69 26.5V38.5H70C70.5523 38.5 71 38.9477 71 39.5C71 40.0523 70.5523 40.5 70 40.5H69V43.5C69 46.8137 66.3137 49.5 63 49.5H59C55.6863 49.5 53 46.8137 53 43.5V40.5H52C51.4477 40.5 51 40.0523 51 39.5C51 38.9477 51.4477 38.5 52 38.5H53V26.5C53 23.7386 55.2386 21.5 58 21.5ZM55.2924 25.2066C55.1049 25.5982 55 26.0369 55 26.5V38.485C55.0015 38.3846 55.0182 38.2831 55.0513 38.1838L56 35.3377V25.9142L55.2924 25.2066ZM56.7066 23.7924L57.4142 24.5H64.5858L65.2934 23.7924C64.9018 23.605 64.4631 23.5 64 23.5H58C57.5369 23.5 57.0982 23.605 56.7066 23.7924ZM66.7076 25.2066L66 25.9142V35.3377L66.9487 38.1838C66.9817 38.2829 66.9984 38.3842 67 38.4843V26.5C67 26.0369 66.895 25.5982 66.7076 25.2066ZM67 38.5154C66.9946 38.8614 66.8092 39.1901 66.4946 39.3691C64.4936 40.5077 62.789 41.1908 61.0076 41.2054C59.2176 41.22 57.5063 40.5594 55.4888 39.3595C55.1836 39.178 55.0051 38.8544 55 38.5148V43.5C55 45.7091 56.7909 47.5 59 47.5H63C65.2091 47.5 67 45.7091 67 43.5V38.5154ZM58 26.5H64V34.5H58V26.5ZM57.7208 36.5H64.2792L64.7874 38.0246C63.2495 38.8331 62.0912 39.1964 60.9912 39.2054C59.8953 39.2144 58.7397 38.8719 57.208 38.0382L57.7208 36.5ZM37 29.5C37.5523 29.5 38 29.9477 38 30.5V46.0858L41.2929 42.7929C41.6834 42.4024 42.3166 42.4024 42.7071 42.7929C43.0976 43.1834 43.0976 43.8166 42.7071 44.2071L37.7071 49.2071C37.6824 49.2318 37.6564 49.2552 37.6293 49.2772C37.4699 49.4065 37.2699 49.4876 37.0515 49.4987C37.0344 49.4996 37.0173 49.5 37 49.5C36.98 49.5 36.9602 49.4994 36.9405 49.4983C36.7221 49.4854 36.5225 49.4025 36.3639 49.2716C36.3392 49.2513 36.3155 49.2297 36.2929 49.2071L31.2929 44.2071C30.9024 43.8166 30.9024 43.1834 31.2929 42.7929C31.6834 42.4024 32.3166 42.4024 32.7071 42.7929L36 46.0858V30.5C36 29.9477 36.4477 29.5 37 29.5Z" fill="url(#paint0_linear_21755_151)"/>
<defs>
<linearGradient id="paint0_linear_21755_151" x1="-7.21484e-08" y1="27" x2="78.5066" y2="30.5504" gradientUnits="userSpaceOnUse">
<stop stop-color="#0091EF"/>
<stop offset="1" stop-color="#32D7D4"/>
</linearGradient>
</defs>
</svg>
