<svg width="46" height="46" viewBox="0 0 46 46" fill="none" xmlns="http://www.w3.org/2000/svg">
<path fill-rule="evenodd" clip-rule="evenodd" d="M30.6228 0.130381C30.1036 -0.0577341 29.5301 0.210712 29.342 0.729972C29.1539 1.24923 29.4223 1.82267 29.9416 2.01079C33.0183 3.1254 35.9058 4.91602 38.3748 7.38505C40.9057 9.916 42.7239 12.8867 43.8317 16.0503C44.0142 16.5715 44.5848 16.8461 45.106 16.6636C45.6273 16.481 45.9018 15.9105 45.7193 15.3893C44.5144 11.9484 42.5368 8.71866 39.789 5.97084C37.1085 3.29032 33.9693 1.34273 30.6228 0.130381ZM5.676 2.14117C8.22536 -0.408195 12.3812 -0.308915 14.9574 2.26738L19.7535 7.06344C22.3298 9.63974 22.4291 13.7955 19.8797 16.3449L19.2146 17.01C18.4224 17.8022 18.3421 19.0826 19.0842 19.9819C20.1016 21.2149 21.1955 22.4392 22.3787 23.6225C23.562 24.8057 24.7864 25.8996 26.0193 26.917C26.9186 27.6591 28.199 27.5789 28.9912 26.7866L29.6563 26.1215C32.2057 23.5721 36.3615 23.6714 38.9378 26.2477L43.7338 31.0438C46.3101 33.6201 46.4094 37.7758 43.86 40.3252L40.7636 43.4216C37.9715 46.2137 33.2522 46.1043 28.3062 44.2896C23.2735 42.4431 17.6051 38.7075 12.4494 33.5518C7.29372 28.3961 3.55813 22.7277 1.71163 17.6951C-0.103091 12.7491 -0.212532 8.02972 2.57959 5.23758L5.676 2.14117ZM13.5432 3.68159C11.7049 1.84323 8.8161 1.8295 7.09021 3.55538L3.99381 6.65179C2.08317 8.56244 1.83178 12.2162 3.58923 17.0062C5.31489 21.7094 8.86558 27.1396 13.8636 32.1376C18.8616 37.1356 24.2918 40.6863 28.9951 42.412C33.785 44.1694 37.4388 43.918 39.3494 42.0074L42.4458 38.911C44.1717 37.1851 44.158 34.2963 42.3196 32.458L37.5236 27.6619C35.6852 25.8236 32.7964 25.8098 31.0705 27.5357L30.4055 28.2008C28.8895 29.7168 26.4462 29.8623 24.7463 28.4596C23.4723 27.4082 22.1995 26.2717 20.9645 25.0367C19.7295 23.8017 18.593 22.529 17.5416 21.2549C16.1389 19.555 16.2844 17.1117 17.8004 15.5957L18.4655 14.9307C20.1914 13.2048 20.1777 10.316 18.3393 8.47766L13.5432 3.68159ZM29.3656 8.85969C29.5862 8.3534 30.1755 8.12185 30.6818 8.34251C32.1361 8.97635 33.4974 9.88777 34.6846 11.075C35.9429 12.3333 36.8913 13.7871 37.5278 15.3397C37.7373 15.8507 37.4929 16.4348 36.9818 16.6443C36.4708 16.8538 35.8868 16.6094 35.6773 16.0983C35.1395 14.7866 34.3379 13.5567 33.2704 12.4892C32.2631 11.4819 31.1113 10.7114 29.8827 10.1759C29.3764 9.95529 29.1449 9.36598 29.3656 8.85969Z" fill="white"/>
</svg>
