<svg width="24" height="24" viewBox="0 0 24 24" fill="none" xmlns="http://www.w3.org/2000/svg">
<path fill-rule="evenodd" clip-rule="evenodd" d="M11.75 3C16.0356 3 19.5 6.49933 19.5 10.8038C19.5 13.0679 18.3775 14.9894 17.0053 16.6191C16.0352 17.7712 14.8729 18.8494 13.8235 19.8228C13.4055 20.2106 13.0053 20.5818 12.6424 20.9344C12.1521 21.4108 11.3721 21.4103 10.8821 20.9349C10.5048 20.5689 10.0872 20.1838 9.65103 19.7815C8.60863 18.8201 7.4599 17.7606 6.50183 16.6308C5.12395 15.0058 4 13.0874 4 10.8038C4 6.49933 7.46439 3 11.75 3ZM8.75 10.75C8.75 12.4069 10.0931 13.75 11.75 13.75C13.4069 13.75 14.75 12.4069 14.75 10.75C14.75 9.09315 13.4069 7.75 11.75 7.75C10.0931 7.75 8.75 9.09315 8.75 10.75Z" fill="white"/>
</svg>
