<svg width="253" height="40" viewBox="0 0 253 40" fill="none" xmlns="http://www.w3.org/2000/svg">
<g clip-path="url(#clip0)">
<path d="M53.6385 5.92896C53.1618 5.9348 52.6943 6.06164 52.2787 6.29782C51.8632 6.53399 51.5129 6.87194 51.26 7.28066H20.9768C19.4836 7.28066 18.0516 7.88064 16.9957 8.94862C15.9399 10.0166 15.3467 11.4651 15.3467 12.9754C15.3467 14.4858 15.9399 15.9343 16.9957 17.0022C18.0516 18.0702 19.4836 18.6702 20.9768 18.6702H35.9616C38.1272 18.723 40.1864 19.6303 41.6995 21.1981C43.2126 22.7659 44.0597 24.8701 44.0597 27.0611C44.0597 29.2521 43.2126 31.3562 41.6995 32.9241C40.1864 34.4919 38.1272 35.3991 35.9616 35.4519H18.4102C18.1563 35.0505 17.8079 34.7191 17.3961 34.4874C16.9843 34.2558 16.5222 34.1311 16.0511 34.1246C15.2833 34.1246 14.5471 34.4331 14.0042 34.9822C13.4613 35.5313 13.1564 36.276 13.1564 37.0525C13.1564 37.8291 13.4613 38.5738 14.0042 39.1229C14.5471 39.672 15.2833 39.9804 16.0511 39.9804C16.4667 39.9765 16.8765 39.8805 17.2515 39.6993C17.6266 39.518 17.9579 39.2559 18.2221 38.9313H35.9616C39.0342 38.8683 41.9598 37.5895 44.1107 35.3693C46.2617 33.1492 47.4664 30.1646 47.4664 27.0562C47.4664 23.9478 46.2617 20.9632 44.1107 18.7431C41.9598 16.5229 39.0342 15.2441 35.9616 15.1811H20.9768C20.3972 15.1811 19.8413 14.9482 19.4315 14.5337C19.0216 14.1191 18.7914 13.5568 18.7914 12.9706C18.7914 12.3843 19.0216 11.822 19.4315 11.4074C19.8413 10.9929 20.3972 10.76 20.9768 10.76H51.482C51.7473 11.0778 52.0773 11.3338 52.4495 11.5107C52.8217 11.6876 53.2273 11.781 53.6385 11.7848C54.4062 11.7848 55.1425 11.4763 55.6853 10.9272C56.2282 10.3781 56.5332 9.63338 56.5332 8.85685C56.5332 8.08033 56.2282 7.3356 55.6853 6.78651C55.1425 6.23743 54.4062 5.92896 53.6385 5.92896ZM16.0511 38.0822C15.8497 38.0822 15.6529 38.0218 15.4855 37.9086C15.3181 37.7955 15.1876 37.6347 15.1106 37.4466C15.0335 37.2584 15.0134 37.0514 15.0527 36.8517C15.0919 36.6519 15.1889 36.4685 15.3312 36.3245C15.4736 36.1805 15.655 36.0824 15.8525 36.0427C16.0499 36.0029 16.2546 36.0233 16.4406 36.1013C16.6266 36.1792 16.7856 36.3112 16.8975 36.4805C17.0093 36.6498 17.069 36.8489 17.069 37.0525C17.0716 37.1891 17.0471 37.3249 16.9971 37.4518C16.947 37.5787 16.8723 37.6942 16.7775 37.7915C16.6827 37.8889 16.5695 37.966 16.4448 38.0184C16.32 38.0708 16.1861 38.0975 16.0511 38.0968V38.0822ZM53.6385 9.88649C53.4372 9.88649 53.2403 9.82611 53.0729 9.71297C52.9055 9.59983 52.7751 9.43903 52.698 9.25088C52.621 9.06274 52.6008 8.85571 52.6401 8.65598C52.6794 8.45624 52.7763 8.27278 52.9187 8.12878C53.0611 7.98478 53.2424 7.88672 53.4399 7.84699C53.6374 7.80726 53.842 7.82766 54.028 7.90559C54.2141 7.98353 54.3731 8.1155 54.4849 8.28482C54.5968 8.45414 54.6565 8.65321 54.6565 8.85685C54.6584 8.9933 54.6335 9.12876 54.5832 9.25538C54.5329 9.382 54.4582 9.49723 54.3635 9.5944C54.2688 9.69157 54.1559 9.76873 54.0314 9.82138C53.907 9.87404 53.7734 9.90116 53.6385 9.90115V9.88649Z" fill="#F47403"/>
<path d="M35.5563 32.7049C37.0496 32.7049 38.4816 32.1049 39.5375 31.0369C40.5933 29.969 41.1865 28.5205 41.1865 27.0101C41.1865 25.4998 40.5933 24.0513 39.5375 22.9833C38.4816 21.9153 37.0496 21.3154 35.5563 21.3154H20.5522C18.3867 21.2625 16.3275 20.3553 14.8144 18.7875C13.3013 17.2196 12.4542 15.1155 12.4542 12.9245C12.4542 10.7335 13.3013 8.62935 14.8144 7.06151C16.3275 5.49367 18.3867 4.58645 20.5522 4.53363H38.1037C38.3576 4.93508 38.706 5.2665 39.1178 5.49816C39.5295 5.72982 39.9917 5.85446 40.4628 5.86093C41.2305 5.86093 41.9668 5.55246 42.5097 5.00337C43.0525 4.45428 43.3575 3.70955 43.3575 2.93303C43.3575 2.1565 43.0525 1.41179 42.5097 0.862702C41.9668 0.313614 41.2305 0.00512695 40.4628 0.00512695C40.0502 0.0118815 39.6439 0.108692 39.2717 0.288925C38.8996 0.469158 38.5702 0.728569 38.3063 1.04942H20.5522C17.4797 1.11242 14.5541 2.39123 12.4031 4.61138C10.2522 6.83153 9.04749 9.81607 9.04749 12.9245C9.04749 16.0329 10.2522 19.0175 12.4031 21.2376C14.5541 23.4578 17.4797 24.7366 20.5522 24.7996H35.5563C36.136 24.7996 36.6919 25.0325 37.1017 25.447C37.5116 25.8616 37.7418 26.4239 37.7418 27.0101C37.7418 27.5964 37.5116 28.1587 37.1017 28.5732C36.6919 28.9878 36.136 29.2207 35.5563 29.2207H5.05122C4.78589 28.9029 4.45584 28.6469 4.08365 28.47C3.71145 28.2931 3.30589 28.1996 2.89468 28.1959C2.12696 28.1959 1.3907 28.5044 0.847838 29.0535C0.30498 29.6026 0 30.3473 0 31.1238C0 31.9004 0.30498 32.6451 0.847838 33.1942C1.3907 33.7433 2.12696 34.0517 2.89468 34.0517C3.37159 34.0445 3.83912 33.9165 4.25458 33.6796C4.67005 33.4426 5.02022 33.1042 5.27315 32.6951L35.5563 32.7049ZM40.4821 1.90339C40.6835 1.90339 40.8803 1.96377 41.0477 2.07691C41.2151 2.19005 41.3456 2.35087 41.4226 2.53901C41.4996 2.72716 41.5198 2.93418 41.4805 3.13391C41.4413 3.33364 41.3443 3.5171 41.2019 3.6611C41.0596 3.8051 40.8782 3.90316 40.6807 3.94289C40.4833 3.98262 40.2786 3.96223 40.0926 3.8843C39.9066 3.80637 39.7476 3.6744 39.6357 3.50508C39.5239 3.33575 39.4642 3.13667 39.4642 2.93303C39.4642 2.65995 39.5714 2.39806 39.7623 2.20497C39.9532 2.01187 40.2121 1.90339 40.4821 1.90339ZM2.89468 32.1584C2.69335 32.1584 2.49654 32.098 2.32914 31.9848C2.16173 31.8717 2.03125 31.7109 1.95421 31.5227C1.87716 31.3346 1.857 31.1276 1.89628 30.9278C1.93556 30.7281 2.03251 30.5446 2.17488 30.4007C2.31724 30.2567 2.49862 30.1586 2.69609 30.1189C2.89355 30.0791 3.09823 30.0995 3.28424 30.1774C3.47025 30.2554 3.62924 30.3874 3.74109 30.5567C3.85295 30.726 3.91265 30.9251 3.91265 31.1287C3.91138 31.4014 3.80372 31.6625 3.61309 31.8554C3.42246 32.0482 3.16427 32.1571 2.89468 32.1584Z" fill="#F47403"/>
<path d="M65.2075 19.2612C64.5009 18.9381 63.8622 18.4809 63.326 17.9143C62.7811 17.3396 62.346 16.6679 62.0427 15.9331C61.4186 14.3559 61.4186 12.5963 62.0427 11.0191C62.346 10.2843 62.7811 9.61261 63.326 9.03791C63.8609 8.46984 64.4999 8.0124 65.2075 7.69107C65.9417 7.35931 66.7384 7.19281 67.5425 7.20308H90.4491C90.733 7.20319 91.0137 7.26363 91.273 7.38048C91.5323 7.49733 91.7644 7.66799 91.9543 7.88139C92.3576 8.31645 92.5821 8.89047 92.5821 9.48686C92.5821 10.0832 92.3576 10.6573 91.9543 11.0923C91.7599 11.3039 91.5238 11.4719 91.2612 11.5853C90.9986 11.6988 90.7154 11.7553 90.4298 11.7511H67.4509C67.231 11.7491 67.0129 11.7912 66.8092 11.875C66.6055 11.9587 66.4202 12.0825 66.2641 12.2391C66.0947 12.3989 65.961 12.5934 65.8719 12.8097C65.7829 13.026 65.7406 13.259 65.7478 13.4932C65.7574 13.9493 65.9392 14.3844 66.2559 14.7093C66.5726 15.0341 67.0001 15.2241 67.4509 15.2402H87.9356C88.7458 15.2312 89.5485 15.3976 90.2899 15.7282C91.0135 16.0461 91.669 16.5035 92.2197 17.075C92.7682 17.6551 93.2021 18.3359 93.4982 19.0806C93.8187 19.8685 93.9827 20.7125 93.9806 21.5644C93.9822 22.4021 93.8181 23.2317 93.4982 24.0044C93.1986 24.74 92.7649 25.4121 92.2197 25.9856C91.6731 26.5559 91.0162 27.006 90.2899 27.308C89.5464 27.632 88.7451 27.7981 87.9356 27.796H65.0724C64.7869 27.8002 64.5036 27.7437 64.241 27.6302C63.9784 27.5168 63.7423 27.3488 63.5479 27.1372C63.1446 26.7022 62.9202 26.1281 62.9202 25.5318C62.9202 24.9354 63.1446 24.3613 63.5479 23.9263C63.7413 23.7131 63.9771 23.5437 64.2399 23.4293C64.5027 23.3149 64.7864 23.2581 65.0724 23.2626H88.0948C88.5367 23.2575 88.9588 23.0763 89.2695 22.7584C89.5802 22.4405 89.7544 22.0115 89.7544 21.5644C89.7616 21.3297 89.7226 21.0958 89.6398 20.8763C89.557 20.6568 89.4319 20.4562 89.2719 20.2859C89.1242 20.1216 88.9438 19.9906 88.7427 19.9015C88.5415 19.8123 88.324 19.7671 88.1044 19.7687H67.5425C66.737 19.7728 65.9402 19.5996 65.2075 19.2612Z" fill="#1A7DD8"/>
<path d="M102.206 27.2929C101.476 26.9704 100.813 26.51 100.252 25.9363C99.6955 25.3615 99.2475 24.6884 98.9305 23.9502C98.6038 23.1797 98.4395 22.3487 98.448 21.5103V9.46199C98.4416 9.16562 98.4937 8.87095 98.6014 8.59525C98.7091 8.31955 98.8702 8.0684 99.0752 7.85654C99.2686 7.64334 99.5045 7.47396 99.7672 7.35958C100.03 7.24519 100.314 7.18838 100.6 7.19287C100.881 7.19868 101.158 7.26275 101.413 7.3811C101.669 7.49944 101.898 7.66956 102.086 7.88093C102.297 8.0894 102.464 8.33939 102.576 8.6155C102.688 8.89161 102.743 9.188 102.737 9.4864V21.5298C102.735 21.7589 102.78 21.986 102.869 22.1968C102.958 22.4075 103.088 22.5975 103.253 22.7547C103.405 22.9197 103.588 23.0513 103.793 23.1412C103.997 23.231 104.217 23.2772 104.44 23.2768H124.867C125.153 23.272 125.437 23.3287 125.7 23.4431C125.962 23.5575 126.198 23.727 126.391 23.9405C126.797 24.3744 127.023 24.9489 127.023 25.5459C127.023 26.143 126.797 26.7174 126.391 27.1514C126.197 27.3635 125.961 27.5318 125.699 27.6453C125.436 27.7588 125.152 27.815 124.867 27.8102H104.585C103.765 27.8055 102.955 27.6294 102.206 27.2929Z" fill="#1A7DD8"/>
<path d="M135.201 27.1271C135.003 27.3351 134.766 27.5005 134.504 27.6136C134.241 27.7266 133.959 27.7848 133.674 27.7848C133.389 27.7848 133.107 27.7266 132.844 27.6136C132.582 27.5005 132.345 27.3351 132.147 27.1271C131.942 26.9144 131.781 26.6624 131.673 26.3859C131.565 26.1094 131.513 25.8139 131.52 25.5168V9.46213C131.513 9.16576 131.566 8.87108 131.673 8.59538C131.781 8.31968 131.942 8.06853 132.147 7.85667C132.344 7.64684 132.58 7.47971 132.843 7.3655C133.105 7.25129 133.388 7.19238 133.674 7.19238C133.96 7.19238 134.243 7.25129 134.505 7.3655C134.768 7.47971 135.004 7.64684 135.201 7.85667C135.405 8.06917 135.566 8.32043 135.673 8.59598C135.781 8.87152 135.833 9.1659 135.828 9.46213V25.5168C135.834 25.8138 135.781 26.1089 135.673 26.3853C135.566 26.6616 135.405 26.9137 135.201 27.1271Z" fill="#1A7DD8"/>
<path d="M168.63 8.04198C168.821 7.77778 169.072 7.56315 169.361 7.41559C169.651 7.26803 169.97 7.19172 170.294 7.19289C170.58 7.1884 170.864 7.24521 171.127 7.3596C171.389 7.47398 171.625 7.64336 171.819 7.85656C172.024 8.06842 172.185 8.31957 172.292 8.59527C172.4 8.87096 172.452 9.16564 172.446 9.46201C172.47 9.95813 172.31 10.4455 171.997 10.8284L171.954 10.8772L161.094 26.2779C160.546 27.0075 159.85 27.6098 159.053 28.0444C158.256 28.4832 157.366 28.7191 156.459 28.7318C155.552 28.7446 154.656 28.5338 153.848 28.1176C153.059 27.7154 152.375 27.1322 151.85 26.4146L140.942 11.0675C140.761 10.8444 140.611 10.5983 140.493 10.3355C140.375 10.06 140.314 9.76255 140.315 9.46201C140.308 9.16564 140.361 8.87096 140.468 8.59527C140.576 8.31957 140.737 8.06842 140.942 7.85656C141.135 7.64336 141.371 7.47398 141.634 7.3596C141.897 7.24521 142.181 7.1884 142.467 7.19289C142.803 7.18355 143.137 7.26109 143.435 7.41818C143.734 7.57527 143.989 7.80674 144.174 8.09078L154.629 22.7791C154.877 23.0694 155.139 23.3463 155.415 23.6087C155.535 23.7483 155.684 23.8603 155.85 23.937C156.017 24.0137 156.197 24.0534 156.38 24.0534C156.563 24.0534 156.744 24.0137 156.911 23.937C157.077 23.8603 157.225 23.7483 157.345 23.6087C157.616 23.3546 157.865 23.077 158.088 22.7791L168.63 8.04198Z" fill="#1A7DD8"/>
<path d="M180.614 27.1271C180.416 27.3351 180.179 27.5005 179.916 27.6136C179.654 27.7266 179.372 27.7848 179.087 27.7848C178.801 27.7848 178.519 27.7266 178.257 27.6136C177.994 27.5005 177.757 27.3351 177.56 27.1271C177.355 26.9144 177.193 26.6624 177.086 26.3859C176.978 26.1094 176.926 25.8139 176.933 25.5168V9.46213C176.926 9.16576 176.978 8.87108 177.086 8.59538C177.194 8.31968 177.355 8.06853 177.56 7.85667C177.756 7.64684 177.993 7.47971 178.256 7.3655C178.518 7.25129 178.801 7.19238 179.087 7.19238C179.372 7.19238 179.655 7.25129 179.918 7.3655C180.18 7.47971 180.417 7.64684 180.614 7.85667C180.819 8.06853 180.98 8.31968 181.087 8.59538C181.195 8.87108 181.247 9.16576 181.241 9.46213V25.5168C181.247 25.8139 181.195 26.1094 181.088 26.3859C180.98 26.6624 180.819 26.9144 180.614 27.1271Z" fill="#1A7DD8"/>
<path d="M211.756 15.6253C211.624 14.9582 211.365 14.3235 210.993 13.7563C210.593 13.1567 210.063 12.6563 209.445 12.2924C208.674 11.8722 207.806 11.6683 206.931 11.7019H195.063C194.181 11.6631 193.306 11.8672 192.53 12.2924C191.919 12.658 191.398 13.1585 191.006 13.7563C190.631 14.3221 190.37 14.9573 190.238 15.6253C190.112 16.2385 190.045 16.8629 190.041 17.4894V25.5167C190.046 25.8141 189.993 26.1097 189.885 26.3862C189.776 26.6627 189.614 26.9145 189.409 27.1271C189.212 27.3355 188.975 27.5014 188.713 27.6148C188.451 27.7281 188.169 27.7866 187.884 27.7866C187.599 27.7866 187.317 27.7281 187.055 27.6148C186.793 27.5014 186.556 27.3355 186.36 27.1271C186.154 26.9145 185.992 26.6627 185.883 26.3862C185.775 26.1097 185.722 25.8141 185.728 25.5167V17.4894C185.732 16.2636 185.922 15.0457 186.292 13.8783C186.65 12.6905 187.203 11.5721 187.928 10.5698C188.629 9.59107 189.514 8.76193 190.533 8.12986C191.573 7.49204 192.771 7.16392 193.987 7.18317H208.46C209.628 7.2288 210.761 7.59668 211.736 8.24697C212.696 8.89709 213.526 9.72494 214.182 10.6869C214.864 11.6844 215.385 12.7845 215.726 13.9466C216.079 15.0938 216.262 16.2879 216.266 17.4894V25.5167C216.273 25.8138 216.221 26.1093 216.113 26.3858C216.006 26.6623 215.844 26.9143 215.639 27.1271C215.442 27.335 215.205 27.5005 214.942 27.6135C214.68 27.7265 214.398 27.7848 214.112 27.7848C213.827 27.7848 213.545 27.7265 213.283 27.6135C213.02 27.5005 212.783 27.335 212.585 27.1271C212.38 26.9143 212.219 26.6623 212.111 26.3858C212.004 26.1093 211.952 25.8138 211.958 25.5167V17.4894C211.952 16.8628 211.884 16.2384 211.756 15.6253Z" fill="#1A7DD8"/>
<path d="M232.602 17.4894C232.595 17.1926 232.648 16.8974 232.757 16.6216C232.865 16.3458 233.028 16.0949 233.234 15.8839C233.428 15.6719 233.664 15.5036 233.927 15.39C234.19 15.2765 234.473 15.2203 234.759 15.2251H247.611C248.337 15.2253 249.054 15.3834 249.715 15.6887C250.361 15.9807 250.946 16.3966 251.437 16.9136C251.939 17.4434 252.33 18.0709 252.585 18.7582C252.854 19.4735 252.992 20.2326 252.99 20.998V22.0325C252.992 22.7995 252.855 23.5603 252.585 24.2772C252.329 24.9639 251.938 25.5913 251.437 26.1218C250.946 26.6388 250.361 27.0547 249.715 27.3467C249.05 27.6483 248.329 27.8015 247.601 27.7956H228.564C227.404 27.8159 226.264 27.4882 225.288 26.8538C224.321 26.2123 223.49 25.383 222.842 24.4139C222.158 23.3927 221.636 22.2699 221.294 21.0858C220.944 19.921 220.762 18.7114 220.753 17.4943C220.758 16.2685 220.948 15.0506 221.318 13.8832C221.676 12.6954 222.229 11.577 222.953 10.5747C223.654 9.59596 224.54 8.76682 225.558 8.13475C226.599 7.49692 227.796 7.1688 229.013 7.18806H250.843C251.132 7.18724 251.417 7.24864 251.68 7.36813C251.943 7.48763 252.177 7.66247 252.368 7.881C252.773 8.31495 252.999 8.8894 252.999 9.48647C252.999 10.0835 252.773 10.658 252.368 11.0919C252.174 11.3035 251.937 11.4715 251.675 11.585C251.412 11.6984 251.129 11.7549 250.843 11.7507H230.002C229.119 11.7113 228.241 11.9154 227.464 12.3412C226.854 12.7083 226.334 13.2085 225.939 13.8051C225.566 14.3712 225.307 15.0064 225.177 15.6741C224.907 16.9035 224.907 18.1778 225.177 19.4072C225.307 20.0734 225.566 20.7069 225.939 21.2713C226.334 21.8679 226.854 22.3681 227.464 22.7352C228.24 23.1636 229.118 23.3678 230.002 23.3257H247.433C247.622 23.3202 247.808 23.2702 247.976 23.1796C248.143 23.089 248.288 22.9602 248.397 22.8035C248.681 22.461 248.832 22.0256 248.822 21.5787C248.833 21.1374 248.699 20.705 248.441 20.349C248.329 20.1847 248.178 20.0514 248.002 19.9611C247.825 19.8708 247.63 19.8263 247.433 19.8317H234.759C234.473 19.8365 234.189 19.7798 233.926 19.6654C233.663 19.551 233.427 19.3815 233.234 19.1681C233.018 18.9486 232.851 18.6858 232.742 18.3966C232.633 18.1074 232.585 17.7984 232.602 17.4894Z" fill="#1A7DD8"/>
</g>
<defs>
<clipPath id="clip0">
<rect width="253" height="40" fill="white"/>
</clipPath>
</defs>
</svg>
