<svg width="203" height="45" viewBox="0 0 203 45" fill="none" xmlns="http://www.w3.org/2000/svg">
<rect y="0.871094" width="43.2586" height="43.2586" rx="21.6293" fill="#FE8258"/>
<path d="M33.3732 15.9785C33.1521 15.9812 32.9353 16.0401 32.7425 16.1496C32.5498 16.2591 32.3874 16.4158 32.2701 16.6054H18.2257C17.5332 16.6054 16.869 16.8837 16.3793 17.3789C15.8897 17.8742 15.6146 18.546 15.6146 19.2465C15.6146 19.9469 15.8897 20.6187 16.3793 21.114C16.869 21.6093 17.5332 21.8875 18.2257 21.8875H25.1752C26.1795 21.912 27.1345 22.3328 27.8362 23.0599C28.538 23.787 28.9308 24.7628 28.9308 25.779C28.9308 26.7951 28.538 27.7709 27.8362 28.4981C27.1345 29.2252 26.1795 29.6459 25.1752 29.6704H17.0353C16.9176 29.4842 16.756 29.3305 16.565 29.2231C16.3741 29.1157 16.1597 29.0578 15.9412 29.0548C15.5852 29.0548 15.2437 29.1979 14.992 29.4525C14.7402 29.7072 14.5988 30.0526 14.5988 30.4127C14.5988 30.7728 14.7402 31.1182 14.992 31.3729C15.2437 31.6275 15.5852 31.7706 15.9412 31.7706C16.134 31.7688 16.324 31.7243 16.498 31.6402C16.6719 31.5561 16.8256 31.4346 16.9481 31.284H25.1752C26.6001 31.2548 27.9569 30.6617 28.9545 29.6321C29.952 28.6024 30.5107 27.2183 30.5107 25.7767C30.5107 24.3351 29.952 22.951 28.9545 21.9213C27.9569 20.8917 26.6001 20.2986 25.1752 20.2694H18.2257C17.9568 20.2694 17.699 20.1614 17.509 19.9691C17.3189 19.7769 17.2121 19.5161 17.2121 19.2442C17.2121 18.9723 17.3189 18.7115 17.509 18.5193C17.699 18.327 17.9568 18.219 18.2257 18.219H32.373C32.4961 18.3664 32.6491 18.4851 32.8218 18.5672C32.9944 18.6492 33.1825 18.6925 33.3732 18.6943C33.7292 18.6943 34.0707 18.5512 34.3224 18.2966C34.5742 18.0419 34.7156 17.6965 34.7156 17.3364C34.7156 16.9763 34.5742 16.6309 34.3224 16.3762C34.0707 16.1216 33.7292 15.9785 33.3732 15.9785V15.9785ZM15.9412 30.8902C15.8478 30.8902 15.7566 30.8622 15.6789 30.8098C15.6013 30.7573 15.5408 30.6827 15.5051 30.5955C15.4693 30.5082 15.46 30.4122 15.4782 30.3196C15.4964 30.2269 15.5414 30.1418 15.6074 30.0751C15.6734 30.0083 15.7575 29.9628 15.8491 29.9444C15.9407 29.9259 16.0356 29.9354 16.1219 29.9715C16.2082 30.0077 16.2819 30.0689 16.3338 30.1474C16.3856 30.2259 16.4133 30.3183 16.4133 30.4127C16.4145 30.4761 16.4032 30.539 16.38 30.5979C16.3567 30.6568 16.3221 30.7103 16.2781 30.7554C16.2341 30.8006 16.1817 30.8363 16.1238 30.8607C16.066 30.885 16.0039 30.8973 15.9412 30.897V30.8902ZM33.3732 17.8139C33.2798 17.8139 33.1885 17.7859 33.1109 17.7334C33.0332 17.681 32.9727 17.6064 32.937 17.5191C32.9013 17.4319 32.8919 17.3359 32.9101 17.2432C32.9284 17.1506 32.9733 17.0655 33.0393 16.9987C33.1054 16.9319 33.1895 16.8865 33.2811 16.868C33.3726 16.8496 33.4676 16.8591 33.5538 16.8952C33.6401 16.9314 33.7138 16.9926 33.7657 17.0711C33.8176 17.1496 33.8453 17.2419 33.8453 17.3364C33.8462 17.3997 33.8346 17.4625 33.8113 17.5212C33.788 17.5799 33.7533 17.6334 33.7094 17.6784C33.6655 17.7235 33.6131 17.7593 33.5554 17.7837C33.4977 17.8081 33.4357 17.8207 33.3732 17.8207V17.8139Z" fill="white"/>
<path d="M24.9872 28.3957C25.6797 28.3957 26.3438 28.1174 26.8335 27.6221C27.3232 27.1268 27.5983 26.4551 27.5983 25.7546C27.5983 25.0541 27.3232 24.3824 26.8335 23.8871C26.3438 23.3918 25.6797 23.1135 24.9872 23.1135H18.0287C17.0244 23.089 16.0694 22.6683 15.3677 21.9412C14.6659 21.2141 14.2731 20.2382 14.2731 19.2221C14.2731 18.206 14.6659 17.2301 15.3677 16.503C16.0694 15.7759 17.0244 15.3552 18.0287 15.3307H26.1685C26.2863 15.5168 26.4479 15.6705 26.6389 15.778C26.8298 15.8854 27.0442 15.9432 27.2627 15.9462C27.6187 15.9462 27.9602 15.8032 28.2119 15.5485C28.4637 15.2939 28.6051 14.9485 28.6051 14.5883C28.6051 14.2282 28.4637 13.8828 28.2119 13.6282C27.9602 13.3735 27.6187 13.2305 27.2627 13.2305C27.0713 13.2336 26.8829 13.2785 26.7103 13.3621C26.5377 13.4457 26.3849 13.566 26.2625 13.7148H18.0287C16.6038 13.744 15.2469 14.3371 14.2494 15.3667C13.2519 16.3964 12.6932 17.7805 12.6932 19.2221C12.6932 20.6637 13.2519 22.0478 14.2494 23.0775C15.2469 24.1071 16.6038 24.7002 18.0287 24.7294H24.9872C25.256 24.7294 25.5138 24.8374 25.7039 25.0297C25.894 25.2219 26.0007 25.4827 26.0007 25.7546C26.0007 26.0265 25.894 26.2873 25.7039 26.4795C25.5138 26.6718 25.256 26.7798 24.9872 26.7798H10.8398C10.7167 26.6324 10.5637 26.5137 10.3911 26.4316C10.2185 26.3496 10.0304 26.3063 9.83966 26.3045C9.48362 26.3045 9.14216 26.4476 8.89039 26.7022C8.63863 26.9569 8.49719 27.3023 8.49719 27.6624C8.49719 28.0225 8.63863 28.3679 8.89039 28.6226C9.14216 28.8772 9.48362 29.0203 9.83966 29.0203C10.0608 29.0169 10.2777 28.9576 10.4703 28.8477C10.663 28.7378 10.8254 28.5808 10.9427 28.3911L24.9872 28.3957ZM27.2716 14.1108C27.365 14.1108 27.4563 14.1388 27.5339 14.1913C27.6115 14.2438 27.672 14.3184 27.7078 14.4056C27.7435 14.4929 27.7529 14.5889 27.7346 14.6815C27.7164 14.7741 27.6715 14.8592 27.6054 14.926C27.5394 14.9928 27.4553 15.0383 27.3637 15.0567C27.2721 15.0751 27.1772 15.0657 27.0909 15.0295C27.0047 14.9934 26.9309 14.9322 26.8791 14.8536C26.8272 14.7751 26.7995 14.6828 26.7995 14.5883C26.7995 14.4617 26.8492 14.3402 26.9378 14.2507C27.0263 14.1611 27.1464 14.1108 27.2716 14.1108V14.1108ZM9.83966 28.1422C9.74629 28.1422 9.65501 28.1142 9.57738 28.0617C9.49974 28.0092 9.43923 27.9347 9.4035 27.8474C9.36776 27.7602 9.35841 27.6641 9.37663 27.5715C9.39485 27.4789 9.43981 27.3938 9.50584 27.327C9.57186 27.2602 9.65598 27.2148 9.74756 27.1963C9.83914 27.1779 9.93406 27.1874 10.0203 27.2235C10.1066 27.2596 10.1803 27.3208 10.2322 27.3994C10.2841 27.4779 10.3118 27.5702 10.3118 27.6647C10.3112 27.7911 10.2612 27.9122 10.1728 28.0017C10.0844 28.0911 9.96469 28.1416 9.83966 28.1422V28.1422Z" fill="white"/>
<path d="M55.4212 23.5028C54.8508 23.2494 54.3514 22.9026 53.9229 22.4678C53.4944 22.0329 53.156 21.5234 52.9049 20.9445C52.6566 20.363 52.5283 19.7334 52.5283 19.0558C52.5283 18.3782 52.6539 17.7486 52.9049 17.1671C53.156 16.5855 53.4944 16.076 53.9229 15.6411C54.3514 15.2063 54.8508 14.8595 55.4212 14.6061C55.9943 14.3527 56.6111 14.2246 57.277 14.2246H75.4992C75.9767 14.2246 76.3807 14.3953 76.7136 14.7341C77.0466 15.0729 77.213 15.4864 77.213 15.9693C77.213 16.4548 77.0466 16.8656 76.7136 17.2044C76.3807 17.5432 75.9767 17.7139 75.4992 17.7139H57.206C56.8485 17.7139 56.5319 17.8393 56.259 18.0954C55.9834 18.3488 55.8496 18.6716 55.8496 19.0585C55.8496 19.4213 55.9861 19.736 56.259 20.0028C56.5319 20.2696 56.8485 20.403 57.206 20.403H73.4987C74.1646 20.403 74.7896 20.5283 75.3736 20.7844C75.9549 21.0379 76.4625 21.382 76.891 21.8195C77.3195 22.2543 77.6579 22.7692 77.9089 23.3614C78.1573 23.9537 78.2828 24.5912 78.2828 25.2688C78.2828 25.9464 78.1573 26.576 77.9089 27.1575C77.6579 27.7391 77.3195 28.246 76.891 28.6835C76.4625 29.1183 75.9576 29.4571 75.3736 29.6998C74.7896 29.9426 74.1646 30.0626 73.4987 30.0626H55.312C54.8344 30.0626 54.4305 29.8946 54.0976 29.5531C53.7619 29.2143 53.5981 28.8035 53.5981 28.318C53.5981 27.8351 53.7619 27.4243 54.0976 27.0828C54.4305 26.744 54.8344 26.5733 55.312 26.5733H73.6406C73.9981 26.5733 74.3065 26.4453 74.5685 26.1918C74.8305 25.9384 74.9615 25.629 74.9615 25.2662C74.9615 24.8793 74.8305 24.5512 74.5685 24.2844C74.3065 24.0177 73.9954 23.8843 73.6406 23.8843H57.2742C56.6111 23.8843 55.9915 23.7562 55.4212 23.5028Z" fill="#1A7DD8"/>
<path d="M84.5376 29.6758C83.9427 29.4224 83.4241 29.0756 82.9848 28.6408C82.5454 28.2059 82.1933 27.6964 81.9313 27.1149C81.6693 26.5333 81.5383 25.9037 81.5383 25.2261V15.9693C81.5383 15.4864 81.7048 15.0756 82.0378 14.7341C82.3707 14.3953 82.7746 14.2246 83.2522 14.2246C83.7052 14.2246 84.1037 14.3953 84.4503 14.7341C84.7942 15.0729 84.9688 15.4864 84.9688 15.9693V25.2288C84.9688 25.5916 85.1053 25.9064 85.3782 26.1732C85.6538 26.4399 85.9677 26.5733 86.3252 26.5733H102.574C103.052 26.5733 103.456 26.744 103.789 27.0828C104.122 27.4216 104.288 27.8325 104.288 28.318C104.288 28.8035 104.122 29.2143 103.789 29.5531C103.456 29.8919 103.052 30.0626 102.574 30.0626H86.4316C85.763 30.0573 85.1326 29.9293 84.5376 29.6758Z" fill="#1A7DD8"/>
<path d="M110.47 29.5478C110.134 29.8866 109.73 30.0573 109.255 30.0573C108.778 30.0573 108.374 29.8893 108.041 29.5478C107.708 29.209 107.542 28.7982 107.542 28.3126V15.9693C107.542 15.4864 107.708 15.0756 108.041 14.7341C108.374 14.3953 108.778 14.2246 109.255 14.2246C109.733 14.2246 110.137 14.3953 110.47 14.7341C110.803 15.0729 110.969 15.4864 110.969 15.9693V28.3153C110.969 28.7982 110.8 29.209 110.47 29.5478Z" fill="#1A7DD8"/>
<path d="M136.751 14.877C137.109 14.4421 137.548 14.2234 138.072 14.2234C138.55 14.2234 138.954 14.3941 139.287 14.7329C139.619 15.0717 139.786 15.4852 139.786 15.968C139.786 16.4029 139.666 16.755 139.428 17.0218L139.393 17.0591L130.753 28.8956C130.324 29.4532 129.784 29.9067 129.129 30.2561C128.474 30.6083 127.767 30.7817 127.006 30.7817C126.291 30.7817 125.619 30.6243 124.989 30.3095C124.358 29.9947 123.829 29.5599 123.4 29.0023L114.725 17.2005C114.583 17.0298 114.463 16.843 114.367 16.6376C114.272 16.4322 114.225 16.2081 114.225 15.9654C114.225 15.4825 114.392 15.0717 114.725 14.7302C115.058 14.3914 115.462 14.2207 115.939 14.2207C116.512 14.2207 116.963 14.4501 117.295 14.9116L125.614 26.2039C125.78 26.3987 125.99 26.6094 126.239 26.8388C126.49 27.0683 126.746 27.183 127.006 27.183C127.268 27.183 127.524 27.0683 127.772 26.8388C128.024 26.6094 128.217 26.396 128.362 26.2039L136.751 14.877Z" fill="#1A7DD8"/>
<path d="M145.97 29.5478C145.634 29.8866 145.23 30.0573 144.755 30.0573C144.278 30.0573 143.874 29.8893 143.541 29.5478C143.208 29.209 143.041 28.7982 143.041 28.3126V15.9693C143.041 15.4864 143.208 15.0756 143.541 14.7341C143.874 14.3953 144.278 14.2246 144.755 14.2246C145.233 14.2246 145.637 14.3953 145.97 14.7341C146.303 15.0729 146.469 15.4864 146.469 15.9693V28.3153C146.469 28.7982 146.303 29.209 145.97 29.5478Z" fill="#1A7DD8"/>
<path d="M170.431 20.7071C170.324 20.1869 170.122 19.7094 169.825 19.2719C169.527 18.837 169.115 18.4689 168.594 18.1648C168.07 17.8633 167.404 17.7113 166.594 17.7113H157.154C156.321 17.7113 155.65 17.8633 155.137 18.1648C154.624 18.4689 154.22 18.837 153.922 19.2719C153.625 19.7067 153.423 20.1869 153.314 20.7071C153.207 21.2273 153.153 21.7048 153.153 22.1423V28.3153C153.153 28.8008 152.984 29.2117 152.653 29.5505C152.318 29.8892 151.914 30.06 151.439 30.06C150.961 30.06 150.557 29.8919 150.225 29.5505C149.892 29.2117 149.725 28.8008 149.725 28.3153V22.1396C149.725 21.2193 149.875 20.2936 150.173 19.3626C150.47 18.4315 150.904 17.5832 151.474 16.8203C152.045 16.0573 152.735 15.4357 153.546 14.9502C154.354 14.4674 155.271 14.2246 156.294 14.2246H167.805C168.78 14.2726 169.648 14.5474 170.412 15.0436C171.173 15.5398 171.823 16.164 172.358 16.9136C172.892 17.6633 173.305 18.4982 173.588 19.4186C173.875 20.3389 174.017 21.246 174.017 22.1423V28.3153C174.017 28.8008 173.85 29.2117 173.517 29.5505C173.184 29.8892 172.781 30.06 172.303 30.06C171.825 30.06 171.421 29.8919 171.088 29.5505C170.756 29.2117 170.589 28.8008 170.589 28.3153V22.1396C170.592 21.7048 170.537 21.2273 170.431 20.7071Z" fill="#1A7DD8"/>
<path d="M186.699 22.1384C186.699 21.6555 186.862 21.242 187.198 20.9033C187.531 20.5645 187.935 20.3937 188.412 20.3937H198.638C199.233 20.3937 199.793 20.5084 200.317 20.7379C200.838 20.9673 201.299 21.2821 201.69 21.6822C202.083 22.0824 202.385 22.5545 202.601 23.0988C202.814 23.643 202.923 24.2192 202.923 24.8221V25.6197C202.923 26.2253 202.817 26.8015 202.601 27.3457C202.388 27.8899 202.083 28.3621 201.69 28.7622C201.297 29.1624 200.838 29.4772 200.317 29.7066C199.793 29.936 199.233 30.0507 198.638 30.0507H183.486C182.509 30.0507 181.642 29.808 180.88 29.3251C180.119 28.8423 179.469 28.218 178.934 27.4551C178.399 26.6921 177.987 25.8385 177.703 24.8968C177.417 23.9524 177.275 23.0321 177.275 22.1357C177.275 21.2154 177.425 20.2897 177.723 19.3587C178.02 18.4276 178.454 17.5793 179.024 16.8164C179.595 16.0534 180.285 15.4318 181.096 14.9463C181.904 14.4635 182.821 14.2207 183.844 14.2207H201.209C201.684 14.2207 202.091 14.3914 202.424 14.7302C202.757 15.069 202.923 15.4825 202.923 15.9654C202.923 16.4509 202.757 16.8617 202.424 17.2005C202.091 17.5393 201.684 17.71 201.209 17.71H184.63C183.795 17.71 183.123 17.8621 182.61 18.1635C182.1 18.4677 181.693 18.8358 181.396 19.2706C181.098 19.7055 180.897 20.1856 180.79 20.7058C180.681 21.226 180.629 21.7036 180.629 22.1411C180.629 22.5759 180.684 23.0561 180.79 23.5763C180.897 24.0965 181.098 24.574 181.396 25.0115C181.693 25.4463 182.097 25.8171 182.61 26.1186C183.121 26.42 183.795 26.5721 184.63 26.5721H198.496C198.783 26.5721 199.037 26.4387 199.263 26.1719C199.49 25.9052 199.602 25.5904 199.602 25.2276C199.602 24.8648 199.501 24.55 199.299 24.2832C199.097 24.0164 198.829 23.8831 198.496 23.8831H188.415C187.938 23.8831 187.534 23.7123 187.201 23.3735C186.865 23.0347 186.699 22.6239 186.699 22.1384Z" fill="#1A7DD8"/>
</svg>
