<svg width="253" height="37" viewBox="0 0 253 37" fill="none" xmlns="http://www.w3.org/2000/svg">
<path d="M51.3194 5.50122C50.3514 5.50122 49.5388 6.01578 49.0442 6.75481H20.0706C17.0994 6.75481 14.6829 9.11696 14.6829 12.0213C14.6829 14.9256 17.0994 17.2878 20.0706 17.2878H34.4073C38.7846 17.2878 42.3458 20.7688 42.3458 25.0476C42.3458 29.3264 38.7846 32.8075 34.4073 32.8075H17.6188C17.1206 32.0857 16.3151 31.578 15.3612 31.578C13.8315 31.578 12.5879 32.7936 12.5879 34.289C12.5879 35.7843 13.8315 36.9999 15.3612 36.9999C16.2021 36.9999 16.9334 36.6131 17.4421 36.0329H34.4108C40.604 36.0329 45.6455 31.1084 45.6455 25.0511C45.6455 18.9972 40.6076 14.0692 34.4108 14.0692H20.0742C18.9224 14.0692 17.9827 13.154 17.9827 12.0247C17.9827 10.8955 18.9189 9.98031 20.0742 9.98031H49.2597C49.7684 10.5467 50.4927 10.9266 51.3229 10.9266C52.8527 10.9266 54.0963 9.71095 54.0963 8.21561C54.0927 6.71337 52.8491 5.50122 51.3194 5.50122ZM15.3577 35.2318C14.8207 35.2318 14.3826 34.8035 14.3826 34.2786C14.3826 33.7537 14.8172 33.3255 15.3577 33.3255C15.8947 33.3255 16.3328 33.7537 16.3328 34.2786C16.3328 34.807 15.8947 35.2318 15.3577 35.2318ZM51.3194 9.16185C50.7824 9.16185 50.3443 8.73363 50.3443 8.20871C50.3443 7.68379 50.7824 7.25556 51.3194 7.25556C51.8564 7.25556 52.2945 7.68379 52.2945 8.20871C52.2945 8.73363 51.8564 9.16185 51.3194 9.16185Z" fill="#F47403"/>
<path d="M34.0221 30.2451C36.9933 30.2451 39.4098 27.883 39.4098 24.9786C39.4098 22.0743 36.9933 19.7122 34.0221 19.7122H19.6855C15.3082 19.7122 11.747 16.2311 11.747 11.9523C11.747 7.67351 15.3082 4.19246 19.6855 4.19246H36.474C36.9721 4.91422 37.7741 5.42188 38.7315 5.42188C40.2613 5.42188 41.5049 4.20627 41.5049 2.71094C41.5049 1.21561 40.2613 0 38.7315 0C37.8907 0 37.1629 0.386784 36.6506 0.966959H19.6855C13.4923 0.966959 8.45077 5.89154 8.45077 11.9489C8.45077 18.0062 13.4887 22.9307 19.6855 22.9307H34.0221C35.1738 22.9307 36.1136 23.8459 36.1136 24.9752C36.1136 26.101 35.1774 27.0196 34.0221 27.0196H4.83658C4.32784 26.4532 3.60359 26.0734 2.77335 26.0734C1.24359 26.0768 0 27.2924 0 28.7878C0 30.2831 1.24359 31.4987 2.77335 31.4987C3.74137 31.4987 4.55395 30.9841 5.04856 30.2451H34.0221ZM38.735 1.7647C39.272 1.7647 39.7101 2.19292 39.7101 2.71785C39.7101 3.24277 39.272 3.67099 38.735 3.67099C38.198 3.67099 37.7599 3.24277 37.7599 2.71785C37.7599 2.19292 38.198 1.7647 38.735 1.7647ZM2.77335 29.7409C2.23634 29.7409 1.79826 29.3127 1.79826 28.7878C1.79826 28.2628 2.23634 27.8346 2.77335 27.8346C3.31035 27.8346 3.74844 28.2628 3.74844 28.7878C3.7449 29.3127 3.31035 29.7409 2.77335 29.7409Z" fill="#F47403"/>
<path d="M62.0524 18.9732C61.314 18.6451 60.6675 18.1961 60.1128 17.6332C59.5582 17.0703 59.1201 16.4107 58.795 15.6613C58.4735 14.9085 58.3075 14.0935 58.3075 13.2163C58.3075 12.3391 58.47 11.5241 58.795 10.7713C59.1201 10.0184 59.5582 9.35884 60.1128 8.79593C60.6675 8.23302 61.314 7.78407 62.0524 7.456C62.7943 7.12792 63.5928 6.96216 64.4548 6.96216H88.0442C88.6624 6.96216 89.1853 7.18318 89.6163 7.62176C90.0473 8.06035 90.2629 8.59563 90.2629 9.2207C90.2629 9.84922 90.0473 10.381 89.6163 10.8196C89.1853 11.2582 88.6624 11.4792 88.0442 11.4792H64.3629C63.9001 11.4792 63.4903 11.6415 63.137 11.9731C62.7802 12.3012 62.6071 12.719 62.6071 13.2198C62.6071 13.6894 62.7837 14.0969 63.137 14.4423C63.4903 14.7876 63.9001 14.9603 64.3629 14.9603H85.4545C86.3166 14.9603 87.1256 15.1226 87.8817 15.4541C88.6342 15.7822 89.2913 16.2277 89.846 16.7941C90.4006 17.357 90.8387 18.0235 91.1638 18.7901C91.4852 19.5568 91.6478 20.3822 91.6478 21.2593C91.6478 22.1365 91.4852 22.9515 91.1638 23.7044C90.8387 24.4572 90.4006 25.1134 89.846 25.6797C89.2913 26.2426 88.6377 26.6812 87.8817 26.9955C87.1256 27.3097 86.3166 27.4651 85.4545 27.4651H61.9111C61.2928 27.4651 60.7699 27.2476 60.3389 26.8055C59.9044 26.367 59.6924 25.8351 59.6924 25.2066C59.6924 24.5815 59.9044 24.0497 60.3389 23.6077C60.7699 23.1691 61.2928 22.9481 61.9111 22.9481H85.6382C86.1011 22.9481 86.5003 22.7823 86.8394 22.4542C87.1786 22.1261 87.3482 21.7255 87.3482 21.2559C87.3482 20.7551 87.1786 20.3304 86.8394 19.985C86.5003 19.6397 86.0975 19.467 85.6382 19.467H64.4513C63.5928 19.467 62.7908 19.3012 62.0524 18.9732Z" fill="#1A7DD8"/>
<path d="M99.7451 26.9644C98.9749 26.6363 98.3037 26.1874 97.7349 25.6245C97.1661 25.0616 96.7103 24.402 96.3712 23.6491C96.032 22.8963 95.8624 22.0813 95.8624 21.2041V9.2207C95.8624 8.59563 96.0779 8.0638 96.509 7.62176C96.94 7.18318 97.4628 6.96216 98.0811 6.96216C98.6676 6.96216 99.1834 7.18318 99.6321 7.62176C100.077 8.06035 100.303 8.59563 100.303 9.2207V21.2075C100.303 21.6772 100.48 22.0847 100.833 22.43C101.19 22.7754 101.596 22.9481 102.059 22.9481H123.094C123.713 22.9481 124.235 23.1691 124.666 23.6077C125.097 24.0462 125.313 24.5781 125.313 25.2066C125.313 25.8351 125.097 26.367 124.666 26.8055C124.235 27.2441 123.713 27.4651 123.094 27.4651H102.197C101.331 27.4582 100.515 27.2925 99.7451 26.9644Z" fill="#1A7DD8"/>
<path d="M133.315 26.7986C132.881 27.2372 132.358 27.4582 131.743 27.4582C131.125 27.4582 130.602 27.2407 130.171 26.7986C129.74 26.3601 129.524 25.8282 129.524 25.1997V9.2207C129.524 8.59563 129.74 8.0638 130.171 7.62176C130.602 7.18318 131.125 6.96216 131.743 6.96216C132.361 6.96216 132.884 7.18318 133.315 7.62176C133.746 8.06035 133.962 8.59563 133.962 9.2207V25.2032C133.962 25.8282 133.743 26.3601 133.315 26.7986Z" fill="#1A7DD8"/>
<path d="M167.337 7.80828C167.8 7.24537 168.369 6.96219 169.047 6.96219C169.665 6.96219 170.188 7.18321 170.619 7.6218C171.05 8.06038 171.266 8.59566 171.266 9.22073C171.266 9.78364 171.11 10.2395 170.803 10.5848L170.757 10.6332L159.572 25.956C159.017 26.6778 158.318 27.2649 157.47 27.7173C156.622 28.1731 155.707 28.3976 154.721 28.3976C153.796 28.3976 152.926 28.1939 152.11 27.7863C151.294 27.3788 150.609 26.8159 150.054 26.0942L138.823 10.8162C138.639 10.5952 138.484 10.3535 138.36 10.0875C138.237 9.82163 138.177 9.53154 138.177 9.21728C138.177 8.59221 138.392 8.06038 138.823 7.61834C139.254 7.17976 139.777 6.95874 140.395 6.95874C141.137 6.95874 141.72 7.25573 142.151 7.85318L152.919 22.4715C153.135 22.7236 153.407 22.9964 153.728 23.2934C154.053 23.5904 154.386 23.7389 154.721 23.7389C155.06 23.7389 155.392 23.5904 155.714 23.2934C156.039 22.9964 156.29 22.7202 156.477 22.4715L167.337 7.80828Z" fill="#1A7DD8"/>
<path d="M179.272 26.7986C178.837 27.2372 178.314 27.4582 177.699 27.4582C177.081 27.4582 176.558 27.2407 176.127 26.7986C175.696 26.3601 175.481 25.8282 175.481 25.1997V9.2207C175.481 8.59563 175.696 8.0638 176.127 7.62176C176.558 7.18318 177.081 6.96216 177.699 6.96216C178.318 6.96216 178.841 7.18318 179.272 7.62176C179.703 8.06035 179.918 8.59563 179.918 9.2207V25.2032C179.918 25.8282 179.703 26.3601 179.272 26.7986Z" fill="#1A7DD8"/>
<path d="M210.937 15.354C210.799 14.6806 210.538 14.0624 210.153 13.496C209.768 12.9331 209.234 12.4566 208.559 12.0629C207.881 11.6726 207.019 11.4758 205.97 11.4758H193.749C192.672 11.4758 191.803 11.6726 191.139 12.0629C190.474 12.4566 189.952 12.9331 189.566 13.496C189.181 14.0589 188.92 14.6806 188.779 15.354C188.641 16.0274 188.57 16.6456 188.57 17.2119V25.2031C188.57 25.8317 188.351 26.3635 187.924 26.8021C187.489 27.2407 186.966 27.4617 186.351 27.4617C185.733 27.4617 185.21 27.2441 184.779 26.8021C184.348 26.3635 184.133 25.8317 184.133 25.2031V17.2085C184.133 16.017 184.327 14.8187 184.712 13.6135C185.097 12.4082 185.659 11.31 186.397 10.3223C187.136 9.33466 188.03 8.53001 189.079 7.90149C190.125 7.27642 191.312 6.96216 192.637 6.96216H207.538C208.8 7.02432 209.923 7.38002 210.912 8.02236C211.898 8.6647 212.739 9.4728 213.431 10.4432C214.124 11.4136 214.657 12.4945 215.025 13.686C215.396 14.8774 215.579 16.0516 215.579 17.2119V25.2031C215.579 25.8317 215.364 26.3635 214.933 26.8021C214.502 27.2407 213.979 27.4617 213.361 27.4617C212.742 27.4617 212.22 27.2441 211.789 26.8021C211.358 26.3635 211.142 25.8317 211.142 25.2031V17.2085C211.146 16.6456 211.075 16.0274 210.937 15.354Z" fill="#1A7DD8"/>
<path d="M231.997 17.2085C231.997 16.5834 232.209 16.0482 232.643 15.6096C233.074 15.171 233.597 14.95 234.215 14.95H247.453C248.223 14.95 248.948 15.0985 249.626 15.3955C250.301 15.6925 250.898 16.1 251.403 16.618C251.912 17.136 252.304 17.7472 252.583 18.4517C252.859 19.1562 253 19.9022 253 20.6827V21.7152C253 22.4992 252.862 23.2451 252.583 23.9496C252.307 24.6541 251.912 25.2653 251.403 25.7834C250.894 26.3014 250.301 26.7089 249.626 27.0059C248.948 27.3029 248.223 27.4514 247.453 27.4514H227.838C226.574 27.4514 225.45 27.1371 224.464 26.512C223.479 25.887 222.638 25.0789 221.945 24.0912C221.253 23.1035 220.72 21.9984 220.352 20.7793C219.981 19.5568 219.797 18.3654 219.797 17.2051C219.797 16.0136 219.992 14.8153 220.377 13.61C220.762 12.4048 221.324 11.3066 222.062 10.3189C222.8 9.33124 223.694 8.5266 224.744 7.89807C225.789 7.273 226.976 6.95874 228.301 6.95874H250.781C251.396 6.95874 251.922 7.17976 252.353 7.61835C252.784 8.05693 253 8.59221 253 9.21728C253 9.8458 252.784 10.3776 252.353 10.8162C251.922 11.2548 251.396 11.4758 250.781 11.4758H229.319C228.238 11.4758 227.369 11.6727 226.704 12.0629C226.044 12.4566 225.517 12.9332 225.132 13.4961C224.747 14.059 224.486 14.6806 224.348 15.354C224.207 16.0274 224.139 16.6456 224.139 17.212C224.139 17.7749 224.21 18.3965 224.348 19.0699C224.486 19.7433 224.747 20.3615 225.132 20.9278C225.517 21.4908 226.04 21.9708 226.704 22.361C227.365 22.7513 228.238 22.9481 229.319 22.9481H247.27C247.64 22.9481 247.969 22.7754 248.262 22.4301C248.556 22.0847 248.7 21.6772 248.7 21.2076C248.7 20.7379 248.57 20.3304 248.308 19.9851C248.047 19.6397 247.701 19.467 247.27 19.467H234.219C233.601 19.467 233.078 19.246 232.647 18.8074C232.212 18.3689 231.997 17.837 231.997 17.2085Z" fill="#1A7DD8"/>
</svg>
