<svg width="70" height="30" viewBox="0 0 70 30" fill="none"
    xmlns="http://www.w3.org/2000/svg">
    <path d="M28.8331 12.2321C28.47 12.2321 28.1758 12.5263 28.1758 12.8894V18.658C28.1758 19.021 28.47 19.3153 28.8331 19.3153H34.6032C34.9663 19.3153 35.2605 19.021 35.2605 18.6595V12.8894C35.2605 12.5263 34.9663 12.2321 34.6032 12.2321H28.8331Z" fill="white"/>
    <path d="M23.4238 24.4375C23.0372 24.4375 22.7227 24.7505 22.7227 25.1371V28.3578C22.7227 28.7444 23.0372 29.0574 23.4238 29.0574H26.643C27.0295 29.0574 27.3425 28.7428 27.3425 28.3578V25.1371C27.3425 24.7505 27.0295 24.4375 26.643 24.4375H23.4238Z" fill="white"/>
    <path d="M17.9691 24.4375C17.5825 24.4375 17.2695 24.7505 17.2695 25.1371V28.3578C17.2695 28.7444 17.5825 29.0574 17.9691 29.0574H21.1899C21.5764 29.0574 21.8894 28.7428 21.8894 28.3578V25.1371C21.8894 24.7505 21.5736 24.4375 21.1899 24.4375H17.9691Z" fill="white"/>
    <path d="M17.9691 19.6141C17.5825 19.6141 17.2695 19.9271 17.2695 20.3137V22.6831C17.2695 23.0696 17.5825 23.3826 17.9691 23.3826H20.3385C20.725 23.3826 21.0396 23.0696 21.0396 22.6831V20.3137C21.0396 19.9271 20.725 19.6141 20.3385 19.6141H17.9691Z" fill="white"/>
    <path d="M17.9691 15.1508C17.5825 15.1508 17.2695 15.4638 17.2695 15.8503V17.8598C17.2695 18.2464 17.5825 18.5593 17.9691 18.5593H19.9785C20.3667 18.5593 20.6797 18.2464 20.6797 17.8598V15.8503C20.6797 15.4638 20.3667 15.1508 19.9785 15.1508H17.9691Z" fill="white"/>
    <path d="M17.9691 11.4762C17.5825 11.4762 17.2695 11.7907 17.2695 12.1773V13.3964C17.2695 13.783 17.5825 14.0975 17.9691 14.0975H19.1882C19.5748 14.0975 19.8893 13.783 19.8893 13.3964V12.1773C19.8893 11.7907 19.5748 11.4762 19.1882 11.4762H17.9691Z" fill="white"/>
    <path d="M28.7752 20.298C28.445 20.298 28.1758 20.5672 28.1758 20.8974V28.4767C28.1758 28.8101 28.445 29.0777 28.7752 29.0777H38.9304C39.2622 29.0777 39.5298 28.8101 39.5298 28.4767V20.8974C39.5298 20.5656 39.2622 20.298 38.9304 20.298H28.7752Z" fill="white"/>
    <path d="M36.9659 8.15989C36.4244 8.00496 35.8532 7.92045 35.2616 7.92045C32.9814 7.92045 30.9908 9.15836 29.9219 10.9988H35.2601C35.8939 10.9988 36.4088 11.5121 36.4088 12.1475V19.3152H41.2931C41.8691 19.3152 42.337 19.7831 42.337 20.359V29.0792H60.5019C65.1421 29.0792 68.9028 25.3185 68.9028 20.6767C68.9028 16.517 65.8792 13.0662 61.9104 12.3948C61.6271 5.50096 55.9493 0 48.9882 0C43.5342 0 38.8658 3.37883 36.9659 8.15989Z" fill="white"/>
</svg>
