<svg width="82" height="80" viewBox="0 0 82 80" fill="none" xmlns="http://www.w3.org/2000/svg">
<path fill-rule="evenodd" clip-rule="evenodd" d="M8.90928 15.2564C8.94982 14.7358 9.38408 14.334 9.90626 14.334H17.3293C17.844 14.334 18.2747 14.7248 18.3245 15.2371L21.1241 44.0007H25.8449L27.3616 24.5894C27.4023 24.0689 27.8365 23.6673 28.3586 23.6673H33.4374C33.9521 23.6673 34.3827 24.0579 34.4327 24.5701L36.3305 44.0007H51.2421C53.4512 44.0007 55.2421 45.7915 55.2421 48.0007V54.0665H56.8635C57.4137 54.0665 57.8608 54.5159 57.8622 55.0702C57.8636 55.6246 57.4187 56.074 56.8684 56.074H55.2421V63.334C55.2421 65.5431 53.4512 67.334 51.2421 67.334H4.33301C2.12387 67.334 0.333008 65.5431 0.333008 63.334V48.0007C0.333008 45.7915 2.12387 44.0007 4.33301 44.0007H6.67115L8.90928 15.2564ZM32.6931 27.334L32.5304 25.6673H29.2835L29.1532 27.334H32.6931ZM32.8885 29.334H28.997L28.5281 35.334H33.4745L32.8885 29.334ZM33.6698 37.334H28.3719L27.851 44.0007H34.321L33.6698 37.334ZM16.4219 16.334L16.7138 19.334L10.6663 19.334C10.6433 19.334 10.6203 19.3348 10.5977 19.3363L10.8314 16.334H16.4219ZM19.1146 44.0007L18.1413 34.0007H9.45584L8.6772 44.0007H19.1146ZM16.9085 21.334L17.9467 32.0007H9.61156L10.444 21.3092C10.5155 21.3254 10.5899 21.334 10.6663 21.334L16.9085 21.334ZM4.33301 46.0007C3.22844 46.0007 2.33301 46.8961 2.33301 48.0007V63.334C2.33301 64.4386 3.22844 65.334 4.33301 65.334H51.2421C52.3467 65.334 53.2421 64.4386 53.2421 63.334V48.0007C53.2421 46.8961 52.3467 46.0007 51.2421 46.0007H4.33301ZM5.62226 52.0007C5.62226 50.8961 6.51769 50.0007 7.62226 50.0007H11.5892C12.6938 50.0007 13.5892 50.8961 13.5892 52.0007V54.6673C13.5892 55.7719 12.6938 56.6673 11.5892 56.6673H7.62226C6.51769 56.6673 5.62226 55.7719 5.62226 54.6673V52.0007ZM9.58921 52.0007H7.62226V52.6673V54.0007V54.6673H9.58921H9.62226H11.5892V54.0007V52.6673V52.0007H9.62226H9.58921ZM19.5231 50.0007C18.4185 50.0007 17.5231 50.8961 17.5231 52.0007V54.6673C17.5231 55.7719 18.4185 56.6673 19.5231 56.6673H23.49C24.5946 56.6673 25.49 55.7719 25.49 54.6673V52.0007C25.49 50.8961 24.5946 50.0007 23.49 50.0007H19.5231ZM19.5231 52.0007H21.49H21.5231H23.49V52.6673V54.0007V54.6673H21.5231H21.49H19.5231V54.0007V52.6673V52.0007ZM29.4239 52.0007C29.4239 50.8961 30.3193 50.0007 31.4239 50.0007H35.3909C36.4954 50.0007 37.3909 50.8961 37.3909 52.0007V54.6673C37.3909 55.7719 36.4954 56.6673 35.3909 56.6673H31.4239C30.3193 56.6673 29.4239 55.7719 29.4239 54.6673V52.0007ZM33.3909 52.0007H31.4239V52.6673V54.0007V54.6673H33.3909H33.4239H35.3909V54.0007V52.6673V52.0007H33.4239H33.3909ZM43.3247 50.0007C42.2202 50.0007 41.3247 50.8961 41.3247 52.0007V54.6673C41.3247 55.7719 42.2202 56.6673 43.3247 56.6673H47.2917C48.3963 56.6673 49.2917 55.7719 49.2917 54.6673V52.0007C49.2917 50.8961 48.3963 50.0007 47.2917 50.0007H43.3247ZM43.3247 52.0007H45.2917H45.3247H47.2917V52.6673V54.0007V54.6673H45.3247H45.2917H43.3247V54.0007V52.6673V52.0007ZM64.2204 38.4819C64.7706 38.4833 65.2166 38.9338 65.2166 39.4881L65.2166 41.4362C65.2166 41.9905 64.7706 42.4388 64.2204 42.4374C63.6701 42.436 63.2241 41.9855 63.2241 41.4312V39.4831C63.2241 38.9288 63.6701 38.4805 64.2204 38.4819ZM64.2204 44.3261C64.7706 44.3275 65.2166 44.778 65.2166 45.3324V49.2285C65.2166 49.7828 64.7706 50.2311 64.2204 50.2297C63.6701 50.2283 63.2241 49.7778 63.2241 49.2235L63.2241 45.3273C63.2241 44.773 63.6701 44.3247 64.2204 44.3261ZM60.7726 55.0702C60.7713 54.5159 61.2162 54.0665 61.7664 54.0665H63.2241V53.1197C63.2241 52.5653 63.6701 52.1171 64.2204 52.1184C64.7706 52.1198 65.2166 52.5703 65.2166 53.1247V55.0727V56.074H64.2228H61.7714C61.2212 56.074 60.774 55.6246 60.7726 55.0702ZM49.9528 16.6673H79.0107V32.6673H49.9528V16.6673ZM47.9528 16.6673C47.9528 15.5627 48.8483 14.6673 49.9528 14.6673H79.0107C80.1153 14.6673 81.0107 15.5627 81.0107 16.6673V32.6673C81.0107 33.7719 80.1153 34.6673 79.0107 34.6673H49.9528C48.8483 34.6673 47.9528 33.7719 47.9528 32.6673V16.6673ZM66.2806 30.0007C66.2806 30.737 65.6837 31.334 64.9473 31.334C64.2109 31.334 63.6139 30.737 63.6139 30.0007C63.6139 29.2643 64.2109 28.6673 64.9473 28.6673C65.6837 28.6673 66.2806 29.2643 66.2806 30.0007ZM61.438 25.8232C61.0491 26.2153 61.0491 26.8511 61.438 27.2433C61.8269 27.6354 62.4575 27.6354 62.8464 27.2433C63.1223 26.9651 63.4498 26.7444 63.8103 26.5938C64.1707 26.4433 64.5571 26.3658 64.9473 26.3658C65.3374 26.3658 65.7238 26.4433 66.0843 26.5938C66.4447 26.7444 66.7723 26.9651 67.0482 27.2433C67.4371 27.6354 68.0676 27.6354 68.4565 27.2433C68.8454 26.8511 68.8454 26.2153 68.4565 25.8232C67.9957 25.3585 67.4486 24.9899 66.8464 24.7384C66.2443 24.4869 65.599 24.3575 64.9473 24.3575C64.2955 24.3575 63.6502 24.4869 63.0481 24.7384C62.446 24.9899 61.8989 25.3585 61.438 25.8232ZM58.633 24.7257C58.2441 24.3336 58.2441 23.6978 58.633 23.3056C59.4622 22.4695 60.4466 21.8063 61.53 21.3538C62.6134 20.9013 63.7746 20.6684 64.9473 20.6684C66.1199 20.6684 67.2811 20.9013 68.3645 21.3538C69.4479 21.8063 70.4323 22.4695 71.2615 23.3056C71.6504 23.6978 71.6504 24.3336 71.2615 24.7257C70.8726 25.1178 70.2421 25.1178 69.8532 24.7257C69.2089 24.0761 68.4441 23.5608 67.6023 23.2092C66.7606 22.8576 65.8584 22.6767 64.9473 22.6767C64.0361 22.6767 63.134 22.8576 62.2922 23.2092C61.4504 23.5608 60.6856 24.0761 60.0413 24.7257C59.6524 25.1178 59.0219 25.1178 58.633 24.7257ZM56.2954 20.6377C55.9065 21.0299 55.9065 21.6657 56.2954 22.0578C56.6843 22.45 57.3149 22.45 57.7038 22.0578C58.655 21.0987 59.7843 20.3378 61.0271 19.8187C62.27 19.2996 63.602 19.0325 64.9473 19.0325C66.2925 19.0325 67.6246 19.2996 68.8674 19.8187C70.1102 20.3378 71.2395 21.0987 72.1908 22.0578C72.5797 22.45 73.2102 22.45 73.5991 22.0578C73.988 21.6657 73.988 21.0299 73.5991 20.6377C72.4629 19.4921 71.1141 18.5833 69.6296 17.9633C68.1451 17.3433 66.554 17.0242 64.9473 17.0242C63.3405 17.0242 61.7494 17.3433 60.2649 17.9633C58.7805 18.5833 57.4316 19.4921 56.2954 20.6377Z" fill="url(#paint0_linear_21487_6448)"/>
<defs>
<linearGradient id="paint0_linear_21487_6448" x1="0.333008" y1="40.834" x2="85.8911" y2="45.0524" gradientUnits="userSpaceOnUse">
<stop stop-color="#0091EF"/>
<stop offset="1" stop-color="#32D7D4"/>
</linearGradient>
</defs>
</svg>
