<svg width="57" height="56" viewBox="0 0 57 56" fill="none" xmlns="http://www.w3.org/2000/svg">
<ellipse rx="5.35142" ry="5.35121" transform="matrix(1 0 0 -1 5.75181 28.0375)" fill="#E48C1B"/>
<ellipse rx="5.35142" ry="5.35121" transform="matrix(1 0 0 -1 5.75181 28.0375)" fill="url(#paint0_linear_21856_4661)"/>
<ellipse rx="5.35142" ry="5.35121" transform="matrix(1 0 0 -1 50.8866 28.0375)" fill="#E48C1B"/>
<ellipse rx="5.35142" ry="5.35121" transform="matrix(1 0 0 -1 51.0487 28.0375)" fill="#E48C1B"/>
<ellipse rx="5.35142" ry="5.35121" transform="matrix(1 0 0 -1 51.0487 28.0375)" fill="url(#paint1_linear_21856_4661)"/>
<path fill-rule="evenodd" clip-rule="evenodd" d="M33.7231 5.35121C33.7231 2.39582 31.3271 0 28.3716 0C25.4161 0 23.0202 2.39582 23.0202 5.35121C23.0202 6.17718 23.2074 6.95944 23.5416 7.65791L19.9756 11.2237C19.2771 10.8896 18.4948 10.7024 17.6688 10.7024C14.7133 10.7024 12.3174 13.0982 12.3174 16.0536C12.3174 19.009 14.7133 21.4048 17.6688 21.4048C18.2344 21.4048 18.7796 21.3171 19.2914 21.1544L34.8276 36.69C34.1348 37.5921 33.7231 38.7211 33.7231 39.9464C33.7231 40.8159 33.9304 41.6369 34.2984 42.3628L30.7881 45.8729C30.0622 45.505 29.2412 45.2976 28.3716 45.2976C27.2969 45.2976 26.2961 45.6144 25.4576 46.1598L22.158 42.8603C22.7034 42.0218 23.0202 41.0211 23.0202 39.9464C23.0202 36.991 20.6243 34.5952 17.6688 34.5952C14.7133 34.5952 12.3174 36.991 12.3174 39.9464C12.3174 42.9018 14.7133 45.2976 17.6688 45.2976C18.2368 45.2976 18.7841 45.2091 19.2976 45.0452L23.2726 49.02C23.1087 49.5336 23.0202 50.0809 23.0202 50.6488C23.0202 53.6042 25.4161 56 28.3716 56C31.3271 56 33.7231 53.6042 33.7231 50.6488C33.7231 49.8663 33.5551 49.123 33.2533 48.4531L36.8787 44.8278C37.5486 45.1296 38.2919 45.2976 39.0745 45.2976C42.03 45.2976 44.4259 42.9018 44.4259 39.9464C44.4259 36.991 42.03 34.5952 39.0745 34.5952C38.6731 34.5952 38.2821 34.6393 37.9059 34.7231L22.1547 18.9725C22.7021 18.1331 23.0202 17.1305 23.0202 16.0536C23.0202 15.2273 22.8329 14.4448 22.4985 13.7461L26.064 10.1807C26.7627 10.5151 27.5453 10.7024 28.3716 10.7024C29.4483 10.7024 30.4507 10.3845 31.2901 9.83732L34.5882 13.1353C34.041 13.9746 33.7231 14.977 33.7231 16.0536C33.7231 19.009 36.119 21.4048 39.0745 21.4048C42.03 21.4048 44.4259 19.009 44.4259 16.0536C44.4259 13.0982 42.03 10.7024 39.0745 10.7024C38.5086 10.7024 37.9632 10.7902 37.4512 10.953L33.4724 6.97438C33.6352 6.46243 33.7231 5.91708 33.7231 5.35121Z" fill="#C4C4C4"/>
<path fill-rule="evenodd" clip-rule="evenodd" d="M33.7231 5.35121C33.7231 2.39582 31.3271 0 28.3716 0C25.4161 0 23.0202 2.39582 23.0202 5.35121C23.0202 6.17718 23.2074 6.95944 23.5416 7.65791L19.9756 11.2237C19.2771 10.8896 18.4948 10.7024 17.6688 10.7024C14.7133 10.7024 12.3174 13.0982 12.3174 16.0536C12.3174 19.009 14.7133 21.4048 17.6688 21.4048C18.2344 21.4048 18.7796 21.3171 19.2914 21.1544L34.8276 36.69C34.1348 37.5921 33.7231 38.7211 33.7231 39.9464C33.7231 40.8159 33.9304 41.6369 34.2984 42.3628L30.7881 45.8729C30.0622 45.505 29.2412 45.2976 28.3716 45.2976C27.2969 45.2976 26.2961 45.6144 25.4576 46.1598L22.158 42.8603C22.7034 42.0218 23.0202 41.0211 23.0202 39.9464C23.0202 36.991 20.6243 34.5952 17.6688 34.5952C14.7133 34.5952 12.3174 36.991 12.3174 39.9464C12.3174 42.9018 14.7133 45.2976 17.6688 45.2976C18.2368 45.2976 18.7841 45.2091 19.2976 45.0452L23.2726 49.02C23.1087 49.5336 23.0202 50.0809 23.0202 50.6488C23.0202 53.6042 25.4161 56 28.3716 56C31.3271 56 33.7231 53.6042 33.7231 50.6488C33.7231 49.8663 33.5551 49.123 33.2533 48.4531L36.8787 44.8278C37.5486 45.1296 38.2919 45.2976 39.0745 45.2976C42.03 45.2976 44.4259 42.9018 44.4259 39.9464C44.4259 36.991 42.03 34.5952 39.0745 34.5952C38.6731 34.5952 38.2821 34.6393 37.9059 34.7231L22.1547 18.9725C22.7021 18.1331 23.0202 17.1305 23.0202 16.0536C23.0202 15.2273 22.8329 14.4448 22.4985 13.7461L26.064 10.1807C26.7627 10.5151 27.5453 10.7024 28.3716 10.7024C29.4483 10.7024 30.4507 10.3845 31.2901 9.83732L34.5882 13.1353C34.041 13.9746 33.7231 14.977 33.7231 16.0536C33.7231 19.009 36.119 21.4048 39.0745 21.4048C42.03 21.4048 44.4259 19.009 44.4259 16.0536C44.4259 13.0982 42.03 10.7024 39.0745 10.7024C38.5086 10.7024 37.9632 10.7902 37.4512 10.953L33.4724 6.97438C33.6352 6.46243 33.7231 5.91708 33.7231 5.35121Z" fill="url(#paint2_linear_21856_4661)"/>
<defs>
<linearGradient id="paint0_linear_21856_4661" x1="1.95193" y1="5.29235" x2="10.1026" y2="5.29235" gradientUnits="userSpaceOnUse">
<stop stop-color="#31ADCD"/>
<stop offset="0.0460147" stop-color="#30A9CC"/>
<stop offset="0.3903" stop-color="#2993C2"/>
<stop offset="0.7156" stop-color="#2485BD"/>
<stop offset="1" stop-color="#2380BB"/>
</linearGradient>
<linearGradient id="paint1_linear_21856_4661" x1="1.95193" y1="5.29235" x2="10.1026" y2="5.29235" gradientUnits="userSpaceOnUse">
<stop stop-color="#31ADCD"/>
<stop offset="0.0460147" stop-color="#30A9CC"/>
<stop offset="0.3903" stop-color="#2993C2"/>
<stop offset="0.7156" stop-color="#2485BD"/>
<stop offset="1" stop-color="#2380BB"/>
</linearGradient>
<linearGradient id="paint2_linear_21856_4661" x1="41.403" y1="24.7451" x2="8.02209" y2="24.7451" gradientUnits="userSpaceOnUse">
<stop stop-color="#DE7820"/>
<stop offset="0.0214679" stop-color="#DE7620"/>
<stop offset="0.3746" stop-color="#DC6022"/>
<stop offset="0.7083" stop-color="#DA5223"/>
<stop offset="1" stop-color="#DA4D23"/>
</linearGradient>
</defs>
</svg>
