<svg width="65" height="64" viewBox="0 0 65 64" fill="none" xmlns="http://www.w3.org/2000/svg">
<path d="M21.0815 46.5048C25.5183 46.5048 29.1151 42.908 29.1151 38.4711C29.1151 34.0343 25.5183 30.4375 21.0815 30.4375C16.6446 30.4375 13.0479 34.0343 13.0479 38.4711C13.0479 42.908 16.6446 46.5048 21.0815 46.5048Z" stroke="url(#paint0_linear_21880_3772)" stroke-width="2" stroke-linecap="round" stroke-linejoin="round"/>
<path d="M35.3435 30.0905L36.2095 29.5903V29.5903L35.3435 30.0905ZM35.4756 30.3192L34.6097 30.8194L34.6097 30.8194L35.4756 30.3192ZM37.0011 31.8202L37.4872 30.9463V30.9463L37.0011 31.8202ZM40.1164 33.5533L39.6303 34.4271V34.4271L40.1164 33.5533ZM41.1484 35.3038L40.1484 35.3061L41.1484 35.3038ZM41.1628 41.634L40.1628 41.6362L41.1628 41.634ZM40.1279 43.3952L39.6432 42.5206V42.5206L40.1279 43.3952ZM37.0051 45.1258L37.4898 46.0005L37.0051 45.1258ZM35.4739 46.63L34.6079 46.1298L34.6079 46.1298L35.4739 46.63ZM35.3435 46.8556L36.2095 47.3558L36.2095 47.3558L35.3435 46.8556ZM34.8055 48.9324L33.8057 48.9492V48.9492L34.8055 48.9324ZM34.8657 52.5092L33.8658 52.526L34.8657 52.5092ZM33.8657 54.28L33.3638 53.4151L33.3638 53.4151L33.8657 54.28ZM28.3868 57.4599L28.8888 58.3248H28.8888L28.3868 57.4599ZM26.3449 57.4448L26.8596 56.5874L26.3449 57.4448ZM23.2799 55.6048L22.7652 56.4621L23.2799 55.6048ZM18.8844 55.6024L19.3981 56.4603H19.3981L18.8844 55.6024ZM15.8334 57.4292L15.3197 56.5712L15.8334 57.4292ZM13.7989 57.4462L14.2982 56.5798L13.7989 57.4462ZM8.30263 54.279L8.80191 53.4125L8.30263 54.279ZM7.29727 52.5049L8.29713 52.5218L7.29727 52.5049ZM7.35739 48.9437L6.35753 48.9269V48.9269L7.35739 48.9437ZM6.82727 46.8805L7.69515 46.3837L6.82727 46.8805ZM6.68763 46.6366L5.81975 47.1333L5.81975 47.1333L6.68763 46.6366ZM5.15427 45.1218L4.66812 45.9957L5.15427 45.1218ZM2.04641 43.3929L1.56027 44.2667L1.56027 44.2667L2.04641 43.3929ZM1.01438 41.6423L0.0143862 41.6446L1.01438 41.6423ZM1.00001 35.3122L2 35.3099L1.00001 35.3122ZM2.0349 33.5509L2.51962 34.4256L2.51962 34.4256L2.0349 33.5509ZM5.15775 31.8203L4.67304 30.9456H4.67304L5.15775 31.8203ZM6.68896 30.3161L5.82305 29.8159L5.82305 29.8159L6.68896 30.3161ZM6.81928 30.0905L7.68519 30.5907L7.6852 30.5907L6.81928 30.0905ZM7.35731 28.0137L8.35717 27.9969L7.35731 28.0137ZM7.29713 24.4369L6.29727 24.4538L7.29713 24.4369ZM8.2971 22.6661L8.79907 23.531H8.79907L8.2971 22.6661ZM13.776 19.4862L14.278 20.3511V20.3511L13.776 19.4862ZM15.8179 19.5013L15.3032 20.3587V20.3587L15.8179 19.5013ZM18.8829 21.3414L18.3682 22.1987V22.1987L18.8829 21.3414ZM23.2784 21.3438L22.7647 20.4858L22.7647 20.4858L23.2784 21.3438ZM26.3294 19.5169L25.8157 18.659V18.659L26.3294 19.5169ZM28.3639 19.4999L28.8632 18.6335L28.8632 18.6335L28.3639 19.4999ZM33.8603 22.6672L34.3596 21.8007L33.8603 22.6672ZM34.8656 24.4411L33.8658 24.4243V24.4243L34.8656 24.4411ZM34.8055 28.0137L33.8057 27.9969V27.9969L34.8055 28.0137ZM34.4776 30.5907L34.6097 30.8194L36.3415 29.819L36.2095 29.5903L34.4776 30.5907ZM36.515 32.6941L39.6303 34.4271L40.6026 32.6794L37.4872 30.9463L36.515 32.6941ZM40.1484 35.3061L40.1628 41.6362L42.1628 41.6317L42.1484 35.3015L40.1484 35.3061ZM39.6432 42.5206L36.5204 44.2511L37.4898 46.0005L40.6126 44.2699L39.6432 42.5206ZM34.6079 46.1298L34.4776 46.3554L36.2095 47.3558L36.3398 47.1302L34.6079 46.1298ZM33.8057 48.9492L33.8658 52.526L35.8656 52.4924L35.8054 48.9156L33.8057 48.9492ZM33.3638 53.4151L27.8849 56.595L28.8888 58.3248L34.3677 55.1449L33.3638 53.4151ZM26.8596 56.5874L23.7946 54.7474L22.7652 56.4621L25.8302 58.3022L26.8596 56.5874ZM21.2124 54.0318H20.9479V56.0318H21.2124V54.0318ZM18.3707 54.7444L15.3197 56.5712L16.3472 58.2871L19.3981 56.4603L18.3707 54.7444ZM14.2982 56.5798L8.80191 53.4125L7.80334 55.1454L13.2996 58.3127L14.2982 56.5798ZM8.29713 52.5218L8.35725 48.9606L6.35753 48.9269L6.29741 52.488L8.29713 52.5218ZM7.69515 46.3837L7.55552 46.1398L5.81975 47.1333L5.95939 47.3773L7.69515 46.3837ZM5.64041 44.2479L2.53256 42.519L1.56027 44.2667L4.66812 45.9957L5.64041 44.2479ZM2.01438 41.6401L2 35.3099L7.80821e-06 35.3144L0.0143862 41.6446L2.01438 41.6401ZM2.51962 34.4256L5.64247 32.695L4.67304 30.9456L1.55019 32.6762L2.51962 34.4256ZM7.55487 30.8163L7.68519 30.5907L5.95337 29.5903L5.82305 29.8159L7.55487 30.8163ZM8.35717 27.9969L8.29699 24.4201L6.29727 24.4538L6.35745 28.0306L8.35717 27.9969ZM8.79907 23.531L14.278 20.3511L13.274 18.6213L7.79513 21.8012L8.79907 23.531ZM15.3032 20.3587L18.3682 22.1987L19.3976 20.484L16.3326 18.644L15.3032 20.3587ZM20.9504 22.9143H21.2149V20.9143H20.9504V22.9143ZM23.7922 22.2017L26.8431 20.3749L25.8157 18.659L22.7647 20.4858L23.7922 22.2017ZM27.8646 20.3663L33.361 23.5336L34.3596 21.8007L28.8632 18.6335L27.8646 20.3663ZM33.8658 24.4243L33.8057 27.9969L35.8054 28.0306L35.8655 24.458L33.8658 24.4243ZM33.361 23.5336C33.6786 23.7167 33.8719 24.0577 33.8658 24.4243L35.8655 24.458C35.8839 23.3643 35.3073 22.3469 34.3596 21.8007L33.361 23.5336ZM26.8431 20.3749C27.1569 20.187 27.5478 20.1838 27.8646 20.3663L28.8632 18.6335C27.9179 18.0887 26.7517 18.0985 25.8157 18.659L26.8431 20.3749ZM21.2149 22.9143C22.1227 22.9143 23.0134 22.668 23.7922 22.2017L22.7647 20.4858C22.2964 20.7662 21.7608 20.9143 21.2149 20.9143V22.9143ZM18.3682 22.1987C19.1481 22.667 20.0407 22.9143 20.9504 22.9143V20.9143C20.4034 20.9143 19.8666 20.7656 19.3976 20.484L18.3682 22.1987ZM14.278 20.3511C14.5956 20.1667 14.9883 20.1697 15.3032 20.3587L16.3326 18.644C15.3933 18.08 14.2216 18.0714 13.274 18.6213L14.278 20.3511ZM8.29699 24.4201C8.29084 24.0547 8.48294 23.7145 8.79907 23.531L7.79513 21.8012C6.85201 22.3486 6.27893 23.3635 6.29727 24.4538L8.29699 24.4201ZM7.6852 30.5907C8.1402 29.803 8.37247 28.9064 8.35717 27.9969L6.35745 28.0306C6.36666 28.5775 6.22698 29.1166 5.95337 29.5903L7.6852 30.5907ZM5.64247 32.695C6.43855 32.2538 7.09962 31.6044 7.55488 30.8163L5.82305 29.8159C5.54929 30.2898 5.15176 30.6804 4.67304 30.9456L5.64247 32.695ZM2 35.3099C1.99917 34.9425 2.19824 34.6037 2.51962 34.4256L1.55019 32.6762C0.591418 33.2075 -0.00248206 34.2183 7.80821e-06 35.3144L2 35.3099ZM2.53256 42.519C2.21342 42.3414 2.01521 42.0052 2.01438 41.6401L0.0143862 41.6446C0.0168609 42.7341 0.608186 43.7371 1.56027 44.2667L2.53256 42.519ZM7.55552 46.1398C7.10142 45.3465 6.43921 44.6923 5.64041 44.2479L4.66812 45.9957C5.14848 46.2629 5.54669 46.6563 5.81975 47.1333L7.55552 46.1398ZM8.35725 48.9606C8.37249 48.0577 8.14375 47.1674 7.69515 46.3837L5.95939 47.3773C6.22915 47.8486 6.3667 48.3839 6.35753 48.9269L8.35725 48.9606ZM8.80191 53.4125C8.48422 53.2295 8.29094 52.8884 8.29713 52.5218L6.29741 52.488C6.27895 53.5817 6.85559 54.5993 7.80334 55.1454L8.80191 53.4125ZM15.3197 56.5712C15.006 56.7591 14.6151 56.7624 14.2982 56.5798L13.2996 58.3127C14.2449 58.8574 15.4111 58.8476 16.3472 58.2871L15.3197 56.5712ZM20.9479 54.0318C20.0402 54.0318 19.1495 54.2781 18.3707 54.7444L19.3981 56.4603C19.8664 56.1799 20.4021 56.0318 20.9479 56.0318V54.0318ZM23.7946 54.7474C23.0147 54.2792 22.1221 54.0318 21.2124 54.0318V56.0318C21.7595 56.0318 22.2962 56.1805 22.7652 56.4621L23.7946 54.7474ZM27.8849 56.595C27.5672 56.7794 27.1745 56.7765 26.8596 56.5874L25.8302 58.3022C26.7695 58.8661 27.9412 58.8748 28.8888 58.3248L27.8849 56.595ZM33.8658 52.526C33.872 52.8915 33.6799 53.2317 33.3638 53.4151L34.3677 55.1449C35.3108 54.5975 35.8839 53.5827 35.8656 52.4924L33.8658 52.526ZM34.4776 46.3554C34.0226 47.1431 33.7904 48.0397 33.8057 48.9492L35.8054 48.9156C35.7962 48.3686 35.9358 47.8295 36.2095 47.3558L34.4776 46.3554ZM36.5204 44.2511C35.7243 44.6923 35.0632 45.3417 34.6079 46.1298L36.3398 47.1302C36.6135 46.6563 37.0111 46.2658 37.4898 46.0005L36.5204 44.2511ZM40.1628 41.6362C40.1637 42.0037 39.9646 42.3425 39.6432 42.5206L40.6126 44.2699C41.5714 43.7386 42.1653 42.7278 42.1628 41.6317L40.1628 41.6362ZM39.6303 34.4271C39.9494 34.6047 40.1476 34.9409 40.1484 35.3061L42.1484 35.3015C42.146 34.2121 41.5546 33.209 40.6026 32.6794L39.6303 34.4271ZM34.6097 30.8194C35.0636 31.6051 35.722 32.253 36.515 32.6941L37.4872 30.9463C37.0104 30.6811 36.6145 30.2914 36.3415 29.819L34.6097 30.8194ZM36.2095 29.5903C35.9358 29.1166 35.7962 28.5775 35.8054 28.0306L33.8057 27.9969C33.7904 28.9064 34.0226 29.803 34.4776 30.5907L36.2095 29.5903Z" fill="url(#paint1_linear_21880_3772)"/>
<path d="M49.2075 24.3918C51.9393 24.8679 54.5399 23.0393 55.0161 20.3075C55.4922 17.5756 53.6636 14.975 50.9318 14.4989C48.2 14.0227 45.5993 15.8513 45.1232 18.5832C44.647 21.315 46.4756 23.9156 49.2075 24.3918Z" stroke="url(#paint2_linear_21880_3772)" stroke-width="2" stroke-linecap="round" stroke-linejoin="round"/>
<path d="M60.1045 15.8718L61.0376 15.5121L61.0376 15.5121L60.1045 15.8718ZM60.1645 16.0275L59.2314 16.3872L59.2314 16.3872L60.1645 16.0275ZM60.9802 17.1231L61.5966 16.3356L61.5966 16.3356L60.9802 17.1231ZM62.7891 18.5391L62.1727 19.3266L62.7891 18.5391ZM63.262 19.7334L62.2764 19.5641L62.2764 19.5641L63.262 19.7334ZM62.5911 23.6372L61.6055 23.4678L61.6055 23.4678L62.5911 23.6372ZM61.739 24.6074L61.4269 23.6573L61.4269 23.6573L61.739 24.6074ZM59.5531 25.3256L59.8653 26.2756L59.5531 25.3256ZM58.4109 26.0819L57.6545 25.4277L57.6545 25.4278L58.4109 26.0819ZM58.3032 26.2064L59.0595 26.8606L59.0595 26.8606L58.3032 26.2064ZM57.7355 27.4266L56.7475 27.2721L56.7475 27.2721L57.7355 27.4266ZM57.3897 29.6382L56.4017 29.4837L57.3897 29.6382ZM56.559 30.6181L56.2285 29.6744L56.2285 29.6744L56.559 30.6181ZM52.7085 31.9668L53.039 32.9105L53.0391 32.9105L52.7085 31.9668ZM51.4024 31.7295L52.044 30.9625L51.4024 31.7295ZM49.6372 30.2531L48.9956 31.0202L49.6372 30.2531ZM46.8224 29.761L47.1656 30.7003L47.1656 30.7003L46.8224 29.761ZM44.6722 30.5465L44.3291 29.6072L44.3291 29.6073L44.6722 30.5465ZM43.3674 30.3299L43.9954 29.5517L43.3674 30.3299ZM40.1877 27.764L40.8157 26.9858L40.1877 27.764ZM39.7345 26.5582L40.7165 26.7471L39.7345 26.5582ZM40.1556 24.3696L39.1736 24.1807L39.1736 24.1807L40.1556 24.3696ZM40.0378 23.0386L40.9723 22.6826L40.0378 23.0386ZM39.9746 22.8726L39.0401 23.2286L39.0401 23.2286L39.9746 22.8726ZM39.1553 21.7677L38.5389 22.5551L39.1553 21.7677ZM37.3507 20.355L36.7343 21.1424L36.7343 21.1424L37.3507 20.355ZM36.8778 19.1607L35.8923 18.9913L36.8778 19.1607ZM37.5488 15.257L38.5343 15.4264L37.5488 15.257ZM38.4008 14.2868L38.7129 15.2368L38.7129 15.2368L38.4008 14.2868ZM40.5867 13.5686L40.2745 12.6185L40.2745 12.6185L40.5867 13.5686ZM41.7289 12.8122L40.9726 12.1581L40.9726 12.1581L41.7289 12.8122ZM41.8366 12.6877L42.593 13.3419L42.593 13.3419L41.8366 12.6877ZM42.4044 11.4676L43.3924 11.6221L42.4044 11.4676ZM42.7501 9.25601L41.7621 9.10154L42.7501 9.25601ZM43.5808 8.27602L43.9113 9.21981L43.5808 8.27602ZM47.4313 6.9274L47.7619 7.87119L47.7619 7.87119L47.4313 6.9274ZM48.7374 7.16465L48.0958 7.93172L48.0958 7.93172L48.7374 7.16465ZM50.5026 8.64106L49.861 9.40812L49.861 9.40812L50.5026 8.64106ZM53.3174 9.13319L52.9742 8.19391L52.9742 8.19391L53.3174 9.13319ZM55.4676 8.34764L55.1244 7.40836L55.1244 7.40836L55.4676 8.34764ZM56.7724 8.56425L57.4004 7.78603L57.4004 7.78603L56.7724 8.56425ZM59.9521 11.1302L60.5801 10.352L59.9521 11.1302ZM60.4054 12.336L59.4234 12.1471L59.4234 12.1471L60.4054 12.336ZM59.983 14.5315L59.0011 14.3426L59.0011 14.3426L59.983 14.5315ZM59.1714 16.2315L59.2314 16.3872L61.0976 15.6678L61.0376 15.5121L59.1714 16.2315ZM60.3638 17.9105L62.1727 19.3266L63.4055 17.7517L61.5966 16.3356L60.3638 17.9105ZM62.2764 19.5641L61.6055 23.4678L63.5766 23.8066L64.2475 19.9028L62.2764 19.5641ZM61.4269 23.6573L59.241 24.3755L59.8653 26.2756L62.0512 25.5574L61.4269 23.6573ZM57.6545 25.4278L57.5468 25.5523L59.0595 26.8606L59.1672 26.7361L57.6545 25.4278ZM56.7475 27.2721L56.4017 29.4837L58.3777 29.7926L58.7235 27.581L56.7475 27.2721ZM56.2285 29.6744L52.3779 31.023L53.0391 32.9105L56.8896 31.5619L56.2285 29.6744ZM52.044 30.9625L50.2788 29.486L48.9956 31.0202L50.7608 32.4966L52.044 30.9625ZM48.5464 28.684L48.377 28.6545L48.0336 30.6248L48.203 30.6543L48.5464 28.684ZM46.4793 28.8217L44.3291 29.6072L45.0154 31.4858L47.1656 30.7003L46.4793 28.8217ZM43.9954 29.5517L40.8157 26.9858L39.5597 28.5422L42.7394 31.1081L43.9954 29.5517ZM40.7165 26.7471L41.1376 24.5586L39.1736 24.1807L38.7525 26.3692L40.7165 26.7471ZM40.9723 22.6826L40.9091 22.5167L39.0401 23.2286L39.1033 23.3946L40.9723 22.6826ZM39.7717 20.9803L37.9671 19.5676L36.7343 21.1424L38.5389 22.5551L39.7717 20.9803ZM37.8634 19.3301L38.5343 15.4264L36.5632 15.0876L35.8923 18.9913L37.8634 19.3301ZM38.7129 15.2368L40.8988 14.5186L40.2745 12.6185L38.0886 13.3367L38.7129 15.2368ZM42.4853 13.4664L42.593 13.3419L41.0803 12.0336L40.9726 12.1581L42.4853 13.4664ZM43.3924 11.6221L43.7381 9.41047L41.7621 9.10154L41.4164 11.3131L43.3924 11.6221ZM43.9113 9.21981L47.7619 7.87119L47.1008 5.98362L43.2502 7.33223L43.9113 9.21981ZM48.0958 7.93172L49.861 9.40812L51.1442 7.87399L49.379 6.39759L48.0958 7.93172ZM51.5934 10.2102L51.7628 10.2397L52.1063 8.26941L51.9369 8.23989L51.5934 10.2102ZM53.6606 10.0725L55.8108 9.28692L55.1244 7.40836L52.9742 8.19391L53.6606 10.0725ZM56.1444 9.34246L59.3241 11.9084L60.5801 10.352L57.4004 7.78603L56.1444 9.34246ZM59.4234 12.1471L59.0011 14.3426L60.965 14.7204L61.3874 12.5249L59.4234 12.1471ZM59.3241 11.9084C59.4131 11.9802 59.4374 12.0746 59.4234 12.1471L61.3874 12.5249C61.5461 11.7 61.2233 10.871 60.5801 10.352L59.3241 11.9084ZM55.8108 9.28692C55.9214 9.24649 56.0522 9.26803 56.1444 9.34246L57.4004 7.78603C56.7625 7.27121 55.8946 7.12697 55.1244 7.40836L55.8108 9.28692ZM51.7628 10.2397C52.3992 10.3506 53.0548 10.2938 53.6606 10.0725L52.9742 8.19391C52.7011 8.2937 52.4008 8.32076 52.1063 8.26941L51.7628 10.2397ZM49.861 9.40812C50.3568 9.8228 50.9557 10.099 51.5934 10.2102L51.9369 8.23989C51.6416 8.18843 51.3677 8.06094 51.1442 7.87399L49.861 9.40812ZM47.7619 7.87119C47.8741 7.83188 48.0051 7.85583 48.0958 7.93172L49.379 6.39759C48.7474 5.86931 47.8777 5.7115 47.1008 5.98362L47.7619 7.87119ZM43.7381 9.41047C43.7495 9.33772 43.804 9.25741 43.9113 9.21981L43.2502 7.33223C42.4726 7.60459 41.8915 8.27417 41.7621 9.10154L43.7381 9.41047ZM42.593 13.3419C43.0153 12.8537 43.2927 12.2592 43.3924 11.6221L41.4164 11.3131C41.3752 11.5765 41.2602 11.8256 41.0803 12.0336L42.593 13.3419ZM40.8988 14.5186C41.5135 14.3166 42.0631 13.9546 42.4853 13.4664L40.9726 12.1581C40.7923 12.3665 40.5522 12.5273 40.2745 12.6185L40.8988 14.5186ZM38.5343 15.4264C38.5469 15.3534 38.6033 15.2728 38.7129 15.2368L38.0886 13.3367C37.3022 13.5952 36.7058 14.258 36.5632 15.0876L38.5343 15.4264ZM37.9671 19.5676C37.8769 19.497 37.8509 19.4027 37.8634 19.3301L35.8923 18.9913C35.7506 19.8158 36.0864 20.6352 36.7343 21.1424L37.9671 19.5676ZM40.9091 22.5167C40.6783 21.9109 40.2834 21.3809 39.7717 20.9803L38.5389 22.5551C38.7699 22.736 38.9416 22.9701 39.0401 23.2286L40.9091 22.5167ZM41.1376 24.5586C41.2586 23.9299 41.2004 23.2815 40.9723 22.6826L39.1033 23.3946C39.2004 23.6496 39.2236 23.9208 39.1736 24.1807L41.1376 24.5586ZM40.8157 26.9858C40.7268 26.914 40.7025 26.8196 40.7165 26.7471L38.7525 26.3692C38.5937 27.1941 38.9166 28.0232 39.5597 28.5422L40.8157 26.9858ZM44.3291 29.6073C44.2184 29.6477 44.0876 29.6261 43.9954 29.5517L42.7394 31.1081C43.3774 31.6229 44.2452 31.7672 45.0154 31.4858L44.3291 29.6073ZM48.377 28.6545C47.7406 28.5435 47.0851 28.6004 46.4793 28.8217L47.1656 30.7003C47.4387 30.6005 47.739 30.5734 48.0336 30.6248L48.377 28.6545ZM50.2788 29.486C49.783 29.0714 49.1841 28.7951 48.5464 28.684L48.203 30.6543C48.4982 30.7057 48.7721 30.8332 48.9956 31.0202L50.2788 29.486ZM52.3779 31.023C52.2657 31.0623 52.1347 31.0383 52.044 30.9625L50.7608 32.4966C51.3924 33.0249 52.2621 33.1827 53.039 32.9105L52.3779 31.023ZM56.4017 29.4837C56.3903 29.5564 56.3358 29.6368 56.2285 29.6744L56.8896 31.5619C57.6672 31.2896 58.2483 30.62 58.3777 29.7926L56.4017 29.4837ZM57.5468 25.5523C57.1246 26.0405 56.8471 26.6349 56.7475 27.2721L58.7235 27.581C58.7646 27.3177 58.8796 27.0686 59.0595 26.8606L57.5468 25.5523ZM59.241 24.3755C58.6263 24.5775 58.0767 24.9396 57.6545 25.4277L59.1672 26.7361C59.3475 26.5277 59.5877 26.3668 59.8653 26.2756L59.241 24.3755ZM61.6055 23.4678C61.593 23.5408 61.5365 23.6213 61.4269 23.6573L62.0512 25.5574C62.8377 25.299 63.434 24.6361 63.5766 23.8066L61.6055 23.4678ZM62.1727 19.3266C62.2629 19.3972 62.2889 19.4914 62.2764 19.5641L64.2475 19.9028C64.3892 19.0784 64.0535 18.2589 63.4055 17.7517L62.1727 19.3266ZM59.2314 16.3872C59.4629 16.9876 59.8558 17.5129 60.3638 17.9105L61.5966 16.3356C61.3672 16.1561 61.1964 15.9241 61.0976 15.6678L59.2314 16.3872ZM61.0376 15.5121C60.9386 15.2555 60.9147 14.9822 60.965 14.7204L59.0011 14.3426C58.8792 14.9759 58.9392 15.6292 59.1714 16.2315L61.0376 15.5121Z" fill="url(#paint3_linear_21880_3772)"/>
<defs>
<linearGradient id="paint0_linear_21880_3772" x1="13.0479" y1="38.4711" x2="30.1106" y2="39.0238" gradientUnits="userSpaceOnUse">
<stop stop-color="#0091EF"/>
<stop offset="1" stop-color="#32D7D4"/>
</linearGradient>
<linearGradient id="paint1_linear_21880_3772" x1="1" y1="38.4731" x2="43.6473" y2="39.9135" gradientUnits="userSpaceOnUse">
<stop stop-color="#0091EF"/>
<stop offset="1" stop-color="#32D7D4"/>
</linearGradient>
<linearGradient id="paint2_linear_21880_3772" x1="45.1232" y1="18.5832" x2="55.5697" y2="20.7546" gradientUnits="userSpaceOnUse">
<stop stop-color="#0091EF"/>
<stop offset="1" stop-color="#32D7D4"/>
</linearGradient>
<linearGradient id="paint3_linear_21880_3772" x1="37.2091" y1="17.2055" x2="64.3523" y2="22.9239" gradientUnits="userSpaceOnUse">
<stop stop-color="#0091EF"/>
<stop offset="1" stop-color="#32D7D4"/>
</linearGradient>
</defs>
</svg>
