<svg width="64" height="66" viewBox="0 0 64 66" fill="none" xmlns="http://www.w3.org/2000/svg">
<path fill-rule="evenodd" clip-rule="evenodd" d="M41.6187 11.8755C41.9066 11.7281 42.2481 11.7291 42.5352 11.8781L63.2759 22.6444C63.61 22.8179 63.8184 23.1642 63.8151 23.5406C63.8119 23.917 63.5975 24.2597 63.2605 24.4274L54.9607 28.5554L63.2709 32.8101C63.6078 32.9826 63.8184 33.3305 63.8151 33.7089C63.8119 34.0874 63.5952 34.4315 63.2554 34.5981L53.1408 39.5568C53.1459 39.5977 53.1485 39.6393 53.1485 39.6815V54.6348C53.1485 55.0123 52.936 55.3575 52.5991 55.5276L32.4509 65.6958C32.1712 65.837 31.8415 65.8389 31.5602 65.701L10.8194 55.5327C10.4768 55.3648 10.2596 55.0164 10.2596 54.6348V39.6815C10.2596 39.5463 10.2865 39.4173 10.3352 39.2996L0.745348 34.5981C0.405526 34.4315 0.188872 34.0874 0.185585 33.7089C0.182298 33.3305 0.392941 32.9826 0.729817 32.8101L9.04006 28.5554L0.740226 24.4274C0.403186 24.2597 0.188835 23.917 0.185584 23.5406C0.182334 23.1642 0.390735 22.8179 0.72483 22.6444L21.4656 11.8781C21.7527 11.7291 22.0941 11.7281 22.382 11.8755L32.0004 16.8L41.6187 11.8755ZM12.2596 40.2431V54.0114L31.0004 63.1991V40.4722L22.3716 44.7638C22.0929 44.9025 21.7656 44.9034 21.4861 44.7664L12.2596 40.2431ZM33.0004 40.4722V63.1783L51.1485 54.0194V40.5336L42.5146 44.7664C42.2352 44.9034 41.9078 44.9025 41.6291 44.7638L33.0004 40.4722ZM60.6079 23.5129L52.7476 27.4223L34.1946 17.9234L42.0713 13.8907L60.6079 23.5129ZM50.5215 28.5295L32.0004 19.0469L13.4792 28.5295L32.0004 37.7412L50.5215 28.5295ZM21.9294 13.8907L29.8061 17.9234L11.2531 27.4223L3.39279 23.5129L21.9294 13.8907ZM3.4177 33.6808L11.2662 29.6625L29.7548 38.858L21.9231 42.7532L3.4177 33.6808ZM52.7346 29.6625L34.2459 38.858L42.0776 42.7532L60.583 33.6808L52.7346 29.6625Z" fill="url(#paint0_linear_21880_3758)"/>
<mask id="path-2-outside-1_21880_3758" maskUnits="userSpaceOnUse" x="18.333" y="0.195312" width="28" height="26" fill="black">
<rect fill="white" x="18.333" y="0.195312" width="28" height="26"/>
<path fill-rule="evenodd" clip-rule="evenodd" d="M43.424 3.84803C43.7844 3.42961 43.7375 2.79819 43.319 2.43771C42.9006 2.07724 42.2692 2.12421 41.9087 2.54263L30.7632 15.4798L26.7841 11.4635C26.3954 11.0712 25.7623 11.0682 25.37 11.4569C24.9776 11.8456 24.9747 12.4788 25.3634 12.8711L30.1041 17.6562L30.8658 18.4249L31.5721 17.6051L43.424 3.84803ZM29.4823 4.30172C31.3128 4.00751 33.1889 4.32732 34.8232 5.21298C35.3087 5.47613 35.9157 5.29582 36.1788 4.81025C36.442 4.32468 36.2617 3.71774 35.7761 3.45459C33.7546 2.3591 31.4321 1.96269 29.1649 2.32706C26.8978 2.69141 24.8133 3.79603 23.2302 5.46958C21.6474 7.14298 20.6531 9.29287 20.3981 11.5891C20.1431 13.8854 20.6412 16.2032 21.8171 18.1876C22.9931 20.1721 24.7826 21.7143 26.9127 22.5759C29.0431 23.4375 31.3951 23.5702 33.6076 22.9533C35.8201 22.3365 37.7692 21.0047 39.1573 19.1641C40.5452 17.3238 41.296 15.076 41.296 12.7654C41.296 12.2131 40.8483 11.7654 40.296 11.7654C39.7437 11.7654 39.296 12.2131 39.296 12.7654C39.296 14.643 38.6858 16.4678 37.5605 17.9599C36.4353 19.4519 34.8576 20.5285 33.0705 21.0268C31.2835 21.525 29.384 21.418 27.6627 20.7218C25.9412 20.0255 24.4916 18.7778 23.5377 17.168C22.5837 15.5581 22.1787 13.6757 22.3859 11.8099C22.5931 9.94406 23.4007 8.19975 24.6832 6.84395C25.9655 5.4883 27.6516 4.59593 29.4823 4.30172Z"/>
</mask>
<path fill-rule="evenodd" clip-rule="evenodd" d="M43.424 3.84803C43.7844 3.42961 43.7375 2.79819 43.319 2.43771C42.9006 2.07724 42.2692 2.12421 41.9087 2.54263L30.7632 15.4798L26.7841 11.4635C26.3954 11.0712 25.7623 11.0682 25.37 11.4569C24.9776 11.8456 24.9747 12.4788 25.3634 12.8711L30.1041 17.6562L30.8658 18.4249L31.5721 17.6051L43.424 3.84803ZM29.4823 4.30172C31.3128 4.00751 33.1889 4.32732 34.8232 5.21298C35.3087 5.47613 35.9157 5.29582 36.1788 4.81025C36.442 4.32468 36.2617 3.71774 35.7761 3.45459C33.7546 2.3591 31.4321 1.96269 29.1649 2.32706C26.8978 2.69141 24.8133 3.79603 23.2302 5.46958C21.6474 7.14298 20.6531 9.29287 20.3981 11.5891C20.1431 13.8854 20.6412 16.2032 21.8171 18.1876C22.9931 20.1721 24.7826 21.7143 26.9127 22.5759C29.0431 23.4375 31.3951 23.5702 33.6076 22.9533C35.8201 22.3365 37.7692 21.0047 39.1573 19.1641C40.5452 17.3238 41.296 15.076 41.296 12.7654C41.296 12.2131 40.8483 11.7654 40.296 11.7654C39.7437 11.7654 39.296 12.2131 39.296 12.7654C39.296 14.643 38.6858 16.4678 37.5605 17.9599C36.4353 19.4519 34.8576 20.5285 33.0705 21.0268C31.2835 21.525 29.384 21.418 27.6627 20.7218C25.9412 20.0255 24.4916 18.7778 23.5377 17.168C22.5837 15.5581 22.1787 13.6757 22.3859 11.8099C22.5931 9.94406 23.4007 8.19975 24.6832 6.84395C25.9655 5.4883 27.6516 4.59593 29.4823 4.30172Z" fill="url(#paint1_linear_21880_3758)"/>
<path d="M43.319 2.43771L44.6244 0.922475V0.922475L43.319 2.43771ZM43.424 3.84803L44.9392 5.15342L44.9392 5.15342L43.424 3.84803ZM41.9087 2.54263L40.3935 1.23724L40.3935 1.23724L41.9087 2.54263ZM30.7632 15.4798L29.3425 16.8874L30.8658 18.4249L32.2785 16.7852L30.7632 15.4798ZM26.7841 11.4635L25.3634 12.8711H25.3634L26.7841 11.4635ZM25.3634 12.8711L26.7841 11.4635L26.7841 11.4635L25.3634 12.8711ZM30.1041 17.6562L28.6833 19.0638H28.6833L30.1041 17.6562ZM30.8658 18.4249L29.445 19.8326L30.9683 21.3701L32.381 19.7303L30.8658 18.4249ZM31.5721 17.6051L33.0874 18.9104H33.0874L31.5721 17.6051ZM34.8232 5.21298L35.7761 3.45459L35.7761 3.45459L34.8232 5.21298ZM29.4823 4.30172L29.1649 2.32706L29.4823 4.30172ZM36.1788 4.81025L34.4204 3.85732L34.4204 3.85733L36.1788 4.81025ZM35.7761 3.45459L34.8232 5.21298L34.8232 5.21298L35.7761 3.45459ZM29.1649 2.32706L29.4823 4.30172L29.1649 2.32706ZM23.2302 5.46958L21.7773 4.09521L21.7773 4.09521L23.2302 5.46958ZM20.3981 11.5891L22.3859 11.8099L22.3859 11.8099L20.3981 11.5891ZM21.8171 18.1876L20.0965 19.2072H20.0965L21.8171 18.1876ZM26.9127 22.5759L27.6627 20.7218H27.6627L26.9127 22.5759ZM33.6076 22.9533L33.0705 21.0268H33.0705L33.6076 22.9533ZM39.1573 19.1641L40.7541 20.3684L40.7541 20.3684L39.1573 19.1641ZM37.5605 17.9599L39.1573 19.1641L37.5605 17.9599ZM33.0705 21.0268L33.6076 22.9533H33.6076L33.0705 21.0268ZM27.6627 20.7218L28.4126 18.8677H28.4126L27.6627 20.7218ZM23.5377 17.168L21.8171 18.1876H21.8171L23.5377 17.168ZM22.3859 11.8099L20.3981 11.5891L20.3981 11.5891L22.3859 11.8099ZM24.6832 6.84395L26.1362 8.21832L24.6832 6.84395ZM42.0137 3.95295C41.5952 3.59247 41.5483 2.96105 41.9087 2.54263L44.9392 5.15342C46.0206 3.89816 45.8797 2.0039 44.6244 0.922475L42.0137 3.95295ZM43.424 3.84803C43.0635 4.26645 42.4321 4.31342 42.0137 3.95295L44.6244 0.922475C43.3692 -0.158952 41.4749 -0.0180261 40.3935 1.23724L43.424 3.84803ZM32.2785 16.7852L43.424 3.84803L40.3935 1.23724L29.248 14.1744L32.2785 16.7852ZM25.3634 12.8711L29.3425 16.8874L32.184 14.0721L28.2049 10.0559L25.3634 12.8711ZM26.7776 12.8777C26.3852 13.2664 25.7521 13.2635 25.3634 12.8711L28.2049 10.0559C27.0388 8.87886 25.1393 8.87003 23.9623 10.0361L26.7776 12.8777ZM26.7841 11.4635C27.1729 11.8558 27.1699 12.489 26.7776 12.8777L23.9623 10.0361C22.7853 11.2022 22.7765 13.1017 23.9426 14.2787L26.7841 11.4635ZM31.5249 16.2485L26.7841 11.4635L23.9426 14.2787L28.6833 19.0638L31.5249 16.2485ZM32.2865 17.0173L31.5249 16.2485L28.6833 19.0638L29.445 19.8326L32.2865 17.0173ZM30.0569 16.2997L29.3505 17.1195L32.381 19.7303L33.0874 18.9104L30.0569 16.2997ZM41.9087 2.54263L30.0569 16.2997L33.0874 18.9104L44.9392 5.15342L41.9087 2.54263ZM35.7761 3.45459C33.7546 2.35909 31.432 1.96269 29.1649 2.32706L29.7996 6.27638C31.1936 6.05234 32.6232 6.29554 33.8702 6.97137L35.7761 3.45459ZM34.4204 3.85733C34.6836 3.37176 35.2905 3.19145 35.7761 3.45459L33.8702 6.97137C35.3269 7.7608 37.1478 7.21987 37.9372 5.76317L34.4204 3.85733ZM34.8232 5.21298C34.3376 4.94984 34.1573 4.34289 34.4204 3.85732L37.9372 5.76318C38.7266 4.30648 38.1857 2.48563 36.729 1.6962L34.8232 5.21298ZM29.4823 4.30172C31.3128 4.00752 33.1889 4.32731 34.8232 5.21298L36.729 1.6962C34.3204 0.39088 31.5513 -0.0821347 28.8475 0.352396L29.4823 4.30172ZM24.6832 6.84395C25.9655 5.48829 27.6516 4.59593 29.4823 4.30172L28.8475 0.352396C26.144 0.786894 23.661 2.10376 21.7773 4.09521L24.6832 6.84395ZM22.3859 11.8099C22.5931 9.94406 23.4007 8.19975 24.6832 6.84395L21.7773 4.09521C19.894 6.08622 18.7131 8.64168 18.4103 11.3684L22.3859 11.8099ZM23.5377 17.168C22.5837 15.5581 22.1787 13.6757 22.3859 11.8099L18.4103 11.3684C18.1076 14.095 18.6988 16.8484 20.0965 19.2072L23.5377 17.168ZM27.6627 20.7218C25.9412 20.0255 24.4916 18.7778 23.5377 17.168L20.0965 19.2072C21.4945 21.5664 23.624 23.4031 26.1628 24.43L27.6627 20.7218ZM33.0705 21.0268C31.2835 21.525 29.384 21.418 27.6627 20.7218L26.1628 24.43C28.7021 25.457 31.5067 25.6154 34.1448 24.8798L33.0705 21.0268ZM37.5605 17.9599C36.4353 19.4519 34.8576 20.5285 33.0705 21.0268L34.1448 24.8798C36.7826 24.1444 39.1032 22.5574 40.7541 20.3684L37.5605 17.9599ZM39.296 12.7654C39.296 14.643 38.6858 16.4678 37.5605 17.9599L40.7541 20.3684C42.4046 18.1798 43.296 15.5089 43.296 12.7654H39.296ZM40.296 13.7654C39.7437 13.7654 39.296 13.3177 39.296 12.7654H43.296C43.296 11.1086 41.9528 9.76543 40.296 9.76543V13.7654ZM41.296 12.7654C41.296 13.3177 40.8483 13.7654 40.296 13.7654V9.76543C38.6391 9.76543 37.296 11.1086 37.296 12.7654H41.296ZM39.1573 19.1641C40.5452 17.3238 41.296 15.076 41.296 12.7654H37.296C37.296 14.2101 36.8264 15.6117 35.9637 16.7556L39.1573 19.1641ZM33.6076 22.9533C35.8201 22.3365 37.7692 21.0047 39.1573 19.1641L35.9637 16.7556C35.1013 17.8991 33.8952 18.7206 32.5333 19.1003L33.6076 22.9533ZM26.9127 22.5759C29.0431 23.4375 31.3951 23.5702 33.6076 22.9533L32.5334 19.1003C31.1719 19.4799 29.7249 19.3985 28.4126 18.8677L26.9127 22.5759ZM21.8171 18.1876C22.9931 20.1721 24.7826 21.7143 26.9127 22.5759L28.4126 18.8677C27.0998 18.3367 25.9902 17.3835 25.2583 16.1484L21.8171 18.1876ZM20.3981 11.5891C20.1431 13.8854 20.6413 16.2032 21.8171 18.1876L25.2583 16.1484C24.5262 14.9129 24.2143 13.466 24.3737 12.0306L20.3981 11.5891ZM23.2302 5.46958C21.6474 7.14297 20.6531 9.29286 20.3981 11.5891L24.3737 12.0306C24.5331 10.5953 25.1541 9.25653 26.1362 8.21832L23.2302 5.46958ZM29.1649 2.32706C26.8978 2.69141 24.8133 3.79602 23.2302 5.46958L26.1362 8.21832C27.1178 7.18058 28.4054 6.50045 29.7996 6.27638L29.1649 2.32706Z" fill="white" mask="url(#path-2-outside-1_21880_3758)"/>
<defs>
<linearGradient id="paint0_linear_21880_3758" x1="0.185547" y1="38.7843" x2="67.7301" y2="41.3605" gradientUnits="userSpaceOnUse">
<stop stop-color="#0091EF"/>
<stop offset="1" stop-color="#32D7D4"/>
</linearGradient>
<linearGradient id="paint1_linear_21880_3758" x1="20.333" y1="12.7654" x2="45.1063" y2="13.6511" gradientUnits="userSpaceOnUse">
<stop stop-color="#0091EF"/>
<stop offset="1" stop-color="#32D7D4"/>
</linearGradient>
</defs>
</svg>
