<svg width="57" height="51" viewBox="0 0 57 51" fill="none" xmlns="http://www.w3.org/2000/svg">
<path fill-rule="evenodd" clip-rule="evenodd" d="M38.1466 2.12027C40.2354 1.78767 42.3758 2.14938 44.2393 3.14996C44.7259 3.41121 45.3322 3.22855 45.5934 2.74196C45.8547 2.25538 45.672 1.64913 45.1854 1.38788C42.9363 0.180288 40.3531 -0.256267 37.8321 0.145155C35.311 0.546577 32.9912 1.76382 31.2283 3.61023C29.4655 5.45664 28.3569 7.83029 28.0725 10.3672C27.7882 12.9042 28.3438 15.4644 29.6542 17.6552C30.9645 19.8461 32.9573 21.5467 35.327 22.4962C37.6966 23.4458 40.3123 23.5919 42.773 22.9122C45.2337 22.2325 47.4035 20.7644 48.9497 18.7331C50.496 16.7019 51.3333 14.2195 51.3333 11.6667C51.3333 11.1144 50.8856 10.6667 50.3333 10.6667C49.781 10.6667 49.3333 11.1144 49.3333 11.6667C49.3333 13.7819 48.6395 15.8387 47.3583 17.5217C46.0772 19.2048 44.2793 20.4212 42.2405 20.9844C40.2016 21.5476 38.0343 21.4265 36.0709 20.6397C34.1075 19.8529 32.4563 18.4439 31.3706 16.6286C30.2849 14.8133 29.8245 12.692 30.0601 10.59C30.2957 8.48796 31.2142 6.52122 32.6749 4.99133C34.1355 3.46145 36.0577 2.45288 38.1466 2.12027ZM53.6561 0.24541C54.0729 0.607807 54.1169 1.23944 53.7545 1.65619L40.4212 16.9895L39.7177 17.7986L38.9595 17.0405L33.6262 11.7071C33.2356 11.3166 33.2356 10.6834 33.6262 10.2929C34.0167 9.90238 34.6498 9.90238 35.0404 10.2929L39.6155 14.8681L52.2453 0.343837C52.6077 -0.0729204 53.2394 -0.116988 53.6561 0.24541ZM39.2506 27.6694C41.2836 28.3473 42.3822 30.5449 41.7044 32.5779C41.0222 34.624 38.8025 35.7211 36.7627 35.0205L29.342 32.4718C28.8197 32.2924 28.5417 31.7235 28.7211 31.2012C28.9005 30.6789 29.4693 30.4009 29.9917 30.5803L37.4124 33.129C38.4009 33.4685 39.4765 32.9368 39.8071 31.9453C40.1355 30.9601 39.6032 29.8952 38.618 29.5667L23.8932 24.6572C23.6213 24.5665 23.3236 24.5969 23.0755 24.7406L13.9816 30.0106L18.7263 38.2286C19.5694 38.01 20.4599 38.0143 21.3086 38.2481L35.7565 42.2274C36.0251 42.3013 36.3124 42.2599 36.5491 42.1131L54.1854 31.1756C54.7916 30.7997 54.9829 30.0063 54.6147 29.3955C54.2435 28.7798 53.4438 28.581 52.8275 28.9513L42.8485 34.9473C42.3751 35.2318 41.7608 35.0786 41.4763 34.6052C41.1919 34.1318 41.3451 33.5175 41.8185 33.233L51.7974 27.2369C53.3595 26.2983 55.3867 26.8022 56.3275 28.3629C57.2609 29.9113 56.776 31.9224 55.2395 32.8753L37.6032 43.8128C36.893 44.2532 36.0312 44.3775 35.2255 44.1556L20.7776 40.1763C20.4546 40.0873 20.1215 40.0538 19.7921 40.0746L21.7705 43.5013C22.0466 43.9795 21.8827 44.5911 21.4044 44.8673L12.1668 50.2006C11.6885 50.4768 11.0769 50.3129 10.8008 49.8346L0.134142 31.3594C-0.142001 30.8811 0.0218744 30.2695 0.500167 29.9934L9.73777 24.66C10.2161 24.3839 10.8277 24.5478 11.1038 25.026L12.9816 28.2786L22.0727 23.0102C22.8168 22.579 23.7101 22.4878 24.5259 22.7598L39.2506 27.6694ZM2.36619 31.2254L12.0329 47.9686L19.5384 43.6352L9.87175 26.8921L2.36619 31.2254Z" fill="url(#paint0_linear_21880_3745)"/>
<defs>
<linearGradient id="paint0_linear_21880_3745" x1="-5.53809e-08" y1="25.1674" x2="60.3041" y2="27.3716" gradientUnits="userSpaceOnUse">
<stop stop-color="#0091EF"/>
<stop offset="1" stop-color="#32D7D4"/>
</linearGradient>
</defs>
</svg>
