<svg width="64" height="64" viewBox="0 0 64 64" fill="none" xmlns="http://www.w3.org/2000/svg">
<path fill-rule="evenodd" clip-rule="evenodd" d="M41.1466 9.12027C43.2354 8.78767 45.3758 9.14938 47.2393 10.15C47.7259 10.4112 48.3322 10.2285 48.5934 9.74196C48.8547 9.25538 48.672 8.64913 48.1854 8.38788C45.9363 7.18029 43.3531 6.74373 40.8321 7.14516C38.311 7.54658 35.9912 8.76381 34.2283 10.6102C32.4655 12.4566 31.3569 14.8303 31.0725 17.3672C30.7882 19.9042 31.3438 22.4644 32.6542 24.6552C33.9645 26.8461 35.9573 28.5467 38.327 29.4962C40.6966 30.4458 43.3123 30.5919 45.773 29.9122C48.2337 29.2325 50.4035 27.7644 51.9497 25.7331C53.496 23.7019 54.3333 21.2195 54.3333 18.6667C54.3333 18.1144 53.8856 17.6667 53.3333 17.6667C52.781 17.6667 52.3333 18.1144 52.3333 18.6667C52.3333 20.7819 51.6395 22.8387 50.3583 24.5217C49.0772 26.2048 47.2793 27.4212 45.2405 27.9844C43.2016 28.5476 41.0343 28.4265 39.0709 27.6397C37.1075 26.8529 35.4563 25.4439 34.3706 23.6286C33.2849 21.8133 32.8245 19.692 33.0601 17.59C33.2957 15.488 34.2142 13.5212 35.6749 11.9913C37.1355 10.4614 39.0577 9.45288 41.1466 9.12027ZM56.6561 7.24541C57.0729 7.60781 57.1169 8.23944 56.7545 8.65619L43.4212 23.9895L42.7177 24.7986L41.9595 24.0405L36.6262 18.7071C36.2356 18.3166 36.2356 17.6834 36.6262 17.2929C37.0167 16.9024 37.6498 16.9024 38.0404 17.2929L42.6155 21.8681L55.2453 7.34384C55.6077 6.92708 56.2394 6.88301 56.6561 7.24541ZM42.2506 34.6694C44.2836 35.3473 45.3822 37.5449 44.7044 39.5779C44.0222 41.624 41.8025 42.7211 39.7627 42.0205L32.342 39.4718C31.8197 39.2924 31.5417 38.7235 31.7211 38.2012C31.9005 37.6789 32.4693 37.4009 32.9917 37.5803L40.4124 40.129C41.4009 40.4685 42.4765 39.9368 42.8071 38.9453C43.1355 37.9601 42.6032 36.8952 41.618 36.5667L26.8932 31.6572C26.6213 31.5665 26.3236 31.5969 26.0755 31.7406L16.9816 37.0106L21.7263 45.2286C22.5694 45.01 23.4599 45.0143 24.3086 45.2481L38.7565 49.2274C39.0251 49.3013 39.3124 49.2599 39.5491 49.1131L57.1854 38.1756C57.7916 37.7997 57.9829 37.0063 57.6147 36.3955C57.2435 35.7798 56.4438 35.581 55.8275 35.9513L45.8485 41.9473C45.3751 42.2318 44.7608 42.0786 44.4763 41.6052C44.1919 41.1318 44.3451 40.5175 44.8185 40.233L54.7974 34.2369C56.3595 33.2983 58.3867 33.8022 59.3275 35.3629C60.2609 36.9113 59.776 38.9224 58.2395 39.8753L40.6032 50.8128C39.893 51.2532 39.0312 51.3775 38.2255 51.1556L23.7776 47.1763C23.4546 47.0873 23.1215 47.0538 22.7921 47.0746L24.7705 50.5012C25.0466 50.9795 24.8827 51.5911 24.4044 51.8673L15.1668 57.2006C14.6885 57.4767 14.077 57.3129 13.8008 56.8346L3.13414 38.3594C2.858 37.8811 3.02187 37.2695 3.50017 36.9934L12.7378 31.66C13.2161 31.3839 13.8277 31.5478 14.1038 32.026L15.9816 35.2786L25.0727 30.0102C25.8168 29.579 26.7101 29.4878 27.5259 29.7598L42.2506 34.6694ZM5.36619 38.2254L15.0329 54.9686L22.5384 50.6352L12.8717 33.8921L5.36619 38.2254Z" fill="url(#paint0_linear_23698_6623)"/>
<defs>
<linearGradient id="paint0_linear_23698_6623" x1="3" y1="32.1674" x2="63.3041" y2="34.3716" gradientUnits="userSpaceOnUse">
<stop stop-color="#0091EF"/>
<stop offset="1" stop-color="#32D7D4"/>
</linearGradient>
</defs>
</svg>
