<svg width="80" height="82" viewBox="0 0 80 82" fill="none" xmlns="http://www.w3.org/2000/svg">
<path fill-rule="evenodd" clip-rule="evenodd" d="M16 0.289062H63.367C65.5762 0.289062 67.367 2.07992 67.367 4.28906V77.6129C67.367 79.8221 65.5762 81.6129 63.367 81.6129H16C13.7909 81.6129 12 79.8221 12 77.6129V4.28906C12 2.07992 13.7909 0.289062 16 0.289062ZM16 2.28906C14.8954 2.28906 14 3.18449 14 4.28906V77.6129C14 78.7175 14.8954 79.6129 16 79.6129H63.367C64.4716 79.6129 65.367 78.7175 65.367 77.6129V4.28906C65.367 3.18449 64.4716 2.28906 63.367 2.28906H16ZM19.1367 11.5989C19.1367 11.0466 19.5844 10.5989 20.1367 10.5989H59.2303C59.7826 10.5989 60.2303 11.0466 60.2303 11.5989C60.2303 12.1511 59.7826 12.5989 59.2303 12.5989H20.1367C19.5844 12.5989 19.1367 12.1511 19.1367 11.5989ZM20.1367 20.9087C19.5844 20.9087 19.1367 21.3565 19.1367 21.9087C19.1367 22.461 19.5844 22.9087 20.1367 22.9087H59.2303C59.7826 22.9087 60.2303 22.461 60.2303 21.9087C60.2303 21.3565 59.7826 20.9087 59.2303 20.9087H20.1367ZM19.1367 32.2185C19.1367 31.6663 19.5844 31.2185 20.1367 31.2185H59.2303C59.7826 31.2185 60.2303 31.6663 60.2303 32.2185C60.2303 32.7708 59.7826 33.2185 59.2303 33.2185H20.1367C19.5844 33.2185 19.1367 32.7708 19.1367 32.2185ZM20.1367 41.5285C19.5844 41.5285 19.1367 41.9762 19.1367 42.5285C19.1367 43.0808 19.5844 43.5285 20.1367 43.5285H34.1889C34.7412 43.5285 35.1889 43.0808 35.1889 42.5285C35.1889 41.9762 34.7412 41.5285 34.1889 41.5285H20.1367ZM19.1367 52.8383C19.1367 52.286 19.5844 51.8383 20.1367 51.8383H33.5468C34.0991 51.8383 34.5468 52.286 34.5468 52.8383C34.5468 53.3906 34.0991 53.8383 33.5468 53.8383H20.1367C19.5844 53.8383 19.1367 53.3906 19.1367 52.8383ZM43.7551 40.7217C45.6357 41.0124 47.5344 40.3201 48.7865 38.887C49.4058 38.1781 50.5082 38.1781 51.1275 38.887C52.3796 40.3201 54.2782 41.0124 56.1589 40.7217C57.0773 40.5797 57.9303 41.288 57.9509 42.2378C57.9919 44.135 58.9966 45.8923 60.6242 46.8833C61.4309 47.3744 61.6259 48.4691 61.0315 49.2121C59.8426 50.6984 59.4953 52.6931 60.104 54.4919C60.4093 55.394 59.8492 56.354 58.9331 56.5368C57.065 56.9095 55.519 58.2151 54.8328 59.9865C54.4911 60.8684 53.4514 61.2428 52.6349 60.7932C50.9677 59.875 48.9463 59.875 47.2791 60.7932C46.4626 61.2428 45.4228 60.8684 45.0812 59.9865C44.395 58.2151 42.849 56.9095 40.9809 56.5368C40.0648 56.354 39.5047 55.394 39.8099 54.4919C40.4186 52.6931 40.0713 50.6984 38.8824 49.2121C38.2881 48.4691 38.4831 47.3744 39.2897 46.8833C40.9174 45.8923 41.9221 44.135 41.9631 42.2378C41.9836 41.288 42.8367 40.5797 43.7551 40.7217ZM47.2803 37.5711C48.6966 35.95 51.2174 35.95 52.6337 37.5711C53.4349 38.4882 54.6499 38.9312 55.8533 38.7452C57.9767 38.4169 59.9039 40.0465 59.9504 42.1946C59.9767 43.4133 60.623 44.541 61.6643 45.1749C63.5039 46.2949 63.9387 48.7797 62.5933 50.4615C61.8315 51.4138 61.6076 52.6957 61.9985 53.8509C62.6877 55.8877 61.433 58.0775 59.3244 58.4981C58.5483 58.6529 57.858 59.06 57.3488 59.6376H57.3776V75.7478C57.3776 77.7121 54.8418 78.4994 53.7293 76.8805L49.9567 71.3909L46.1841 76.8805C45.0716 78.4994 42.5358 77.7121 42.5358 75.7478V59.6376H42.5652C42.056 59.06 41.3656 58.6529 40.5896 58.4981C38.4809 58.0775 37.2262 55.8877 37.9155 53.8509C38.3064 52.6957 38.0824 51.4138 37.3206 50.4615C35.9753 48.7797 36.4101 46.2949 38.2497 45.1749C39.291 44.541 39.9372 43.4133 39.9636 42.1946C40.01 40.0465 41.9373 38.4169 44.0606 38.7452C45.2641 38.9312 46.4791 38.4882 47.2803 37.5711ZM51.6701 62.5451C52.8905 63.2172 54.3149 63.0887 55.3776 62.3693V75.7478L51.605 70.2582C50.8103 69.1018 49.103 69.1018 48.3084 70.2582L44.5358 75.7478V62.3689C45.5985 63.0887 47.0232 63.2173 48.2439 62.5451C49.3104 61.9577 50.6035 61.9577 51.6701 62.5451ZM55.6614 49.9721C55.6614 53.1447 53.1005 55.7045 49.9564 55.7045C46.8122 55.7045 44.2513 53.1447 44.2513 49.9721C44.2513 46.7995 46.8122 44.2397 49.9564 44.2397C53.1005 44.2397 55.6614 46.7995 55.6614 49.9721ZM57.6614 49.9721C57.6614 54.2426 54.2117 57.7045 49.9564 57.7045C45.701 57.7045 42.2513 54.2426 42.2513 49.9721C42.2513 45.7016 45.701 42.2397 49.9564 42.2397C54.2117 42.2397 57.6614 45.7016 57.6614 49.9721Z" fill="url(#paint0_linear_21487_6432)"/>
<defs>
<linearGradient id="paint0_linear_21487_6432" x1="12" y1="40.951" x2="70.8304" y2="42.2483" gradientUnits="userSpaceOnUse">
<stop stop-color="#0091EF"/>
<stop offset="1" stop-color="#32D7D4"/>
</linearGradient>
</defs>
</svg>
