<svg width="46" height="64" viewBox="0 0 46 64" fill="none" xmlns="http://www.w3.org/2000/svg">
<path d="M0 31.4319L7.69718 27.002L30.181 41.1357L22.6864 45.5657L0 31.4319Z" fill="#E48C1B"/>
<path d="M14.9893 22.3597L22.889 17.9297L45.3729 31.4306L37.4731 36.2825L14.9893 22.3597Z" fill="#E48C1B"/>
<path d="M15.3965 4.64093L22.6885 0.210938L45.375 13.5009L38.0829 18.1418L15.3965 4.64093Z" fill="#E48C1B"/>
<path d="M0.204102 13.29L7.49617 18.1419L30.1826 4.42999L22.688 0L0.204102 13.29Z" fill="#E48C1B"/>
<path d="M30.5862 58.8544L22.889 63.4954L0 49.9944L7.89974 45.5645L30.5862 58.8544Z" fill="#333333"/>
<path d="M45.3726 49.9944L37.4729 45.5645L15.5967 58.8544L22.8887 63.4954L45.3726 49.9944Z" fill="#333333"/>
<path d="M45.3731 31.4312H38.0811V9.07031L45.3731 13.5003V31.4312Z" fill="#E48C1B"/>
<path d="M7.89974 8.86133L0 13.0804V31.4332L7.89974 27.0032V8.86133Z" fill="#E48C1B"/>
<path d="M7.89974 40.9242L0 35.8613V49.9951L7.89974 45.7761V40.9242Z" fill="#333333"/>
<path d="M37.4746 40.7132L45.3743 35.8613V49.9951L37.4746 45.5651V40.7132Z" fill="#333333"/>
</svg>
