<svg width="32" height="32" viewBox="0 0 32 32" fill="none" xmlns="http://www.w3.org/2000/svg">
<path d="M19.2922 26.0398C19.6828 26.4303 20.3159 26.4303 20.7065 26.0398C21.097 25.6493 21.097 25.0161 20.7065 24.6256L19.2922 26.0398ZM10.666 15.9993L9.95891 15.2922C9.56838 15.6828 9.56838 16.3159 9.95891 16.7065L10.666 15.9993ZM20.7065 7.37312C21.097 6.9826 21.097 6.34943 20.7065 5.95891C20.3159 5.56838 19.6828 5.56838 19.2922 5.95891L20.7065 7.37312ZM20.7065 24.6256L11.3731 15.2922L9.95891 16.7065L19.2922 26.0398L20.7065 24.6256ZM11.3731 16.7065L20.7065 7.37312L19.2922 5.95891L9.95891 15.2922L11.3731 16.7065Z" fill="#0979FD"/>
</svg>
