<svg width="24" height="24" viewBox="0 0 24 24" fill="none" xmlns="http://www.w3.org/2000/svg">
<path d="M18.9531 15.035C18.2791 14.0714 15.8792 13.2803 14.8085 13.4026C14.439 13.4468 14.0892 13.5992 13.7997 13.8345L13.074 14.4469C11.6439 13.3788 10.4724 11.9853 9.67472 10.3835L10.4004 9.77106C10.6811 9.52525 10.8904 9.21488 10.9978 8.85661C11.3665 7.75238 10.8834 5.27846 10.1459 4.49021C9.26325 3.59884 7.01418 3.44172 5.91183 3.79865C5.6537 3.89158 5.42096 4.02553 5.22154 4.22058C5.02293 4.40602 4.86964 4.62459 4.76166 4.8763C4.65368 5.12801 4.6022 5.39449 4.59766 5.67489C4.64788 8.0324 5.25701 10.3822 6.36107 12.4571C7.36194 14.3871 8.79472 16.1043 10.5117 17.421C12.3527 18.8652 14.548 19.8764 16.8471 20.3451C16.9044 20.3503 16.9609 20.3651 17.0182 20.3703C17.2283 20.3892 17.4513 20.3706 17.648 20.3205C17.9132 20.2573 18.1539 20.1434 18.3708 19.9693C18.5869 19.8048 18.7688 19.5888 18.8943 19.3581C19.4699 18.2623 19.6513 16.0334 18.9531 15.035Z" fill="white"/>
</svg>
