<svg width="253" height="40" viewBox="0 0 253 40" fill="none" xmlns="http://www.w3.org/2000/svg">
<g clip-path="url(#clip0)">
<path d="M53.6384 5.92883C53.1617 5.93468 52.6942 6.06152 52.2786 6.29769C51.863 6.53387 51.5128 6.87181 51.2599 7.28054H20.9767C19.4835 7.28054 18.0515 7.88052 16.9956 8.9485C15.9397 10.0165 15.3466 11.465 15.3466 12.9753C15.3466 14.4857 15.9397 15.9341 16.9956 17.0021C18.0515 18.0701 19.4835 18.6701 20.9767 18.6701H35.9615C38.127 18.7229 40.1863 19.6301 41.6994 21.198C43.2125 22.7658 44.0595 24.8699 44.0595 27.0609C44.0595 29.2519 43.2125 31.3561 41.6994 32.9239C40.1863 34.4918 38.127 35.399 35.9615 35.4518H18.4101C18.1562 35.0504 17.8077 34.719 17.396 34.4873C16.9842 34.2556 16.5221 34.131 16.0509 34.1245C15.2832 34.1245 14.5469 34.433 14.0041 34.9821C13.4612 35.5312 13.1562 36.2759 13.1562 37.0524C13.1562 37.8289 13.4612 38.5737 14.0041 39.1227C14.5469 39.6718 15.2832 39.9803 16.0509 39.9803C16.4666 39.9764 16.8764 39.8804 17.2514 39.6992C17.6265 39.5179 17.9578 39.2558 18.2219 38.9311H35.9615C39.034 38.8681 41.9597 37.5893 44.1106 35.3692C46.2615 33.149 47.4663 30.1645 47.4663 27.0561C47.4663 23.9477 46.2615 20.9631 44.1106 18.743C41.9597 16.5228 39.034 15.244 35.9615 15.181H20.9767C20.3971 15.181 19.8412 14.9481 19.4313 14.5335C19.0215 14.119 18.7912 13.5567 18.7912 12.9704C18.7912 12.3842 19.0215 11.8219 19.4313 11.4073C19.8412 10.9928 20.3971 10.7599 20.9767 10.7599H51.4818C51.7472 11.0776 52.0772 11.3337 52.4494 11.5106C52.8216 11.6874 53.2272 11.7809 53.6384 11.7846C54.4061 11.7846 55.1424 11.4762 55.6852 10.9271C56.2281 10.378 56.5331 9.63326 56.5331 8.85673C56.5331 8.08021 56.2281 7.33548 55.6852 6.78639C55.1424 6.23731 54.4061 5.92883 53.6384 5.92883ZM16.0509 38.0821C15.8496 38.0821 15.6528 38.0217 15.4854 37.9085C15.318 37.7954 15.1875 37.6346 15.1105 37.4464C15.0334 37.2583 15.0132 37.0513 15.0525 36.8515C15.0918 36.6518 15.1888 36.4683 15.3311 36.3243C15.4735 36.1803 15.6549 36.0823 15.8523 36.0425C16.0498 36.0028 16.2545 36.0232 16.4405 36.1011C16.6265 36.1791 16.7855 36.3111 16.8973 36.4804C17.0092 36.6497 17.0689 36.8488 17.0689 37.0524C17.0715 37.189 17.047 37.3248 16.9969 37.4517C16.9469 37.5786 16.8722 37.6941 16.7774 37.7914C16.6825 37.8887 16.5694 37.9659 16.4446 38.0183C16.3199 38.0707 16.186 38.0974 16.0509 38.0967V38.0821ZM53.6384 9.88637C53.437 9.88637 53.2402 9.82599 53.0728 9.71285C52.9054 9.59971 52.7749 9.43891 52.6979 9.25076C52.6209 9.06262 52.6007 8.85559 52.64 8.65585C52.6792 8.45612 52.7762 8.27266 52.9186 8.12866C53.0609 7.98466 53.2423 7.8866 53.4398 7.84687C53.6372 7.80714 53.8419 7.82754 54.0279 7.90547C54.2139 7.9834 54.3729 8.11537 54.4848 8.2847C54.5966 8.45402 54.6563 8.65309 54.6563 8.85673C54.6583 8.99317 54.6333 9.12864 54.583 9.25526C54.5327 9.38188 54.4581 9.49711 54.3633 9.59428C54.2686 9.69144 54.1558 9.7686 54.0313 9.82126C53.9068 9.87392 53.7733 9.90104 53.6384 9.90102V9.88637Z" fill="white"/>
<path d="M35.5563 32.7048C37.0496 32.7048 38.4816 32.1048 39.5375 31.0368C40.5933 29.9688 41.1865 28.5204 41.1865 27.01C41.1865 25.4997 40.5933 24.0512 39.5375 22.9832C38.4816 21.9152 37.0496 21.3152 35.5563 21.3152H20.5522C18.3867 21.2624 16.3275 20.3552 14.8144 18.7874C13.3013 17.2195 12.4542 15.1154 12.4542 12.9244C12.4542 10.7334 13.3013 8.62923 14.8144 7.06139C16.3275 5.49355 18.3867 4.58633 20.5522 4.5335H38.1037C38.3576 4.93496 38.706 5.26637 39.1178 5.49803C39.5295 5.7297 39.9917 5.85434 40.4628 5.86081C41.2305 5.86081 41.9668 5.55233 42.5097 5.00325C43.0525 4.45416 43.3575 3.70943 43.3575 2.93291C43.3575 2.15638 43.0525 1.41167 42.5097 0.86258C41.9668 0.313492 41.2305 0.00500488 40.4628 0.00500488C40.0502 0.0117594 39.6439 0.10857 39.2717 0.288803C38.8996 0.469036 38.5702 0.728447 38.3063 1.0493H20.5522C17.4797 1.1123 14.5541 2.39111 12.4031 4.61126C10.2522 6.83141 9.04749 9.81595 9.04749 12.9244C9.04749 16.0328 10.2522 19.0173 12.4031 21.2375C14.5541 23.4576 17.4797 24.7365 20.5522 24.7995H35.5563C36.136 24.7995 36.6919 25.0323 37.1017 25.4469C37.5116 25.8615 37.7418 26.4237 37.7418 27.01C37.7418 27.5963 37.5116 28.1586 37.1017 28.5731C36.6919 28.9877 36.136 29.2206 35.5563 29.2206H5.05122C4.78589 28.9028 4.45584 28.6467 4.08365 28.4699C3.71145 28.293 3.30589 28.1995 2.89468 28.1958C2.12696 28.1958 1.3907 28.5043 0.847838 29.0534C0.30498 29.6025 0 30.3472 0 31.1237C0 31.9002 0.30498 32.645 0.847838 33.1941C1.3907 33.7431 2.12696 34.0516 2.89468 34.0516C3.37159 34.0444 3.83912 33.9164 4.25458 33.6794C4.67005 33.4425 5.02022 33.104 5.27315 32.695L35.5563 32.7048ZM40.4821 1.90327C40.6835 1.90327 40.8803 1.96365 41.0477 2.07679C41.2151 2.18993 41.3456 2.35075 41.4226 2.53889C41.4996 2.72703 41.5198 2.93405 41.4805 3.13378C41.4413 3.33352 41.3443 3.51698 41.2019 3.66098C41.0596 3.80498 40.8782 3.90304 40.6807 3.94277C40.4833 3.9825 40.2786 3.96211 40.0926 3.88418C39.9066 3.80625 39.7476 3.67428 39.6357 3.50495C39.5239 3.33563 39.4642 3.13655 39.4642 2.93291C39.4642 2.65983 39.5714 2.39794 39.7623 2.20485C39.9532 2.01175 40.2121 1.90327 40.4821 1.90327ZM2.89468 32.1582C2.69335 32.1582 2.49654 32.0979 2.32914 31.9847C2.16173 31.8716 2.03125 31.7108 1.95421 31.5226C1.87716 31.3345 1.857 31.1275 1.89628 30.9277C1.93556 30.728 2.03251 30.5445 2.17488 30.4005C2.31724 30.2565 2.49862 30.1585 2.69609 30.1187C2.89355 30.079 3.09823 30.0994 3.28424 30.1773C3.47025 30.2553 3.62924 30.3872 3.74109 30.5566C3.85295 30.7259 3.91265 30.925 3.91265 31.1286C3.91138 31.4013 3.80372 31.6624 3.61309 31.8552C3.42246 32.0481 3.16427 32.157 2.89468 32.1582Z" fill="white"/>
<path d="M65.2076 19.2609C64.501 18.9379 63.8623 18.4807 63.3261 17.9141C62.7812 17.3394 62.3461 16.6677 62.0428 15.9329C61.4187 14.3557 61.4187 12.5961 62.0428 11.0189C62.3461 10.2841 62.7812 9.61237 63.3261 9.03766C63.861 8.46959 64.5001 8.01215 65.2076 7.69082C65.9419 7.35906 66.7386 7.19257 67.5427 7.20284H90.4492C90.7331 7.20294 91.0138 7.26339 91.2731 7.38024C91.5324 7.49708 91.7645 7.66774 91.9545 7.88114C92.3578 8.3162 92.5822 8.89023 92.5822 9.48661C92.5822 10.083 92.3578 10.657 91.9545 11.0921C91.7601 11.3037 91.5239 11.4716 91.2613 11.5851C90.9987 11.6986 90.7155 11.755 90.4299 11.7508H67.451C67.2311 11.7489 67.013 11.791 66.8093 11.8747C66.6056 11.9585 66.4203 12.0822 66.2642 12.2388C66.0948 12.3986 65.9611 12.5932 65.8721 12.8095C65.783 13.0258 65.7407 13.2588 65.748 13.493C65.7575 13.9491 65.9393 14.3842 66.256 14.709C66.5727 15.0339 67.0002 15.2238 67.451 15.2399H87.9357C88.7459 15.231 89.5486 15.3974 90.29 15.7279C91.0137 16.0458 91.6691 16.5033 92.2198 17.0748C92.7683 17.6549 93.2023 18.3356 93.4983 19.0804C93.8189 19.8682 93.9828 20.7122 93.9808 21.5642C93.9823 22.4019 93.8183 23.2315 93.4983 24.0041C93.1987 24.7398 92.765 25.4119 92.2198 25.9853C91.6733 26.5556 91.0163 27.0058 90.29 27.3078C89.5466 27.6318 88.7452 27.7979 87.9357 27.7957H65.0725C64.787 27.7999 64.5038 27.7435 64.2412 27.63C63.9785 27.5165 63.7424 27.3486 63.548 27.137C63.1447 26.7019 62.9203 26.1279 62.9203 25.5315C62.9203 24.9351 63.1447 24.3611 63.548 23.926C63.7414 23.7128 63.9772 23.5435 64.24 23.4291C64.5028 23.3147 64.7865 23.2579 65.0725 23.2624H88.0949C88.5368 23.2572 88.9589 23.0761 89.2696 22.7581C89.5803 22.4402 89.7545 22.0112 89.7545 21.5642C89.7617 21.3294 89.7227 21.0955 89.6399 20.8761C89.5571 20.6566 89.4321 20.4559 89.2721 20.2857C89.1243 20.1214 88.944 19.9903 88.7428 19.9012C88.5416 19.8121 88.3242 19.7668 88.1045 19.7684H67.5427C66.7371 19.7726 65.9404 19.5994 65.2076 19.2609Z" fill="white"/>
<path d="M102.207 27.2928C101.476 26.9703 100.813 26.5099 100.253 25.9362C99.6958 25.3614 99.2477 24.6882 98.9307 23.9501C98.604 23.1796 98.4397 22.3486 98.4483 21.5102V9.46187C98.4418 9.1655 98.494 8.87082 98.6017 8.59512C98.7094 8.31942 98.8705 8.06828 99.0755 7.85642C99.2689 7.64321 99.5047 7.47384 99.7675 7.35945C100.03 7.24507 100.314 7.18826 100.6 7.19275C100.881 7.19856 101.158 7.26263 101.413 7.38097C101.669 7.49932 101.898 7.66944 102.086 7.88081C102.297 8.08928 102.464 8.33927 102.576 8.61538C102.688 8.89149 102.743 9.18788 102.737 9.48628V21.5297C102.735 21.7588 102.78 21.9859 102.869 22.1966C102.958 22.4074 103.089 22.5973 103.253 22.7546C103.405 22.9196 103.589 23.0512 103.793 23.141C103.997 23.2309 104.218 23.2771 104.44 23.2767H124.867C125.153 23.2719 125.437 23.3285 125.7 23.443C125.963 23.5574 126.198 23.7269 126.392 23.9403C126.797 24.3743 127.023 24.9487 127.023 25.5458C127.023 26.1429 126.797 26.7173 126.392 27.1513C126.198 27.3633 125.962 27.5316 125.699 27.6452C125.436 27.7587 125.153 27.8149 124.867 27.8101H104.585C103.765 27.8053 102.956 27.6292 102.207 27.2928Z" fill="white"/>
<path d="M135.201 27.127C135.004 27.335 134.766 27.5004 134.504 27.6134C134.242 27.7265 133.959 27.7847 133.674 27.7847C133.389 27.7847 133.107 27.7265 132.844 27.6134C132.582 27.5004 132.345 27.335 132.147 27.127C131.942 26.9142 131.781 26.6622 131.673 26.3857C131.566 26.1092 131.514 25.8138 131.52 25.5167V9.46201C131.514 9.16564 131.566 8.87096 131.673 8.59526C131.781 8.31956 131.942 8.06841 132.147 7.85655C132.344 7.64672 132.581 7.47959 132.843 7.36538C133.106 7.25117 133.388 7.19226 133.674 7.19226C133.96 7.19226 134.243 7.25117 134.505 7.36538C134.768 7.47959 135.005 7.64672 135.201 7.85655C135.405 8.06905 135.566 8.32031 135.673 8.59585C135.781 8.8714 135.834 9.16578 135.828 9.46201V25.5167C135.834 25.8136 135.781 26.1088 135.674 26.3851C135.566 26.6615 135.405 26.9136 135.201 27.127Z" fill="white"/>
<path d="M168.63 8.04198C168.821 7.77778 169.072 7.56315 169.361 7.41559C169.651 7.26803 169.97 7.19172 170.294 7.19289C170.58 7.1884 170.864 7.24521 171.127 7.3596C171.39 7.47398 171.625 7.64336 171.819 7.85656C172.024 8.06842 172.185 8.31957 172.293 8.59527C172.4 8.87096 172.452 9.16564 172.446 9.46201C172.47 9.95813 172.31 10.4455 171.997 10.8284L171.954 10.8772L161.094 26.2779C160.546 27.0075 159.85 27.6098 159.053 28.0444C158.257 28.4832 157.366 28.7191 156.459 28.7318C155.552 28.7446 154.656 28.5338 153.848 28.1176C153.06 27.7154 152.376 27.1322 151.85 26.4146L140.942 11.0675C140.762 10.8444 140.611 10.5983 140.493 10.3355C140.375 10.06 140.314 9.76255 140.315 9.46201C140.309 9.16564 140.361 8.87096 140.468 8.59527C140.576 8.31957 140.737 8.06842 140.942 7.85656C141.136 7.64336 141.371 7.47398 141.634 7.3596C141.897 7.24521 142.181 7.1884 142.467 7.19289C142.803 7.18355 143.137 7.26109 143.436 7.41818C143.734 7.57527 143.989 7.80674 144.175 8.09078L154.629 22.7791C154.877 23.0694 155.139 23.3463 155.416 23.6087C155.536 23.7483 155.684 23.8603 155.85 23.937C156.017 24.0137 156.198 24.0534 156.38 24.0534C156.563 24.0534 156.744 24.0137 156.911 23.937C157.077 23.8603 157.225 23.7483 157.345 23.6087C157.616 23.3546 157.865 23.077 158.088 22.7791L168.63 8.04198Z" fill="white"/>
<path d="M180.614 27.127C180.416 27.335 180.179 27.5004 179.917 27.6134C179.654 27.7265 179.372 27.7847 179.087 27.7847C178.802 27.7847 178.519 27.7265 178.257 27.6134C177.995 27.5004 177.757 27.335 177.56 27.127C177.355 26.9142 177.194 26.6622 177.086 26.3857C176.978 26.1092 176.926 25.8138 176.933 25.5167V9.46201C176.926 9.16564 176.978 8.87096 177.086 8.59526C177.194 8.31956 177.355 8.06841 177.56 7.85655C177.756 7.64672 177.993 7.47959 178.256 7.36538C178.518 7.25117 178.801 7.19226 179.087 7.19226C179.373 7.19226 179.655 7.25117 179.918 7.36538C180.18 7.47959 180.417 7.64672 180.614 7.85655C180.819 8.06841 180.98 8.31956 181.087 8.59526C181.195 8.87096 181.247 9.16564 181.241 9.46201V25.5167C181.247 25.8138 181.195 26.1092 181.088 26.3857C180.98 26.6622 180.819 26.9142 180.614 27.127Z" fill="white"/>
<path d="M211.756 15.6252C211.624 14.9581 211.365 14.3234 210.994 13.7562C210.593 13.1566 210.064 12.6562 209.445 12.2922C208.674 11.8721 207.806 11.6682 206.932 11.7018H195.063C194.182 11.663 193.306 11.8671 192.53 12.2922C191.92 12.6579 191.399 13.1583 191.006 13.7562C190.631 14.322 190.37 14.9572 190.239 15.6252C190.112 16.2384 190.046 16.8628 190.041 17.4893V25.5166C190.047 25.814 189.994 26.1096 189.885 26.3861C189.777 26.6626 189.615 26.9144 189.409 27.1269C189.212 27.3354 188.976 27.5013 188.714 27.6147C188.452 27.728 188.169 27.7864 187.885 27.7864C187.6 27.7864 187.317 27.728 187.055 27.6147C186.793 27.5013 186.557 27.3354 186.36 27.1269C186.154 26.9144 185.992 26.6626 185.884 26.3861C185.775 26.1096 185.722 25.814 185.728 25.5166V17.4893C185.732 16.2635 185.923 15.0456 186.292 13.8782C186.65 12.6904 187.203 11.572 187.928 10.5697C188.629 9.59095 189.515 8.76181 190.533 8.12974C191.574 7.49192 192.771 7.1638 193.987 7.18305H208.461C209.628 7.22868 210.761 7.59656 211.737 8.24685C212.697 8.89697 213.527 9.72481 214.183 10.6868C214.864 11.6843 215.385 12.7844 215.727 13.9465C216.08 15.0937 216.262 16.2877 216.267 17.4893V25.5166C216.273 25.8137 216.221 26.1092 216.114 26.3857C216.006 26.6622 215.845 26.9142 215.64 27.1269C215.442 27.3349 215.205 27.5004 214.943 27.6134C214.68 27.7264 214.398 27.7846 214.113 27.7846C213.828 27.7846 213.545 27.7264 213.283 27.6134C213.021 27.5004 212.783 27.3349 212.586 27.1269C212.381 26.9142 212.22 26.6622 212.112 26.3857C212.004 26.1092 211.952 25.8137 211.959 25.5166V17.4893C211.952 16.8627 211.884 16.2382 211.756 15.6252Z" fill="white"/>
<path d="M232.602 17.4892C232.596 17.1923 232.648 16.8972 232.757 16.6214C232.865 16.3455 233.028 16.0946 233.234 15.8837C233.428 15.6716 233.664 15.5033 233.927 15.3898C234.19 15.2763 234.473 15.2201 234.759 15.2249H247.611C248.337 15.2251 249.055 15.3832 249.715 15.6885C250.362 15.9805 250.947 16.3964 251.437 16.9133C251.939 17.4431 252.33 18.0707 252.585 18.7579C252.855 19.4732 252.992 20.2324 252.991 20.9978V22.0323C252.992 22.7993 252.855 23.5601 252.585 24.277C252.329 24.9637 251.939 25.591 251.437 26.1216C250.947 26.6385 250.362 27.0545 249.715 27.3464C249.051 27.6481 248.33 27.8012 247.602 27.7954H228.564C227.404 27.8157 226.264 27.4879 225.288 26.8536C224.321 26.2121 223.49 25.3827 222.842 24.4136C222.158 23.3925 221.636 22.2696 221.294 21.0856C220.945 19.9207 220.763 18.7112 220.753 17.494C220.758 16.2682 220.948 15.0504 221.318 13.8829C221.676 12.6952 222.229 11.5767 222.953 10.5744C223.655 9.59571 224.54 8.76657 225.559 8.1345C226.599 7.49668 227.796 7.16856 229.013 7.18781H250.844C251.132 7.187 251.417 7.24839 251.68 7.36789C251.943 7.48738 252.177 7.66223 252.368 7.88076C252.774 8.31471 253 8.88915 253 9.48623C253 10.0833 252.774 10.6577 252.368 11.0917C252.174 11.3033 251.938 11.4712 251.675 11.5847C251.412 11.6982 251.129 11.7547 250.844 11.7505H230.002C229.119 11.711 228.242 11.9151 227.464 12.3409C226.855 12.7081 226.334 13.2082 225.94 13.8049C225.566 14.371 225.307 15.0061 225.177 15.6739C224.907 16.9032 224.907 18.1776 225.177 19.4069C225.307 20.0731 225.566 20.7067 225.94 21.271C226.334 21.8677 226.855 22.3678 227.464 22.735C228.241 23.1633 229.119 23.3676 230.002 23.3254H247.433C247.623 23.32 247.809 23.27 247.976 23.1794C248.143 23.0887 248.288 22.96 248.398 22.8033C248.682 22.4607 248.833 22.0253 248.822 21.5785C248.833 21.1372 248.699 20.7047 248.441 20.3487C248.329 20.1845 248.178 20.0512 248.002 19.9608C247.826 19.8705 247.63 19.8261 247.433 19.8315H234.759C234.473 19.8363 234.189 19.7796 233.926 19.6652C233.663 19.5508 233.428 19.3813 233.234 19.1678C233.019 18.9483 232.851 18.6855 232.742 18.3963C232.633 18.1072 232.586 17.7981 232.602 17.4892Z" fill="white"/>
</g>
<defs>
<clipPath id="clip0">
<rect width="253" height="40" fill="white"/>
</clipPath>
</defs>
</svg>
