<?xml version="1.0" encoding="utf-8"?>
<!-- Generator: Adobe Illustrator 25.0.0, SVG Export Plug-In . SVG Version: 6.00 Build 0)  -->
<svg version="1.1" xmlns="http://www.w3.org/2000/svg" xmlns:xlink="http://www.w3.org/1999/xlink" x="0px" y="0px"
	 viewBox="0 0 200 200" style="enable-background:new 0 0 200 200;" xml:space="preserve">
<style type="text/css">
	.st0{display:none;}
	.st1{display:inline;}
	.st2{fill:none;stroke:#000000;stroke-width:0.1;stroke-miterlimit:10;}
	.st3{fill:#09100C;}
	.st4{fill:#7A7A7A;}
	.st5{fill:#FFFFFF;}
	.st6{fill:none;}
	.st7{fill:#727272;}
	.st8{opacity:0;fill:#FFFFFF;}
	.st9{opacity:0;}
	.st10{fill:#FFFFFF;stroke:#231F20;stroke-miterlimit:10;}
	.st11{stroke:#000000;stroke-width:8;stroke-miterlimit:10;}
	.st12{fill:none;stroke:#000000;stroke-width:8;stroke-miterlimit:10;}
	.st13{fill:none;stroke:#000000;stroke-width:17;stroke-miterlimit:10;}
	.st14{fill:none;stroke:#000000;stroke-width:4;stroke-miterlimit:10;}
	.st15{fill:none;stroke:#000000;stroke-width:3;stroke-miterlimit:10;}
	.st16{fill:#B2B2B2;}
	.st17{fill:none;stroke:#000000;stroke-width:16;stroke-miterlimit:10;}
	.st18{fill:none;stroke:#000000;stroke-width:10;stroke-miterlimit:10;}
	.st19{fill:#171714;}
</style>
<g id="Layer_1" class="st0">
	<g class="st1">
		<rect x="0" y="0" class="st2" width="200" height="200"/>
		<circle class="st2" cx="100" cy="100" r="100"/>
		<rect x="50" y="0.03" class="st2" width="100" height="199.95"/>
		<line class="st2" x1="100" y1="0.03" x2="100" y2="199.98"/>
		<rect x="0.02" y="50" class="st2" width="199.95" height="100"/>
		<line class="st2" x1="199.97" y1="100" x2="0.02" y2="100"/>
		<line class="st2" x1="0.07" y1="0.07" x2="199.93" y2="199.93"/>
		<line class="st2" x1="199.97" y1="0.03" x2="0.02" y2="199.98"/>
		<rect x="29.28" y="29.29" class="st2" width="141.41" height="141.41"/>
		<circle class="st2" cx="99.99" cy="100" r="70.71"/>
		<circle class="st2" cx="100" cy="100" r="50"/>
		<circle class="st2" cx="100" cy="100" r="25"/>
	</g>
</g>
<g id="Layer_2">
	<g>
		<g>
			<path class="st19" d="M108.04,132.41v-6.9c0-1.05-0.85-1.9-1.9-1.9H93.6c-1.05,0-1.9,0.85-1.9,1.9v6.9H64.47V53.66h70.79v78.75
				H108.04L108.04,132.41z M139.17,136.18l5.62,10.05h-36.75v-10.05H139.17L139.17,136.18z M104.27,146.23h-8.8v-18.85h8.8V146.23
				L104.27,146.23z M91.7,146.23H55.1l5.62-10.05H91.7V146.23L91.7,146.23z M149.34,53.66c1.05,0,1.9-0.84,1.9-1.88
				s-0.85-1.88-1.9-1.88H50.66c-1.05,0-1.9,0.84-1.9,1.88s0.85,1.88,1.9,1.88H60.7v78.75h-1.1c-0.69,0-1.32,0.31-1.66,0.92
				l-7.73,13.86c-0.7,1.26,0.21,2.82,1.66,2.82h96.17c1.57,0,2.47-1.79,1.5-3.03l-7.59-13.64c-0.34-0.6-0.97-0.92-1.66-0.92h-1.25
				V53.66H149.34L149.34,53.66z"/>
			<path class="st19" d="M75.29,114.94h8.85v-13.35c0-2.41-1.96-4.36-4.36-4.36c-2.72,0-4.49,2.1-4.49,4.36V114.94L75.29,114.94z
				 M86.04,118.74H73.39c-1.05,0-1.9-0.85-1.9-1.9v-15.24c0-4.33,3.44-8.16,8.29-8.16c4.5,0,8.16,3.66,8.16,8.16v15.24
				C87.94,117.89,87.09,118.74,86.04,118.74L86.04,118.74z"/>
			<path class="st19" d="M75.29,82.05h8.85V68.7c0-2.41-1.96-4.36-4.36-4.36c-2.72,0-4.49,2.1-4.49,4.36V82.05L75.29,82.05z
				 M86.04,85.85H73.39c-1.05,0-1.9-0.85-1.9-1.9V68.7c0-4.33,3.44-8.16,8.29-8.16c4.5,0,8.16,3.66,8.16,8.16v15.24
				C87.94,85,87.09,85.85,86.04,85.85L86.04,85.85z"/>
			<path class="st19" d="M115.77,114.94h8.86v-13.35c0-2.41-1.96-4.36-4.36-4.36c-2.69,0-4.49,2.07-4.49,4.36V114.94L115.77,114.94z
				 M126.52,118.74h-12.65c-1.05,0-1.9-0.85-1.9-1.9v-15.24c0-4.33,3.44-8.16,8.29-8.16c4.5,0,8.16,3.66,8.16,8.16v15.24
				C128.42,117.89,127.57,118.74,126.52,118.74L126.52,118.74z"/>
			<path class="st19" d="M115.77,82.05h8.86V68.7c0-2.41-1.96-4.36-4.36-4.36c-2.69,0-4.49,2.07-4.49,4.36V82.05L115.77,82.05z
				 M126.52,85.85h-12.65c-1.05,0-1.9-0.85-1.9-1.9V68.7c0-4.33,3.44-8.16,8.29-8.16c4.5,0,8.16,3.66,8.16,8.16v15.24
				C128.42,85,127.57,85.85,126.52,85.85L126.52,85.85z"/>
			<path class="st19" d="M95.53,114.94h8.86v-13.35c0-2.41-1.96-4.36-4.36-4.36c-2.72,0-4.49,2.1-4.49,4.36V114.94L95.53,114.94z
				 M106.28,118.74H93.63c-1.05,0-1.9-0.85-1.9-1.9v-15.24c0-4.33,3.44-8.16,8.29-8.16c4.5,0,8.16,3.66,8.16,8.16v15.24
				C108.18,117.89,107.33,118.74,106.28,118.74L106.28,118.74z"/>
			<path class="st19" d="M95.53,82.05h8.86V68.7c0-2.41-1.96-4.36-4.36-4.36c-2.72,0-4.49,2.1-4.49,4.36V82.05L95.53,82.05z
				 M106.28,85.85H93.63c-1.05,0-1.9-0.85-1.9-1.9V68.7c0-4.33,3.44-8.16,8.29-8.16c4.5,0,8.16,3.66,8.16,8.16v15.24
				C108.18,85,107.33,85.85,106.28,85.85L106.28,85.85z"/>
		</g>
		<rect x="-0.13" y="-0.05" class="st6" width="200" height="200"/>
	</g>
</g>
</svg>
