<svg width="80" height="80" viewBox="0 0 80 80" fill="none" xmlns="http://www.w3.org/2000/svg">
<path d="M45.4419 23.5686H46.8877L46.1618 21.5482L45.4419 23.5686Z" fill="#1A7DD8"/>
<path d="M33.5856 20.6527C33.3194 20.4834 32.8778 20.3987 32.3092 20.3987H31.8313V22.28H32.3395C32.8839 22.28 33.2891 22.1832 33.5553 21.9957C33.7005 21.8928 33.8638 21.7174 33.8638 21.2939C33.8638 20.8826 33.7187 20.7314 33.5856 20.6527Z" fill="#1A7DD8"/>
<path d="M6.66675 16.6666V28.765H73.3334V16.6666H6.66675ZM13.097 20.7498C12.8793 20.9797 12.5224 20.9918 12.2865 20.7801C11.9417 20.4534 11.5243 20.2961 11.0161 20.2961C10.6411 20.2961 10.3567 20.3808 10.145 20.5623C9.9575 20.7196 9.87284 20.895 9.87284 21.1309C9.87284 21.2519 9.89096 21.3547 9.92121 21.4455C9.94541 21.518 9.98167 21.5725 10.0361 21.6209C10.1147 21.6995 10.1995 21.7661 10.2781 21.8145C10.3749 21.875 10.4958 21.9355 10.641 21.996L11.5605 22.3952C11.7601 22.4799 11.9235 22.5646 12.0626 22.6493C12.2139 22.74 12.3651 22.861 12.5042 22.994C12.6736 23.1574 12.8067 23.3631 12.8914 23.5929C12.97 23.8047 13.0123 24.0466 13.0123 24.3067C13.0123 24.8754 12.7764 25.3774 12.3348 25.7525C11.9174 26.1094 11.373 26.2909 10.7257 26.2909C9.92723 26.2909 9.23762 26.0247 8.67504 25.5045C8.44517 25.2867 8.43312 24.9298 8.64484 24.6939C8.85656 24.464 9.21949 24.4519 9.45541 24.6636C9.80021 24.9903 10.2176 25.1476 10.7257 25.1476C11.1008 25.1476 11.3851 25.0629 11.5968 24.8814C11.7844 24.7241 11.869 24.5487 11.869 24.3128C11.869 24.1918 11.8509 24.089 11.8207 23.9982C11.7965 23.9256 11.7601 23.8712 11.7057 23.8228C11.627 23.7442 11.5424 23.6837 11.4638 23.6292C11.367 23.5687 11.246 23.5082 11.1008 23.4477L10.1814 23.0485C9.98173 22.9638 9.81836 22.8791 9.67923 22.7944C9.528 22.7037 9.37678 22.5827 9.23765 22.4496C9.06222 22.2863 8.93518 22.0806 8.84444 21.8508C8.7658 21.6391 8.72348 21.3971 8.72348 21.137C8.72348 20.5684 8.9594 20.0663 9.40099 19.6912C9.82443 19.3343 10.3628 19.1528 11.0101 19.1528C11.8086 19.1528 12.4981 19.419 13.0607 19.9392C13.3027 20.157 13.3148 20.5139 13.097 20.7498ZM19.0071 23.1816C19.0071 23.6716 18.9526 24.1071 18.8377 24.4761C18.7107 24.8814 18.5292 25.208 18.2872 25.45C18.0573 25.6799 17.7973 25.8432 17.519 25.9521C17.2529 26.0549 16.9503 26.1033 16.6297 26.1033C16.3091 26.1033 16.0127 26.0549 15.7405 25.9521C15.4623 25.8493 15.2021 25.6799 14.9723 25.45C14.7303 25.2141 14.5427 24.8874 14.4218 24.4761C14.3068 24.1071 14.2524 23.6716 14.2524 23.1816V19.915C14.2524 19.6005 14.5065 19.3464 14.821 19.3464C15.1356 19.3464 15.3897 19.6005 15.3897 19.915V23.1816C15.3897 23.5566 15.432 23.8833 15.5106 24.1434C15.5772 24.3672 15.668 24.5305 15.7708 24.6334C15.8918 24.7483 16.0128 24.827 16.1398 24.8814C16.418 24.9843 16.8354 24.9843 17.1137 24.8814C17.2468 24.833 17.3678 24.7544 17.4827 24.6334C17.5855 24.5305 17.6763 24.3672 17.7428 24.1434C17.8215 23.8833 17.8638 23.5627 17.8638 23.1816V19.909C17.8638 19.5944 18.1178 19.3404 18.4324 19.3404C18.7469 19.3404 19.001 19.5944 19.001 19.909V23.1816H19.0071ZM23.55 23.1332C23.0842 23.5022 22.443 23.6897 21.6445 23.6897H21.1364V25.6436C21.1364 25.9581 20.8823 26.2122 20.5678 26.2122C20.2532 26.2122 19.9992 25.9581 19.9992 25.6436V19.8001C19.9992 19.4855 20.2532 19.2254 20.5678 19.2254H21.6142C22.4369 19.2254 23.06 19.3827 23.5258 19.7033C23.8888 19.9513 24.3122 20.4534 24.3122 21.4031C24.3183 22.3347 23.9009 22.861 23.55 23.1332ZM28.6737 22.002C28.9882 22.002 29.2423 22.2561 29.2423 22.5706C29.2423 22.8852 28.9882 23.1393 28.6737 23.1393H26.4536V24.9842H29.1334C29.448 24.9842 29.702 25.2383 29.702 25.5589C29.702 25.8735 29.448 26.1336 29.1334 26.1336H25.885C25.5704 26.1336 25.3163 25.8795 25.3163 25.5589V19.8787C25.3163 19.5642 25.5704 19.3101 25.885 19.3101H29.1334C29.448 19.3101 29.702 19.5642 29.702 19.8787C29.702 20.1933 29.448 20.4474 29.1334 20.4474H26.4536V22.002H28.6737ZM34.868 26.0066C34.7833 26.055 34.6866 26.0731 34.5958 26.0731C34.3962 26.0731 34.1965 25.9642 34.0937 25.7767L32.7992 23.3933C32.654 23.4054 32.5028 23.4175 32.3455 23.4175H31.8374V25.6073C31.8374 25.9219 31.5833 26.1759 31.2688 26.1759C30.9542 26.1759 30.7001 25.9219 30.7001 25.6073V19.8182C30.7001 19.5037 30.9542 19.2436 31.2688 19.2436H32.3153C33.1259 19.2436 33.7429 19.3827 34.2026 19.6791C34.5716 19.915 35.0132 20.3808 35.0132 21.2822C35.0132 21.9778 34.741 22.5404 34.2268 22.9094C34.1361 22.9759 34.0393 23.0243 33.9364 23.0787L35.1039 25.2202C35.2491 25.5105 35.1463 25.8553 34.868 26.0066ZM42.5504 25.6255C42.5504 25.94 42.2964 26.2001 41.9819 26.2001C41.6673 26.2001 41.4133 25.9461 41.4133 25.6255V22.6553L40.4273 25.0084C40.3365 25.2202 40.1308 25.3593 39.901 25.3593C39.6711 25.3593 39.4654 25.2202 39.3746 25.0084L38.3887 22.6553V25.6255C38.3887 25.94 38.1346 26.2001 37.82 26.2001C37.5055 26.2001 37.2514 25.9461 37.2514 25.6255V19.8122C37.2514 19.54 37.4449 19.304 37.7111 19.2496C37.9773 19.1952 38.2435 19.3404 38.3524 19.5884L39.913 23.3026L41.4738 19.5884C41.5766 19.3343 41.8488 19.1952 42.1149 19.2496C42.3811 19.304 42.5747 19.54 42.5747 19.8122V25.6255H42.5504ZM48.4061 26.1276C48.1097 26.2364 47.783 26.0792 47.6742 25.7827L47.2931 24.712H45.0307L44.6496 25.7827C44.5649 26.0187 44.3471 26.1638 44.1112 26.1638C44.0446 26.1638 43.9841 26.1517 43.9176 26.1276C43.6212 26.0187 43.4639 25.692 43.5728 25.3956L45.6235 19.6549C45.7021 19.4251 45.9199 19.2738 46.1619 19.2738C46.4038 19.2738 46.6216 19.4251 46.7003 19.6549L48.7509 25.3956C48.8597 25.698 48.7025 26.0247 48.4061 26.1276ZM53.9532 26.0066C53.8685 26.055 53.7717 26.0731 53.681 26.0731C53.4813 26.0731 53.2817 25.9642 53.1789 25.7767L51.8844 23.3933C51.7392 23.4054 51.588 23.4175 51.4307 23.4175H50.9226V25.6073C50.9226 25.9219 50.6685 26.1759 50.3539 26.1759C50.0393 26.1759 49.7853 25.9219 49.7853 25.6073V19.8182C49.7853 19.5037 50.0393 19.2436 50.3539 19.2436H51.4004C52.211 19.2436 52.828 19.3827 53.2877 19.6791C53.6567 19.915 54.0984 20.3808 54.0984 21.2822C54.0984 21.9778 53.8261 22.5404 53.312 22.9094C53.2212 22.9759 53.1245 23.0243 53.0216 23.0787L54.1891 25.2202C54.3283 25.5105 54.2254 25.8553 53.9532 26.0066ZM59.8512 25.3048C60.0084 25.577 59.9177 25.9279 59.6454 26.0852C59.5547 26.1396 59.4579 26.1638 59.3611 26.1638C59.1615 26.1638 58.974 26.061 58.8651 25.8795L57.129 22.8973L56.385 23.5506V25.5892C56.385 25.9037 56.1309 26.1638 55.8163 26.1638C55.5018 26.1638 55.2477 25.9098 55.2477 25.5892V19.8485C55.2477 19.5339 55.5018 19.2799 55.8163 19.2799C56.1309 19.2799 56.385 19.5339 56.385 19.8485V22.0322L56.8931 21.5846L59.0708 19.6731C59.3067 19.4674 59.6696 19.4916 59.8753 19.7275C60.081 19.9634 60.0629 20.3264 59.8209 20.5321L58.0001 22.1351L59.8512 25.3048ZM64.3759 22.002C64.6905 22.002 64.9445 22.2561 64.9445 22.5706C64.9445 22.8852 64.6905 23.1393 64.3759 23.1393H62.1559V24.9842H64.8357C65.1502 24.9842 65.4043 25.2383 65.4043 25.5589C65.4043 25.8735 65.1502 26.1336 64.8357 26.1336H61.5873C61.2727 26.1336 61.0186 25.8795 61.0186 25.5589V19.8787C61.0186 19.5642 61.2727 19.3101 61.5873 19.3101H64.8357C65.1502 19.3101 65.4043 19.5642 65.4043 19.8787C65.4043 20.1933 65.1502 20.4474 64.8357 20.4474H62.1559V22.002H64.3759ZM70.8002 20.52H69.2879V25.4924C69.2879 25.8069 69.0338 26.061 68.7192 26.061C68.4047 26.061 68.1506 25.8069 68.1506 25.4924V20.52H66.6444C66.3298 20.52 66.0757 20.2659 66.0757 19.9453C66.0757 19.6247 66.3298 19.3706 66.6444 19.3706H70.8062C71.1208 19.3706 71.3748 19.6247 71.3748 19.9453C71.3748 20.2659 71.1147 20.52 70.8002 20.52Z" fill="#1A7DD8"/>
<path d="M52.6708 20.6527C52.4046 20.4834 51.963 20.3987 51.3944 20.3987H50.9165V22.28H51.4246C51.969 22.28 52.3743 22.1832 52.6405 21.9957C52.7857 21.8928 52.949 21.7174 52.949 21.2939C52.949 20.8826 52.8039 20.7314 52.6708 20.6527Z" fill="#1A7DD8"/>
<path d="M22.8787 20.6469C22.6186 20.4655 22.183 20.3687 21.6204 20.3687H21.1426V22.5463H21.6507C22.183 22.5463 22.5883 22.4435 22.8484 22.2378C22.9875 22.1289 23.1812 21.9172 23.1812 21.4091C23.1751 20.907 23.0057 20.7316 22.8787 20.6469Z" fill="#1A7DD8"/>
<path fill-rule="evenodd" clip-rule="evenodd" d="M10 30.4829V66.6666H15.7403V36.5321H24.5658V66.6666H26.2778V36.5321H34.2444V66.6666H35.9563V36.5321H43.923V66.6666H45.6349V36.5321H53.6019V66.6666H55.3138V36.5321H64.1338V66.6666H70V30.4829H10Z" fill="#1A7DD8"/>
</svg>
