<svg width="24" height="24" viewBox="0 0 24 24" fill="none" xmlns="http://www.w3.org/2000/svg">
<path fill-rule="evenodd" clip-rule="evenodd" d="M3 7.8C3 6.12 3 5.28 3.327 4.638C3.61462 4.07354 4.07354 3.61462 4.638 3.327C5.28 3 6.12 3 7.8 3H16.2C17.88 3 18.72 3 19.362 3.327C19.9265 3.61462 20.3854 4.07354 20.673 4.638C21 5.28 21 6.12 21 7.8V16.2C21 17.88 21 18.72 20.673 19.362C20.3854 19.9265 19.9265 20.3854 19.362 20.673C18.72 21 17.88 21 16.2 21H7.8C6.12 21 5.28 21 4.638 20.673C4.07354 20.3854 3.61462 19.9265 3.327 19.362C3 18.72 3 17.88 3 16.2V7.8ZM7 12C7 11.7348 7.10536 11.4804 7.29289 11.2929C7.48043 11.1054 7.73478 11 8 11C8.26522 11 8.51957 11.1054 8.70711 11.2929C8.89464 11.4804 9 11.7348 9 12V16C9 16.2652 8.89464 16.5196 8.70711 16.7071C8.51957 16.8946 8.26522 17 8 17C7.73478 17 7.48043 16.8946 7.29289 16.7071C7.10536 16.5196 7 16.2652 7 16V12ZM8 9C8.26522 9 8.51957 8.89464 8.70711 8.70711C8.89464 8.51957 9 8.26522 9 8C9 7.73478 8.89464 7.48043 8.70711 7.29289C8.51957 7.10536 8.26522 7 8 7C7.73478 7 7.48043 7.10536 7.29289 7.29289C7.10536 7.48043 7 7.73478 7 8C7 8.26522 7.10536 8.51957 7.29289 8.70711C7.48043 8.89464 7.73478 9 8 9ZM14 13C13.7348 13 13.4804 13.1054 13.2929 13.2929C13.1054 13.4804 13 13.7348 13 14V16C13 16.2652 12.8946 16.5196 12.7071 16.7071C12.5196 16.8946 12.2652 17 12 17C11.7348 17 11.4804 16.8946 11.2929 16.7071C11.1054 16.5196 11 16.2652 11 16V12C10.9998 11.8022 11.0584 11.6087 11.1682 11.4442C11.278 11.2796 11.4341 11.1513 11.6169 11.0755C11.7996 10.9997 12.0007 10.9798 12.1948 11.0184C12.3888 11.0569 12.5671 11.1521 12.707 11.292C13.1644 11.0735 13.6696 10.9745 14.1756 11.0042C14.6816 11.0339 15.1719 11.1913 15.6006 11.4617C16.0293 11.7321 16.3825 12.1067 16.6272 12.5506C16.8719 12.9945 17.0002 13.4931 17 14V16C17 16.2652 16.8946 16.5196 16.7071 16.7071C16.5196 16.8946 16.2652 17 16 17C15.7348 17 15.4804 16.8946 15.2929 16.7071C15.1054 16.5196 15 16.2652 15 16V14C15 13.7348 14.8946 13.4804 14.7071 13.2929C14.5196 13.1054 14.2652 13 14 13Z" fill="#ffffff"/>
</svg>
