<svg width="121" height="120" viewBox="0 0 121 120" fill="none" xmlns="http://www.w3.org/2000/svg">
<path d="M99 53.0192C99 31.4966 81.6781 14 60.25 14C38.8219 14 21.5 31.4966 21.5 53.0192C21.5 64.4369 29.1197 78.029 36.0091 86.1538C40.7995 91.8032 45.6837 97.5925 49.5 102C51.7448 104.593 55.0242 107.845 56.9103 109.674C59.3605 112.052 61.2604 112.054 63.7121 109.672C65.5266 107.909 68.5 104 70.5 102C74.8825 96.3859 79.676 91.8558 84.5264 86.0953C91.3875 77.9469 99 64.3396 99 53.0192Z" fill="#EA4335"/>
<circle cx="60" cy="52" r="28" fill="#B21511"/>
<path d="M82.5436 39.9785C82.1389 39.9834 81.7419 40.09 81.3891 40.2886C81.0362 40.4871 80.7388 40.7711 80.5242 41.1147H54.8119C53.5441 41.1147 52.3282 41.6189 51.4317 42.5166C50.5352 43.4142 50.0316 44.6317 50.0316 45.9012C50.0316 47.1707 50.5352 48.3882 51.4317 49.2858C52.3282 50.1835 53.5441 50.6878 54.8119 50.6878H67.5349C69.3736 50.7322 71.122 51.4947 72.4067 52.8125C73.6914 54.1303 74.4106 55.8989 74.4106 57.7404C74.4106 59.582 73.6914 61.3506 72.4067 62.6684C71.122 63.9862 69.3736 64.7487 67.5349 64.7931H52.6327C52.4171 64.4557 52.1213 64.1771 51.7717 63.9824C51.4221 63.7877 51.0296 63.6829 50.6296 63.6775C49.9778 63.6775 49.3527 63.9368 48.8917 64.3983C48.4308 64.8598 48.1719 65.4857 48.1719 66.1384C48.1719 66.7911 48.4308 67.4171 48.8917 67.8786C49.3527 68.3401 49.9778 68.5994 50.6296 68.5994C50.9826 68.5961 51.3305 68.5154 51.6489 68.3631C51.9674 68.2107 52.2486 67.9904 52.473 67.7175H67.5349C70.1437 67.6646 72.6277 66.5897 74.454 64.7237C76.2802 62.8576 77.3031 60.349 77.3031 57.7363C77.3031 55.1237 76.2802 52.6151 74.454 50.749C72.6277 48.8829 70.1437 47.8081 67.5349 47.7551H54.8119C54.3198 47.7551 53.8478 47.5594 53.4998 47.2109C53.1518 46.8625 52.9563 46.3899 52.9563 45.8971C52.9563 45.4043 53.1518 44.9317 53.4998 44.5833C53.8478 44.2348 54.3198 44.0391 54.8119 44.0391H80.7126C80.9379 44.3062 81.2181 44.5214 81.5341 44.6701C81.8501 44.8187 82.1945 44.8973 82.5436 44.9004C83.1954 44.9004 83.8206 44.6411 84.2815 44.1796C84.7424 43.7181 85.0014 43.0922 85.0014 42.4395C85.0014 41.7868 84.7424 41.1608 84.2815 40.6993C83.8206 40.2378 83.1954 39.9785 82.5436 39.9785V39.9785ZM50.6296 67.0039C50.4587 67.0039 50.2916 66.9531 50.1494 66.858C50.0073 66.7629 49.8965 66.6278 49.8311 66.4696C49.7657 66.3115 49.7486 66.1375 49.7819 65.9696C49.8153 65.8017 49.8976 65.6475 50.0185 65.5265C50.1394 65.4054 50.2934 65.323 50.461 65.2896C50.6287 65.2562 50.8025 65.2734 50.9604 65.3389C51.1183 65.4044 51.2533 65.5153 51.3483 65.6576C51.4433 65.7999 51.4939 65.9673 51.4939 66.1384C51.4961 66.2533 51.4754 66.3674 51.4329 66.4741C51.3903 66.5807 51.327 66.6778 51.2464 66.7596C51.1659 66.8414 51.0698 66.9062 50.9639 66.9503C50.858 66.9943 50.7443 67.0167 50.6296 67.0162V67.0039ZM82.5436 43.3049C82.3727 43.3049 82.2056 43.2541 82.0634 43.159C81.9213 43.064 81.8105 42.9288 81.7451 42.7707C81.6797 42.6125 81.6626 42.4385 81.6959 42.2706C81.7293 42.1027 81.8116 41.9485 81.9325 41.8275C82.0533 41.7065 82.2073 41.6241 82.375 41.5907C82.5427 41.5573 82.7164 41.5744 82.8744 41.6399C83.0323 41.7054 83.1673 41.8163 83.2623 41.9587C83.3572 42.101 83.4079 42.2683 83.4079 42.4395C83.4096 42.5541 83.3884 42.668 83.3457 42.7744C83.303 42.8809 83.2396 42.9777 83.1592 43.0594C83.0787 43.1411 82.9829 43.2059 82.8772 43.2502C82.7716 43.2944 82.6582 43.3172 82.5436 43.3172V43.3049Z" fill="white"/>
<path d="M67.1895 62.4847C68.4573 62.4847 69.6732 61.9804 70.5697 61.0828C71.4662 60.1851 71.9698 58.9677 71.9698 57.6982C71.9698 56.4287 71.4662 55.2112 70.5697 54.3136C69.6732 53.4159 68.4573 52.9116 67.1895 52.9116H54.4501C52.6114 52.8672 50.863 52.1047 49.5783 50.7869C48.2936 49.4691 47.5744 47.7005 47.5744 45.859C47.5744 44.0174 48.2936 42.2488 49.5783 40.931C50.863 39.6132 52.6114 38.8507 54.4501 38.8063H69.3523C69.5679 39.1437 69.8637 39.4223 70.2133 39.617C70.5629 39.8117 70.9553 39.9165 71.3554 39.9219C72.0072 39.9219 72.6323 39.6626 73.0933 39.2011C73.5542 38.7396 73.8131 38.1136 73.8131 37.461C73.8131 36.8083 73.5542 36.1823 73.0933 35.7208C72.6323 35.2593 72.0072 35 71.3554 35C71.005 35.0057 70.6601 35.087 70.3441 35.2385C70.028 35.39 69.7484 35.6081 69.5243 35.8777H54.4501C51.8413 35.9307 49.3573 37.0056 47.531 38.8716C45.7048 40.7377 44.6819 43.2463 44.6819 45.859C44.6819 48.4716 45.7048 50.9802 47.531 52.8463C49.3573 54.7124 51.8413 55.7872 54.4501 55.8402H67.1895C67.6816 55.8402 68.1536 56.0359 68.5016 56.3844C68.8496 56.7328 69.0451 57.2054 69.0451 57.6982C69.0451 58.191 68.8496 58.6636 68.5016 59.012C68.1536 59.3605 67.6816 59.5562 67.1895 59.5562H41.2888C41.0635 59.2891 40.7833 59.0739 40.4673 58.9252C40.1512 58.7766 39.8069 58.698 39.4578 58.6949C38.8059 58.6949 38.1808 58.9542 37.7199 59.4157C37.2589 59.8772 37 60.5031 37 61.1558C37 61.8085 37.2589 62.4345 37.7199 62.896C38.1808 63.3575 38.8059 63.6168 39.4578 63.6168C39.8627 63.6107 40.2596 63.5031 40.6124 63.304C40.9651 63.1048 41.2625 62.8203 41.4772 62.4765L67.1895 62.4847ZM71.3717 36.5955C71.5427 36.5955 71.7098 36.6463 71.8519 36.7414C71.9941 36.8365 72.1048 36.9716 72.1703 37.1298C72.2357 37.2879 72.2528 37.4619 72.2194 37.6298C72.1861 37.7977 72.1038 37.9519 71.9829 38.0729C71.862 38.1939 71.708 38.2764 71.5404 38.3098C71.3727 38.3432 71.1989 38.326 71.041 38.2605C70.883 38.195 70.7481 38.0841 70.6531 37.9418C70.5581 37.7994 70.5074 37.6321 70.5074 37.461C70.5074 37.2314 70.5985 37.0113 70.7606 36.849C70.9227 36.6867 71.1425 36.5955 71.3717 36.5955V36.5955ZM39.4578 62.0254C39.2868 62.0254 39.1197 61.9746 38.9776 61.8795C38.8354 61.7844 38.7247 61.6492 38.6592 61.4911C38.5938 61.333 38.5767 61.159 38.6101 60.9911C38.6434 60.8232 38.7257 60.669 38.8466 60.548C38.9675 60.4269 39.1215 60.3445 39.2891 60.3111C39.4568 60.2777 39.6306 60.2949 39.7885 60.3604C39.9464 60.4259 40.0814 60.5368 40.1764 60.6791C40.2714 60.8214 40.3221 60.9888 40.3221 61.1599C40.321 61.3891 40.2296 61.6086 40.0677 61.7707C39.9059 61.9328 39.6867 62.0243 39.4578 62.0254V62.0254Z" fill="white"/>
</svg>
