<svg width="48" height="49" viewBox="0 0 48 49" fill="none" xmlns="http://www.w3.org/2000/svg">
<circle opacity="0.6" cx="24" cy="24.9375" r="24" fill="#0979FD"/>
<circle cx="23.9999" cy="24.9374" r="19.5556" fill="#2391FD"/>
<path d="M28.0971 17.7839C26.8694 16.5933 25.2369 15.9375 23.5007 15.9375C21.7641 15.9375 20.1319 16.5933 18.9042 17.7839C16.632 19.9871 16.3497 24.1323 18.2927 26.6437L23.5007 33.9375L28.7009 26.6539C30.6517 24.1323 30.3693 19.9871 28.0971 17.7839ZM23.5607 24.4844C22.2526 24.4844 21.1878 23.4518 21.1878 22.1833C21.1878 20.9147 22.2526 19.8822 23.5607 19.8822C24.8688 19.8822 25.9335 20.9147 25.9335 22.1833C25.9335 23.4518 24.8688 24.4844 23.5607 24.4844Z" fill="white"/>
</svg>
