<?xml version="1.0" encoding="utf-8"?>
<!-- Generator: Adobe Illustrator 26.0.3, SVG Export Plug-In . SVG Version: 6.00 Build 0)  -->
<svg version="1.1"
     id="Layer_1"
     xmlns="http://www.w3.org/2000/svg"
     xmlns:xlink="http://www.w3.org/1999/xlink"
     x="0px"
     y="0px"
     viewBox="0 0 841.89 595.28"
     style="enable-background:new 0 0 841.89 595.28;"
     xml:space="preserve">
  <style type="text/css">
    .st0 {
      fill: white;
    }

    .st1 {
      fill: white;
    }

    .st2 {
      fill: white;
    }

    .st3 {
      fill: white;
    }

    .st4 {
      fill: white;
    }

    .st5 {
      fill: white;
    }

    .st6 {
      fill: white;
    }

    .st7 {
      fill: white;
    }

    .st8 {
      fill: white;
    }

    .st9 {
      fill: white;
    }

    .st10 {
      fill: white;
    }

    .st11 {
      fill: white;
    }

    .st12 {
      fill: white;
    }

    .st13 {
      fill: white;
    }

    .st14 {
      fill: white;
    }

    .st15 {
      fill: white;
    }

    .st16 {
      fill: white;
    }
  </style>
  <g>
    <g>
      <g>
        <g>
          <g>

            <linearGradient id="SVGID_1_"
                            gradientUnits="userSpaceOnUse"
                            x1="522.4853"
                            y1="880.381"
                            x2="522.4853"
                            y2="1022.0624"
                            gradientTransform="matrix(1 0 0 1 0 -492.0001)">
              <stop offset="0"
                    style="stop-color:#31C4E8" />
              <stop offset="1"
                    style="stop-color:#1197D4" />
            </linearGradient>
            <path class="st0"
                  d="M483.06,483.66c0-21.5,17.61-38.96,39.42-38.96c21.82,0,39.42,17.45,39.42,38.96s-17.61,38.96-39.42,38.96
						C500.83,522.62,483.06,505.17,483.06,483.66 M469.19,483.66c0,29.14,23.84,52.67,53.29,52.67c29.45,0,53.29-23.53,53.29-52.67
						c0-29.14-23.84-52.67-53.29-52.67C493.19,430.99,469.19,454.52,469.19,483.66" />

            <path style="fill:white;"
                  d="M314.14,483.66
						c0,29.14,23.84,52.67,53.29,52.67c24.31,0,44.72-16.05,51.11-37.87H403.9c-5.92,14.18-20.1,24.15-36.46,24.15
						c-21.82,0-39.42-17.45-39.42-38.96s17.61-38.96,39.42-38.96c16.67,0,30.85,10.13,36.62,24.46h14.65
						c-6.39-21.97-26.96-38.18-51.27-38.18C337.99,430.99,314.14,454.52,314.14,483.66" />


            <rect x="437.25"
                  y="390.79"
                  style="fill:white;"
                  width="13.71"
                  height="142.27" />

            <path style="fill:white;"
                  d="M718.83,483.66
						c0-21.5,17.61-38.96,39.42-38.96c21.82,0,39.42,17.45,39.42,38.96s-17.61,38.96-39.42,38.96
						C736.44,522.62,718.83,505.17,718.83,483.66 M797.68,390.79v62.8c-8.1-12-23.84-22.6-39.42-22.6
						c-29.45,0-53.29,23.53-53.29,52.67s23.84,52.67,53.29,52.67c15.58,0,29.76-6.7,39.42-17.3c7.79-8.57,12.93-19.63,13.71-31.79
						c0.16-1.25,0.16-2.34,0.16-3.58c0-1.25,0-2.34-0.16-3.58v-89.29H797.68z" />

            <path style="fill:white;"
                  d="M675.66,433.95v56.41
						c0,17.45-14.18,31.79-31.79,31.79h-7.01c-17.45,0-31.79-14.18-31.79-31.79v-56.41h-13.71v58.75
						c0,23.69,19.32,43.01,43.01,43.01h11.84c23.69,0,43.01-19.32,43.01-43.01v-58.75H675.66L675.66,433.95z" />
          </g>
          <g>

            <path style="fill:white;"
                  d="M202.42,430.99
						c-24.62,0-44.57,19.95-44.57,44.57v57.5h13.71v-58.28c0-16.67,13.4-30.07,30.07-30.07h10.91c16.67,0,30.07,13.4,30.07,30.07
						v58.28h13.71v-57.5c0-24.62-19.95-44.57-44.57-44.57H202.42z" />

            <rect x="278.61"
                  y="433.64"
                  style="fill:white;"
                  width="13.71"
                  height="99.42" />

            <path style="fill:white;"
                  d="M124.19,401.07v84.3
						c0,18.7-15.27,33.97-33.97,33.97H78.06c-18.7,0-33.97-15.12-33.97-33.97v-84.3H30.38v83.68c0,26.65,21.66,48.31,48.31,48.31
						h10.75c26.65,0,48.31-21.66,48.31-48.31v-83.68H124.19z" />

            <path style="fill:white;"
                  d="M274.87,406.37
						c0,5.77,4.67,10.6,10.6,10.6c5.77,0,10.6-4.67,10.6-10.6c0-5.77-4.67-10.6-10.6-10.6
						C279.71,395.78,274.87,400.61,274.87,406.37" />
          </g>
        </g>
        <g>
          <g>

            <path style="fill:white;"
                  d="M317.57,180.27
						c-3.58,0-6.54,2.96-6.54,6.54v57.5c0,3.58,2.96,6.54,6.54,6.54h57.5c3.58,0,6.54-2.96,6.54-6.54v-57.5
						c0-3.58-2.96-6.54-6.54-6.54H317.57L317.57,180.27z" />

            <path style="fill:white;"
                  d="M263.66,301.81
						c-3.9,0-7.01,3.12-7.01,7.01v32.1c0,3.9,3.12,7.01,7.01,7.01h32.1c3.9,0,7.01-3.12,7.01-7.01v-32.26c0-3.9-3.12-7.01-7.01-7.01
						h-32.1V301.81z" />

            <path style="fill:white;"
                  d="M209.43,301.81
						c-3.9,0-7.01,3.12-7.01,7.01v32.1c0,3.9,3.12,7.01,7.01,7.01h32.1c3.9,0,7.01-3.12,7.01-7.01v-32.26c0-3.9-3.12-7.01-7.01-7.01
						h-32.1V301.81z" />

            <path style="fill:white;"
                  d="M209.43,253.66
						c-3.9,0-7.01,3.12-7.01,7.01v23.53c0,3.9,3.12,7.01,7.01,7.01h23.53c3.9,0,7.01-3.12,7.01-7.01v-23.53
						c0-3.9-3.12-7.01-7.01-7.01H209.43L209.43,253.66z" />

            <path style="fill:white;"
                  d="M209.43,209.25
						c-3.9,0-7.01,3.12-7.01,7.01v19.95c0,3.9,3.12,7.01,7.01,7.01h19.95c3.9,0,7.01-3.12,7.01-7.01v-19.95
						c0-3.9-3.12-7.01-7.01-7.01H209.43z" />

            <path style="fill:white;"
                  d="M209.43,172.63
						c-3.9,0-7.01,3.12-7.01,7.01v12.15c0,3.9,3.12,7.01,7.01,7.01h12.15c3.9,0,7.01-3.12,7.01-7.01v-12.15
						c0-3.9-3.12-7.01-7.01-7.01H209.43z" />
            <path style="fill:white;"
                  d="M316.95,260.52
						c-3.27,0-5.92,2.65-5.92,5.92v75.42c0,3.27,2.65,5.92,5.92,5.92h101.13c3.27,0,5.92-2.65,5.92-5.92v-75.42
						c0-3.27-2.65-5.92-5.92-5.92H316.95L316.95,260.52z" />
          </g>

          <path style="fill:white;"
                d="M398.6,139.75
					c-5.45-1.56-11.06-2.34-16.99-2.34c-22.75,0-42.54,12.31-53.14,30.7h53.14c6.39,0,11.38,5.14,11.38,11.38v71.37h48.62
					c5.77,0,10.44,4.67,10.44,10.44v86.8h180.92c46.28,0,83.68-37.4,83.68-83.68c0-41.45-30.07-75.73-69.65-82.43
					c-2.8-68.72-59.37-123.42-128.71-123.42C463.89,58.41,417.46,92.07,398.6,139.75" />
        </g>
      </g>
    </g>
  </g>
</svg>