<svg width="78" height="78" viewBox="0 0 78 78" fill="none" xmlns="http://www.w3.org/2000/svg">
<g clip-path="url(#clip0_21296_6124)">
<path d="M50.5437 24.8848H27.4356C27.0972 24.8848 26.7727 25.0192 26.5334 25.2584C26.2941 25.4977 26.1597 25.8222 26.1597 26.1606V56.9444C26.1597 57.2828 26.2941 57.6073 26.5334 57.8466C26.7727 58.0859 27.0972 58.2204 27.4356 58.2204H50.5437C50.8821 58.2204 51.2066 58.0859 51.4459 57.8466C51.6852 57.6073 51.8196 57.2828 51.8196 56.9444V26.1606C51.8196 25.8222 51.6852 25.4977 51.4459 25.2584C51.2066 25.0192 50.8821 24.8848 50.5437 24.8848V24.8848ZM49.2475 55.6685H28.7722V47.9726H49.288L49.2475 55.6685ZM49.2475 45.4005H28.7722V37.7046H49.288L49.2475 45.4005ZM49.2475 35.1325H28.7722V27.4365H49.288L49.2475 35.1325Z" fill="url(#paint0_linear_21296_6124)"/>
<path d="M73.6313 0.500208H55.6673C54.6468 0.500208 53.668 0.9056 52.9464 1.62724C52.2248 2.34887 51.8193 3.32762 51.8193 4.34817V14.6162C51.8247 15.6351 52.2318 16.6108 52.9523 17.3313C53.6728 18.0518 54.6484 18.4588 55.6673 18.4642H60.8114V21.016H58.2394V23.588H71.0795V21.016H68.5074V18.4642H73.6313C74.6502 18.4588 75.6258 18.0518 76.3463 17.3313C77.0668 16.6108 77.4739 15.6351 77.4793 14.6162V4.28742C77.4793 3.26687 77.0738 2.28812 76.3522 1.56648C75.6306 0.844845 74.6518 0.439453 73.6313 0.439453V0.500208ZM65.9353 20.9552H63.3633V18.4642H65.9353V20.9552ZM74.9274 14.5554C74.9221 14.8957 74.7832 15.2201 74.5407 15.4589C74.2982 15.6976 73.9716 15.8314 73.6313 15.8314H55.6673C55.3289 15.8314 55.0044 15.6969 54.7651 15.4576C54.5258 15.2183 54.3914 14.8938 54.3914 14.5554V13.2593H74.9274V14.5554ZM74.9274 10.7075H54.3914V4.28742C54.3914 3.94713 54.5251 3.62051 54.7639 3.37801C55.0026 3.1355 55.3271 2.99654 55.6673 2.99123H73.6313C73.975 2.99123 74.3047 3.12782 74.5478 3.3709C74.7909 3.61398 74.9274 3.94365 74.9274 4.28742V10.7075Z" fill="url(#paint1_linear_21296_6124)"/>
<path d="M76.2033 69.7847V60.8128C76.2033 59.7923 75.7979 58.8135 75.0763 58.0919C74.3547 57.3702 73.3759 56.9648 72.3554 56.9648H56.9635C55.9429 56.9648 54.9642 57.3702 54.2426 58.0919C53.5209 58.8135 53.1155 59.7923 53.1155 60.8128V69.7847C52.7717 69.7847 52.4421 69.9212 52.199 70.1643C51.9559 70.4074 51.8193 70.737 51.8193 71.0808V73.6326C51.8193 74.6532 52.2248 75.6319 52.9464 76.3535C53.668 77.0752 54.6468 77.4806 55.6673 77.4806H73.6313C74.1366 77.4806 74.637 77.3811 75.1038 77.1877C75.5707 76.9943 75.9949 76.7109 76.3522 76.3535C76.7095 75.9962 76.993 75.5721 77.1863 75.1052C77.3797 74.6383 77.4793 74.1379 77.4793 73.6326V71.1213C77.4793 70.781 77.3455 70.4544 77.1068 70.2119C76.8681 69.9694 76.5436 69.8304 76.2033 69.8251V69.7847ZM55.6673 60.8533C55.6673 60.5095 55.8039 60.1798 56.047 59.9368C56.29 59.6937 56.6197 59.5572 56.9635 59.5572H72.3554C72.6956 59.5625 73.0201 59.7014 73.2588 59.9439C73.4975 60.1864 73.6313 60.513 73.6313 60.8533V69.8251H55.6673V60.8533ZM74.9274 73.6732C74.9274 74.0169 74.7909 74.3465 74.5478 74.5896C74.3047 74.8327 73.975 74.9693 73.6313 74.9693H55.6673C55.3271 74.964 55.0026 74.8251 54.7639 74.5826C54.5251 74.3401 54.3914 74.0134 54.3914 73.6732V72.3972H74.9274V73.6732Z" fill="url(#paint2_linear_21296_6124)"/>
<path d="M19.7399 59.5165H18.464V58.2406C18.464 57.2201 18.0585 56.2413 17.3369 55.5197C16.6153 54.798 15.6365 54.3926 14.616 54.3926H4.34798C3.32743 54.3926 2.34868 54.798 1.62704 55.5197C0.905407 56.2413 0.5 57.2201 0.5 58.2406V73.6324C0.5 74.653 0.905407 75.6317 1.62704 76.3534C2.34868 77.075 3.32743 77.4805 4.34798 77.4805H19.7399C20.7604 77.4805 21.7392 77.075 22.4608 76.3534C23.1824 75.6317 23.5878 74.653 23.5878 73.6324V63.3645C23.5825 62.3456 23.1754 61.3699 22.4549 60.6494C21.7344 59.9289 20.7588 59.5218 19.7399 59.5165V59.5165ZM10.9908 74.9286H4.34798C4.00421 74.9286 3.67452 74.7921 3.43145 74.549C3.18837 74.3059 3.05182 73.9762 3.05182 73.6324V58.2406C3.05714 57.9004 3.19603 57.5758 3.43854 57.3371C3.68104 57.0984 4.00769 56.9646 4.34798 56.9647H14.5957C14.9341 56.9647 15.2587 57.0991 15.4979 57.3384C15.7372 57.5776 15.8716 57.9022 15.8716 58.2406V59.5165H14.5957C13.5768 59.5218 12.6012 59.9289 11.8807 60.6494C11.1602 61.3699 10.7531 62.3456 10.7478 63.3645V73.6324C10.7509 74.0737 10.8262 74.5116 10.9705 74.9286H10.9908ZM21.0968 73.6324C21.0968 73.9762 20.9602 74.3059 20.7171 74.549C20.4741 74.7921 20.1444 74.9286 19.8006 74.9286H14.5957C14.252 74.9286 13.9223 74.7921 13.6792 74.549C13.4361 74.3059 13.2996 73.9762 13.2996 73.6324V63.3645C13.3049 63.0242 13.4438 62.6997 13.6863 62.461C13.9288 62.2223 14.2555 62.0885 14.5957 62.0886H19.7196C20.0599 62.0885 20.3866 62.2223 20.6291 62.461C20.8716 62.6997 21.0105 63.0242 21.0158 63.3645L21.0968 73.6324Z" fill="url(#paint3_linear_21296_6124)"/>
<path d="M28.6307 8.33773C28.4686 7.45585 28.1229 6.6179 27.6161 5.87817C27.1094 5.13844 26.4528 4.51344 25.689 4.04372C24.9252 3.57399 24.0713 3.27003 23.1825 3.15149C22.2937 3.03295 21.3899 3.10249 20.5297 3.35563C19.8203 2.46258 18.918 1.74175 17.8903 1.24719C16.8626 0.752635 15.7362 0.497183 14.5957 0.500023C12.9931 0.502632 11.4309 1.00283 10.1249 1.93157C8.81881 2.86031 7.83343 4.17175 7.30483 5.68466C5.37011 5.92814 3.59996 6.89694 2.35207 8.39533C1.10419 9.89373 0.471633 11.81 0.58222 13.7568C0.692806 15.7036 1.53828 17.5359 2.94782 18.8834C4.35735 20.2308 6.22584 20.993 8.17569 21.0158H27.4156C29.0061 21.0041 30.5356 20.4023 31.7078 19.3272C32.8799 18.252 33.6113 16.78 33.7601 15.1964C33.9088 13.6128 33.4645 12.0304 32.5131 10.7558C31.5617 9.4811 30.171 8.60503 28.6104 8.29725L28.6307 8.33773ZM27.4156 18.4235H8.17569C6.81138 18.4396 5.49654 17.9131 4.52043 16.9598C3.54433 16.0064 2.98691 14.7044 2.97079 13.3401C2.95468 11.9758 3.48119 10.661 4.43451 9.68485C5.38783 8.70874 6.68985 8.15131 8.05416 8.13519H8.2567C8.55748 8.1464 8.85253 8.05096 9.08971 7.86566C9.3269 7.68036 9.49096 7.41712 9.55286 7.12257C9.7545 6.10802 10.2585 5.17829 10.9986 4.45559C11.7386 3.73289 12.6801 3.25106 13.6991 3.07355C14.7182 2.89604 15.7671 3.03111 16.7079 3.46101C17.6487 3.89091 18.4375 4.59551 18.9703 5.48212C19.1319 5.76065 19.3944 5.96645 19.7035 6.05691C20.0126 6.14738 20.3446 6.11557 20.631 5.96816C21.2125 5.67801 21.8588 5.54241 22.5079 5.57433C23.157 5.60626 23.787 5.80468 24.3372 6.15049C24.8905 6.49547 25.3465 6.97604 25.6619 7.54668C25.9773 8.11732 26.1418 8.75909 26.1396 9.41111C26.1396 9.75139 26.2734 10.078 26.5121 10.3205C26.7508 10.563 27.0753 10.702 27.4156 10.7073C28.4361 10.7073 29.4148 11.1127 30.1365 11.8343C30.8581 12.556 31.2635 13.5347 31.2635 14.5553C31.2635 15.5758 30.8581 16.5546 30.1365 17.2762C29.4148 17.9978 28.4361 18.4032 27.4156 18.4032" fill="url(#paint4_linear_21296_6124)"/>
<path d="M33.8758 30.0078H31.3037V32.5799H33.8758V30.0078Z" fill="url(#paint5_linear_21296_6124)"/>
<path d="M40.2757 30.0078H37.7036V32.5799H40.2757V30.0078Z" fill="url(#paint6_linear_21296_6124)"/>
<path d="M46.6961 30.0078H44.124V32.5799H46.6961V30.0078Z" fill="url(#paint7_linear_21296_6124)"/>
<path d="M33.8758 40.2754H31.3037V42.8475H33.8758V40.2754Z" fill="url(#paint8_linear_21296_6124)"/>
<path d="M40.2757 40.2754H37.7036V42.8475H40.2757V40.2754Z" fill="url(#paint9_linear_21296_6124)"/>
<path d="M46.6961 40.2754H44.124V42.8475H46.6961V40.2754Z" fill="url(#paint10_linear_21296_6124)"/>
<path d="M33.8758 50.5449H31.3037V53.117H33.8758V50.5449Z" fill="url(#paint11_linear_21296_6124)"/>
<path d="M40.2757 50.5449H37.7036V53.117H40.2757V50.5449Z" fill="url(#paint12_linear_21296_6124)"/>
<path d="M46.6961 50.5449H44.124V53.117H46.6961V50.5449Z" fill="url(#paint13_linear_21296_6124)"/>
<path d="M65.936 35.1321V26.1602H63.3639V33.8561H54.3921V36.4282H64.6601C65.0003 36.4229 65.3248 36.284 65.5636 36.0415C65.8023 35.799 65.936 35.4723 65.936 35.1321" fill="url(#paint14_linear_21296_6124)"/>
<path d="M54.3921 44.1238H63.3639V54.3918H65.936V42.7669C65.936 42.4266 65.8023 42.1 65.5636 41.8575C65.3248 41.615 65.0003 41.476 64.6601 41.4707H54.3921V44.1238Z" fill="url(#paint15_linear_21296_6124)"/>
<path d="M14.5958 23.5879H12.0439V35.1318C12.0439 35.4721 12.1777 35.7987 12.4164 36.0412C12.6551 36.2837 12.9796 36.4226 13.3199 36.428H23.5879V33.8559H14.5958V23.5879Z" fill="url(#paint16_linear_21296_6124)"/>
<path d="M12.0439 42.7679V51.7397H14.5958V44.0438H23.5676V41.5527H13.3199C12.9796 41.5581 12.6551 41.6969 12.4164 41.9395C12.1777 42.182 12.0439 42.5086 12.0439 42.8489" fill="url(#paint17_linear_21296_6124)"/>
</g>
<defs>
<linearGradient id="paint0_linear_21296_6124" x1="26.1597" y1="41.5526" x2="53.421" y2="42.2322" gradientUnits="userSpaceOnUse">
<stop stop-color="#0091EF"/>
<stop offset="1" stop-color="#32D7D4"/>
</linearGradient>
<linearGradient id="paint1_linear_21296_6124" x1="51.8193" y1="12.0137" x2="79.0625" y2="12.9919" gradientUnits="userSpaceOnUse">
<stop stop-color="#0091EF"/>
<stop offset="1" stop-color="#32D7D4"/>
</linearGradient>
<linearGradient id="paint2_linear_21296_6124" x1="51.8193" y1="67.2227" x2="79.0529" y2="68.326" gradientUnits="userSpaceOnUse">
<stop stop-color="#0091EF"/>
<stop offset="1" stop-color="#32D7D4"/>
</linearGradient>
<linearGradient id="paint3_linear_21296_6124" x1="0.5" y1="65.9365" x2="25.0183" y2="66.7307" gradientUnits="userSpaceOnUse">
<stop stop-color="#0091EF"/>
<stop offset="1" stop-color="#32D7D4"/>
</linearGradient>
<linearGradient id="paint4_linear_21296_6124" x1="0.569824" y1="10.7579" x2="35.7864" y2="12.6048" gradientUnits="userSpaceOnUse">
<stop stop-color="#0091EF"/>
<stop offset="1" stop-color="#32D7D4"/>
</linearGradient>
<linearGradient id="paint5_linear_21296_6124" x1="31.3037" y1="31.2938" x2="34.0351" y2="31.3823" gradientUnits="userSpaceOnUse">
<stop stop-color="#0091EF"/>
<stop offset="1" stop-color="#32D7D4"/>
</linearGradient>
<linearGradient id="paint6_linear_21296_6124" x1="37.7036" y1="31.2938" x2="40.435" y2="31.3823" gradientUnits="userSpaceOnUse">
<stop stop-color="#0091EF"/>
<stop offset="1" stop-color="#32D7D4"/>
</linearGradient>
<linearGradient id="paint7_linear_21296_6124" x1="44.124" y1="31.2938" x2="46.8554" y2="31.3823" gradientUnits="userSpaceOnUse">
<stop stop-color="#0091EF"/>
<stop offset="1" stop-color="#32D7D4"/>
</linearGradient>
<linearGradient id="paint8_linear_21296_6124" x1="31.3037" y1="41.5614" x2="34.0351" y2="41.6499" gradientUnits="userSpaceOnUse">
<stop stop-color="#0091EF"/>
<stop offset="1" stop-color="#32D7D4"/>
</linearGradient>
<linearGradient id="paint9_linear_21296_6124" x1="37.7036" y1="41.5614" x2="40.435" y2="41.6499" gradientUnits="userSpaceOnUse">
<stop stop-color="#0091EF"/>
<stop offset="1" stop-color="#32D7D4"/>
</linearGradient>
<linearGradient id="paint10_linear_21296_6124" x1="44.124" y1="41.5614" x2="46.8554" y2="41.6499" gradientUnits="userSpaceOnUse">
<stop stop-color="#0091EF"/>
<stop offset="1" stop-color="#32D7D4"/>
</linearGradient>
<linearGradient id="paint11_linear_21296_6124" x1="31.3037" y1="51.831" x2="34.0351" y2="51.9194" gradientUnits="userSpaceOnUse">
<stop stop-color="#0091EF"/>
<stop offset="1" stop-color="#32D7D4"/>
</linearGradient>
<linearGradient id="paint12_linear_21296_6124" x1="37.7036" y1="51.831" x2="40.435" y2="51.9194" gradientUnits="userSpaceOnUse">
<stop stop-color="#0091EF"/>
<stop offset="1" stop-color="#32D7D4"/>
</linearGradient>
<linearGradient id="paint13_linear_21296_6124" x1="44.124" y1="51.831" x2="46.8554" y2="51.9194" gradientUnits="userSpaceOnUse">
<stop stop-color="#0091EF"/>
<stop offset="1" stop-color="#32D7D4"/>
</linearGradient>
<linearGradient id="paint14_linear_21296_6124" x1="54.3921" y1="31.2942" x2="66.6478" y2="31.7405" gradientUnits="userSpaceOnUse">
<stop stop-color="#0091EF"/>
<stop offset="1" stop-color="#32D7D4"/>
</linearGradient>
<linearGradient id="paint15_linear_21296_6124" x1="54.3921" y1="47.9313" x2="66.6538" y2="48.2861" gradientUnits="userSpaceOnUse">
<stop stop-color="#0091EF"/>
<stop offset="1" stop-color="#32D7D4"/>
</linearGradient>
<linearGradient id="paint16_linear_21296_6124" x1="12.0439" y1="30.0079" x2="24.3056" y2="30.365" gradientUnits="userSpaceOnUse">
<stop stop-color="#0091EF"/>
<stop offset="1" stop-color="#32D7D4"/>
</linearGradient>
<linearGradient id="paint17_linear_21296_6124" x1="12.0439" y1="46.6462" x2="24.278" y2="47.0945" gradientUnits="userSpaceOnUse">
<stop stop-color="#0091EF"/>
<stop offset="1" stop-color="#32D7D4"/>
</linearGradient>
<clipPath id="clip0_21296_6124">
<rect width="77" height="77" fill="white" transform="translate(0.5 0.5)"/>
</clipPath>
</defs>
</svg>
