<svg width="48" height="48" viewBox="0 0 48 48" fill="none" xmlns="http://www.w3.org/2000/svg">
<path fill-rule="evenodd" clip-rule="evenodd" d="M14.0801 2H34.0801C34.6324 2 35.0801 2.44772 35.0801 3V5H13.0801V3C13.0801 2.44772 13.5278 2 14.0801 2ZM11.0801 7V5V3C11.0801 1.34315 12.4232 0 14.0801 0H34.0801C35.7369 0 37.0801 1.34315 37.0801 3V45C37.0801 46.6569 35.7369 48 34.0801 48H14.0801C12.4232 48 11.0801 46.6569 11.0801 45V42V40V7ZM13.0801 45V42H35.0801V45C35.0801 45.5523 34.6324 46 34.0801 46H14.0801C13.5278 46 13.0801 45.5523 13.0801 45ZM35.0801 7V40H13.0801V7H35.0801ZM22.0801 43C21.5278 43 21.0801 43.4477 21.0801 44C21.0801 44.5523 21.5278 45 22.0801 45H26.0801C26.6324 45 27.0801 44.5523 27.0801 44C27.0801 43.4477 26.6324 43 26.0801 43H22.0801Z" fill="url(#paint0_linear_22611_12841)"/>
<defs>
<linearGradient id="paint0_linear_22611_12841" x1="11.0801" y1="24" x2="38.7114" y2="24.4848" gradientUnits="userSpaceOnUse">
<stop stop-color="#0091EF"/>
<stop offset="1" stop-color="#32D7D4"/>
</linearGradient>
</defs>
</svg>
