<svg width="48" height="48" viewBox="0 0 48 48" fill="none" xmlns="http://www.w3.org/2000/svg">
<path fill-rule="evenodd" clip-rule="evenodd" d="M26.0222 26.0004C32.8898 26.0004 38.457 20.4332 38.457 13.5656C38.457 6.6981 32.8898 1.13086 26.0222 1.13086C19.1547 1.13086 13.5875 6.6981 13.5875 13.5656C13.5875 20.4332 19.1547 26.0004 26.0222 26.0004ZM36.457 13.5656C36.457 19.3286 31.7852 24.0004 26.0222 24.0004C20.2593 24.0004 15.5875 19.3286 15.5875 13.5656C15.5875 7.80267 20.2593 3.13086 26.0222 3.13086C31.7852 3.13086 36.457 7.80267 36.457 13.5656ZM43.0146 23.4182C44.0112 22.9873 45.0587 22.6762 46.0079 22.7291C46.6235 22.7635 47.1875 23.0169 47.5464 23.5344C47.8786 24.0136 47.9309 24.5713 47.8844 25.0298C47.7925 25.9356 47.2781 26.9064 46.5856 27.5639C44.9035 29.1611 43.3996 30.6481 42.0033 32.0288C41.2195 32.8039 40.4695 33.5454 39.741 34.2542C37.7335 36.2069 35.9055 37.8932 34.0895 39.2115C32.2656 40.5356 30.4266 41.5092 28.3877 42.0178C26.3443 42.5276 24.1578 42.5561 21.6569 42.0689C20.6301 41.8689 19.7488 41.6899 18.9706 41.5319L18.9698 41.5317L18.9697 41.5317L18.9675 41.5313C18.1948 41.3744 17.5239 41.2382 16.9133 41.1225C15.7034 40.8933 14.878 40.7753 14.2148 40.7694C13.0501 40.759 12.3227 41.0788 10.6886 42.238L10.7141 42.4007C10.8856 43.4918 10.1399 44.5154 9.04876 44.6868L4.75361 45.3616C3.66242 45.533 2.63888 44.7874 2.46745 43.6962L0.497177 31.1543C0.325756 30.0632 1.07137 29.0396 2.16256 28.8682L6.45771 28.1934C7.32404 28.0573 8.14773 28.4993 8.5362 29.2333C10.897 27.51 15.1683 25.8394 21.5348 27.196C24.3495 27.7958 26.4388 27.4248 28.3418 27.087L28.3421 27.0869C28.696 27.0241 29.0435 26.9624 29.388 26.9083C30.4702 26.7384 31.5941 26.6353 32.7207 26.9473C33.6271 27.1982 34.4622 27.6954 35.2671 28.4998C36.5073 27.5189 38.1771 26.2381 39.8838 25.1407C40.9212 24.4737 41.9958 23.8588 43.0146 23.4182ZM14.2327 38.7695C12.7197 38.756 11.6596 39.1914 10.3448 40.0496L8.97729 31.3447C9.09585 31.3071 9.20932 31.2465 9.3111 31.1624C11.0802 29.701 14.8826 27.8234 21.118 29.1521C24.3429 29.8393 26.8286 29.3928 28.7431 29.0488C29.0787 28.9885 29.3968 28.9314 29.6982 28.8841C30.7249 28.7229 31.4926 28.6824 32.187 28.8747C32.8503 29.0584 33.5592 29.4884 34.3746 30.4977C34.4615 30.6052 34.4731 30.718 34.4123 30.8478C34.3441 30.9934 34.1904 31.1265 33.9771 31.1586C30.6307 31.6621 26.5121 32.4175 24.5282 32.8004C23.9859 32.905 23.6312 33.4295 23.7358 33.9717C23.8405 34.514 24.3649 34.8688 24.9072 34.7641C26.8784 34.3837 30.9669 33.634 34.2747 33.1363C35.1677 33.0019 35.879 32.431 36.2232 31.6967C36.4419 31.2301 36.5137 30.689 36.3884 30.163C37.6241 29.1833 39.2838 27.9043 40.9655 26.8229C41.9548 26.1868 42.928 25.6347 43.8084 25.2539C44.711 24.8636 45.4139 24.6991 45.8966 24.726L45.899 24.7262C45.8997 24.7522 45.8989 24.7857 45.8946 24.828C45.8569 25.2 45.5985 25.7432 45.2085 26.1136C43.5158 27.7208 41.9798 29.2394 40.5721 30.6312L40.5714 30.6319L40.571 30.6324C39.7918 31.4028 39.0519 32.1343 38.3464 32.8206C36.3474 34.7652 34.6061 36.365 32.9146 37.593C31.231 38.8152 29.6242 39.648 27.9036 40.0773C26.1875 40.5054 24.3009 40.5463 22.0393 40.1058C21.0593 39.9149 20.175 39.7355 19.3857 39.5754L19.3852 39.5753L19.3849 39.5752L19.384 39.575C18.5881 39.4136 17.8888 39.2717 17.2856 39.1575C16.0676 38.9267 15.0896 38.7771 14.2327 38.7695ZM6.76809 30.1692L2.47295 30.844L4.44322 43.3858L8.73837 42.711L6.76809 30.1692ZM26.0005 7.00043C26.5528 7.00043 27.0005 7.44814 27.0005 8.00043V13.0004H29.9789C30.5312 13.0004 30.9789 13.4481 30.9789 14.0004C30.9789 14.5527 30.5312 15.0004 29.9789 15.0004H26.2397C26.1993 15.0004 26.1593 14.998 26.1201 14.9933C26.0809 14.998 26.041 15.0004 26.0005 15.0004C25.4482 15.0004 25.0005 14.5527 25.0005 14.0004V8.00043C25.0005 7.44814 25.4482 7.00043 26.0005 7.00043Z" fill="url(#paint0_linear_22611_12808)"/>
<defs>
<linearGradient id="paint0_linear_22611_12808" x1="0.472656" y1="23.2585" x2="50.8295" y2="25.0064" gradientUnits="userSpaceOnUse">
<stop stop-color="#0091EF"/>
<stop offset="1" stop-color="#32D7D4"/>
</linearGradient>
</defs>
</svg>
