<svg width="48" height="48" viewBox="0 0 48 48" fill="none" xmlns="http://www.w3.org/2000/svg">
<mask id="path-1-inside-1_21832_8801" fill="white">
<path fill-rule="evenodd" clip-rule="evenodd" d="M1.5828 3.27868C0.904787 3.92528 0.750263 4.9752 1.21127 5.80312L4.77141 12.1966C5.12194 12.8261 5.76842 13.2137 6.46788 13.2137H8.47077L15.9398 20.9815C16.3226 21.3796 16.9432 21.3796 17.326 20.9815C17.7088 20.5834 17.7088 19.938 17.326 19.5399L9.85699 11.7721C9.48934 11.3897 8.9907 11.1749 8.47077 11.1749H6.46788L2.90774 4.78138L4.74929 3.02517L10.717 7.20094V8.83884C10.717 9.37957 10.9235 9.89815 11.2912 10.2805L18.7602 18.0483C19.143 18.4464 19.7636 18.4464 20.1464 18.0483C20.5292 17.6502 20.5292 17.0047 20.1464 16.6066L12.6774 8.83884L12.6774 7.20093C12.6774 6.52232 12.3527 5.88818 11.8113 5.50935L5.84364 1.33358C5.0921 0.807703 4.09197 0.885792 3.42435 1.52248L1.5828 3.27868ZM44.4203 12.6971C44.4203 18.4185 39.9606 23.0566 34.4593 23.0566C33.2159 23.0566 32.0258 22.8196 30.9283 22.3868L8.35211 45.866C6.79444 47.486 4.26896 47.486 2.71129 45.866C1.15362 44.246 1.15362 41.6195 2.71129 39.9996L25.2241 16.5863C24.7561 15.3854 24.4983 14.0726 24.4983 12.6971C24.4983 6.97572 28.958 2.33763 34.4593 2.33763C36.2881 2.33763 38.0018 2.85017 39.4748 3.74467C39.7124 3.88894 39.696 4.24106 39.5033 4.4414L34.0789 10.0827C33.3134 10.879 33.3134 12.1699 34.0789 12.9661L34.1626 13.053C34.9282 13.8492 36.1694 13.8492 36.935 13.053L42.3594 7.41169C42.5506 7.21276 42.9058 7.19617 43.0421 7.43614C43.9178 8.97809 44.4203 10.7766 44.4203 12.6971ZM26.3631 33.0246C26.7459 32.6265 27.3665 32.6265 27.7493 33.0246L39.306 45.0436C40.4809 46.2655 42.3857 46.2655 43.5606 45.0436C44.7355 43.8217 44.7355 41.8407 43.5606 40.6188L32.0039 28.5998C31.6211 28.2017 31.6211 27.5563 32.0039 27.1582C32.3867 26.7601 33.0073 26.7601 33.3901 27.1582L44.9468 39.1772C46.8873 41.1952 46.8873 44.4672 44.9468 46.4853C43.0064 48.5034 39.8603 48.5034 37.9198 46.4853L26.3631 34.4663C25.9803 34.0682 25.9803 33.4227 26.3631 33.0246Z"/>
</mask>
<path d="M1.21127 5.80312L-0.536093 6.77611H-0.536093L1.21127 5.80312ZM1.5828 3.27868L2.96308 4.72604L1.5828 3.27868ZM4.77141 12.1966L6.51878 11.2237L6.51878 11.2236L4.77141 12.1966ZM8.47077 13.2137L9.91244 11.8275L9.32226 11.2137H8.47077V13.2137ZM15.9398 20.9815L17.3815 19.5953L17.3815 19.5953L15.9398 20.9815ZM17.326 20.9815L15.8843 19.5953L15.8843 19.5953L17.326 20.9815ZM17.326 19.5399L15.8843 20.9261L15.8843 20.9261L17.326 19.5399ZM9.85699 11.7721L11.2987 10.3858L11.2987 10.3858L9.85699 11.7721ZM6.46788 11.1749L4.72052 12.1479L5.29239 13.1749H6.46788V11.1749ZM2.90774 4.78138L1.52746 3.33402L0.40742 4.40216L1.16038 5.75437L2.90774 4.78138ZM4.74929 3.02517L5.89592 1.3865L4.55414 0.447616L3.36901 1.57782L4.74929 3.02517ZM10.717 7.20094H12.717V6.15939L11.8636 5.56226L10.717 7.20094ZM10.717 8.83884L12.717 8.83884V8.83884H10.717ZM11.2912 10.2805L9.84951 11.6667L9.84951 11.6667L11.2912 10.2805ZM18.7602 18.0483L20.2019 16.6621L20.2019 16.6621L18.7602 18.0483ZM20.1464 16.6066L21.5881 15.2204L21.5881 15.2204L20.1464 16.6066ZM12.6774 8.83884L10.6774 8.83884L10.6774 9.64439L11.2357 10.2251L12.6774 8.83884ZM12.6774 7.20093L14.6774 7.20094V7.20093L12.6774 7.20093ZM11.8113 5.50935L12.958 3.87068L12.958 3.87068L11.8113 5.50935ZM5.84364 1.33358L6.99027 -0.305091L5.84364 1.33358ZM3.42435 1.52248L4.80463 2.96983V2.96983L3.42435 1.52248ZM30.9283 22.3868L31.662 20.5263L30.4154 20.0347L29.4866 21.0006L30.9283 22.3868ZM8.35211 45.866L9.79377 47.2522L9.79377 47.2522L8.35211 45.866ZM2.71129 45.866L4.15296 44.4798H4.15296L2.71129 45.866ZM2.71129 39.9996L1.26963 38.6133H1.26963L2.71129 39.9996ZM25.2241 16.5863L26.6657 17.9725L27.5517 17.0511L27.0875 15.86L25.2241 16.5863ZM39.4748 3.74467L38.4367 5.45416L38.4367 5.45416L39.4748 3.74467ZM39.5033 4.4414L40.945 5.82762L40.945 5.82761L39.5033 4.4414ZM34.0789 10.0827L32.6373 8.69652L34.0789 10.0827ZM34.0789 12.9661L32.6373 14.3523L34.0789 12.9661ZM34.1626 13.053L35.6042 11.6668L34.1626 13.053ZM36.935 13.053L38.3767 14.4393L38.3767 14.4393L36.935 13.053ZM42.3594 7.41169L43.801 8.79791V8.79791L42.3594 7.41169ZM43.0421 7.43614L44.7812 6.44843V6.44843L43.0421 7.43614ZM27.7493 33.0246L26.3076 34.4108H26.3076L27.7493 33.0246ZM39.306 45.0436L37.8643 46.4298L37.8643 46.4298L39.306 45.0436ZM43.5606 45.0436L42.1189 43.6574L42.1189 43.6574L43.5606 45.0436ZM43.5606 40.6188L42.1189 42.005L42.1189 42.0051L43.5606 40.6188ZM32.0039 28.5998L30.5622 29.986L30.5622 29.986L32.0039 28.5998ZM33.3901 27.1582L34.8318 25.7719L34.8318 25.7719L33.3901 27.1582ZM44.9468 39.1772L43.5052 40.5634V40.5634L44.9468 39.1772ZM44.9468 46.4853L43.5052 45.0991V45.0991L44.9468 46.4853ZM37.9198 46.4853L36.4781 47.8715V47.8715L37.9198 46.4853ZM26.3631 34.4663L24.9214 35.8525H24.9214L26.3631 34.4663ZM2.95864 4.83012C2.95049 4.81548 2.94439 4.79265 2.94859 4.76412C2.95056 4.75073 2.95429 4.74063 2.95748 4.73435C2.96035 4.72869 2.96244 4.72665 2.96308 4.72604L0.202523 1.83133C-1.14568 3.11705 -1.43322 5.16499 -0.536093 6.77611L2.95864 4.83012ZM6.51878 11.2236L2.95864 4.83012L-0.536093 6.77611L3.02405 13.1696L6.51878 11.2236ZM6.46788 11.2137C6.49054 11.2137 6.50818 11.2205 6.5172 11.2259C6.52583 11.2311 6.5241 11.2332 6.51878 11.2237L3.02405 13.1696C3.71438 14.4094 5.01603 15.2137 6.46788 15.2137V11.2137ZM8.47077 11.2137H6.46788V15.2137H8.47077V11.2137ZM17.3815 19.5953L9.91244 11.8275L7.0291 14.5999L14.4981 22.3677L17.3815 19.5953ZM15.8843 19.5953C16.2885 19.175 16.9774 19.175 17.3815 19.5953L14.4981 22.3677C15.6678 23.5842 17.598 23.5842 18.7677 22.3677L15.8843 19.5953ZM15.8843 20.9261C15.5227 20.55 15.5227 19.9714 15.8843 19.5953L18.7677 22.3677C19.8949 21.1954 19.8949 19.326 18.7677 18.1536L15.8843 20.9261ZM8.41532 13.1583L15.8843 20.9261L18.7677 18.1536L11.2987 10.3858L8.41532 13.1583ZM8.47077 13.1749C8.45432 13.1749 8.44003 13.1714 8.42972 13.1669C8.41953 13.1625 8.41525 13.1582 8.41532 13.1583L11.2987 10.3858C10.5625 9.62027 9.54701 9.1749 8.47077 9.1749V13.1749ZM6.46788 13.1749H8.47077V9.1749H6.46788V13.1749ZM1.16038 5.75437L4.72052 12.1479L8.21524 10.2019L4.65511 3.80838L1.16038 5.75437ZM3.36901 1.57782L1.52746 3.33402L4.28802 6.22873L6.12957 4.47252L3.36901 1.57782ZM11.8636 5.56226L5.89592 1.3865L3.60266 4.66384L9.57036 8.83961L11.8636 5.56226ZM12.717 8.83884V7.20094H8.71699V8.83884H12.717ZM12.7328 8.89429C12.7325 8.89397 12.7284 8.88952 12.7243 8.87903C12.7201 8.86851 12.717 8.85475 12.717 8.83884L8.71699 8.83884C8.71699 9.88524 9.11595 10.9038 9.84951 11.6667L12.7328 8.89429ZM20.2019 16.6621L12.7328 8.89429L9.84951 11.6667L17.3185 19.4345L20.2019 16.6621ZM18.7048 16.6621C19.1089 16.2418 19.7978 16.2418 20.2019 16.6621L17.3185 19.4345C18.4882 20.651 20.4184 20.651 21.5881 19.4345L18.7048 16.6621ZM18.7048 17.9928C18.3431 17.6167 18.3431 17.0382 18.7048 16.6621L21.5881 19.4345C22.7153 18.2622 22.7153 16.3927 21.5881 15.2204L18.7048 17.9928ZM11.2357 10.2251L18.7048 17.9928L21.5881 15.2204L14.1191 7.45262L11.2357 10.2251ZM10.6774 7.20093L10.6774 8.83884L14.6774 8.83884L14.6774 7.20094L10.6774 7.20093ZM10.6647 7.14802C10.6589 7.14398 10.6619 7.14386 10.6671 7.15416C10.6725 7.16458 10.6774 7.1806 10.6774 7.20094L14.6774 7.20093C14.6774 5.89058 14.0512 4.63563 12.958 3.87068L10.6647 7.14802ZM4.69702 2.97225L10.6647 7.14802L12.958 3.87068L6.99027 -0.305091L4.69702 2.97225ZM4.80463 2.96983C4.805 2.96948 4.80048 2.97365 4.79077 2.97796C4.7816 2.98204 4.77052 2.98504 4.75821 2.986C4.74588 2.98696 4.73314 2.98581 4.72099 2.98253C4.70823 2.97908 4.69995 2.97431 4.69702 2.97225L6.99027 -0.305091C5.45169 -1.38168 3.39511 -1.2133 2.04407 0.0751244L4.80463 2.96983ZM2.96308 4.72604L4.80463 2.96983L2.04407 0.0751243L0.202523 1.83133L2.96308 4.72604ZM34.4593 25.0566C41.1384 25.0566 46.4203 19.4484 46.4203 12.6971H42.4203C42.4203 17.3886 38.7829 21.0566 34.4593 21.0566V25.0566ZM30.1945 24.2474C31.5208 24.7704 32.9596 25.0566 34.4593 25.0566V21.0566C33.4723 21.0566 32.5307 20.8689 31.662 20.5263L30.1945 24.2474ZM9.79377 47.2522L32.3699 23.773L29.4866 21.0006L6.91044 44.4798L9.79377 47.2522ZM1.26962 47.2522C3.6142 49.6906 7.44921 49.6906 9.79377 47.2522L6.91044 44.4798C6.13967 45.2814 4.92372 45.2814 4.15296 44.4798L1.26962 47.2522ZM1.26963 38.6133C-1.03249 41.0075 -1.03249 44.858 1.26963 47.2522L4.15296 44.4798C3.33974 43.634 3.33973 42.2315 4.15296 41.3858L1.26963 38.6133ZM23.7824 15.2001L1.26963 38.6133L4.15296 41.3858L26.6657 17.9725L23.7824 15.2001ZM22.4983 12.6971C22.4983 14.3239 22.8034 15.8828 23.3606 17.3125L27.0875 15.86C26.7087 14.888 26.4983 13.8213 26.4983 12.6971H22.4983ZM34.4593 0.337626C27.7802 0.337626 22.4983 5.94581 22.4983 12.6971H26.4983C26.4983 8.00563 30.1358 4.33763 34.4593 4.33763V0.337626ZM40.5129 2.03519C38.739 0.957931 36.668 0.337626 34.4593 0.337626V4.33763C35.9083 4.33763 37.2646 4.74241 38.4367 5.45416L40.5129 2.03519ZM40.945 5.82761C41.4108 5.34317 41.6577 4.69655 41.6503 4.04894C41.6424 3.37194 41.3358 2.53487 40.5129 2.03519L38.4367 5.45416C37.8514 5.09874 37.6553 4.50987 37.6505 4.09507C37.6461 3.70968 37.7885 3.33928 38.0616 3.05519L40.945 5.82761ZM35.5206 11.469L40.945 5.82762L38.0616 3.05518L32.6373 8.69652L35.5206 11.469ZM35.5206 11.5799C35.5179 11.577 35.5048 11.5617 35.5048 11.5244C35.5048 11.4871 35.5179 11.4718 35.5206 11.469L32.6373 8.69652C31.1273 10.267 31.1273 12.7819 32.6373 14.3523L35.5206 11.5799ZM35.6042 11.6668L35.5206 11.5799L32.6373 14.3523L32.7209 14.4392L35.6042 11.6668ZM35.4933 11.6668C35.4908 11.6695 35.4959 11.6637 35.5093 11.6581C35.5214 11.653 35.535 11.6502 35.5488 11.6502C35.5626 11.6502 35.5761 11.653 35.5883 11.6581C35.6016 11.6637 35.6068 11.6695 35.6042 11.6668L32.7209 14.4392C34.2734 16.0538 36.8242 16.0538 38.3767 14.4393L35.4933 11.6668ZM40.9177 6.02548L35.4933 11.6668L38.3767 14.4393L43.801 8.79791L40.9177 6.02548ZM44.7812 6.44843C44.2906 5.58459 43.4269 5.26461 42.7365 5.25939C42.0765 5.25439 41.407 5.51657 40.9177 6.02548L43.801 8.79791C43.503 9.10788 43.1068 9.2623 42.7062 9.25927C42.2753 9.25601 41.6573 9.04772 41.303 8.42385L44.7812 6.44843ZM46.4203 12.6971C46.4203 10.4245 45.825 8.28639 44.7812 6.44843L41.303 8.42385C42.0106 9.66979 42.4203 11.1286 42.4203 12.6971H46.4203ZM29.1909 31.6384C28.0212 30.4219 26.0911 30.4219 24.9214 31.6384L27.8047 34.4108C27.4006 34.8311 26.7117 34.8311 26.3076 34.4108L29.1909 31.6384ZM40.7477 43.6574L29.1909 31.6384L26.3076 34.4108L37.8643 46.4298L40.7477 43.6574ZM42.1189 43.6574C41.731 44.0609 41.1357 44.0609 40.7477 43.6574L37.8643 46.4298C39.8261 48.4701 43.0405 48.4701 45.0023 46.4298L42.1189 43.6574ZM42.1189 42.0051C42.5494 42.4527 42.5494 43.2097 42.1189 43.6574L45.0023 46.4298C46.9216 44.4337 46.9216 41.2287 45.0023 39.2326L42.1189 42.0051ZM30.5622 29.986L42.1189 42.005L45.0023 39.2326L33.4455 27.2136L30.5622 29.986ZM30.5622 25.7719C29.435 26.9443 29.435 28.8137 30.5622 29.986L33.4455 27.2136C33.8072 27.5897 33.8072 28.1683 33.4455 28.5444L30.5622 25.7719ZM34.8318 25.7719C33.6621 24.5555 31.7319 24.5555 30.5622 25.7719L33.4455 28.5444C33.0414 28.9647 32.3525 28.9646 31.9484 28.5444L34.8318 25.7719ZM46.3885 37.7909L34.8318 25.7719L31.9484 28.5444L43.5052 40.5634L46.3885 37.7909ZM46.3885 47.8715C49.0734 45.0792 49.0734 40.5832 46.3885 37.7909L43.5052 40.5634C44.7012 41.8072 44.7012 43.8552 43.5052 45.0991L46.3885 47.8715ZM36.4781 47.8715C39.2055 50.708 43.6611 50.708 46.3885 47.8715L43.5052 45.0991C42.3516 46.2988 40.515 46.2988 39.3615 45.0991L36.4781 47.8715ZM24.9214 35.8525L36.4781 47.8715L39.3615 45.0991L27.8047 33.0801L24.9214 35.8525ZM24.9214 31.6384C23.7942 32.8107 23.7942 34.6802 24.9214 35.8525L27.8047 33.0801C28.1664 33.4562 28.1664 34.0347 27.8047 34.4108L24.9214 31.6384Z" fill="url(#paint0_linear_21832_8801)" mask="url(#path-1-inside-1_21832_8801)"/>
<defs>
<linearGradient id="paint0_linear_21832_8801" x1="0.947266" y1="24.4926" x2="49.2217" y2="26.0044" gradientUnits="userSpaceOnUse">
<stop stop-color="#0091EF"/>
<stop offset="1" stop-color="#32D7D4"/>
</linearGradient>
</defs>
</svg>
