<svg width="48" height="49" viewBox="0 0 48 49" fill="none" xmlns="http://www.w3.org/2000/svg">
<path fill-rule="evenodd" clip-rule="evenodd" d="M24 0C24.5523 0 25 0.447715 25 1V8C25 8.55229 24.5523 9 24 9C23.4477 9 23 8.55229 23 8V1C23 0.447715 23.4477 0 24 0ZM13 24C13 17.9249 17.9249 13 24 13C30.0751 13 35 17.9249 35 24C35 26.5537 34.1311 28.9016 32.6721 30.7681C30.9205 33.009 29 35.7742 29 39.0089V40.0004C29 40.5527 28.5523 41.0004 28 41.0004H20C19.4477 41.0004 19 40.5527 19 40.0004V39.0089C19 35.7742 17.0795 33.009 15.3279 30.7681C13.8689 28.9016 13 26.5537 13 24ZM24 11C16.8203 11 11 16.8203 11 24C11 27.0157 12.0281 29.794 13.7522 31.9998C15.518 34.2588 17 36.5322 17 39.0089V40.0004C17 41.6572 18.3431 43.0004 20 43.0004H28C29.6569 43.0004 31 41.6572 31 40.0004V39.0089C31 36.5322 32.482 34.2588 34.2478 31.9998C35.9719 29.794 37 27.0157 37 24C37 16.8203 31.1797 11 24 11ZM18 47C17.4477 47 17 47.4477 17 48C17 48.5523 17.4477 49 18 49H30C30.5523 49 31 48.5523 31 48C31 47.4477 30.5523 47 30 47H18ZM0 26C0 25.4477 0.447715 25 1 25H8C8.55229 25 9 25.4477 9 26C9 26.5523 8.55229 27 8 27H1C0.447715 27 0 26.5523 0 26ZM40 25C39.4477 25 39 25.4477 39 26C39 26.5523 39.4477 27 40 27H47C47.5523 27 48 26.5523 48 26C48 25.4477 47.5523 25 47 25H40ZM6.12132 7.29289C5.7308 6.90237 5.09763 6.90237 4.70711 7.29289C4.31658 7.68342 4.31658 8.31658 4.70711 8.70711L9.65685 13.6569C10.0474 14.0474 10.6805 14.0474 11.0711 13.6569C11.4616 13.2663 11.4616 12.6332 11.0711 12.2426L6.12132 7.29289ZM42.6567 7.29289C42.2661 6.90237 41.633 6.90237 41.2425 7.29289L36.2927 12.2426C35.9022 12.6332 35.9022 13.2663 36.2927 13.6569C36.6832 14.0474 37.3164 14.0474 37.7069 13.6569L42.6567 8.70711C43.0472 8.31658 43.0472 7.68342 42.6567 7.29289ZM28.7372 21.6757C29.1103 21.2686 29.0828 20.636 28.6757 20.2628C28.2686 19.8897 27.636 19.9172 27.2628 20.3243L22.5 25.5201L20.7372 23.597C20.364 23.1899 19.7314 23.1624 19.3243 23.5356C18.9172 23.9088 18.8897 24.5413 19.2628 24.9485L21.7628 27.6757C21.9523 27.8824 22.2197 28 22.5 28C22.7803 28 23.0477 27.8824 23.2372 27.6757L28.7372 21.6757Z" fill="url(#paint0_linear_22611_12823)"/>
<defs>
<linearGradient id="paint0_linear_22611_12823" x1="-4.6799e-08" y1="24.5" x2="50.976" y2="26.1174" gradientUnits="userSpaceOnUse">
<stop stop-color="#0091EF"/>
<stop offset="1" stop-color="#32D7D4"/>
</linearGradient>
</defs>
</svg>
