<svg width="80" height="81" viewBox="0 0 80 81" fill="none" xmlns="http://www.w3.org/2000/svg">
<rect y="0.835938" width="80" height="80" rx="40" fill="#0979FD"/>
<path fill-rule="evenodd" clip-rule="evenodd" d="M31.6764 31.4325C31.3809 31.4581 31.0771 31.3525 30.8589 31.1191C30.4444 30.6756 29.9343 30.3324 29.3674 30.1156C28.8004 29.8987 28.1915 29.8139 27.5869 29.8675C26.9823 29.9211 26.3978 30.1118 25.8779 30.425C25.3579 30.7383 24.9162 31.1659 24.5862 31.6753C24.2562 32.1848 24.0467 32.7628 23.9734 33.3653C23.9059 33.9209 23.9559 34.4839 24.1195 35.018C24.1973 35.1602 24.2415 35.3235 24.2415 35.497C24.2415 36.0493 23.7938 36.497 23.2415 36.497C22.4491 36.497 21.6644 36.6531 20.9322 36.9564C20.2001 37.2596 19.5348 37.7041 18.9745 38.2645C18.4141 38.8248 17.9696 39.4901 17.6664 40.2222C17.3631 40.9543 17.207 41.739 17.207 42.5315C17.207 43.324 17.3631 44.1087 17.6664 44.8408C17.9696 45.5729 18.4141 46.2382 18.9745 46.7985C19.5348 47.3589 20.2001 47.8034 20.9322 48.1066C21.6644 48.4099 22.4491 48.566 23.2415 48.566H29.2415C32.8182 48.566 35.7558 45.8296 36.0749 42.3361H34.4822L37.0803 37.8361L39.6784 42.3361H38.0814C37.7572 46.9354 33.9234 50.566 29.2415 50.566H23.2415C22.1864 50.566 21.1416 50.3582 20.1669 49.9544C19.1921 49.5506 18.3063 48.9588 17.5603 48.2127C16.8142 47.4667 16.2224 46.581 15.8186 45.6062C15.4148 44.6314 15.207 43.5866 15.207 42.5315C15.207 41.4764 15.4148 40.4316 15.8186 39.4568C16.2224 38.4821 16.8142 37.5963 17.5603 36.8503C18.3063 36.1042 19.1921 35.5124 20.1669 35.1086C20.7539 34.8655 21.3663 34.6934 21.991 34.5949C21.9298 34.1082 21.9285 33.6141 21.988 33.124C22.098 32.2198 22.4124 31.3526 22.9076 30.5881C23.4027 29.8236 24.0656 29.182 24.8458 28.7119C25.6259 28.2419 26.503 27.9558 27.4102 27.8753C28.3175 27.7948 29.2312 27.9222 30.0819 28.2476C30.4815 28.4004 30.8623 28.5951 31.2182 28.8275C31.5918 27.9543 32.0961 27.1398 32.7161 26.4131C33.6473 25.3214 34.815 24.4562 36.1306 23.8833C37.4462 23.3103 38.875 23.0447 40.3085 23.1064C41.7421 23.1682 43.1428 23.5557 44.4042 24.2397C45.6656 24.9236 46.7546 25.886 47.5885 27.0537C48.1004 27.7704 48.5078 28.5529 48.8012 29.3776C49.1249 29.1762 49.4682 29.0055 49.8266 28.8684C50.6773 28.543 51.591 28.4156 52.4982 28.4961C53.4055 28.5766 54.2825 28.8627 55.0627 29.3327C55.8429 29.8028 56.5057 30.4444 57.0009 31.2089C57.4961 31.9734 57.8105 32.8406 57.9204 33.7448C57.9543 34.0232 57.9685 34.3029 57.9632 34.5818C58.5708 34.6798 59.1296 34.8599 59.73 35.1086C60.7048 35.5124 61.5905 36.1042 62.3365 36.8503C63.0826 37.5963 63.6744 38.4821 64.0782 39.4568C64.482 40.4316 64.6898 41.4764 64.6898 42.5315C64.6898 43.5866 64.482 44.6314 64.0782 45.6062C63.6744 46.581 63.0826 47.4667 62.3365 48.2128C61.5905 48.9588 60.7048 49.5506 59.73 49.9544C58.7552 50.3582 57.7104 50.566 56.6553 50.566H48.8277C45.0724 50.566 41.9906 53.5951 41.834 57.3361H43.6784L41.0803 61.8361L38.4822 57.3361H39.8326C39.9901 52.5116 43.9465 48.566 48.8277 48.566H56.6553C57.4478 48.566 58.2325 48.4099 58.9646 48.1066C59.6967 47.8034 60.362 47.3589 60.9223 46.7985C61.4827 46.2382 61.9272 45.5729 62.2304 44.8408C62.5337 44.1087 62.6898 43.324 62.6898 42.5315C62.6898 41.7391 62.5337 40.9544 62.2304 40.2222C61.9272 39.4901 61.4827 38.8248 60.9223 38.2645C60.362 37.7041 59.6967 37.2596 58.9646 36.9564C58.2062 36.6422 57.6333 36.4995 56.882 36.4971C56.8061 36.4989 56.7288 36.492 56.6512 36.4757C56.1108 36.362 55.7649 35.8316 55.8786 35.2912C55.9686 34.8633 55.9881 34.4224 55.9351 33.9861C55.8618 33.3836 55.6522 32.8056 55.3222 32.2961C54.9923 31.7867 54.5505 31.3591 54.0306 31.0458C53.5107 30.7326 52.9262 30.5419 52.3216 30.4883C51.7169 30.4347 51.108 30.5195 50.5411 30.7364C49.9742 30.9532 49.4641 31.2964 49.0496 31.7399C49.0264 31.7647 49.0022 31.7881 48.9771 31.8101C48.831 31.9742 48.63 32.0914 48.3964 32.1306C47.8517 32.2221 47.336 31.8547 47.2446 31.3101C47.0573 30.1946 46.6183 29.1365 45.961 28.216C45.3036 27.2956 44.4452 26.537 43.4509 25.9979C42.4566 25.4587 41.3525 25.1532 40.2225 25.1046C39.0924 25.0559 37.9662 25.2653 36.9292 25.7169C35.8922 26.1686 34.9717 26.8505 34.2377 27.711C33.5036 28.5716 32.9753 29.588 32.6927 30.6832C32.5722 31.1506 32.1403 31.4553 31.6764 31.4325Z" fill="#F3F9FF"/>
</svg>
