<svg width="80" height="81" viewBox="0 0 80 81" fill="none" xmlns="http://www.w3.org/2000/svg">
<path d="M0 40.8359C0 18.7445 17.9086 0.835938 40 0.835938C62.0914 0.835938 80 18.7445 80 40.8359C80 62.9273 62.0914 80.8359 40 80.8359C17.9086 80.8359 0 62.9273 0 40.8359Z" fill="#F3F9FF"/>
<g clip-path="url(#clip0_22786_15729)">
<path fill-rule="evenodd" clip-rule="evenodd" d="M20.0801 27.8359H60.0801C61.1846 27.8359 62.0801 28.7314 62.0801 29.8359V52.8359C62.0801 53.9405 61.1846 54.8359 60.0801 54.8359H20.0801C18.9755 54.8359 18.0801 53.9405 18.0801 52.8359V29.8359C18.0801 28.7314 18.9755 27.8359 20.0801 27.8359ZM16.0801 29.8359C16.0801 27.6268 17.8709 25.8359 20.0801 25.8359H60.0801C62.2892 25.8359 64.0801 27.6268 64.0801 29.8359V52.8359C64.0801 55.0451 62.2892 56.8359 60.0801 56.8359H20.0801C17.8709 56.8359 16.0801 55.0451 16.0801 52.8359V29.8359ZM35 58.8359C34.4477 58.8359 34 59.2837 34 59.8359C34 60.3882 34.4477 60.8359 35 60.8359H45C45.5523 60.8359 46 60.3882 46 59.8359C46 59.2837 45.5523 58.8359 45 58.8359H35Z" fill="#0979FD"/>
<path d="M39.9993 45.1686C41.8403 45.1686 43.3327 43.6762 43.3327 41.8353C43.3327 39.9943 41.8403 38.502 39.9993 38.502C38.1584 38.502 36.666 39.9943 36.666 41.8353C36.666 43.6762 38.1584 45.1686 39.9993 45.1686Z" stroke="#0979FD" stroke-width="2" stroke-linecap="round" stroke-linejoin="round"/>
<path d="M45.9179 38.3582L46.7838 37.8581L46.7838 37.8581L45.9179 38.3582ZM45.9727 38.4531L45.1067 38.9533L45.1067 38.9533L45.9727 38.4531ZM46.6056 39.0759L47.0918 38.2021L47.0918 38.2021L46.6056 39.0759ZM47.8982 39.795L47.4121 40.6689L47.4121 40.6689L47.8982 39.795ZM48.3264 40.5214L47.3264 40.5236V40.5236L48.3264 40.5214ZM48.3324 43.1479L47.3324 43.1502V43.1502L48.3324 43.1479ZM47.903 43.8787L47.4183 43.004L47.4183 43.004L47.903 43.8787ZM46.6073 44.5967L47.092 45.4714L46.6073 44.5967ZM45.9719 45.2209L45.106 44.7207L45.106 44.7207L45.9719 45.2209ZM45.9179 45.3145L46.7838 45.8147L46.7838 45.8147L45.9179 45.3145ZM45.6946 46.1762L44.6948 46.193V46.193L45.6946 46.1762ZM45.7196 47.6603L44.7197 47.6771L45.7196 47.6603ZM45.3047 48.395L44.8027 47.5301L44.8027 47.5301L45.3047 48.395ZM43.0314 49.7144L43.5333 50.5793H43.5333L43.0314 49.7144ZM42.1841 49.7082L42.6988 48.8508H42.6988L42.1841 49.7082ZM40.9124 48.9447L40.3977 49.802L40.9124 48.9447ZM39.0886 48.9437L39.6023 49.8016H39.6023L39.0886 48.9437ZM37.8227 49.7017L37.309 48.8437L37.309 48.8437L37.8227 49.7017ZM36.9785 49.7087L37.4778 48.8423L36.9785 49.7087ZM34.698 48.3946L35.1973 47.5281L34.698 48.3946ZM34.2808 47.6585L35.2807 47.6754V47.6754L34.2808 47.6585ZM34.3058 46.1809L33.3059 46.164L34.3058 46.1809ZM34.0858 45.3248L34.9537 44.828H34.9537L34.0858 45.3248ZM34.0279 45.2236L33.16 45.7203L33.16 45.7203L34.0279 45.2236ZM33.3917 44.5951L32.9055 45.4689L33.3917 44.5951ZM32.1021 43.8777L31.616 44.7516H31.616L32.1021 43.8777ZM31.6739 43.1514L30.6739 43.1536L31.6739 43.1514ZM31.668 40.5248L32.668 40.5226L31.668 40.5248ZM32.0974 39.794L32.5821 40.6687H32.5821L32.0974 39.794ZM33.3931 39.076L32.9084 38.2013H32.9084L33.3931 39.076ZM34.0284 38.4519L33.1625 37.9517L33.1625 37.9517L34.0284 38.4519ZM34.0825 38.3582L34.9484 38.8584L34.9484 38.8584L34.0825 38.3582ZM34.3058 37.4966L35.3056 37.4797L34.3058 37.4966ZM34.2808 36.0125L33.2809 36.0293L34.2808 36.0125ZM34.6957 35.2777L35.1977 36.1426H35.1977L34.6957 35.2777ZM36.969 33.9583L37.471 34.8232L37.471 34.8232L36.969 33.9583ZM37.8163 33.9646L37.3015 34.8219V34.8219L37.8163 33.9646ZM39.088 34.728L38.5733 35.5854V35.5854L39.088 34.728ZM40.9118 34.729L40.3981 33.8711L40.3981 33.8711L40.9118 34.729ZM42.1777 33.9711L41.664 33.1131V33.1131L42.1777 33.9711ZM43.0219 33.964L43.5211 33.0975V33.0975L43.0219 33.964ZM45.3024 35.2782L45.8017 34.4117V34.4117L45.3024 35.2782ZM45.7196 36.0142L44.7197 35.9974V35.9974L45.7196 36.0142ZM45.6946 37.4966L44.6948 37.4797V37.4797L45.6946 37.4966ZM45.0519 38.8584L45.1067 38.9533L46.8386 37.9529L46.7838 37.8581L45.0519 38.8584ZM46.1195 39.9498L47.4121 40.6689L48.3844 38.9211L47.0918 38.2021L46.1195 39.9498ZM47.3264 40.5236L47.3324 43.1502L49.3324 43.1456L49.3264 40.5191L47.3264 40.5236ZM47.4183 43.004L46.1225 43.7221L47.092 45.4714L48.3877 44.7533L47.4183 43.004ZM45.106 44.7207L45.0519 44.8143L46.7838 45.8147L46.8378 45.721L45.106 44.7207ZM44.6948 46.193L44.7197 47.6771L46.7194 47.6434L46.6945 46.1593L44.6948 46.193ZM44.8027 47.5301L42.5294 48.8495L43.5333 50.5793L45.8067 49.2599L44.8027 47.5301ZM42.6988 48.8508L41.4271 48.0873L40.3977 49.802L41.6694 50.5655L42.6988 48.8508ZM40.0545 47.7069H39.9448V49.7069H40.0545V47.7069ZM38.5749 48.0857L37.309 48.8437L38.3364 50.5596L39.6023 49.8016L38.5749 48.0857ZM37.4778 48.8423L35.1973 47.5281L34.1987 49.261L36.4792 50.5752L37.4778 48.8423ZM35.2807 47.6754L35.3056 46.1978L33.3059 46.164L33.281 47.6416L35.2807 47.6754ZM34.9537 44.828L34.8958 44.7268L33.16 45.7203L33.2179 45.8216L34.9537 44.828ZM33.8778 43.7212L32.5883 43.0038L31.616 44.7516L32.9055 45.4689L33.8778 43.7212ZM32.6739 43.1491L32.668 40.5226L30.668 40.5271L30.6739 43.1536L32.6739 43.1491ZM32.5821 40.6687L33.8778 39.9507L32.9084 38.2013L31.6127 38.9194L32.5821 40.6687ZM34.8944 38.9521L34.9484 38.8584L33.2166 37.8581L33.1625 37.9517L34.8944 38.9521ZM35.3056 37.4797L35.2806 35.9956L33.2809 36.0293L33.3059 37.5134L35.3056 37.4797ZM35.1977 36.1426L37.471 34.8232L36.467 33.0934L34.1937 34.4128L35.1977 36.1426ZM37.3015 34.8219L38.5733 35.5854L39.6027 33.8707L38.331 33.1072L37.3015 34.8219ZM39.9458 35.9658H40.0556V33.9658H39.9458V35.9658ZM41.4255 35.587L42.6914 34.829L41.664 33.1131L40.3981 33.8711L41.4255 35.587ZM42.5226 34.8304L44.8031 36.1446L45.8017 34.4117L43.5211 33.0975L42.5226 34.8304ZM44.7197 35.9974L44.6948 37.4797L46.6945 37.5134L46.7194 36.031L44.7197 35.9974ZM44.8031 36.1446C44.7506 36.1143 44.7187 36.058 44.7197 35.9974L46.7194 36.031C46.7306 35.3646 46.3792 34.7445 45.8017 34.4117L44.8031 36.1446ZM42.6914 34.829C42.6395 34.8601 42.5749 34.8606 42.5226 34.8304L43.5211 33.0975C42.9451 32.7656 42.2344 32.7715 41.664 33.1131L42.6914 34.829ZM40.0556 35.9658C40.5381 35.9658 41.0115 35.8349 41.4255 35.587L40.3981 33.8711C40.2946 33.933 40.1762 33.9658 40.0556 33.9658V35.9658ZM38.5733 35.5854C38.9878 35.8343 39.4623 35.9658 39.9458 35.9658V33.9658C39.8249 33.9658 39.7063 33.9329 39.6027 33.8707L38.5733 35.5854ZM37.471 34.8232C37.4185 34.8537 37.3536 34.8532 37.3015 34.8219L38.331 33.1072C37.7585 32.7635 37.0445 32.7583 36.467 33.0934L37.471 34.8232ZM35.2806 35.9956C35.2817 36.056 35.2499 36.1123 35.1977 36.1426L34.1937 34.4128C33.619 34.7464 33.2697 35.3649 33.2809 36.0293L35.2806 35.9956ZM34.9484 38.8584C35.1903 38.4398 35.3137 37.9632 35.3056 37.4797L33.3059 37.5134C33.3079 37.6342 33.2771 37.7534 33.2166 37.8581L34.9484 38.8584ZM33.8778 39.9507C34.301 39.7162 34.6524 39.371 34.8944 38.9521L33.1625 37.9517C33.102 38.0564 33.0142 38.1427 32.9084 38.2013L33.8778 39.9507ZM32.668 40.5226C32.6681 40.5833 32.6352 40.6393 32.5821 40.6687L31.6127 38.9194C31.0284 39.2432 30.6665 39.8591 30.668 40.5271L32.668 40.5226ZM32.5883 43.0038C32.641 43.0332 32.6738 43.0887 32.6739 43.1491L30.6739 43.1536C30.6754 43.8176 31.0358 44.4288 31.616 44.7516L32.5883 43.0038ZM34.8958 44.7268C34.6544 44.3051 34.3024 43.9574 33.8778 43.7212L32.9055 45.4689C33.0117 45.528 33.0997 45.6149 33.16 45.7203L34.8958 44.7268ZM35.3056 46.1978C35.3137 45.7178 35.1922 45.2446 34.9537 44.828L33.2179 45.8216C33.2776 45.9257 33.308 46.044 33.3059 46.164L35.3056 46.1978ZM35.1973 47.5281C35.2498 47.5584 35.2817 47.6148 35.2807 47.6754L33.281 47.6416C33.2697 48.3081 33.6211 48.9282 34.1987 49.261L35.1973 47.5281ZM37.309 48.8437C37.3608 48.8127 37.4254 48.8121 37.4778 48.8423L36.4792 50.5752C37.0553 50.9071 37.766 50.9012 38.3364 50.5596L37.309 48.8437ZM39.9448 47.7069C39.4623 47.7069 38.9888 47.8379 38.5749 48.0857L39.6023 49.8016C39.7058 49.7397 39.8242 49.7069 39.9448 49.7069V47.7069ZM41.4271 48.0873C41.0125 47.8384 40.5381 47.7069 40.0545 47.7069V49.7069C40.1754 49.7069 40.294 49.7398 40.3977 49.802L41.4271 48.0873ZM42.5294 48.8495C42.5819 48.8191 42.6468 48.8195 42.6988 48.8508L41.6694 50.5655C42.2418 50.9092 42.9559 50.9145 43.5333 50.5793L42.5294 48.8495ZM44.7197 47.6771C44.7187 47.6167 44.7505 47.5605 44.8027 47.5301L45.8066 49.2599C46.3814 48.9263 46.7306 48.3079 46.7194 47.6434L44.7197 47.6771ZM45.0519 44.8143C44.8101 45.233 44.6866 45.7095 44.6948 46.193L46.6945 46.1593C46.6924 46.0385 46.7233 45.9193 46.7838 45.8147L45.0519 44.8143ZM46.1225 43.7221C45.6994 43.9566 45.348 44.3018 45.106 44.7207L46.8378 45.7211C46.8983 45.6163 46.9862 45.53 47.092 45.4714L46.1225 43.7221ZM47.3324 43.1502C47.3323 43.0894 47.3652 43.0334 47.4183 43.004L48.3877 44.7533C48.972 44.4296 49.3339 43.8136 49.3324 43.1456L47.3324 43.1502ZM47.4121 40.6689C47.3593 40.6396 47.3266 40.584 47.3264 40.5236L49.3264 40.5191C49.3249 39.8552 48.9646 39.2439 48.3844 38.9211L47.4121 40.6689ZM45.1067 38.9533C45.348 39.371 45.698 39.7153 46.1195 39.9498L47.0918 38.2021C46.9864 38.1434 46.8989 38.0573 46.8386 37.9529L45.1067 38.9533ZM46.7838 37.8581C46.7233 37.7534 46.6924 37.6342 46.6945 37.5134L44.6948 37.4797C44.6866 37.9632 44.8101 38.4398 45.0519 38.8584L46.7838 37.8581Z" fill="#0979FD"/>
</g>
<defs>
<clipPath id="clip0_22786_15729">
<rect width="48" height="48" fill="white" transform="translate(16 16.8359)"/>
</clipPath>
</defs>
</svg>
