<svg width="41" height="40" viewBox="0 0 41 40" fill="none" xmlns="http://www.w3.org/2000/svg">
<rect x="0.5" width="40" height="40" rx="20" fill="#FFF2EE"/>
<path fill-rule="evenodd" clip-rule="evenodd" d="M22.3998 13.3994C22.6927 13.1065 23.1676 13.1065 23.4605 13.3994L29.5305 19.4694C29.6712 19.61 29.7502 19.8008 29.7502 19.9997C29.7502 20.1986 29.6712 20.3894 29.5305 20.53L23.4605 26.6C23.1676 26.8929 22.6927 26.8929 22.3998 26.6C22.107 26.3071 22.107 25.8322 22.3998 25.5394L27.9395 19.9997L22.3998 14.46C22.107 14.1671 22.107 13.6923 22.3998 13.3994Z" fill="#CB6846"/>
<path fill-rule="evenodd" clip-rule="evenodd" d="M11.25 20C11.25 19.5858 11.5858 19.25 12 19.25H28.83C29.2442 19.25 29.58 19.5858 29.58 20C29.58 20.4142 29.2442 20.75 28.83 20.75H12C11.5858 20.75 11.25 20.4142 11.25 20Z" fill="#CB6846"/>
</svg>