<svg width="25" height="24" viewBox="0 0 25 24" fill="none" xmlns="http://www.w3.org/2000/svg">
<path d="M16.0343 11.7071C16.4248 11.3166 16.4248 10.6834 16.0343 10.2929C15.6437 9.90237 15.0106 9.90237 14.62 10.2929L16.0343 11.7071ZM12.3271 14L11.62 14.7071C11.8076 14.8946 12.0619 15 12.3271 15C12.5924 15 12.8467 14.8946 13.0343 14.7071L12.3271 14ZM10.0343 10.2929C9.64373 9.90237 9.01057 9.90237 8.62004 10.2929C8.22952 10.6834 8.22952 11.3166 8.62004 11.7071L10.0343 10.2929ZM14.62 10.2929L11.62 13.2929L13.0343 14.7071L16.0343 11.7071L14.62 10.2929ZM13.0343 13.2929L10.0343 10.2929L8.62004 11.7071L11.62 14.7071L13.0343 13.2929Z" fill="#14181F"/>
</svg>
