<svg width="42" height="42" viewBox="0 0 42 42" fill="none" xmlns="http://www.w3.org/2000/svg">
<path opacity="0.25" fill-rule="evenodd" clip-rule="evenodd" d="M0.5 20.75C0.5 9.29009 9.79009 0 21.25 0C32.7099 0 42 9.29009 42 20.75C42 32.2099 32.7099 41.5 21.25 41.5C9.79009 41.5 0.5 32.2099 0.5 20.75ZM21.25 1.5C10.6185 1.5 2 10.1185 2 20.75C2 31.3815 10.6185 40 21.25 40C31.8815 40 40.5 31.3815 40.5 20.75C40.5 10.1185 31.8815 1.5 21.25 1.5Z" fill="#1A7DD8"/>
<path d="M23.0708 15.6306H24.9089C25.0781 15.6306 25.2153 15.5013 25.2153 15.342V13.6099C25.2153 13.4505 25.0781 13.3212 24.9089 13.3212H23.0708C21.213 13.3212 19.7009 14.7455 19.7009 16.4967V18.5175H17.5564C17.3872 18.5175 17.25 18.6468 17.25 18.8062V20.5383C17.25 20.6976 17.3872 20.8269 17.5564 20.8269H19.7009V26.8893C19.7009 27.0486 19.8381 27.178 20.0072 27.178H21.8454C22.0145 27.178 22.1517 27.0486 22.1517 26.8893V20.8269H24.2962C24.428 20.8269 24.545 20.7473 24.5873 20.6295L25.2 18.8974C25.2312 18.8096 25.2153 18.7126 25.1577 18.637C25.0995 18.5619 25.0076 18.5175 24.9089 18.5175H22.1517V16.4967C22.1517 16.0192 22.5641 15.6306 23.0708 15.6306Z" fill="#1A7DD8"/>
</svg>
