<svg width="42" height="42" viewBox="0 0 42 42" fill="none" xmlns="http://www.w3.org/2000/svg">
<path opacity="0.25" fill-rule="evenodd" clip-rule="evenodd" d="M0 20.75C0 9.29009 9.29009 0 20.75 0C32.2099 0 41.5 9.29009 41.5 20.75C41.5 32.2099 32.2099 41.5 20.75 41.5C9.29009 41.5 0 32.2099 0 20.75ZM20.75 1.5C10.1185 1.5 1.5 10.1185 1.5 20.75C1.5 31.3815 10.1185 40 20.75 40C31.3815 40 40 31.3815 40 20.75C40 10.1185 31.3815 1.5 20.75 1.5Z" fill="#1A7DD8"/>
<path d="M16.1594 16.7124C17.0957 16.7124 17.8548 15.9533 17.8548 15.0169C17.8548 14.0805 17.0957 13.3214 16.1594 13.3214C15.223 13.3214 14.4639 14.0805 14.4639 15.0169C14.4639 15.9533 15.223 16.7124 16.1594 16.7124Z" fill="#1A7DD8"/>
<path d="M17.5723 17.8447H14.7464C14.5905 17.8447 14.4639 17.9713 14.4639 18.1273V26.6047C14.4639 26.7607 14.5905 26.8873 14.7464 26.8873H17.5723C17.7282 26.8873 17.8548 26.7607 17.8548 26.6047V18.1273C17.8548 17.9713 17.7282 17.8447 17.5723 17.8447Z" fill="#1A7DD8"/>
<path d="M25.9926 17.3747C24.7849 16.961 23.2742 17.3244 22.3683 17.976C22.3372 17.8545 22.2264 17.764 22.0947 17.764H19.2689C19.1129 17.764 18.9863 17.8906 18.9863 18.0466V26.5241C18.9863 26.68 19.1129 26.8066 19.2689 26.8066H22.0947C22.2507 26.8066 22.3773 26.68 22.3773 26.5241V20.4316C22.834 20.0383 23.4223 19.9128 23.9038 20.1174C24.3706 20.3146 24.6379 20.7961 24.6379 21.4376V26.5241C24.6379 26.68 24.7645 26.8066 24.9205 26.8066H27.7463C27.9023 26.8066 28.0289 26.68 28.0289 26.5241V20.8685C27.9967 18.5462 26.9042 17.6866 25.9926 17.3747Z" fill="#1A7DD8"/>
</svg>
