<svg width="43" height="42" viewBox="0 0 43 42" fill="none" xmlns="http://www.w3.org/2000/svg">
<path opacity="0.25" fill-rule="evenodd" clip-rule="evenodd" d="M0.75 21C0.75 9.54009 10.0401 0.25 21.5 0.25C32.9599 0.25 42.25 9.54009 42.25 21C42.25 32.4599 32.9599 41.75 21.5 41.75C10.0401 41.75 0.75 32.4599 0.75 21ZM21.5 1.75C10.8685 1.75 2.25 10.3685 2.25 21C2.25 31.6315 10.8685 40.25 21.5 40.25C32.1315 40.25 40.75 31.6315 40.75 21C40.75 10.3685 32.1315 1.75 21.5 1.75Z" fill="#1A7DD8"/>
<g clip-path="url(#clip0)">
<path fill-rule="evenodd" clip-rule="evenodd" d="M29.1188 22.4804C29.0704 22.3632 29.0495 22.255 29.0748 22.125C29.2581 21.176 29.2646 20.2241 29.1145 19.2668C28.4518 15.0507 24.6588 12.0942 20.6283 12.6651C20.3923 12.6984 20.1967 12.6598 19.9845 12.5411C18.2811 11.5884 16.198 11.9158 14.8136 13.3411C13.4494 14.7444 13.1058 16.9372 13.9799 18.7232C14.0723 18.9114 14.1004 19.0808 14.0593 19.2903C13.9748 19.7182 13.9676 20.1568 13.9481 20.6135C13.9626 20.8683 13.9669 21.1443 13.9943 21.418C14.4505 25.988 18.4463 29.194 22.7973 28.481C22.9308 28.4591 23.042 28.4825 23.1604 28.5453C23.9825 28.9793 24.866 29.0851 25.7552 28.9369C28.6648 28.4507 30.2859 25.3181 29.1188 22.4804ZM25.3265 24.6111C24.8378 25.1933 24.2229 25.5661 23.5242 25.7771C22.2141 26.1718 20.8896 26.1854 19.5846 25.7741C18.3973 25.3998 17.521 24.6293 17.1724 23.3371C16.9248 22.4206 17.4892 21.7363 18.3604 21.8437C18.7372 21.8898 18.9848 22.1288 19.1609 22.4569C19.2714 22.6633 19.3637 22.8804 19.4634 23.0936C19.7867 23.7885 20.3078 24.1817 21.0484 24.2671C21.6547 24.3367 22.2408 24.2913 22.8016 24.0251C23.0189 23.9223 23.2109 23.7801 23.3675 23.5911C23.7869 23.0838 23.7111 22.3654 23.1965 21.9654C22.6992 21.5791 22.1022 21.4762 21.5212 21.3409C20.6897 21.1466 19.856 20.9628 19.0743 20.5976C18.2666 20.2203 17.6098 19.6721 17.3983 18.7149C17.1529 17.6041 17.4474 16.665 18.2962 15.9444C19.0447 15.3093 19.9455 15.1036 20.8781 15.0189C21.0939 14.9993 21.3126 15.0159 21.5298 15.0159C22.3909 14.9917 23.2297 15.1112 24.007 15.5263C24.6018 15.8446 25.0948 16.2779 25.3813 16.9289C25.5214 17.2472 25.5885 17.5875 25.4983 17.927C25.3886 18.3391 25.1208 18.6264 24.7144 18.7126C24.2907 18.8026 23.8973 18.7322 23.6303 18.3209C23.5032 18.1251 23.3812 17.9247 23.2665 17.7206C22.9027 17.0718 22.3844 16.7104 21.6482 16.7134C21.3119 16.7149 20.9777 16.7036 20.6485 16.7867C20.3533 16.8616 20.0826 16.9909 19.8582 17.2087C19.4583 17.5973 19.4735 18.1319 19.9 18.4873C20.1808 18.7217 20.5136 18.8517 20.8571 18.944C21.6634 19.1595 22.474 19.3598 23.2795 19.5799C23.7176 19.7001 24.137 19.88 24.5433 20.0933C26.4315 21.0853 26.2973 23.4527 25.3265 24.6111Z" fill="#1A7DD8"/>
</g>
<defs>
<clipPath id="clip0">
<rect width="16" height="17" fill="white" transform="translate(13.5 12)"/>
</clipPath>
</defs>
</svg>
