<svg width="22" height="22" viewBox="0 0 22 22" fill="none" xmlns="http://www.w3.org/2000/svg">
<g clip-path="url(#clip0_22949_7156)">
<path d="M20.6461 3.58203H2.2669C1.54224 3.58203 0.954102 4.17047 0.954102 4.89552V5.64289L11.4565 10.093L21.9589 5.64157V4.89552C21.9589 4.17047 21.3708 3.58203 20.6461 3.58203Z" fill="white"/>
<path d="M11.7125 11.4104C11.6311 11.4459 11.5432 11.4629 11.4565 11.4629C11.3699 11.4629 11.2819 11.4459 11.2005 11.4104L0.954102 7.06934V16.7169C0.954102 17.4419 1.54224 18.0304 2.2669 18.0304H20.6461C21.3708 18.0304 21.9589 17.4419 21.9589 16.7169V7.06934L11.7125 11.4104Z" fill="white"/>
</g>
<defs>
<clipPath id="clip0_22949_7156">
<rect width="21.0048" height="21.0157" fill="white" transform="translate(0.954102 0.298828)"/>
</clipPath>
</defs>
</svg>
