<svg width="48" height="50" viewBox="0 0 48 50" fill="none" xmlns="http://www.w3.org/2000/svg">
<path fill-rule="evenodd" clip-rule="evenodd" d="M38.029 0.449219H34.6458C32.989 0.449219 31.6458 1.79236 31.6458 3.44922V4.14081L22.7673 4.14081C20.1226 4.14081 17.5862 5.19143 15.7161 7.06153C13.846 8.93163 12.7954 11.468 12.7954 14.1128C12.7954 16.7575 13.846 19.2939 15.7161 21.164C17.5862 23.0341 20.1226 24.0847 22.7673 24.0847H28.2066H33.6458V22.0847H28.2066H22.7673C20.653 22.0847 18.6253 21.2448 17.1303 19.7498C15.6353 18.2548 14.7954 16.2271 14.7954 14.1128C14.7954 11.9985 15.6353 9.97078 17.1303 8.47574C18.6253 6.98071 20.653 6.14081 22.7673 6.14081L31.6458 6.14081V6.8324C31.6458 8.48925 32.989 9.8324 34.6458 9.8324H38.029C39.2715 9.8324 40.3375 9.07711 40.793 8.00063H44.001C44.5533 8.00063 45.001 7.55291 45.001 7.00063V3.00063C45.001 2.44834 44.5533 2.00063 44.001 2.00063H40.6567C40.1457 1.07565 39.1605 0.449219 38.029 0.449219ZM43.001 6.00063H41.029V4.00063H43.001V6.00063ZM33.6458 6.14081V6.8324C33.6458 7.38468 34.0935 7.8324 34.6458 7.8324H38.029C38.5813 7.8324 39.029 7.38468 39.029 6.8324V3.44922C39.029 2.89693 38.5813 2.44922 38.029 2.44922H34.6458C34.0935 2.44922 33.6458 2.89693 33.6458 3.44922V4.14081H33.647V6.14081H33.6458ZM13.9075 50.0006C18.5246 50.0006 22.3271 46.5131 22.8244 42.0287H33.647C36.2917 42.0287 38.8281 40.978 40.6982 39.1079C42.5683 37.2378 43.6189 34.7014 43.6189 32.0567C43.6189 29.412 42.5683 26.8756 40.6982 25.0055C38.8281 23.1353 36.2917 22.0847 33.647 22.0847V24.0847C35.7613 24.0847 37.789 24.9246 39.284 26.4197C40.779 27.9147 41.6189 29.9424 41.6189 32.0567C41.6189 34.171 40.779 36.1987 39.284 37.6937C37.789 39.1888 35.7613 40.0287 33.647 40.0287H22.8244C22.3271 35.5442 18.5246 32.0567 13.9075 32.0567C8.95243 32.0567 4.93555 36.0736 4.93555 41.0287C4.93555 45.9837 8.95243 50.0006 13.9075 50.0006ZM13.9075 48.0006C17.758 48.0006 20.8795 44.8792 20.8795 41.0287C20.8795 37.1782 17.758 34.0567 13.9075 34.0567C10.057 34.0567 6.93555 37.1782 6.93555 41.0287C6.93555 44.8792 10.057 48.0006 13.9075 48.0006ZM19.1006 38.8199C19.4911 38.4294 19.4911 37.7962 19.1006 37.4057C18.7101 37.0151 18.0769 37.0151 17.6864 37.4057L12.2253 42.8668L10.1286 40.7701C9.73811 40.3796 9.10495 40.3796 8.71442 40.7701C8.3239 41.1607 8.3239 41.7938 8.71442 42.1844L11.5182 44.9881C11.9087 45.3786 12.5418 45.3786 12.9324 44.9881L19.1006 38.8199Z" fill="url(#paint0_linear_21824_9170)"/>
<defs>
<linearGradient id="paint0_linear_21824_9170" x1="4.93555" y1="25.2249" x2="47.4987" y2="26.3396" gradientUnits="userSpaceOnUse">
<stop stop-color="#0091EF"/>
<stop offset="1" stop-color="#32D7D4"/>
</linearGradient>
</defs>
</svg>
