<svg width="80" height="81" viewBox="0 0 80 81" fill="none" xmlns="http://www.w3.org/2000/svg">
<path d="M0 40.8359C0 18.7445 17.9086 0.835938 40 0.835938C62.0914 0.835938 80 18.7445 80 40.8359C80 62.9273 62.0914 80.8359 40 80.8359C17.9086 80.8359 0 62.9273 0 40.8359Z" fill="#F3F9FF"/>
<path fill-rule="evenodd" clip-rule="evenodd" d="M20 27.8359H56H60C61.1046 27.8359 62 28.7314 62 29.8359V52.8359C62 53.9405 61.1046 54.8359 60 54.8359H20C18.8954 54.8359 18 53.9405 18 52.8359V29.8359C18 28.7314 18.8954 27.8359 20 27.8359ZM55 25.8359V12.8359C55 12.2837 55.4477 11.8359 56 11.8359C56.5523 11.8359 57 12.2837 57 12.8359V25.8359H60C62.2091 25.8359 64 27.6268 64 29.8359V52.8359C64 55.0451 62.2091 56.8359 60 56.8359H20C17.7909 56.8359 16 55.0451 16 52.8359V29.8359C16 27.6268 17.7909 25.8359 20 25.8359H55ZM30.5011 38.1277C33.0161 35.7956 36.2448 34.5159 39.5801 34.5159C42.9153 34.5159 46.144 35.7956 48.659 38.1277C49.0003 38.4441 49.5349 38.4256 49.8531 38.0863C50.1713 37.747 50.1527 37.2155 49.8114 36.8991C46.9925 34.2852 43.3551 32.8359 39.5801 32.8359C35.805 32.8359 32.1676 34.2852 29.3487 36.8991C29.0075 37.2155 28.9888 37.747 29.3071 38.0863C29.6253 38.4256 30.1599 38.4441 30.5011 38.1277ZM33.7506 41.5512C35.4042 40.1023 37.4802 39.315 39.6166 39.315C41.7531 39.315 43.8291 40.1023 45.4827 41.5512C45.8327 41.8579 46.3666 41.8244 46.6751 41.4763C46.9836 41.1283 46.9499 40.5975 46.5998 40.2908C44.6458 38.5787 42.1752 37.635 39.6166 37.635C37.058 37.635 34.5875 38.5787 32.6335 40.2908C32.2834 40.5975 32.2497 41.1283 32.5582 41.4763C32.8667 41.8244 33.4005 41.8579 33.7506 41.5512ZM36.9215 45.0099C37.7047 44.4246 38.6357 44.1141 39.5851 44.1141C40.5346 44.1141 41.4656 44.4246 42.2488 45.0099C42.6217 45.2887 43.1514 45.214 43.4317 44.8432C43.7121 44.4723 43.637 43.9457 43.264 43.667C42.1943 42.8675 40.9086 42.4341 39.5851 42.4341C38.2617 42.4341 36.976 42.8675 35.9063 43.667C35.5333 43.9457 35.4582 44.4723 35.7386 44.8432C36.0189 45.214 36.5485 45.2887 36.9215 45.0099ZM38.0111 48.0759C38.0111 47.2144 38.7136 46.5159 39.5801 46.5159C40.4466 46.5159 41.149 47.2144 41.149 48.0759C41.149 48.9375 40.4466 49.6359 39.5801 49.6359C38.7136 49.6359 38.0111 48.9375 38.0111 48.0759Z" fill="#0979FD"/>
</svg>
