<svg width="48" height="48" viewBox="0 0 48 48" fill="none" xmlns="http://www.w3.org/2000/svg">
<path d="M24 32C28.4183 32 32 28.4183 32 24C32 19.5817 28.4183 16 24 16C19.5817 16 16 19.5817 16 24C16 28.4183 19.5817 32 24 32Z" stroke="url(#paint0_linear_21771_8653)" stroke-width="2" stroke-linecap="round" stroke-linejoin="round"/>
<path d="M38.2036 15.6524L39.0696 15.1522L39.0695 15.1522L38.2036 15.6524ZM38.3352 15.8801L37.4693 16.3803L37.4693 16.3803L38.3352 15.8801ZM39.8543 17.3748L40.3404 16.5009V16.5009L39.8543 17.3748ZM42.9565 19.1006L42.4704 19.9745L42.9565 19.1006ZM43.9842 20.8439L42.9842 20.8461V20.8461L43.9842 20.8439ZM43.9985 27.1475L42.9986 27.1498L43.9985 27.1475ZM42.968 28.9014L42.4833 28.0267L42.968 28.9014ZM39.8582 30.6247L40.3429 31.4994L39.8582 30.6247ZM38.3334 32.1227L37.4675 31.6225L37.4675 31.6225L38.3334 32.1227ZM38.2036 32.3473L39.0695 32.8475L39.0696 32.8475L38.2036 32.3473ZM37.6679 34.4154L36.668 34.4322V34.4322L37.6679 34.4154ZM37.7278 37.9772L36.7279 37.994L37.7278 37.9772ZM36.732 39.7406L36.23 38.8757L36.23 38.8757L36.732 39.7406ZM31.276 42.9072L31.778 43.7721L31.276 42.9072ZM29.2427 42.8921L29.7574 42.0348H29.7574L29.2427 42.8921ZM26.1905 41.0598L25.6758 41.9172L26.1905 41.0598ZM21.8134 41.0574L22.3271 41.9154L21.8134 41.0574ZM18.7752 42.8766L18.2615 42.0186L18.7752 42.8766ZM16.7492 42.8935L17.2485 42.0271H17.2485L16.7492 42.8935ZM11.276 39.7396L11.7752 38.8731L11.276 39.7396ZM10.2748 37.9729L11.2747 37.9898L10.2748 37.9729ZM10.3347 34.4267L9.33482 34.4098L10.3347 34.4267ZM9.80677 32.3721L10.6747 31.8753L9.80677 32.3721ZM9.66772 32.1292L8.79984 32.6259L8.79984 32.6259L9.66772 32.1292ZM8.14078 30.6207L7.65463 31.4946L8.14078 30.6207ZM5.04594 28.899L4.55979 29.7729H4.55979L5.04594 28.899ZM4.01823 27.1558L3.01823 27.1581L4.01823 27.1558ZM4.00391 20.8522L5.00391 20.8499L4.00391 20.8522ZM5.03448 19.0983L5.51919 19.973H5.51919L5.03448 19.0983ZM8.14425 17.375L7.65953 16.5003H7.65953L8.14425 17.375ZM9.66904 15.877L8.80313 15.3768L8.80313 15.3768L9.66904 15.877ZM9.79882 15.6524L10.6647 16.1526L10.6647 16.1526L9.79882 15.6524ZM10.3346 13.5843L11.3345 13.5675L10.3346 13.5843ZM10.2747 10.0225L9.27481 10.0393L10.2747 10.0225ZM11.2704 8.25908L11.7724 9.12396L11.2704 8.25908ZM16.7264 5.0925L17.2284 5.95738V5.95738L16.7264 5.0925ZM18.7598 5.10754L18.2451 5.9649V5.9649L18.7598 5.10754ZM21.8119 6.93988L21.2972 7.79725L21.8119 6.93988ZM26.1891 6.94227L25.6753 6.08431V6.08431L26.1891 6.94227ZM29.2272 5.1231L28.7135 4.26514V4.26514L29.2272 5.1231ZM31.2532 5.10614L31.7525 4.2397V4.2397L31.2532 5.10614ZM36.7266 8.26015L37.2259 7.39371L36.7266 8.26015ZM37.7277 10.0267L36.7279 10.0098V10.0098L37.7277 10.0267ZM37.6679 13.5843L36.668 13.5675V13.5675L37.6679 13.5843ZM37.3377 16.1526L37.4693 16.3803L39.2011 15.3799L39.0696 15.1522L37.3377 16.1526ZM39.3681 18.2487L42.4704 19.9745L43.4427 18.2268L40.3404 16.5009L39.3681 18.2487ZM42.9842 20.8461L42.9986 27.1498L44.9985 27.1452L44.9842 20.8416L42.9842 20.8461ZM42.4833 28.0267L39.3735 29.7501L40.3429 31.4994L43.4527 29.7761L42.4833 28.0267ZM37.4675 31.6225L37.3377 31.8471L39.0696 32.8475L39.1993 32.6228L37.4675 31.6225ZM36.668 34.4322L36.7279 37.994L38.7276 37.9604L38.6677 34.3985L36.668 34.4322ZM36.23 38.8757L30.7741 42.0423L31.778 43.7721L37.234 40.6055L36.23 38.8757ZM29.7574 42.0348L26.7053 40.2024L25.6758 41.9172L28.728 43.7495L29.7574 42.0348ZM24.1317 39.4892H23.8683V41.4892H24.1317V39.4892ZM21.2997 40.1995L18.2615 42.0186L19.289 43.7345L22.3271 41.9154L21.2997 40.1995ZM17.2485 42.0271L11.7752 38.8731L10.7767 40.606L16.2499 43.76L17.2485 42.0271ZM11.2747 37.9898L11.3345 34.4436L9.33482 34.4098L9.27495 37.9561L11.2747 37.9898ZM10.6747 31.8753L10.5356 31.6324L8.79984 32.6259L8.93889 32.8688L10.6747 31.8753ZM8.62692 29.7468L5.53208 28.0252L4.55979 29.7729L7.65463 31.4946L8.62692 29.7468ZM5.01823 27.1536L5.00391 20.8499L3.00391 20.8545L3.01823 27.1581L5.01823 27.1536ZM5.51919 19.973L8.62896 18.2496L7.65953 16.5003L4.54976 18.2236L5.51919 19.973ZM10.535 16.3772L10.6647 16.1526L8.93291 15.1522L8.80313 15.3768L10.535 16.3772ZM11.3345 13.5675L11.2745 10.0057L9.27481 10.0393L9.33474 13.6011L11.3345 13.5675ZM11.7724 9.12396L17.2284 5.95738L16.2244 4.22761L10.7685 7.39419L11.7724 9.12396ZM18.2451 5.9649L21.2972 7.79725L22.3266 6.08252L19.2745 4.25018L18.2451 5.9649ZM23.8708 8.51044H24.1342V6.51044H23.8708V8.51044ZM26.7028 7.80023L29.7409 5.98106L28.7135 4.26514L25.6753 6.08431L26.7028 7.80023ZM30.754 5.97258L36.2273 9.12659L37.2259 7.39371L31.7525 4.2397L30.754 5.97258ZM36.7279 10.0098L36.668 13.5675L38.6677 13.6011L38.7276 10.0435L36.7279 10.0098ZM36.2273 9.12659C36.5423 9.30811 36.734 9.64632 36.7279 10.0098L38.7276 10.0435C38.7459 8.95291 38.1709 7.9383 37.2259 7.39371L36.2273 9.12659ZM29.7409 5.98106C30.0521 5.79475 30.4397 5.7915 30.754 5.97258L31.7525 4.2397C30.8099 3.69648 29.647 3.70622 28.7135 4.26514L29.7409 5.98106ZM24.1342 8.51044C25.0389 8.51044 25.9266 8.26498 26.7028 7.80023L25.6753 6.08431C25.2096 6.36317 24.677 6.51044 24.1342 6.51044V8.51044ZM21.2972 7.79725C22.0745 8.26391 22.9641 8.51044 23.8708 8.51044V6.51044C23.3268 6.51044 22.793 6.36252 22.3266 6.08252L21.2972 7.79725ZM17.2284 5.95738C17.5434 5.77457 17.9328 5.77745 18.2451 5.9649L19.2745 4.25018C18.3378 3.68782 17.1694 3.67917 16.2244 4.22761L17.2284 5.95738ZM11.2745 10.0057C11.2684 9.64326 11.4589 9.30591 11.7724 9.12396L10.7685 7.39419C9.828 7.94004 9.25652 8.95207 9.27481 10.0393L11.2745 10.0057ZM10.6647 16.1526C11.1182 15.3675 11.3497 14.474 11.3345 13.5675L9.33474 13.6011C9.34389 14.145 9.20499 14.6812 8.93291 15.1522L10.6647 16.1526ZM8.62896 18.2496C9.42238 17.8099 10.0812 17.1627 10.535 16.3772L8.80313 15.3768C8.5309 15.8481 8.13558 16.2365 7.65953 16.5003L8.62896 18.2496ZM5.00391 20.8499C5.00308 20.4855 5.2005 20.1496 5.51919 19.973L4.54976 18.2236C3.59367 18.7535 3.00143 19.7614 3.00391 20.8545L5.00391 20.8499ZM5.53208 28.0252C5.21561 27.8491 5.01905 27.5157 5.01823 27.1536L3.01823 27.1581C3.0207 28.2445 3.61037 29.2448 4.55979 29.7729L5.53208 28.0252ZM10.5356 31.6324C10.083 30.8417 9.42305 30.1897 8.62692 29.7468L7.65463 31.4946C8.13231 31.7603 8.5283 32.1515 8.79984 32.6259L10.5356 31.6324ZM11.3345 34.4436C11.3497 33.5437 11.1217 32.6564 10.6747 31.8753L8.93889 32.8688C9.20715 33.3375 9.34393 33.8699 9.33482 34.4098L11.3345 34.4436ZM11.7752 38.8731C11.4602 38.6916 11.2685 38.3534 11.2747 37.9898L9.27495 37.9561C9.25654 39.0467 9.83156 40.0614 10.7767 40.606L11.7752 38.8731ZM18.2615 42.0186C17.9504 42.2049 17.5627 42.2082 17.2485 42.0271L16.2499 43.76C17.1926 44.3032 18.3555 44.2935 19.289 43.7345L18.2615 42.0186ZM23.8683 39.4892C22.9636 39.4892 22.0759 39.7347 21.2997 40.1995L22.3271 41.9154C22.7928 41.6365 23.3255 41.4892 23.8683 41.4892V39.4892ZM26.7053 40.2024C25.9279 39.7358 25.0383 39.4892 24.1317 39.4892V41.4892C24.6757 41.4892 25.2094 41.6372 25.6758 41.9172L26.7053 40.2024ZM30.7741 42.0423C30.4591 42.2251 30.0696 42.2222 29.7574 42.0348L28.728 43.7495C29.6647 44.3119 30.8331 44.3205 31.778 43.7721L30.7741 42.0423ZM36.7279 37.994C36.734 38.3564 36.5435 38.6938 36.23 38.8757L37.234 40.6055C38.1745 40.0596 38.7459 39.0476 38.7276 37.9604L36.7279 37.994ZM37.3377 31.8471C36.8842 32.6322 36.6528 33.5257 36.668 34.4322L38.6677 34.3986C38.6586 33.8547 38.7975 33.3185 39.0695 32.8475L37.3377 31.8471ZM39.3735 29.7501C38.5801 30.1897 37.9212 30.837 37.4675 31.6225L39.1993 32.6228C39.4716 32.1516 39.8669 31.7632 40.3429 31.4994L39.3735 29.7501ZM42.9986 27.1498C42.9994 27.5141 42.802 27.8501 42.4833 28.0267L43.4527 29.7761C44.4088 29.2462 45.001 28.2383 44.9985 27.1452L42.9986 27.1498ZM42.4704 19.9745C42.7869 20.1506 42.9834 20.484 42.9842 20.8461L44.9842 20.8416C44.9818 19.7551 44.3921 18.7549 43.4427 18.2268L42.4704 19.9745ZM37.4693 16.3803C37.9216 17.1633 38.5778 17.8091 39.3681 18.2487L40.3404 16.5009C39.8662 16.2372 39.4725 15.8497 39.2011 15.3799L37.4693 16.3803ZM39.0695 15.1522C38.7975 14.6812 38.6586 14.145 38.6677 13.6011L36.668 13.5675C36.6528 14.474 36.8842 15.3675 37.3377 16.1526L39.0695 15.1522Z" fill="url(#paint1_linear_21771_8653)"/>
<defs>
<linearGradient id="paint0_linear_21771_8653" x1="16" y1="24" x2="32.9913" y2="24.5504" gradientUnits="userSpaceOnUse">
<stop stop-color="#0091EF"/>
<stop offset="1" stop-color="#32D7D4"/>
</linearGradient>
<linearGradient id="paint1_linear_21771_8653" x1="4.00391" y1="23.9998" x2="46.4726" y2="25.4342" gradientUnits="userSpaceOnUse">
<stop stop-color="#0091EF"/>
<stop offset="1" stop-color="#32D7D4"/>
</linearGradient>
</defs>
</svg>
