<?xml version="1.0" standalone="no"?>
<!DOCTYPE svg PUBLIC "-//W3C//DTD SVG 20010904//EN"
 "http://www.w3.org/TR/2001/REC-SVG-20010904/DTD/svg10.dtd">
<svg version="1.0" xmlns="http://www.w3.org/2000/svg"
 width="912.000000pt" height="912.000000pt" viewBox="0 0 912.000000 912.000000"
 preserveAspectRatio="xMidYMid meet">
<metadata>
Created by potrace 1.14, written by Peter Selinger 2001-2017
</metadata>
<g transform="translate(0.000000,912.000000) scale(0.100000,-0.100000)"
fill="#000000" stroke="none">
<path d="M6370 7744 c-25 -8 -53 -17 -63 -19 -9 -2 -30 -13 -46 -24 -16 -12
-34 -21 -39 -21 -6 0 -12 -3 -14 -7 -1 -5 -22 -24 -44 -45 l-42 -36 -1458 -1
c-803 0 -1481 -3 -1509 -6 -65 -6 -220 -31 -220 -35 0 -1 -9 -3 -19 -5 -55
-10 -197 -50 -231 -65 -11 -5 -49 -21 -85 -36 -282 -121 -529 -307 -733 -554
-48 -58 -150 -215 -195 -300 -108 -203 -188 -456 -208 -653 -3 -32 -7 -68 -10
-80 -5 -26 -5 -265 1 -322 7 -78 15 -140 20 -165 2 -14 7 -36 9 -50 29 -169
158 -501 243 -626 11 -16 39 -58 63 -94 79 -117 255 -309 348 -380 19 -14 40
-31 48 -38 69 -65 398 -248 479 -268 17 -4 35 -10 40 -13 23 -15 204 -66 266
-75 44 -7 85 -13 134 -22 22 -4 609 -8 1305 -10 696 -1 1291 -5 1323 -8 117
-11 234 -100 278 -213 29 -76 31 -196 3 -264 -18 -44 -59 -103 -97 -139 -32
-31 -111 -68 -162 -77 -27 -5 -1151 -9 -2497 -8 l-2447 0 -38 37 c-44 43 -149
100 -212 116 -40 10 -164 9 -201 -1 -47 -13 -132 -50 -155 -67 -160 -120 -232
-303 -193 -490 11 -54 57 -160 69 -160 5 0 9 -6 9 -14 0 -19 104 -112 154
-138 105 -54 248 -70 341 -38 22 8 42 15 45 15 42 7 172 114 199 162 l12 23
2462 -1 c1354 -1 2480 2 2502 5 22 4 54 10 70 13 41 9 45 10 48 12 1 2 12 4
25 7 21 4 75 25 142 57 63 29 167 105 229 168 177 176 264 385 266 643 1 72
-2 141 -6 155 -4 14 -15 53 -23 86 -8 34 -19 72 -24 85 -5 14 -11 30 -12 35
-6 23 -77 144 -114 194 -50 67 -104 120 -176 175 -30 22 -57 43 -60 46 -15 15
-134 71 -190 90 -152 50 -119 49 -1475 50 -698 1 -1290 3 -1315 6 -25 3 -54 7
-65 8 -172 20 -490 152 -583 243 -7 7 -18 13 -23 13 -22 0 -238 230 -291 311
-66 101 -149 267 -144 290 0 3 -4 12 -10 20 -10 12 -22 51 -25 76 -1 5 -5 15
-9 23 -5 9 -11 36 -15 60 -4 25 -8 47 -10 50 -9 14 -18 136 -18 235 -1 141 10
240 35 330 6 22 12 45 14 52 1 7 10 36 20 65 10 29 17 56 16 61 -1 4 2 7 7 7
7 0 18 24 20 45 0 5 52 102 85 159 12 21 11 20 84 116 49 65 163 183 209 217
14 10 37 28 51 41 15 12 39 28 55 35 15 6 27 15 27 18 0 3 30 21 68 40 37 19
69 37 70 42 2 4 10 7 18 7 8 0 33 9 57 19 87 39 237 77 352 88 33 4 703 6
1489 7 1244 0 1430 -2 1434 -14 10 -31 112 -119 174 -150 173 -85 376 -50 516
90 95 94 142 217 136 351 -8 188 -127 354 -302 419 -73 28 -199 34 -262 14z
m186 -311 c41 -21 73 -70 80 -122 13 -94 -61 -181 -155 -183 -53 -1 -79 10
-113 44 -54 56 -67 125 -34 190 44 87 136 116 222 71z m-6048 -4498 c109 -21
152 -173 76 -264 -44 -52 -144 -70 -202 -36 -92 55 -105 189 -27 265 20 19 37
34 38 32 1 -2 9 -1 17 2 8 2 22 7 30 9 8 3 23 3 32 1 9 -3 25 -7 36 -9z"/>
<path d="M8488 6801 c-50 -10 -156 -64 -196 -100 -18 -16 -47 -47 -63 -68
l-31 -38 -2481 -1 -2482 -1 -95 -25 c-97 -26 -189 -63 -202 -82 -4 -6 -8 -7
-8 -3 0 4 -33 -15 -73 -42 -71 -47 -154 -125 -200 -184 -12 -16 -31 -41 -42
-55 -54 -70 -116 -219 -141 -336 -14 -64 -25 -262 -15 -271 2 -3 5 -19 7 -37
16 -176 121 -385 266 -528 89 -88 183 -148 323 -205 29 -12 31 -12 130 -33 85
-17 160 -18 1345 -19 1260 0 1342 -2 1460 -28 14 -4 35 -8 47 -11 12 -2 34 -9
48 -14 14 -5 25 -6 25 -3 0 4 5 2 12 -5 7 -7 18 -12 26 -12 8 0 30 -7 50 -16
254 -110 434 -248 587 -452 113 -150 221 -402 242 -562 3 -19 8 -51 12 -71 9
-40 7 -274 -2 -357 -4 -29 -14 -81 -23 -115 -9 -34 -17 -66 -18 -72 -19 -98
-158 -377 -216 -435 -3 -3 -17 -21 -31 -40 -142 -190 -413 -370 -664 -440 -82
-23 -87 -24 -155 -35 -25 -3 -58 -9 -75 -12 -16 -2 -678 -5 -1469 -5 -1400 -1
-1440 0 -1453 18 -35 50 -111 115 -169 144 -173 86 -381 52 -519 -86 -51 -51
-92 -110 -87 -127 1 -4 -2 -7 -6 -7 -9 0 -31 -65 -39 -113 -33 -205 62 -403
237 -496 178 -95 404 -63 535 76 l30 33 1500 3 c825 2 1514 6 1530 9 17 4 47
9 69 13 21 4 48 9 60 11 11 2 33 6 47 9 49 9 204 56 248 76 24 10 48 19 53 19
11 0 200 91 208 100 3 3 28 19 55 35 171 98 383 288 515 461 191 250 335 591
376 894 1 14 6 45 9 70 7 54 8 331 2 380 -3 19 -8 61 -12 92 -6 46 -41 212
-59 278 -20 69 -87 240 -116 295 -60 113 -115 205 -122 205 -4 0 -8 5 -8 11 0
13 -49 84 -81 120 -13 14 -36 41 -50 60 -65 85 -236 240 -364 330 -68 47 -209
129 -223 129 -7 0 -12 5 -12 10 0 6 -9 10 -19 10 -11 0 -22 4 -25 9 -3 4 -40
21 -83 36 -43 15 -84 32 -90 38 -7 5 -13 7 -13 3 0 -3 -17 1 -37 9 -21 8 -58
19 -83 25 -25 6 -54 13 -65 16 -25 6 -49 11 -100 19 -22 4 -51 9 -65 12 -14 3
-421 8 -905 9 -484 2 -1083 5 -1330 7 l-450 2 -66 32 c-128 63 -200 178 -200
321 -1 59 23 146 47 173 8 8 14 20 14 26 0 20 92 95 148 121 l57 27 2480 1
2480 1 50 -45 c126 -114 310 -147 470 -84 22 8 42 18 45 21 3 3 17 13 31 21
84 48 164 155 196 263 8 26 11 52 8 57 -3 5 -1 11 3 14 16 9 1 177 -18 216 -4
8 -19 37 -31 65 -25 50 -154 189 -169 180 -4 -2 -13 2 -20 10 -7 8 -18 15 -25
15 -6 0 -26 7 -43 16 -18 8 -36 13 -41 10 -5 -4 -12 -2 -15 2 -7 11 -138 13
-188 3z m189 -327 c110 -84 76 -255 -58 -292 -68 -18 -162 33 -189 103 -21 54
-4 130 37 174 51 55 149 61 210 15z m-6022 -4504 c40 -25 75 -88 75 -134 0
-39 -21 -98 -42 -120 -71 -70 -185 -63 -246 15 -70 88 -31 217 77 257 35 12
101 4 136 -18z"/>
</g>
</svg>
