<svg width="48" height="48" viewBox="0 0 48 48" fill="none" xmlns="http://www.w3.org/2000/svg">
<path fill-rule="evenodd" clip-rule="evenodd" d="M21.667 2.58052C19.2845 5.22869 15.8372 6.88924 11.9993 6.88924C11.1604 6.88924 10.3418 6.81003 9.55016 6.65925C7.71383 6.30951 5.73227 7.72246 5.88529 9.86469L7.03397 25.9462C7.53223 32.9219 11.3173 39.2451 17.2302 42.9795L21.8633 45.9057C23.1681 46.7298 24.8305 46.7298 26.1353 45.9057L30.7683 42.9795C36.6812 39.2451 40.4663 32.9219 40.9646 25.9462L42.1133 9.8647C42.2663 7.72246 40.2847 6.30951 38.4484 6.65926C37.6567 6.81003 36.8382 6.88924 35.9993 6.88924C32.1614 6.88924 28.7141 5.22869 26.3316 2.58052C25.0916 1.20232 22.9069 1.20233 21.667 2.58052ZM11.9993 8.88924C16.4278 8.88924 20.4081 6.97013 23.1538 3.91819C23.5993 3.4231 24.3993 3.4231 24.8447 3.91819C27.5905 6.97013 31.5708 8.88924 35.9993 8.88924C36.9644 8.88924 37.9082 8.79809 38.8226 8.62394C39.5073 8.49352 40.168 9.02691 40.1184 9.7222L38.9697 25.8037C38.5167 32.1452 35.0757 37.8936 29.7004 41.2886L25.0673 44.2147C24.4149 44.6267 23.5837 44.6267 22.9313 44.2147L18.2982 41.2886C12.9229 37.8936 9.48185 32.1452 9.02888 25.8037L7.88021 9.7222C7.83054 9.02691 8.49121 8.49352 9.17597 8.62394C10.0904 8.79809 11.0342 8.88924 11.9993 8.88924ZM32.2058 19.4565C32.5963 19.0659 32.5963 18.4328 32.2058 18.0423C31.8152 17.6517 31.1821 17.6517 30.7916 18.0423L21.1862 27.6476L17.2058 23.6673C16.8152 23.2767 16.1821 23.2767 15.7916 23.6673C15.401 24.0578 15.401 24.6909 15.7916 25.0815L20.4791 29.769C20.8696 30.1595 21.5027 30.1595 21.8933 29.769L32.2058 19.4565Z" fill="url(#paint0_linear_22611_12815)"/>
<defs>
<linearGradient id="paint0_linear_22611_12815" x1="5.87695" y1="24.0353" x2="44.3813" y2="25.0403" gradientUnits="userSpaceOnUse">
<stop stop-color="#0091EF"/>
<stop offset="1" stop-color="#32D7D4"/>
</linearGradient>
</defs>
</svg>
