<svg width="80" height="81" viewBox="0 0 80 81" fill="none" xmlns="http://www.w3.org/2000/svg">
<path d="M0 40.418C0 18.3266 17.9086 0.417969 40 0.417969C62.0914 0.417969 80 18.3266 80 40.418C80 62.5094 62.0914 80.418 40 80.418C17.9086 80.418 0 62.5094 0 40.418Z" fill="#F3F9FF"/>
<g clip-path="url(#clip0_22786_15680)">
<path fill-rule="evenodd" clip-rule="evenodd" d="M30.0801 18.418H50.0801C50.6324 18.418 51.0801 18.8657 51.0801 19.418V21.418H29.0801V19.418C29.0801 18.8657 29.5278 18.418 30.0801 18.418ZM27.0801 23.418V21.418V19.418C27.0801 17.7611 28.4232 16.418 30.0801 16.418H50.0801C51.7369 16.418 53.0801 17.7611 53.0801 19.418V61.418C53.0801 63.0748 51.7369 64.418 50.0801 64.418H30.0801C28.4232 64.418 27.0801 63.0748 27.0801 61.418V58.418V56.418V23.418ZM29.0801 61.418V58.418H51.0801V61.418C51.0801 61.9703 50.6324 62.418 50.0801 62.418H30.0801C29.5278 62.418 29.0801 61.9703 29.0801 61.418ZM51.0801 23.418V56.418H29.0801V23.418H51.0801ZM38.0801 59.418C37.5278 59.418 37.0801 59.8657 37.0801 60.418C37.0801 60.9703 37.5278 61.418 38.0801 61.418H42.0801C42.6324 61.418 43.0801 60.9703 43.0801 60.418C43.0801 59.8657 42.6324 59.418 42.0801 59.418H38.0801Z" fill="#0979FD"/>
</g>
<defs>
<clipPath id="clip0_22786_15680">
<rect width="48" height="48" fill="white" transform="translate(16 16.418)"/>
</clipPath>
</defs>
</svg>
