<svg width="80" height="81" viewBox="0 0 80 81" fill="none" xmlns="http://www.w3.org/2000/svg">
<path d="M0 40.8359C0 18.7445 17.9086 0.835938 40 0.835938C62.0914 0.835938 80 18.7445 80 40.8359C80 62.9273 62.0914 80.8359 40 80.8359C17.9086 80.8359 0 62.9273 0 40.8359Z" fill="#F3F9FF"/>
<path fill-rule="evenodd" clip-rule="evenodd" d="M37.667 19.4165C35.2845 22.0646 31.8372 23.7252 27.9993 23.7252C27.1604 23.7252 26.3418 23.646 25.5502 23.4952C23.7138 23.1454 21.7323 24.5584 21.8853 26.7006L23.034 42.7821C23.5322 49.7578 27.3173 56.081 33.2302 59.8155L37.8633 62.7416C39.1681 63.5657 40.8305 63.5657 42.1353 62.7416L46.7683 59.8155C52.6812 56.081 56.4663 49.7578 56.9646 42.7822L58.1133 26.7006C58.2663 24.5584 56.2847 23.1455 54.4484 23.4952C53.6567 23.646 52.8382 23.7252 51.9993 23.7252C48.1614 23.7252 44.7141 22.0646 42.3316 19.4165C41.0916 18.0383 38.9069 18.0383 37.667 19.4165ZM27.9993 25.7252C32.4278 25.7252 36.4081 23.8061 39.1538 20.7541C39.5993 20.259 40.3993 20.259 40.8447 20.7541C43.5905 23.8061 47.5708 25.7252 51.9993 25.7252C52.9644 25.7252 53.9082 25.634 54.8226 25.4599C55.5073 25.3295 56.168 25.8628 56.1184 26.5581L54.9697 42.6397C54.5167 48.9812 51.0757 54.7295 45.7004 58.1245L41.0673 61.0507C40.4149 61.4627 39.5837 61.4627 38.9313 61.0507L34.2982 58.1245C28.9229 54.7295 25.4818 48.9812 25.0289 42.6397L23.8802 26.5581C23.8305 25.8628 24.4912 25.3295 25.176 25.4599C26.0904 25.634 27.0342 25.7252 27.9993 25.7252ZM48.2058 36.2924C48.5963 35.9019 48.5963 35.2687 48.2058 34.8782C47.8152 34.4877 47.1821 34.4877 46.7916 34.8782L37.1862 44.4836L33.2058 40.5032C32.8152 40.1127 32.1821 40.1127 31.7916 40.5032C31.401 40.8937 31.401 41.5269 31.7916 41.9174L36.4791 46.6049C36.8696 46.9954 37.5027 46.9954 37.8933 46.6049L48.2058 36.2924Z" fill="#0979FD"/>
</svg>
