<svg width="121" height="120" viewBox="0 0 121 120" fill="none" xmlns="http://www.w3.org/2000/svg">
<path d="M99 53.0192C99 31.4966 81.6781 14 60.25 14C38.8219 14 21.5 31.4966 21.5 53.0192C21.5 64.4369 29.1197 78.029 36.0091 86.1538C40.7995 91.8032 45.6837 97.5925 49.5 102C51.7448 104.593 55.0242 107.845 56.9103 109.674C59.3605 112.052 61.2604 112.054 63.7121 109.672C65.5266 107.909 68.5 104 70.5 102C74.8825 96.3859 79.676 91.8558 84.5264 86.0953C91.3875 77.9469 99 64.3396 99 53.0192Z" fill="#EA4335"/>
<circle cx="60" cy="52.5" r="24.5" fill="#B21511"/>
</svg>
