<svg width="50" height="50" viewBox="0 0 50 50" fill="none" xmlns="http://www.w3.org/2000/svg">
<circle cx="25" cy="25" r="25" fill="url(#paint0_linear_4093_33172)"/>
<path d="M31.7699 24.6404C31.8542 24.5394 31.9176 24.4227 31.9566 24.2971C31.9957 24.1715 32.0096 24.0394 31.9975 23.9084C31.9854 23.7775 31.9476 23.6502 31.8863 23.5338C31.8249 23.4175 31.7412 23.3144 31.6399 23.2304L25.6399 18.2304C25.461 18.0833 25.2366 18.0029 25.0049 18.0029C24.7733 18.0029 24.5489 18.0833 24.3699 18.2304L18.3699 23.0604C18.2539 23.1545 18.1605 23.2735 18.0964 23.4084C18.0324 23.5434 17.9994 23.691 17.9999 23.8404C17.9993 24.0297 18.0524 24.2152 18.153 24.3755C18.2536 24.5357 18.3976 24.6642 18.5683 24.7459C18.739 24.8276 18.9294 24.8591 19.1173 24.8369C19.3052 24.8147 19.483 24.7396 19.6299 24.6204L24.9999 20.2904L30.3699 24.7704C30.5734 24.9374 30.8346 25.0173 31.0967 24.993C31.3587 24.9687 31.6007 24.842 31.7699 24.6404Z" fill="white"/>
<path d="M25 27.2904L30.37 31.7704C30.5742 31.9402 30.8375 32.0218 31.1019 31.9974C31.3663 31.9731 31.6102 31.8446 31.78 31.6404C31.9497 31.4362 32.0314 31.1729 32.007 30.9085C31.9826 30.6441 31.8542 30.4002 31.65 30.2304L25.65 25.2304C25.471 25.0833 25.2466 25.0029 25.015 25.0029C24.7834 25.0029 24.5589 25.0833 24.38 25.2304L18.38 30.0604C18.264 30.1545 18.1705 30.2735 18.1065 30.4084C18.0424 30.5434 18.0095 30.691 18.01 30.8404C18.0093 31.0297 18.0624 31.2152 18.163 31.3755C18.2636 31.5357 18.4076 31.6642 18.5783 31.7459C18.749 31.8276 18.9394 31.8591 19.1273 31.8369C19.3152 31.8147 19.493 31.7396 19.64 31.6204L25 27.2904Z" fill="white"/>
<defs>
<linearGradient id="paint0_linear_4093_33172" x1="50" y1="-3.5" x2="2.00001" y2="40.5" gradientUnits="userSpaceOnUse">
<stop stop-color="#18D8F6"/>
<stop offset="1" stop-color="#1C45DF"/>
</linearGradient>
</defs>
</svg>
