<svg width="23" height="23" viewBox="0 0 23 23" fill="none" xmlns="http://www.w3.org/2000/svg">
<g clip-path="url(#clip0_2899_12306)">
<path d="M21.1284 6.49889C20.8881 5.60519 20.1838 4.90069 19.2907 4.66004C17.6591 4.21338 11.1326 4.21338 11.1326 4.21338C11.1326 4.21338 4.60627 4.21338 2.97466 4.64311C2.09873 4.8835 1.37729 5.60532 1.13702 6.49889C0.707642 8.13122 0.707642 11.5165 0.707642 11.5165C0.707642 11.5165 0.707642 14.9188 1.13702 16.534C1.37754 17.4276 2.08155 18.1321 2.97479 18.3728C4.62345 18.8195 11.1328 18.8195 11.1328 18.8195C11.1328 18.8195 17.6591 18.8195 19.2907 18.3898C20.184 18.1493 20.8881 17.4448 21.1286 16.5512C21.5579 14.9188 21.5579 11.5336 21.5579 11.5336C21.5579 11.5336 21.5751 8.13122 21.1284 6.49889ZM9.05466 14.6439V8.38906L14.4818 11.5165L9.05466 14.6439Z" fill="white"/>
</g>
<defs>
<clipPath id="clip0_2899_12306">
<rect width="22.2404" height="22.252" fill="white" transform="translate(0.0229492 0.587402)"/>
</clipPath>
</defs>
</svg>
