<svg width="14" height="14" viewBox="0 0 14 14" fill="none" xmlns="http://www.w3.org/2000/svg">
<path d="M12.6814 8.93362C11.8493 8.93362 11.0323 8.80341 10.258 8.54741C9.87866 8.41794 9.41227 8.53672 9.18072 8.77465L7.65251 9.92889C5.88022 8.98235 4.78852 7.89044 3.85539 6.13054L4.97508 4.64137C5.26599 4.3507 5.37033 3.92611 5.24532 3.52772C4.98835 2.74899 4.85782 1.93192 4.85782 1.09902C4.85786 0.49732 4.3686 0.0078125 3.76726 0.0078125H1.27126C0.669917 0.0078125 0.180664 0.49732 0.180664 1.09898C0.180664 7.99558 5.78844 13.6062 12.6814 13.6062C13.2828 13.6062 13.772 13.1167 13.772 12.5151V10.0248C13.772 9.42313 13.2828 8.93362 12.6814 8.93362Z" fill="white"/>
</svg>
