<svg width="24" height="25" viewBox="0 0 24 25" fill="none" xmlns="http://www.w3.org/2000/svg">
<path fill-rule="evenodd" clip-rule="evenodd" d="M12.398 20.7305C13.881 19.9613 19 16.9428 19 11.9265C19 8.06052 15.866 4.92651 12 4.92651C8.13401 4.92651 5 8.06052 5 11.9265C5 16.9428 10.119 19.9613 11.602 20.7305C11.8548 20.8616 12.1452 20.8616 12.398 20.7305ZM12 14.9265C13.6569 14.9265 15 13.5834 15 11.9265C15 10.2697 13.6569 8.92651 12 8.92651C10.3431 8.92651 9 10.2697 9 11.9265C9 13.5834 10.3431 14.9265 12 14.9265Z" fill="#4E4E4E"/>
</svg>
