<svg width="56" height="56" viewBox="0 0 56 56" fill="none" xmlns="http://www.w3.org/2000/svg">
<path fill-rule="evenodd" clip-rule="evenodd" d="M5.25 9.33333C5.25 7.07817 7.07817 5.25 9.33333 5.25H46.6667C48.9218 5.25 50.75 7.07817 50.75 9.33333V35C50.75 37.2552 48.9218 39.0833 46.6667 39.0833H9.33333C7.07817 39.0833 5.25 37.2552 5.25 35V9.33333ZM9.33333 8.75C9.01117 8.75 8.75 9.01117 8.75 9.33333V35C8.75 35.3222 9.01117 35.5833 9.33333 35.5833H46.6667C46.9888 35.5833 47.25 35.3222 47.25 35V9.33333C47.25 9.01117 46.9888 8.75 46.6667 8.75H9.33333Z" fill="#4897E0"/>
<path fill-rule="evenodd" clip-rule="evenodd" d="M23.5057 15.0205C24.0021 14.7343 24.5651 14.5838 25.1382 14.584C25.7112 14.5842 26.2741 14.7351 26.7704 15.0216L34.2379 19.3388C34.7335 19.6258 35.146 20.0387 35.4321 20.5348C35.7181 21.031 35.8687 21.5936 35.8687 22.1663C35.8687 22.7391 35.7181 23.3017 35.4321 23.7979C35.146 24.294 34.7346 24.7063 34.239 24.9933L26.7709 29.3084C26.2743 29.5951 25.7104 29.7464 25.1369 29.7464C24.5635 29.7464 24.0001 29.5954 23.5035 29.3086C23.0069 29.0219 22.5945 28.6094 22.3079 28.1128C22.0225 27.6184 21.8717 27.058 21.8704 26.4873C21.8704 26.4855 21.8704 26.4837 21.8704 26.4818C21.8704 26.4813 21.8704 26.4824 21.8704 26.4818C21.8704 26.4816 21.8704 26.4797 21.8704 26.4795C21.8704 26.4794 21.8704 26.4796 21.8704 26.4795V17.846C21.8712 17.273 22.0227 16.7103 22.3097 16.2143C22.5968 15.7184 23.0092 15.3066 23.5057 15.0205ZM25.3704 18.2551L32.1357 22.1663L25.3704 26.0754V18.2551Z" fill="#4897E0"/>
<path fill-rule="evenodd" clip-rule="evenodd" d="M21.5833 46.666C21.5833 45.6995 22.3668 44.916 23.3333 44.916H46.6666C47.6331 44.916 48.4166 45.6995 48.4166 46.666C48.4166 47.6325 47.6331 48.416 46.6666 48.416H23.3333C22.3668 48.416 21.5833 47.6325 21.5833 46.666Z" fill="#4897E0"/>
<path fill-rule="evenodd" clip-rule="evenodd" d="M7.58325 46.666C7.58325 45.6995 8.36675 44.916 9.33325 44.916H16.3333C17.2997 44.916 18.0833 45.6995 18.0833 46.666C18.0833 47.6325 17.2997 48.416 16.3333 48.416H9.33325C8.36675 48.416 7.58325 47.6325 7.58325 46.666Z" fill="#4897E0"/>
<path fill-rule="evenodd" clip-rule="evenodd" d="M16.3333 42.584C17.2997 42.584 18.0833 43.3675 18.0833 44.334V49.0006C18.0833 49.9671 17.2997 50.7506 16.3333 50.7506C15.3668 50.7506 14.5833 49.9671 14.5833 49.0006V44.334C14.5833 43.3675 15.3668 42.584 16.3333 42.584Z" fill="#4897E0"/>
</svg>
