<svg width="50" height="56" viewBox="0 0 50 56" fill="none" xmlns="http://www.w3.org/2000/svg">
<path d="M46.0001 38.2077V9.04102C46.0001 6.62474 44.0412 4.66602 41.6251 4.66602H12.4584C8.43123 4.66602 5.16675 7.9305 5.16675 11.9577V45.4994C5.16675 48.721 7.77862 51.3327 11.0001 51.3327H44.5417C45.3478 51.3327 46.0001 50.6804 46.0001 49.8744C46.0001 49.0683 45.3478 48.416 44.5417 48.416H43.0834V42.3141C44.7775 41.7101 46.0001 40.1064 46.0001 38.2077ZM34.3334 7.58268V23.5061L29.4115 19.5684C29.1438 19.3562 28.8219 19.2493 28.5001 19.2493C28.1782 19.2493 27.8564 19.3562 27.5886 19.5684L22.6667 23.5061V7.58268H34.3334ZM40.1667 48.416H11.0001C9.39218 48.416 8.08341 47.1073 8.08341 45.4994C8.08341 43.8914 9.39218 42.5827 11.0001 42.5827H40.1667V48.416ZM41.6251 39.666H11.0001C9.93267 39.666 8.94502 39.9749 8.08341 40.4772V11.9577C8.08341 9.54141 10.0423 7.58268 12.4584 7.58268H19.7501V26.541C19.7502 26.8156 19.8278 27.0846 19.9739 27.3171C20.12 27.5497 20.3287 27.7363 20.576 27.8555C21.0831 28.0991 21.6784 28.0278 22.1199 27.6803L28.5001 22.5747L34.8803 27.6803C35.0952 27.8516 35.354 27.9589 35.627 27.9899C35.9001 28.0209 36.1763 27.9743 36.4241 27.8555C36.6715 27.7363 36.8802 27.5497 37.0263 27.3171C37.1724 27.0846 37.2499 26.8156 37.2501 26.541V7.58268H41.6251C42.4304 7.58268 43.0834 8.23565 43.0834 9.04102V38.2077C43.0834 39.013 42.4304 39.666 41.6251 39.666Z" fill="#4897E0"/>
</svg>
