<svg width="80" height="80" viewBox="0 0 80 80" fill="none" xmlns="http://www.w3.org/2000/svg">
<path fill-rule="evenodd" clip-rule="evenodd" d="M10 20H23.3333V76.6667H10V20ZM13.3333 23.3333H20V30H13.3333V23.3333ZM20 33.3333H13.3333V40H20V33.3333ZM13.3333 43.3333H20V50H13.3333V43.3333ZM20 53.3333H13.3333V60H20V53.3333Z" fill="#1A7DD8"/>
<path fill-rule="evenodd" clip-rule="evenodd" d="M56.6666 20H70V76.6667H56.6666V20ZM60 23.3333H66.6666V30H60V23.3333ZM66.6666 33.3333H60V40H66.6666V33.3333ZM60 43.3333H66.6666V50H60V43.3333ZM66.6666 53.3333H60V60H66.6666V53.3333Z" fill="#1A7DD8"/>
<path fill-rule="evenodd" clip-rule="evenodd" d="M26.6666 6.66663H53.3333V76.6666H50V63.3333H43.3333V76.6666H36.6666V63.3333H30V76.6666H26.6666V6.66663ZM30 13.3333H36.6666V20H30V13.3333ZM36.6666 23.3333H30V30H36.6666V23.3333ZM30 33.3333H36.6666V40H30V33.3333ZM36.6666 43.3333H30V50H36.6666V43.3333ZM30 53.3333H36.6666V60H30V53.3333ZM50 13.3333H43.3333V20H50V13.3333ZM43.3333 23.3333H50V30H43.3333V23.3333ZM50 33.3333H43.3333V40H50V33.3333ZM43.3333 43.3333H50V50H43.3333V43.3333ZM50 53.3333H43.3333V60H50V53.3333Z" fill="#1A7DD8"/>
</svg>
