<svg width="80" height="80" viewBox="0 0 80 80" fill="none" xmlns="http://www.w3.org/2000/svg">
<path d="M38.806 39.5679H31.9827V46.3912H38.806V39.5679Z" fill="#1A7DD8"/>
<path d="M38.806 48.7794H31.9827V55.6028H38.806V48.7794Z" fill="#1A7DD8"/>
<path d="M48.0169 48.7794H41.1936V55.6028H48.0169V48.7794Z" fill="#1A7DD8"/>
<path d="M39.9998 21.7576L16.3076 38.7844V66.6666H63.692V38.7844L39.9998 21.7576ZM50.4117 46.3911V48.7793V57.9908H41.1939H38.8057H29.5942V48.7793V46.3911V37.1796H38.8057H41.1939H50.4054V46.3911H50.4117Z" fill="#1A7DD8"/>
<path d="M48.0169 39.5679H41.1936V46.3912H48.0169V39.5679Z" fill="#1A7DD8"/>
<path d="M69.8459 38.8034L40.0001 17.3477L10.1542 38.8034L6.66675 33.9512L40.0001 10L73.3334 33.9512L69.8459 38.8034Z" fill="#1A7DD8"/>
</svg>
