<svg width="80" height="80" viewBox="0 0 80 80" fill="none" xmlns="http://www.w3.org/2000/svg">
<path d="M55.2643 31.1132V13.3334H28.4743V31.1132H10V66.6667H34.377V55.3418H40.4253V66.6667H42.908V55.3418H48.9563V66.6667H73.3333V31.1132H55.2643ZM19.9053 50.7338H15.0097V46.016H19.9053V50.7338ZM19.9053 41.4141H15.0097V36.6964H19.9053V41.4141ZM29.589 50.7338H24.6933V46.016H29.589V50.7338ZM29.589 41.4141H24.6933V36.6964H29.589V41.4141ZM39.279 50.7338H34.3833V46.016H39.279V50.7338ZM39.279 41.4141H34.3833V36.6964H39.279V41.4141ZM42.9143 30.3574H40.4317V25.0301H34.8963V22.6408H40.4317V17.3136H42.9143V22.6408H48.4497V25.0301H42.9143V30.3574ZM48.9627 50.7338H44.067V46.016H48.9627V50.7338ZM48.9627 41.4141H44.067V36.6964H48.9627V41.4141ZM58.6463 50.7338H53.7507V46.016H58.6463V50.7338ZM58.6463 41.4141H53.7507V36.6964H58.6463V41.4141ZM68.33 50.7338H63.4343V46.016H68.33V50.7338ZM68.33 41.4141H63.4343V36.6964H68.33V41.4141Z" fill="#1A7DD8"/>
</svg>
