<svg width="80" height="80" viewBox="0 0 80 80" fill="none" xmlns="http://www.w3.org/2000/svg">
<path d="M12.8722 44.0857C9.72261 44.7106 7.62288 45.2855 6.66675 45.5605V53.5033C7.83535 53.2658 9.92884 52.8721 12.8722 52.4534V44.0857Z" fill="#1A7DD8"/>
<path d="M39.1191 29.4878C34.3759 29.5253 30.0764 29.8565 26.2644 30.3502V40.4052C30.0389 40.074 34.3447 39.849 39.1191 39.824V29.4878Z" fill="#1A7DD8"/>
<path d="M14.6848 66.6666H24.4586V53.0283C20.6403 53.3095 17.372 53.6658 14.6848 54.0157V66.6666Z" fill="#1A7DD8"/>
<path d="M24.4586 30.5938C20.634 31.1624 17.3595 31.8748 14.6848 32.581V41.9048C17.222 41.4549 20.5153 40.9612 24.4586 40.5675V30.5938Z" fill="#1A7DD8"/>
<path d="M26.2644 51.1099C30.0827 50.8662 34.3821 50.7037 39.1191 50.6849V41.6173C34.3759 41.6423 30.0764 41.8735 26.2644 42.211V51.1099Z" fill="#1A7DD8"/>
<path d="M14.6848 52.2098C17.3907 51.8598 20.6653 51.5099 24.4586 51.2349V42.3798C20.6403 42.7672 17.3657 43.2546 14.6848 43.7421V52.2098Z" fill="#1A7DD8"/>
<path d="M40.0004 27.6816C57.9732 27.6816 69.6342 31.7686 73.3275 33.2809V20.295C73.3275 20.295 61.0728 13.3334 40.0004 13.3334C18.928 13.3334 6.67334 20.295 6.67334 20.295V33.2809C10.3666 31.7749 22.0276 27.6816 40.0004 27.6816ZM50.1616 17.1079C50.1991 16.7205 50.5366 16.4392 50.9303 16.4642C51.3178 16.5017 51.6052 16.8455 51.574 17.2329L50.9803 23.9258L54.2299 24.1508C54.6173 24.1758 54.9173 24.5132 54.8861 24.9069C54.8611 25.2819 54.5486 25.5694 54.1799 25.5694C54.1611 25.5694 54.1487 25.5694 54.1299 25.5694L50.2491 25.3006C50.0242 25.2819 49.8304 25.1882 49.693 25.0257C49.5555 24.8632 49.493 24.657 49.5117 24.4383L50.1616 17.1079ZM43.1688 16.8767C43.1813 16.4955 43.4937 16.1893 43.8749 16.1893C43.8812 16.1893 43.8875 16.1893 43.9 16.1893C44.2937 16.2018 44.5998 16.5268 44.5873 16.9205L44.3874 23.6446L47.6557 23.7196C48.0494 23.7259 48.3556 24.0508 48.3494 24.4445C48.3431 24.832 48.0244 25.1382 47.6432 25.1382C47.637 25.1382 47.6307 25.1382 47.6245 25.1382L43.7312 25.0444C43.5125 25.0382 43.3125 24.9507 43.1688 24.8007C43.025 24.6507 42.9438 24.4445 42.9501 24.2258L43.1688 16.8767ZM34.4011 24.3383L37.1383 16.8079C37.2383 16.533 37.4945 16.3517 37.7819 16.3392C38.0944 16.3267 38.3381 16.5017 38.4506 16.7704L40.5004 21.5386L41.6252 24.157C41.7815 24.5195 41.6127 24.9319 41.2565 25.0882C40.9003 25.2444 40.4816 25.0757 40.3254 24.7195L39.388 22.5448L36.5321 22.601L35.726 24.8257C35.6197 25.1132 35.351 25.2944 35.0573 25.2944C34.976 25.2944 34.8948 25.2819 34.8136 25.2506C34.4574 25.1132 34.2699 24.707 34.4011 24.3383ZM25.6022 17.5516C25.9209 17.4454 26.2709 17.5766 26.4396 17.8641L29.3017 22.7072L31.0453 17.5016C31.1515 17.1829 31.4578 16.9892 31.7952 17.0204C32.1264 17.0579 32.3889 17.3204 32.4201 17.6516L33.12 24.632C33.1575 25.0194 32.8763 25.3694 32.4889 25.4069C32.1014 25.4444 31.7515 25.1632 31.714 24.7695L31.3452 21.0699L30.1579 24.6195C30.0704 24.8819 29.8392 25.0694 29.558 25.1007C29.283 25.1257 29.0143 24.9944 28.8705 24.757L26.9208 21.4636L27.352 25.1194C27.3957 25.5069 27.1208 25.8631 26.7333 25.9068C26.7083 25.9131 26.6771 25.9131 26.6521 25.9131C26.2959 25.9131 25.9897 25.6506 25.9522 25.2881L25.1273 18.3078C25.0835 17.9703 25.2835 17.6578 25.6022 17.5516Z" fill="#1A7DD8"/>
<path d="M67.1282 52.4534C70.0716 52.8721 72.165 53.2658 73.3336 53.5033V45.5605C72.3838 45.2855 70.2778 44.7106 67.1282 44.0857V52.4534Z" fill="#1A7DD8"/>
<path d="M67.1282 33.0809V42.2423C70.0591 42.8172 72.1463 43.3546 73.3336 43.6858V35.2307C72.44 34.8557 70.334 34.0121 67.1282 33.0809Z" fill="#1A7DD8"/>
<path d="M37.8626 18.9764L37.0627 21.1762L38.7938 21.1387L37.8626 18.9764Z" fill="#1A7DD8"/>
<path d="M12.8722 33.0809C9.66637 34.0121 7.55414 34.8557 6.66675 35.2369V43.6921C7.8541 43.3609 9.93509 42.8235 12.8722 42.2485V33.0809Z" fill="#1A7DD8"/>
<path d="M55.542 66.6666H65.3158L65.3157 54.0157C62.6286 53.6658 59.354 53.3095 55.542 53.0283L55.542 66.6666Z" fill="#1A7DD8"/>
<path d="M65.3224 43.7421C62.6415 43.2546 59.3669 42.7672 55.5486 42.3798V51.2349C59.3419 51.5099 62.6165 51.8598 65.3224 52.2098V43.7421Z" fill="#1A7DD8"/>
<path d="M55.542 40.5737C59.4853 40.9674 62.7786 41.4549 65.3157 41.9111V32.5872C62.6348 31.8811 59.3665 31.1687 55.542 30.6V40.5737Z" fill="#1A7DD8"/>
<path d="M67.1282 54.2656V66.6667H73.3336V55.3343C72.34 55.1218 70.234 54.7156 67.1282 54.2656Z" fill="#1A7DD8"/>
<path d="M26.2646 66.6668H32.2138L32.214 55.3846H39.0507H39.1131V52.4724C34.37 52.4912 30.0705 52.6536 26.2585 52.9036L26.2583 66.6668H26.2646Z" fill="#1A7DD8"/>
<path d="M39.0562 57.2842H34.113V66.6667H39.0562V57.2842Z" fill="#1A7DD8"/>
<path d="M53.7361 66.6668V52.9036C49.9241 52.6599 45.6246 52.4912 40.8877 52.4724V55.3846H40.9502H47.7868V66.6668H53.7361Z" fill="#1A7DD8"/>
<path d="M45.8931 57.2842H40.9499L40.9497 66.6667H45.8929L45.8931 57.2842Z" fill="#1A7DD8"/>
<path d="M53.7361 30.3438C49.9303 29.8502 45.6309 29.5189 40.8877 29.4814V39.8176C45.6558 39.8426 49.9616 40.0739 53.7361 40.3988V30.3438Z" fill="#1A7DD8"/>
<path d="M12.8722 54.2656C9.76011 54.7156 7.66037 55.128 6.66675 55.3343V66.6667H12.8722V54.2656Z" fill="#1A7DD8"/>
<path d="M40.8877 50.6786C45.6184 50.6973 49.9178 50.8598 53.7361 51.1035V42.2046C49.9241 41.8672 45.6309 41.636 40.8877 41.611V50.6786Z" fill="#1A7DD8"/>
</svg>
