<?xml version="1.0" encoding="utf-8"?>
<!-- Generator: Adobe Illustrator 25.0.0, SVG Export Plug-In . SVG Version: 6.00 Build 0)  -->
<svg version="1.1" xmlns="http://www.w3.org/2000/svg" xmlns:xlink="http://www.w3.org/1999/xlink" x="0px" y="0px"
	 viewBox="0 0 200 200" style="enable-background:new 0 0 200 200;" xml:space="preserve">
<style type="text/css">
	.st0{display:none;}
	.st1{display:inline;}
	.st2{fill:none;stroke:#000000;stroke-width:0.1;stroke-miterlimit:10;}
	.st3{fill:#09100C;}
	.st4{fill:#7A7A7A;}
	.st5{fill:#FFFFFF;}
	.st6{fill:none;}
	.st7{fill:#727272;}
	.st8{opacity:0;fill:#FFFFFF;}
	.st9{opacity:0;}
	.st10{fill:#FFFFFF;stroke:#231F20;stroke-miterlimit:10;}
	.st11{stroke:#000000;stroke-width:8;stroke-miterlimit:10;}
	.st12{fill:none;stroke:#000000;stroke-width:8;stroke-miterlimit:10;}
	.st13{fill:none;stroke:#000000;stroke-width:17;stroke-miterlimit:10;}
	.st14{fill:none;stroke:#000000;stroke-width:4;stroke-miterlimit:10;}
	.st15{fill:none;stroke:#000000;stroke-width:3;stroke-miterlimit:10;}
	.st16{fill:#B2B2B2;}
	.st17{fill:none;stroke:#000000;stroke-width:16;stroke-miterlimit:10;}
	.st18{fill:none;stroke:#000000;stroke-width:10;stroke-miterlimit:10;}
	.st19{fill:#171714;}
</style>
<g id="Layer_1" class="st0">
	<g class="st1">
		<rect x="0" y="0" class="st2" width="200" height="200"/>
		<circle class="st2" cx="100.01" cy="100" r="100"/>
		<rect x="50" y="0.03" class="st2" width="100" height="199.95"/>
		<line class="st2" x1="100" y1="0.03" x2="100" y2="199.98"/>
		<rect x="0.03" y="50" class="st2" width="199.95" height="100"/>
		<line class="st2" x1="199.98" y1="100" x2="0.03" y2="100"/>
		<line class="st2" x1="0.07" y1="0.07" x2="199.93" y2="199.93"/>
		<line class="st2" x1="199.98" y1="0.03" x2="0.03" y2="199.98"/>
		<rect x="29.29" y="29.29" class="st2" width="141.41" height="141.41"/>
		<circle class="st2" cx="100" cy="100" r="70.71"/>
		<circle class="st2" cx="100" cy="100" r="50"/>
		<circle class="st2" cx="100" cy="100" r="25"/>
	</g>
</g>
<g id="Layer_2">
	<g>
		<path class="st3" d="M147.24,92.77l-16.16-13.46V61.77c0-1.1-0.9-2-2-2h-9.42c-1.11,0-2,0.9-2,2l0.01,6.37l-12.12-10.1
			c-3.16-2.63-7.92-2.64-11.07,0L52.78,92.77c-1.68,1.4-2.66,3.33-2.76,5.45c-0.1,2.11,0.69,4.12,2.24,5.69
			c1.58,1.56,3.79,2.45,6.07,2.45c2.07,0,4.04-0.7,5.55-1.98l0.98-0.82l0,41.32c0.03,1.86,1.12,3.52,2.9,4.43
			c1.09,0.57,2.3,0.86,3.62,0.86h57.28c1.32,0,2.53-0.29,3.61-0.85c1.76-0.9,2.85-2.55,2.92-4.48l0-11.46c0-1.12-0.8-2.13-1.91-2.24
			c-1.28-0.13-2.35,0.87-2.35,2.12l0,11.5c-0.02,0.41-0.42,0.67-0.61,0.76c-0.48,0.25-1.01,0.37-1.64,0.37H71.37
			c-0.63,0-1.17-0.12-1.66-0.38c-0.18-0.09-0.59-0.34-0.59-0.68v-44.37c0-0.3,0.13-0.58,0.36-0.77l29.24-24.39
			c0.74-0.62,1.82-0.62,2.56,0l29.26,24.39c0.23,0.19,0.36,0.47,0.36,0.77l0,20.4c0,1.12,0.8,2.13,1.91,2.25
			c1.28,0.13,2.35-0.87,2.35-2.12v-17.43l0.98,0.82c3.36,2.79,8.57,2.57,11.6-0.49c1.55-1.54,2.35-3.56,2.25-5.67
			C149.9,96.11,148.92,94.18,147.24,92.77z M122.16,63.77h4.42c0.28,0,0.5,0.22,0.5,0.5v11.71l-5.41-4.51l-0.01-7.2
			C121.66,63.99,121.88,63.77,122.16,63.77z M144.72,100.88c-1.5,1.51-4.17,1.61-5.84,0.22l-37.6-31.34c-0.74-0.62-1.82-0.62-2.56,0
			l-37.59,31.35c-0.75,0.63-1.74,0.98-2.8,0.98c-1.16,0-2.28-0.45-3.06-1.21c-0.68-0.69-1.03-1.56-0.99-2.46
			c0.04-0.9,0.48-1.74,1.23-2.37l41.7-34.74c0.78-0.66,1.79-0.98,2.8-0.98c1.01,0,2.02,0.33,2.8,0.99l41.7,34.73l0,0
			c0.75,0.62,1.19,1.46,1.23,2.37C145.77,99.32,145.42,100.19,144.72,100.88z M86.26,136.17h27.4c1.1,0,2-0.9,2-2v-27.59
			c0-1.1-0.9-2-2-2h-27.4c-1.1,0-2,0.9-2,2v27.59C84.26,135.28,85.16,136.17,86.26,136.17z M110.89,131.9h-8.38
			c-0.28,0-0.5-0.22-0.5-0.5l-0.02-8.53c0-0.28,0.22-0.5,0.5-0.5l8.4-0.02c0.28,0,0.5,0.22,0.5,0.5v8.55
			C111.39,131.68,111.17,131.9,110.89,131.9z M111.39,109.35v8.51c0,0.28-0.22,0.5-0.5,0.5l-8.41,0.02c-0.28,0-0.5-0.22-0.5-0.5
			l-0.02-8.52c0-0.28,0.22-0.5,0.5-0.5h8.42C111.17,108.85,111.39,109.07,111.39,109.35z M89.03,108.85h8.44
			c0.28,0,0.5,0.22,0.5,0.5l0.02,8.53c0,0.28-0.22,0.5-0.5,0.5l-8.45,0.02c-0.28,0-0.5-0.22-0.5-0.5v-8.55
			C88.53,109.07,88.75,108.85,89.03,108.85z M89.03,122.4l8.46-0.02c0.28,0,0.5,0.22,0.5,0.5l0.02,8.52c0,0.28-0.22,0.5-0.5,0.5
			h-8.48c-0.28,0-0.5-0.22-0.5-0.5v-8.51C88.53,122.62,88.75,122.4,89.03,122.4z M135.46,127.14c0,1.34-1.09,2.43-2.43,2.43
			c-1.34,0-2.43-1.09-2.43-2.43c0-1.34,1.09-2.43,2.43-2.43C134.37,124.72,135.46,125.8,135.46,127.14z"/>
		<rect x="-0.39" y="-0.05" class="st6" width="200" height="200"/>
	</g>
</g>
</svg>
