<?xml version="1.0" encoding="utf-8"?>
<!-- Generator: Adobe Illustrator 25.0.0, SVG Export Plug-In . SVG Version: 6.00 Build 0)  -->
<svg version="1.1" xmlns="http://www.w3.org/2000/svg" xmlns:xlink="http://www.w3.org/1999/xlink" x="0px" y="0px"
	 viewBox="0 0 200 200" style="enable-background:new 0 0 200 200;" xml:space="preserve">
<style type="text/css">
	.st0{display:none;}
	.st1{display:inline;}
	.st2{fill:none;stroke:#000000;stroke-width:0.1;stroke-miterlimit:10;}
	.st3{fill:#09100C;}
	.st4{fill:#7A7A7A;}
	.st5{fill:#FFFFFF;}
	.st6{fill:none;}
	.st7{fill:#727272;}
	.st8{opacity:0;fill:#FFFFFF;}
	.st9{opacity:0;}
	.st10{fill:#FFFFFF;stroke:#231F20;stroke-miterlimit:10;}
	.st11{stroke:#000000;stroke-width:8;stroke-miterlimit:10;}
	.st12{fill:none;stroke:#000000;stroke-width:8;stroke-miterlimit:10;}
	.st13{fill:none;stroke:#000000;stroke-width:17;stroke-miterlimit:10;}
	.st14{fill:none;stroke:#000000;stroke-width:4;stroke-miterlimit:10;}
	.st15{fill:none;stroke:#000000;stroke-width:3;stroke-miterlimit:10;}
	.st16{fill:#B2B2B2;}
	.st17{fill:none;stroke:#000000;stroke-width:16;stroke-miterlimit:10;}
	.st18{fill:none;stroke:#000000;stroke-width:10;stroke-miterlimit:10;}
	.st19{fill:#171714;}
</style>
<g id="Layer_1" class="st0">
	<g class="st1">
		<rect x="0" y="0" class="st2" width="200" height="200"/>
		<circle class="st2" cx="100.01" cy="100" r="100"/>
		<rect x="50" y="0.03" class="st2" width="100" height="199.95"/>
		<line class="st2" x1="100" y1="0.03" x2="100" y2="199.98"/>
		<rect x="0.02" y="50" class="st2" width="199.95" height="100"/>
		<line class="st2" x1="199.98" y1="100" x2="0.02" y2="100"/>
		<line class="st2" x1="0.07" y1="0.07" x2="199.93" y2="199.93"/>
		<line class="st2" x1="199.98" y1="0.03" x2="0.02" y2="199.98"/>
		<rect x="29.29" y="29.29" class="st2" width="141.41" height="141.41"/>
		<circle class="st2" cx="99.99" cy="100" r="70.71"/>
		<circle class="st2" cx="100" cy="100" r="50"/>
		<circle class="st2" cx="100" cy="100" r="25"/>
	</g>
</g>
<g id="Layer_2">
	<g>
		<g>
			<path d="M77.59,55.07c-3.61,0.01-6.53,2.93-6.54,6.54c0,0.82,0.66,1.48,1.48,1.48c0.82,0,1.48-0.66,1.48-1.48
				c0-1.98,1.61-3.58,3.59-3.59h9.61c0.82,0,1.48-0.66,1.48-1.48c0-0.82-0.66-1.48-1.48-1.48H77.59z"/>
			<path d="M96.05,55.07h-2.62c-0.82,0-1.48,0.66-1.48,1.48c0,0.82,0.66,1.48,1.48,1.48h2.62c0.82,0,1.48-0.66,1.48-1.48
				S96.87,55.07,96.05,55.07L96.05,55.07z"/>
			<path d="M87.94,52.96h8.11c0.82,0,1.48-0.66,1.48-1.48c0-0.82-0.66-1.48-1.48-1.48l0,0h-8.11c-0.82,0-1.48,0.66-1.48,1.48
				C86.47,52.3,87.13,52.96,87.94,52.96z"/>
			<path d="M67.47,63.08c0.82,0,1.48-0.66,1.48-1.47c0,0,0,0,0,0c0.01-4.77,3.87-8.64,8.65-8.65h3.9c0.82,0,1.48-0.66,1.48-1.48
				c0-0.82-0.66-1.48-1.48-1.48h-3.9c-6.4,0.01-11.59,5.2-11.6,11.6C65.99,62.42,66.65,63.08,67.47,63.08z"/>
			<path d="M116.01,55.07c-3.61,0-6.54,2.93-6.54,6.54c0,0.82,0.66,1.48,1.48,1.48c0.82,0,1.48-0.66,1.48-1.48
				c0-1.98,1.61-3.58,3.59-3.59h4.45c0.82,0,1.48-0.66,1.48-1.48c0-0.82-0.66-1.48-1.48-1.48l0,0H116.01z"/>
			<path d="M125.21,56.54c0,0.82,0.66,1.48,1.48,1.48c0,0,0,0,0,0h7.78c0.82,0,1.48-0.66,1.48-1.48c0-0.82-0.66-1.48-1.48-1.48
				h-7.78C125.87,55.07,125.21,55.73,125.21,56.54C125.21,56.54,125.21,56.54,125.21,56.54z"/>
			<path d="M132.44,52.96h2.03c0.82,0,1.48-0.66,1.48-1.48S135.29,50,134.47,50h-2.03c-0.82,0-1.48,0.66-1.48,1.48
				C130.96,52.3,131.62,52.96,132.44,52.96z"/>
			<path d="M105.88,63.08c0.82,0,1.48-0.66,1.48-1.48c0.01-4.78,3.87-8.64,8.65-8.65h8.3c0.82,0,1.48-0.66,1.48-1.48
				c0-0.82-0.66-1.48-1.48-1.48h-8.3c-6.41,0.01-11.6,5.2-11.6,11.6C104.41,62.42,105.07,63.08,105.88,63.08
				C105.88,63.08,105.88,63.08,105.88,63.08z"/>
			<path d="M138.4,98.94c-0.82,0-1.48,0.66-1.48,1.48v5.06c0,0.82,0.66,1.48,1.48,1.48s1.48-0.66,1.48-1.48v-5.06
				C139.87,99.6,139.21,98.94,138.4,98.94z"/>
			<path d="M148.52,141.99h-3.59V89.58l3.76-0.45c0.81-0.12,1.37-0.86,1.25-1.67c-0.11-0.78-0.82-1.34-1.6-1.26l-30.08,3.61
				l-0.81-16.99c0.53-0.24,0.87-0.76,0.87-1.35v-5.06c0-0.82-0.66-1.48-1.48-1.48H99.98c-0.82,0-1.48,0.66-1.48,1.48v5.06
				c0,0.58,0.34,1.11,0.88,1.35L98.46,92.2L80.07,94.4l-1.02-21.59c0.53-0.24,0.87-0.76,0.87-1.34v-5.06c0-0.82-0.66-1.48-1.48-1.48
				H61.56c-0.82,0-1.48,0.66-1.48,1.48v5.06c0,0.58,0.35,1.11,0.88,1.35l-2.69,56.5h-1.12c-0.79,0-1.44,0.62-1.48,1.41l-0.54,11.25
				h-3.66c-0.82,0-1.48,0.66-1.48,1.48c0,0,0,0,0,0v5.06c0,0.82,0.66,1.48,1.48,1.48c0,0,0,0,0,0h97.05c0.82,0,1.48-0.66,1.48-1.48
				c0,0,0,0,0,0v-5.06C150,142.65,149.34,141.99,148.52,141.99C148.52,141.99,148.52,141.99,148.52,141.99z M133.7,141.99v-15.4
				c0-0.82-0.66-1.48-1.48-1.48h-10.13c-0.81,0-1.48,0.66-1.48,1.48v0v15.4h-2.28v-15.4c0-0.82-0.66-1.48-1.48-1.48h-10.13
				c-0.81,0-1.48,0.66-1.48,1.48v0v15.4H71.48V98.86c0-0.25,0.19-0.47,0.44-0.5l69.51-8.35c0.3-0.04,0.56,0.2,0.56,0.5v51.49H133.7z
				 M130.74,141.99h-7.17v-13.42c0-0.28,0.22-0.5,0.5-0.5h6.17c0.28,0,0.5,0.22,0.5,0.5V141.99z M115.38,141.99h-7.17v-13.42
				c0-0.28,0.22-0.5,0.5-0.5h6.17c0.28,0,0.5,0.22,0.5,0.5V141.99z M101.96,67.89h12.92c0.28,0,0.5,0.22,0.5,0.5v1.11
				c0,0.28-0.22,0.5-0.5,0.5h-12.92c-0.28,0-0.5-0.22-0.5-0.5v-1.11C101.46,68.11,101.68,67.89,101.96,67.89z M102.81,72.95h11.22
				c0.27,0,0.49,0.21,0.5,0.48l0.8,16.74l-13.89,1.67l0.88-18.41C102.33,73.16,102.54,72.95,102.81,72.95z M63.54,67.89h12.92
				c0.28,0,0.5,0.22,0.5,0.5v1.11c0,0.28-0.22,0.5-0.5,0.5H63.54c-0.28,0-0.5-0.22-0.5-0.5l0-1.11
				C63.04,68.11,63.27,67.89,63.54,67.89z M64.4,72.95h11.22c0.27,0,0.49,0.21,0.5,0.48l1.01,21.33l-12.37,1.49
				c-0.81,0.1-1.39,0.84-1.29,1.65c0.09,0.74,0.72,1.29,1.46,1.3c0.06,0,0.12,0,0.18-0.01l3.41-0.41v30.56h-7.3l2.67-55.9
				C63.91,73.16,64.13,72.95,64.4,72.95z M59.03,132.28h8.99c0.28,0,0.5,0.22,0.5,0.5v9.2H58.09l0.44-9.23
				C58.55,132.49,58.77,132.28,59.03,132.28z M147.05,147.05H52.95v-2.11h94.09V147.05z"/>
			<path d="M97,120.19H80.12c-0.82,0-1.48,0.66-1.48,1.48s0.66,1.48,1.48,1.48H97c0.82,0,1.48-0.66,1.48-1.48
				S97.82,120.19,97,120.19L97,120.19z"/>
			<path d="M97,110.06H80.12c-0.82,0-1.48,0.66-1.48,1.48c0,0.82,0.66,1.48,1.48,1.48H97c0.82,0,1.48-0.66,1.48-1.48
				C98.48,110.72,97.82,110.06,97,110.06L97,110.06z"/>
			<path d="M97,115.12H80.12c-0.82,0-1.48,0.66-1.48,1.48s0.66,1.48,1.48,1.48H97c0.82,0,1.48-0.66,1.48-1.48
				S97.82,115.12,97,115.12L97,115.12z"/>
			<path d="M114.33,112.59h-5.06c-0.82,0-1.48,0.66-1.48,1.48c0,0,0,0,0,0v5.06c0,0.82,0.66,1.48,1.48,1.48c0,0,0,0,0,0h5.06
				c0.82,0,1.48-0.66,1.48-1.48v-5.06C115.8,113.25,115.14,112.59,114.33,112.59z M112.35,117.66h-1.11c-0.28,0-0.5-0.22-0.5-0.5
				v-1.11c0-0.28,0.22-0.5,0.5-0.5h1.11c0.28,0,0.5,0.22,0.5,0.5v1.11C112.85,117.43,112.63,117.66,112.35,117.66z"/>
			<path d="M129.69,112.59h-5.06c-0.82,0-1.48,0.66-1.48,1.48c0,0,0,0,0,0v5.06c0,0.82,0.66,1.48,1.48,1.48c0,0,0,0,0,0h5.06
				c0.82,0,1.48-0.66,1.48-1.48v-5.06C131.17,113.25,130.5,112.59,129.69,112.59z M127.71,117.66h-1.11c-0.28,0-0.5-0.22-0.5-0.5
				v-1.11c0-0.28,0.22-0.5,0.5-0.5h1.11c0.28,0,0.5,0.22,0.5,0.5v1.11C128.21,117.43,127.99,117.66,127.71,117.66z"/>
		</g>
		<rect x="-0.26" class="st6" width="200" height="200"/>
	</g>
</g>
</svg>
