<?xml version="1.0" encoding="utf-8"?>
<!-- Generator: Adobe Illustrator 25.0.0, SVG Export Plug-In . SVG Version: 6.00 Build 0)  -->
<svg version="1.1" xmlns="http://www.w3.org/2000/svg" xmlns:xlink="http://www.w3.org/1999/xlink" x="0px" y="0px"
	 viewBox="0 0 200 200" style="enable-background:new 0 0 200 200;" xml:space="preserve">
<style type="text/css">
	.st0{display:none;}
	.st1{display:inline;}
	.st2{fill:none;stroke:#000000;stroke-width:0.1;stroke-miterlimit:10;}
	.st3{fill:#09100C;}
	.st4{fill:#7A7A7A;}
	.st5{fill:#FFFFFF;}
	.st6{fill:none;}
	.st7{fill:#727272;}
	.st8{opacity:0;fill:#FFFFFF;}
	.st9{opacity:0;}
	.st10{fill:#FFFFFF;stroke:#231F20;stroke-miterlimit:10;}
	.st11{stroke:#000000;stroke-width:8;stroke-miterlimit:10;}
	.st12{fill:none;stroke:#000000;stroke-width:8;stroke-miterlimit:10;}
	.st13{fill:none;stroke:#000000;stroke-width:17;stroke-miterlimit:10;}
	.st14{fill:none;stroke:#000000;stroke-width:4;stroke-miterlimit:10;}
	.st15{fill:none;stroke:#000000;stroke-width:3;stroke-miterlimit:10;}
	.st16{fill:#B2B2B2;}
	.st17{fill:none;stroke:#000000;stroke-width:16;stroke-miterlimit:10;}
	.st18{fill:none;stroke:#000000;stroke-width:10;stroke-miterlimit:10;}
	.st19{fill:#171714;}
</style>
<g id="Layer_1" class="st0">
	<g class="st1">
		<rect x="0" y="0" class="st2" width="200" height="200"/>
		<circle class="st2" cx="100" cy="100" r="100"/>
		<rect x="50" y="0.03" class="st2" width="100" height="199.95"/>
		<line class="st2" x1="100" y1="0.03" x2="100" y2="199.98"/>
		<rect x="0.02" y="50" class="st2" width="199.95" height="100"/>
		<line class="st2" x1="199.97" y1="100" x2="0.02" y2="100"/>
		<line class="st2" x1="0.07" y1="0.07" x2="199.93" y2="199.93"/>
		<line class="st2" x1="199.97" y1="0.03" x2="0.02" y2="199.98"/>
		<rect x="29.28" y="29.29" class="st2" width="141.41" height="141.41"/>
		<circle class="st2" cx="99.99" cy="100" r="70.71"/>
		<circle class="st2" cx="100" cy="100" r="50"/>
		<circle class="st2" cx="100" cy="100" r="25"/>
	</g>
</g>
<g id="Layer_2">
	<g>
		<g>
			<path class="st3" d="M121.96,142.24H78.38c-1.06,0-1.92-0.88-1.92-1.94c0-1.06,0.86-1.94,1.92-1.94h43.59
				c1.06,0,1.92,0.88,1.92,1.94C123.88,141.35,123.02,142.24,121.96,142.24L121.96,142.24z"/>
			<path class="st3" d="M129.65,150.01H70.68c-1.06,0-1.92-0.88-1.92-1.94c0-1.06,0.86-1.94,1.92-1.94h58.97
				c1.06,0,1.92,0.88,1.92,1.94C131.58,149.13,130.71,150.01,129.65,150.01L129.65,150.01z"/>
			<path class="st3" d="M138.45,131h-3.85v-30.77h3.85V131L138.45,131z M130.76,131h-5.13v-30.77h5.13V131L130.76,131z M121.78,131
				h-5.13v-30.77h5.13V131L121.78,131z M112.81,131h-3v-15.68c0-5-3.88-9.05-8.67-9.05h-0.13c-4.78,0-8.67,4.05-8.67,9.05V131h-5.18
				v-30.77h25.64V131L112.81,131z M105.96,131H96.2v-15.68c0-2.87,2.15-5.2,4.82-5.2h0.13c2.65,0,4.82,2.33,4.82,5.2V131L105.96,131
				z M83.33,131H78.2v-30.77h5.13V131L83.33,131z M74.35,131h-5.13v-30.77h5.13V131L74.35,131z M65.38,131h-3.85v-30.77h3.85V131
				L65.38,131z M145,131h-2.71v-30.77h2.56c1.06,0,1.92-0.86,1.92-1.92c0-1.06-0.86-1.92-1.92-1.92H55.12
				c-1.06,0-1.92,0.86-1.92,1.92c0,1.06,0.86,1.92,1.92,1.92h2.56V131h-2.12L50,139.5v9.45c0,1.06,0.86,1.92,1.92,1.92
				c1.06,0,1.92-0.86,1.92-1.92v-8.31l3.81-5.79h84.99l3.5,6.83v7.27c0,1.06,0.86,1.92,1.92,1.92c1.06,0,1.92-0.86,1.92-1.92v-8.2
				L145,131L145,131z"/>
			<path class="st3" d="M144.36,90.84H55.91c-1.06,0-1.92-0.67-1.92-1.73c0-1.06,0.86-1.73,1.92-1.73h88.45
				c1.06,0,1.92,0.67,1.92,1.73C146.28,90.17,145.42,90.84,144.36,90.84L144.36,90.84z"/>
			<path class="st3" d="M101.91,56.65h8.97v3.85h-8.97V56.65L101.91,56.65z M140.42,80.9l-38.53-12.61v-3.95h12.84V52.61h-12.82
				c0-1.26-0.86-2.37-1.92-2.37c-1.06,0-1.87,1.11-1.87,2.37v15.68L60.39,80.9c-1,0.33-1.55,1.42-1.22,2.42
				c0.33,1.01,1.41,1.56,2.42,1.23l38.82-12.83l38.8,12.83c1.02,0.32,2.1-0.22,2.44-1.23C141.99,82.33,141.44,81.24,140.42,80.9
				L140.42,80.9z"/>
		</g>
		<rect y="-0.05" class="st6" width="200" height="200"/>
	</g>
</g>
</svg>
