<?xml version="1.0" encoding="utf-8"?>
<!-- Generator: Adobe Illustrator 25.0.0, SVG Export Plug-In . SVG Version: 6.00 Build 0)  -->
<svg version="1.1" xmlns="http://www.w3.org/2000/svg" xmlns:xlink="http://www.w3.org/1999/xlink" x="0px" y="0px"
	 viewBox="0 0 200 200" style="enable-background:new 0 0 200 200;" xml:space="preserve">
<style type="text/css">
	.st0{display:none;}
	.st1{display:inline;}
	.st2{fill:none;stroke:#000000;stroke-width:0.1;stroke-miterlimit:10;}
	.st3{fill:#09100C;}
	.st4{fill:#7A7A7A;}
	.st5{fill:#FFFFFF;}
	.st6{fill:none;}
	.st7{fill:#727272;}
	.st8{opacity:0;fill:#FFFFFF;}
	.st9{opacity:0;}
	.st10{fill:#FFFFFF;stroke:#231F20;stroke-miterlimit:10;}
	.st11{stroke:#000000;stroke-width:8;stroke-miterlimit:10;}
	.st12{fill:none;stroke:#000000;stroke-width:8;stroke-miterlimit:10;}
	.st13{fill:none;stroke:#000000;stroke-width:17;stroke-miterlimit:10;}
	.st14{fill:none;stroke:#000000;stroke-width:4;stroke-miterlimit:10;}
	.st15{fill:none;stroke:#000000;stroke-width:3;stroke-miterlimit:10;}
	.st16{fill:#B2B2B2;}
	.st17{fill:none;stroke:#000000;stroke-width:16;stroke-miterlimit:10;}
	.st18{fill:none;stroke:#000000;stroke-width:10;stroke-miterlimit:10;}
	.st19{fill:#171714;}
</style>
<g id="Layer_1" class="st0">
	<g class="st1">
		<rect x="0.01" y="0" class="st2" width="200" height="200"/>
		<circle class="st2" cx="100.02" cy="100" r="100"/>
		<rect x="50.01" y="0.03" class="st2" width="100" height="199.95"/>
		<line class="st2" x1="100.01" y1="0.03" x2="100.01" y2="199.98"/>
		<rect x="0.03" y="50" class="st2" width="199.95" height="100"/>
		<line class="st2" x1="199.99" y1="100" x2="0.03" y2="100"/>
		<line class="st2" x1="0.08" y1="0.07" x2="199.94" y2="199.93"/>
		<line class="st2" x1="199.99" y1="0.03" x2="0.03" y2="199.98"/>
		<rect x="29.3" y="29.29" class="st2" width="141.41" height="141.41"/>
		<circle class="st2" cx="100" cy="100" r="70.71"/>
		<circle class="st2" cx="100.01" cy="100" r="50"/>
		<circle class="st2" cx="100.01" cy="100" r="25"/>
	</g>
</g>
<g id="Layer_2">
	<g>
		<g>
			<path d="M142.68,81h-6.64c-0.81,0-1.46,0.66-1.46,1.46c0,0.81,0.66,1.46,1.46,1.46h6.64c2.42,0,4.39,1.97,4.39,4.39v58.66
				c0,0.05-0.04,0.1-0.1,0.1h-16.3v-5.86h7.48c1.66,0,3.02-1.35,3.03-3.01l0.03-7.21c0.02-1.66-1.38-3.05-3.03-3.04h-7.52v-5.77
				h7.48c1.66,0,3.02-1.35,3.03-3.01l0.03-7.21c0.02-1.66-1.38-3.05-3.03-3.04h-7.52v-5.86h7.48c1.66,0,3.02-1.35,3.03-3.01
				l0.03-7.21c0.02-1.65-1.38-3.05-3.03-3.04h-7.52V74.62c0-4.04-3.29-7.32-7.32-7.32h-4.65c-0.75-9.66-8.85-17.28-18.69-17.28
				S82.06,57.64,81.31,67.3h-4.74c-4.04,0-7.32,3.29-7.32,7.32V81H57.33c-4.04,0-7.32,3.29-7.32,7.32v58.66
				c0,1.67,1.36,3.03,3.03,3.03h93.94c1.67,0,3.03-1.36,3.03-3.03V88.32C150,84.28,146.72,81,142.68,81L142.68,81z M138.25,99.62
				c0,0.28-0.22,0.5-0.5,0.5h-7.08l0-7.41h7.08c0.28,0,0.5,0.22,0.5,0.5V99.62z M138.25,118.75c0,0.28-0.22,0.5-0.5,0.5h-7.08
				l0-7.41h7.11c0.28,0,0.5,0.23,0.5,0.5L138.25,118.75z M138.25,137.79c0,0.28-0.22,0.5-0.5,0.5h-7.08l0-7.41h7.11
				c0.28,0,0.5,0.23,0.5,0.5L138.25,137.79z M62.23,130.88h7.02v7.41h-6.99c-0.28,0-0.5-0.22-0.5-0.5l-0.03-6.41
				C61.73,131.1,61.95,130.88,62.23,130.88z M62.23,111.84h7.02v7.41h-6.99c-0.28,0-0.5-0.22-0.5-0.5l-0.03-6.41
				C61.73,112.06,61.95,111.84,62.23,111.84z M62.23,92.71h7.02v7.41h-6.99c-0.28,0-0.5-0.22-0.5-0.5l-0.03-6.41
				C61.73,92.94,61.95,92.71,62.23,92.71z M69.25,89.78h-7.42c-1.66-0.01-3.04,1.39-3.03,3.04l0.03,7.21
				c0.01,1.66,1.37,3.01,3.03,3.01h7.39v5.86h-7.42c-1.66-0.01-3.04,1.39-3.03,3.04l0.03,7.21c0.01,1.66,1.37,3.01,3.03,3.01h7.39
				v5.77h-7.42c-1.66-0.01-3.04,1.39-3.03,3.04l0.03,7.21c0.01,1.66,1.37,3.01,3.03,3.01h7.39v5.86H53.04c-0.05,0-0.1-0.04-0.1-0.1
				V88.32c0-2.42,1.97-4.39,4.39-4.39h11.91V89.78z M100.01,52.94c8.72,0,15.82,7.1,15.82,15.82s-7.1,15.82-15.82,15.82
				s-15.82-7.1-15.82-15.82S91.28,52.94,100.01,52.94z M113.09,147.08h-11.62v-25.29c0-0.28,0.22-0.5,0.5-0.5h10.62
				c0.28,0,0.5,0.22,0.5,0.5V147.08z M83.99,117.85v-1.93c0-0.28,0.22-0.5,0.5-0.5h31.04c0.28,0,0.5,0.22,0.5,0.5v1.93
				c0,0.28-0.22,0.5-0.5,0.5H84.49C84.21,118.35,83.99,118.13,83.99,117.85z M127.74,147.08h-11.72v-25.79
				c1.53,0.09,2.94-1.03,2.93-2.64v-3.52c0-1.46-1.18-2.64-2.64-2.64H83.69c-1.46,0-2.64,1.18-2.64,2.64v3.52
				c-0.01,1.54,1.37,2.8,2.93,2.64v10.37c0,0.81,0.66,1.46,1.46,1.46c0.81,0,1.46-0.66,1.46-1.46v-9.87c0-0.28,0.22-0.5,0.5-0.5
				h10.62c0.28,0,0.5,0.22,0.5,0.5v25.29H86.92v-8.59c0-0.81-0.66-1.46-1.46-1.46c-0.81,0-1.46,0.66-1.46,1.46v8.59H72.18V74.62
				c0-2.43,1.97-4.39,4.39-4.39h4.74c0.75,9.66,8.85,17.28,18.69,17.28s17.94-7.63,18.69-17.28h4.65c2.43,0,4.39,1.97,4.39,4.39
				L127.74,147.08z M95.61,73.16v5.86c0,1.45,1.18,2.64,2.64,2.64h3.52c1.45,0,2.64-1.18,2.64-2.64v-5.86h5.86
				c1.45,0,2.64-1.18,2.64-2.64V67c0-1.45-1.18-2.64-2.64-2.64h-5.86v-5.86c0-1.45-1.18-2.64-2.64-2.64h-3.52
				c-1.45,0-2.64,1.18-2.64,2.64v5.86h-5.86c-1.45,0-2.64,1.18-2.64,2.64v3.52c0,1.45,1.18,2.64,2.64,2.64H95.61z M90.55,67.3h5.94
				c1.13,0,2.05-0.92,2.05-2.05V59.3c0-0.28,0.22-0.5,0.5-0.5h1.93c0.28,0,0.5,0.22,0.5,0.5v5.94c0,1.13,0.92,2.05,2.05,2.05h5.94
				c0.28,0,0.5,0.22,0.5,0.5v1.93c0,0.28-0.22,0.5-0.5,0.5h-5.94c-1.13,0-2.05,0.92-2.05,2.05v5.94c0,0.28-0.22,0.5-0.5,0.5h-1.93
				c-0.28,0-0.5-0.22-0.5-0.5v-5.94c0-1.13-0.92-2.05-2.05-2.05h-5.94c-0.28,0-0.5-0.22-0.5-0.5V67.8
				C90.05,67.52,90.27,67.3,90.55,67.3z M94.15,137.14c0.81,0,1.46-0.66,1.46-1.46v-3c0-0.81-0.66-1.46-1.46-1.46
				c-0.81,0-1.46,0.66-1.46,1.46v3C92.68,136.49,93.34,137.14,94.15,137.14z M94.05,93.37H81.1c-1.66,0-3.02,1.35-3.03,3.01
				l-0.03,7.21c-0.02,1.65,1.37,3.05,3.03,3.04h12.98c1.67,0,3.03-1.36,3.03-3.03V96.4C97.08,94.73,95.72,93.37,94.05,93.37
				L94.05,93.37z M93.65,103.71H81.47c-0.28,0-0.5-0.23-0.5-0.5L81,96.8c0-0.28,0.22-0.5,0.5-0.5h12.14c0.28,0,0.5,0.22,0.5,0.5
				v6.41C94.15,103.48,93.92,103.71,93.65,103.71z M105.86,137.14c0.81,0,1.46-0.66,1.46-1.46v-3c0-0.81-0.66-1.46-1.46-1.46
				s-1.46,0.66-1.46,1.46v3C104.4,136.49,105.06,137.14,105.86,137.14z M118.9,93.37h-12.93c-1.67,0-3.03,1.36-3.03,3.03v7.21
				c0,1.67,1.36,3.03,3.03,3.03h12.9c1.66,0,3.02-1.35,3.03-3.01l0.03-7.21C121.94,94.75,120.55,93.36,118.9,93.37z M118.46,103.71
				h-12.1c-0.28,0-0.5-0.22-0.5-0.5V96.8c0-0.28,0.22-0.5,0.5-0.5h12.13c0.28,0,0.5,0.23,0.5,0.5l-0.03,6.41
				C118.96,103.48,118.74,103.71,118.46,103.71z"/>
		</g>
		<rect x="-0.52" class="st6" width="200" height="200"/>
	</g>
</g>
</svg>
