<?xml version="1.0" encoding="utf-8"?>
<!-- Generator: Adobe Illustrator 25.0.0, SVG Export Plug-In . SVG Version: 6.00 Build 0)  -->
<svg version="1.1" xmlns="http://www.w3.org/2000/svg" xmlns:xlink="http://www.w3.org/1999/xlink" x="0px" y="0px"
	 viewBox="0 0 200 200" style="enable-background:new 0 0 200 200;" xml:space="preserve">
<style type="text/css">
	.st0{display:none;}
	.st1{display:inline;}
	.st2{fill:none;stroke:#000000;stroke-width:0.1;stroke-miterlimit:10;}
	.st3{fill:#09100C;}
	.st4{fill:#7A7A7A;}
	.st5{fill:#FFFFFF;}
	.st6{fill:none;}
	.st7{fill:#727272;}
	.st8{opacity:0;fill:#FFFFFF;}
	.st9{opacity:0;}
	.st10{fill:#FFFFFF;stroke:#231F20;stroke-miterlimit:10;}
	.st11{stroke:#000000;stroke-width:8;stroke-miterlimit:10;}
	.st12{fill:none;stroke:#000000;stroke-width:8;stroke-miterlimit:10;}
	.st13{fill:none;stroke:#000000;stroke-width:17;stroke-miterlimit:10;}
	.st14{fill:none;stroke:#000000;stroke-width:4;stroke-miterlimit:10;}
	.st15{fill:none;stroke:#000000;stroke-width:3;stroke-miterlimit:10;}
	.st16{fill:#B2B2B2;}
	.st17{fill:none;stroke:#000000;stroke-width:16;stroke-miterlimit:10;}
	.st18{fill:none;stroke:#000000;stroke-width:10;stroke-miterlimit:10;}
	.st19{fill:#171714;}
</style>
<g id="Layer_1" class="st0">
	<g class="st1">
		<rect x="0" y="0" class="st2" width="200" height="200"/>
		<circle class="st2" cx="100" cy="100" r="100"/>
		<rect x="50" y="0.03" class="st2" width="100" height="199.95"/>
		<line class="st2" x1="100" y1="0.03" x2="100" y2="199.98"/>
		<rect x="0.02" y="50" class="st2" width="199.95" height="100"/>
		<line class="st2" x1="199.97" y1="100" x2="0.02" y2="100"/>
		<line class="st2" x1="0.07" y1="0.07" x2="199.93" y2="199.93"/>
		<line class="st2" x1="199.97" y1="0.03" x2="0.02" y2="199.98"/>
		<rect x="29.28" y="29.29" class="st2" width="141.41" height="141.41"/>
		<circle class="st2" cx="99.99" cy="100" r="70.71"/>
		<circle class="st2" cx="100" cy="100" r="50"/>
		<circle class="st2" cx="100" cy="100" r="25"/>
	</g>
</g>
<g id="Layer_2">
	<g>
		<g>
			<g>
				<path d="M78.03,123.76H75.9c-0.28,0-0.5-0.22-0.5-0.5v-2.13c0-0.28,0.22-0.5,0.5-0.5h2.13c0.28,0,0.5,0.22,0.5,0.5v2.13
					C78.53,123.53,78.3,123.76,78.03,123.76z M71.78,123.76h-2.13c-0.28,0-0.5-0.22-0.5-0.5v-2.13c0-0.28,0.22-0.5,0.5-0.5h2.13
					c0.28,0,0.5,0.22,0.5,0.5v2.13C72.28,123.53,72.05,123.76,71.78,123.76z M65.53,123.76H63.4c-0.28,0-0.5-0.22-0.5-0.5v-2.13
					c0-0.28,0.22-0.5,0.5-0.5h2.13c0.28,0,0.5,0.22,0.5,0.5v2.13C66.03,123.53,65.8,123.76,65.53,123.76z"/>
			</g>
			<g>
				<path d="M145.28,146.87v-15.53c0-0.86-0.7-1.56-1.56-1.56l0,0c-0.86,0-1.56,0.7-1.56,1.56v2.03c0,0.55-0.45,1-1,1h-26.11
					c-0.55,0-1-0.45-1-1v-15.28c0-0.55,0.45-1,1-1h26.11c0.55,0,1,0.45,1,1v7.01c0,0.86,0.7,1.56,1.56,1.56l0,0
					c0.86,0,1.56-0.7,1.56-1.56v-17.24c1.94-1.97,3.14-4.68,3.14-7.66v-3.32l-6.4-25.61c-0.11-0.45-0.51-0.76-0.97-0.76h-14.67
					c-0.72-6.32-3.67-12.15-8.38-16.49c-0.67-0.61-1.72-0.55-2.29,0.16l0,0c-0.52,0.63-0.46,1.56,0.14,2.12
					c4.83,4.44,7.57,10.64,7.57,17.24c0,8.97-5.07,16.78-12.5,20.71l0-12.37c3.94-0.68,6.25-3.98,6.25-9.14
					c0-6.54-3.43-11.67-7.81-11.67c-4.38,0-7.81,5.12-7.81,11.67c0,5.16,2.31,8.47,6.25,9.14l0,13.75c0,0,0,0,0,0
					c-2.44,0.87-5.07,1.34-7.8,1.34c-2.74,0-5.37-0.47-7.81-1.34l0.01-15.74h0.52c3.16,0,5.73-2.57,5.73-5.73v-9.9
					c0-0.86-0.7-1.56-1.56-1.56h0c-0.86,0-1.56,0.7-1.56,1.56v2.62c0,0.28-0.22,0.5-0.5,0.5h-2.13c-0.28,0-0.5-0.22-0.5-0.5v-2.61
					c0-0.86-0.7-1.56-1.56-1.56l0,0c-0.86,0-1.56,0.7-1.56,1.56v2.61c0,0.28-0.22,0.5-0.5,0.5h-1.98c-0.36,0-0.65-0.29-0.65-0.65
					v-2.47c0-0.86-0.7-1.56-1.56-1.56l0,0c-0.86,0-1.56,0.7-1.56,1.56v9.9c0,3.16,2.57,5.73,5.73,5.73h0.52l-0.01,14.36
					C81.39,90.19,76.24,82,76.58,72.67c0.38-10.47,7.81-19.58,18.01-21.94c5.71-1.32,11.55-0.5,16.51,2.18
					c0.72,0.39,1.62,0.14,2.05-0.55v0c0.48-0.77,0.21-1.78-0.59-2.21c-3.85-2.07-8.16-3.16-12.57-3.16
					c-13.62,0-24.87,10.3-26.38,23.52h-14.7c-0.46,0-0.86,0.31-0.97,0.76l-6.4,25.61v3.32c0,2.98,1.2,5.68,3.14,7.66v39.01h-3.11
					c-0.86,0-1.56,0.7-1.56,1.56v0c0,0.86,0.7,1.56,1.56,1.56h96.86c0.86,0,1.56-0.7,1.56-1.56v0c0-0.86-0.7-1.56-1.56-1.56H145.28z
					 M145.29,100.2c0,4.31-3.5,7.81-7.81,7.81c-4.31,0-7.81-3.5-7.81-7.81h-0.04l-0.17-1.56h15.83V100.2z M139.48,74.01l5.38,21.5
					h-15.74l-2.33-21.33c-0.03-0.3,0.2-0.55,0.5-0.55h11.72C139.22,73.64,139.42,73.79,139.48,74.01z M124.64,83.39l1.33,12.13
					h-11.1C119.22,92.56,122.66,88.34,124.64,83.39z M126.31,98.64l0.22,1.97c-0.22,4.12-3.63,7.4-7.8,7.4
					c-4.22,0-7.67-3.37-7.81-7.56l0-1.81L126.31,98.64L126.31,98.64z M104.67,72.74c0-4.04,1.93-8.54,4.69-8.54s4.69,4.5,4.69,8.54
					c0,4.08-1.58,6.15-4.69,6.15S104.67,76.82,104.67,72.74z M99.99,100.09c2.72,0,5.34-0.41,7.81-1.17l0,1.28h-0.01
					c0,4.31-3.5,7.81-7.81,7.81c-4.15,0-7.57-3.24-7.8-7.37l0-1.72C94.64,99.68,97.27,100.09,99.99,100.09L99.99,100.09z
					 M88.53,76.76c-1.44,0-2.6-1.17-2.6-2.6V71c0-0.28,0.22-0.5,0.5-0.5h8.38c0.28,0,0.5,0.22,0.5,0.5v3.16c0,1.44-1.17,2.6-2.6,2.6
					H88.53z M90.61,105.86c1.92,3.17,5.41,5.27,9.36,5.27c3.97,0,7.46-2.13,9.38-5.31c1.92,3.18,5.4,5.31,9.38,5.31
					s7.46-2.13,9.38-5.31c1.92,3.18,5.4,5.31,9.38,5.31c1.67,0,3.26-0.38,4.67-1.05v3.38c0,0.28-0.22,0.5-0.5,0.5H58.3
					c-0.28,0-0.5-0.22-0.5-0.5v-3.38c1.42,0.67,3,1.05,4.67,1.05c3.98,0,7.48-2.14,9.39-5.33c1.91,3.19,5.41,5.33,9.39,5.33
					C85.21,111.14,88.69,109.04,90.61,105.86z M73.43,100.05l0.16-1.41h6.09c0.86,0,1.56-0.7,1.56-1.56v0c0-0.86-0.7-1.56-1.56-1.56
					h-5.75L75.3,83.3c2.54,6.4,7.5,11.59,13.75,14.43l0,2.91c-0.27,4.8-4.82,8.38-9.84,7.11c-3.44-0.87-5.78-4.08-5.78-7.63V100.05z
					 M60.96,73.64h11.71c0.3,0,0.53,0.26,0.5,0.56l-2.37,21.33h-15.7l5.38-21.5C60.53,73.79,60.73,73.64,60.96,73.64z M54.66,100.2
					v-1.56h15.63v1.56c0,4.31-3.5,7.81-7.81,7.81S54.66,104.51,54.66,100.2z M85.42,146.87H58.3c-0.28,0-0.5-0.22-0.5-0.5v-8.38
					c0-0.28,0.22-0.5,0.5-0.5h27.13c0.28,0,0.5,0.22,0.5,0.5v8.38C85.92,146.65,85.7,146.87,85.42,146.87z M85.42,134.37H58.3
					c-0.28,0-0.5-0.22-0.5-0.5v-16.28c0-0.28,0.22-0.5,0.5-0.5h27.13c0.28,0,0.5,0.22,0.5,0.5v16.28
					C85.92,134.15,85.7,134.37,85.42,134.37z M109.9,146.87H90.05c-0.55,0-1-0.45-1-1v-8.38v-19.41c0-0.55,0.45-1,1-1h19.85
					c0.55,0,1,0.45,1,1v27.78C110.9,146.42,110.45,146.87,109.9,146.87z M141.65,146.87h-27.13c-0.28,0-0.5-0.22-0.5-0.5v-8.38
					c0-0.28,0.22-0.5,0.5-0.5h27.13c0.28,0,0.5,0.22,0.5,0.5v8.38C142.15,146.65,141.93,146.87,141.65,146.87z"/>
				<path d="M95.79,128.13h2.13c0.28,0,0.5,0.22,0.5,0.5v5.25c0,0.28-0.22,0.5-0.5,0.5h-2.13c-0.28,0-0.5-0.22-0.5-0.5v-5.25
					C95.29,128.35,95.51,128.13,95.79,128.13z"/>
				<path d="M102.04,128.13h2.13c0.28,0,0.5,0.22,0.5,0.5v5.25c0,0.28-0.22,0.5-0.5,0.5h-2.13c-0.28,0-0.5-0.22-0.5-0.5v-5.25
					C101.54,128.35,101.76,128.13,102.04,128.13z"/>
			</g>
		</g>
		<rect class="st6" width="200" height="200"/>
	</g>
</g>
</svg>
