<?xml version="1.0" encoding="utf-8"?>
<!-- Generator: Adobe Illustrator 25.0.0, SVG Export Plug-In . SVG Version: 6.00 Build 0)  -->
<svg version="1.1" xmlns="http://www.w3.org/2000/svg" xmlns:xlink="http://www.w3.org/1999/xlink" x="0px" y="0px"
	 viewBox="0 0 200 200" style="enable-background:new 0 0 200 200;" xml:space="preserve">
<style type="text/css">
	.st0{display:none;}
	.st1{display:inline;}
	.st2{fill:none;stroke:#000000;stroke-width:0.1;stroke-miterlimit:10;}
	.st3{fill:#09100C;}
	.st4{fill:#7A7A7A;}
	.st5{fill:#FFFFFF;}
	.st6{fill:none;}
	.st7{fill:#727272;}
	.st8{opacity:0;fill:#FFFFFF;}
	.st9{opacity:0;}
	.st10{fill:#FFFFFF;stroke:#231F20;stroke-miterlimit:10;}
	.st11{stroke:#000000;stroke-width:8;stroke-miterlimit:10;}
	.st12{fill:none;stroke:#000000;stroke-width:8;stroke-miterlimit:10;}
	.st13{fill:none;stroke:#000000;stroke-width:17;stroke-miterlimit:10;}
	.st14{fill:none;stroke:#000000;stroke-width:4;stroke-miterlimit:10;}
	.st15{fill:none;stroke:#000000;stroke-width:3;stroke-miterlimit:10;}
	.st16{fill:#B2B2B2;}
	.st17{fill:none;stroke:#000000;stroke-width:16;stroke-miterlimit:10;}
	.st18{fill:none;stroke:#000000;stroke-width:10;stroke-miterlimit:10;}
	.st19{fill:#171714;}
</style>
<g id="Layer_1" class="st0">
	<g class="st1">
		<rect x="0" y="0" class="st2" width="200" height="200"/>
		<circle class="st2" cx="100.01" cy="100" r="100"/>
		<rect x="50" y="0.03" class="st2" width="100" height="199.95"/>
		<line class="st2" x1="100" y1="0.03" x2="100" y2="199.98"/>
		<rect x="0.03" y="50" class="st2" width="199.95" height="100"/>
		<line class="st2" x1="199.98" y1="100" x2="0.03" y2="100"/>
		<line class="st2" x1="0.07" y1="0.07" x2="199.93" y2="199.93"/>
		<line class="st2" x1="199.98" y1="0.03" x2="0.03" y2="199.98"/>
		<rect x="29.29" y="29.29" class="st2" width="141.41" height="141.41"/>
		<circle class="st2" cx="100" cy="100" r="70.71"/>
		<circle class="st2" cx="100" cy="100" r="50"/>
		<circle class="st2" cx="100" cy="100" r="25"/>
	</g>
</g>
<g id="Layer_2">
	<g>
		<path d="M143.48,122.24c-0.81,0-1.47,0.66-1.47,1.47v22.87c0,0.28-0.22,0.5-0.5,0.5H111.8v-27.74c0-1.89-1.53-3.42-3.42-3.42
			H91.45c-1.89,0-3.42,1.53-3.42,3.42v27.74H58.32c-0.28,0-0.5-0.22-0.5-0.5V123.7c0-0.81-0.66-1.47-1.47-1.47
			c-0.81,0-1.47,0.66-1.47,1.47v24.05c0,1.24,1.01,2.25,2.25,2.25h85.57c1.24,0,2.25-1.01,2.25-2.25V123.7
			C144.95,122.9,144.29,122.24,143.48,122.24z M90.96,147.07v-27.73c0-0.27,0.22-0.5,0.5-0.5h16.91c0.28,0,0.5,0.22,0.5,0.5v27.73
			H90.96z M136.52,141.28c1.72,0,3.12-1.4,3.12-3.12v-16c0-1.72-1.4-3.12-3.12-3.12h-18.14c-1.72,0-3.12,1.4-3.12,3.12v16
			c0,1.72,1.4,3.12,3.12,3.12H136.52z M118.19,137.85v-15.37c0-0.28,0.22-0.5,0.5-0.5h17.52c0.27,0,0.5,0.22,0.5,0.5v15.37
			c0,0.28-0.22,0.5-0.5,0.5h-17.52C118.41,138.35,118.19,138.13,118.19,137.85z M81.45,141.28c1.72,0,3.12-1.4,3.12-3.12v-16
			c0-1.72-1.4-3.12-3.12-3.12H63.31c-1.72,0-3.12,1.4-3.12,3.12v16c0,1.72,1.4,3.12,3.12,3.12H81.45z M63.12,137.85v-15.37
			c0-0.28,0.22-0.5,0.5-0.5h17.52c0.28,0,0.5,0.22,0.5,0.5v15.37c0,0.28-0.22,0.5-0.5,0.5H63.62
			C63.35,138.35,63.12,138.13,63.12,137.85z M145.64,82.83c0-1.55,1.25-2.82,2.8-2.84c0.83-0.01,1.51-0.64,1.51-1.46v-3.19
			c0-1.21-0.66-1.87-1.47-1.87h-24.2c-0.81,0-1.47,0.66-1.47,1.47c0,0.81,0.66,1.47,1.47,1.47h22.73v0.84
			c-2.01,0.53-3.59,2.11-4.12,4.12h-23.06V68.36c0-3.94-3.19-7.13-7.13-7.13H87.13c-3.94,0-7.13,3.19-7.13,7.13v5.12H51.35
			c-0.81,0-1.47,0.66-1.47,1.47v3.59c0,0.83,0.68,1.45,1.51,1.47c1.55,0.02,2.8,1.29,2.8,2.84c0,0.53,0.28,0.99,0.7,1.25V94.1h-2.64
			c-1.24,0-2.25,1.01-2.25,2.25v7.98c0,1.24,1.01,2.25,2.25,2.25h2.64v11.28c0,0.81,0.66,1.47,1.47,1.47c0.81,0,1.47-0.66,1.47-1.47
			v-10.78c0-0.28,0.22-0.5,0.5-0.5h83.31c0.28,0,0.5,0.22,0.5,0.5v10.78c0,0.81,0.66,1.47,1.47,1.47c0.81,0,1.47-0.66,1.47-1.47
			v-11.28h2.64c1.24,0,2.25-1.01,2.25-2.25v-7.98c0-1.24-1.01-2.25-2.25-2.25h-2.64V84C145.41,83.73,145.64,83.31,145.64,82.83z
			 M82.93,68.36c0-2.32,1.88-4.2,4.2-4.2h25.58c2.32,0,4.2,1.88,4.2,4.2v15.99c0,2.32-1.88,4.2-4.2,4.2H87.13
			c-2.32,0-4.2-1.88-4.2-4.2L82.93,68.36L82.93,68.36z M146.52,103.64H53.44c-0.28,0-0.5-0.22-0.5-0.5v-5.61
			c0-0.28,0.22-0.5,0.5-0.5h93.08c0.28,0,0.5,0.22,0.5,0.5v5.61C147.02,103.42,146.79,103.64,146.52,103.64z M57.82,94.1v-9.3
			c0-0.28,0.22-0.5,0.5-0.5H75.6c0.81,0,1.47-0.66,1.47-1.47c0-0.81-0.66-1.47-1.47-1.47H57.3c-0.22,0-0.4-0.14-0.47-0.35
			c-0.61-1.84-2.13-3.27-4.01-3.77v-0.84h27.18v7.94c0,3.94,3.19,7.13,7.13,7.13h25.58c3.94,0,7.13-3.19,7.13-7.13V84.3h21.79
			c0.28,0,0.5,0.22,0.5,0.5v9.3H57.82z M94.25,131.49h-1.17c-0.81,0-1.47,0.66-1.47,1.47c0,0.81,0.66,1.47,1.47,1.47h1.17
			c0.81,0,1.47-0.66,1.47-1.47C95.71,132.15,95.06,131.49,94.25,131.49z M89.42,70h1.8l1.84,8.81c0.36,1.71,1.88,2.95,3.63,2.95h8.7
			c1.53,0,2.93-0.96,3.47-2.4l2.87-7.61c0.27-0.72,0.17-1.54-0.27-2.17c-0.44-0.64-1.17-1.02-1.94-1.02H97.21
			c-0.81,0-1.47,0.66-1.47,1.47c0,0.81,0.66,1.47,1.47,1.47h11.48l-2.58,6.83c-0.11,0.3-0.4,0.5-0.72,0.5h-8.7
			c-0.36,0-0.68-0.26-0.76-0.62l-1.85-8.84c-0.28-1.33-1.47-2.3-2.83-2.3h-1.83c-0.81,0-1.47,0.66-1.47,1.47
			C87.95,69.35,88.61,70,89.42,70z M96.94,82.99h-0.39c-0.81,0-1.47,0.66-1.47,1.47c0,0.81,0.66,1.47,1.47,1.47h0.39
			c0.81,0,1.47-0.66,1.47-1.47C98.4,83.65,97.75,82.99,96.94,82.99z M103.29,82.99h-0.39c-0.81,0-1.47,0.66-1.47,1.47
			c0,0.81,0.66,1.47,1.47,1.47h0.39c0.81,0,1.47-0.66,1.47-1.47C104.75,83.65,104.1,82.99,103.29,82.99z"/>
		<rect x="-0.39" class="st6" width="200" height="200"/>
	</g>
</g>
</svg>
