<?xml version="1.0" encoding="utf-8"?>
<!-- Generator: Adobe Illustrator 25.0.0, SVG Export Plug-In . SVG Version: 6.00 Build 0)  -->
<svg version="1.1" xmlns="http://www.w3.org/2000/svg" xmlns:xlink="http://www.w3.org/1999/xlink" x="0px" y="0px"
	 viewBox="0 0 200 200" style="enable-background:new 0 0 200 200;" xml:space="preserve">
<style type="text/css">
	.st0{display:none;}
	.st1{display:inline;}
	.st2{fill:none;stroke:#000000;stroke-width:0.1;stroke-miterlimit:10;}
	.st3{fill:#09100C;}
	.st4{fill:#7A7A7A;}
	.st5{fill:#FFFFFF;}
	.st6{fill:none;}
	.st7{fill:#727272;}
	.st8{opacity:0;fill:#FFFFFF;}
	.st9{opacity:0;}
	.st10{fill:#FFFFFF;stroke:#231F20;stroke-miterlimit:10;}
	.st11{stroke:#000000;stroke-width:8;stroke-miterlimit:10;}
	.st12{fill:none;stroke:#000000;stroke-width:8;stroke-miterlimit:10;}
	.st13{fill:none;stroke:#000000;stroke-width:17;stroke-miterlimit:10;}
	.st14{fill:none;stroke:#000000;stroke-width:4;stroke-miterlimit:10;}
	.st15{fill:none;stroke:#000000;stroke-width:3;stroke-miterlimit:10;}
	.st16{fill:#B2B2B2;}
	.st17{fill:none;stroke:#000000;stroke-width:16;stroke-miterlimit:10;}
	.st18{fill:none;stroke:#000000;stroke-width:10;stroke-miterlimit:10;}
	.st19{fill:#171714;}
</style>
<g id="Layer_1" class="st0">
	<g class="st1">
		<rect x="0" y="0" class="st2" width="200" height="200"/>
		<circle class="st2" cx="100" cy="100" r="100"/>
		<rect x="50" y="0.03" class="st2" width="100" height="199.95"/>
		<line class="st2" x1="100" y1="0.03" x2="100" y2="199.98"/>
		<rect x="0.02" y="50" class="st2" width="199.95" height="100"/>
		<line class="st2" x1="199.97" y1="100" x2="0.02" y2="100"/>
		<line class="st2" x1="0.07" y1="0.07" x2="199.93" y2="199.93"/>
		<line class="st2" x1="199.97" y1="0.03" x2="0.02" y2="199.98"/>
		<rect x="29.28" y="29.29" class="st2" width="141.41" height="141.41"/>
		<circle class="st2" cx="99.99" cy="100" r="70.71"/>
		<circle class="st2" cx="100" cy="100" r="50"/>
		<circle class="st2" cx="100" cy="100" r="25"/>
	</g>
</g>
<g id="Layer_2">
	<g>
		<g>
			<path d="M146.57,73.68c1.88,0,3.42-1.54,3.42-3.42V68.3c0-1.88-1.54-3.42-3.42-3.42h-17.03v-3.39c0-1.46-1.18-2.64-2.64-2.64
				h-14.56c-1.79-5.3-6.72-8.85-12.34-8.85s-10.55,3.55-12.34,8.85H73.08c-1.46,0-2.64,1.18-2.64,2.64v3.39H53.41
				c-1.89,0-3.42,1.53-3.42,3.42v1.96c0,1.88,1.54,3.42,3.42,3.42h2.44v48.63c0,0.81,0.66,1.46,1.46,1.46s1.46-0.66,1.46-1.46V74.18
				c0-0.28,0.22-0.5,0.5-0.5h11.17v3.39c0,1.46,1.18,2.64,2.64,2.64h29.44c0.81,0,1.46-0.66,1.46-1.46s-0.66-1.46-1.46-1.46H73.88
				c-0.28,0-0.5-0.22-0.5-0.5V62.28c0-0.28,0.22-0.5,0.5-0.5l13.98,0c1.14,0,2.16-0.73,2.51-1.82c1.84-5.77,8.45-8.95,14.7-5.77
				c2.29,1.16,3.75,3.37,4.56,5.8c0.36,1.07,1.36,1.79,2.5,1.79h13.98c0.28,0,0.5,0.22,0.5,0.5v13.99c0,0.28-0.22,0.5-0.5,0.5
				h-16.75c-0.81,0-1.46,0.66-1.46,1.46s0.66,1.46,1.46,1.46h17.54c1.46,0,2.64-1.18,2.64-2.64v-3.39h11.17c0.28,0,0.5,0.22,0.5,0.5
				v67.02h-25.42v-26.07c1.59,0.04,2.93-1.23,2.93-2.83v-3.12c0-1.56-1.27-2.83-2.83-2.83H84.1c-1.56,0-2.83,1.27-2.83,2.83v3.12
				c0,1.58,1.33,2.89,2.93,2.83v26.07H58.78v-12.06c0-0.81-0.66-1.46-1.46-1.46c-0.81,0-1.46,0.66-1.46,1.46v12.06h-2.44
				c-1.89,0-3.42,1.53-3.42,3.42v1.97c0,1.88,1.54,3.42,3.42,3.42h93.16c1.89,0,3.42-1.53,3.42-3.42v-1.96
				c0-1.88-1.54-3.42-3.42-3.42h-2.44V73.68L146.57,73.68z M70.45,70.75H53.41c-0.27,0-0.49-0.22-0.49-0.49V68.3
				c0-0.27,0.22-0.49,0.49-0.49h17.04V70.75z M84.2,109.28h31.59v2.93H84.2L84.2,109.28z M112.85,115.14v26.07h-11.4v-26.07H112.85z
				 M98.52,115.14v26.07h-11.4v-26.07H98.52z M146.57,144.13c0.27,0,0.49,0.22,0.49,0.49v1.96c0,0.27-0.22,0.49-0.49,0.49H53.41
				c-0.27,0-0.49-0.22-0.49-0.49v-1.96c0-0.27,0.22-0.49,0.49-0.49H146.57z M129.53,70.75v-2.94h17.04c0.27,0,0.49,0.22,0.49,0.49
				v1.96c0,0.27-0.22,0.49-0.49,0.49H129.53z M72.65,89.93c0.62,0,1.22,0.18,1.73,0.53c0.67,0.45,1.58,0.28,2.03-0.39
				c0.45-0.67,0.28-1.58-0.39-2.03c-1-0.67-2.16-1.03-3.37-1.03c-3.32,0-6.03,2.7-6.03,6.03c0,3.32,2.7,6.03,6.03,6.03
				c1.34,0,2.54-0.44,3.48-1.28c0.18-0.16,0.36-0.34,0.52-0.53c0.52-0.62,0.44-1.54-0.18-2.06c-0.62-0.52-1.54-0.44-2.06,0.18
				c-0.07,0.08-0.14,0.16-0.22,0.23c-0.4,0.35-0.91,0.53-1.53,0.53c-1.71,0-3.1-1.39-3.1-3.1C69.55,91.32,70.94,89.93,72.65,89.93
				L72.65,89.93z M99.55,87.08c-0.81,0-1.46,0.66-1.46,1.46v9.04c0,0.81,0.66,1.46,1.46,1.46h3.81c0.81,0,1.46-0.66,1.46-1.46
				s-0.66-1.46-1.46-1.46h-2.34v-1.59h2.06c0.81,0,1.46-0.66,1.46-1.46c0-0.81-0.66-1.46-1.46-1.46h-2.06v-1.59h2.34
				c0.81,0,1.46-0.66,1.46-1.46s-0.66-1.46-1.46-1.46L99.55,87.08L99.55,87.08z M126.06,98.11l0.49-1.3h3.48l0.49,1.29
				c0.29,0.76,1.13,1.14,1.89,0.85c0.76-0.29,1.14-1.13,0.85-1.89l-3.39-8.99C129.62,87.42,129,87,128.31,87h0
				c-0.69,0-1.31,0.42-1.56,1.07l-3.43,8.99c-0.29,0.76,0.09,1.6,0.85,1.89C124.91,99.24,125.77,98.87,126.06,98.11L126.06,98.11z
				 M128.3,92.22l0.63,1.66h-1.26L128.3,92.22z M82.9,97.59v-9.12c0-0.81-0.66-1.46-1.46-1.46c-0.81,0-1.46,0.66-1.46,1.46v9.12
				c0,0.81,0.66,1.46,1.46,1.46C82.24,99.05,82.9,98.39,82.9,97.59L82.9,97.59z M77.2,69.28c0,2.88,2.34,5.21,5.22,5.21
				s5.22-2.34,5.22-5.21c0-2.88-2.34-5.22-5.22-5.22S77.2,66.4,77.2,69.28z M84.7,69.28c0,1.26-1.03,2.29-2.29,2.29
				c-1.26,0-2.29-1.03-2.29-2.29c0-1.26,1.03-2.29,2.29-2.29C83.67,66.99,84.7,68.02,84.7,69.28z M122.78,69.28
				c0-2.88-2.34-5.22-5.22-5.22c-2.88,0-5.22,2.34-5.22,5.22c0,2.88,2.34,5.21,5.22,5.21C120.44,74.49,122.78,72.15,122.78,69.28z
				 M115.28,69.28c0-1.26,1.03-2.29,2.29-2.29c1.26,0,2.29,1.03,2.29,2.29c0,1.26-1.03,2.29-2.29,2.29
				C116.31,71.56,115.28,70.54,115.28,69.28z M108.95,98.96c0.79,0.14,1.56-0.39,1.7-1.18l0.66-3.66l1.1,3.74
				c0.21,0.71,0.86,1.19,1.6,1.19h0.01c0.74,0,1.39-0.49,1.6-1.21l1.06-3.74l0.7,3.68c0.15,0.79,0.92,1.32,1.71,1.16
				c0.79-0.15,1.32-0.92,1.16-1.71l-1.7-8.9c-0.15-0.74-0.79-1.29-1.54-1.33c-0.75-0.04-1.45,0.43-1.68,1.15
				c-0.01,0.05-1.33,4.66-1.34,4.71c-0.02-0.05-1.38-4.68-1.39-4.72c-0.24-0.72-0.94-1.18-1.7-1.13c-0.76,0.05-1.39,0.61-1.53,1.37
				l-1.6,8.88C107.63,98.05,108.16,98.81,108.95,98.96L108.95,98.96z M86.86,87.08c-0.61,0.19-1.03,0.76-1.03,1.4v9.11
				c0,0.81,0.66,1.46,1.46,1.46s1.46-0.66,1.46-1.46v-4.41l3.49,5.05c0.42,0.6,1.12,0.86,1.79,0.65c0.68-0.21,1.12-0.84,1.12-1.61
				l-0.09-8.82c-0.01-0.81-0.66-1.46-1.48-1.45c-0.81,0.01-1.46,0.67-1.45,1.48l0.04,4.5l-3.68-5.33
				C88.13,87.12,87.47,86.89,86.86,87.08L86.86,87.08z M94.83,74.06c0.76,0.55,1.75,0.62,2.58,0.19l2.58-1.36l2.58,1.36
				c0.83,0.44,1.82,0.37,2.58-0.19c0.76-0.55,1.13-1.47,0.98-2.4l-0.49-2.88l2.09-2.04c0.67-0.66,0.91-1.62,0.62-2.51
				c-0.29-0.89-1.05-1.53-1.98-1.67l-2.89-0.42l-1.29-2.62c-0.42-0.84-1.26-1.37-2.2-1.37s-1.78,0.52-2.2,1.37l-1.29,2.62
				l-2.89,0.42c-0.93,0.14-1.69,0.77-1.98,1.67c-0.29,0.89-0.05,1.86,0.62,2.51l2.09,2.04l-0.49,2.88
				C93.69,72.59,94.06,73.51,94.83,74.06L94.83,74.06z M97.17,65.01c0.8-0.12,1.49-0.62,1.85-1.34l0.97-1.97l0.97,1.97
				c0.36,0.72,1.05,1.22,1.85,1.34l2.18,0.32l-1.58,1.54c-0.58,0.56-0.84,1.37-0.71,2.17l0.37,2.17l-1.95-1.02
				c-0.36-0.19-0.75-0.28-1.14-0.28s-0.78,0.09-1.14,0.28L96.9,71.2l0.37-2.17c0.14-0.8-0.13-1.61-0.7-2.17l-1.58-1.54L97.17,65.01z
				"/>
		</g>
		<rect x="-0.13" class="st6" width="200" height="200"/>
	</g>
</g>
</svg>
