<?xml version="1.0" encoding="utf-8"?>
<!-- Generator: Adobe Illustrator 25.0.0, SVG Export Plug-In . SVG Version: 6.00 Build 0)  -->
<svg version="1.1" xmlns="http://www.w3.org/2000/svg" xmlns:xlink="http://www.w3.org/1999/xlink" x="0px" y="0px"
	 viewBox="0 0 200 200" style="enable-background:new 0 0 200 200;" xml:space="preserve">
<style type="text/css">
	.st0{display:none;}
	.st1{display:inline;}
	.st2{fill:none;stroke:#000000;stroke-width:0.1;stroke-miterlimit:10;}
	.st3{fill:#09100C;}
	.st4{fill:#7A7A7A;}
	.st5{fill:#FFFFFF;}
	.st6{fill:none;}
	.st7{fill:#727272;}
	.st8{opacity:0;fill:#FFFFFF;}
	.st9{opacity:0;}
	.st10{fill:#FFFFFF;stroke:#231F20;stroke-miterlimit:10;}
	.st11{stroke:#000000;stroke-width:8;stroke-miterlimit:10;}
	.st12{fill:none;stroke:#000000;stroke-width:8;stroke-miterlimit:10;}
	.st13{fill:none;stroke:#000000;stroke-width:17;stroke-miterlimit:10;}
	.st14{fill:none;stroke:#000000;stroke-width:4;stroke-miterlimit:10;}
	.st15{fill:none;stroke:#000000;stroke-width:3;stroke-miterlimit:10;}
	.st16{fill:#B2B2B2;}
	.st17{fill:none;stroke:#000000;stroke-width:16;stroke-miterlimit:10;}
	.st18{fill:none;stroke:#000000;stroke-width:10;stroke-miterlimit:10;}
	.st19{fill:#171714;}
</style>
<g id="Layer_1" class="st0">
	<g class="st1">
		<rect x="0" y="0" class="st2" width="200" height="200"/>
		<circle class="st2" cx="100.01" cy="100" r="100"/>
		<rect x="50" y="0.03" class="st2" width="100" height="199.95"/>
		<line class="st2" x1="100" y1="0.03" x2="100" y2="199.98"/>
		<rect x="0.02" y="50" class="st2" width="199.95" height="100"/>
		<line class="st2" x1="199.98" y1="100" x2="0.02" y2="100"/>
		<line class="st2" x1="0.07" y1="0.07" x2="199.93" y2="199.93"/>
		<line class="st2" x1="199.98" y1="0.03" x2="0.02" y2="199.98"/>
		<rect x="29.29" y="29.29" class="st2" width="141.41" height="141.41"/>
		<circle class="st2" cx="99.99" cy="100" r="70.71"/>
		<circle class="st2" cx="100" cy="100" r="50"/>
		<circle class="st2" cx="100" cy="100" r="25"/>
	</g>
</g>
<g id="Layer_2">
	<g>
		<g>
			<g>
				<path d="M146.4,87.86h-0.95l-8.95-24.09c-0.79-2.12-2.81-3.53-5.07-3.53H68.25c-2.26,0-4.28,1.41-5.07,3.53l-8.95,24.09h-0.95
					c-1.9,0-3.44,1.54-3.44,3.44v2.76c0,1.9,1.54,3.44,3.44,3.44h0.51v32.11c0,0.81,0.66,1.46,1.46,1.46c0.81,0,1.46-0.66,1.46-1.46
					V98c0-0.28,0.22-0.5,0.5-0.5h22.5c1.28,0,2.5-0.51,3.41-1.41l16.36-16.36c0.2-0.2,0.51-0.2,0.71,0l16.36,16.36
					c0.9,0.9,2.13,1.41,3.41,1.41h22.5c0.28,0,0.5,0.22,0.5,0.5v3.38c0,0.81,0.66,1.46,1.46,1.46c0.81,0,1.46-0.66,1.46-1.46V97.5
					h0.51c1.9,0,3.44-1.54,3.44-3.44V91.3C149.84,89.41,148.3,87.86,146.4,87.86L146.4,87.86z M65.93,64.79
					c0.36-0.97,1.29-1.62,2.33-1.62h63.17c1.03,0,1.97,0.65,2.33,1.62l8.57,23.07h-20.36l-18.71-18.71
					c-0.91-0.91-2.12-1.41-3.41-1.41s-2.5,0.5-3.41,1.41L77.72,87.86H57.35L65.93,64.79z M146.91,94.06c0,0.28-0.23,0.51-0.51,0.51
					h-26.44c-0.5,0-0.98-0.2-1.34-0.55l-17.75-17.75c-0.27-0.27-0.65-0.43-1.04-0.43s-0.76,0.15-1.04,0.43L81.05,94.02
					c-0.36,0.36-0.83,0.55-1.34,0.55H53.28c-0.28,0-0.51-0.23-0.51-0.51V91.3c0-0.28,0.23-0.51,0.51-0.51h25.05
					c0.39,0,0.76-0.15,1.04-0.43L98.5,71.22c0.36-0.36,0.83-0.55,1.34-0.55c0.5,0,0.98,0.2,1.34,0.55l19.14,19.14
					c0.27,0.27,0.65,0.43,1.04,0.43h25.05c0.28,0,0.51,0.23,0.51,0.51L146.91,94.06L146.91,94.06z"/>
				<path d="M137.92,138.14c0.81,0,1.46-0.66,1.46-1.46v-26.04c0-0.81-0.66-1.46-1.46-1.46h-19.73c-0.81,0-1.46,0.66-1.46,1.46
					v26.04c0,0.81,0.66,1.46,1.46,1.46H137.92z M135.95,128.9h-5.94c-0.28,0-0.5-0.22-0.5-0.5v-5.94c0-0.28,0.22-0.5,0.5-0.5h5.94
					c0.28,0,0.5,0.22,0.5,0.5v5.94C136.45,128.68,136.23,128.9,135.95,128.9z M126.09,128.9h-5.94c-0.28,0-0.5-0.22-0.5-0.5v-5.94
					c0-0.28,0.22-0.5,0.5-0.5h5.94c0.28,0,0.5,0.22,0.5,0.5v5.94C126.59,128.68,126.36,128.9,126.09,128.9z M135.95,135.21h-15.8
					c-0.28,0-0.5-0.22-0.5-0.5v-2.38c0-0.28,0.22-0.5,0.5-0.5h15.8c0.28,0,0.5,0.22,0.5,0.5v2.38
					C136.45,134.99,136.23,135.21,135.95,135.21z M135.95,119.04h-5.94c-0.28,0-0.5-0.22-0.5-0.5v-5.94c0-0.28,0.22-0.5,0.5-0.5
					h5.94c0.28,0,0.5,0.22,0.5,0.5v5.94C136.45,118.81,136.23,119.04,135.95,119.04z M126.59,112.6v5.94c0,0.28-0.22,0.5-0.5,0.5
					h-5.94c-0.28,0-0.5-0.22-0.5-0.5v-5.94c0-0.28,0.22-0.5,0.5-0.5h5.94C126.36,112.1,126.59,112.32,126.59,112.6z"/>
				<path d="M81.49,138.14c0.81,0,1.46-0.66,1.46-1.46v-26.04c0-0.81-0.66-1.46-1.46-1.46H61.76c-0.81,0-1.46,0.66-1.46,1.46v26.04
					c0,0.81,0.66,1.46,1.46,1.46H81.49z M79.52,128.9h-5.94c-0.28,0-0.5-0.22-0.5-0.5v-5.94c0-0.28,0.22-0.5,0.5-0.5h5.94
					c0.28,0,0.5,0.22,0.5,0.5v5.94C80.02,128.68,79.8,128.9,79.52,128.9z M69.66,128.9h-5.94c-0.28,0-0.5-0.22-0.5-0.5v-5.94
					c0-0.28,0.22-0.5,0.5-0.5h5.94c0.28,0,0.5,0.22,0.5,0.5v5.94C70.16,128.68,69.94,128.9,69.66,128.9z M79.52,135.21h-15.8
					c-0.28,0-0.5-0.22-0.5-0.5v-2.38c0-0.28,0.22-0.5,0.5-0.5h15.8c0.28,0,0.5,0.22,0.5,0.5v2.38
					C80.02,134.99,79.8,135.21,79.52,135.21z M79.52,119.04h-5.94c-0.28,0-0.5-0.22-0.5-0.5v-5.94c0-0.28,0.22-0.5,0.5-0.5h5.94
					c0.28,0,0.5,0.22,0.5,0.5v5.94C80.02,118.81,79.8,119.04,79.52,119.04z M70.16,112.6v5.94c0,0.28-0.22,0.5-0.5,0.5h-5.94
					c-0.28,0-0.5-0.22-0.5-0.5v-5.94c0-0.28,0.22-0.5,0.5-0.5h5.94C69.94,112.1,70.16,112.32,70.16,112.6z"/>
				<path d="M104.57,115.48H95.1c-0.81,0-1.46,0.66-1.46,1.46v6.31c0,0.81,0.66,1.46,1.46,1.46h9.47c0.81,0,1.46-0.66,1.46-1.46
					v-6.31C106.04,116.14,105.38,115.48,104.57,115.48z M102.61,121.8h-5.54c-0.28,0-0.5-0.22-0.5-0.5v-2.38
					c0-0.28,0.22-0.5,0.5-0.5h5.54c0.28,0,0.5,0.22,0.5,0.5v2.38C103.11,121.57,102.88,121.8,102.61,121.8z"/>
				<path d="M107.62,97.02c0-4.29-3.49-7.78-7.78-7.78c-4.29,0-7.78,3.49-7.78,7.78c0,4.29,3.49,7.78,7.78,7.78
					S107.62,101.31,107.62,97.02z M94.99,97.02c0-2.67,2.18-4.85,4.85-4.85c2.67,0,4.85,2.18,4.85,4.85c0,2.67-2.18,4.85-4.85,4.85
					C97.16,101.87,94.99,99.7,94.99,97.02L94.99,97.02z"/>
				<path d="M148.37,140.34h-2.48v-32.11c0-0.81-0.66-1.46-1.46-1.46c-0.81,0-1.46,0.66-1.46,1.46v32.11h-30.61v-29.71
					c0-0.81-0.66-1.46-1.46-1.46h-22.1c-0.81,0-1.46,0.66-1.46,1.46v29.71H56.71v-3.88c0-0.81-0.66-1.46-1.46-1.46
					s-1.46,0.66-1.46,1.46v3.88H51.3c-0.81,0-1.46,0.66-1.46,1.46v6.71c0,0.81,0.66,1.46,1.46,1.46h97.07
					c0.81,0,1.46-0.66,1.46-1.46v-6.71C149.84,141,149.18,140.34,148.37,140.34z M90.25,129.66h2.09c0.81,0,1.46-0.66,1.46-1.46
					c0-0.81-0.66-1.46-1.46-1.46h-2.09V112.1h19.17v28.24H90.25V129.66z M146.91,147.05H52.77v-3.78h94.14V147.05z"/>
			</g>
		</g>
		<rect x="-0.26" y="-0.05" class="st6" width="200" height="200"/>
	</g>
</g>
</svg>
