<svg width="48" height="48" viewBox="0 0 48 48" fill="none" xmlns="http://www.w3.org/2000/svg">
<path fill-rule="evenodd" clip-rule="evenodd" d="M21.669 2.58052C19.2865 5.22869 15.8391 6.88924 12.0012 6.88924C11.1623 6.88924 10.3438 6.81003 9.55211 6.65925C7.71578 6.30951 5.73422 7.72246 5.88724 9.86469L7.03592 25.9462C7.53418 32.9219 11.3193 39.2451 17.2322 42.9795L21.8653 45.9057C23.17 46.7298 24.8324 46.7298 26.1372 45.9057L30.7703 42.9795C36.6832 39.2451 40.4683 32.9219 40.9665 25.9462L42.1152 9.8647C42.2682 7.72246 40.2867 6.30951 38.4504 6.65926C37.6587 6.81003 36.8401 6.88924 36.0012 6.88924C32.1633 6.88924 28.716 5.22869 26.3335 2.58052C25.0936 1.20232 22.9089 1.20233 21.669 2.58052ZM12.0012 8.88924C16.4297 8.88924 20.41 6.97013 23.1558 3.91819C23.6012 3.4231 24.4013 3.4231 24.8467 3.91819C27.5924 6.97013 31.5727 8.88924 36.0012 8.88924C36.9663 8.88924 37.9102 8.79809 38.8245 8.62394C39.5093 8.49352 40.17 9.02691 40.1203 9.7222L38.9716 25.8037C38.5187 32.1452 35.0776 37.8936 29.7023 41.2886L25.0692 44.2147C24.4168 44.6267 23.5856 44.6267 22.9332 44.2147L18.3002 41.2886C12.9248 37.8936 9.4838 32.1452 9.03084 25.8037L7.88216 9.7222C7.83249 9.02691 8.49317 8.49352 9.17792 8.62394C10.0923 8.79809 11.0361 8.88924 12.0012 8.88924ZM32.2077 19.4565C32.5983 19.0659 32.5983 18.4328 32.2077 18.0423C31.8172 17.6517 31.184 17.6517 30.7935 18.0423L21.1881 27.6476L17.2077 23.6673C16.8172 23.2767 16.184 23.2767 15.7935 23.6673C15.403 24.0578 15.403 24.6909 15.7935 25.0815L20.481 29.769C20.8715 30.1595 21.5047 30.1595 21.8952 29.769L32.2077 19.4565Z" fill="#0979FD"/>
</svg>
