<svg width="56" height="56" viewBox="0 0 56 56" fill="none" xmlns="http://www.w3.org/2000/svg">
<path fill-rule="evenodd" clip-rule="evenodd" d="M47.25 15.8945H48.8542C50.1305 15.8945 51.3546 16.4016 52.2571 17.3041C53.1596 18.2066 53.6667 19.4307 53.6667 20.707V38.3529C53.6667 39.6292 53.1596 40.8533 52.2571 41.7558C51.3546 42.6583 50.1305 43.1654 48.8542 43.1654H47.25V52.6992L33.9026 43.1654H23.1875V39.957H34.9307L44.0417 46.4648V39.957H48.8542C49.2796 39.957 49.6876 39.788 49.9885 39.4872C50.2893 39.1863 50.4583 38.7783 50.4583 38.3529V20.707C50.4583 20.2816 50.2893 19.8736 49.9885 19.5727C49.6876 19.2719 49.2796 19.1029 48.8542 19.1029H47.25V15.8945Z" fill="#4897E0"/>
<path fill-rule="evenodd" clip-rule="evenodd" d="M3.7428 6.07556C4.64532 5.17305 5.8694 4.66602 7.14575 4.66602H39.2291C40.5054 4.66602 41.7295 5.17305 42.632 6.07556C43.5346 6.97808 44.0416 8.20216 44.0416 9.47852V30.3327C44.0416 31.609 43.5346 32.8331 42.632 33.7356C41.7295 34.6382 40.5054 35.1452 39.2291 35.1452H25.3943L10.3541 48.3054V35.1452H7.14575C5.8694 35.1452 4.64532 34.6382 3.7428 33.7356C2.84028 32.8331 2.33325 31.609 2.33325 30.3327V9.47852C2.33325 8.20216 2.84028 6.97808 3.7428 6.07556ZM7.14575 7.87435C6.7203 7.87435 6.31227 8.04336 6.01144 8.3442C5.7106 8.64504 5.54159 9.05306 5.54159 9.47852V30.3327C5.54159 30.7581 5.7106 31.1662 6.01144 31.467C6.31228 31.7678 6.7203 31.9368 7.14575 31.9368H13.5624V41.235L24.1888 31.9368H39.2291C39.6545 31.9368 40.0626 31.7678 40.3634 31.467C40.6642 31.1662 40.8333 30.7581 40.8333 30.3327V9.47852C40.8333 9.05306 40.6642 8.64504 40.3634 8.3442C40.0626 8.04336 39.6545 7.87435 39.2291 7.87435H7.14575Z" fill="#4897E0"/>
</svg>
